<?xml version="1.0" encoding="utf-8"?>
<!-- Generator: Adobe Illustrator 21.1.0, SVG Export Plug-In . SVG Version: 6.00 Build 0)  -->
<svg version="1.1" id="Layer_1" xmlns="http://www.w3.org/2000/svg" xmlns:xlink="http://www.w3.org/1999/xlink" x="0px" y="0px"
	 viewBox="0 0 317.5 317.5" style="enable-background:new 0 0 317.5 317.5;" xml:space="preserve">
<style type="text/css">
	.st0{fill:url(#SVGID_1_);}
</style>
<title>request-for-commits-abstract</title>
<linearGradient id="SVGID_1_" gradientUnits="userSpaceOnUse" x1="46.1575" y1="46.1454" x2="268.7151" y2="268.703">
	<stop  offset="0" style="stop-color:#FF9A8C"/>
	<stop  offset="0.4654" style="stop-color:#EB0029"/>
</linearGradient>
<path class="st0" d="M226.6,274.5c-0.3,0.2-0.4,0.5-0.2,0.8c0.2,0.3,0.5,0.4,0.8,0.2c40.7-23.6,66-67.4,66-114.4
	c0-20.1-4.5-39.2-12.6-56.3c-1.1-1.4-2.2-2.7-3.3-4.1c9.4,18.1,14.8,38.6,14.8,60.4C292,207.7,267,251.1,226.6,274.5z M312.3,161.3
	c-0.1,37.8-14.1,74-39.6,101.9c-0.2,0.2-0.2,0.6,0,0.8c0.1,0.1,0.2,0.1,0.4,0.1c0.2,0,0.3-0.1,0.4-0.2c25-27.3,39.1-62.6,39.9-99.5
	C313,163.3,312.7,162.3,312.3,161.3z M160.5,39.6c0,0.3,0.3,0.6,0.6,0.6c66.7,0,120.9,54.2,120.9,120.9c0,29-10.4,57-29.3,78.9
	c-0.2,0.2-0.2,0.6,0.1,0.8c0.1,0.1,0.2,0.1,0.4,0.1c0.2,0,0.3-0.1,0.4-0.2c19.1-22.1,29.6-50.4,29.6-79.6c0-67.3-54.7-122-122-122
	C160.7,39,160.5,39.3,160.5,39.6z M120,161c0,22.6,18.4,41,41,41s41-18.4,41-41s-18.4-41-41-41S120,138.4,120,161z M201,161
	c0,22-17.9,39.9-39.9,39.9c-22,0-39.9-17.9-39.9-39.9s17.9-39.9,39.9-39.9C183.1,121.1,201,139,201,161z M283.7,230.9
	c-0.2,0.3-0.1,0.6,0.2,0.8c0.1,0,0.2,0.1,0.3,0.1c0.2,0,0.4-0.1,0.5-0.3c12.2-21.3,18.6-45.7,18.6-70.4c0-8.5-0.7-16.8-2.2-24.9
	c-0.6-1.1-1.2-2.2-1.8-3.2c1.8,9.1,2.8,18.5,2.8,28.1C302.2,185.6,295.8,209.7,283.7,230.9z M109.9,161c0,28.2,23,51.2,51.2,51.2
	c28.2,0,51.2-23,51.2-51.2s-23-51.2-51.2-51.2C132.8,109.9,109.9,132.8,109.9,161z M211.1,161c0,27.6-22.4,50-50,50
	c-27.6,0-50-22.4-50-50s22.4-50,50-50C188.6,111,211.1,133.5,211.1,161z M199.2,254.8c-0.1-0.3-0.4-0.4-0.7-0.3
	c-11.9,4.8-24.5,7.2-37.4,7.2c-55.5,0-100.6-45.1-100.6-100.6S105.6,60.4,161,60.4c10,0,19.8,1.5,29.2,4.3c0.3,0.1,0.6-0.1,0.7-0.4
	c0.1-0.3-0.1-0.6-0.4-0.7c-9.5-2.9-19.5-4.4-29.6-4.4c-56.1,0-101.8,45.7-101.8,101.8S104.9,262.8,161,262.8
	c13.1,0,25.8-2.4,37.9-7.3C199.2,255.4,199.3,255.1,199.2,254.8z M161,30c11.4,0,22.4,1.5,33,4.2c-1.3-0.7-2.6-1.4-3.8-2.1
	c-9.4-2.1-19.1-3.2-29.1-3.2C88.2,28.9,28.9,88.2,28.9,161c0,9.9,1.1,19.7,3.2,29.1c0.7,1.3,1.4,2.6,2.1,3.8
	c-2.8-10.7-4.2-21.7-4.2-33C30,88.8,88.8,30,161,30z M86.6,65.8c17.9-14,39.2-22.6,61.8-25c0.3,0,0.5-0.3,0.5-0.6
	c0-0.3-0.3-0.5-0.6-0.5c-22.7,2.4-44.3,11.1-62.4,25.2c-0.2,0.2-0.3,0.5-0.1,0.8c0.1,0.1,0.3,0.2,0.4,0.2
	C86.4,65.9,86.5,65.9,86.6,65.8z M32.9,79.6c-0.3-0.2-0.6-0.1-0.8,0.2C20.6,98,13.2,118.3,10.2,139.5c0.3,0.8,0.5,1.6,0.8,2.4
	c2.8-21.9,10.2-42.9,22.1-61.6C33.3,80.1,33.2,79.8,32.9,79.6z M49.2,161c0,61.7,50.2,111.9,111.9,111.9c0.3,0,0.6-0.3,0.6-0.6
	c0-0.3-0.3-0.6-0.6-0.6C100,271.8,50.3,222.1,50.3,161c0-41.8,23.1-79.6,60.4-98.7c0.3-0.1,0.4-0.5,0.2-0.8
	c-0.1-0.3-0.5-0.4-0.8-0.2C72.5,80.6,49.2,118.8,49.2,161z M39,90.1c12.1-20.8,29.5-38.3,50.3-50.6c0.3-0.2,0.4-0.5,0.2-0.8
	c-0.2-0.3-0.5-0.4-0.8-0.2c-20.9,12.4-38.4,30-50.7,51c-12.6,21.6-19.3,46.4-19.3,71.5c0,0.4,0,0.8,0,1.2c0.4,0.9,0.8,1.8,1.2,2.7
	c0-1.3-0.1-2.6-0.1-4C19.9,136.1,26.5,111.5,39,90.1z M60.2,35.1c18.2-14.6,38.7-24.8,60.6-30.4c-0.8-0.2-1.5-0.4-2.3-0.6
	C97.2,9.9,77.2,20,59.5,34.2c-0.2,0.2-0.3,0.5-0.1,0.8C59.6,35.2,60,35.3,60.2,35.1z M244.8,249.7c0.2-0.2,0.2-0.6,0-0.8
	c-0.2-0.2-0.6-0.2-0.8,0c-22.5,21.3-52,33-83,33c-66.7,0-120.9-54.2-120.9-120.9c0-33.2,13.2-64.1,37.1-87.1c0.2-0.2,0.2-0.6,0-0.8
	c-0.2-0.2-0.6-0.2-0.8,0C52.3,96.3,39,127.6,39,161c0,67.3,54.7,122,122,122C192.3,283.1,222.1,271.2,244.8,249.7z M211.4,282
	c-16,6.7-32.9,10-50.4,10c-0.3,0-0.6,0.3-0.6,0.6c0,0.3,0.3,0.6,0.6,0.6c17.6,0,34.7-3.4,50.8-10.1c0.3-0.1,0.4-0.4,0.3-0.7
	C212,282,211.7,281.9,211.4,282z M48.7,44.4c-0.2-0.2-0.6-0.2-0.8,0C26.6,65.1,11.6,90.6,4.1,118.6c0.2,0.8,0.4,1.5,0.6,2.3
	C12,92.3,27,66.3,48.7,45.2C48.9,45,49,44.6,48.7,44.4z M277.8,242.3c0.2-0.3,0.1-0.6-0.1-0.8c-0.3-0.2-0.6-0.1-0.8,0.1
	c-26.4,37.9-69.7,60.5-115.8,60.5c-9.6,0-19-1-28.1-2.8c1.1,0.6,2.2,1.2,3.2,1.8c8.1,1.4,16.4,2.2,24.9,2.2
	C207.5,303.3,251.2,280.5,277.8,242.3z M263.9,272c-28,26-64.4,40.3-102.6,40.3c1,0.4,2.1,0.7,3.1,1.1
	c37.3-0.8,72.8-15.1,100.3-40.6c0.2-0.2,0.2-0.6,0-0.8C264.5,271.8,264.1,271.8,263.9,272z M39.3,70.4c0.3,0.2,0.6,0.1,0.8-0.1
	C65,37,101.4,16,141.9,11c-0.8-0.3-1.6-0.6-2.4-0.8C99.6,15.8,63.9,36.7,39.1,69.6C39,69.9,39,70.2,39.3,70.4z M148.3,292.6
	c0.3,0,0.5-0.2,0.6-0.5c0-0.3-0.2-0.6-0.5-0.6c-16.8-1.6-32.9-6.4-47.5-14c1.3,1.1,2.7,2.2,4.1,3.3
	C118.5,287.1,133.1,291.1,148.3,292.6C148.3,292.6,148.3,292.6,148.3,292.6z M99.8,161c0,33.8,27.5,61.3,61.3,61.3
	c33.8,0,61.3-27.5,61.3-61.3S194.8,99.8,161,99.8C127.3,99.8,99.8,127.3,99.8,161z M221.2,161c0,33.2-27,60.2-60.2,60.2
	c-33.2,0-60.2-27-60.2-60.2s27-60.2,60.2-60.2C194.2,100.9,221.2,127.9,221.2,161z M69.4,161c0,50.5,41.1,91.6,91.6,91.6
	c50.5,0,91.6-41.1,91.6-91.6c0-50.5-41.1-91.6-91.6-91.6C110.5,69.4,69.4,110.5,69.4,161z M251.6,161c0,49.9-40.6,90.5-90.5,90.5
	c-49.9,0-90.5-40.6-90.5-90.5s40.6-90.5,90.5-90.5C211,70.5,251.6,111.1,251.6,161z M79.5,161c0,45,36.6,81.5,81.5,81.5
	c45,0,81.5-36.6,81.5-81.5S206,79.5,161,79.5C116.1,79.5,79.5,116.1,79.5,161z M241.4,161c0,44.3-36.1,80.4-80.4,80.4
	c-44.3,0-80.4-36.1-80.4-80.4c0-44.3,36.1-80.4,80.4-80.4C205.4,80.6,241.4,116.7,241.4,161z M89.6,161c0,39.4,32,71.4,71.4,71.4
	c39.4,0,71.4-32,71.4-71.4s-32-71.4-71.4-71.4C121.7,89.6,89.6,121.7,89.6,161z M231.3,161c0,38.8-31.5,70.3-70.3,70.3
	c-38.8,0-70.3-31.5-70.3-70.3s31.5-70.3,70.3-70.3C199.8,90.8,231.3,122.3,231.3,161z M107.5,29.8c0.1,0.3,0.4,0.4,0.7,0.3
	c16.8-6.8,34.6-10.2,52.8-10.2c1.3,0,2.7,0,4,0.1c-0.9-0.4-1.8-0.8-2.7-1.2c-0.4,0-0.8,0-1.2,0c-18.4,0-36.3,3.5-53.2,10.3
	C107.5,29.2,107.4,29.5,107.5,29.8z M261.7,161c0,35.6-19.1,68.9-49.8,86.9c-0.3,0.2-0.4,0.5-0.2,0.8c0.1,0.2,0.3,0.3,0.5,0.3
	c0.1,0,0.2,0,0.3-0.1c31.1-18.2,50.4-51.9,50.4-87.9c0-38.7-21.5-73.5-56-90.9c-0.3-0.1-0.6,0-0.8,0.2c-0.1,0.3,0,0.6,0.2,0.8
	C240.5,88.4,261.7,122.8,261.7,161z M176.2,271.9C176.2,271.9,176.3,271.9,176.2,271.9c55.2-7.5,96.7-55.2,96.7-110.9
	c0-61.7-50.2-111.9-111.9-111.9c-11.3,0-22.4,1.7-33.1,5c-0.3,0.1-0.5,0.4-0.4,0.7c0.1,0.3,0.4,0.5,0.7,0.4
	c10.6-3.3,21.6-4.9,32.8-4.9c61.1,0,110.8,49.7,110.8,110.8c0,55.1-41.1,102.3-95.7,109.7c-0.3,0-0.5,0.3-0.5,0.6
	C175.7,271.7,175.9,271.9,176.2,271.9z"/>
</svg>
