<?xml version="1.0" encoding="utf-8"?>
<!-- Generator: Adobe Illustrator 24.0.0, SVG Export Plug-In . SVG Version: 6.00 Build 0)  -->
<svg version="1.1" id="Layer_1" xmlns="http://www.w3.org/2000/svg" xmlns:xlink="http://www.w3.org/1999/xlink" x="0px" y="0px"
	 viewBox="0 0 317.5 317.5" style="enable-background:new 0 0 317.5 317.5;" xml:space="preserve">
<style type="text/css">
	.st0{fill:url(#SVGID_1_);}
</style>
<title>request-for-commits-abstract</title>
<linearGradient id="SVGID_1_" gradientUnits="userSpaceOnUse" x1="42.6364" y1="42.6364" x2="274.8637" y2="274.8637">
	<stop  offset="0" style="stop-color:#FFA996"/>
	<stop  offset="0.4785" style="stop-color:#FF4438"/>
</linearGradient>
<path class="st0" d="M95.1,236.4c-1.7-1.3-3.9-1.1-5.3,0.6l-12.2,14.5c-1.7,2.1-1.5,5.4,0.4,7.1l21.4,18.9c1.6,1.4,1.7,3.6,1.1,5.2
	c-0.6,1.5-1.8,2.4-3.2,2.4h-5v1.1h5c1.9,0,3.5-1.2,4.2-3.2c0.7-1.9,0.6-4.7-1.4-6.4l-21.4-18.9c-1.5-1.3-1.7-4-0.3-5.6l12.2-14.5
	c1-1.2,2.5-1.4,3.7-0.4l23.4,18.4l0.3-0.4v0.6h81.3v-1.1h-81.1L95.1,236.4z M88.5,94.5c-3.9,3.8-6.2,7.9-6.3,8.1l1,0.6
	c0.1-0.2,9.4-16.3,20.6-13.2l0.3-1.1C99,87.5,93.7,89.4,88.5,94.5z M100.5,56.8l0.8,0.8c12.6-11.3,1.6-30.8,1.5-31l-1,0.6
	C101.9,27.4,112.5,46.1,100.5,56.8z M18.4,198.2l1.1,0.2c0-0.1,2-13.5,11.6-15.6l-0.2-1.1C20.5,183.9,18.5,197.6,18.4,198.2z
	 M305.9,135.8c3.8-4.8,5.9-11.1,5.9-17.7c0-12.1-7.2-22.7-17.2-25.3c0,0,0,0,0-0.1c0-11.5-8-20.9-17.8-20.9h0c0.4-1.5,0.6-3,0.6-4.5
	c0-6.5-3.4-12.4-8.6-14.7c0-0.2,0-0.3,0-0.5c0-5.9-4.1-10.7-9.2-10.7c-0.1,0-0.2,0-0.3,0c-2-6.1-7-10.2-12.6-10.2
	c-1.4,0-2.8,0.3-4.1,0.8c-2-12.3-11-21.1-21.7-21.1c-13.6,0-22.1,8-22.1,20.9v10.2h1.1V31.7c0-12.4,7.8-19.8,20.9-19.8
	c10.3,0,19,8.8,20.7,20.8l0.1,0.7l0.7-0.3c1.4-0.6,2.9-1,4.3-1c5.2,0,9.9,3.9,11.6,9.8l0.1,0.4l0.5,0c0,0,0.1,0,0.1,0v28.1
	c0,1-0.3,1.9-0.9,2.6l-23.7,28c-0.6,0.7-1.3,1-2.1,1h-11.6c-6.7,0-10.6-1.6-10.6-9.6h-0.6v-0.6h-81.3v1.1H209
	c0.2,8.4,4.8,10.2,11.7,10.2h11.6c1.1,0,2.2-0.5,2.9-1.4L259,74c0.8-0.9,1.2-2.1,1.2-3.3V42.5c4.2,0.3,7.5,4.5,7.5,9.6
	c0,0.3,0,0.6,0,0.8l0,0.4l0.4,0.2c5,2.1,8.3,7.6,8.3,13.9c0,1.7-0.2,3.3-0.7,5l-0.2,0.8l1.1-0.1c0.1,0,0.3,0,0.4,0
	c9.1,0,16.6,8.8,16.6,19.7l-7.9,21.8c-0.4,1.1-1.1,1.8-2.1,2.1c-0.8,0.2-1.6,0-2.3-0.5l-14.6-11.6c-1.2-1-1.7-2.8-1.1-4.4l3.9-11.5
	c0.4-1.2,1.2-2,2.3-2.2c0.9-0.2,1.8,0.1,2.5,0.9l4.7,5.1c0.9,1,1.2,2.5,0.9,3.8l-1.3,4.8l1.1,0.3l1.3-4.8c0.5-1.7,0-3.6-1.1-4.9
	l-4.7-5.1c-1-1.1-2.3-1.5-3.6-1.2c-1.4,0.3-2.6,1.4-3.1,2.9l-3.9,11.5c-0.7,2.1-0.1,4.4,1.5,5.7l14.6,11.6c0.7,0.6,1.5,0.8,2.3,0.8
	c0.3,0,0.7,0,1-0.1c1.3-0.4,2.3-1.4,2.8-2.8l7.6-20.9c9.6,2.5,16.5,12.6,16.5,24.3c0,6.5-2.1,12.6-5.9,17.2l-0.2,0.3l0,0l-8.2,13.2
	c-1.7,2.6-4.3,4.2-7,4.2c-2.3,0-4.5-1.1-6.2-3l-22.3-26.4l-0.2-0.2c-7.2-8.3-19.7-9.5-28.5-2.7l-2.5,1.9l0.7,0.9l2.5-1.9
	c8.4-6.4,20.2-5.3,27,2.5l22.5,26.6c1.8,2.2,4.4,3.4,7,3.4c3.2,0,6.1-1.8,8-4.8l7.8-12.6c3.5,7.4,5.5,16.9,5.5,27
	c0,6.2-0.8,12.4-2.2,18c-1.5-3.1-5.7-10.2-14.2-13.8l-0.4,1c9.6,4,13.6,13.1,14.1,14.5l0,0l0.1,0.2c1.7,3.2,2.6,6.8,2.6,10.6
	c0,10.8-7.4,19.7-16.5,19.8l-15.5-9.1c-1.2-0.7-2.6-0.7-3.8,0l-13.8,8.1c-0.9,0.6-2,0.5-2.9-0.2l-21.6-17.1
	c-1.7-1.3-3.9-1.1-5.3,0.6l-12.6,14.9c-0.6,0.7-1.3,1-2.1,1c0,0,0,0,0,0c-0.8,0-1.5-0.4-2.1-1L199.8,194l-0.4,0.4v-0.6h-50.8v1.1
	h50.5l14.5,17.1c0.8,0.9,1.8,1.4,2.9,1.4c0,0,0,0,0,0c1.1,0,2.2-0.5,2.9-1.4l12.6-14.9c1-1.2,2.5-1.4,3.7-0.4l21.6,17.1
	c1.3,1,2.9,1.1,4.2,0.3l13.8-8.1c0.8-0.5,1.8-0.5,2.6,0l15.6,9.2l0.3-0.5v0.6c4.4,0,8,4.3,8,9.6s-3.6,9.6-8,9.6h-0.6v0.6
	c0,10.8-7.3,19.6-16.4,19.7l-14.5-17.1c-1.2-1.4-1.2-3.8,0-5.2l5-6c0.6-0.7,1.3-1,2.1-1h5.6c0.8,0,1.5,0.4,2.1,1l1.5,1.7
	c1.1,1.4,1.1,3.2,0.5,4.4c-0.5,1.2-1.5,1.8-2.6,1.8v1.1c1.5,0,2.9-0.9,3.6-2.5c0.9-1.9,0.6-4.1-0.7-5.6l-1.5-1.7
	c-0.8-0.9-1.8-1.4-2.9-1.4h-5.6c-1.1,0-2.2,0.5-2.9,1.4l-5,6c-1.6,1.8-1.6,4.8,0,6.7l14,16.6l0.1,0.5c0.3,1.6,0.4,3.3,0.4,5
	c0,13.7-9.4,24.8-20.9,24.8c-1.3,0-2.5-0.1-3.8-0.4l5.6-5.8c1.7-1.8,1.8-5,0.2-6.9l-3.4-4c-1.2-1.4-1.2-3.8,0-5.2l3.6-4.2
	c1.6-1.8,1.6-4.8,0-6.7l-12.2-14.4c-1.2-1.4-1.2-3.8,0-5.2l6.1-7.2l-0.9-0.7l-6.1,7.2c-1.6,1.8-1.6,4.8,0,6.7l12.2,14.4
	c1.2,1.4,1.2,3.8,0,5.2l-3.6,4.2c-1.6,1.8-1.6,4.8,0,6.7l3.4,4c1.3,1.5,1.2,4-0.1,5.4l-6.1,6.3l-0.2-0.1l-0.1,0.6
	c-1.6,6.2-6.3,10.4-11.8,10.4c-1.4,0-2.8-0.3-4.1-0.9l-0.2-0.1l-6.9-16.3c-0.6-1.4-0.4-3.1,0.6-4.3l12.9-15.2c1.6-1.8,1.6-4.8,0-6.7
	l-12.2-14.4c-0.8-0.9-1.8-1.4-2.9-1.4c0,0,0,0,0,0c-1.1,0-2.2,0.5-2.9,1.4l-4.3,5c-0.9,1.1-2.3,1.3-3.4,0.7l-14.9-8.8l-0.3,0.5v-0.6
	h-71.1v1.1h71l14.8,8.7c1.6,1,3.6,0.6,4.8-0.9l4.3-5c0.6-0.7,1.3-1,2.1-1c0,0,0,0,0,0c0.8,0,1.5,0.4,2.1,1l12.2,14.4
	c1.2,1.4,1.2,3.8,0,5.2l-12.9,15.2c-1.2,1.4-1.5,3.6-0.8,5.4l7.4,17.5c0,5.2-3.6,9.5-8,9.5c-1.1,0-2.2-0.3-3.3-0.8l-0.2-0.1
	l-0.2,0.1c-1.6,0.6-3.2,0.9-4.9,0.9c-9.2,0-16.6-8.9-16.6-19.8h-1.1c0,11.5,8,20.9,17.8,20.9c1.7,0,3.4-0.3,5-0.9
	c1.1,0.6,2.3,0.9,3.6,0.9c5.1,0,9.2-4.8,9.2-10.7v-0.1c1.2,0.4,2.5,0.6,3.7,0.6c5.8,0,10.9-4.3,12.7-10.7c1.5,0.4,3,0.5,4.5,0.5
	c12.2,0,22.1-11.6,22.1-26c0-1.5-0.1-3-0.3-4.5c9.5-0.1,17.3-9.2,17.5-20.3c4.8-0.3,8.6-5,8.6-10.7c0-4.5-2.4-8.4-5.8-10
	c8.2-1.9,14.4-10.3,14.4-20.5c0-3.8-0.9-7.6-2.6-10.9c1.7-6,2.6-12.7,2.6-19.6C311.8,153.4,309.7,143.4,305.9,135.8z M216.6,178.4
	c3.6,0,7-1.6,9.5-4.6l8.1-9.6l-0.9-0.7l-8.1,9.6c-2.3,2.7-5.4,4.2-8.7,4.2s-6.3-1.5-8.6-4.2l-8.1-9.6l-0.4,0.4v-0.6h-71.1v1.1h70.9
	l7.9,9.4C209.6,176.8,213,178.4,216.6,178.4z M254.7,175.2l2.4-1.9c2.9-2.3,4.8-5.9,5.2-9.9c0.4-4.2-0.8-8.4-3.4-11.4l-7.8-9.2
	c-5-5.9-12.9-6.8-18.8-2.2l-5.5,4.3c-5.9,4.6-13.8,3.7-18.8-2.2l-8.2-9.7l-0.9,0.7l8.2,9.7c5.4,6.4,14,7.4,20.4,2.4l5.5-4.3
	c5.4-4.3,12.7-3.4,17.3,2l7.8,9.2c2.4,2.8,3.5,6.7,3.1,10.6c-0.4,3.7-2.1,7.1-4.7,9.1l-2.4,1.9c-2.7,2.1-4.2,5.7-3.9,9.5
	c0.2,3.7,2.1,6.8,4.9,8.5c2.9,1.7,6.3,1.4,9-0.7l18.4-14.5c0.7-0.5,1.5-0.7,2.2-0.5c0.9,0.2,1.6,0.9,2,1.9l6.8,16.1l1-0.4l-6.8-16.1
	c-0.6-1.3-1.6-2.2-2.8-2.6c-1.1-0.3-2.3,0-3.2,0.7l-18.4,14.5c-2.3,1.8-5.3,2-7.7,0.6c-2.5-1.5-4.1-4.3-4.3-7.6
	C251,180.2,252.3,177.1,254.7,175.2z M226.8,79.7c-1,1.2-2.5,1.4-3.7,0.4l-23.4-18.4l-0.7,0.9l23.4,18.4c0.7,0.6,1.5,0.8,2.3,0.8
	c1.1,0,2.1-0.5,2.9-1.4L239.9,66c1.7-2.1,1.5-5.4-0.4-7.1l-21.4-18.9c-1.6-1.4-1.7-3.6-1.1-5.2c0.6-1.5,1.8-2.4,3.2-2.4h5v-1.1h-5
	c-1.9,0-3.5,1.2-4.2,3.2c-0.7,1.9-0.6,4.7,1.4,6.4l21.4,18.9c1.5,1.3,1.7,4,0.3,5.6L226.8,79.7z M229,223c3.9-3.8,6.2-7.9,6.3-8.1
	l-1-0.6c-0.1,0.2-9.4,16.3-20.6,13.2l-0.3,1.1c1,0.3,2.1,0.4,3.2,0.4C220.7,229.1,224.9,227,229,223z M217,260.7l-0.8-0.8
	c-12.6,11.3-1.6,30.8-1.5,31l1-0.6C215.6,290.1,205.1,271.4,217,260.7z M299.1,119.3l-1.1-0.2c0,0.1-2,13.5-11.6,15.6l0.2,1.1
	C297,133.6,299,119.9,299.1,119.3z M118.1,42.4h50.8v-1.1h-50.8V42.4z M128.3,52.6h50.8v-1.1h-50.8V52.6z M189.2,61.6h-50.8v1.1
	h50.8V61.6z M179.1,71.8h-50.8v1.1h50.8V71.8z M138.4,133.9h50.8v-1.1h-50.8V133.9z M128.3,144.1h50.8v-1.1h-50.8V144.1z
	 M168.9,154.2v-1.1h-50.5l-7.9-9.4c-2.5-3-5.9-4.6-9.5-4.6c-3.6,0-7,1.6-9.5,4.6l-8.1,9.6l0.9,0.7l8.1-9.6c2.3-2.7,5.4-4.2,8.7-4.2
	c3.3,0,6.3,1.5,8.6,4.2l8.1,9.6l0.4-0.4v0.6H168.9z M138.4,103.4h50.8v-1.1h-50.8V103.4z M148.6,113.6h50.8v-1.1h-50.8V113.6z
	 M189.2,203.9h-50.8v1.1h50.8V203.9z M128.3,215.2h50.8v-1.1h-50.8V215.2z M138.4,173.4v1.1h50.8v-1.1H138.4z M199.4,183.6h-81
	l-8-9.5c-5.4-6.4-14-7.4-20.4-2.4l-5.5,4.3c-5.4,4.3-12.7,3.4-17.3-2l-7.8-9.2c-2.4-2.8-3.5-6.7-3.1-10.6c0.4-3.7,2.1-7.1,4.7-9.1
	l2.4-1.9c2.7-2.1,4.2-5.7,3.9-9.5c-0.2-3.7-2.1-6.8-4.9-8.5c-2.9-1.7-6.3-1.4-9,0.7l-18.4,14.5c-0.7,0.5-1.5,0.7-2.2,0.5
	c-0.9-0.2-1.6-0.9-2-1.9L24,123l-1,0.4l6.8,16.1c0.6,1.3,1.6,2.2,2.8,2.6c1.1,0.3,2.3,0,3.2-0.7l18.4-14.5c2.3-1.8,5.3-2,7.7-0.6
	c2.5,1.5,4.1,4.3,4.3,7.6c0.2,3.4-1.1,6.6-3.5,8.5l-2.4,1.9c-2.9,2.3-4.8,5.9-5.2,9.9c-0.4,4.2,0.8,8.4,3.4,11.4l7.8,9.2
	c5,5.9,12.9,6.8,18.8,2.2l5.5-4.3c5.9-4.6,13.8-3.7,18.8,2.2l8.2,9.7l0.4-0.4v0.6h81.3V183.6z M158.8,123.7h50.8v-1.1h-50.8V123.7z
	 M138.4,276.2h50.8v-1.1h-50.8V276.2z M179.1,285.2h-61v0.6h-0.6c0,12.4-7.8,19.8-20.9,19.8c-10.3,0-19-8.8-20.7-20.8l-0.1-0.7
	l-0.7,0.3c-1.4,0.6-2.9,1-4.3,1c-5.2,0-9.9-3.9-11.6-9.8l-0.1-0.4l-0.5,0c0,0-0.1,0-0.1,0v-28.1c0-1,0.3-1.9,0.9-2.6l23.7-28
	c0.6-0.7,1.3-1,2.1-1h11.6c6.7,0,10.6,1.6,10.6,9.6h0.6v0.6h61v-1.1h-60.4c-0.2-8.4-4.8-10.2-11.7-10.2H85.2c-1.1,0-2.2,0.5-2.9,1.4
	l-23.7,28c-0.8,0.9-1.2,2.1-1.2,3.3V275c-4.2-0.3-7.5-4.5-7.5-9.6c0-0.3,0-0.6,0-0.8l0-0.4l-0.4-0.2c-5-2.1-8.3-7.6-8.3-13.9
	c0-1.7,0.2-3.3,0.7-5l0.2-0.8l-1.1,0.1c-0.1,0-0.3,0-0.4,0c-9.1,0-16.6-8.8-16.6-19.7l7.9-21.8c0.4-1.1,1.1-1.8,2.1-2.1
	c0.8-0.2,1.6,0,2.3,0.5L51,213.2c1.2,1,1.7,2.8,1.1,4.4l-3.9,11.5c-0.4,1.2-1.2,2-2.3,2.2c-0.9,0.2-1.8-0.1-2.5-0.9l-4.7-5.1
	c-0.9-1-1.2-2.5-0.9-3.8l1.3-4.8l-1.1-0.3l-1.3,4.8c-0.5,1.7,0,3.6,1.1,4.9l4.7,5.1c0.8,0.8,1.8,1.3,2.8,1.3c0.2,0,0.5,0,0.7-0.1
	c1.4-0.3,2.6-1.4,3.1-2.9l3.9-11.5c0.7-2.1,0.1-4.4-1.5-5.7l-14.6-11.6c-1-0.8-2.2-1-3.3-0.7c-1.3,0.4-2.3,1.4-2.8,2.8l-7.6,20.9
	c-9.6-2.5-16.5-12.6-16.5-24.3c0-6.5,2.1-12.6,5.9-17.2l0.2-0.3l0,0l8.2-13.2c1.7-2.6,4.3-4.2,7-4.2c2.3,0,4.5,1.1,6.2,3l22.3,26.4
	l0.2,0.2c4,4.7,9.8,7.1,15.6,7.1c4.5,0,9.1-1.4,12.9-4.4l2.5-1.9l-0.7-0.9l-2.5,1.9c-8.4,6.4-20.2,5.3-27-2.5l-22.5-26.6
	c-1.8-2.2-4.4-3.4-7-3.4c-3.2,0-6.1,1.8-8,4.8l-7.8,12.6c-3.5-7.4-5.5-16.9-5.5-27c0-6.2,0.8-12.4,2.2-18
	c1.5,3.1,5.7,10.2,14.2,13.8l0.4-1c-9.6-4-13.6-13.1-14.1-14.5l0,0l-0.1-0.2c-1.7-3.2-2.6-6.8-2.6-10.6c0-10.8,7.4-19.7,16.5-19.8
	l15.5,9.1c1.2,0.7,2.6,0.7,3.8,0l13.8-8.1c0.9-0.6,2-0.5,2.9,0.2l21.6,17.1c1.7,1.3,3.9,1.1,5.3-0.6l12.6-14.9c1.1-1.3,3-1.3,4.2,0
	l14.7,17.3l0.9-0.7l-14.7-17.3c-0.8-0.9-1.8-1.4-2.9-1.4c0,0,0,0,0,0c-1.1,0-2.2,0.5-2.9,1.4l-12.6,14.9c-1,1.2-2.5,1.4-3.7,0.4
	L60,103.8c-1.3-1-2.9-1.1-4.2-0.3L42,111.6c-0.8,0.5-1.8,0.5-2.6,0l-15.6-9.2l-0.3,0.5v-0.6c-4.4,0-8-4.3-8-9.6s3.6-9.6,8-9.6h0.6
	v-0.6c0-10.8,7.3-19.6,16.4-19.7L55,79.9c1.2,1.4,1.2,3.8,0,5.2l-5,6c-0.6,0.7-1.3,1-2.1,1h-5.6c-0.8,0-1.5-0.4-2.1-1l-1.5-1.7
	c-1.1-1.4-1.1-3.2-0.5-4.4c0.5-1.2,1.5-1.8,2.6-1.8V82c-1.5,0-2.9,0.9-3.6,2.5c-0.9,1.9-0.6,4.1,0.7,5.6l1.5,1.7
	c0.8,0.9,1.8,1.4,2.9,1.4h5.6c1.1,0,2.2-0.5,2.9-1.4l5-6c1.6-1.8,1.6-4.8,0-6.7l-14-16.6l-0.1-0.5c-0.3-1.6-0.4-3.3-0.4-5
	c0-13.7,9.4-24.8,20.9-24.8c1.3,0,2.5,0.1,3.8,0.4l-5.6,5.8c-1.7,1.8-1.8,5-0.2,6.9l3.4,4c1.2,1.4,1.2,3.8,0,5.2L60,58.9
	c-1.6,1.8-1.6,4.8,0,6.7l12.2,14.4c1.2,1.4,1.2,3.8,0,5.2l-6.1,7.2l0.9,0.7l6.1-7.2c1.6-1.8,1.6-4.8,0-6.7L60.9,64.8
	c-1.2-1.4-1.2-3.8,0-5.2l3.6-4.2c1.6-1.8,1.6-4.8,0-6.7l-3.4-4c-1.3-1.5-1.2-4,0.1-5.4l6.1-6.3l0.2,0.1l0.1-0.6
	c1.6-6.2,6.3-10.4,11.8-10.4c1.4,0,2.8,0.3,4.1,0.9l0.2,0.1l6.9,16.3c0.6,1.4,0.4,3.1-0.6,4.3L77.2,58.9c-1.6,1.8-1.6,4.8,0,6.7
	l12.2,14.4c0.8,0.9,1.8,1.4,2.9,1.4c0,0,0,0,0,0c1.1,0,2.2-0.5,2.9-1.4l4.3-5c0.9-1.1,2.3-1.3,3.4-0.7l14.9,8.8l0.3-0.5v0.6h50.8V82
	h-50.7l-14.8-8.7c-1.6-1-3.6-0.6-4.8,0.9l-4.3,5c-0.6,0.7-1.3,1-2.1,1h0c-0.8,0-1.5-0.4-2.1-1L78.1,64.8c-1.2-1.4-1.2-3.8,0-5.2
	l12.9-15.2c1.2-1.4,1.5-3.6,0.8-5.4l-7.4-17.5c0-5.2,3.6-9.5,8-9.5c1.1,0,2.2,0.3,3.3,0.8l0.2,0.1l0.2-0.1c1.6-0.6,3.2-0.9,4.9-0.9
	c9.2,0,16.6,8.9,16.6,19.8h0.6v0.6h71.1v-1.1h-70.6c-0.3-11.3-8.1-20.3-17.7-20.3c-1.7,0-3.4,0.3-5,0.9c-1.1-0.6-2.3-0.9-3.6-0.9
	c-5.1,0-9.2,4.8-9.2,10.7v0.1c-1.2-0.4-2.5-0.6-3.7-0.6c-5.8,0-10.9,4.3-12.7,10.7c-1.5-0.4-3-0.5-4.5-0.5
	c-12.2,0-22.1,11.7-22.1,26c0,1.5,0.1,3,0.3,4.5C30.9,61.8,23.2,70.8,23,82c-4.8,0.3-8.6,5-8.6,10.7c0,4.5,2.4,8.4,5.8,10
	C12,104.5,5.8,113,5.8,123.2c0,3.8,0.9,7.6,2.6,10.9c-1.7,6-2.6,12.7-2.6,19.6c0,10.5,2.1,20.4,5.9,28.1c-3.8,4.8-5.9,11.1-5.9,17.7
	c0,12.1,7.2,22.7,17.2,25.3c0,0,0,0,0,0.1c0,11.5,8,20.9,17.8,20.9h0c-0.4,1.5-0.6,3-0.6,4.5c0,6.5,3.4,12.4,8.6,14.7
	c0,0.2,0,0.3,0,0.5c0,5.9,4.1,10.7,9.2,10.7c0.1,0,0.2,0,0.3,0c2,6.1,7,10.2,12.6,10.2c1.4,0,2.8-0.3,4.1-0.8
	c2,12.3,11,21.1,21.7,21.1c13.4,0,21.8-7.8,22-20.3h60.4V285.2z M138.4,296.5h50.8v-1.1h-50.8V296.5z M189.2,21h-50.8v1.1h50.8V21z
	 M138.4,244.6v1.1h50.8v-1.1H138.4z M158.8,266h50.8v-1.1h-50.8V266z"/>
</svg>
