<svg xmlns="http://www.w3.org/2000/svg" xmlns:xlink="http://www.w3.org/1999/xlink" viewBox="0 0 316.27 316.25"><defs><style>.cls-1{fill:url(#New_Gradient_Swatch_18);}</style><linearGradient id="New_Gradient_Swatch_18" x1="46.44" y1="46.15" x2="270.09" y2="269.8" gradientUnits="userSpaceOnUse"><stop offset="0" stop-color="#b0ded5"/><stop offset="1" stop-color="#61c4b4"/></linearGradient></defs><title>founders-talk-abstract</title><g id="Layer_2" data-name="Layer 2"><g id="Layer_1-2" data-name="Layer 1"><path class="cls-1" d="M158.2,0,46.3,46.29.1,157.89l-.1.25L45.9,268.83l.1.25,112.11,47.16L269.7,270l.25-.1,46.21-111.58.1-.25L270.06,46.54l-.1-.25L158.46.1ZM314.84,158.1l-45.9,110.82L158.12,314.81,47,268.08,1.43,158.14,47.32,47.3,158.2,1.43,268.94,47.3ZM41.48,109.63v96.09l68.27,69.18h96.76l68.42-68.41V109.73L206.52,41.31H109.75ZM206,42.63l67.63,67.64V206L206,273.58H110.3l-67.5-68.4v-95l67.5-67.55ZM157.84,253.45l.25.1,67.59-28,27.74-67.17.1-.25-27.92-67.5-67.5-27.91L90.65,90.64,62.72,158.11l27.94,67.46ZM91.67,91.66l66.42-27.49,66.49,27.49,27.5,66.48-27.42,66.41-66.57,27.57L91.68,224.56,64.16,158.11Zm94,133,39.19-39.13v-54.9L185.7,91.53H130.55L91.36,130.66v54.9l39.2,39.13Zm-93-93.48L131.1,92.86h54.05l38.42,38.35V185l-38.42,38.35H131.1L92.69,185Zm106.25,67.71,16.91-40.81-16.9-40.8-40.81-16.9-40.81,16.9-16.9,40.81,16.9,40.81,40.81,16.9Zm-97.08-40.8,16.48-39.8,39.79-16.48,39.8,16.48,16.49,39.79-16.49,39.8-39.79,16.48-39.8-16.48Z"/></g></g></svg>