<svg xmlns="http://www.w3.org/2000/svg" xmlns:xlink="http://www.w3.org/1999/xlink" viewBox="0 0 316.25 316.25"><defs><style>.cls-1{fill:url(#New_Gradient_Swatch_2);}</style><linearGradient id="New_Gradient_Swatch_2" x1="46.31" y1="46.31" x2="269.94" y2="269.94" gradientUnits="userSpaceOnUse"><stop offset="0" stop-color="#b0e2fa"/><stop offset="1" stop-color="#5acbf5"/></linearGradient></defs><title>go-time-abstract</title><g id="Layer_2" data-name="Layer 2"><g id="Layer_1-2" data-name="Layer 1"><path class="cls-1" d="M316.25,158.12a69.29,69.29,0,0,0-6.52-29.28,70.38,70.38,0,0,0-5.15-30.35,69.32,69.32,0,0,0-17.81-25.32,70.34,70.34,0,0,0-16.83-26.86,69.29,69.29,0,0,0-25.32-16.09,70.38,70.38,0,0,0-25.1-17.81A69.33,69.33,0,0,0,189,7.09,70.46,70.46,0,0,0,158.13,0h0a70.51,70.51,0,0,0-30,6.67,69.29,69.29,0,0,0-29.62,5A70.34,70.34,0,0,0,72.56,29.89,69.32,69.32,0,0,0,46.32,46.31a70.38,70.38,0,0,0-16.53,26A69.29,69.29,0,0,0,12.41,96.73a70.34,70.34,0,0,0-5.46,31.22A69.33,69.33,0,0,0,0,158.12a70.39,70.39,0,0,0,6.67,30.05,69.29,69.29,0,0,0,5,29.58,70.33,70.33,0,0,0,18.21,25.94,69.33,69.33,0,0,0,16.42,26.24,70.38,70.38,0,0,0,26,16.53,69.29,69.29,0,0,0,24.45,17.38,70.49,70.49,0,0,0,27.42,5.58q1.74,0,3.48-.09a70.47,70.47,0,0,0,30.48,6.91h0a70.51,70.51,0,0,0,29.63-6.51c1.12.05,2.24.08,3.35.08a70.54,70.54,0,0,0,26.65-5.26,69.33,69.33,0,0,0,25.32-17.81,70.34,70.34,0,0,0,26.86-16.83A69.29,69.29,0,0,0,286,244.61a70.39,70.39,0,0,0,17.81-25.1A69.33,69.33,0,0,0,309.16,189,70.34,70.34,0,0,0,316.25,158.12Zm-1.25,0a69.17,69.17,0,0,1-6,28.3,72.35,72.35,0,0,0-8-27.18,71.85,71.85,0,0,0,3.25-6.69,70.79,70.79,0,0,0,5.27-21.09A68,68,0,0,1,315,158.12Zm-30,85.76a69.43,69.43,0,0,1-20.05,12.47c-2,.82-4.05,1.53-6.1,2.16a70.46,70.46,0,0,0,1.85-31.37,69.84,69.84,0,0,0,28.2-13.19A71,71,0,0,1,285,243.87ZM27.38,213.95a69.85,69.85,0,0,0,27.19,13,70.52,70.52,0,0,0,1.66,30.38c-2-.65-4.08-1.39-6.08-2.23A69.47,69.47,0,0,1,31,243,71,71,0,0,1,27.38,213.95Zm-.5-117.7a69.43,69.43,0,0,1,4-23.28A71,71,0,0,1,57.12,58.08a69.84,69.84,0,0,0-1.58,31.09,70.46,70.46,0,0,0-28.36,13.55C27,100.58,26.88,98.42,26.88,96.25Zm262.19,6.47a70.52,70.52,0,0,0-27.35-13.33,69.84,69.84,0,0,0-1.39-30.09,71,71,0,0,1,25.35,14.56,69.47,69.47,0,0,1,3.7,22.39C289.37,98.42,289.26,100.58,289.07,102.72ZM220.5,268.38a25.57,25.57,0,0,1-10.09,20.33,68.6,68.6,0,0,1-27.8-10.27c1.08-1.6,2.08-3.25,3-4.94a11.11,11.11,0,1,0,7.75-20.83q.57-2.84.91-5.72a70.37,70.37,0,0,0,17,10.23A71.79,71.79,0,0,0,219,259.9,25.46,25.46,0,0,1,220.5,268.38ZM95.75,47.87a25.57,25.57,0,0,1,9.85-20.15,69.15,69.15,0,0,1,28.06,10.15q-1.61,2.36-3,4.89a11.11,11.11,0,1,0-7.77,20.82c-.38,1.89-.67,3.8-.89,5.73A70.38,70.38,0,0,0,102.31,58c-1.68-.63-3.38-1.17-5.08-1.67A25.45,25.45,0,0,1,95.75,47.87ZM256,104.42a69.08,69.08,0,0,1-10.55,17.36q-1.74-.16-3.5-.24a30.51,30.51,0,0,1-18.13-7A30.51,30.51,0,0,1,224.4,95c.41-1.1.78-2.2,1.12-3.32a69.12,69.12,0,0,1,22.85-2.93,67.42,67.42,0,0,1,11.9,1.55A70,70,0,0,1,256,104.42ZM222.62,201.5c-.51.41-1,.82-1.52,1.27a68.76,68.76,0,0,1-8.52,6.62,71.11,71.11,0,0,0,3.83-7.72q.72-1.71,1.34-3.44,1.37-1.23,2.68-2.54a71.05,71.05,0,0,0,5.71-6.46,68.81,68.81,0,0,1-2.92,10.39C223,200.24,222.81,200.87,222.62,201.5ZM201,222.77c-.47.15-1,.28-1.42.46a68.82,68.82,0,0,1-10.39,2.92,71.07,71.07,0,0,0,6.46-5.71c.77-.77,1.51-1.55,2.24-2.35,1-.36,2-.74,3-1.15a71.08,71.08,0,0,0,7.77-3.74,68.8,68.8,0,0,1-6.72,8.44C201.67,222,201.36,222.39,201,222.77Zm-10.67,19.14a31.74,31.74,0,0,0-11.92-6.45,6.91,6.91,0,0,0,1.22-3,69.92,69.92,0,0,0,7.32-4.61,70,70,0,0,0,12.64-3.28,31.76,31.76,0,0,0-6.14,17A26.83,26.83,0,0,0,190.37,241.91Zm3,.92c0,.55-.07,1.11-.11,1.66q-.85-.74-1.68-1.51C192.2,242.91,192.8,242.86,193.4,242.82Zm-71.55-.05c.49,0,1,0,1.45.07-.46.41-.92.81-1.38,1.21C121.89,243.63,121.88,243.2,121.85,242.77Zm-.07-1.25v0A31.76,31.76,0,0,0,116,224.34l.16.05a70,70,0,0,0,13.05,3.42,69.91,69.91,0,0,0,7.32,4.61,6.71,6.71,0,0,0,.93,2.61,31.74,31.74,0,0,0-12.88,6.67A27,27,0,0,0,121.78,241.52Zm-8.3-20.42a68.76,68.76,0,0,1-6.62-8.52,71.11,71.11,0,0,0,7.72,3.83q1.71.72,3.44,1.34,1.23,1.37,2.54,2.68a71.07,71.07,0,0,0,6.46,5.71,68.8,68.8,0,0,1-10.38-2.92c-.62-.23-1.25-.41-1.89-.6C114.33,222.11,113.93,221.59,113.48,221.1ZM93,199.62a68.82,68.82,0,0,1-2.92-10.39,71.07,71.07,0,0,0,5.71,6.46c.77.77,1.56,1.51,2.35,2.24.36,1,.74,2,1.15,3a71.08,71.08,0,0,0,3.74,7.77A68.8,68.8,0,0,1,94.61,202c-.36-.34-.76-.65-1.13-1C93.33,200.56,93.2,200.08,93,199.62Zm.6-84.87c.51-.41,1-.82,1.52-1.27a68.8,68.8,0,0,1,8.53-6.64,71.29,71.29,0,0,0-4.88,10.33c-.11.28-.19.57-.3.85s-.45.39-.67.59A71.3,71.3,0,0,0,90.1,127,68.82,68.82,0,0,1,93,116.63C93.26,116,93.44,115.38,93.63,114.75Zm21.58-21.27c.47-.15,1-.28,1.42-.46A68.86,68.86,0,0,1,127,90.1a71.28,71.28,0,0,0-8.42,7.73l-.3.34-.43.14a71.29,71.29,0,0,0-10.39,4.75,68.88,68.88,0,0,1,6.74-8.45C114.58,94.25,114.89,93.86,115.21,93.48Zm10.67-19.14a31.74,31.74,0,0,0,11.92,6.45,6.9,6.9,0,0,0-1.23,3,69.85,69.85,0,0,0-7.33,4.6,70,70,0,0,0-12.63,3.29,31.75,31.75,0,0,0,6.14-17A26.84,26.84,0,0,0,125.88,74.34Zm-3-.92q0-.83.11-1.65c.56.49,1.12,1,1.67,1.49C124,73.34,123.45,73.39,122.85,73.42Zm71.54.05c-.49,0-1,0-1.45-.07q.68-.61,1.38-1.2C194.35,72.63,194.37,73.05,194.39,73.48Zm.07,1.25v0a31.77,31.77,0,0,0,5.75,17.15l-.16-.05A70,70,0,0,0,187,88.42a69.81,69.81,0,0,0-7.32-4.6,6.71,6.71,0,0,0-.93-2.62,31.74,31.74,0,0,0,12.88-6.67A27,27,0,0,0,194.47,74.73Zm8.3,20.42a68.8,68.8,0,0,1,6.64,8.53,71.29,71.29,0,0,0-10.33-4.88l-.85-.3c-.2-.22-.39-.45-.59-.67a71.3,71.3,0,0,0-8.42-7.73A68.82,68.82,0,0,1,199.62,93c.62.23,1.25.41,1.88.6C201.91,94.14,202.32,94.66,202.77,95.15Zm20.45,21.49A68.81,68.81,0,0,1,226.15,127a71.28,71.28,0,0,0-7.72-8.4l-.34-.3c-.05-.14-.09-.29-.14-.43a71.29,71.29,0,0,0-4.75-10.39,68.88,68.88,0,0,1,8.45,6.74c.36.34.76.65,1.13,1C222.92,115.69,223.05,116.17,223.22,116.63ZM179.69,231a6.5,6.5,0,0,0-.71-2.33c1.76-.08,3.51-.24,5.25-.45Q182,229.69,179.69,231Zm-6.63,3.4c-.66-.07-1.31-.15-2-.18-1.08,0-2.15-.12-3.22-.22a10.15,10.15,0,0,0-4-2.17c1.57-.51,3.13-1.07,4.67-1.7q1.72-.7,3.38-1.48c1.23.06,2.46.1,3.69.1.66,0,1.31,0,2,0a5.38,5.38,0,0,1,.91,2.92v0c-1.21.65-2.43,1.27-3.68,1.85C174.22,233.77,173.64,234.09,173.06,234.4Zm-3.81,2.42a3.45,3.45,0,0,0-.38-1.49c.72.05,1.44.11,2.17.15l.17,0C170.53,235.91,169.88,236.35,169.24,236.82Zm-24.52-1.53c.92,0,1.84-.08,2.75-.15a3.5,3.5,0,0,0-.47,1.69Q145.9,236,144.73,235.29Zm-.48-1.22c-.5,0-1,.08-1.49.12-.44-.23-.87-.48-1.33-.68-1.25-.57-2.47-1.2-3.68-1.84v0a5.38,5.38,0,0,1,.91-2.92c.65,0,1.31,0,2,0,1.09,0,2.17,0,3.25-.08,1,.46,2,.91,3,1.33,1.71.72,3.44,1.36,5.18,1.94a10.24,10.24,0,0,0-3.36,1.82C147.19,233.9,145.72,234,144.25,234.06ZM132,228.22c1.74.21,3.49.37,5.25.45a6.5,6.5,0,0,0-.71,2.34Q134.23,229.7,132,228.22ZM99.58,118.75a67.47,67.47,0,0,1,8.94-6.74,69.76,69.76,0,0,0-4.33,9.84,69.76,69.76,0,0,0-7.48,7.72A67.45,67.45,0,0,1,99.58,118.75ZM119,99.24a67.45,67.45,0,0,1,11.28-2.89,69.78,69.78,0,0,0-8.09,7.7A69.78,69.78,0,0,0,112,108.51,67.45,67.45,0,0,1,119,99.24Zm17.52-14a6.51,6.51,0,0,0,.71,2.34q-2.65.12-5.27.45Q134.22,86.56,136.56,85.26Zm6.63-3.41c.66.07,1.31.15,2,.18,1.08,0,2.15.13,3.22.22a10.15,10.15,0,0,0,4,2.17,71.8,71.8,0,0,0-7.23,2.8l-.81.39-.9-.06c-1.59-.06-3.18-.05-4.76,0a5.38,5.38,0,0,1-.91-2.92v0c1.21-.65,2.43-1.27,3.68-1.84C142,82.48,142.61,82.16,143.19,81.85ZM147,79.43a3.45,3.45,0,0,0,.38,1.5c-.72-.05-1.45-.12-2.17-.15l-.17,0C145.72,80.34,146.37,79.9,147,79.43ZM171.52,81c-.92,0-1.84.09-2.75.16a3.5,3.5,0,0,0,.48-1.69Q170.35,80.24,171.52,81Zm.48,1.22c.5,0,1-.08,1.49-.12.44.23.87.48,1.33.68,1.25.58,2.47,1.2,3.68,1.84v0a5.38,5.38,0,0,1-.91,2.92c-1.58,0-3.17-.05-4.76,0l-.45,0-.41-.2a71.69,71.69,0,0,0-7.75-3.07,10.25,10.25,0,0,0,3.37-1.82C169.06,82.35,170.53,82.23,172,82.18ZM184.24,88q-2.62-.32-5.27-.44a6.51,6.51,0,0,0,.71-2.33Q182,86.56,184.24,88Zm20,20.47a69.76,69.76,0,0,0-9.83-4.33,69.76,69.76,0,0,0-7.72-7.48,67.45,67.45,0,0,1,10.81,2.87A67.45,67.45,0,0,1,204.24,108.51ZM217,119a67.46,67.46,0,0,1,2.88,11.27,69.79,69.79,0,0,0-7.69-8.08A69.78,69.78,0,0,0,207.74,112,67.46,67.46,0,0,1,217,119ZM176.59,227.48l-1,0c-.44,0-.87,0-1.3,0l1.44-.77A10.49,10.49,0,0,1,176.59,227.48Zm-4.91-.1a69.64,69.64,0,0,1-11-1.51,69.72,69.72,0,0,0,7.7-2.77,22.14,22.14,0,0,1,6.31,2.78Q173.2,226.67,171.69,227.38ZM158.13,231a20.73,20.73,0,0,0-3.82.35,69.9,69.9,0,0,1-7-2.5l-.8-.36a70.65,70.65,0,0,0,11.61-1.92,70.62,70.62,0,0,0,11.15,1.89c-.4.17-.79.36-1.19.52-2.16.88-4.36,1.63-6.57,2.29A21.06,21.06,0,0,0,158.13,231Zm-17.82-4.15,1.2.63-.88,0-1,0C139.86,227.27,140.07,227.06,140.3,226.85Zm1.08-.84a21.86,21.86,0,0,1,6.51-2.91,69.72,69.72,0,0,0,7.7,2.77,69.67,69.67,0,0,1-11.46,1.54C143.2,227,142.29,226.5,141.38,226ZM139.65,88.76c.75,0,1.51,0,2.26,0-.48.25-.94.52-1.41.77A10.48,10.48,0,0,1,139.65,88.76Zm4.92.12a67.46,67.46,0,0,1,11.08,1.55,69.59,69.59,0,0,0-7.55,2.78,22.37,22.37,0,0,1-6.5-2.83Q143.06,89.6,144.57,88.88Zm13.56-3.63a20.71,20.71,0,0,0,3.86-.36,70,70,0,0,1,7.73,2.86,68.67,68.67,0,0,0-11.59,2,68.66,68.66,0,0,0-11.13-2A70.09,70.09,0,0,1,154.73,85,21.05,21.05,0,0,0,158.13,85.25Zm17.81,4.16-1.17-.64c.61,0,1.22,0,1.83,0C176.39,89,176.18,89.2,175.93,89.41Zm-1.07.83a22.07,22.07,0,0,1-6.71,3,69.58,69.58,0,0,0-7.55-2.78,67.45,67.45,0,0,1,11.52-1.58C173,89.3,174,89.76,174.86,90.24ZM206.3,190.52a70.35,70.35,0,0,1-5.74,5,69.91,69.91,0,0,0,3.92-7.11,71.52,71.52,0,0,0,4.44-5.68A70.32,70.32,0,0,1,206.3,190.52Zm-16,16a70.35,70.35,0,0,1-7.56,2.48,69.92,69.92,0,0,0,6-4.76,69.91,69.91,0,0,0,6.73-3.73A70.37,70.37,0,0,1,190.28,206.56Zm-69.52-6a69.87,69.87,0,0,0,6.43,3.58,69.91,69.91,0,0,0,5.73,4.61,70.36,70.36,0,0,1-7.19-2.44A70.33,70.33,0,0,1,120.75,200.56Zm-11.06-10.28A70.33,70.33,0,0,1,107,182.1a71.52,71.52,0,0,0,4.59,6,69.89,69.89,0,0,0,4.06,7.41A70.37,70.37,0,0,1,109.69,190.28Zm-8.32-44.17a70.3,70.3,0,0,1,3.68-7.15,71.52,71.52,0,0,0-1,7.49,69.86,69.86,0,0,0-2.23,7.47A71.26,71.26,0,0,1,101.37,146.11Zm9-20.75a70.29,70.29,0,0,1,5.85-5,71.54,71.54,0,0,0-3.58,6.25,69.87,69.87,0,0,0-4.73,5.78A71.26,71.26,0,0,1,110.35,125.35Zm15.76-15.47a71.26,71.26,0,0,1,7.51-2.47q-2.83,2-5.46,4.22a69.87,69.87,0,0,0-6.85,3.7A71.27,71.27,0,0,1,126.11,109.88Zm68.84,5.46a69.87,69.87,0,0,0-6.56-3.57q-2.49-2.15-5.15-4.06a71.26,71.26,0,0,1,7.17,2.43Q192.8,112.63,194.94,115.34ZM208.67,133a69.85,69.85,0,0,0-4.88-6.07,71.51,71.51,0,0,0-3.74-6.56,70.3,70.3,0,0,1,6.11,5.24A71.26,71.26,0,0,1,208.67,133Zm5.75,20.91a69.88,69.88,0,0,0-2.11-7.16,71.55,71.55,0,0,0-.87-7.15,70.25,70.25,0,0,1,3.45,6.88A71.27,71.27,0,0,1,214.41,153.9Zm-1.86,9.85c0-2-.13-4-.33-5.93q.27-3.16.26-6.31c.56,2,1,4,1.41,6Q213.37,160.64,212.55,163.75Zm-24.48,39.49q-1.79.86-3.63,1.62,1.81-1.19,3.55-2.49,1.64-1,3.21-2.08Q189.68,201.81,188.07,203.24ZM169.28,215.1a70.36,70.36,0,0,1-7.57-.54,69.9,69.9,0,0,0,7.05-2,69.91,69.91,0,0,0,7.33-.8A70.34,70.34,0,0,1,169.28,215.1Zm-29.77-3.58a69.89,69.89,0,0,0,7.62.91,69.92,69.92,0,0,0,7.42,2.13,70.37,70.37,0,0,1-7.93.55A70.39,70.39,0,0,1,139.51,211.52Zm-15-11.64c1.16.82,2.35,1.62,3.57,2.37q1.81,1.36,3.69,2.6c-1.33-.54-2.64-1.14-3.93-1.76Q126.16,201.54,124.55,199.88Zm-19.69-36c.24,1.4.52,2.8.85,4.2q.25,1.79.59,3.55-.76-1.91-1.39-3.86C104.85,166.51,104.84,165.21,104.86,163.91ZM147,101.39a71.24,71.24,0,0,1,7.55.54,71.46,71.46,0,0,0-7,2,71.45,71.45,0,0,0-7.25.82A71.25,71.25,0,0,1,147,101.39Zm29.67,3.55a71.43,71.43,0,0,0-7.59-.93,71.41,71.41,0,0,0-7.34-2.08,71.24,71.24,0,0,1,7.88-.55A71.25,71.25,0,0,1,176.65,104.94Zm26.11,22.71q.84,1.68,1.59,3.4-1-1.41-2-2.79-1-1.64-2.08-3.21Q201.55,126.32,202.76,127.65Zm3.18,50.61a70.37,70.37,0,0,1-4.44,8.76,67.67,67.67,0,0,1-6.68,7.78,70.38,70.38,0,0,1-7.55,6.55,67.63,67.63,0,0,1-9.56,4.82,70.36,70.36,0,0,1-9.55,3.11,70.35,70.35,0,0,1-20.35,0,70.34,70.34,0,0,1-9.82-3.31,67.67,67.67,0,0,1-9.13-4.69,70.37,70.37,0,0,1-7.41-6.44,67.62,67.62,0,0,1-6.94-8.16,70.37,70.37,0,0,1-4.42-9,67.66,67.66,0,0,1-3.13-9.76,70.37,70.37,0,0,1-.69-9.8,67.62,67.62,0,0,1,.86-10.67,70.37,70.37,0,0,1,3.21-9.47,67.66,67.66,0,0,1,4.69-9.13,70.37,70.37,0,0,1,6.44-7.41,67.65,67.65,0,0,1,8.11-6.92,70.38,70.38,0,0,1,9-4.44,67.66,67.66,0,0,1,9.81-3.14,69.8,69.8,0,0,1,19.72,0,67.62,67.62,0,0,1,10.15,3.35,70.36,70.36,0,0,1,8.73,4.42,67.66,67.66,0,0,1,7.81,6.7,70.36,70.36,0,0,1,6.6,7.62,67.67,67.67,0,0,1,4.77,9.49,70.38,70.38,0,0,1,3.05,9.33,67.67,67.67,0,0,1,.78,10.23,70.36,70.36,0,0,1-.71,10A67.63,67.63,0,0,1,205.93,178.26Zm-58.39,32.21c1.27.32,2.54.61,3.82.86q-2,0-4-.13-1.88-.66-3.71-1.43C145,210,146.25,210.27,147.54,210.47Zm10.23,1.82c2.13.22,4.27.33,6.42.35q-3,.82-6.06,1.37-3.2-.57-6.31-1.44Q154.79,212.56,157.77,212.29Zm6.45-.89c1.4-.26,2.8-.55,4.19-.89s2.78-.45,4.15-.74c-1.32.55-2.67,1.06-4,1.53C167.1,211.38,165.66,211.42,164.22,211.4Zm4.08-105.67c-.94-.23-1.88-.45-2.82-.64,1.12,0,2.24.06,3.35.14,1,.34,1.93.7,2.89,1.08Q170,106,168.3,105.73Zm-9.85-1.66q-3.07-.29-6.13-.32,2.88-.77,5.81-1.29,3.08.55,6.11,1.37Q161.35,103.83,158.45,104.07Zm-7,.93q-1.66.31-3.32.7-1.81.26-3.6.6,1.59-.63,3.21-1.18C149,105.05,150.21,105,151.45,105Zm59,42.6c-.22-1.42-.49-2.82-.8-4.21.51,1.19,1,2.4,1.43,3.62q.14,2,.17,4.1Q210.88,149.36,210.44,147.61Zm-22.76-33.91c-1.16-.85-2.34-1.64-3.54-2.41,1.21.49,2.42,1,3.6,1.56q1.54,1.34,3,2.78Q189.24,114.62,187.68,113.69Zm-9.43-5.79c-1.55-.79-3.12-1.53-4.71-2.2q3.13.42,6.21,1.12,2.3,1.49,4.49,3.15C182.27,109.2,180.28,108.5,178.25,107.9Zm-20.12-6.7a72.41,72.41,0,0,0-8.31-1,71.06,71.06,0,0,1,8.69-2.66,71,71,0,0,1,8.31,2.65A72.41,72.41,0,0,0,158.12,101.2ZM143,105.56c-1.71.71-3.38,1.5-5,2.34-1.9.56-3.77,1.21-5.61,1.93q2.33-1.75,4.79-3.29C139.11,106.14,141.07,105.81,143,105.56Zm-10.92,5.72c-1.07.69-2.13,1.4-3.17,2.15q-1.48.86-2.91,1.8,1.36-1.3,2.78-2.52Q130.45,112,132.11,111.28ZM114,128.12q-1.09,1.44-2.09,2.93.82-1.89,1.75-3.72c.88-1,1.79-1.88,2.72-2.78C115.55,125.72,114.75,126.9,114,128.12Zm-8.11,19q-.43,1.66-.79,3.33,0-1.88.19-3.75.61-1.69,1.32-3.33C106.34,144.64,106.09,145.89,105.89,147.15Zm7.54,40.15q.86,1.48,1.8,2.91-1.3-1.36-2.52-2.78-.76-1.62-1.43-3.29C112,185.21,112.68,186.27,113.43,187.3Zm24,20.87c1.77.94,3.58,1.8,5.43,2.58q-3.21-.41-6.4-1.13-2.6-1.69-5-3.6Q134.35,207.24,137.4,208.17Zm20.72,7.11a71.09,71.09,0,0,0,8.28,1,70.13,70.13,0,0,1-8.65,2.65,70.11,70.11,0,0,1-8.28-2.62A71.1,71.1,0,0,0,158.13,215.28Zm15-4.38q2.94-1.23,5.76-2.73c1.92-.59,3.81-1.26,5.67-2q-2.56,2-5.32,3.73Q176.16,210.53,173.1,210.9Zm29.46-23.22c.85-1.16,1.64-2.34,2.41-3.54-.49,1.2-1,2.4-1.55,3.57q-1.35,1.55-2.79,3Q201.63,189.23,202.56,187.68Zm8-19.38c.3-1.24.56-2.49.8-3.74,0,1.19,0,2.39-.08,3.58q-.59,1.78-1.28,3.53Q210.28,170,210.52,168.29Zm.1-25.76q-1.25-2.9-2.76-5.69c-.61-1.89-1.29-3.74-2.05-5.56q2,2.51,3.72,5.21C210,138.49,210.35,140.5,210.63,142.53Zm-10-18.91c-1.42-1.38-2.89-2.71-4.42-4q-2-2.43-4.28-4.65,2.67,1.49,5.22,3.22Q199,120.84,200.59,123.62Zm-20.37-18a72.41,72.41,0,0,0-7.6-4.26,71,71,0,0,1,8.68.79,71,71,0,0,1,7,5.82A72.41,72.41,0,0,0,180.22,105.67Zm-10.38-5.54A72.47,72.47,0,0,0,161.16,97a69.89,69.89,0,0,1,9.56-1.22,69.87,69.87,0,0,1,8.33,4.84A72.47,72.47,0,0,0,169.84,100.13Zm-3.11-5.26c.46-.1.9-.21,1.34-.33l.34.15Zm-8.23,1.43c-.89-.22-1.78-.42-2.67-.6.76,0,1.52.06,2.3.06,1.29,0,2.54-.07,3.76-.17Q160.18,95.89,158.5,96.29Zm-.37-1.79a39.52,39.52,0,0,1-8-.8,68.21,68.21,0,0,1,8-2.66,68.21,68.21,0,0,1,8,2.66A39.52,39.52,0,0,1,158.13,94.5ZM155.84,97a72.47,72.47,0,0,0-9.07,3.17,72.48,72.48,0,0,0-9.58.48,69.85,69.85,0,0,1,8.71-5A69.88,69.88,0,0,1,155.84,97ZM144,101.39a72.41,72.41,0,0,0-7.3,4,72.42,72.42,0,0,0-8.42,2.37,71,71,0,0,1,6.71-5.59A71,71,0,0,1,144,101.39ZM124.6,114.87c-1.41,1.38-2.75,2.83-4,4.33q-2.47,2-4.75,4.17c1-1.77,2.16-3.48,3.35-5.15Q121.8,116.42,124.6,114.87Zm-14,16q-1.24,2.9-2.21,5.92c-.95,1.74-1.81,3.53-2.6,5.34q.45-3.18,1.2-6.31Q108.68,133.31,110.6,130.92Zm-6.76,20.33c0,2,.05,3.95.2,5.92-.23,2.1-.37,4.2-.41,6.31-.51-2-.93-4-1.27-6Q102.95,154.32,103.83,151.25ZM103.66,168a69.87,69.87,0,0,0,.74,7.42,71.26,71.26,0,0,1-3.23-6.71,70.28,70.28,0,0,1,.61-7.67A71.52,71.52,0,0,0,103.66,168Zm1.62,4.48q1.18,2.93,2.62,5.75c.56,1.9,1.21,3.77,1.93,5.61q-1.93-2.57-3.61-5.3C105.82,176.55,105.51,174.53,105.28,172.5Zm9.59,19.15c1.38,1.41,2.83,2.75,4.33,4a69.74,69.74,0,0,0,4.63,5.24q-2.68-1.53-5.23-3.3A68.92,68.92,0,0,1,114.87,191.65Zm21.06,19.14a71.1,71.1,0,0,0,7.59,4.28,70.12,70.12,0,0,1-8.65-.8,70.15,70.15,0,0,1-6.94-5.79A71.08,71.08,0,0,0,135.93,210.8Zm9.82,5.58h.61l.55.25a71.69,71.69,0,0,0,8.21,2.87,68.73,68.73,0,0,1-9.62,1.17,68.74,68.74,0,0,1-8.41-4.81A71.71,71.71,0,0,0,145.75,216.38Zm2.48,5.33-.26.06-.09,0Zm9.52-1.53,1.54.35-1.16,0c-.7,0-1.39,0-2.08.05Zm.38,1.57a39.36,39.36,0,0,1,8.19.84,68.55,68.55,0,0,1-8.19,2.68,68.54,68.54,0,0,1-8.19-2.68A39.37,39.37,0,0,1,158.13,221.75Zm2.27-2.24a71.7,71.7,0,0,0,8.24-2.77l.89-.39,1,0h0a71.69,71.69,0,0,0,8.67-.54,68.74,68.74,0,0,1-8.77,5A68.75,68.75,0,0,1,160.4,219.51Zm12-4.43a71.08,71.08,0,0,0,7.3-4,71.11,71.11,0,0,0,8.39-2.34,70.12,70.12,0,0,1-6.69,5.55A70.14,70.14,0,0,1,172.37,215.08Zm19.77-14q2.34-2.36,4.45-4.93,2.43-2,4.65-4.28-1.65,3-3.6,5.76Q195,199.51,192.14,201.1Zm14.13-16.88c.78-2,1.47-4,2.07-6,.9-1.76,1.74-3.56,2.48-5.38q-.38,3.17-1.05,6.32Q208.13,181.77,206.27,184.22Zm6.21-15.88a71.51,71.51,0,0,0,2-7.28,70.32,70.32,0,0,1,.61,8,71.28,71.28,0,0,1-3.46,7A69.86,69.86,0,0,0,212.48,168.34Zm2.69-10.87a72.43,72.43,0,0,0,.87-8.19,70.27,70.27,0,0,1,2.76,8.75,71,71,0,0,1-2.56,8.22A71.05,71.05,0,0,0,215.17,157.47Zm1.57-9.86c-.2-.48-.41-.94-.62-1.42a72.44,72.44,0,0,0-.55-9.48,68.76,68.76,0,0,1,5.1,8.85,69.83,69.83,0,0,1-1.3,9.83A71.76,71.76,0,0,0,216.74,147.61Zm-1.89-4.21a71,71,0,0,0-4.14-7.4,72.44,72.44,0,0,0-2.42-8.27,70.23,70.23,0,0,1,5.7,6.74A71,71,0,0,1,214.85,143.41Zm-6.79-17.73c-.28-.28-.58-.54-.86-.82a72.45,72.45,0,0,0-3.71-7.84,69.9,69.9,0,0,1,7.63,5.9,69.86,69.86,0,0,1,2.4,8.9A71.75,71.75,0,0,0,208.06,125.68Zm-3.1-2.91a71.06,71.06,0,0,0-7-5.45,72.45,72.45,0,0,0-4.82-6,71.06,71.06,0,0,1,8,4.24A71,71,0,0,1,205,122.78Zm-13.85-13.69a72.48,72.48,0,0,0-7.12-6.43,69.87,69.87,0,0,1,9.7,2.6,69.86,69.86,0,0,1,6.06,8A72.47,72.47,0,0,0,191.11,109.08ZM181.79,101a71.41,71.41,0,0,0-8.51-5.33,68.3,68.3,0,0,1,10.89.64,68.29,68.29,0,0,1,7.78,7A71.42,71.42,0,0,0,181.79,101ZM171,94.51,169.93,94a21,21,0,0,0,6.13-3.07,67.45,67.45,0,0,1,6.06,3.86A69.78,69.78,0,0,0,171,94.51ZM146.32,94l-.69.34a69.76,69.76,0,0,0-10.74.17q2.64-1.84,5.49-3.45A21.25,21.25,0,0,0,146.32,94Zm-4.89,1.44c.63,0,1.27,0,1.9,0a71.41,71.41,0,0,0-8.87,5.53,71.44,71.44,0,0,0-9.79,2.25A68.3,68.3,0,0,1,132.86,96,68.21,68.21,0,0,1,141.43,95.43Zm-9.17,7.21a72.47,72.47,0,0,0-6.86,6.18,72.48,72.48,0,0,0-8.35,3.92,69.88,69.88,0,0,1,5.9-7.63A69.88,69.88,0,0,1,132.27,102.65ZM123.34,111a72.41,72.41,0,0,0-5.09,6.3,71,71,0,0,0-6.69,5.21,71,71,0,0,1,4-7.5A71,71,0,0,1,123.34,111Zm-14,13.59c-.37.36-.75.7-1.12,1.07a71.77,71.77,0,0,0-5.45,6.14,69.83,69.83,0,0,1,2.52-9.28,69.86,69.86,0,0,1,8-6.06A72.46,72.46,0,0,0,109.31,124.62Zm-1.11,2.87a72.44,72.44,0,0,0-2.38,7.89,71,71,0,0,0-4.39,7.67,71,71,0,0,1,.83-8.57A70.28,70.28,0,0,1,108.19,127.49Zm-8.07,18.34c-.16.36-.33.72-.49,1.08a71.76,71.76,0,0,0-2.73,7.74,69.85,69.85,0,0,1-1.16-9.44,68.75,68.75,0,0,1,4.92-8.49A72.42,72.42,0,0,0,100.13,145.83Zm.07,3.08a72.42,72.42,0,0,0,.88,8.57,71,71,0,0,0-1,8.42,71,71,0,0,1-2.58-8.59A70.24,70.24,0,0,1,100.2,148.9Zm-.29,20c0,.52,0,1,0,1.54a71.72,71.72,0,0,0,.54,8.67,68.74,68.74,0,0,1-5-8.77A68.76,68.76,0,0,1,96.84,160,72.43,72.43,0,0,0,99.91,169Zm1.24,2.82A72.44,72.44,0,0,0,105,179a71.07,71.07,0,0,0,2.48,9,70.11,70.11,0,0,1-5.55-6.68A70.21,70.21,0,0,1,101.16,171.77Zm7,18.8.44.42c.07.19.14.38.21.56a71.71,71.71,0,0,0,3.78,7.83,68.75,68.75,0,0,1-7.63-6,68.74,68.74,0,0,1-2.55-9.35A71.72,71.72,0,0,0,108.19,190.57Zm2.7,2.56a71.1,71.1,0,0,0,6.82,5.41,71.1,71.1,0,0,0,5.17,6.54,70.16,70.16,0,0,1-8-4.24A70.1,70.1,0,0,1,110.89,193.13ZM124.11,207l.9.35c.23.23.44.47.67.7a71.72,71.72,0,0,0,6.52,5.75,68.74,68.74,0,0,1-9.73-2.67,68.72,68.72,0,0,1-6.14-8A71.71,71.71,0,0,0,124.11,207Zm10.27,8.45a70.17,70.17,0,0,0,8.49,5.26,68.49,68.49,0,0,1-10.81-.71,68.53,68.53,0,0,1-7.8-7A70.13,70.13,0,0,0,134.38,215.45ZM142,222c1.08,0,2.17,0,3.25-.08l.89.41a20.81,20.81,0,0,0-5.95,3,69.37,69.37,0,0,1-6-3.8A69.73,69.73,0,0,0,142,222Zm28.13.33.53-.23c1.23.06,2.45.1,3.68.1a69.73,69.73,0,0,0,7-.36q-2.63,1.81-5.44,3.38A21,21,0,0,0,170.12,222.32Zm2.89-1.41a70.14,70.14,0,0,0,8.86-5.45,70.16,70.16,0,0,0,9.72-2.28,68.51,68.51,0,0,1-8.15,7.14A68.53,68.53,0,0,1,173,220.91Zm11-7.1a71.7,71.7,0,0,0,6.52-5.75l.42-.44.56-.21a71.72,71.72,0,0,0,7.83-3.78,68.75,68.75,0,0,1-6,7.63A68.73,68.73,0,0,1,184,213.81Zm9.08-8.45a71.1,71.1,0,0,0,5.41-6.82,71.08,71.08,0,0,0,6.54-5.17,70.16,70.16,0,0,1-4.24,8A70.1,70.1,0,0,1,193.13,205.36ZM207,192.14c.13-.3.23-.6.35-.9s.47-.44.7-.67a71.7,71.7,0,0,0,5.75-6.52,68.74,68.74,0,0,1-2.67,9.73,68.73,68.73,0,0,1-8,6.14A71.71,71.71,0,0,0,207,192.14Zm1.47-3.82a71.05,71.05,0,0,0,2.47-8.65,72.43,72.43,0,0,0,4.14-7.55,70.16,70.16,0,0,1-.82,9.27A70.15,70.15,0,0,1,208.47,188.32Zm7.87-19a72.43,72.43,0,0,0,3-8.61,68.75,68.75,0,0,1,1.26,10.06,68.73,68.73,0,0,1-4.81,8.41,71.7,71.7,0,0,0,.54-8.67C216.38,170.1,216.35,169.7,216.35,169.31ZM220.08,158a71.38,71.38,0,0,0,1.68-10.1,68.51,68.51,0,0,1,3.52,10.18,68.5,68.5,0,0,1-3.54,10.24A70.17,70.17,0,0,0,220.08,158Zm1.87-12.75a69.75,69.75,0,0,0-.2-10.43,67.48,67.48,0,0,1,5.63,9.71,69.64,69.64,0,0,1-1.51,11A69.7,69.7,0,0,0,221.95,145.3ZM220.78,143a70.17,70.17,0,0,0-5.59-9,71.43,71.43,0,0,0-2.19-9.34,68.3,68.3,0,0,1,7.25,8.14A68.26,68.26,0,0,1,220.78,143Zm-10.52-22.45a71.43,71.43,0,0,0-8.15-5.87,71.42,71.42,0,0,0-6-8.53,68.29,68.29,0,0,1,9.47,4.56A68.31,68.31,0,0,1,210.26,120.54ZM184.67,95.11a68.72,68.72,0,0,0-7.59-5.06,10.36,10.36,0,0,0,1.13-1.24,69.23,69.23,0,0,1,8.31.78,69.66,69.66,0,0,1,9.19,8A68.66,68.66,0,0,0,184.67,95.11ZM162,83.61l-.77-.21q1.64-.32,3.3-.55A14.53,14.53,0,0,1,162,83.61Zm-3.35.38h-.27l.15,0Zm-4-.3A14.12,14.12,0,0,1,151,82.55q2.44.32,4.85.81ZM138,88.82a10.59,10.59,0,0,0,1.29,1.38,68.72,68.72,0,0,0-7,4.61,68.66,68.66,0,0,0-11.48,2.52,69.62,69.62,0,0,1,8.89-7.72A69.24,69.24,0,0,1,138,88.82ZM120.55,106a71.43,71.43,0,0,0-5.89,8.16,71.41,71.41,0,0,0-8.52,6,68.28,68.28,0,0,1,4.55-9.46A68.32,68.32,0,0,1,120.55,106Zm-17.19,18.3a71.4,71.4,0,0,0-2.3,9.73,70.2,70.2,0,0,0-5.4,8.61A68.27,68.27,0,0,1,96.31,132,68.29,68.29,0,0,1,103.36,124.28Zm-8.87,20.66a69.69,69.69,0,0,0-4.11,10.65,69.66,69.66,0,0,1-1.54-11.44,67.49,67.49,0,0,1,5.95-10A69.76,69.76,0,0,0,94.49,144.94Zm.17,2.64a71.4,71.4,0,0,0,1.52,9.73A70.15,70.15,0,0,0,94.36,168,68.52,68.52,0,0,1,91,158.13,68.51,68.51,0,0,1,94.66,147.57Zm-.49,23.07a69.7,69.7,0,0,0,.26,10.68,69.64,69.64,0,0,1-5.56-9.64,69.64,69.64,0,0,1,1.51-11A69.7,69.7,0,0,0,94.16,170.65ZM95.34,173a70.12,70.12,0,0,0,5.45,8.86,70.16,70.16,0,0,0,2.28,9.72,68.5,68.5,0,0,1-7.14-8.15A68.52,68.52,0,0,1,95.34,173Zm8.57,21.11a69.7,69.7,0,0,0,4.52,10.12,69.66,69.66,0,0,1-9.2-7,69.67,69.67,0,0,1-2.9-11.2A69.7,69.7,0,0,0,103.91,194.12Zm2,1.75a70.16,70.16,0,0,0,8.08,5.88,70.16,70.16,0,0,0,6.05,8.47,68.52,68.52,0,0,1-9.39-4.6A68.5,68.5,0,0,1,105.91,195.86Zm15.84,16.35a69.71,69.71,0,0,0,7.74,7.36,69.64,69.64,0,0,1-10.75-2.89,69.64,69.64,0,0,1-6.73-8.86A69.7,69.7,0,0,0,121.75,212.21Zm9.81,9a70.51,70.51,0,0,0,7.61,5,10.33,10.33,0,0,0-1.12,1.24,69.37,69.37,0,0,1-8.29-.81,69.6,69.6,0,0,1-8.3-7.08c-.31-.31-.6-.63-.9-.95A70.65,70.65,0,0,0,131.56,221.21Zm22.68,11.43.72.21q-1.62.31-3.26.54A14.58,14.58,0,0,1,154.24,232.64Zm3.38-.38h.13l-.07,0Zm3.93.29a14.1,14.1,0,0,1,3.69,1.16c-1.63-.21-3.25-.5-4.86-.82Zm16.66-5.11a10.57,10.57,0,0,0-1.29-1.39,70.45,70.45,0,0,0,7-4.55,70.65,70.65,0,0,0,11.47-2.59c-.2.21-.4.43-.61.64a69.59,69.59,0,0,1-8.3,7.08A69.38,69.38,0,0,1,178.21,227.44Zm7.81-7.53a69.71,69.71,0,0,0,8.1-7.57,69.7,69.7,0,0,0,10.12-4.52,69.66,69.66,0,0,1-7,9.2A69.67,69.67,0,0,1,186,219.91Zm9.84-9.57a70.17,70.17,0,0,0,5.87-8.08,70.14,70.14,0,0,0,8.47-6.05,68.52,68.52,0,0,1-4.6,9.39A68.5,68.5,0,0,1,195.86,210.34Zm16.35-15.84a69.71,69.71,0,0,0,7.36-7.74,69.64,69.64,0,0,1-2.89,10.75,69.65,69.65,0,0,1-8.86,6.73A69.71,69.71,0,0,0,212.21,194.5ZM213,192a70.14,70.14,0,0,0,2.41-10.13,70.16,70.16,0,0,0,5.26-8.49,68.5,68.5,0,0,1-.71,10.81A68.51,68.51,0,0,1,213,192Zm8.87-21a69.7,69.7,0,0,0,4-10.35,69.67,69.67,0,0,1,1.54,11.46,69.65,69.65,0,0,1-5.87,10A69.7,69.7,0,0,0,221.91,171Zm4.66-12.89A70.62,70.62,0,0,0,228.46,147a69.67,69.67,0,0,1,3.83,11.55,69.56,69.56,0,0,1-3.43,10.4c-.11.27-.24.53-.36.8A70.67,70.67,0,0,0,226.57,158.13Zm2.46-13c-.12-.27-.26-.52-.38-.79.06-1.23.1-2.47.1-3.72a71.06,71.06,0,0,0-.53-8.62,68.85,68.85,0,0,1,5.28,9.42c.28.6.59,1.18.91,1.76-.07.66-.15,1.31-.18,2a68.81,68.81,0,0,1-1.34,10.71A71.32,71.32,0,0,0,229,145.13Zm-1.53-4.5c0,.43,0,.86,0,1.29a68.67,68.67,0,0,0-6-9.57,68.67,68.67,0,0,0-2.52-11.48,69.62,69.62,0,0,1,7.7,8.85A69.6,69.6,0,0,1,227.5,140.63Zm-11.42-24.07a68.67,68.67,0,0,0-9.61-6.78,68.66,68.66,0,0,0-6.49-9.26,69.65,69.65,0,0,1,10.9,5.48A69.61,69.61,0,0,1,216.08,116.56ZM178.21,83q-1.22-.63-2.47-1.21c.57-.09,1.15-.17,1.72-.29A6.12,6.12,0,0,1,178.21,83Zm-4.46-2.23a30.49,30.49,0,0,1-5.17-3.45,6.18,6.18,0,0,0-1.69-1.62c4.22,1,7.63,2.64,9.64,4.69Q175.15,80.67,173.75,80.8Zm-7.94-4.29c.59.58,1.21,1.15,1.84,1.69a2.33,2.33,0,0,1,.35,1.18,2.74,2.74,0,0,1-.93,1.91,69.85,69.85,0,0,0-8.49,1.39A69.87,69.87,0,0,0,149,81a2.58,2.58,0,0,1-.7-1.67,2.33,2.33,0,0,1,.35-1.18c.64-.54,1.25-1.1,1.84-1.69a17.63,17.63,0,0,1,15.36,0Zm-18.13.83a30.5,30.5,0,0,1-4.73,3.23c-1-.12-1.94-.27-2.89-.48a20.73,20.73,0,0,1,9.31-4.36A6.18,6.18,0,0,0,147.67,77.35Zm-6.61,4.19-.15.08c-1,.45-1.92.92-2.87,1.41a6.4,6.4,0,0,1,1-1.89C139.74,81.3,140.4,81.42,141.06,81.54Zm-24.5,18.63a68.67,68.67,0,0,0-6.78,9.61,68.65,68.65,0,0,0-9.26,6.49,69.64,69.64,0,0,1,5.48-10.9A69.61,69.61,0,0,1,116.56,100.17ZM97.63,120.56a68.66,68.66,0,0,0-2.51,11,68.68,68.68,0,0,0-6.34,9.91c0-.29,0-.58,0-.87a69.59,69.59,0,0,1,.87-10.92A69.66,69.66,0,0,1,97.63,120.56Zm-10,23.32-.2.4a71.3,71.3,0,0,0-4,10.7,68.82,68.82,0,0,1-1.21-10.73c0-.5-.08-1-.12-1.49.23-.44.48-.87.68-1.33A68.87,68.87,0,0,1,88,132a71.06,71.06,0,0,0-.53,8.62C87.5,141.71,87.53,142.8,87.58,143.88Zm.18,2.65a70.66,70.66,0,0,0,1.92,11.6,70.62,70.62,0,0,0-1.89,11.15c-.17-.4-.36-.79-.52-1.19A69.61,69.61,0,0,1,84,157.64,69.6,69.6,0,0,1,87.76,146.53Zm-1.64,22q.7,1.72,1.48,3.38c-.06,1.23-.1,2.46-.1,3.69a71.06,71.06,0,0,0,.53,8.6,68.84,68.84,0,0,1-5.28-9.41c-.28-.6-.59-1.18-.91-1.76.07-.66.15-1.31.18-2a68.87,68.87,0,0,1,1.34-10.72A71.07,71.07,0,0,0,86.12,168.55Zm2.63,7.07c0-.44,0-.87,0-1.3a70.64,70.64,0,0,0,6,9.62,70.67,70.67,0,0,0,2.6,11.48l-.64-.61a69.59,69.59,0,0,1-7.08-8.3A69.59,69.59,0,0,1,88.75,175.63Zm11.72,24.87c-.11-.27-.2-.55-.31-.82a70.66,70.66,0,0,0,9.57,6.85,70.63,70.63,0,0,0,6.55,9.22c-.4-.16-.81-.31-1.21-.48a69.62,69.62,0,0,1-9.69-5A69.63,69.63,0,0,1,100.47,200.5ZM138,233.23c.81.42,1.64.82,2.47,1.21-.57.09-1.15.17-1.72.29A6.11,6.11,0,0,1,138,233.23Zm4.46,2.22a30.5,30.5,0,0,1,5.17,3.45,6.18,6.18,0,0,0,1.69,1.62c-4.22-1-7.63-2.64-9.64-4.69Q141.1,235.58,142.5,235.45Zm7.94,4.29c-.59-.58-1.2-1.15-1.84-1.69a2.33,2.33,0,0,1-.35-1.18,2.74,2.74,0,0,1,.92-1.91,69.91,69.91,0,0,0,8.5-1.4,69.94,69.94,0,0,0,9.62,1.63,2.59,2.59,0,0,1,.71,1.68,2.33,2.33,0,0,1-.35,1.18c-.64.54-1.25,1.1-1.84,1.69a17.63,17.63,0,0,1-15.37,0Zm18.14-.83a30.48,30.48,0,0,1,4.73-3.23c1,.12,1.94.27,2.89.48a20.73,20.73,0,0,1-9.31,4.36A6.18,6.18,0,0,0,168.58,238.9Zm6.61-4.19.15-.08q1.45-.67,2.86-1.4a6.4,6.4,0,0,1-1,1.88C176.51,235,175.85,234.83,175.19,234.71Zm25.31-18.93-.82.31a70.67,70.67,0,0,0,6.85-9.57,70.62,70.62,0,0,0,9.22-6.55c-.16.4-.31.81-.48,1.21a69.62,69.62,0,0,1-5,9.69A69.63,69.63,0,0,1,200.5,215.78Zm19.06-21c-.31.31-.63.6-.94.9a70.62,70.62,0,0,0,2.59-11,70.66,70.66,0,0,0,6.28-10c0,.29,0,.59,0,.88a69.6,69.6,0,0,1-.87,10.88A69.57,69.57,0,0,1,219.56,194.81Zm9.12-22.43c.46-1,.91-2,1.33-3a71.07,71.07,0,0,0,2.85-8.15A68.85,68.85,0,0,1,234.07,172c0,.5.08,1,.12,1.49-.23.44-.48.87-.68,1.33a68.78,68.78,0,0,1-5.28,9.41,71.06,71.06,0,0,0,.53-8.6C228.75,174.54,228.72,173.46,228.67,172.38Zm6.62-.86a70,70,0,0,0-1.72-13,70,70,0,0,0,1.91-13.34c0-.06,0-.11,0-.17a31.76,31.76,0,0,0,13.57,12c.78.36,1.54.74,2.3,1.13-.76.38-1.52.76-2.3,1.12A31.76,31.76,0,0,0,235.29,171.52Zm14.3-15.66a30.52,30.52,0,0,1-13.91-12.92,30.52,30.52,0,0,1,8-17.22c.8-.85,1.57-1.73,2.32-2.62a69.11,69.11,0,0,1,22.2,6.17,67.44,67.44,0,0,1,9.53,5.46,70.09,70.09,0,0,1-8.69,10.57,69.08,69.08,0,0,1-16.32,12.1Q251.18,156.6,249.59,155.86Zm-6.81-31a31.76,31.76,0,0,0-8.06,16.19l-.08-.15a70,70,0,0,0-6.81-11.68,70,70,0,0,0-3.28-12.61,31.76,31.76,0,0,0,17.38,6.17c.86,0,1.71.11,2.56.18C243.92,123.61,243.36,124.25,242.77,124.87ZM223.22,94.62A31.76,31.76,0,0,0,222.16,113a70,70,0,0,0-10.36-7.94,70,70,0,0,0-8.1-10.79l-.11-.13A31.75,31.75,0,0,0,221.63,93c.8-.3,1.61-.56,2.42-.83C223.79,93,223.52,93.81,223.22,94.62Zm-2-2.76a30.52,30.52,0,0,1-19,.7,30.53,30.53,0,0,1-6.51-17.83h0A26.89,26.89,0,0,0,219.5,58.61a67.43,67.43,0,0,1,6.65-1.6,69.23,69.23,0,0,1-1.63,33.71Q222.85,91.24,221.2,91.85ZM195.64,73.46c0-.75-.07-1.5-.13-2.25a69.13,69.13,0,0,1,20.05-11.33c.77-.28,1.53-.53,2.3-.78A25.62,25.62,0,0,1,195.64,73.46Zm19.5-14.75a70.42,70.42,0,0,0-19.78,11q-.34-3.31-1-6.57a11.11,11.11,0,0,0-7.72-20.76q-1.49-2.64-3.2-5.1a69.21,69.21,0,0,1,27.21-9.59,25.52,25.52,0,0,1,7.93,29.85Q216.85,58.09,215.14,58.71ZM189.43,47.88c-.67-1.48-1.41-2.92-2.17-4.33a9.86,9.86,0,0,1,6.84,18.37A71,71,0,0,0,189.43,47.88Zm3.49,14.54A9.86,9.86,0,0,1,186,43.93c.79,1.46,1.56,2.94,2.25,4.47A69.68,69.68,0,0,1,192.93,62.42ZM182.74,36.29a69.2,69.2,0,0,0-5.61-6.86,25.53,25.53,0,0,1,32.12-2.76A70.36,70.36,0,0,0,182.74,36.29Zm-1.05.68a68.65,68.65,0,0,0-9.61,7.41c-1,.89-1.88,1.8-2.79,2.73a25.5,25.5,0,0,1,7-16.78A68,68,0,0,1,181.69,37Zm-8.77,8.33a67.43,67.43,0,0,1,9.47-7.3c1.07,1.56,2.09,3.17,3,4.83a11.12,11.12,0,0,0,7.75,20.83,68.64,68.64,0,0,1,1,7q-1.35,1.12-2.65,2.3l-.3.25A25.63,25.63,0,0,1,169.3,48.92C170.47,47.68,171.66,46.46,172.92,45.29Zm17,29a30.51,30.51,0,0,1-12,5.84c-2.38-2.83-6.95-5-12.67-6a30.47,30.47,0,0,1-4.89-7.45q-.74-1.6-1.55-3.15a68.73,68.73,0,0,1,9.28-13.32A26.9,26.9,0,0,0,190,74.28Zm-30.72-7.09a31.71,31.71,0,0,0,4.15,6.65,41.83,41.83,0,0,0-10.55,0A31.7,31.7,0,0,0,157,67.19c.36-.78.74-1.53,1.12-2.29C158.51,65.65,158.89,66.41,159.25,67.19Zm-3.39-.52A30.46,30.46,0,0,1,151,74.11c-5.46,1-9.85,3-12.31,5.62A30.51,30.51,0,0,1,127.44,74a26.91,26.91,0,0,0,20.69-23.84,68.72,68.72,0,0,1,9.28,13.32Q156.6,65.07,155.86,66.66ZM126.26,73c-.17-.16-.36-.3-.53-.46q-1.28-1.2-2.62-2.33c.22-2.11.53-4.21.95-6.29a11.11,11.11,0,0,0,7.7-20.67q1.38-2.43,3-4.72a67.43,67.43,0,0,1,8.62,6.75c1.26,1.17,2.46,2.39,3.62,3.63A25.64,25.64,0,0,1,126.26,73Zm3-25c.59-1.26,1.22-2.48,1.88-3.68a9.86,9.86,0,0,1-6.83,18.36A69.59,69.59,0,0,1,129.28,48Zm-6.15,14.3A9.86,9.86,0,0,1,130,43.86c-.65,1.2-1.28,2.41-1.86,3.66A70.86,70.86,0,0,0,123.12,62.35Zm21.05-18a68.65,68.65,0,0,0-8.75-6.86A67.92,67.92,0,0,1,140.65,31,25.48,25.48,0,0,1,147,47.11C146.06,46.18,145.13,45.26,144.18,44.37Zm-9.8-7.52A70.3,70.3,0,0,0,107,26.67a25.54,25.54,0,0,1,32.81,3.45A69.14,69.14,0,0,0,134.38,36.85ZM101.87,59.2a69.12,69.12,0,0,1,19.92,11.57c-.09.9-.14,1.81-.19,2.72h-.22A25.66,25.66,0,0,1,97.76,57.82C99.14,58.24,100.51,58.69,101.87,59.2Zm19.51,15.55h.12a30.5,30.5,0,0,1-7,17.66,30.51,30.51,0,0,1-19.44-.55q-1.65-.61-3.32-1.13A69.32,69.32,0,0,1,90.3,56q3,.55,6,1.38A26.9,26.9,0,0,0,121.38,74.75ZM94.62,93A31.75,31.75,0,0,0,113,94.09a70,70,0,0,0-7.94,10.36,70,70,0,0,0-10.79,8.1l-.13.11A31.75,31.75,0,0,0,93,94.62c-.3-.8-.57-1.61-.83-2.42C93,92.46,93.81,92.73,94.62,93Zm-2.76,2a30.52,30.52,0,0,1,.7,19,30.53,30.53,0,0,1-17.83,6.51q-1.76.06-3.5.2a69.06,69.06,0,0,1-10.34-17.49A70.09,70.09,0,0,1,57,90.14,67.44,67.44,0,0,1,67.88,88.8a69.12,69.12,0,0,1,22.85,2.93C91.08,92.84,91.45,94,91.85,95Zm-17.1,26.73A31.76,31.76,0,0,0,91.91,116l-.05.16a70,70,0,0,0-3.42,13,70,70,0,0,0-6.62,11.28,31.76,31.76,0,0,0-7.93-16.66c-.58-.63-1.13-1.28-1.68-1.93C73,121.87,73.9,121.81,74.76,121.78ZM73,124.7a30.52,30.52,0,0,1,7.84,17.8,30.51,30.51,0,0,1-14.13,13.36q-1.6.73-3.15,1.55a69,69,0,0,1-16.32-12.1A70,70,0,0,1,38,133.88,67.42,67.42,0,0,1,48.4,128a69.12,69.12,0,0,1,22.27-5.91C71.41,123,72.17,123.84,73,124.7ZM67.19,157A31.76,31.76,0,0,0,81,144.73a70,70,0,0,0,1.72,12.92A70,70,0,0,0,80.78,171c0,.06,0,.11,0,.17a31.76,31.76,0,0,0-13.57-12c-.78-.36-1.54-.74-2.3-1.12C65.65,157.74,66.41,157.36,67.19,157Zm-.52,3.39a30.52,30.52,0,0,1,13.91,12.92,30.52,30.52,0,0,1-8,17.22q-1.2,1.28-2.33,2.62a69,69,0,0,1-19.68-5.05,70.09,70.09,0,0,1-12-6.51,67.44,67.44,0,0,1,6.77-8.66,69.13,69.13,0,0,1,18.23-14.09C64.55,159.37,65.6,159.9,66.66,160.39Zm6.81,31a31.76,31.76,0,0,0,8.06-16.19l.08.15A70,70,0,0,0,88.43,187a70,70,0,0,0,3.28,12.64,31.76,31.76,0,0,0-17.38-6.17c-.85,0-1.7-.1-2.55-.17C72.33,192.65,72.89,192,73.48,191.38Zm.79,3.33a30.51,30.51,0,0,1,18.13,7,30.51,30.51,0,0,1-.55,19.44c-.41,1.1-.78,2.2-1.12,3.31a69.07,69.07,0,0,1-20.1,3A70,70,0,0,1,56,225.95a67.42,67.42,0,0,1,3.19-11.57,69.13,69.13,0,0,1,11.57-19.92C71.94,194.57,73.1,194.66,74.27,194.71ZM93,221.63a31.76,31.76,0,0,0,1.06-18.42,70,70,0,0,0,10.37,7.93,70,70,0,0,0,8.09,10.8l.11.13a31.32,31.32,0,0,0-18.05,1.15c-.8.3-1.61.57-2.43.84C92.46,223.25,92.73,222.44,93,221.63Zm2,2.76a30.52,30.52,0,0,1,19-.7,30.53,30.53,0,0,1,6.51,17.84h0a26.89,26.89,0,0,0-23.79,16.12q-3.29,1-6.63,1.62a69.25,69.25,0,0,1,1.63-33.77C92.85,225.17,94,224.8,95,224.4Zm25.55,18.39c0,.75.08,1.5.14,2.24a69.06,69.06,0,0,1-17.49,10.35c-1.61.65-3.23,1.23-4.86,1.75A25.62,25.62,0,0,1,120.6,242.79Zm-16.88,13.74a70.31,70.31,0,0,0,17.17-10q.34,3.31,1,6.56a11.11,11.11,0,0,0,7.72,20.76q1.49,2.65,3.18,5.15a68.59,68.59,0,0,1-26.95,9.72,25.51,25.51,0,0,1-8.17-30C99.7,258.05,101.72,257.35,103.72,256.53Zm22,9.27a71.82,71.82,0,0,0,3.26,6.91,9.86,9.86,0,0,1-6.83-18.37A70.75,70.75,0,0,0,125.71,265.8Zm-2.4-12a9.86,9.86,0,0,1,6.88,18.49,70.52,70.52,0,0,1-3.32-7A69.52,69.52,0,0,1,123.31,253.83ZM133.5,280a69.85,69.85,0,0,0,5.54,6.88,25.51,25.51,0,0,1-31.75,2.86A69.81,69.81,0,0,0,133.5,280Zm1.06-.67a71.22,71.22,0,0,0,11.64-9.4c.26-.26.51-.54.77-.8a25.5,25.5,0,0,1-7,16.88A68.61,68.61,0,0,1,134.56,279.34Zm10.75-10.29a70,70,0,0,1-11.47,9.26q-1.61-2.37-3-4.89a11.12,11.12,0,0,0-7.74-20.83,68.72,68.72,0,0,1-1-7c.9-.74,1.78-1.5,2.65-2.29l.3-.25a25.63,25.63,0,0,1,21.94,24.3C146.41,267.92,145.87,268.49,145.31,269.05Zm-19-27.08a30.51,30.51,0,0,1,12-5.84c2.38,2.83,6.95,5,12.67,6a30.46,30.46,0,0,1,4.89,7.45c.49,1.06,1,2.11,1.55,3.14A68.83,68.83,0,0,1,148.13,266,26.91,26.91,0,0,0,126.28,242ZM157,249.06a31.71,31.71,0,0,0-4.15-6.65,41.83,41.83,0,0,0,10.55,0,31.71,31.71,0,0,0-4.15,6.65c-.36.78-.74,1.54-1.12,2.31C157.74,250.61,157.36,249.84,157,249.06Zm3.39.52a30.47,30.47,0,0,1,4.89-7.45c5.46-1,9.85-3,12.31-5.62a30.5,30.5,0,0,1,11.22,5.69A26.91,26.91,0,0,0,168.12,266a68.87,68.87,0,0,1-9.28-13.31C159.38,251.69,159.9,250.65,160.39,249.59ZM190,243.23c.17.16.36.3.53.46.85.8,1.73,1.57,2.62,2.32q-.33,3.17-1,6.3a11.11,11.11,0,0,0-7.7,20.67c-.92,1.64-1.89,3.24-2.94,4.78a70.08,70.08,0,0,1-10.61-8.72c-.56-.56-1.1-1.14-1.64-1.71A25.64,25.64,0,0,1,190,243.23Zm-1.9,22.46q-1.35,3.19-3,6.2a9.86,9.86,0,0,1,6.83-18.36A69.44,69.44,0,0,1,188.09,265.69Zm5-11.79a9.86,9.86,0,0,1-6.88,18.49q1.63-3,3-6.22A70.75,70.75,0,0,0,193.14,253.91Zm-23.08,16a71.35,71.35,0,0,0,10.77,8.85,68.68,68.68,0,0,1-5.16,6.49,25.48,25.48,0,0,1-6.37-16.14C169.55,269.4,169.79,269.67,170.06,269.94Zm11.82,9.52A69.8,69.8,0,0,0,209,289.76a25.52,25.52,0,0,1-32.45-3.55A69.93,69.93,0,0,0,181.88,279.46ZM211.83,256a69.08,69.08,0,0,1-17.37-10.56c.09-.9.15-1.81.2-2.71h.22a25.66,25.66,0,0,1,23.62,15.7A70.59,70.59,0,0,1,211.83,256Zm-17-14.53h-.12a30.5,30.5,0,0,1,7-17.66,30.51,30.51,0,0,1,19.44.55c1.1.41,2.2.78,3.31,1.12a69.3,69.3,0,0,1,1.42,34.76q-3-.57-6-1.41A26.9,26.9,0,0,0,194.87,241.5Zm26.76-18.28a31.4,31.4,0,0,0-18.42-1.06,70,70,0,0,0,7.93-10.37,70,70,0,0,0,10.8-8.09l.13-.11a31.75,31.75,0,0,0,1.15,18.05c.3.8.57,1.61.84,2.43C223.25,223.79,222.44,223.52,221.63,223.22Zm2.76-2a30.52,30.52,0,0,1-.7-19,30.53,30.53,0,0,1,17.84-6.51c1.17,0,2.33-.11,3.5-.21a69.13,69.13,0,0,1,11.33,20.06,67.44,67.44,0,0,1,2.88,10.61,70.09,70.09,0,0,1-13.62,1.33,69.05,69.05,0,0,1-20.1-3C225.17,223.4,224.8,222.3,224.4,221.2Zm17.1-26.73a31.76,31.76,0,0,0-17.15,5.75l.05-.16A70,70,0,0,0,227.82,187a70,70,0,0,0,6.62-11.26,31.76,31.76,0,0,0,7.93,16.66c.58.63,1.13,1.28,1.68,1.93C243.2,194.39,242.35,194.44,241.49,194.47Zm1.8-2.92a30.51,30.51,0,0,1-7.84-17.8,30.51,30.51,0,0,1,14.13-13.36c1.06-.49,2.11-1,3.14-1.55A69.13,69.13,0,0,1,271,172.92a67.42,67.42,0,0,1,7.32,9.51,70,70,0,0,1-12.95,6.95,69.07,69.07,0,0,1-19.74,4.82Q244.48,192.85,243.29,191.55Zm28.58-19.48A70.39,70.39,0,0,0,254,158.13a70.34,70.34,0,0,0,15.91-11.93,71.35,71.35,0,0,0,8.83-10.73,69.24,69.24,0,0,1,20.82,23.74,68.63,68.63,0,0,1-20.28,22.52A68.64,68.64,0,0,0,271.88,172.07Zm7.56-37.67A69.84,69.84,0,0,0,290,105.14a71,71,0,0,1,18.41,23.91,69.44,69.44,0,0,1-5.36,23c-.84,2-1.78,3.95-2.79,5.84A70.46,70.46,0,0,0,279.44,134.41Zm-1-.72a68.65,68.65,0,0,0-9.68-5.54A70.39,70.39,0,0,0,247,122a70.36,70.36,0,0,0,10.23-17.05,71.24,71.24,0,0,0,4.31-14.29,69.31,69.31,0,0,1,27.41,13.58A68.63,68.63,0,0,1,278.41,133.68ZM260.49,89.12a68.64,68.64,0,0,0-12.07-1.57,70.39,70.39,0,0,0-22.48,2.76,70.63,70.63,0,0,0,1.44-33.53,68.06,68.06,0,0,1,11.29-.95,70,70,0,0,1,20.23,3A68.63,68.63,0,0,1,260.49,89.12ZM227.12,55.57a70.22,70.22,0,0,0-4-12.51,11.1,11.1,0,0,0,8.32-15,70.33,70.33,0,0,1,12.42,3.22,69.43,69.43,0,0,1,12.45,20c.82,2,1.53,4.05,2.16,6.1A70.45,70.45,0,0,0,227.12,55.57ZM231,32.13a9.85,9.85,0,0,1-8.81,9.82l-.85.09.34.78a69.06,69.06,0,0,1,4.21,13c-2,.37-3.89.83-5.83,1.37a26.67,26.67,0,0,0-7.68-29.63,70,70,0,0,1,17.62.3A9.8,9.8,0,0,1,231,32.13Zm-17.74-5.93a9.83,9.83,0,0,1,16,.29A72.54,72.54,0,0,0,213.26,26.19Zm-2.26.23a26.72,26.72,0,0,0-34.72,2.09,71.13,71.13,0,0,0-16-12.43A71,71,0,0,1,188.7,8.35a69.42,69.42,0,0,1,22.81,18Zm-35.6,3A26.75,26.75,0,0,0,168,47.87c0,.2,0,.38,0,.58a70,70,0,0,0-9.9,13.77,70,70,0,0,0-9.9-13.77c0-.19,0-.38,0-.58a26.73,26.73,0,0,0-6.74-17.74A69.81,69.81,0,0,1,159,16.78,69.89,69.89,0,0,1,175.4,29.41Zm-34.73-.19a26.73,26.73,0,0,0-35.42-2.79l-.52-.07A69.41,69.41,0,0,1,128.38,7.93a71,71,0,0,1,29.28,8.15A71,71,0,0,0,140.67,29.21Zm-44.36-2.1a71.18,71.18,0,0,1,7.55.42,26.8,26.8,0,0,0-8.13,28.4c-1.71-.45-3.43-.82-5.15-1.14a69.11,69.11,0,0,1,4-12l.34-.78-.85-.09a9.85,9.85,0,0,1-7.81-14.12A71.26,71.26,0,0,1,96.31,27.11ZM87,26.48a9.83,9.83,0,0,1,16-.29A72.53,72.53,0,0,0,87,26.48ZM93.1,43.06a70.27,70.27,0,0,0-3.74,11.5A70.52,70.52,0,0,0,59,56.23c.65-2,1.39-4.08,2.23-6.08A69.46,69.46,0,0,1,73.3,30.94a70.39,70.39,0,0,1,11.48-2.87,11.1,11.1,0,0,0,8.32,15Zm-4,12.72a70.44,70.44,0,0,0,1.23,34.53,70.31,70.31,0,0,0-22.48-2.76A68.66,68.66,0,0,0,56.76,88.9a68.63,68.63,0,0,1,1.78-31.24A69.32,69.32,0,0,1,89.08,55.79ZM55.75,90.4a71.35,71.35,0,0,0,4,13.32,70.32,70.32,0,0,0,10,17.17,70.4,70.4,0,0,0-21.86,5.92,68.63,68.63,0,0,0-10.59,6,68.63,68.63,0,0,1-9.95-28.62A69.24,69.24,0,0,1,55.75,90.4ZM36.26,133.53A70.52,70.52,0,0,0,16,156.19c-1-1.91-1.9-3.86-2.72-5.88a69.46,69.46,0,0,1-5-22.11,71,71,0,0,1,18-23.05A69.84,69.84,0,0,0,36.26,133.53Zm.67,1.06a71.23,71.23,0,0,0,9.38,11.61,70.31,70.31,0,0,0,15.91,11.93,70.39,70.39,0,0,0-17.84,13.95,68.66,68.66,0,0,0-6.87,8.78A68.63,68.63,0,0,1,16.66,157.5,69.31,69.31,0,0,1,36.93,134.59Zm-.1,47.32a70.46,70.46,0,0,0-10.47,29.63c-1.65-1.37-3.25-2.82-4.79-4.36A69.43,69.43,0,0,1,7.93,187.9a71,71,0,0,1,8-29.09A69.84,69.84,0,0,0,36.83,181.91Zm1,.72a71.35,71.35,0,0,0,12.22,6.61A70.35,70.35,0,0,0,69.3,194.3,70.38,70.38,0,0,0,58,213.94a68.64,68.64,0,0,0-3.24,11.74,68.63,68.63,0,0,1-27.27-13.21A69.25,69.25,0,0,1,37.85,182.63Zm17.94,44.55a71.24,71.24,0,0,0,14.84,1.57,70.34,70.34,0,0,0,19.68-2.81,70.64,70.64,0,0,0-1.44,33.55,68.63,68.63,0,0,1-31.21-1.78A69.31,69.31,0,0,1,55.78,227.18Zm21.3,34.61a69.85,69.85,0,0,0,12.06-1.07,70.22,70.22,0,0,0,4,12.47,11.12,11.12,0,0,0-8.23,15.24,68.83,68.83,0,0,1-11.9-3,71,71,0,0,1-14.89-26.25A70,70,0,0,0,77.08,261.79Zm8.17,22.34a9.85,9.85,0,0,1,8.81-9.82l.85-.09-.34-.78a69.05,69.05,0,0,1-4.2-12.93c1.95-.38,3.89-.85,5.81-1.4a26.69,26.69,0,0,0,7.91,29.81l-.15,0-.09-.11-.09.13a70.55,70.55,0,0,1-7.5.41h0a70.37,70.37,0,0,1-9.88-.7A9.81,9.81,0,0,1,85.25,284.12Zm11,6.5h0c2.2,0,4.38-.11,6.54-.31A9.83,9.83,0,0,1,87.23,290,71.68,71.68,0,0,0,96.25,290.62Zm9.25-.62a26.71,26.71,0,0,0,34.4-2.2A70,70,0,0,0,156,300.4c-1.84.94-3.72,1.82-5.65,2.61a69.46,69.46,0,0,1-22.45,5,69.4,69.4,0,0,1-23-18Zm35.28-3.09a26.76,26.76,0,0,0,7.47-18.55c0-.19,0-.37,0-.56a70.14,70.14,0,0,0,9.9-13.78,70.16,70.16,0,0,0,9.9,13.78c0,.19,0,.37,0,.56a26.73,26.73,0,0,0,6.81,17.82,68.78,68.78,0,0,1-17.54,13.52A68.8,68.8,0,0,1,140.78,286.92Zm34.88.2a26.74,26.74,0,0,0,35.1,2.88l.6.07a69.39,69.39,0,0,1-23.84,18.4,69.43,69.43,0,0,1-23.32-5.38c-1.93-.81-3.8-1.71-5.62-2.68A70,70,0,0,0,175.66,287.12ZM220,289.37h0a70.56,70.56,0,0,1-7.51-.41l-.09-.13-.09.11-.15,0a26.82,26.82,0,0,0,8.35-28.6q2.55.69,5.14,1.18a69.11,69.11,0,0,1-4,11.94l-.34.78.85.09a9.86,9.86,0,0,1,7.69,14.36A70.37,70.37,0,0,1,220,289.37Zm9,.66a9.83,9.83,0,0,1-15.56.28c2.16.2,4.34.31,6.54.31h0A71.68,71.68,0,0,0,229,290Zm-5.87-16.85a70.28,70.28,0,0,0,3.73-11.47,68.94,68.94,0,0,0,30.06-1.39,71,71,0,0,1-14.57,25.35,68.83,68.83,0,0,1-11,2.75,11.12,11.12,0,0,0-8.23-15.24Zm4-12.69a70.43,70.43,0,0,0-1.22-34.56,70.33,70.33,0,0,0,19.68,2.81,71.35,71.35,0,0,0,13.83-1.35,69.24,69.24,0,0,1-2.07,31.51A68.63,68.63,0,0,1,227.16,260.5Zm33.3-34.6a68.65,68.65,0,0,0-2.92-10.76,70.42,70.42,0,0,0-11-19.78,70.3,70.3,0,0,0,19.29-4.82A71.24,71.24,0,0,0,279,183.48a69.31,69.31,0,0,1,9.78,29A68.63,68.63,0,0,1,260.46,225.9ZM280,182.77a69.84,69.84,0,0,0,20.29-22.25,71,71,0,0,1,7.63,28.23,69.47,69.47,0,0,1-13.21,18.43c-1.54,1.54-3.14,3-4.79,4.36A70.52,70.52,0,0,0,280,182.77ZM303.41,99a69.22,69.22,0,0,1,5.13,27.49,72.31,72.31,0,0,0-18.32-22.76,71.86,71.86,0,0,0,.39-7.43,70.87,70.87,0,0,0-3-20.63A68,68,0,0,1,303.41,99ZM269,47.19A69.17,69.17,0,0,1,284.8,71.45a72.35,72.35,0,0,0-24.86-13.57,71.85,71.85,0,0,0-2.44-7,70.79,70.79,0,0,0-11.2-18.66A68,68,0,0,1,269,47.19Zm-76.46-39A68,68,0,0,1,219,13.55a69.21,69.21,0,0,1,23.07,15.8,71.78,71.78,0,0,0-11.26-2.66,11.11,11.11,0,0,0-18.51-1.36,70.74,70.74,0,0,0-21-17.08Zm-34.46-7h0a69.26,69.26,0,0,1,28.24,6A72.36,72.36,0,0,0,159,15.38a72.32,72.32,0,0,0-28.19-8.51A69.27,69.27,0,0,1,158.12,1.25ZM99,12.83a68,68,0,0,1,26.8-5,70.69,70.69,0,0,0-21.84,17.49A11.11,11.11,0,0,0,85.42,26.7,71.82,71.82,0,0,0,75,29.07,69.18,69.18,0,0,1,99,12.83ZM47.2,47.19A68,68,0,0,1,70.85,31.85,70.87,70.87,0,0,0,60,49.66a71.87,71.87,0,0,0-2.52,7A72.32,72.32,0,0,0,31.8,70.53,69.21,69.21,0,0,1,47.2,47.19Zm-33.65,50A68,68,0,0,1,29,74.76a70.79,70.79,0,0,0-3.33,21.48,71.87,71.87,0,0,0,.39,7.43A72.35,72.35,0,0,0,8.11,125.62,69.16,69.16,0,0,1,13.56,97.21ZM1.25,158.12a68,68,0,0,1,5.87-27.56,70.87,70.87,0,0,0,5,20.23,71.85,71.85,0,0,0,3.16,6.73,72.31,72.31,0,0,0-8.38,28A69.22,69.22,0,0,1,1.25,158.12Zm11.58,59.16a68,68,0,0,1-5-26.76,70.79,70.79,0,0,0,12.84,17.55,71.87,71.87,0,0,0,5.53,5,72.35,72.35,0,0,0,2.86,28.18A69.18,69.18,0,0,1,12.83,217.28ZM47.19,269a68,68,0,0,1-15.33-23.64,70.87,70.87,0,0,0,17.81,10.8,71.85,71.85,0,0,0,7,2.53,72.31,72.31,0,0,0,13.87,25.72A69.22,69.22,0,0,1,47.19,269Zm50,33.65a68,68,0,0,1-22.45-15.4,70.16,70.16,0,0,0,10.82,2.53,11.1,11.1,0,0,0,18.35,1.09,70.72,70.72,0,0,0,21.32,17.24A69.17,69.17,0,0,1,97.21,302.69ZM158.13,315h0a69.27,69.27,0,0,1-27.88-5.85,70.84,70.84,0,0,0,20.54-5q3.34-1.36,6.48-3,3.12,1.7,6.44,3.1a70.77,70.77,0,0,0,21.38,5.3A69.29,69.29,0,0,1,158.13,315Zm59.17-11.59a69.23,69.23,0,0,1-27.13,5.15,70.68,70.68,0,0,0,22.15-17.65,11.1,11.1,0,0,0,18.35-1.09,70.23,70.23,0,0,0,9.94-2.24A68,68,0,0,1,217.29,303.41ZM269.06,269A69.17,69.17,0,0,1,244.8,284.8a72.35,72.35,0,0,0,13.57-24.86,71.84,71.84,0,0,0,7-2.44A70.79,70.79,0,0,0,284,246.32,68,68,0,0,1,269.06,269Zm33.64-50a69.21,69.21,0,0,1-15.8,23.07A72.31,72.31,0,0,0,290,213a71.87,71.87,0,0,0,5.53-5A70.87,70.87,0,0,0,308,191.35,68,68,0,0,1,302.7,219Z"/></g></g></svg>