<svg xmlns="http://www.w3.org/2000/svg" id="Layer_1" data-name="Layer 1" xmlns:xlink="http://www.w3.org/1999/xlink" viewBox="0 0 318.75 317.86">
  <defs>
    <style>
      .cls-1{fill:url(#linear-gradient);}.cls-2{fill:url(#linear-gradient-2);}.cls-3{fill:url(#linear-gradient-3);}.cls-4{fill:url(#radial-gradient);}
    </style>
    <linearGradient id="linear-gradient" x1="3113.25" x2="3294.77" y1="103.85" y2="256.16" gradientUnits="userSpaceOnUse">
      <stop offset="0" stop-color="#ffe390"/>
      <stop offset=".61" stop-color="#fece0d"/>
    </linearGradient>
    <linearGradient id="linear-gradient-2" x1="3097.72" x2="3310.29" y1="90.81" y2="269.19" xlink:href="#linear-gradient"/>
    <linearGradient id="linear-gradient-3" x1="3081.96" x2="3326.04" y1="77.59" y2="282.4" xlink:href="#linear-gradient"/>
    <radialGradient id="radial-gradient" cx="3204" cy="180" r="105.63" gradientUnits="userSpaceOnUse">
      <stop offset=".25" stop-color="#fece0d" stop-opacity="0"/>
      <stop offset="1" stop-color="#fece0d"/>
    </radialGradient>
  </defs>
  <title>
    jsparty-abstract-art
  </title>
  <path d="M3219.24,298.25a3.75,3.75,0,0,1-.48-7.47l1.21-.17A3.75,3.75,0,1,1,3221,298l-1.3.18A3.71,3.71,0,0,1,3219.24,298.25Zm-31.6-.15a3.78,3.78,0,0,1-.53,0l-1.29-.19a3.75,3.75,0,1,1,1.13-7.41l1.22,0.18A3.75,3.75,0,0,1,3187.64,298.1Zm63.24-8.76a3.75,3.75,0,0,1-1.53-7.18l1.11-.5a3.75,3.75,0,0,1,3.13,6.82l-1.19.54A3.74,3.74,0,0,1,3250.88,289.34Zm-94.8-.47a3.72,3.72,0,0,1-1.55-.34l-1.2-.55a3.75,3.75,0,1,1,3.2-6.78l1.11,0.52A3.75,3.75,0,0,1,3156.08,288.88Zm122.62-17a3.75,3.75,0,0,1-2.43-6.61l0.93-.8a3.75,3.75,0,1,1,4.92,5.66l-1,.85A3.74,3.74,0,0,1,3278.7,271.85Zm-150.27-.75a3.74,3.74,0,0,1-2.45-.92l-1-.87a3.75,3.75,0,1,1,5-5.61l0.92,0.81A3.75,3.75,0,0,1,3128.43,271.1Zm172.07-23.85a3.75,3.75,0,0,1-3.12-5.82l0.67-1a3.75,3.75,0,0,1,6.31,4.06l-0.72,1.1A3.75,3.75,0,0,1,3300.49,247.24Zm-193.61-1a3.75,3.75,0,0,1-3.16-1.72l-0.7-1.1a3.75,3.75,0,0,1,6.35-4l0.66,1A3.75,3.75,0,0,1,3106.88,246.28Zm207.61-28.78a3.75,3.75,0,0,1-3.59-4.85l0.35-1.17a3.75,3.75,0,0,1,7.2,2.1q-0.18.63-.38,1.26A3.75,3.75,0,0,1,3314.49,217.5Zm-221.31-1.09a3.75,3.75,0,0,1-3.59-2.69q-0.19-.63-0.36-1.26a3.75,3.75,0,0,1,7.22-2l0.34,1.18A3.75,3.75,0,0,1,3093.18,216.41ZM3319.49,185h0a3.75,3.75,0,0,1-3.71-3.79c0-.41,0-0.82,0-1.23v-0.25a3.75,3.75,0,1,1,7.5,0V180q0,0.66,0,1.31A3.75,3.75,0,0,1,3319.49,185Zm-231-1.14a3.75,3.75,0,0,1-3.75-3.75h3.75l-3.75,0v-1.27a3.75,3.75,0,0,1,3.75-3.71h0a3.75,3.75,0,0,1,3.71,3.79v1.23A3.75,3.75,0,0,1,3088.5,183.88Zm226.63-31.69a3.75,3.75,0,0,1-3.6-2.72l-0.34-1.19a3.75,3.75,0,0,1,7.19-2.12l0.36,1.25A3.75,3.75,0,0,1,3315.13,152.19Zm-222-.85a3.75,3.75,0,0,1-3.6-4.8q0.18-.63.37-1.25a3.75,3.75,0,0,1,7.18,2.17l-0.35,1.18A3.75,3.75,0,0,1,3093.11,151.34Zm208.63-29.16a3.75,3.75,0,0,1-3.18-1.76l-0.65-1a3.75,3.75,0,0,1,6.29-4.08l0.71,1.11A3.75,3.75,0,0,1,3301.74,122.18Zm-195-.75a3.75,3.75,0,0,1-3.15-5.77l0.72-1.11a3.75,3.75,0,1,1,6.26,4.13l-0.67,1A3.75,3.75,0,0,1,3106.74,121.43Zm173.69-24.27a3.73,3.73,0,0,1-2.48-.94L3277,95.4a3.75,3.75,0,1,1,4.91-5.67l1,0.86A3.75,3.75,0,0,1,3280.43,97.15Zm-152.18-.59a3.75,3.75,0,0,1-2.46-6.58l1-.86a3.75,3.75,0,1,1,4.85,5.72l-0.93.8A3.74,3.74,0,0,1,3128.25,96.56ZM3253,79.11a3.74,3.74,0,0,1-1.58-.35l-1.12-.52a3.75,3.75,0,1,1,3.11-6.82l1.19,0.55A3.75,3.75,0,0,1,3253,79.11Zm-97.1-.37a3.75,3.75,0,0,1-1.57-7.16l1.19-.54a3.75,3.75,0,1,1,3.06,6.85l-1.11.5A3.75,3.75,0,0,1,3155.86,78.73Zm65.64-9.17a3.87,3.87,0,0,1-.58,0l-1.2-.18a3.75,3.75,0,1,1,1-7.43l1.31,0.19A3.75,3.75,0,0,1,3221.5,69.57Zm-34.13-.13a3.75,3.75,0,0,1-.52-7.46l1.3-.18a3.75,3.75,0,1,1,1,7.44l-1.21.17A3.78,3.78,0,0,1,3187.37,69.44Z" class="cls-1" transform="translate(-3044.63 -21.08)"/>
  <path d="M3217.1,318.38a2.5,2.5,0,0,1-.24-5l1.22-.12a2.5,2.5,0,0,1,.52,5l-1.25.13h-0.25Zm-27.29-.11h-0.26l-1.27-.14a2.5,2.5,0,0,1,.57-5l1.21,0.13A2.5,2.5,0,0,1,3189.82,318.27Zm55.25-5.55a2.5,2.5,0,0,1-.76-4.88l1.17-.37a2.5,2.5,0,1,1,1.55,4.76l-1.2.38A2.52,2.52,0,0,1,3245.06,312.72Zm-83.16-.33a2.49,2.49,0,0,1-.77-0.12l-1.2-.39a2.5,2.5,0,1,1,1.57-4.75l1.17,0.38A2.5,2.5,0,0,1,3161.9,312.39Zm109.33-11.06a2.5,2.5,0,0,1-1.24-4.67l1.06-.6a2.5,2.5,0,0,1,2.51,4.32l-1.09.63A2.5,2.5,0,0,1,3271.22,301.33Zm-135.4-.55a2.49,2.49,0,0,1-1.25-.33l-1.1-.64a2.5,2.5,0,1,1,2.55-4.3l1,0.61A2.5,2.5,0,0,1,3135.82,300.78Zm158.61-16a2.5,2.5,0,0,1-1.66-4.37l0.91-.81a2.5,2.5,0,0,1,3.35,3.72l-0.94.84A2.49,2.49,0,0,1,3294.44,284.75Zm-181.7-.74a2.5,2.5,0,0,1-1.67-.64l-0.93-.85a2.5,2.5,0,0,1,3.37-3.69l0.91,0.82A2.5,2.5,0,0,1,3112.74,284Zm201-20.29a2.5,2.5,0,0,1-2-4l0.72-1a2.5,2.5,0,1,1,4,2.94l-0.76,1A2.49,2.49,0,0,1,3313.72,263.72Zm-220.09-.89a2.49,2.49,0,0,1-2-1l-0.74-1a2.5,2.5,0,0,1,4.06-2.91l0.71,1A2.5,2.5,0,0,1,3093.63,262.82Zm234.6-23.68a2.5,2.5,0,0,1-2.27-3.54l0.51-1.12a2.5,2.5,0,0,1,4.57,2l-0.52,1.15A2.5,2.5,0,0,1,3328.23,239.15Zm-248.91-1a2.5,2.5,0,0,1-2.28-1.48l-0.51-1.15a2.5,2.5,0,1,1,4.58-2l0.49,1.11A2.5,2.5,0,0,1,3079.32,238.15Zm258-26.06a2.5,2.5,0,0,1-2.44-3l0.26-1.19a2.5,2.5,0,0,1,4.89,1l-0.27,1.24A2.5,2.5,0,0,1,3337.29,212.09ZM3070.48,211a2.5,2.5,0,0,1-2.44-2l-0.26-1.24a2.5,2.5,0,1,1,4.9-1l0.25,1.2A2.5,2.5,0,0,1,3070.48,211Zm270-27.28h0a2.5,2.5,0,0,1-2.48-2.52v-1.53a2.5,2.5,0,1,1,5,0v1.57A2.5,2.5,0,0,1,3340.49,183.74Zm-273-1.09a2.5,2.5,0,0,1-2.5-2.5v-1.26a2.5,2.5,0,0,1,2.5-2.48h0a2.5,2.5,0,0,1,2.48,2.52v1.23A2.5,2.5,0,0,1,3067.5,182.65ZM3337.74,155a2.5,2.5,0,0,1-2.45-2l-0.25-1.2a2.5,2.5,0,0,1,4.89-1l0.26,1.23A2.5,2.5,0,0,1,3337.74,155Zm-267.31-.77a2.5,2.5,0,0,1-2.45-3l0.27-1.24a2.5,2.5,0,1,1,4.88,1.08l-0.26,1.19A2.5,2.5,0,0,1,3070.42,154.28Zm258.7-26.43a2.5,2.5,0,0,1-2.29-1.5l-0.49-1.11a2.5,2.5,0,1,1,4.56-2l0.51,1.15A2.5,2.5,0,0,1,3329.12,127.85Zm-249.92-.72a2.5,2.5,0,0,1-2.28-3.52l0.52-1.16a2.5,2.5,0,0,1,4.55,2.07l-0.5,1.12A2.5,2.5,0,0,1,3079.2,127.13ZM3315,103.06a2.5,2.5,0,0,1-2-1l-0.71-1a2.5,2.5,0,1,1,4-2.95l0.74,1A2.5,2.5,0,0,1,3315,103.06Zm-221.56-.65a2.5,2.5,0,0,1-2-4l0.75-1a2.5,2.5,0,0,1,4,3l-0.72,1A2.49,2.49,0,0,1,3093.45,102.41Zm202.61-20.69a2.49,2.49,0,0,1-1.68-.65l-0.91-.82a2.5,2.5,0,0,1,3.34-3.72l0.94,0.85A2.5,2.5,0,0,1,3296.07,81.72Zm-183.54-.54a2.5,2.5,0,0,1-1.67-4.36l0.93-.83a2.5,2.5,0,0,1,3.33,3.73l-0.92.82A2.5,2.5,0,0,1,3112.53,81.18Zm160.59-16.42a2.49,2.49,0,0,1-1.27-.35l-1.06-.62a2.5,2.5,0,0,1,2.5-4.33l1.09,0.64A2.5,2.5,0,0,1,3273.12,64.77Zm-137.54-.4a2.5,2.5,0,0,1-1.26-4.66l1.1-.63a2.5,2.5,0,1,1,2.46,4.35l-1,.6A2.49,2.49,0,0,1,3135.57,64.37ZM3247.14,53a2.49,2.49,0,0,1-.79-0.13l-1.16-.38a2.5,2.5,0,1,1,1.53-4.76l1.21,0.4A2.5,2.5,0,0,1,3247.14,53Zm-85.53-.25a2.5,2.5,0,0,1-.78-4.88l1.21-.39a2.5,2.5,0,0,1,1.5,4.77l-1.15.37A2.5,2.5,0,0,1,3161.61,52.71Zm57.67-5.87-0.28,0-1.21-.13a2.5,2.5,0,0,1,.51-5l1.26,0.13A2.5,2.5,0,0,1,3219.27,46.84Zm-29.77-.08a2.5,2.5,0,0,1-.26-5l1.26-.13a2.5,2.5,0,0,1,.49,5l-1.22.12h-0.26Z" class="cls-2" transform="translate(-3044.63 -21.08)"/>
  <path d="M3215.86,338.93a1.88,1.88,0,0,1-.14-3.75l1.22-.1a1.88,1.88,0,0,1,.31,3.74l-1.25.1h-0.14Zm-24.76-.08h-0.15l-1.25-.11A1.88,1.88,0,1,1,3190,335l1.22,0.1A1.87,1.87,0,0,1,3191.09,338.85Zm50.45-4a1.88,1.88,0,0,1-.44-3.7l1.19-.29a1.87,1.87,0,1,1,.92,3.64l-1.22.3A1.92,1.92,0,0,1,3241.54,334.87Zm-76.11-.26a1.87,1.87,0,0,1-.46-0.06l-1.21-.31a1.88,1.88,0,0,1,.94-3.63l1.19,0.31A1.87,1.87,0,0,1,3165.43,334.62Zm100.77-8a1.87,1.87,0,0,1-.74-3.6l1.11-.48a1.88,1.88,0,0,1,1.51,3.43l-1.15.5A1.87,1.87,0,0,1,3266.21,326.61Zm-125.39-.42a1.86,1.86,0,0,1-.75-0.16l-1.15-.51a1.88,1.88,0,0,1,1.53-3.42l1.12,0.5A1.87,1.87,0,0,1,3140.81,326.19Zm148.33-11.79a1.87,1.87,0,0,1-1-3.45l1-.67a1.88,1.88,0,1,1,2.05,3.14l-1,.68A1.86,1.86,0,0,1,3289.15,314.4Zm-171.21-.6a1.87,1.87,0,0,1-1-.31l-1-.69a1.88,1.88,0,1,1,2.07-3.13l1,0.68A1.88,1.88,0,0,1,3117.93,313.8Zm191.84-15.23a1.88,1.88,0,0,1-1.26-3.26l0.91-.83a1.88,1.88,0,1,1,2.54,2.76l-0.92.84A1.87,1.87,0,0,1,3309.77,298.57Zm-212.37-.75a1.87,1.87,0,0,1-1.27-.49l-0.92-.85a1.87,1.87,0,0,1,2.56-2.74l0.9,0.83A1.88,1.88,0,0,1,3097.41,297.82Zm230.13-18.25a1.88,1.88,0,0,1-1.47-3l0.76-1a1.88,1.88,0,0,1,3,2.3l-0.78,1A1.87,1.87,0,0,1,3327.54,279.58Zm-247.76-.87a1.87,1.87,0,0,1-1.48-.72l-0.77-1a1.87,1.87,0,1,1,3-2.28l0.75,1A1.87,1.87,0,0,1,3079.78,278.71ZM3342,257.92a1.87,1.87,0,0,1-1.64-2.78l0.59-1.08a1.87,1.87,0,0,1,3.29,1.79l-0.6,1.1A1.88,1.88,0,0,1,3342,257.92Zm-276.44-1a1.87,1.87,0,0,1-1.65-1l-0.59-1.1a1.87,1.87,0,1,1,3.31-1.77l0.58,1.08A1.88,1.88,0,0,1,3065.52,257Zm287.09-22.79a1.88,1.88,0,0,1-1.77-2.5l0.4-1.16a1.88,1.88,0,0,1,3.55,1.21l-0.42,1.19A1.87,1.87,0,0,1,3352.61,234.18Zm-297.56-1a1.88,1.88,0,0,1-1.77-1.27l-0.4-1.19a1.88,1.88,0,0,1,3.55-1.2l0.4,1.16a1.88,1.88,0,0,1-1.16,2.38A1.9,1.9,0,0,1,3055,233.17ZM3359.17,209a1.83,1.83,0,0,1-.32,0,1.87,1.87,0,0,1-1.53-2.17l0.2-1.21a1.88,1.88,0,0,1,3.7.61l-0.21,1.24A1.87,1.87,0,0,1,3359.17,209ZM3048.65,208a1.87,1.87,0,0,1-1.85-1.56l-0.2-1.24a1.88,1.88,0,1,1,3.7-.59l0.2,1.21a1.87,1.87,0,0,1-1.54,2.16Zm312.85-24.84h0a1.88,1.88,0,0,1-1.86-1.89v-1.58a1.88,1.88,0,0,1,3.75,0v1.61A1.88,1.88,0,0,1,3361.5,183.12Zm-315-1.07a1.88,1.88,0,0,1-1.87-1.87v-1.25a1.88,1.88,0,0,1,1.88-1.86h0a1.87,1.87,0,0,1,1.86,1.89v1.23A1.88,1.88,0,0,1,3046.5,182Zm313-25.21a1.88,1.88,0,0,1-1.85-1.58l-0.2-1.21a1.88,1.88,0,0,1,3.7-.62l0.2,1.24a1.87,1.87,0,0,1-1.56,2.15Zm-310.92-.71-0.31,0a1.88,1.88,0,0,1-1.55-2.16l0.21-1.24a1.87,1.87,0,1,1,3.69.64l-0.2,1.21A1.88,1.88,0,0,1,3048.6,156.12Zm304.7-24.54a1.87,1.87,0,0,1-1.78-1.28l-0.39-1.16a1.87,1.87,0,1,1,3.54-1.23l0.41,1.19a1.87,1.87,0,0,1-1.18,2.37A1.85,1.85,0,0,1,3353.3,131.58Zm-298.37-.68a1.87,1.87,0,0,1-1.77-2.48l0.41-1.19a1.88,1.88,0,1,1,3.54,1.25l-0.4,1.16A1.88,1.88,0,0,1,3054.93,130.9ZM3343,107.72a1.87,1.87,0,0,1-1.65-1l-0.58-1.08a1.87,1.87,0,0,1,3.29-1.79l0.59,1.1A1.88,1.88,0,0,1,3343,107.72Zm-277.62-.66a1.88,1.88,0,0,1-1.65-2.76l0.6-1.1a1.88,1.88,0,0,1,3.29,1.8l-0.59,1.08A1.87,1.87,0,0,1,3065.37,107.06Zm263.52-21.17a1.87,1.87,0,0,1-1.49-.73l-0.75-1a1.87,1.87,0,0,1,3-2.31l0.77,1A1.88,1.88,0,0,1,3328.88,85.89Zm-249.29-.61a1.88,1.88,0,0,1-1.48-3l0.78-1a1.88,1.88,0,0,1,2.94,2.33l-0.75,1A1.87,1.87,0,0,1,3079.59,85.28Zm231.79-18.62a1.87,1.87,0,0,1-1.28-.51l-0.9-.83a1.88,1.88,0,1,1,2.54-2.76l0.92,0.85A1.87,1.87,0,0,1,3311.38,66.66Zm-214.19-.53a1.87,1.87,0,0,1-1.27-3.25l0.93-.85a1.88,1.88,0,0,1,2.52,2.78l-0.9.83A1.87,1.87,0,0,1,3097.19,66.13ZM3291,50.54a1.86,1.86,0,0,1-1-.31l-1-.68a1.88,1.88,0,0,1,2.05-3.14l1,0.69A1.88,1.88,0,0,1,3291,50.54Zm-173.28-.42a1.88,1.88,0,0,1-1-3.44l1.05-.68a1.87,1.87,0,0,1,2,3.15l-1,.67A1.87,1.87,0,0,1,3117.68,50.12ZM3268.17,38a1.87,1.87,0,0,1-.76-0.16l-1.12-.5a1.87,1.87,0,0,1,1.5-3.44l1.15,0.51A1.88,1.88,0,0,1,3268.17,38Zm-127.66-.3a1.88,1.88,0,0,1-.76-3.59l1.15-.5a1.88,1.88,0,1,1,1.48,3.44l-1.12.49A1.87,1.87,0,0,1,3140.51,37.7Zm103.1-8.3a1.88,1.88,0,0,1-.47-0.06l-1.19-.3a1.88,1.88,0,0,1,.91-3.64l1.22,0.31A1.88,1.88,0,0,1,3243.61,29.4Zm-78.52-.18a1.88,1.88,0,0,1-.46-3.69l1.22-.3a1.87,1.87,0,0,1,.89,3.64l-1.19.3A1.87,1.87,0,0,1,3165.09,29.22ZM3218,25h-0.17l-1.22-.1a1.87,1.87,0,1,1,.3-3.74l1.25,0.1A1.87,1.87,0,0,1,3218,25Zm-27.25-.06a1.87,1.87,0,0,1-.15-3.74l1.25-.1a1.87,1.87,0,1,1,.28,3.74l-1.22.1h-0.16Z" class="cls-3" transform="translate(-3044.63 -21.08)"/>
  <path d="M3281.23,252l1.29-1.4,0.42-.48,1.24-1.41,0.43-.5,1.18-1.42,0.44-.54,1.13-1.42,0.44-.58q0.55-.71,1.08-1.43l0.45-.61c0.34-.47.69-0.94,1-1.42l0.46-.66c0.33-.47.65-0.94,1-1.41l0.46-.69c0.31-.47.62-0.94,0.93-1.42l0.45-.72c0.3-.47.59-0.94,0.88-1.42l0.45-.77c0.28-.47.55-0.94,0.83-1.41l0.46-.81c0.26-.47.52-0.93,0.77-1.4l0.45-.85c0.25-.46.49-0.93,0.73-1.4l0.44-.89c0.23-.46.46-0.92,0.68-1.39l0.43-.93c0.21-.46.43-0.92,0.64-1.38l0.42-1c0.2-.46.4-0.92,0.6-1.38l0.41-1c0.19-.46.38-0.92,0.56-1.38s0.26-.69.39-1,0.35-.91.51-1.36,0.25-.71.38-1.07,0.32-.9.47-1.35,0.24-.74.36-1.11,0.29-.89.43-1.34,0.23-.77.34-1.15,0.27-.88.39-1.33,0.21-.79.32-1.19,0.24-.88.35-1.32,0.2-.81.3-1.22,0.22-.87.32-1.31,0.18-.83.27-1.25,0.19-.87.28-1.3,0.16-.85.25-1.28,0.17-.86.25-1.29,0.15-.88.22-1.32,0.15-.85.21-1.28,0.13-.92.19-1.38,0.12-.82.17-1.24,0.11-.94.16-1.41,0.1-.82.14-1.23,0.09-1,.13-1.46,0.08-.8.11-1.2,0.07-1.05.1-1.58c0-.36.05-0.73,0.07-1.09,0-.57,0-1.13.06-1.7,0-.33,0-0.66,0-1q0-1.35,0-2.71c0-.12,0-0.24,0-0.35s0-.15,0-0.23c0-.36,0-0.72,0-1.07a105.31,105.31,0,0,0-3.66-26h0q-0.34-1.24-.7-2.46v0q-0.36-1.21-.75-2.41l0-.05q-0.39-1.19-.8-2.36l0-.08q-0.41-1.16-.84-2.3l0-.12q-0.43-1.12-.88-2.24l-0.06-.15q-0.45-1.09-.92-2.17l-0.08-.19q-0.46-1.06-1-2.1l-0.11-.23q-0.48-1-1-2l-0.13-.27q-0.49-1-1-2l-0.16-.31q-0.5-.95-1-1.88l-0.2-.36q-0.51-.9-1-1.8l-0.24-.42q-0.51-.86-1-1.71l-0.29-.47q-0.51-.82-1-1.63l-0.33-.51q-0.51-.78-1-1.55l-0.38-.56-1-1.46-0.44-.61-1-1.38-0.5-.66-1-1.3-0.55-.7-1-1.22-0.62-.74-1-1.13L3283,110l-0.95-1.05-0.76-.83-0.92-1-0.84-.87-0.88-.89-0.92-.91-0.85-.81-1-.94-0.81-.75-1.07-1-0.77-.68-1.15-1-0.73-.61-1.23-1-0.68-.54-1.32-1-0.63-.48-1.41-1-0.58-.42L3264,93.14l-0.54-.37-1.57-1.05-0.49-.32-1.65-1.06-0.44-.27L3257.59,89l-0.39-.23-1.82-1-0.34-.19-1.9-1-0.29-.15-2-1-0.26-.13-2-1-0.21-.1-2.12-1-0.18-.08-2.18-.92-0.14-.06q-1.12-.46-2.25-0.89l-0.1,0q-1.15-.44-2.31-0.85l-0.07,0q-1.18-.42-2.37-0.8h0q-1.21-.39-2.42-0.76h0a105.21,105.21,0,0,0-28.5-4.37l-1.07,0H3204q-1.36,0-2.71,0l-1,0-1.7.07-1.09.07-1.58.1-1.2.11-1.46.13-1.23.14-1.41.16-1.24.17-1.38.19-1.28.21-1.32.22-1.29.25-1.28.25-1.3.28-1.25.27-1.31.32-1.22.3-1.31.35-1.19.32-1.32.39-1.16.35-1.34.43-1.12.36-1.35.47-1.08.38-1.36.51-1,.4-1.37.56-1,.41-1.37.6-1,.42-1.37.64-0.94.44-1.38.68-0.9.45-1.39.72L3154,87l-1.39.77-0.83.46-1.39.81-0.79.47-1.4.86-0.74.46-1.41.92-0.7.46-1.41,1-0.67.46-1.41,1-0.63.46-1.41,1.07-0.59.45-1.41,1.12-0.55.44-1.41,1.18-0.52.44-1.4,1.23-0.48.43-1.39,1.28-0.45.42-1.39,1.34-0.42.41-1.38,1.39-0.39.4-1.36,1.44-0.35.38q-0.68.74-1.35,1.5l-0.33.37q-0.68.77-1.34,1.56l-0.29.34q-0.67.8-1.32,1.61l-0.26.33q-0.66.83-1.3,1.67l-0.24.31q-0.65.85-1.28,1.72l-0.22.3q-0.63.88-1.25,1.77l-0.2.28q-0.62.91-1.23,1.83l-0.17.26q-0.61.93-1.2,1.88l-0.15.24q-0.59,1-1.17,1.93l-0.14.23q-0.58,1-1.13,2l-0.12.21q-0.56,1-1.1,2l-0.1.18q-0.54,1-1.06,2.08l-0.09.17q-0.52,1.06-1,2.13l-0.07.15q-0.5,1.08-1,2.18l-0.06.13q-0.48,1.11-.94,2.22l0,0.12q-0.46,1.13-.89,2.27l0,0.1q-0.44,1.15-.85,2.31l0,0.09q-0.41,1.17-.8,2.35l0,0.08q-0.39,1.19-.74,2.38l0,0.07q-0.36,1.2-.69,2.42v0.05q-0.33,1.22-.63,2.45v0q-0.3,1.24-.58,2.49v0q-0.28,1.26-.52,2.53v0q-0.25,1.27-.46,2.56h0q-0.22,1.29-.4,2.58h0q-0.18,1.3-.34,2.6h0q-0.15,1.31-.27,2.63h0q-0.12,1.32-.21,2.65h0q-0.09,1.33-.14,2.67h0q-0.05,1.34-.08,2.68h0c0,0.36,0,.73,0,1.09,0,0.08,0,.15,0,0.23s0,0.24,0,.35A105.74,105.74,0,0,0,3204,285.63h0.58l1.09,0a106,106,0,0,0,13.25-1h0q1.3-.18,2.59-0.4h0q1.29-.22,2.57-0.46h0q1.27-.25,2.53-0.52h0q1.26-.28,2.5-0.58h0q1.24-.3,2.47-0.64h0q1.22-.33,2.43-0.69l0.06,0q1.2-.36,2.39-0.75l0.07,0q1.18-.39,2.36-0.8l0.08,0q1.17-.41,2.32-0.85l0.09,0q1.14-.44,2.28-0.9l0.11,0q1.12-.46,2.23-0.94l0.12-.05q1.1-.48,2.19-1l0.14-.07,2.14-1,0.16-.08,2.09-1.07,0.17-.09,2-1.11,0.2-.11,2-1.14,0.21-.13,1.94-1.18,0.23-.14,1.89-1.21,0.25-.16,1.84-1.23,0.27-.19,1.78-1.26,0.28-.21,1.73-1.29,0.3-.23,1.68-1.31,0.32-.26,1.62-1.33,0.34-.29,1.56-1.35,0.36-.32,1.51-1.36,0.37-.35,1.45-1.37,0.38-.37,1.4-1.39,0.4-.41,1.34-1.39Zm20.37-35c-0.24.63-.5,1.25-0.75,1.87s-0.5,1.27-.77,1.89-0.54,1.23-.82,1.84-0.55,1.24-.84,1.85-0.59,1.2-.89,1.8-0.59,1.21-.91,1.81-0.63,1.18-1,1.76-0.64,1.19-1,1.77-0.68,1.15-1,1.72-0.68,1.16-1,1.73-0.72,1.12-1.09,1.68-0.72,1.13-1.1,1.68-0.76,1.09-1.15,1.64-0.76,1.09-1.16,1.63-0.8,1.06-1.21,1.59-0.81,1.07-1.22,1.59-0.84,1-1.27,1.54-0.84,1-1.28,1.54-0.88,1-1.33,1.5-0.88,1-1.33,1.49-0.92,1-1.38,1.44-0.92,1-1.39,1.43-1,.93-1.44,1.39-1,.93-1.44,1.38-1,.89-1.49,1.34-1,.89-1.49,1.32-1,.86-1.55,1.28-1,.85-1.53,1.26-1.07.82-1.6,1.23-1,.81-1.58,1.2-1.09.78-1.64,1.17-1.08.77-1.63,1.14-1.12.74-1.69,1.1-1.11.73-1.68,1.08-1.16.7-1.74,1-1.14.69-1.71,1-1.18.65-1.78,1-1.17.64-1.76,1-1.21.61-1.81,0.91-1.19.6-1.8,0.89-1.24.56-1.86,0.84-1.22.55-1.83,0.82-1.26.52-1.9,0.77-1.24.51-1.87,0.74-1.29.47-1.93,0.7l-1.48.52a95.84,95.84,0,0,0,37.09-28.19,95.84,95.84,0,0,0,28.19-37.09c-0.17.5-.35,1-0.53,1.49S3301.85,216.33,3301.61,217ZM3167,277.61c-0.63-.24-1.24-0.49-1.87-0.74s-1.27-.5-1.9-0.77-1.22-.54-1.83-0.82-1.24-.55-1.86-0.84-1.2-.59-1.8-0.89-1.21-.59-1.81-0.91-1.17-.63-1.76-1-1.19-.64-1.78-1-1.14-.67-1.71-1-1.16-.69-1.74-1-1.12-.72-1.68-1.08-1.13-.73-1.69-1.1-1.09-.76-1.63-1.14-1.1-.77-1.64-1.17-1.05-.8-1.58-1.2-1.07-.81-1.6-1.23-1-.84-1.53-1.26-1-.85-1.55-1.28-1-.88-1.49-1.32-1-.88-1.49-1.34-1-.92-1.44-1.38-1-.92-1.44-1.39-0.93-1-1.39-1.43-0.93-1-1.38-1.44-0.89-1-1.33-1.49-0.89-1-1.33-1.5-0.85-1-1.28-1.54-0.85-1-1.27-1.54-0.82-1.06-1.22-1.59-0.81-1.05-1.21-1.59-0.77-1.09-1.16-1.63-0.77-1.09-1.15-1.64-0.73-1.12-1.1-1.68-0.73-1.12-1.09-1.68-0.69-1.15-1-1.73-0.69-1.14-1-1.72-0.65-1.18-1-1.77-0.65-1.17-1-1.76-0.61-1.21-.91-1.81-0.6-1.19-.89-1.8-0.56-1.23-.84-1.85-0.56-1.22-.82-1.84-0.51-1.26-.77-1.89-0.51-1.24-.75-1.87-0.47-1.28-.7-1.93-0.36-1-.53-1.49a95.84,95.84,0,0,0,28.19,37.09,95.84,95.84,0,0,0,37.09,28.19l-1.48-.52C3168.32,278.07,3167.67,277.85,3167,277.61ZM3105.7,145c0.23-.64.45-1.29,0.7-1.93s0.5-1.25.75-1.87,0.5-1.27.77-1.89,0.54-1.23.82-1.84,0.55-1.24.84-1.85,0.59-1.2.89-1.8,0.59-1.21.91-1.81,0.63-1.18,1-1.76,0.64-1.19,1-1.77,0.68-1.15,1-1.72,0.68-1.16,1-1.73,0.72-1.12,1.09-1.68,0.72-1.13,1.1-1.68,0.76-1.09,1.15-1.64,0.76-1.09,1.16-1.63,0.8-1.06,1.21-1.59,0.81-1.07,1.22-1.59,0.84-1,1.27-1.54,0.84-1,1.28-1.54,0.88-1,1.33-1.5,0.88-1,1.33-1.49,0.92-1,1.38-1.44,0.92-1,1.39-1.43,1-.93,1.44-1.39,1-.93,1.44-1.38,1-.89,1.49-1.34,1-.89,1.49-1.32,1-.86,1.55-1.28,1-.85,1.53-1.26,1.07-.82,1.6-1.23,1-.81,1.58-1.2,1.09-.78,1.64-1.17,1.08-.77,1.63-1.14,1.12-.74,1.69-1.1,1.11-.73,1.68-1.08,1.16-.7,1.74-1,1.14-.69,1.71-1,1.18-.65,1.78-1,1.17-.64,1.76-1,1.21-.61,1.81-0.91,1.19-.6,1.8-0.89,1.24-.56,1.86-0.84,1.22-.55,1.83-0.82,1.26-.52,1.9-0.77,1.24-.51,1.87-0.74,1.29-.47,1.93-0.7l1.48-.52a95.84,95.84,0,0,0-37.09,28.19,95.84,95.84,0,0,0-28.19,37.09C3105.34,145.95,3105.52,145.45,3105.7,145ZM3239,81.69c0.65,0.23,1.29.46,1.93,0.7s1.24,0.49,1.87.74,1.27,0.5,1.9.77,1.22,0.54,1.83.82,1.24,0.55,1.86.84,1.2,0.59,1.8.89,1.21,0.59,1.81.91,1.17,0.63,1.76,1,1.19,0.64,1.78,1,1.14,0.67,1.71,1,1.16,0.69,1.74,1,1.12,0.72,1.68,1.08,1.13,0.73,1.69,1.1,1.09,0.76,1.63,1.14,1.1,0.77,1.64,1.17,1.05,0.8,1.58,1.2,1.07,0.81,1.6,1.23,1,0.84,1.53,1.26,1,0.85,1.55,1.28,1,0.88,1.49,1.32,1,0.88,1.49,1.34,1,0.92,1.44,1.38,1,0.92,1.44,1.39,0.93,1,1.39,1.43,0.93,1,1.38,1.44,0.89,1,1.33,1.49,0.89,1,1.33,1.5,0.85,1,1.28,1.54,0.85,1,1.27,1.54,0.82,1.06,1.22,1.59,0.81,1.05,1.21,1.59,0.77,1.09,1.16,1.63,0.77,1.09,1.15,1.64,0.73,1.12,1.1,1.68,0.73,1.12,1.09,1.68,0.69,1.15,1,1.73,0.69,1.14,1,1.72,0.65,1.18,1,1.77,0.65,1.17,1,1.76,0.61,1.21.91,1.81,0.6,1.19.89,1.8,0.56,1.23.84,1.85,0.56,1.22.82,1.84,0.51,1.26.77,1.89,0.51,1.24.75,1.87,0.47,1.28.7,1.93,0.36,1,.53,1.49a95.84,95.84,0,0,0-28.19-37.09,95.84,95.84,0,0,0-37.09-28.19ZM3110.13,180c0-1.38,0-2.76.08-4.12,2.65-.51,5.76-1,9.31-1.48-0.08,1.86-.13,3.73-0.13,5.61s0.05,3.75.13,5.61c-3.55-.47-6.66-1-9.31-1.48C3110.15,182.76,3110.13,181.38,3110.13,180Zm133.7,86.76a87.77,87.77,0,0,0,9.25-11.85,112.24,112.24,0,0,0,14.4-7.33,96.78,96.78,0,0,1-11.2,13.64A109.23,109.23,0,0,1,3243.82,266.76Zm-12.57,3.85a76.8,76.8,0,0,0,7.42-10.68,120.55,120.55,0,0,0,12.36-4.17,83.3,83.3,0,0,1-9.86,12C3237.94,268.83,3234.63,269.79,3231.26,270.61Zm-62.69-2.32a82.23,82.23,0,0,1-10-11.92q5.23,2,10.75,3.55a76.72,76.72,0,0,0,7.44,10.69Q3172.59,269.6,3168.57,268.29Zm-16.87-7.08a96.85,96.85,0,0,1-11.16-13.62,112.67,112.67,0,0,0,16,8,86.48,86.48,0,0,0,9.45,11.83A109.39,109.39,0,0,1,3151.7,261.21ZM3116.59,218a86.47,86.47,0,0,0,11.83,9.45,112.64,112.64,0,0,0,8,16,96.86,96.86,0,0,1-13.62-11.16A109.42,109.42,0,0,1,3116.59,218Zm4-38c0-1.94.06-3.86,0.14-5.77,4.43-.57,9.5-1.1,15.12-1.58-0.11,2.43-.18,4.88-0.18,7.36s0.07,4.92.18,7.36c-5.63-.48-10.69-1-15.12-1.58C3120.68,183.86,3120.62,181.94,3120.62,180Zm2.15-52.28a96.75,96.75,0,0,1,13.64-11.2,112.2,112.2,0,0,0-7.33,14.4,87.74,87.74,0,0,0-11.85,9.25A109.17,109.17,0,0,1,3122.78,127.72ZM3166,92.59a86.48,86.48,0,0,0-9.45,11.83,112.66,112.66,0,0,0-16,8,96.85,96.85,0,0,1,11.16-13.62A109.41,109.41,0,0,1,3166,92.59Zm10.76-3.19a76.72,76.72,0,0,0-7.44,10.69q-5.52,1.54-10.75,3.55a82.23,82.23,0,0,1,10-11.92Q3172.58,90.41,3176.74,89.39Zm64.43,2.89a83.28,83.28,0,0,1,9.86,12,120.55,120.55,0,0,0-12.36-4.17,76.8,76.8,0,0,0-7.42-10.68C3234.63,90.21,3237.94,91.17,3241.17,92.28Zm15.1,6.5a96.77,96.77,0,0,1,11.2,13.64,112.24,112.24,0,0,0-14.4-7.33,87.75,87.75,0,0,0-9.25-11.85A109.22,109.22,0,0,1,3256.28,98.78Zm34.48,41.4a87.74,87.74,0,0,0-11.85-9.25,112.23,112.23,0,0,0-7.33-14.4,96.76,96.76,0,0,1,13.64,11.2A109.17,109.17,0,0,1,3290.76,140.18Zm7.12,39.82c0,1.38,0,2.76-.08,4.12-2.65.51-5.76,1-9.31,1.48,0.08-1.86.13-3.73,0.13-5.61s-0.05-3.75-.13-5.61c3.55,0.47,6.66,1,9.31,1.48C3297.85,177.24,3297.87,178.62,3297.87,180Zm-5.59,35.43a82.23,82.23,0,0,1-11.92,10q2-5.23,3.55-10.75a76.71,76.71,0,0,0,10.69-7.44Q3293.59,211.41,3292.29,215.43Zm3.93-9.56a45.13,45.13,0,0,0,9.75-12,56.18,56.18,0,0,1-11.7,19.45Q3295.36,209.65,3296.22,205.87Zm-153.14,17.5c4.27,1.52,8.77,2.88,13.47,4.08,1.19,4.7,2.56,9.2,4.08,13.47a129.51,129.51,0,0,1-12.95-4.6A129.46,129.46,0,0,1,3143.08,223.37Zm3,12.26a108,108,0,0,1-16.61-8.94c-1.45-3.6-2.74-7.31-3.85-11.14a114.33,114.33,0,0,0,16,7.29A131.88,131.88,0,0,0,3146.07,235.63ZM3137,180c0-2.51.07-5,.19-7.46q6.49-.54,13.9-1-0.17,4.18-.17,8.44t0.17,8.44q-7.41-.44-13.9-1C3137,185,3137,182.51,3137,180Zm11.33-57.73a130.24,130.24,0,0,1,12.82-4.48,149.13,149.13,0,0,0-4.55,14.76q-7.06,1.79-13.47,4.09A128.66,128.66,0,0,1,3148.29,122.27Zm-6.65,14.88a114.37,114.37,0,0,0-16,7.28,118.57,118.57,0,0,1,4.48-12.72,109,109,0,0,1,16.56-8.77A131,131,0,0,0,3141.64,137.15ZM3287.38,180c0,1.94-.06,3.86-0.14,5.77-4.12.53-8.79,1-14,1.48,0.11-2.4.17-4.82,0.17-7.26s-0.07-4.86-.17-7.26c5.16,0.45,9.83,1,14,1.48C3287.32,176.14,3287.38,178.06,3287.38,180Zm-135.25,0c0-2.87.07-5.7,0.18-8.51,6.14-.35,12.72-0.64,19.69-0.87q-0.12,4.64-.13,9.38t0.13,9.38c-7-.22-13.55-0.52-19.69-0.87C3152.19,185.7,3152.13,182.87,3152.13,180Zm120.08,0c0,2.48-.07,4.93-0.18,7.36-4.65.4-9.69,0.76-15.07,1.08,0.11-2.79.18-5.6,0.18-8.44s-0.06-5.65-.18-8.44c5.39,0.32,10.42.68,15.07,1.07C3272.13,175.07,3272.21,177.52,3272.21,180Zm-99.08,0q0-4.76.13-9.42,9.4-.29,19.67-0.4,0,4.91,0,9.82t0,9.82q-10.26-.11-19.67-0.4Q3173.13,184.76,3173.12,180Zm82.75,0c0,2.87-.07,5.7-0.18,8.51-6.14.35-12.72,0.64-19.69,0.87q0.12-4.64.13-9.38t-0.13-9.38c7,0.22,13.55.52,19.69,0.87C3255.81,174.3,3255.88,177.13,3255.88,180ZM3204,189.88q-5,0-9.83,0,0-4.83,0-9.83t0-9.83q4.83,0,9.83,0t9.83,0q0,4.83,0,9.83t0,9.83Q3209,189.87,3204,189.88Zm9.82,1.2q-0.11,10.26-.4,19.67-4.65.12-9.42,0.13t-9.42-.13q-0.29-9.4-.4-19.67,4.91,0,9.82,0T3213.82,191.08Zm-19.64-22.16q0.11-10.26.4-19.67,4.65-.12,9.42-0.13t9.42,0.13q0.29,9.4.4,19.67-4.91,0-9.82,0T3194.18,168.92Zm20.9,1.26q10.26,0.11,19.67.4,0.12,4.65.13,9.42t-0.13,9.42q-9.4.29-19.67,0.4,0-4.91,0-9.82T3215.08,170.18Zm20.88-.8c-0.2-6.48-.58-12.79-1.12-18.88,6.73,0.62,13.17,1.43,19.25,2.42,0.75,5.6,1.28,11.39,1.56,17.32C3249.34,169.88,3242.73,169.6,3236,169.38Zm-1.24,0c-6.45-.2-13-0.33-19.65-0.41-0.07-6.61-.21-13.2-0.41-19.65,6.51,0.2,12.85.57,18.95,1.1C3234.14,156.49,3234.52,162.83,3234.71,169.34ZM3214.62,148c-0.22-6.77-.5-13.38-0.86-19.69,5.93,0.27,11.71.81,17.32,1.56,1,6.07,1.8,12.52,2.42,19.25C3227.41,148.62,3221.1,148.24,3214.62,148Zm-1.24,0q-4.64-.12-9.38-0.13t-9.38.13c0.22-7,.52-13.55.87-19.69,2.81-.11,5.64-0.18,8.51-0.18s5.7,0.07,8.51.18C3212.86,134.45,3213.16,141,3213.38,148Zm-20,0c-6.48.2-12.79,0.58-18.88,1.12,0.62-6.73,1.43-13.17,2.42-19.25,5.6-.75,11.39-1.28,17.32-1.56C3193.88,134.66,3193.6,141.27,3193.38,148Zm0,1.24c-0.2,6.45-.33,13-0.41,19.65-6.61.07-13.2,0.21-19.65,0.41,0.2-6.51.57-12.85,1.1-18.95C3180.49,149.86,3186.83,149.48,3193.34,149.29Zm-0.41,41.78c0.07,6.61.21,13.2,0.41,19.65-6.51-.2-12.85-0.57-18.95-1.1-0.53-6.1-.91-12.44-1.1-18.95C3179.74,190.86,3186.33,191,3192.93,191.07Zm0.44,20.89c0.22,6.77.5,13.38,0.86,19.69-5.93-.27-11.71-0.81-17.32-1.56-1-6.07-1.8-12.52-2.42-19.25C3180.59,211.38,3186.9,211.76,3193.38,212Zm1.24,0q4.64,0.12,9.38.13t9.38-.13c-0.22,7-.52,13.55-0.87,19.69-2.81.11-5.64,0.18-8.51,0.18s-5.7-.07-8.51-0.18C3195.14,225.55,3194.84,219,3194.62,212Zm20,0c6.48-.2,12.79-0.58,18.88-1.12-0.62,6.73-1.43,13.17-2.42,19.25-5.6.75-11.39,1.28-17.32,1.56C3214.12,225.34,3214.4,218.73,3214.62,212Zm0-1.24c0.2-6.45.33-13,.41-19.65,6.61-.07,13.2-0.21,19.65-0.41-0.2,6.51-.57,12.85-1.1,18.95C3227.51,210.14,3221.17,210.52,3214.66,210.71Zm21.3-20.09c6.77-.22,13.38-0.5,19.69-0.86-0.27,5.93-.81,11.71-1.56,17.32-6.07,1-12.52,1.8-19.25,2.42C3235.38,203.41,3235.76,197.1,3236,190.62Zm20.94-.93c5.27-.31,10.32-0.66,15.07-1.06-0.28,5.17-.79,10.23-1.54,15.16-4.69,1.15-9.72,2.18-15,3.07C3256.12,201.31,3256.63,195.57,3256.9,189.69Zm0-19.39c-0.27-5.88-.78-11.61-1.52-17.17,5.32,0.89,10.36,1.92,15,3.07,0.75,4.93,1.26,10,1.54,15.16C3267.22,171,3262.17,170.61,3256.9,170.31Zm-1.69-18.39a179.62,179.62,0,0,0-3.43-18,146.79,146.79,0,0,1,14.85,4.63,145.57,145.57,0,0,1,3.6,16.47C3265.54,153.85,3260.51,152.82,3255.21,151.92Zm-1.28-.21c-6.07-1-12.49-1.81-19.2-2.44-0.62-6.71-1.44-13.13-2.44-19.2a178.4,178.4,0,0,1,18.15,3.48A178.37,178.37,0,0,1,3253.93,151.7Zm-21.85-22.91c-0.9-5.3-1.93-10.33-3.08-15a145.59,145.59,0,0,1,16.47,3.6,146.73,146.73,0,0,1,4.63,14.85A179.52,179.52,0,0,0,3232.08,128.79Zm-1.22-.17c-5.56-.74-11.3-1.25-17.17-1.52-0.31-5.27-.66-10.32-1.06-15.07,5.17,0.28,10.23.79,15.16,1.54C3228.94,118.26,3230,123.29,3230.87,128.62Zm-18.43-1.57c-2.79-.11-5.6-0.18-8.44-0.18s-5.65.06-8.44,0.18c0.32-5.39.68-10.42,1.07-15.07,2.44-.11,4.89-0.18,7.36-0.18s4.93,0.07,7.36.18C3211.76,116.63,3212.12,121.67,3212.44,127.05Zm-18.13.05c-5.88.27-11.61,0.78-17.17,1.52,0.89-5.32,1.92-10.36,3.07-15,4.93-.75,10-1.26,15.16-1.54C3195,116.78,3194.61,121.83,3194.31,127.1Zm-18.39,1.69a179.52,179.52,0,0,0-18,3.43,146.73,146.73,0,0,1,4.63-14.85,145.59,145.59,0,0,1,16.47-3.6C3177.85,118.46,3176.82,123.49,3175.92,128.79Zm-0.21,1.28c-1,6.07-1.81,12.49-2.44,19.2-6.71.62-13.13,1.44-19.2,2.44a178.37,178.37,0,0,1,3.48-18.15A178.4,178.4,0,0,1,3175.7,130.07Zm-2.55,20.43c-0.54,6.09-.92,12.39-1.12,18.88-6.77.22-13.38,0.5-19.69,0.86,0.27-5.93.81-11.71,1.56-17.32C3160,151.93,3166.43,151.12,3173.16,150.5ZM3172,190.62c0.2,6.48.58,12.79,1.12,18.88-6.73-.62-13.17-1.43-19.25-2.42-0.75-5.6-1.28-11.39-1.56-17.32C3158.66,190.12,3165.27,190.4,3172,190.62Zm1.23,20.11c0.62,6.71,1.44,13.13,2.44,19.2a178.4,178.4,0,0,1-18.15-3.48,178.37,178.37,0,0,1-3.48-18.15C3160.14,209.29,3166.56,210.11,3173.27,210.73Zm2.65,20.48c0.82,4.85,1.75,9.47,2.79,13.81a145.18,145.18,0,0,1-16.65-3.7c-1.55-4.28-2.94-8.8-4.16-13.54A179.68,179.68,0,0,0,3175.92,231.21Zm1.22,0.17c5.56,0.74,11.3,1.25,17.17,1.52,0.28,4.85.6,9.5,1,13.9-5.24-.28-10.37-0.82-15.36-1.59C3178.88,240.87,3178,236.25,3177.13,231.38Zm18.43,1.57q4.18,0.17,8.44.17t8.44-.17q-0.44,7.41-1,13.9c-2.47.11-5,.19-7.46,0.19s-5-.07-7.46-0.19Q3196,240.37,3195.56,233Zm18.13-.05c5.88-.27,11.61-0.78,17.17-1.52-0.82,4.87-1.75,9.49-2.78,13.83-5,.77-10.12,1.31-15.36,1.59C3213.09,242.4,3213.41,237.74,3213.69,232.9Zm18.39-1.69a179.68,179.68,0,0,0,18-3.42c-1.22,4.73-2.61,9.26-4.16,13.54a145.18,145.18,0,0,1-16.65,3.7C3230.33,240.67,3231.26,236.06,3232.08,231.21Zm0.21-1.28c1-6.07,1.81-12.49,2.44-19.2,6.71-.62,13.13-1.44,19.2-2.44a178.37,178.37,0,0,1-3.48,18.15A178.4,178.4,0,0,1,3232.3,229.93Zm22.91-21.85c5.3-.9,10.33-1.93,15-3.08a145.57,145.57,0,0,1-3.6,16.47,146.79,146.79,0,0,1-14.85,4.63A179.62,179.62,0,0,0,3255.21,208.08Zm16.34-3.41a138.92,138.92,0,0,0,14.23-4.38,124.7,124.7,0,0,1-2.94,13.65,109.15,109.15,0,0,1-14.76,7A147.16,147.16,0,0,0,3271.55,204.68Zm0.18-1.21c0.72-4.87,1.24-9.85,1.5-14.95,5-.44,9.73-0.94,13.94-1.48q-0.33,6.13-1.21,12.05A135.17,135.17,0,0,1,3271.73,203.47Zm1.5-32c-0.27-5.09-.78-10.08-1.5-14.95a135.17,135.17,0,0,1,14.23,4.38q0.88,5.92,1.21,12.05C3283,172.41,3278.28,171.92,3273.23,171.48Zm-1.68-16.15a147.16,147.16,0,0,0-3.48-16.23,109.15,109.15,0,0,1,14.76,7,124.7,124.7,0,0,1,2.94,13.65A138.92,138.92,0,0,0,3271.55,155.32Zm-3.87-17.67a131.64,131.64,0,0,0-4.9-14.07,108.12,108.12,0,0,1,15.1,8.12,118.47,118.47,0,0,1,4.5,12.73A113.07,113.07,0,0,0,3267.67,137.65Zm-1.46-.55a149.16,149.16,0,0,0-14.76-4.55,149.21,149.21,0,0,0-4.55-14.76,129.49,129.49,0,0,1,14.24,5.07A129.47,129.47,0,0,1,3266.21,137.1Zm-19.86-20.77a113.08,113.08,0,0,0-6.78-14.7,118.49,118.49,0,0,1,12.73,4.5,108.15,108.15,0,0,1,8.12,15.1A131.73,131.73,0,0,0,3246.35,116.33Zm-1.44-.4a147.13,147.13,0,0,0-16.23-3.48,138.92,138.92,0,0,0-4.38-14.23,124.7,124.7,0,0,1,13.65,2.94A109.16,109.16,0,0,1,3244.91,115.93Zm-17.44-3.66c-4.87-.72-9.85-1.24-14.95-1.5-0.44-5-.94-9.73-1.48-13.94q6.13,0.33,12.05,1.21A135.13,135.13,0,0,1,3227.47,112.27Zm-16.22-1.55c-2.4-.11-4.81-0.17-7.26-0.17s-4.86.07-7.26,0.17c0.45-5.16,1-9.83,1.48-14,1.91-.08,3.83-0.14,5.77-0.14s3.86,0.06,5.77.14C3210.3,100.89,3210.8,105.56,3211.26,110.72Zm-15.78.05c-5.09.27-10.08,0.78-14.95,1.5A135.13,135.13,0,0,1,3184.91,98q5.92-.88,12.05-1.21C3196.41,101,3195.92,105.72,3195.48,110.77Zm-16.15,1.68a147.13,147.13,0,0,0-16.23,3.48,109.16,109.16,0,0,1,7-14.76,124.7,124.7,0,0,1,13.65-2.94A138.92,138.92,0,0,0,3179.32,112.45Zm-17.67,3.87a132.42,132.42,0,0,0-12.66,4.33,107,107,0,0,1,8.34-15.22q5.39-2.16,11.12-3.82A112.94,112.94,0,0,0,3161.65,116.33Zm-5.44,17.58a179.56,179.56,0,0,0-3.42,18c-4.85.82-9.47,1.75-13.81,2.79a145.16,145.16,0,0,1,3.7-16.65C3147,136.51,3151.48,135.12,3156.21,133.9Zm-3.59,19.23c-0.74,5.56-1.25,11.3-1.52,17.17-4.85.28-9.5,0.6-13.9,1,0.28-5.24.82-10.37,1.59-15.36C3143.13,154.88,3147.75,154,3152.62,153.13Zm-1.52,36.56c0.27,5.88.78,11.61,1.52,17.17-4.87-.82-9.49-1.75-13.83-2.78-0.77-5-1.31-10.12-1.59-15.36C3141.6,189.09,3146.26,189.41,3151.1,189.69Zm1.69,18.39a179.56,179.56,0,0,0,3.42,18c-4.73-1.22-9.26-2.61-13.54-4.16a145.16,145.16,0,0,1-3.7-16.65C3143.33,206.33,3147.94,207.26,3152.79,208.08Zm8.37,34.28a114.31,114.31,0,0,0,7.29,16c-3.82-1.11-7.53-2.4-11.14-3.85a108.06,108.06,0,0,1-8.94-16.61A131.88,131.88,0,0,0,3161.16,242.37Zm1.42,0.39a146.82,146.82,0,0,0,16.44,3.57,141.72,141.72,0,0,0,4.67,15.44,124.64,124.64,0,0,1-13.66-2.95A110.5,110.5,0,0,1,3162.58,242.76Zm17.64,3.76c4.93,0.74,10,1.27,15.15,1.54,0.47,5.5,1,10.57,1.58,15.11q-6.13-.33-12-1.2A137.7,137.7,0,0,1,3180.23,246.52Zm16.42,1.59c2.43,0.11,4.88.18,7.36,0.18s4.92-.07,7.36-0.18c-0.48,5.63-1,10.69-1.58,15.12-1.91.08-3.83,0.14-5.77,0.14s-3.86-.06-5.77-0.14C3197.66,258.8,3197.12,253.74,3196.64,248.11Zm16-.05c5.16-.27,10.22-0.8,15.15-1.54a137.7,137.7,0,0,1-4.68,15.45q-5.91.88-12,1.2C3211.63,258.63,3212.16,253.55,3212.62,248.06Zm16.35-1.73a146.82,146.82,0,0,0,16.44-3.57,110.5,110.5,0,0,1-7.46,16.06,124.64,124.64,0,0,1-13.66,2.95A141.72,141.72,0,0,0,3229,246.33Zm17.87-4a131.07,131.07,0,0,0,14.2-5,109,109,0,0,1-8.77,16.56,118.6,118.6,0,0,1-12.72,4.48A114.43,114.43,0,0,0,3246.85,242.36Zm0.51-1.44q2.28-6.41,4.09-13.47a149.14,149.14,0,0,0,14.76-4.55,130.28,130.28,0,0,1-4.48,12.82A128.67,128.67,0,0,1,3247.36,240.92Zm20.31-18.57a112.89,112.89,0,0,0,14.71-6.79q-1.66,5.72-3.82,11.12a107,107,0,0,1-15.22,8.34A132.42,132.42,0,0,0,3267.67,222.35Zm16.71-9.32a126.23,126.23,0,0,0,2.74-13.24,77.2,77.2,0,0,0,9.73-4.5c-0.45,3.38-1,6.71-1.76,10A71.81,71.81,0,0,1,3284.38,213Zm2.91-14.45q0.82-5.75,1.13-11.71c3.47-.47,6.59-1,9.31-1.53q-0.2,4.37-.72,8.65A71.42,71.42,0,0,1,3287.3,198.58Zm1.13-25.45q-0.31-5.95-1.13-11.71A71.42,71.42,0,0,1,3297,166q0.52,4.27.72,8.65C3295,174.11,3291.9,173.6,3288.43,173.13Zm-1.31-12.92a126.23,126.23,0,0,0-2.74-13.24,71.81,71.81,0,0,1,10.71,7.76c0.73,3.27,1.31,6.6,1.76,10A77.2,77.2,0,0,0,3287.12,160.2Zm-3.2-14.88a120.48,120.48,0,0,0-4.17-12.36,83.28,83.28,0,0,1,12,9.86c1.11,3.23,2.06,6.54,2.89,9.92A76.78,76.78,0,0,0,3283.92,145.32ZM3277,129.72a111.45,111.45,0,0,0-15-7.79,111.44,111.44,0,0,0-7.79-15,109.7,109.7,0,0,1,14.82,7.93A109.67,109.67,0,0,1,3277,129.72Zm-40-30.1a126.26,126.26,0,0,0-13.24-2.74,77.22,77.22,0,0,0-4.5-9.73c3.38,0.45,6.71,1,10,1.76A71.83,71.83,0,0,1,3237,99.62Zm-14.45-2.91q-5.75-.82-11.71-1.13c-0.47-3.47-1-6.59-1.53-9.31q4.37,0.2,8.65.72A71.43,71.43,0,0,1,3222.58,96.7Zm-13-1.19c-1.86-.08-3.73-0.13-5.61-0.13s-3.75.05-5.61,0.13c0.47-3.55,1-6.66,1.48-9.31,1.37,0,2.74-.08,4.12-0.08s2.76,0,4.12.08C3208.64,88.85,3209.14,92,3209.61,95.51Zm-12.48.06q-5.95.31-11.71,1.13A71.43,71.43,0,0,1,3190,87q4.27-.52,8.65-0.72C3198.11,89,3197.6,92.1,3197.13,95.57Zm-12.92,1.31A126.26,126.26,0,0,0,3171,99.62a71.83,71.83,0,0,1,7.76-10.71c3.27-.73,6.6-1.31,10-1.76A77.22,77.22,0,0,0,3184.2,96.88Zm-28.89,9.4a110.4,110.4,0,0,0-8,15A112.31,112.31,0,0,0,3131,129.7a109.68,109.68,0,0,1,7.93-14.83A110.19,110.19,0,0,1,3155.32,106.28Zm-39,36.54a83.28,83.28,0,0,1,12-9.86,120.53,120.53,0,0,0-4.17,12.36,76.78,76.78,0,0,0-10.68,7.42C3114.21,149.37,3115.17,146.06,3116.28,142.83Zm7.34,4.14a126.22,126.22,0,0,0-2.74,13.24,77.2,77.2,0,0,0-9.73,4.5c0.45-3.38,1-6.71,1.76-10A71.81,71.81,0,0,1,3123.62,147Zm1.56-.92a110.52,110.52,0,0,1,16.06-7.46,146.82,146.82,0,0,0-3.57,16.44,141.69,141.69,0,0,0-15.44,4.67A124.6,124.6,0,0,1,3125.17,146Zm12.31,10.18c-0.74,4.93-1.27,10-1.54,15.15-5.5.47-10.57,1-15.11,1.59q0.33-6.13,1.2-12A137.74,137.74,0,0,1,3137.48,156.23Zm-1.54,32.4c0.27,5.16.8,10.22,1.54,15.15a137.74,137.74,0,0,1-15.45-4.68q-0.88-5.91-1.2-12C3125.37,187.63,3130.45,188.16,3135.94,188.62Zm1.73,16.35a146.82,146.82,0,0,0,3.57,16.44,110.52,110.52,0,0,1-16.06-7.46,124.6,124.6,0,0,1-2.95-13.66A141.69,141.69,0,0,0,3137.67,205ZM3123.62,213a71.81,71.81,0,0,1-10.71-7.76c-0.73-3.27-1.31-6.6-1.76-10a77.2,77.2,0,0,0,9.73,4.5A126.22,126.22,0,0,0,3123.62,213Zm0.46,1.66q1.54,5.52,3.55,10.75a82.22,82.22,0,0,1-11.92-10q-1.31-4-2.32-8.17A76.71,76.71,0,0,0,3124.08,214.69Zm-10.35-1.38a56.18,56.18,0,0,1-11.7-19.45,45.13,45.13,0,0,0,9.75,12Q3112.64,209.65,3113.73,213.31Zm16.53,15.36a111.35,111.35,0,0,0,16.47,8.59,111.35,111.35,0,0,0,8.59,16.47,110.12,110.12,0,0,1-16.43-8.63A110.14,110.14,0,0,1,3130.27,228.67Zm40.7,31.71a126.26,126.26,0,0,0,13.24,2.74,77.22,77.22,0,0,0,4.5,9.73c-3.38-.45-6.71-1-10-1.76A71.83,71.83,0,0,1,3171,260.38Zm14.45,2.91q5.75,0.82,11.71,1.13c0.47,3.47,1,6.59,1.53,9.31q-4.37-.2-8.65-0.72A71.43,71.43,0,0,1,3185.42,263.3Zm13,1.19c1.86,0.08,3.73.13,5.61,0.13s3.75-.05,5.61-0.13c-0.47,3.55-1,6.66-1.48,9.31-1.37,0-2.74.08-4.12,0.08s-2.76,0-4.12-.08C3199.36,271.15,3198.86,268,3198.39,264.49Zm12.48-.06q5.95-.31,11.71-1.13A71.43,71.43,0,0,1,3218,273q-4.27.52-8.65,0.72C3209.89,271,3210.4,267.9,3210.87,264.43Zm12.92-1.31a126.26,126.26,0,0,0,13.24-2.74,71.83,71.83,0,0,1-7.76,10.71c-3.27.73-6.6,1.31-10,1.76A77.22,77.22,0,0,0,3223.8,263.12Zm30.5-10.1a112.33,112.33,0,0,0,8.39-16.37,110.41,110.41,0,0,0,15-8,110.21,110.21,0,0,1-8.59,16.41A109.67,109.67,0,0,1,3254.3,253Zm25.29-25.55a86.47,86.47,0,0,0,11.83-9.45,109.41,109.41,0,0,1-6.21,14.29,96.86,96.86,0,0,1-13.62,11.16A112.64,112.64,0,0,0,3279.58,227.47ZM3293.43,216a59.86,59.86,0,0,0,12.86-19.39,76.1,76.1,0,0,1-18.22,32.72A111.17,111.17,0,0,0,3293.43,216Zm3.24-12.18q1-4.59,1.54-9.33c4.3-2.57,7.51-5.34,9.4-8.26C3306.1,192.52,3302.3,198.45,3296.67,203.83Zm1.71-10.66q0.45-4,.63-8.09c4.29-.93,7.44-2,9.15-3.08C3307.29,186,3303.87,189.75,3298.38,193.17Zm0.68-9.3c0-1.29.07-2.58,0.07-3.87s0-2.59-.07-3.87c5.92,1.23,9.19,2.53,9.31,3.8,0,0.05,0,.11,0,0.16C3308.21,181.35,3304.94,182.65,3299.06,183.87Zm-0.05-9q-0.18-4.09-.62-8.09c5.49,3.43,8.91,7.2,9.77,11.17C3306.44,176.87,3303.29,175.85,3299,174.92Zm-0.79-9.42q-0.59-4.73-1.54-9.33c5.63,5.38,9.42,11.31,10.95,17.59C3305.72,170.85,3302.51,168.08,3298.21,165.5Zm-2-11.35q-1.07-4.7-2.51-9.23a55.16,55.16,0,0,1,13.13,23A43.54,43.54,0,0,0,3296.23,154.15Zm-3.42-12a111,111,0,0,0-4.71-11.48,77.06,77.06,0,0,1,17.21,29.21A61.58,61.58,0,0,0,3292.8,142.18ZM3286.22,127a107.22,107.22,0,0,0-7.93-12.83,92.84,92.84,0,0,1,25.16,37.34A82,82,0,0,0,3286.22,127Zm-3-2.84A100.44,100.44,0,0,0,3270,114a100.45,100.45,0,0,0-10.12-13.24,104.69,104.69,0,0,1,13.87,9.49A104.67,104.67,0,0,1,3283.24,124.12ZM3257,97.78a82,82,0,0,0-24.51-17.22,92.85,92.85,0,0,1,37.34,25.16A107.22,107.22,0,0,0,3257,97.78Zm-3.75-1.88a111.05,111.05,0,0,0-11.48-4.71,61.58,61.58,0,0,0-17.74-12.5A77.05,77.05,0,0,1,3253.3,95.91Zm-14.22-5.62q-4.52-1.44-9.23-2.51a43.54,43.54,0,0,0-13.73-10.62A55.15,55.15,0,0,1,3239.08,90.28Zm-11.25-3q-4.59-1-9.33-1.54c-2.57-4.3-5.34-7.51-8.26-9.4C3216.52,77.9,3222.45,81.7,3227.83,87.33Zm-10.66-1.71q-4-.45-8.09-0.63c-0.93-4.29-2-7.44-3.08-9.15C3210,76.71,3213.75,80.13,3217.17,85.62Zm-9.3-.68c-1.29,0-2.58-.07-3.87-0.07s-2.59,0-3.87.07c1.22-5.89,2.52-9.15,3.78-9.31h0.16C3205.34,75.75,3206.64,79,3207.87,84.94Zm-9,.05q-4.09.18-8.09,0.63c3.43-5.49,7.2-8.91,11.17-9.77C3200.87,77.56,3199.85,80.71,3198.92,85Zm-9.42.79q-4.73.59-9.33,1.54c5.38-5.63,11.31-9.42,17.59-10.95C3194.85,78.28,3192.08,81.49,3189.5,85.79Zm-11.38,2q-3.77.86-7.44,2A56.18,56.18,0,0,1,3190.14,78,45.12,45.12,0,0,0,3178.13,87.78ZM3168,90.57a111.18,111.18,0,0,0-13.33,5.35,76.1,76.1,0,0,1,32.72-18.22A59.85,59.85,0,0,0,3168,90.57Zm-17,7.21a107.21,107.21,0,0,0-12.83,7.93,92.84,92.84,0,0,1,37.34-25.16A82,82,0,0,0,3151,97.78Zm-2.83,3A100.43,100.43,0,0,0,3138,114a100.42,100.42,0,0,0-13.24,10.12,104.67,104.67,0,0,1,9.49-13.87A104.69,104.69,0,0,1,3148.12,100.76ZM3121.78,127a82,82,0,0,0-17.22,24.51,92.84,92.84,0,0,1,25.16-37.34A107.22,107.22,0,0,0,3121.78,127Zm-1.88,3.75a111,111,0,0,0-4.71,11.48,61.58,61.58,0,0,0-12.5,17.74A77.06,77.06,0,0,1,3119.91,130.7Zm-5.62,14.22q-1.44,4.52-2.51,9.23a43.54,43.54,0,0,0-10.62,13.73A55.16,55.16,0,0,1,3114.28,144.92Zm-3,11.25q-1,4.59-1.54,9.33c-4.3,2.57-7.51,5.34-9.4,8.26C3101.9,167.48,3105.7,161.55,3111.33,156.17Zm-1.71,10.66q-0.45,4-.62,8.09c-4.29.93-7.44,2-9.15,3.08C3100.71,174,3104.13,170.25,3109.62,166.83ZM3111,166a71.42,71.42,0,0,1,9.72-4.59q-0.82,5.75-1.13,11.71c-3.47.47-6.59,1-9.31,1.53Q3110.46,170.28,3111,166Zm8.59,20.86q0.31,5.95,1.13,11.71A71.42,71.42,0,0,1,3111,194q-0.52-4.27-.72-8.65C3113,185.89,3116.1,186.4,3119.57,186.87Zm-9.95,6.3c-5.49-3.43-8.91-7.2-9.77-11.17,1.71,1.13,4.86,2.16,9.15,3.08Q3109.17,189.17,3109.62,193.17Zm0.17,1.33q0.59,4.73,1.54,9.33c-5.63-5.38-9.42-11.31-10.95-17.59C3102.28,189.15,3105.49,191.92,3109.79,194.5Zm4.79,21.51a111.17,111.17,0,0,0,5.35,13.33,76.1,76.1,0,0,1-18.22-32.72A59.86,59.86,0,0,0,3114.57,216Zm7.21,17a107.23,107.23,0,0,0,7.93,12.83,92.85,92.85,0,0,1-25.16-37.34A82,82,0,0,0,3121.78,233Zm3,2.84A100.42,100.42,0,0,0,3138,246a100.44,100.44,0,0,0,10.12,13.24,104.69,104.69,0,0,1-13.87-9.49A104.67,104.67,0,0,1,3124.76,235.88ZM3151,262.22a82,82,0,0,0,24.51,17.22,92.84,92.84,0,0,1-37.34-25.16A107.21,107.21,0,0,0,3151,262.22Zm3.71,1.86a111.18,111.18,0,0,0,13.33,5.35,59.85,59.85,0,0,0,19.39,12.86A76.1,76.1,0,0,1,3154.66,264.07Zm16,6.19q3.66,1.1,7.44,2a45.12,45.12,0,0,0,12,9.75A56.18,56.18,0,0,1,3170.69,270.27Zm9.48,2.41q4.59,1,9.33,1.54c2.57,4.3,5.34,7.51,8.26,9.4C3191.48,282.1,3185.55,278.3,3180.17,272.67Zm10.66,1.71q4,0.45,8.09.63c0.93,4.29,2,7.44,3.08,9.15C3198,283.29,3194.25,279.87,3190.83,274.38Zm9.3,0.68c1.29,0,2.58.07,3.87,0.07s2.59,0,3.87-.07c-1.23,5.92-2.53,9.19-3.8,9.31h-0.16C3202.65,284.21,3201.35,280.94,3200.13,275.06Zm9-.05q4.09-.18,8.09-0.63c-3.43,5.49-7.2,8.91-11.17,9.77C3207.13,282.44,3208.15,279.29,3209.08,275Zm9.42-.79q4.73-.59,9.33-1.54c-5.38,5.63-11.31,9.42-17.59,10.95C3213.15,281.72,3215.92,278.51,3218.5,274.21Zm11.35-2q4.7-1.07,9.23-2.51a55.15,55.15,0,0,1-23,13.13A43.54,43.54,0,0,0,3229.85,272.23Zm12-3.42a111.05,111.05,0,0,0,11.48-4.71,77.05,77.05,0,0,1-29.21,17.21A61.58,61.58,0,0,0,3241.82,268.8Zm15.23-6.59a107.22,107.22,0,0,0,12.83-7.93,92.85,92.85,0,0,1-37.34,25.16A82,82,0,0,0,3257,262.22Zm2.83-3A100.42,100.42,0,0,0,3270,246a100.4,100.4,0,0,0,13.24-10.12,104.65,104.65,0,0,1-9.49,13.87A104.68,104.68,0,0,1,3259.88,259.24ZM3286.22,233a82,82,0,0,0,17.22-24.51,92.85,92.85,0,0,1-25.16,37.34A107.23,107.23,0,0,0,3286.22,233Zm-177.27-56.92c0,1.29-.07,2.58-0.07,3.87s0,2.59.07,3.87c-5.89-1.22-9.15-2.52-9.31-3.78,0-.05,0-0.11,0-0.16C3099.75,178.66,3103,177.36,3108.94,176.13Z" class="cls-4" transform="translate(-3044.63 -21.08)"/>
</svg>
