<svg xmlns="http://www.w3.org/2000/svg" viewBox="0 0 315.93 316.25"><defs><style>.cls-1{fill:#9f968c;}</style></defs><title>the-changelog-abstract</title><g id="Layer_2" data-name="Layer 2"><g id="Layer_1-2" data-name="Layer 1"><path class="cls-1" d="M297.35,100.28v-.09L269.78,46.43a.62.62,0,0,0-.27-.27L215.73,18.62h-.09L158.15,0a.61.61,0,0,0-.38,0L100.29,18.58l0,0h-.06L46.42,46.15a.62.62,0,0,0-.27.27L18.62,100.2v.07h0L0,157.77a.62.62,0,0,0,0,.38l18.55,57.48v0l0,.05v0l27.53,53.77a.62.62,0,0,0,.27.27l53.44,27.37a.62.62,0,0,0,.42.53l57.48,18.55a.62.62,0,0,0,.38,0l57.49-18.55a.62.62,0,0,0,.42-.52l53.44-27.37a.62.62,0,0,0,.27-.27l27.54-53.77v0s0,0,0,0v0l18.55-57.48a.62.62,0,0,0,0-.38Zm-42,95.64-.73.85-16.1-36.1-.93-2.08h49.8ZM59,121.82l2.28-2.66,17,38.14,0,0H28.53Zm7.86,128.12,20.62-20.61,14.6-14.6,15,39ZM118,63.16,128.71,89l12.64,30.5-16.67,4.32-10.12-10.12-11.49-11.49L107.33,91Zm131,2.84L228.44,86.62l-14.6,14.6-15-39ZM192.14,191.26l4.32-16.67,10.4,4.31,5.26,2.18.37,14.21.44,16.76L196,195.12Zm4.8-17.83,8.73-14.84h29.4L212.6,179.92l-5.26-2.18Zm.55-30,35.82,13.91H205.68Zm-2.06-1.08a.62.62,0,0,0,.06.11s0,0,0,.05L204.6,158l-9.09,15.45a.61.61,0,0,0,0,.08.6.6,0,0,0,0,.08l-4.5,17.36-17.36,4.5-.11.06h-.05L158,204.6l-15.45-9.09-.08,0-.08,0L125,190.94l-4.5-17.36a.62.62,0,0,0-.06-.11s0,0,0-.05L111.34,158l9.09-15.45a.61.61,0,0,0,0-.08.6.6,0,0,0,0-.08L125,125l17.36-4.5.1-.05.06,0L158,111.34l15.45,9.09.06,0,.1.05,17.36,4.5Zm-70.77,49.79,16.67,4.32L137,206.86l-2.18,5.26-14.21.37-16.76.44L120.81,196Zm17.83,4.8,14.84,8.73v29.4L136,212.6l2.18-5.26Zm30,.55-13.91,35.81V205.68ZM103.23,214.2l31.79-.83,21.88,23.07-38.56,17.19-12-31.43ZM93.74,106.3l8-3.06.83,31.79L79.5,156.9,62.31,118.35Zm30,18.37-4.32,16.67L109.07,137l-5.26-2.18-.37-14.21L103,103.88l16.93,16.93ZM119,142.5l-8.73,14.84H80.86L103.34,136l5.26,2.18Zm-.55,30L82.62,158.59h27.63Zm59.3-63.91L173.43,119l-14.84-8.73V80.86l21.33,22.48Zm-34.31,9.85,13.91-35.82v27.63Zm47.83,5.35-16.67-4.32,4.31-10.4,2.18-5.26,14.21-.37L212,103l-16.93,16.93ZM229.32,87.5l20.62-20.61,3.83,50.17-39-15ZM212.7,101.73l-31.79.83L159,79.5l38.56-17.19,12,31.43Zm-111.49.36-39,15L66,66.88,86.61,87.5Zm18.25,72.49,4.32,16.67-10.12,10.12-11.49,11.49L91,208.57l-27.8-10.66,26.1-10.81Zm-18.26,39.25-14.6,14.6L66,249l-3.83-50.17Zm73.38-17.37,16.67-4.32,10.12,10.12,11.49,11.49L208.57,225l-10.66,27.8-10.81-26.1ZM214.2,212.7l-.83-31.79L236.43,159l17.19,38.56-31.43,12Zm-17.73-71.36-4.32-16.67,10.12-10.12,11.49-11.49,11.13,4.27L252.77,118,227,128.71ZM157.34,28.53V79.17l-15.16,39L122.94,71.78l-4.2-10.13,3.68-3.16ZM102.1,101.21,87.5,86.61,66.88,66l50.17-3.83ZM28.53,158.59H79.17l39,15.16L71.85,193l-10.2,4.23-3.83-4.46Zm90.63,96,37.46-16.7.72-.32v49.8l-37.33-32Zm39.44,32.78V236.76l15.16-39L193,244.08l4.23,10.2-5,4.28Zm40.28-33.64,15-39,14.6,14.6L249,249.94Zm15.85-39.92,39-15-3.83,50.18-20.61-20.62Zm72.69-56.5H236.76l-39-15.16,46.43-19.23,10.13-4.2,3.75,4.36ZM215.61,20.42l33.51,44.33-50.28-3.84L215,21.8ZM196.78,61.3,160.09,77.66l-1.5.67V28.53L194.12,59Zm-176.36,39L64.75,66.81l-3.84,50.28-39.12-16.2Zm7.18,59.1,33.18,38.66.09.1,3.88,50.93-44.9-33.94Zm72.73,136.09L66.81,251.18,117.09,255l-16.2,39.12Zm1.72-.9,16.2-39.12,38.26,32.84-55,7.65Zm96.14-39.55,50.93-3.88-33.94,44.9-55.75-7.75Zm97.32-39.46-44.33,33.51L255,198.84,294.14,215ZM255.25,118l-.18-.22-3.88-50.93,44.9,33.94-7.75,55.75Zm-40.8-98-.57,1.37-16.2,39.12L159.42,27.6l14.73-2ZM156.51,27.6l-38,32.57-.81.7L66.81,64.75l33.94-44.9L152.39,27ZM19.95,101.48l1.37.57,39.12,16.2L27.59,156.51l-.88-6.34Zm276,113-1.37-.57-39.12-16.2,32.84-38.26,4.53,32.6ZM268.76,47.17,295,98.33,271.49,80.6,250.9,65,217.59,21ZM158,1.28l54.7,17.65-43.47,6L158,26.54l-6-.83-48.69-6.77ZM47.17,47.17,98.33,21,80.6,44.44,65,65,21,98.34Zm-28.24,56.1,7.31,52.54.3,2.16-7.61,54.69L1.28,158ZM47.17,268.76,21,217.6l23.46,17.73L65,250.9,98.34,295ZM158,315l-54.69-17.65L158,289.71l54.7,7.6Zm110.8-46.21L217.6,295l17.73-23.46L250.9,250.9,295,217.59ZM297,212.66l-3.17-22.8L289.4,158l4.48-32.25L297,103.26,314.65,158Z"/></g></g></svg>