<svg xmlns="http://www.w3.org/2000/svg" xmlns:xlink="http://www.w3.org/1999/xlink" viewBox="0 0 360 360"><defs><style>.cls-1{fill:#121921;}.cls-2{fill:#fff;}.cls-3{fill:url(#New_Gradient_Swatch_21);}.cls-4{fill:url(#linear-gradient);}.cls-5{fill:url(#New_Gradient_Swatch_20);}</style><linearGradient id="New_Gradient_Swatch_21" x1="303.75" y1="39.38" x2="332.67" y2="39.38" gradientUnits="userSpaceOnUse"><stop offset="0" stop-color="#fece0d" stop-opacity="0"/><stop offset="1" stop-color="#fece0d"/></linearGradient><linearGradient id="linear-gradient" x1="309.21" y1="39.38" x2="328.8" y2="39.38" gradientUnits="userSpaceOnUse"><stop offset="0" stop-color="#fece0d"/><stop offset="1" stop-color="#fece0d" stop-opacity="0"/></linearGradient><linearGradient id="New_Gradient_Swatch_20" x1="68.81" y1="68.81" x2="292.44" y2="292.44" gradientUnits="userSpaceOnUse"><stop offset="0" stop-color="#ffe390"/><stop offset="1" stop-color="#fece0d"/></linearGradient></defs><title>polyglot-cover-art</title><g id="Layer_2" data-name="Layer 2"><g id="Layer_1-2" data-name="Layer 1"><rect class="cls-1" width="360" height="360"/><path class="cls-2" d="M323.31,37.48a3.25,3.25,0,1,0-2.61,5.22,3.34,3.34,0,0,0,2.65-1.44L325,42.79a5.5,5.5,0,1,1-4.26-8.88,5.4,5.4,0,0,1,4.22,2Z"/><path class="cls-3" d="M320.61,56.25h-.33a16.75,16.75,0,0,1-12.07-5.41,16.93,16.93,0,0,1,0-22.92,16.88,16.88,0,0,1,24.32-.47.46.46,0,0,1-.64.64,16,16,0,0,0-23,.45,16,16,0,0,0,0,21.68,16,16,0,0,0,23,.45.46.46,0,0,1,.64.64A16.73,16.73,0,0,1,320.61,56.25Z"/><path class="cls-4" d="M320.6,50.78h-.39a11.4,11.4,0,0,1,0-22.79,11.45,11.45,0,0,1,8.46,3.33A.46.46,0,1,1,328,32a10.54,10.54,0,0,0-7.78-3.07,10.49,10.49,0,0,0,0,21A10.54,10.54,0,0,0,328,46.79a.46.46,0,0,1,.64.64A11.45,11.45,0,0,1,320.6,50.78Z"/><path class="cls-5" d="M320.17,238.28a98.73,98.73,0,0,0,0-115.31,99.07,99.07,0,0,0-81.89-81.89,98.73,98.73,0,0,0-115.3,0A99.07,99.07,0,0,0,41.08,123a98.73,98.73,0,0,0,0,115.31A99.07,99.07,0,0,0,123,320.17a98.73,98.73,0,0,0,115.3,0,99.07,99.07,0,0,0,81.89-81.89Zm17.33-57.65a97.25,97.25,0,0,1-16.94,54.95,100.51,100.51,0,0,0,.89-13.18,98.73,98.73,0,0,0-9.19-41.76,98.73,98.73,0,0,0,9.19-41.76,100.51,100.51,0,0,0-.89-13.18A97.25,97.25,0,0,1,337.5,180.63ZM41,222.39a97.51,97.51,0,0,1,8.65-40.28,99.73,99.73,0,0,0,33.66,38.83A98.59,98.59,0,0,0,87,272.13a98.29,98.29,0,0,1-44.78-34.34A99.1,99.1,0,0,1,41,222.39Zm1.22-98.93A98.29,98.29,0,0,1,87,89.12a98.59,98.59,0,0,0-3.68,51.19A99.73,99.73,0,0,0,49.7,179.14,97.51,97.51,0,0,1,41,138.86,99.1,99.1,0,0,1,42.26,123.46Zm277.94,15.4a97.51,97.51,0,0,1-8.65,40.28,99.73,99.73,0,0,0-33.66-38.83,98.59,98.59,0,0,0-3.68-51.19A98.29,98.29,0,0,1,319,123.46,99.07,99.07,0,0,1,320.2,138.86Zm-110,135a97.59,97.59,0,0,1-28.5-14.57,99.88,99.88,0,0,0,21.91-23.17,99.17,99.17,0,0,0,32,.9,96.76,96.76,0,0,1-9.84,30.33A97.18,97.18,0,0,1,210.16,273.87Zm14.57-4.58c-1.35,2.46-2.79,4.87-4.36,7.22-2.76-.55-5.47-1.24-8.14-2A98.43,98.43,0,0,0,224.72,269.29Zm-89.22-1.93A96.77,96.77,0,0,1,125.66,237a99.17,99.17,0,0,0,32-.9,99.87,99.87,0,0,0,21.91,23.17,97.59,97.59,0,0,1-28.5,14.57A97.19,97.19,0,0,1,135.5,267.36ZM149,274.49c-2.67.78-5.38,1.47-8.14,2-1.56-2.35-3-4.76-4.36-7.22A98.43,98.43,0,0,0,149,274.49ZM87.38,210.16a97.59,97.59,0,0,1,14.57-28.5,99.88,99.88,0,0,0,23.17,21.91,99.16,99.16,0,0,0-.9,32,96.76,96.76,0,0,1-30.33-9.84A97.19,97.19,0,0,1,87.38,210.16ZM92,224.72c-2.46-1.35-4.87-2.79-7.22-4.36.55-2.76,1.24-5.47,2-8.14A98.41,98.41,0,0,0,92,224.72Zm1.93-89.22a96.76,96.76,0,0,1,30.33-9.84,99.16,99.16,0,0,0,.9,32,99.88,99.88,0,0,0-23.17,21.91,97.59,97.59,0,0,1-14.57-28.5A97.19,97.19,0,0,1,93.89,135.5ZM86.76,149c-.78-2.67-1.47-5.38-2-8.14,2.35-1.56,4.76-3,7.22-4.36A98.41,98.41,0,0,0,86.76,149Zm64.33-61.64a97.59,97.59,0,0,1,28.5,14.57,99.87,99.87,0,0,0-21.91,23.17,99.17,99.17,0,0,0-32-.9,96.77,96.77,0,0,1,9.84-30.33A97.19,97.19,0,0,1,151.09,87.38ZM136.53,92c1.35-2.46,2.79-4.87,4.36-7.22,2.76.55,5.47,1.24,8.14,2A98.43,98.43,0,0,0,136.53,92Zm89.22,1.93a96.76,96.76,0,0,1,9.84,30.33,99.17,99.17,0,0,0-32,.9,99.88,99.88,0,0,0-21.91-23.17,97.59,97.59,0,0,1,28.5-14.57A97.18,97.18,0,0,1,225.75,93.89Zm-13.52-7.12c2.67-.78,5.38-1.47,8.14-2,1.56,2.35,3,4.76,4.36,7.22A98.43,98.43,0,0,0,212.23,86.76Zm61.64,64.33a97.59,97.59,0,0,1-14.57,28.5,99.87,99.87,0,0,0-23.17-21.91,99.16,99.16,0,0,0,.9-32,96.76,96.76,0,0,1,30.33,9.84A97.22,97.22,0,0,1,273.87,151.09Zm-4.58-14.57c2.46,1.35,4.87,2.79,7.22,4.36-.56,2.76-1.24,5.47-2,8.14A98.46,98.46,0,0,0,269.29,136.53Zm5.19,16.64a97.4,97.4,0,0,1,0,54.91,98.89,98.89,0,0,0-14.38-27.46A98.89,98.89,0,0,0,274.49,153.17Zm-38.73,82.58a97.84,97.84,0,0,1-31.44-.76,98.78,98.78,0,0,0,10.3-20.38A98.79,98.79,0,0,0,235,204.31a97.85,97.85,0,0,1,.76,31.44ZM124.58,222.39a98.86,98.86,0,0,1,1.68-18.08,98.78,98.78,0,0,0,20.38,10.3A98.78,98.78,0,0,0,156.94,235a97.84,97.84,0,0,1-31.44.76A99.26,99.26,0,0,1,124.58,222.39Zm.92-96.89a97.84,97.84,0,0,1,31.44.76,98.78,98.78,0,0,0-10.3,20.38,98.78,98.78,0,0,0-20.38,10.3,97.84,97.84,0,0,1-.76-31.44Zm111.18,13.36A98.86,98.86,0,0,1,235,156.94a98.79,98.79,0,0,0-20.38-10.3,98.78,98.78,0,0,0-10.3-20.38,97.84,97.84,0,0,1,31.44-.76A99.21,99.21,0,0,1,236.67,138.86ZM208,208a99,99,0,0,1-11.85,10.1,97.36,97.36,0,0,1-31.1,0,98,98,0,0,1-21.95-21.95,97.37,97.37,0,0,1,0-31.1,98,98,0,0,1,21.95-21.95,97.36,97.36,0,0,1,31.1,0,98,98,0,0,1,21.95,21.95,97.37,97.37,0,0,1,0,31.1A99,99,0,0,1,208,208Zm9.61-9.11a97,97,0,0,1-4,14.71,97,97,0,0,1-14.71,4,98.21,98.21,0,0,0,18.72-18.72Zm-23.7,20.79a96.93,96.93,0,0,1-13.31,7.66,97,97,0,0,1-13.31-7.66,96.78,96.78,0,0,0,26.62,0Zm-31.6-2.07a97,97,0,0,1-14.71-4,97,97,0,0,1-4-14.71,98.2,98.2,0,0,0,18.72,18.72Zm-20.79-23.7a97,97,0,0,1-7.66-13.31,97,97,0,0,1,7.66-13.31,96.77,96.77,0,0,0,0,26.62Zm2.07-31.6a97,97,0,0,1,4-14.71,97,97,0,0,1,14.71-4,98.2,98.2,0,0,0-18.72,18.72Zm23.7-20.79a97,97,0,0,1,13.31-7.66,96.93,96.93,0,0,1,13.31,7.66,96.78,96.78,0,0,0-26.62,0Zm31.6,2.07a97,97,0,0,1,14.71,4,97,97,0,0,1,4,14.71,98.21,98.21,0,0,0-18.72-18.72Zm20.79,23.7a97,97,0,0,1,7.66,13.31,97,97,0,0,1-7.66,13.31,96.77,96.77,0,0,0,0-26.62Zm-.4-2.73a98.18,98.18,0,0,0-4.17-16.4,97.6,97.6,0,0,1,19.61,10.09A96.71,96.71,0,0,1,228,179.14,98.31,98.31,0,0,0,219.31,164.58Zm-6.24-18.47a98.17,98.17,0,0,0-16.4-4.17,98.29,98.29,0,0,0-14.56-8.72A96.7,96.7,0,0,1,203,126.49,97.6,97.6,0,0,1,213.07,146.11Zm-32.44-13.59a97.91,97.91,0,0,0-21.6-7.13,98.61,98.61,0,0,1,21.6-22.66,98.61,98.61,0,0,1,21.6,22.66A97.91,97.91,0,0,0,180.62,132.52Zm-1.48.71a98.31,98.31,0,0,0-14.56,8.72,98.17,98.17,0,0,0-16.4,4.17,97.58,97.58,0,0,1,10.09-19.61A96.7,96.7,0,0,1,179.14,133.23Zm-33,15a98.18,98.18,0,0,0-4.17,16.4,98.31,98.31,0,0,0-8.72,14.57,96.71,96.71,0,0,1-6.73-20.87A97.59,97.59,0,0,1,146.11,148.18Zm-13.59,32.44a97.91,97.91,0,0,0-7.13,21.6,98.61,98.61,0,0,1-22.66-21.6A98.61,98.61,0,0,1,125.38,159,97.91,97.91,0,0,0,132.52,180.63Zm.71,1.48a98.31,98.31,0,0,0,8.72,14.57,98.18,98.18,0,0,0,4.17,16.4A97.59,97.59,0,0,1,126.49,203,96.71,96.71,0,0,1,133.23,182.11Zm15,33a98.17,98.17,0,0,0,16.4,4.17A98.3,98.3,0,0,0,179.14,228a96.7,96.7,0,0,1-20.87,6.73A97.58,97.58,0,0,1,148.18,215.14Zm32.44,13.59a97.92,97.92,0,0,0,21.6,7.13,98.61,98.61,0,0,1-21.6,22.66A98.61,98.61,0,0,1,159,235.87,97.92,97.92,0,0,0,180.62,228.73Zm1.48-.71a98.28,98.28,0,0,0,14.56-8.72,98.17,98.17,0,0,0,16.4-4.17A97.6,97.6,0,0,1,203,234.76,96.7,96.7,0,0,1,182.11,228Zm33-15a98.18,98.18,0,0,0,4.17-16.4A98.31,98.31,0,0,0,228,182.11,96.71,96.71,0,0,1,234.76,203,97.6,97.6,0,0,1,215.14,213.07Zm13.59-32.44a97.91,97.91,0,0,0,7.13-21.6,98.62,98.62,0,0,1,22.66,21.6,98.62,98.62,0,0,1-22.66,21.6A97.91,97.91,0,0,0,228.73,180.63Zm8.14-56.25a98,98,0,0,0-9.22-29.48,98.51,98.51,0,0,1,38.7,38.7A98,98,0,0,0,236.87,124.38Zm-56.25-23.23a98.89,98.89,0,0,0-27.46-14.38,97.4,97.4,0,0,1,54.91,0A98.9,98.9,0,0,0,180.62,101.15Zm-56.25,23.23a98,98,0,0,0-29.48,9.22,98.51,98.51,0,0,1,38.7-38.7A98,98,0,0,0,124.38,124.38Zm-23.23,56.25a98.89,98.89,0,0,0-14.38,27.46,97.39,97.39,0,0,1,0-54.91A98.89,98.89,0,0,0,101.15,180.63Zm23.23,56.25a98,98,0,0,0,9.22,29.48,98.51,98.51,0,0,1-38.7-38.7A98,98,0,0,0,124.38,236.87Zm56.25,23.23a98.9,98.9,0,0,0,27.46,14.38,97.4,97.4,0,0,1-54.91,0A98.89,98.89,0,0,0,180.62,260.1Zm56.25-23.23a98,98,0,0,0,29.48-9.22,98.51,98.51,0,0,1-38.7,38.7A98,98,0,0,0,236.87,236.87Zm.16-1.29a99.16,99.16,0,0,0-.9-32,99.87,99.87,0,0,0,23.17-21.91,97.59,97.59,0,0,1,14.57,28.5,97.22,97.22,0,0,1-6.51,15.59A96.76,96.76,0,0,1,237,235.59Zm37.45-23.36c.78,2.67,1.47,5.38,2,8.14-2.35,1.56-4.76,3-7.22,4.36A98.46,98.46,0,0,0,274.49,212.23Zm.7-2.07a99.22,99.22,0,0,0,0-59.06q1.45-4.62,2.44-9.43a98.48,98.48,0,0,1,33.26,39,98.48,98.48,0,0,1-33.26,39Q276.64,214.78,275.19,210.16Zm3.25-88.59a97.9,97.9,0,0,1-1.69,18q-4.12-2.71-8.46-5A99.73,99.73,0,0,0,226.68,93a98.2,98.2,0,0,0-5-8.46,97.37,97.37,0,0,1,51,4.06A97.35,97.35,0,0,1,278.44,121.56Zm-38.75-40a99.11,99.11,0,0,0-18.75,1.8A99.73,99.73,0,0,0,182.11,49.7,97.51,97.51,0,0,1,222.39,41a99.07,99.07,0,0,1,15.4,1.22A98.29,98.29,0,0,1,272.13,87,98.59,98.59,0,0,0,239.69,81.56ZM208,69.7a98.84,98.84,0,0,1,11.56,13.92q-4.8,1-9.43,2.44a99.21,99.21,0,0,0-59.06,0q-4.62-1.45-9.43-2.44a98.48,98.48,0,0,1,39-33.26A97.89,97.89,0,0,1,208,69.7Zm-55.68-.88a100.11,100.11,0,0,0-12,14.55A98.59,98.59,0,0,0,89.12,87a98.28,98.28,0,0,1,34.34-44.78A99.07,99.07,0,0,1,138.86,41a97.51,97.51,0,0,1,40.28,8.65A99.17,99.17,0,0,0,152.34,68.81Zm-30.78,14a97.88,97.88,0,0,1,18,1.69,98.2,98.2,0,0,0-5,8.46A99.73,99.73,0,0,0,93,134.57q-4.34,2.28-8.46,5a97.37,97.37,0,0,1,4.06-51A97.35,97.35,0,0,1,121.56,82.81ZM69.7,153.23a98.86,98.86,0,0,1,13.92-11.56q1,4.8,2.44,9.43a99.21,99.21,0,0,0,0,59.06q-1.45,4.62-2.44,9.43a98.48,98.48,0,0,1-33.26-39A97.89,97.89,0,0,1,69.7,153.23Zm13.11,86.46a97.87,97.87,0,0,1,1.69-18q4.11,2.71,8.46,5a99.73,99.73,0,0,0,41.6,41.6,98.21,98.21,0,0,0,5,8.46,97.37,97.37,0,0,1-51-4.06A97.35,97.35,0,0,1,82.81,239.69Zm38.75,40a99.12,99.12,0,0,0,18.75-1.8,99.72,99.72,0,0,0,38.83,33.67,97.51,97.51,0,0,1-40.28,8.65,99.07,99.07,0,0,1-15.4-1.22A98.28,98.28,0,0,1,89.12,274.2,98.59,98.59,0,0,0,121.56,279.69Zm31.66,11.87a98.87,98.87,0,0,1-11.56-13.92q4.8-1,9.43-2.44a99.21,99.21,0,0,0,59.06,0q4.62,1.45,9.43,2.44a98.48,98.48,0,0,1-39,33.26A97.9,97.9,0,0,1,153.22,291.55Zm55.68.88a100.09,100.09,0,0,0,12-14.55,98.59,98.59,0,0,0,51.19-3.68A98.29,98.29,0,0,1,237.79,319a99.07,99.07,0,0,1-15.4,1.22,97.51,97.51,0,0,1-40.28-8.65A99.17,99.17,0,0,0,208.91,292.44Zm30.78-14a97.88,97.88,0,0,1-18-1.69,98.21,98.21,0,0,0,5-8.46,99.73,99.73,0,0,0,41.6-41.6q4.34-2.28,8.46-5a97.38,97.38,0,0,1-4.06,51A97.35,97.35,0,0,1,239.69,278.44Zm40-38.75a99.12,99.12,0,0,0-1.8-18.75,99.73,99.73,0,0,0,33.66-38.83,97.51,97.51,0,0,1,8.65,40.28,99.07,99.07,0,0,1-1.22,15.4,98.29,98.29,0,0,1-44.78,34.34A98.59,98.59,0,0,0,279.69,239.69Zm11.86-170a97.1,97.1,0,0,1,27,51,99.52,99.52,0,0,0-44.83-33.14,99.52,99.52,0,0,0-33.14-44.83A97.1,97.1,0,0,1,291.55,69.7ZM180.62,23.75a97.25,97.25,0,0,1,54.95,16.94,100.52,100.52,0,0,0-13.18-.89A98.73,98.73,0,0,0,180.62,49a98.73,98.73,0,0,0-41.76-9.19,100.51,100.51,0,0,0-13.18.89A97.25,97.25,0,0,1,180.62,23.75ZM69.7,69.7a97.1,97.1,0,0,1,51-27A99.52,99.52,0,0,0,87.57,87.57a99.51,99.51,0,0,0-44.83,33.14A97.1,97.1,0,0,1,69.7,69.7ZM23.75,180.63a97.25,97.25,0,0,1,16.94-54.95,100.51,100.51,0,0,0-.89,13.18A98.73,98.73,0,0,0,49,180.63a98.73,98.73,0,0,0-9.19,41.76,100.51,100.51,0,0,0,.89,13.18A97.25,97.25,0,0,1,23.75,180.63ZM69.7,291.55a97.1,97.1,0,0,1-27-51,99.51,99.51,0,0,0,44.83,33.14,99.52,99.52,0,0,0,33.14,44.83A97.1,97.1,0,0,1,69.7,291.55ZM180.62,337.5a97.25,97.25,0,0,1-54.95-16.94,100.51,100.51,0,0,0,13.18.89,98.73,98.73,0,0,0,41.76-9.19,98.73,98.73,0,0,0,41.76,9.19,100.52,100.52,0,0,0,13.18-.89A97.25,97.25,0,0,1,180.62,337.5Zm59.91-19a99.52,99.52,0,0,0,33.14-44.83,99.52,99.52,0,0,0,44.83-33.14,97.85,97.85,0,0,1-78,78Z"/><rect class="cls-1" y="135" width="360" height="90"/><path class="cls-2" d="M84.36,184.47v12H78.85V163.67H88.4c6.17,0,10,3.61,10,10.35s-3.8,10.45-10,10.45Zm3.28-4.75c3.8,0,5.27-1.95,5.27-5.7,0-3.56-1.47-5.6-5.27-5.6H84.36v11.31Z"/><path class="cls-2" d="M106.11,182.15V178c0-10.31,4.23-14.73,10.31-14.73s10.31,4.42,10.31,14.73v4.18c0,10.31-4.23,14.73-10.31,14.73S106.11,192.45,106.11,182.15Zm5.51-4.18v4.18c0,7.08,1.57,10,4.8,10s4.8-2.9,4.8-10V178c0-7.08-1.57-10-4.8-10S111.62,170.89,111.62,178Z"/><path class="cls-2" d="M142,191.69h11.16v4.75H136.51V163.67H142Z"/><path class="cls-2" d="M155.47,163.67h6.08l4.94,12.92,4.94-12.92h6.08l-8.27,19.09v13.68h-5.51V182.76Z"/><path class="cls-2" d="M204,179.63v2.52c0,10.59-3.8,14.73-9.83,14.73s-10.31-4.42-10.31-14.73V178.2c0-10.54,4.23-15,10.31-15,5.56,0,9,3.71,9.79,10.59h-5.23c-.47-3.8-1.85-5.79-4.56-5.79-3.23,0-4.8,2.85-4.8,9.93v4.18c0,7.08,1.57,9.93,4.8,9.93,3,0,4.37-2.37,4.56-7.65h-4.46v-4.8Z"/><path class="cls-2" d="M219.26,191.69h11.16v4.75H213.75V163.67h5.51Z"/><path class="cls-2" d="M236.36,182.15V178c0-10.31,4.23-14.73,10.31-14.73S257,167.66,257,178v4.18c0,10.31-4.23,14.73-10.31,14.73S236.36,192.45,236.36,182.15Zm5.51-4.18v4.18c0,7.08,1.57,10,4.8,10s4.8-2.9,4.8-10V178c0-7.08-1.57-10-4.8-10S241.87,170.89,241.87,178Z"/><path class="cls-2" d="M284,163.67v4.8h-7.36v28h-5.51v-28h-7.36v-4.8Z"/></g></g></svg>