<svg xmlns="http://www.w3.org/2000/svg" xmlns:xlink="http://www.w3.org/1999/xlink" viewBox="0 0 316.25 316.25"><defs><style>.cls-1{fill:url(#New_Gradient_Swatch_20);}</style><linearGradient id="New_Gradient_Swatch_20" x1="46.31" y1="46.31" x2="269.94" y2="269.94" gradientUnits="userSpaceOnUse"><stop offset="0" stop-color="#ffe390"/><stop offset="1" stop-color="#fece0d"/></linearGradient></defs><title>polyglot-abstract</title><g id="Layer_2" data-name="Layer 2"><g id="Layer_1-2" data-name="Layer 1"><path class="cls-1" d="M297.67,215.78a98.73,98.73,0,0,0,0-115.31,99.07,99.07,0,0,0-81.89-81.89,98.73,98.73,0,0,0-115.3,0,99.07,99.07,0,0,0-81.89,81.89,98.73,98.73,0,0,0,0,115.31,99.07,99.07,0,0,0,81.89,81.89,98.73,98.73,0,0,0,115.3,0,99.07,99.07,0,0,0,81.89-81.89ZM315,158.13a97.25,97.25,0,0,1-16.94,54.95,100.51,100.51,0,0,0,.89-13.18,98.73,98.73,0,0,0-9.19-41.76A98.73,98.73,0,0,0,299,116.36a100.51,100.51,0,0,0-.89-13.18A97.25,97.25,0,0,1,315,158.13ZM18.55,199.89a97.51,97.51,0,0,1,8.65-40.28,99.73,99.73,0,0,0,33.66,38.83,98.59,98.59,0,0,0,3.68,51.19,98.29,98.29,0,0,1-44.78-34.34A99.1,99.1,0,0,1,18.55,199.89ZM19.76,101A98.29,98.29,0,0,1,64.55,66.62a98.59,98.59,0,0,0-3.68,51.19A99.73,99.73,0,0,0,27.2,156.64a97.51,97.51,0,0,1-8.65-40.28A99.1,99.1,0,0,1,19.76,101Zm277.94,15.4A97.51,97.51,0,0,1,289,156.64a99.73,99.73,0,0,0-33.66-38.83,98.59,98.59,0,0,0-3.68-51.19A98.29,98.29,0,0,1,296.49,101,99.07,99.07,0,0,1,297.7,116.36Zm-110,135a97.59,97.59,0,0,1-28.5-14.57,99.88,99.88,0,0,0,21.91-23.17,99.17,99.17,0,0,0,32,.9,96.76,96.76,0,0,1-9.84,30.33A97.18,97.18,0,0,1,187.66,251.37Zm14.57-4.58c-1.35,2.46-2.79,4.87-4.36,7.22-2.76-.55-5.47-1.24-8.14-2A98.43,98.43,0,0,0,202.22,246.79ZM113,244.86a96.77,96.77,0,0,1-9.84-30.33,99.17,99.17,0,0,0,32-.9,99.87,99.87,0,0,0,21.91,23.17,97.59,97.59,0,0,1-28.5,14.57A97.19,97.19,0,0,1,113,244.86ZM126.52,252c-2.67.78-5.38,1.47-8.14,2-1.56-2.35-3-4.76-4.36-7.22A98.43,98.43,0,0,0,126.52,252ZM64.88,187.66a97.59,97.59,0,0,1,14.57-28.5,99.88,99.88,0,0,0,23.17,21.91,99.16,99.16,0,0,0-.9,32,96.76,96.76,0,0,1-30.33-9.84A97.19,97.19,0,0,1,64.88,187.66Zm4.58,14.57c-2.46-1.35-4.87-2.79-7.22-4.36.55-2.76,1.24-5.47,2-8.14A98.41,98.41,0,0,0,69.46,202.22ZM71.39,113a96.76,96.76,0,0,1,30.33-9.84,99.16,99.16,0,0,0,.9,32,99.88,99.88,0,0,0-23.17,21.91,97.59,97.59,0,0,1-14.57-28.5A97.19,97.19,0,0,1,71.39,113Zm-7.12,13.52c-.78-2.67-1.47-5.38-2-8.14,2.35-1.56,4.76-3,7.22-4.36A98.41,98.41,0,0,0,64.26,126.52Zm64.33-61.64a97.59,97.59,0,0,1,28.5,14.57,99.87,99.87,0,0,0-21.91,23.17,99.17,99.17,0,0,0-32-.9A96.77,96.77,0,0,1,113,71.39,97.19,97.19,0,0,1,128.59,64.88ZM114,69.46c1.35-2.46,2.79-4.87,4.36-7.22,2.76.55,5.47,1.24,8.14,2A98.43,98.43,0,0,0,114,69.46Zm89.22,1.93a96.76,96.76,0,0,1,9.84,30.33,99.17,99.17,0,0,0-32,.9,99.88,99.88,0,0,0-21.91-23.17,97.59,97.59,0,0,1,28.5-14.57A97.18,97.18,0,0,1,203.25,71.39Zm-13.52-7.12c2.67-.78,5.38-1.47,8.14-2,1.56,2.35,3,4.76,4.36,7.22A98.43,98.43,0,0,0,189.73,64.26Zm61.64,64.33a97.59,97.59,0,0,1-14.57,28.5,99.87,99.87,0,0,0-23.17-21.91,99.16,99.16,0,0,0,.9-32A96.76,96.76,0,0,1,244.86,113,97.22,97.22,0,0,1,251.37,128.59ZM246.79,114c2.46,1.35,4.87,2.79,7.22,4.36-.56,2.76-1.24,5.47-2,8.14A98.46,98.46,0,0,0,246.79,114ZM252,130.67a97.4,97.4,0,0,1,0,54.91,98.89,98.89,0,0,0-14.38-27.46A98.89,98.89,0,0,0,252,130.67Zm-38.73,82.58a97.84,97.84,0,0,1-31.44-.76,98.78,98.78,0,0,0,10.3-20.38,98.79,98.79,0,0,0,20.38-10.3,97.85,97.85,0,0,1,.76,31.44ZM102.08,199.89a98.86,98.86,0,0,1,1.68-18.08,98.78,98.78,0,0,0,20.38,10.3,98.78,98.78,0,0,0,10.3,20.38,97.84,97.84,0,0,1-31.44.76A99.26,99.26,0,0,1,102.08,199.89ZM103,103a97.84,97.84,0,0,1,31.44.76,98.78,98.78,0,0,0-10.3,20.38,98.78,98.78,0,0,0-20.38,10.3A97.84,97.84,0,0,1,103,103Zm111.18,13.36a98.86,98.86,0,0,1-1.68,18.08,98.79,98.79,0,0,0-20.38-10.3,98.78,98.78,0,0,0-10.3-20.38,97.84,97.84,0,0,1,31.44-.76A99.21,99.21,0,0,1,214.17,116.36Zm-28.65,69.16a99,99,0,0,1-11.85,10.1,97.36,97.36,0,0,1-31.1,0,98,98,0,0,1-21.95-21.95,97.37,97.37,0,0,1,0-31.1,98,98,0,0,1,21.95-21.95,97.36,97.36,0,0,1,31.1,0,98,98,0,0,1,21.95,21.95,97.37,97.37,0,0,1,0,31.1A99,99,0,0,1,185.53,185.52Zm9.61-9.11a97,97,0,0,1-4,14.71,97,97,0,0,1-14.71,4,98.21,98.21,0,0,0,18.72-18.72Zm-23.7,20.79a96.93,96.93,0,0,1-13.31,7.66,97,97,0,0,1-13.31-7.66,96.78,96.78,0,0,0,26.62,0Zm-31.6-2.07a97,97,0,0,1-14.71-4,97,97,0,0,1-4-14.71,98.2,98.2,0,0,0,18.72,18.72ZM119,171.44a97,97,0,0,1-7.66-13.31A97,97,0,0,1,119,144.81a96.77,96.77,0,0,0,0,26.62Zm2.07-31.6a97,97,0,0,1,4-14.71,97,97,0,0,1,14.71-4,98.2,98.2,0,0,0-18.72,18.72ZM144.82,119a97,97,0,0,1,13.31-7.66A96.93,96.93,0,0,1,171.43,119a96.78,96.78,0,0,0-26.62,0Zm31.6,2.07a97,97,0,0,1,14.71,4,97,97,0,0,1,4,14.71,98.21,98.21,0,0,0-18.72-18.72Zm20.79,23.7a97,97,0,0,1,7.66,13.31,97,97,0,0,1-7.66,13.31,96.77,96.77,0,0,0,0-26.62Zm-.4-2.73a98.18,98.18,0,0,0-4.17-16.4,97.6,97.6,0,0,1,19.61,10.09,96.71,96.71,0,0,1-6.73,20.87A98.31,98.31,0,0,0,196.81,142.08Zm-6.24-18.47a98.17,98.17,0,0,0-16.4-4.17,98.29,98.29,0,0,0-14.56-8.72A96.7,96.7,0,0,1,180.48,104,97.6,97.6,0,0,1,190.57,123.61ZM158.13,110a97.91,97.91,0,0,0-21.6-7.13,98.61,98.61,0,0,1,21.6-22.66,98.61,98.61,0,0,1,21.6,22.66A97.91,97.91,0,0,0,158.13,110Zm-1.48.71a98.31,98.31,0,0,0-14.56,8.72,98.17,98.17,0,0,0-16.4,4.17A97.58,97.58,0,0,1,135.77,104,96.7,96.7,0,0,1,156.64,110.73Zm-33,15a98.18,98.18,0,0,0-4.17,16.4,98.31,98.31,0,0,0-8.72,14.57A96.71,96.71,0,0,1,104,135.77,97.59,97.59,0,0,1,123.61,125.68ZM110,158.13a97.91,97.91,0,0,0-7.13,21.6,98.61,98.61,0,0,1-22.66-21.6,98.61,98.61,0,0,1,22.66-21.6A97.91,97.91,0,0,0,110,158.13Zm.71,1.48a98.31,98.31,0,0,0,8.72,14.57,98.18,98.18,0,0,0,4.17,16.4A97.59,97.59,0,0,1,104,180.48,96.71,96.71,0,0,1,110.73,159.61Zm15,33a98.17,98.17,0,0,0,16.4,4.17,98.3,98.3,0,0,0,14.56,8.72,96.7,96.7,0,0,1-20.87,6.73A97.58,97.58,0,0,1,125.68,192.64Zm32.44,13.59a97.92,97.92,0,0,0,21.6,7.13A98.61,98.61,0,0,1,158.13,236a98.61,98.61,0,0,1-21.6-22.66A97.92,97.92,0,0,0,158.13,206.23Zm1.48-.71a98.28,98.28,0,0,0,14.56-8.72,98.17,98.17,0,0,0,16.4-4.17,97.6,97.6,0,0,1-10.09,19.61A96.7,96.7,0,0,1,159.61,205.52Zm33-15a98.18,98.18,0,0,0,4.17-16.4,98.31,98.31,0,0,0,8.72-14.57,96.71,96.71,0,0,1,6.73,20.87A97.6,97.6,0,0,1,192.64,190.57Zm13.59-32.44a97.91,97.91,0,0,0,7.13-21.6A98.62,98.62,0,0,1,236,158.13a98.62,98.62,0,0,1-22.66,21.6A97.91,97.91,0,0,0,206.23,158.13Zm8.14-56.25a98,98,0,0,0-9.22-29.48,98.51,98.51,0,0,1,38.7,38.7A98,98,0,0,0,214.37,101.88ZM158.13,78.65a98.89,98.89,0,0,0-27.46-14.38,97.4,97.4,0,0,1,54.91,0A98.9,98.9,0,0,0,158.13,78.65Zm-56.25,23.23a98,98,0,0,0-29.48,9.22,98.51,98.51,0,0,1,38.7-38.7A98,98,0,0,0,101.88,101.88ZM78.65,158.13a98.89,98.89,0,0,0-14.38,27.46,97.39,97.39,0,0,1,0-54.91A98.89,98.89,0,0,0,78.65,158.13Zm23.23,56.25a98,98,0,0,0,9.22,29.48,98.51,98.51,0,0,1-38.7-38.7A98,98,0,0,0,101.88,214.37Zm56.25,23.23A98.9,98.9,0,0,0,185.58,252a97.4,97.4,0,0,1-54.91,0A98.89,98.89,0,0,0,158.13,237.6Zm56.25-23.23a98,98,0,0,0,29.48-9.22,98.51,98.51,0,0,1-38.7,38.7A98,98,0,0,0,214.37,214.37Zm.16-1.29a99.16,99.16,0,0,0-.9-32,99.87,99.87,0,0,0,23.17-21.91,97.59,97.59,0,0,1,14.57,28.5,97.22,97.22,0,0,1-6.51,15.59A96.76,96.76,0,0,1,214.53,213.09ZM252,189.73c.78,2.67,1.47,5.38,2,8.14-2.35,1.56-4.76,3-7.22,4.36A98.46,98.46,0,0,0,252,189.73Zm.7-2.07a99.22,99.22,0,0,0,0-59.06q1.45-4.62,2.44-9.43a98.48,98.48,0,0,1,33.26,39,98.48,98.48,0,0,1-33.26,39Q254.14,192.28,252.69,187.66Zm3.25-88.59a97.9,97.9,0,0,1-1.69,18q-4.12-2.71-8.46-5a99.73,99.73,0,0,0-41.6-41.6,98.2,98.2,0,0,0-5-8.46,97.37,97.37,0,0,1,51,4.06A97.35,97.35,0,0,1,255.94,99.06Zm-38.75-40a99.11,99.11,0,0,0-18.75,1.8A99.73,99.73,0,0,0,159.61,27.2a97.51,97.51,0,0,1,40.28-8.65,99.07,99.07,0,0,1,15.4,1.22,98.29,98.29,0,0,1,34.34,44.78A98.59,98.59,0,0,0,217.19,59.06ZM185.53,47.2a98.84,98.84,0,0,1,11.56,13.92q-4.8,1-9.43,2.44a99.21,99.21,0,0,0-59.06,0q-4.62-1.45-9.43-2.44a98.48,98.48,0,0,1,39-33.26A97.89,97.89,0,0,1,185.53,47.2Zm-55.68-.88a100.11,100.11,0,0,0-12,14.55,98.59,98.59,0,0,0-51.19,3.68A98.28,98.28,0,0,1,101,19.76a99.07,99.07,0,0,1,15.4-1.22,97.51,97.51,0,0,1,40.28,8.65A99.17,99.17,0,0,0,129.84,46.31Zm-30.78,14a97.88,97.88,0,0,1,18,1.69,98.2,98.2,0,0,0-5,8.46,99.73,99.73,0,0,0-41.6,41.6q-4.34,2.28-8.46,5a97.37,97.37,0,0,1,4.06-51A97.35,97.35,0,0,1,99.06,60.31ZM47.2,130.73a98.86,98.86,0,0,1,13.92-11.56q1,4.8,2.44,9.43a99.21,99.21,0,0,0,0,59.06q-1.45,4.62-2.44,9.43a98.48,98.48,0,0,1-33.26-39A97.89,97.89,0,0,1,47.2,130.73Zm13.11,86.46a97.87,97.87,0,0,1,1.69-18q4.11,2.71,8.46,5a99.73,99.73,0,0,0,41.6,41.6,98.21,98.21,0,0,0,5,8.46,97.37,97.37,0,0,1-51-4.06A97.35,97.35,0,0,1,60.31,217.19Zm38.75,40a99.12,99.12,0,0,0,18.75-1.8A99.72,99.72,0,0,0,156.64,289a97.51,97.51,0,0,1-40.28,8.65,99.07,99.07,0,0,1-15.4-1.22A98.28,98.28,0,0,1,66.62,251.7,98.59,98.59,0,0,0,99.06,257.19Zm31.66,11.87a98.87,98.87,0,0,1-11.56-13.92q4.8-1,9.43-2.44a99.21,99.21,0,0,0,59.06,0q4.62,1.45,9.43,2.44a98.48,98.48,0,0,1-39,33.26A97.9,97.9,0,0,1,130.72,269.05Zm55.68.88a100.09,100.09,0,0,0,12-14.55,98.59,98.59,0,0,0,51.19-3.68,98.29,98.29,0,0,1-34.34,44.78,99.07,99.07,0,0,1-15.4,1.22A97.51,97.51,0,0,1,159.61,289,99.17,99.17,0,0,0,186.41,269.94Zm30.78-14a97.88,97.88,0,0,1-18-1.69,98.21,98.21,0,0,0,5-8.46,99.73,99.73,0,0,0,41.6-41.6q4.34-2.28,8.46-5a97.38,97.38,0,0,1-4.06,51A97.35,97.35,0,0,1,217.19,255.94Zm40-38.75a99.12,99.12,0,0,0-1.8-18.75A99.73,99.73,0,0,0,289,159.61a97.51,97.51,0,0,1,8.65,40.28,99.07,99.07,0,0,1-1.22,15.4,98.29,98.29,0,0,1-44.78,34.34A98.59,98.59,0,0,0,257.19,217.19Zm11.86-170a97.1,97.1,0,0,1,27,51,99.52,99.52,0,0,0-44.83-33.14A99.52,99.52,0,0,0,218,20.24,97.1,97.1,0,0,1,269.05,47.2ZM158.13,1.25a97.25,97.25,0,0,1,54.95,16.94,100.52,100.52,0,0,0-13.18-.89,98.73,98.73,0,0,0-41.76,9.19,98.73,98.73,0,0,0-41.76-9.19,100.51,100.51,0,0,0-13.18.89A97.25,97.25,0,0,1,158.13,1.25ZM47.2,47.2a97.1,97.1,0,0,1,51-27A99.52,99.52,0,0,0,65.07,65.07,99.51,99.51,0,0,0,20.24,98.21,97.1,97.1,0,0,1,47.2,47.2ZM1.25,158.13a97.25,97.25,0,0,1,16.94-54.95,100.51,100.51,0,0,0-.89,13.18,98.73,98.73,0,0,0,9.19,41.76,98.73,98.73,0,0,0-9.19,41.76,100.51,100.51,0,0,0,.89,13.18A97.25,97.25,0,0,1,1.25,158.13ZM47.2,269.05a97.1,97.1,0,0,1-27-51,99.51,99.51,0,0,0,44.83,33.14A99.52,99.52,0,0,0,98.21,296,97.1,97.1,0,0,1,47.2,269.05ZM158.13,315a97.25,97.25,0,0,1-54.95-16.94,100.51,100.51,0,0,0,13.18.89,98.73,98.73,0,0,0,41.76-9.19A98.73,98.73,0,0,0,199.89,299a100.52,100.52,0,0,0,13.18-.89A97.25,97.25,0,0,1,158.13,315ZM218,296a99.52,99.52,0,0,0,33.14-44.83A99.52,99.52,0,0,0,296,218a97.85,97.85,0,0,1-78,78Z"/></g></g></svg>