<?xml version="1.0" encoding="utf-8"?>
<!-- Generator: Adobe Illustrator 21.1.0, SVG Export Plug-In . SVG Version: 6.00 Build 0)  -->
<svg version="1.1" id="Layer_1" xmlns="http://www.w3.org/2000/svg" xmlns:xlink="http://www.w3.org/1999/xlink" x="0px" y="0px"
	 viewBox="0 0 317.5 317.5" style="enable-background:new 0 0 317.5 317.5;" xml:space="preserve">
<style type="text/css">
	.st0{fill:url(#SVGID_1_);}
</style>
<title>request-for-commits-abstract</title>
<linearGradient id="SVGID_1_" gradientUnits="userSpaceOnUse" x1="48.5241" y1="48.4379" x2="268.9753" y2="268.889">
	<stop  offset="0" style="stop-color:#A8A8D3"/>
	<stop  offset="1" style="stop-color:#4C5FAA"/>
</linearGradient>
<path class="st0" d="M220.3,137.7l-20.7,20.7v41.9l20.7,20.7v47.3c-0.9,0.3-1.6,1.1-1.6,2.1s0.7,1.8,1.6,2.1v0.1h1.1v-0.1
	c0.9-0.3,1.6-1.1,1.6-2.1c0-1-0.7-1.8-1.6-2.1v-47.7l-20.7-20.7v-40.9l20.7-20.7V76.5h63c0.3,0.9,1.1,1.6,2.1,1.6s1.8-0.7,2.1-1.6
	h0.1v-1.1h-0.1c-0.3-0.9-1.1-1.6-2.1-1.6s-1.8,0.7-2.1,1.6h-64.2V137.7z M313.9,147.7c-0.3-0.9-1.1-1.6-2.1-1.6s-1.8,0.7-2.1,1.6
	h-58.1l-21,21v21.2l21,21h48.9c0.3,0.9,1.1,1.6,2.1,1.6s1.8-0.7,2.1-1.6h0.1v-1.1h-0.1c-0.3-0.9-1.1-1.6-2.1-1.6s-1.8,0.7-2.1,1.6
	h-48.4l-20.4-20.4v-20.2l20.4-20.4h57.6c0.3,0.9,1.1,1.6,2.1,1.6s1.8-0.7,2.1-1.6h0.1L313.9,147.7L313.9,147.7z M273.1,111.2
	c0.9-0.3,1.6-1.1,1.6-2.1s-0.7-1.8-1.6-2.1v-0.1H272v0.1c-0.9,0.3-1.6,1.1-1.6,2.1s0.7,1.8,1.6,2.1v6.7h32c0.3,0.9,1.1,1.6,2.1,1.6
	s1.8-0.7,2.1-1.6h0.1v-1.1h-0.1c-0.3-0.9-1.1-1.6-2.1-1.6s-1.8,0.7-2.1,1.6h-30.8V111.2z M199.6,75.7v10.8l10.3,10.3v14.5l-7.2,7.2
	c-0.8-0.5-1.9-0.4-2.6,0.3c-0.7,0.7-0.8,1.8-0.3,2.6l-0.1,0.1l0.4,0.4c0,0,0,0,0,0c0,0,0,0,0,0l0.4,0.4l0.1-0.1
	c0.8,0.5,1.9,0.4,2.6-0.3c0.7-0.7,0.8-1.8,0.3-2.6l6.4-6.4v14.5l-7.2,7.2c-0.8-0.5-1.9-0.4-2.6,0.3c-0.7,0.7-0.8,1.8-0.3,2.6
	l-0.1,0.1l0.4,0.4c0,0,0,0,0,0c0,0,0,0,0,0l0.4,0.4l0.1-0.1c0.8,0.5,1.9,0.4,2.6-0.3c0.7-0.7,0.8-1.8,0.3-2.6l7.5-7.5V96.3L200.7,86
	v-9.9l10-10h67.9c0.3,0.9,1.1,1.6,2.1,1.6c1,0,1.8-0.7,2.1-1.6h0.1V65h-0.1c-0.3-0.9-1.1-1.6-2.1-1.6c-1,0-1.8,0.7-2.1,1.6h-68.4
	L199.6,75.7z M231.2,292.4c-0.7-0.7-1.8-0.8-2.6-0.3l-38.2-38.2V65.8l10-10h67.9c0.3,0.9,1.1,1.6,2.1,1.6s1.8-0.7,2.1-1.6h0.1v-1.1
	h-0.1c-0.3-0.9-1.1-1.6-2.1-1.6s-1.8,0.7-2.1,1.6h-68.4l-10.7,10.7v189l38.6,38.6c-0.5,0.8-0.4,1.9,0.3,2.6c0.7,0.7,1.8,0.8,2.6,0.3
	l0.1,0.1l0.8-0.8l-0.1-0.1C232,294.2,231.9,293.1,231.2,292.4z M210.5,300.5c-0.7-0.7-1.8-0.8-2.6-0.3l-38.2-38.2V55.4l17.5-17.5
	c0.8,0.5,1.9,0.4,2.6-0.3c0.7-0.7,0.8-1.8,0.3-2.6l0.1-0.1l-0.8-0.8l-0.1,0.1c-0.8-0.5-1.9-0.4-2.6,0.3c-0.7,0.7-0.8,1.8-0.3,2.6
	L168.5,55v207.4l38.6,38.6c-0.5,0.8-0.4,1.9,0.3,2.6c0.7,0.7,1.8,0.8,2.6,0.3l0.1,0.1l0.8-0.8l-0.1-0.1
	C211.3,302.2,211.2,301.2,210.5,300.5z M220.8,297c-0.7-0.7-1.8-0.8-2.6-0.3L180,258.4V61.2l15.8-15.8h64.5c0.3,0.9,1.1,1.6,2.1,1.6
	s1.8-0.7,2.1-1.6h0.1v-1.1h-0.1c-0.3-0.9-1.1-1.6-2.1-1.6s-1.8,0.7-2.1,1.6h-65l-16.4,16.4v198.2l38.6,38.6
	c-0.5,0.8-0.4,1.9,0.3,2.6c0.7,0.7,1.8,0.8,2.6,0.3l0.1,0.1l0.8-0.8l-0.1-0.1C221.6,298.8,221.5,297.7,220.8,297z M231.7,278.6
	v-61.5l-20.7-20.7v-32.9l20.7-20.7v-56h60.7c0.3,0.9,1.1,1.6,2.1,1.6s1.8-0.7,2.1-1.6h0.1v-1.1h-0.1c-0.3-0.9-1.1-1.6-2.1-1.6
	s-1.8,0.7-2.1,1.6h-61.9v56.7L209.9,163v33.8l20.7,20.7v61.1c-0.9,0.3-1.6,1.1-1.6,2.1s0.7,1.8,1.6,2.1v0.1h1.1v-0.1
	c0.9-0.3,1.6-1.1,1.6-2.1C233.3,279.7,232.7,278.8,231.7,278.6z M242.1,288.9v-76.5l-20.7-20.7v-23.7l20.7-20.7V97.2h55
	c0.3,0.9,1.1,1.6,2.1,1.6s1.8-0.7,2.1-1.6h0.1V96h-0.1c-0.3-0.9-1.1-1.6-2.1-1.6s-1.8,0.7-2.1,1.6h-56.1v50.9l-20.7,20.7v24.6
	l20.7,20.7v76c-0.9,0.3-1.6,1.1-1.6,2.1s0.7,1.8,1.6,2.1v0.1h1.1v-0.1c0.9-0.3,1.6-1.1,1.6-2.1S243,289.2,242.1,288.9z M311.8,156.5
	c-1,0-1.8,0.7-2.1,1.6h-54.6l-14.1,14.1v13.1l14.1,15.3H304c0.3,0.9,1.1,1.6,2.1,1.6s1.8-0.7,2.1-1.6h0.1v-1.1h-0.1
	c-0.3-0.9-1.1-1.6-2.1-1.6s-1.8,0.7-2.1,1.6h-48.4l-13.5-14.6v-12.2l13.5-13.5h54.2c0.3,0.9,1.1,1.6,2.1,1.6s1.8-0.7,2.1-1.6h0.1
	v-1.1h-0.1C313.6,157.2,312.8,156.5,311.8,156.5z M299.1,218.6c-1,0-1.8,0.7-2.1,1.6H262l-10.7,10.7v47.7c-0.9,0.3-1.6,1.1-1.6,2.1
	s0.7,1.8,1.6,2.1v0.1h1.1v-0.1c0.9-0.3,1.6-1.1,1.6-2.1c0-1-0.7-1.8-1.6-2.1v-47.3l10-10h34.6c0.3,0.9,1.1,1.6,2.1,1.6
	s1.8-0.7,2.1-1.6h0.1v-1.1h-0.1C301,219.3,300.1,218.6,299.1,218.6z M293.4,228.9c-1,0-1.8,0.7-2.1,1.6h-23.6l-6.1,6.1v33.9
	c-0.9,0.3-1.6,1.1-1.6,2.1s0.7,1.8,1.6,2.1v0.1h1.1v-0.1c0.9-0.3,1.6-1.1,1.6-2.1c0-1-0.7-1.8-1.6-2.1v-33.5l5.4-5.4h23.1
	c0.3,0.9,1.1,1.6,2.1,1.6s1.8-0.7,2.1-1.6h0.1v-1.1h-0.1C295.2,229.6,294.4,228.9,293.4,228.9z M287.6,239.3c-1,0-1.8,0.7-2.1,1.6
	H272v19.3c-0.9,0.3-1.6,1.1-1.6,2.1s0.7,1.8,1.6,2.1v0.1h1.1v-0.1c0.9-0.3,1.6-1.1,1.6-2.1s-0.7-1.8-1.6-2.1V242h12.4
	c0.3,0.9,1.1,1.6,2.1,1.6c1,0,1.8-0.7,2.1-1.6h0.1v-1.1h-0.1C289.5,239.9,288.6,239.3,287.6,239.3z M311.8,166.8
	c-1,0-1.8,0.7-2.1,1.6h-50.1l-9.7,10.9l8.5,10.9h47.8c0.3,0.9,1.1,1.6,2.1,1.6s1.8-0.7,2.1-1.6h0.1v-1.1h-0.1
	c-0.3-0.9-1.1-1.6-2.1-1.6s-1.8,0.7-2.1,1.6H259l-7.6-9.7l8.7-9.8h49.5c0.3,0.9,1.1,1.6,2.1,1.6s1.8-0.7,2.1-1.6h0.1v-1.1h-0.1
	C313.6,167.5,312.8,166.8,311.8,166.8z M308.6,137.4h-46.1l-10-10v-16.2c0.9-0.3,1.6-1.1,1.6-2.1s-0.7-1.8-1.6-2.1v-0.1h-1.1v0.1
	c-0.9,0.3-1.6,1.1-1.6,2.1s0.7,1.8,1.6,2.1v16.7l10.7,10.7h46.6c0.3,0.9,1.1,1.6,2.1,1.6s1.8-0.7,2.1-1.6h0.1v-1.1h-0.1
	c-0.3-0.9-1.1-1.6-2.1-1.6S308.8,136.5,308.6,137.4z M306.3,127.1h-36.9l-6.6-6.6v-9.3c0.9-0.3,1.6-1.1,1.6-2.1s-0.7-1.8-1.6-2.1
	v-0.1h-1.1v0.1c-0.9,0.3-1.6,1.1-1.6,2.1s0.7,1.8,1.6,2.1v9.8l7.2,7.2h37.4c0.3,0.9,1.1,1.6,2.1,1.6s1.8-0.7,2.1-1.6h0.1v-1.1h-0.1
	c-0.3-0.9-1.1-1.6-2.1-1.6S306.5,126.1,306.3,127.1z M199.6,13.5v10.9l10.7,10.7h37.4c0.3,0.9,1.1,1.6,2.1,1.6c1,0,1.8-0.7,2.1-1.6
	h0.1v-1.1h-0.1c-0.3-0.9-1.1-1.6-2.1-1.6c-1,0-1.8,0.7-2.1,1.6h-36.9l-10-10V13.5c0.9-0.3,1.6-1.1,1.6-2.1s-0.7-1.8-1.6-2.1V9.2
	h-1.1v0.1c-0.9,0.3-1.6,1.1-1.6,2.1S198.6,13.2,199.6,13.5z M209.9,16.9v7.8h21.6c0.3,0.9,1.1,1.6,2.1,1.6s1.8-0.7,2.1-1.6h0.1v-1.1
	h-0.1c-0.3-0.9-1.1-1.6-2.1-1.6s-1.8,0.7-2.1,1.6h-20.5v-6.7c0.9-0.3,1.6-1.1,1.6-2.1s-0.7-1.8-1.6-2.1v-0.1h-1.1v0.1
	c-0.9,0.3-1.6,1.1-1.6,2.1S209,16.7,209.9,16.9z M200.1,305c-0.7-0.7-1.8-0.8-2.6-0.3l-25-25c0.5-0.8,0.4-1.9-0.3-2.6
	c-0.7-0.7-1.8-0.8-2.6-0.3l-0.1-0.1l-0.4,0.4c0,0,0,0,0,0c0,0,0,0,0,0l-0.4,0.4l0.1,0.1c-0.5,0.8-0.4,1.9,0.3,2.6
	c0.7,0.7,1.8,0.8,2.6,0.3l25,25c-0.5,0.8-0.4,1.9,0.3,2.6c0.7,0.7,1.8,0.8,2.6,0.3l0.1,0.1l0.8-0.8l-0.1-0.1
	C200.9,306.8,200.8,305.8,200.1,305z M188.1,308c-0.7-0.7-1.8-0.8-2.6-0.3l-26.2-25.2V34.7l17.5-17.5c0.8,0.5,1.9,0.4,2.6-0.3
	c0.7-0.7,0.8-1.8,0.3-2.6l0.1-0.1l-0.8-0.8l-0.1,0.1c-0.8-0.5-1.9-0.4-2.6,0.3c-0.7,0.7-0.8,1.8-0.3,2.6l-17.3,17.3l-17.3-17.3
	c0.5-0.8,0.4-1.9-0.3-2.6c-0.7-0.7-1.8-0.8-2.6-0.3l-0.1-0.1l-0.4,0.4c0,0,0,0,0,0c0,0,0,0,0,0l-0.4,0.4l0.1,0.1
	c-0.5,0.8-0.4,1.9,0.3,2.6c0.7,0.7,1.8,0.8,2.6,0.3l17.5,17.5v247.8L132,307.7c-0.8-0.5-1.9-0.4-2.6,0.3c-0.7,0.7-0.8,1.7-0.4,2.6
	l-0.1,0.1l0.4,0.4c0,0,0,0,0,0s0,0,0,0l0.4,0.4l0.1-0.1c0.8,0.5,1.9,0.4,2.6-0.3c0.7-0.7,0.8-1.7,0.4-2.6l26-24.9l26,24.9
	c-0.4,0.8-0.3,1.9,0.4,2.6c0.7,0.7,1.8,0.8,2.6,0.3l0.1,0.1l0.4-0.4c0,0,0,0,0,0c0,0,0,0,0,0l0.4-0.4l-0.1-0.1
	C188.9,309.8,188.8,308.7,188.1,308z M210.5,228c-0.7-0.7-1.8-0.8-2.6-0.3l-7.2-7.2v-3.6c0.9-0.3,1.6-1.1,1.6-2.1s-0.7-1.8-1.6-2.1
	v-0.1h-1.1v0.1c-0.9,0.3-1.6,1.1-1.6,2.1s0.7,1.8,1.6,2.1v31.6l7.5,7.5c-0.5,0.8-0.4,1.9,0.3,2.6c0.7,0.7,1.8,0.8,2.6,0.3l0.1,0.1
	l0.8-0.8l-0.1-0.1c0.5-0.8,0.4-1.9-0.3-2.6c-0.7-0.7-1.8-0.8-2.6-0.3l-7.2-7.2v-12.2l6.4,6.4c-0.5,0.8-0.4,1.9,0.3,2.6
	c0.7,0.7,1.8,0.8,2.6,0.3l0.1,0.1l0.8-0.8l-0.1-0.1c0.5-0.8,0.4-1.9-0.3-2.6c-0.7-0.7-1.8-0.8-2.6-0.3l-7.2-7.2v-12.2l6.4,6.4
	c-0.5,0.8-0.4,1.9,0.3,2.6c0.7,0.7,1.8,0.8,2.6,0.3l0.1,0.1l0.8-0.8l-0.1-0.1C211.3,229.8,211.2,228.7,210.5,228z M189.2,10v8.2
	l-17.5,17.5c-0.8-0.5-1.9-0.4-2.6,0.3c-0.7,0.7-0.8,1.8-0.3,2.6l-0.1,0.1l0.4,0.4c0,0,0,0,0,0c0,0,0,0,0,0l0.4,0.4l0.1-0.1
	c0.8,0.5,1.9,0.4,2.6-0.3c0.7-0.7,0.8-1.8,0.3-2.6l17.9-17.9V10c0.9-0.3,1.6-1.1,1.6-2.1s-0.7-1.8-1.6-2.1V5.8h-1.1v0.1
	c-0.9,0.3-1.6,1.1-1.6,2.1S188.3,9.8,189.2,10z M128.3,254.3v-189l-10.7-10.7H49.2c-0.3-0.9-1.1-1.6-2.1-1.6c-1,0-1.8,0.7-2.1,1.6
	h-0.1v0.6c0,0,0,0,0,0s0,0,0,0v0.6H45c0.3,0.9,1.1,1.6,2.1,1.6c1,0,1.8-0.7,2.1-1.6h67.9l10,10v188.1l-38.2,38.2
	c-0.8-0.5-1.9-0.4-2.6,0.3c-0.7,0.7-0.8,1.8-0.3,2.6l-0.1,0.1l0.4,0.4c0,0,0,0,0,0c0,0,0,0,0,0l0.4,0.4l0.1-0.1
	c0.8,0.5,1.9,0.4,2.6-0.3c0.7-0.7,0.8-1.8,0.3-2.6L128.3,254.3z M149,262.4V55l-17.9-17.9c0.5-0.8,0.4-1.9-0.3-2.6
	c-0.7-0.7-1.8-0.8-2.6-0.3l-0.1-0.1l-0.4,0.4c0,0,0,0,0,0c0,0,0,0,0,0l-0.4,0.4l0.1,0.1c-0.5,0.8-0.4,1.9,0.3,2.6
	c0.7,0.7,1.8,0.8,2.6,0.3l17.5,17.5v206.4l-38.2,38.2c-0.8-0.5-1.9-0.4-2.6,0.3c-0.7,0.7-0.8,1.8-0.3,2.6l-0.1,0.1l0.4,0.4
	c0,0,0,0,0,0c0,0,0,0,0,0l0.4,0.4l0.1-0.1c0.8,0.5,1.9,0.4,2.6-0.3c0.7-0.7,0.8-1.8,0.3-2.6L149,262.4z M138.6,258.9V60.7
	l-16.4-16.4h-65c-0.3-0.9-1.1-1.6-2.1-1.6c-1,0-1.8,0.7-2.1,1.6H53v0.6c0,0,0,0,0,0s0,0,0,0v0.6h0.1c0.3,0.9,1.1,1.6,2.1,1.6
	c1,0,1.8-0.7,2.1-1.6h64.5l15.8,15.8v197.2l-38.2,38.2c-0.8-0.5-1.9-0.4-2.6,0.3c-0.7,0.7-0.8,1.8-0.3,2.6l-0.1,0.1l0.4,0.4
	c0,0,0,0,0,0s0,0,0,0l0.4,0.4l0.1-0.1c0.8,0.5,1.9,0.4,2.6-0.3c0.7-0.7,0.8-1.8,0.3-2.6L138.6,258.9z M85.8,282.8h1.1v-0.1
	c0.9-0.3,1.6-1.1,1.6-2.1c0-1-0.7-1.8-1.6-2.1v-61.1l20.7-20.7V163l-20.7-20.7V85.7H25c-0.3-0.9-1.1-1.6-2.1-1.6
	c-1,0-1.8,0.7-2.1,1.6h-0.1v0.6c0,0,0,0,0,0c0,0,0,0,0,0v0.6h0.1c0.3,0.9,1.1,1.6,2.1,1.6c1,0,1.8-0.7,2.1-1.6h60.7v56l20.7,20.7
	v32.9l-20.7,20.7v61.5c-0.9,0.3-1.6,1.1-1.6,2.1S84.8,282.5,85.8,282.8L85.8,282.8z M117.9,216.9c0.9-0.3,1.6-1.1,1.6-2.1
	s-0.7-1.8-1.6-2.1v-0.1h-1.1v0.1c-0.9,0.3-1.6,1.1-1.6,2.1s0.7,1.8,1.6,2.1v3.6l-7.2,7.2c-0.8-0.5-1.9-0.4-2.6,0.3
	c-0.7,0.7-0.8,1.8-0.3,2.6l-0.1,0.1l0.4,0.4c0,0,0,0,0,0c0,0,0,0,0,0l0.4,0.4l0.1-0.1c0.8,0.5,1.9,0.4,2.6-0.3
	c0.7-0.7,0.8-1.8,0.3-2.6l6.4-6.4v12.2l-7.2,7.2c-0.8-0.5-1.9-0.4-2.6,0.3c-0.7,0.7-0.8,1.8-0.3,2.6l-0.1,0.1l0.4,0.4c0,0,0,0,0,0
	c0,0,0,0,0,0l0.4,0.4l0.1-0.1c0.8,0.5,1.9,0.4,2.6-0.3c0.7-0.7,0.8-1.8,0.3-2.6l6.4-6.4v12.2l-7.2,7.2c-0.8-0.5-1.9-0.4-2.6,0.3
	c-0.7,0.7-0.8,1.8-0.3,2.6l-0.1,0.1l0.4,0.4c0,0,0,0,0,0c0,0,0,0,0,0l0.4,0.4l0.1-0.1c0.8,0.5,1.9,0.4,2.6-0.3
	c0.7-0.7,0.8-1.8,0.3-2.6l7.5-7.5V216.9z M145.8,280.5c0.8,0.5,1.9,0.4,2.6-0.3c0.7-0.7,0.8-1.8,0.3-2.6l0.1-0.1l-0.8-0.8l-0.1,0.1
	c-0.8-0.5-1.9-0.4-2.6,0.3c-0.7,0.7-0.8,1.8-0.3,2.6l-25,25c-0.8-0.5-1.9-0.4-2.6,0.3c-0.7,0.7-0.8,1.8-0.3,2.6l-0.1,0.1l0.4,0.4
	c0,0,0,0,0,0c0,0,0,0,0,0l0.4,0.4l0.1-0.1c0.8,0.5,1.9,0.4,2.6-0.3c0.7-0.7,0.8-1.8,0.3-2.6L145.8,280.5z M28.9,76.5L28.9,76.5
	c0.3,0.9,1.2,1.6,2.2,1.6c1,0,1.8-0.7,2.1-1.6h63v61.7l20.7,20.7v40.9l-20.7,20.7v47.7c-0.9,0.3-1.6,1.1-1.6,2.1s0.7,1.8,1.6,2.1
	v0.1h1.1v-0.1c0.9-0.3,1.6-1.1,1.6-2.1c0-1-0.7-1.8-1.6-2.1V221l20.7-20.7v-41.9l-20.7-20.7V75.3H33.1c-0.3-0.9-1.1-1.6-2.1-1.6
	c-1,0-1.8,0.7-2.1,1.6h-0.1v0.6c0,0,0,0,0,0c0,0,0,0,0,0V76.5z M76.6,288.9v-76l20.7-20.7v-24.6l-20.7-20.7V96H20.4
	c-0.3-0.9-1.1-1.6-2.1-1.6c-1,0-1.8,0.7-2.1,1.6h-0.1v0.6c0,0,0,0,0,0c0,0,0,0,0,0v0.6h0.1c0.3,0.9,1.1,1.6,2.1,1.6
	c1,0,1.8-0.7,2.1-1.6h55v50.2l20.7,20.7v23.7l-20.7,20.7v76.5c-0.9,0.3-1.6,1.1-1.6,2.1s0.7,1.8,1.6,2.1v0.1h1.1v-0.1
	c0.9-0.3,1.6-1.1,1.6-2.1S77.5,289.2,76.6,288.9z M17,211h48.9l21-21v-21.2l-21-21H7.8c-0.3-0.9-1.1-1.6-2.1-1.6
	c-1,0-1.8,0.7-2.1,1.6H3.6v0.6c0,0,0,0,0,0s0,0,0,0v0.6h0.1c0.3,0.9,1.1,1.6,2.1,1.6c1,0,1.8-0.7,2.1-1.6h57.6l20.4,20.4v20.2
	l-20.4,20.4H17c-0.3-0.9-1.1-1.6-2.1-1.6c-1,0-1.8,0.7-2.1,1.6h-0.1v0.6c0,0,0,0,0,0s0,0,0,0v0.6h0.1c0.3,0.9,1.1,1.6,2.1,1.6
	C15.9,212.6,16.7,211.9,17,211z M13.5,200.6h48.9l14.1-15.3v-13.1l-14.1-14.1H7.8c-0.3-0.9-1.1-1.6-2.1-1.6c-1,0-1.8,0.7-2.1,1.6
	H3.6v0.6c0,0,0,0,0,0s0,0,0,0v0.6h0.1c0.3,0.9,1.1,1.6,2.1,1.6c1,0,1.8-0.7,2.1-1.6h54.2l13.5,13.5v12.2l-13.5,14.6H13.5
	c-0.3-0.9-1.1-1.6-2.1-1.6c-1,0-1.8,0.7-2.1,1.6H9.3v0.6c0,0,0,0,0,0s0,0,0,0v0.6h0.1c0.3,0.9,1.1,1.6,2.1,1.6
	C12.5,202.2,13.3,201.5,13.5,200.6z M66.2,278.6v-47.7l-10.7-10.7H20.4c-0.3-0.9-1.1-1.6-2.1-1.6c-1,0-1.8,0.7-2.1,1.6h-0.1v0.6
	c0,0,0,0,0,0s0,0,0,0v0.6h0.1c0.3,0.9,1.1,1.6,2.1,1.6c1,0,1.8-0.7,2.1-1.6h34.6l10,10v47.3c-0.9,0.3-1.6,1.1-1.6,2.1
	s0.7,1.8,1.6,2.1v0.1h1.1v-0.1c0.9-0.3,1.6-1.1,1.6-2.1C67.8,279.7,67.1,278.8,66.2,278.6z M55.9,270.5v-33.9l-6.1-6.1H26.2
	c-0.3-0.9-1.1-1.6-2.1-1.6c-1,0-1.8,0.7-2.1,1.6H22v0.6c0,0,0,0,0,0c0,0,0,0,0,0v0.6H22c0.3,0.9,1.1,1.6,2.1,1.6
	c1,0,1.8-0.7,2.1-1.6h23.1l5.4,5.4v33.5c-0.9,0.3-1.6,1.1-1.6,2.1s0.7,1.8,1.6,2.1v0.1h1.1v-0.1c0.9-0.3,1.6-1.1,1.6-2.1
	C57.5,271.6,56.8,270.8,55.9,270.5z M45.5,260.2v-19.3H31.9c-0.3-0.9-1.1-1.6-2.1-1.6c-1,0-1.8,0.7-2.1,1.6h-0.1v0.6c0,0,0,0,0,0
	c0,0,0,0,0,0v0.6h0.1c0.3,0.9,1.1,1.6,2.1,1.6c1,0,1.8-0.7,2.1-1.6h12.4v18.2c-0.9,0.3-1.6,1.1-1.6,2.1s0.7,1.8,1.6,2.1v0.1h1.1
	v-0.1c0.9-0.3,1.6-1.1,1.6-2.1S46.4,260.4,45.5,260.2z M11.2,190.3H59l8.5-10.9l-9.7-10.9H7.8c-0.3-0.9-1.1-1.6-2.1-1.6
	c-1,0-1.8,0.7-2.1,1.6H3.6v0.6c0,0,0,0,0,0s0,0,0,0v0.6h0.1c0.3,0.9,1.1,1.6,2.1,1.6c1,0,1.8-0.7,2.1-1.6h49.5l8.7,9.8l-7.6,9.7
	H11.2c-0.3-0.9-1.1-1.6-2.1-1.6c-1,0-1.8,0.7-2.1,1.6H7v0.6c0,0,0,0,0,0c0,0,0,0,0,0v0.6h0.1c0.3,0.9,1.1,1.6,2.1,1.6
	C10.2,191.9,11,191.2,11.2,190.3z M4.7,138.5L4.7,138.5c0.3,0.9,1.2,1.6,2.2,1.6c1,0,1.8-0.7,2.1-1.6h46.6l10.7-10.7v-16.7
	c0.9-0.3,1.6-1.1,1.6-2.1s-0.7-1.8-1.6-2.1v-0.1h-1.1v0.1c-0.9,0.3-1.6,1.1-1.6,2.1s0.7,1.8,1.6,2.1v16.2l-10,10H8.9
	c-0.3-0.9-1.1-1.6-2.1-1.6c-1,0-1.8,0.7-2.1,1.6H4.7v0.6c0,0,0,0,0,0c0,0,0,0,0,0V138.5z M7,128.2L7,128.2c0.3,0.9,1.2,1.6,2.2,1.6
	c1,0,1.8-0.7,2.1-1.6h37.4l7.2-7.2v-9.8c0.9-0.3,1.6-1.1,1.6-2.1s-0.7-1.8-1.6-2.1v-0.1h-1.1v0.1c-0.9,0.3-1.6,1.1-1.6,2.1
	s0.7,1.8,1.6,2.1v9.3l-6.6,6.6H11.2c-0.3-0.9-1.1-1.6-2.1-1.6c-1,0-1.8,0.7-2.1,1.6H7v0.6c0,0,0,0,0,0c0,0,0,0,0,0V128.2z
	 M9.3,117.9L9.3,117.9c0.3,0.9,1.2,1.6,2.2,1.6c1,0,1.8-0.7,2.1-1.6h32v-6.7c0.9-0.3,1.6-1.1,1.6-2.1s-0.7-1.8-1.6-2.1v-0.1h-1.1
	v0.1c-0.9,0.3-1.6,1.1-1.6,2.1s0.7,1.8,1.6,2.1v5.5H13.5c-0.3-0.9-1.1-1.6-2.1-1.6c-1,0-1.8,0.7-2.1,1.6H9.3v0.6c0,0,0,0,0,0
	c0,0,0,0,0,0V117.9z M34.6,66.1L34.6,66.1c0.3,0.9,1.2,1.6,2.2,1.6c1,0,1.8-0.7,2.1-1.6h67.9l10,10V86l-10.3,10.3v31.5l7.5,7.5
	c-0.5,0.8-0.4,1.9,0.3,2.6c0.7,0.7,1.8,0.8,2.6,0.3l0.1,0.1l0.8-0.8l-0.1-0.1c0.5-0.8,0.4-1.9-0.3-2.6c-0.7-0.7-1.8-0.8-2.6-0.3
	l-7.2-7.2v-14.5l6.4,6.4c-0.5,0.8-0.4,1.9,0.3,2.6c0.7,0.7,1.8,0.8,2.6,0.3l0.1,0.1l0.8-0.8l-0.1-0.1c0.5-0.8,0.4-1.9-0.3-2.6
	c-0.7-0.7-1.8-0.8-2.6-0.3l-7.2-7.2V96.8l10.3-10.3V75.7L107.3,65H38.8c-0.3-0.9-1.1-1.6-2.1-1.6c-1,0-1.8,0.7-2.1,1.6h-0.1v0.6
	c0,0,0,0,0,0c0,0,0,0,0,0V66.1z M65.6,35.1L65.6,35.1c0.3,0.9,1.2,1.6,2.2,1.6c1,0,1.8-0.7,2.1-1.6h37.4l10.7-10.7V13.5
	c0.9-0.3,1.6-1.1,1.6-2.1s-0.7-1.8-1.6-2.1V9.2h-1.1v0.1c-0.9,0.3-1.6,1.1-1.6,2.1s0.7,1.8,1.6,2.1v10.5l-10,10H69.9
	c-0.3-0.9-1.1-1.6-2.1-1.6c-1,0-1.8,0.7-2.1,1.6h-0.1v0.6c0,0,0,0,0,0s0,0,0,0V35.1z M81.7,24.7L81.7,24.7c0.3,0.9,1.2,1.6,2.2,1.6
	c1,0,1.8-0.7,2.1-1.6h21.6v-7.8c0.9-0.3,1.6-1.1,1.6-2.1s-0.7-1.8-1.6-2.1v-0.1h-1.1v0.1c-0.9,0.3-1.6,1.1-1.6,2.1s0.7,1.8,1.6,2.1
	v6.7H86c-0.3-0.9-1.1-1.6-2.1-1.6c-1,0-1.8,0.7-2.1,1.6h-0.1v0.6c0,0,0,0,0,0s0,0,0,0V24.7z M127.1,10v8.6L145,36.5
	c-0.5,0.8-0.4,1.9,0.3,2.6c0.7,0.7,1.8,0.8,2.6,0.3l0.1,0.1l0.8-0.8l-0.1-0.1c0.5-0.8,0.4-1.9-0.3-2.6c-0.7-0.7-1.8-0.8-2.6-0.3
	l-17.5-17.5V10c0.9-0.3,1.6-1.1,1.6-2.1s-0.7-1.8-1.6-2.1V5.8h-1.1v0.1c-0.9,0.3-1.6,1.1-1.6,2.1S126.2,9.8,127.1,10z"/>
</svg>
