<svg id="Layer_2" data-name="Layer 2" xmlns="http://www.w3.org/2000/svg" xmlns:xlink="http://www.w3.org/1999/xlink" viewBox="0 0 329.72 304.48"><defs><style>.cls-1{fill:url(#linear-gradient);}.cls-2{fill:url(#linear-gradient-2);}.cls-3{fill:url(#linear-gradient-3);}.cls-4{fill:url(#linear-gradient-4);}.cls-5{fill:url(#linear-gradient-5);}.cls-6{fill:url(#linear-gradient-6);}.cls-7{fill:url(#linear-gradient-7);}.cls-8{fill:url(#linear-gradient-8);}.cls-9{fill:url(#linear-gradient-9);}.cls-10{fill:url(#linear-gradient-10);}.cls-11{fill:url(#linear-gradient-11);}.cls-12{fill:url(#linear-gradient-12);}.cls-13{fill:url(#linear-gradient-13);}.cls-14{fill:url(#linear-gradient-14);}.cls-15{fill:url(#linear-gradient-15);}.cls-16{fill:url(#linear-gradient-16);}.cls-17{fill:url(#linear-gradient-17);}.cls-18{fill:url(#linear-gradient-18);}.cls-19{fill:url(#linear-gradient-19);}.cls-20{fill:url(#linear-gradient-20);}.cls-21{fill:url(#linear-gradient-21);}.cls-22{fill:url(#linear-gradient-22);}.cls-23{fill:url(#linear-gradient-23);}.cls-24{fill:url(#linear-gradient-24);}.cls-25{fill:url(#linear-gradient-25);}.cls-26{fill:url(#linear-gradient-26);}.cls-27{fill:url(#linear-gradient-27);}.cls-28{fill:url(#linear-gradient-28);}.cls-29{fill:url(#linear-gradient-29);}.cls-30{fill:url(#linear-gradient-30);}</style><linearGradient id="linear-gradient" x1="147.13" y1="233.6" x2="147.13" y2="233.6" gradientUnits="userSpaceOnUse"><stop offset="0" stop-color="#cbe29f"/><stop offset="0.48" stop-color="#8ac75a"/></linearGradient><linearGradient id="linear-gradient-2" x1="-2.54" y1="53.7" x2="164.58" y2="331.13" gradientTransform="matrix(1, 0.06, -0.06, 1, 15.78, -6.48)" xlink:href="#linear-gradient"/><linearGradient id="linear-gradient-3" x1="91.52" y1="13.94" x2="258.64" y2="291.37" gradientTransform="matrix(1, 0.07, -0.07, 1, 20.52, -17.4)" xlink:href="#linear-gradient"/><linearGradient id="linear-gradient-4" x1="152.14" y1="-28.38" x2="319.26" y2="249.05" xlink:href="#linear-gradient"/><linearGradient id="linear-gradient-5" x1="95" y1="6.04" x2="262.12" y2="283.47" xlink:href="#linear-gradient"/><linearGradient id="linear-gradient-6" x1="139.28" y1="-20.63" x2="306.4" y2="256.8" xlink:href="#linear-gradient"/><linearGradient id="linear-gradient-7" x1="-34.71" y1="84.18" x2="132.4" y2="361.61" xlink:href="#linear-gradient"/><linearGradient id="linear-gradient-8" x1="130.58" y1="-15.39" x2="297.7" y2="262.04" xlink:href="#linear-gradient"/><linearGradient id="linear-gradient-9" x1="-20.3" y1="75.5" x2="146.82" y2="352.93" xlink:href="#linear-gradient"/><linearGradient id="linear-gradient-10" x1="-50.33" y1="93.59" x2="116.79" y2="371.02" xlink:href="#linear-gradient"/><linearGradient id="linear-gradient-11" x1="-18.5" y1="74.41" x2="148.62" y2="351.84" xlink:href="#linear-gradient"/><linearGradient id="linear-gradient-12" x1="131.44" y1="-15.9" x2="298.55" y2="261.53" xlink:href="#linear-gradient"/><linearGradient id="linear-gradient-13" x1="56.82" y1="13.68" x2="251.9" y2="337.53" xlink:href="#linear-gradient"/><linearGradient id="linear-gradient-14" x1="96.79" y1="-2.76" x2="273.95" y2="291.35" xlink:href="#linear-gradient"/><linearGradient id="linear-gradient-15" x1="65.92" y1="23.56" x2="233.04" y2="300.99" xlink:href="#linear-gradient"/><linearGradient id="linear-gradient-16" x1="114.87" y1="-5.92" x2="281.98" y2="271.51" xlink:href="#linear-gradient"/><linearGradient id="linear-gradient-17" x1="119.5" y1="-8.71" x2="286.61" y2="268.72" gradientTransform="translate(130.61 -100.31) rotate(40.62)" xlink:href="#linear-gradient"/><linearGradient id="linear-gradient-18" x1="88.96" y1="9.68" x2="256.08" y2="287.11" gradientTransform="translate(151.5 -76.77) rotate(49.41)" xlink:href="#linear-gradient"/><linearGradient id="linear-gradient-19" x1="12.35" y1="55.83" x2="179.47" y2="333.26" xlink:href="#linear-gradient"/><linearGradient id="linear-gradient-20" x1="43.14" y1="37.28" x2="210.26" y2="314.71" xlink:href="#linear-gradient"/><linearGradient id="linear-gradient-21" x1="51.65" y1="32.16" x2="218.77" y2="309.59" xlink:href="#linear-gradient"/><linearGradient id="linear-gradient-22" x1="64.38" y1="24.49" x2="231.5" y2="301.92" xlink:href="#linear-gradient"/><linearGradient id="linear-gradient-23" x1="165.58" y1="-36.47" x2="332.7" y2="240.96" xlink:href="#linear-gradient"/><linearGradient id="linear-gradient-24" x1="188.39" y1="-50.21" x2="355.51" y2="227.22" xlink:href="#linear-gradient"/><linearGradient id="linear-gradient-25" x1="199.37" y1="-56.83" x2="366.49" y2="220.61" xlink:href="#linear-gradient"/><linearGradient id="linear-gradient-26" x1="161.04" y1="-33.74" x2="328.16" y2="243.69" xlink:href="#linear-gradient"/><linearGradient id="linear-gradient-27" x1="22.38" y1="49.79" x2="189.5" y2="327.22" xlink:href="#linear-gradient"/><linearGradient id="linear-gradient-28" x1="179.44" y1="-44.82" x2="346.56" y2="232.61" xlink:href="#linear-gradient"/><linearGradient id="linear-gradient-29" x1="-58.58" y1="98.56" x2="108.54" y2="375.99" xlink:href="#linear-gradient"/><linearGradient id="linear-gradient-30" x1="106.04" y1="-0.61" x2="273.16" y2="276.82" xlink:href="#linear-gradient"/></defs><g id="art"><path class="cls-1" d="M147.13,233.6" transform="translate(-15.14 -29.5)"/><path class="cls-2" d="M125.5,284.64a32.29,32.29,0,0,1-4.12-48.79l.82.81a31.13,31.13,0,0,0,4,47Z" transform="translate(-15.14 -29.5)"/><path class="cls-3" d="M244.71,302.51l-.54-1A31.14,31.14,0,0,0,231.73,243l.09-1.14a32.28,32.28,0,0,1,12.89,60.64Z" transform="translate(-15.14 -29.5)"/><path class="cls-4" d="M296.28,259.48a48.58,48.58,0,1,1,48.58-48.58A48.64,48.64,0,0,1,296.28,259.48Zm0-96a47.43,47.43,0,1,0,47.43,47.43A47.49,47.49,0,0,0,296.28,163.47Z" transform="translate(-15.14 -29.5)"/><path class="cls-5" d="M258.57,316.58a45.34,45.34,0,0,1-45.29-45.28h1.16a44.13,44.13,0,0,0,88.26,0h1.15A45.33,45.33,0,0,1,258.57,316.58Z" transform="translate(-15.14 -29.5)"/><path class="cls-6" d="M312.88,334l-.75-.87a81.79,81.79,0,0,0-53.56-143.6v-1.15A82.94,82.94,0,0,1,312.88,334Z" transform="translate(-15.14 -29.5)"/><path class="cls-7" d="M47.12,334a82.94,82.94,0,0,1,54.31-145.62v1.15a81.79,81.79,0,0,0-53.56,143.6Z" transform="translate(-15.14 -29.5)"/><path class="cls-8" d="M303.28,296.11A24.82,24.82,0,1,1,328.1,271.3,24.84,24.84,0,0,1,303.28,296.11Zm0-48.48A23.67,23.67,0,1,0,327,271.3,23.69,23.69,0,0,0,303.28,247.63Z" transform="translate(-15.14 -29.5)"/><path class="cls-9" d="M101.43,316.58A45.33,45.33,0,0,1,56.15,271.3H57.3a44.13,44.13,0,0,0,88.26,0h1.15A45.33,45.33,0,0,1,101.43,316.58Z" transform="translate(-15.14 -29.5)"/><path class="cls-10" d="M56.72,296.11A24.82,24.82,0,1,1,81.54,271.3,24.85,24.85,0,0,1,56.72,296.11Zm0-48.48A23.67,23.67,0,1,0,80.39,271.3,23.69,23.69,0,0,0,56.72,247.63Z" transform="translate(-15.14 -29.5)"/><path class="cls-11" d="M63.72,259.48A48.58,48.58,0,1,1,112.3,210.9h-1.15a47.43,47.43,0,1,0-8.6,27.24l.94.66A48.67,48.67,0,0,1,63.72,259.48Z" transform="translate(-15.14 -29.5)"/><path class="cls-12" d="M204.22,72.14h-1.15c0-5.1,0-14.59-6.58-25.46-5.2-8.59-14.71-14.74-16.49-15.84-1.78,1.1-11.29,7.25-16.49,15.84-6.58,10.87-6.58,20.36-6.58,25.46h-1.15c0-5.21,0-14.91,6.75-26.06,5.88-9.7,17.07-16.35,17.18-16.41l.29-.17.29.17c.11.06,11.3,6.71,17.18,16.41C204.22,57.23,204.22,66.93,204.22,72.14Z" transform="translate(-15.14 -29.5)"/><path class="cls-13" d="M140.71,258.9h-1.15V82.42a19,19,0,0,1,2.75-10.58,22.6,22.6,0,0,1,7-6.67l.29-.17.29.17a22.47,22.47,0,0,1,7,6.67,19,19,0,0,1,2.75,10.58V279.08h-1.15V82.42a17.93,17.93,0,0,0-2.58-10,21.25,21.25,0,0,0-6.29-6.1,21.5,21.5,0,0,0-6.28,6.1,17.93,17.93,0,0,0-2.58,10Z" transform="translate(-15.14 -29.5)"/><path class="cls-14" d="M201.56,295.39h-1.15v-213a19,19,0,0,1,2.75-10.58,22.6,22.6,0,0,1,7-6.67l.3-.17.29.17a22.7,22.7,0,0,1,7,6.67,19,19,0,0,1,2.74,10.58V258.9h-1.15V82.42a17.93,17.93,0,0,0-2.58-10,21.5,21.5,0,0,0-6.28-6.1,21.38,21.38,0,0,0-6.29,6.1,17.93,17.93,0,0,0-2.58,10Z" transform="translate(-15.14 -29.5)"/><path class="cls-15" d="M167.25,330.74H166.1V103.59a26.66,26.66,0,0,1,3.84-14.82c3.34-5.52,9.51-9.18,9.77-9.33l.29-.17.29.17c.26.15,6.42,3.81,9.77,9.33a26.66,26.66,0,0,1,3.84,14.82V316.35h-1.15V103.59a25.6,25.6,0,0,0-3.67-14.22c-2.8-4.61-7.82-8-9.08-8.76-1.26.79-6.29,4.15-9.08,8.76a25.6,25.6,0,0,0-3.67,14.22Z" transform="translate(-15.14 -29.5)"/><path class="cls-16" d="M188.71,106.06l-.89-.58a15.87,15.87,0,0,0-15.64,0l-.88.58V98.35l.27-.17a17,17,0,0,1,16.89,0l.26.17ZM180,102.27a17.11,17.11,0,0,1,7.56,1.76V99a15.9,15.9,0,0,0-15.11,0v5A17,17,0,0,1,180,102.27Z" transform="translate(-15.14 -29.5)"/><rect class="cls-17" x="200.24" y="114.78" width="1.15" height="22.99" transform="translate(-48.96 131.68) rotate(-40.62)"/><rect class="cls-18" x="147.7" y="125.7" width="22.99" height="1.15" transform="translate(-55.42 135.5) rotate(-49.41)"/><path class="cls-19" d="M73.54,182.82a47.82,47.82,0,0,1,0-95.64v1.15a46.67,46.67,0,0,0,0,93.34Z" transform="translate(-15.14 -29.5)"/><path class="cls-20" d="M73.54,105.17A17.42,17.42,0,1,1,91,87.75,17.44,17.44,0,0,1,73.54,105.17Zm0-33.68A16.27,16.27,0,1,0,89.81,87.75,16.28,16.28,0,0,0,73.54,71.49Z" transform="translate(-15.14 -29.5)"/><path class="cls-21" d="M105.46,130.76a9.29,9.29,0,1,1,9.28-9.28A9.3,9.3,0,0,1,105.46,130.76Zm0-17.42a8.14,8.14,0,1,0,8.13,8.14A8.15,8.15,0,0,0,105.46,113.34Z" transform="translate(-15.14 -29.5)"/><path class="cls-22" d="M131.06,135h-1.15a87.9,87.9,0,0,0-65-84.83l.29-1.11A89,89,0,0,1,131.06,135Z" transform="translate(-15.14 -29.5)"/><path class="cls-23" d="M277.58,186a36.56,36.56,0,1,1,36.56-36.56A36.6,36.6,0,0,1,277.58,186Zm0-72A35.41,35.41,0,1,0,313,149.46,35.44,35.44,0,0,0,277.58,114.06Z" transform="translate(-15.14 -29.5)"/><path class="cls-24" d="M286.46,182.82v-1.15a46.67,46.67,0,1,0,0-93.34V87.18a47.82,47.82,0,1,1,0,95.64Z" transform="translate(-15.14 -29.5)"/><path class="cls-25" d="M286.46,105.17a17.42,17.42,0,1,1,17.42-17.42A17.43,17.43,0,0,1,286.46,105.17Zm0-33.68a16.27,16.27,0,1,0,16.27,16.26A16.28,16.28,0,0,0,286.46,71.49Z" transform="translate(-15.14 -29.5)"/><path class="cls-26" d="M254.54,130.76a9.29,9.29,0,1,1,9.29-9.28A9.29,9.29,0,0,1,254.54,130.76Zm0-17.42a8.14,8.14,0,1,0,8.14,8.14A8.15,8.15,0,0,0,254.54,113.34Z" transform="translate(-15.14 -29.5)"/><path class="cls-27" d="M82.42,186A36.56,36.56,0,1,1,119,149.46,36.6,36.6,0,0,1,82.42,186Zm0-72a35.41,35.41,0,1,0,35.4,35.4A35.44,35.44,0,0,0,82.42,114.06Z" transform="translate(-15.14 -29.5)"/><path class="cls-28" d="M230.09,135h-1.15a89.06,89.06,0,0,1,65.89-85.94l.3,1.11A87.91,87.91,0,0,0,230.09,135Z" transform="translate(-15.14 -29.5)"/><path class="cls-29" d="M52.58,322.51l-1-.55a61.08,61.08,0,0,1,32-28l.4,1.08A59.87,59.87,0,0,0,52.58,322.51Z" transform="translate(-15.14 -29.5)"/><path class="cls-30" d="M307.42,322.51A59.85,59.85,0,0,0,276,295.08l.41-1.08a61,61,0,0,1,32,28Z" transform="translate(-15.14 -29.5)"/></g></svg>