<?xml version="1.0" encoding="utf-8"?>
<svg version="1.1" id="Layer_1" xmlns="http://www.w3.org/2000/svg" xmlns:xlink="http://www.w3.org/1999/xlink" x="0px" y="0px"
	 width="60px" height="60px" viewBox="575.5 594.5 60 60" enable-background="new 575.5 594.5 60 60" xml:space="preserve">
<g>
	<g>
		<path fill="#ECB32D" d="M614.4,598.2c-0.9-2.8-3.9-4.3-6.7-3.4c-2.8,0.9-4.3,3.9-3.4,6.7L618,644c0.9,2.6,3.8,4.1,6.5,3.3
			c2.9-0.8,4.6-3.8,3.6-6.6C628.2,640.6,614.4,598.2,614.4,598.2z"/>
		<path fill="#63C1A0" d="M593,605.1c-0.9-2.8-3.9-4.3-6.7-3.4c-2.8,0.9-4.3,3.9-3.4,6.7l13.8,42.5c0.9,2.6,3.8,4.1,6.5,3.3
			c2.9-0.8,4.6-3.8,3.6-6.6C606.8,647.6,593,605.1,593,605.1z"/>
		<path fill="#E01A59" d="M631.8,633.4c2.8-0.9,4.3-3.9,3.4-6.7c-0.9-2.8-3.9-4.3-6.7-3.4L586,637.1c-2.6,0.9-4.1,3.8-3.3,6.5
			c0.8,2.9,3.8,4.6,6.6,3.6C589.4,647.2,631.8,633.4,631.8,633.4z"/>
		<path fill="#331433" d="M594.8,645.4c2.8-0.9,6.3-2.1,10.2-3.3c-0.9-2.8-2.1-6.3-3.3-10.2l-10.2,3.3L594.8,645.4z"/>
		<path fill="#D62027" d="M616.3,638.5c3.8-1.2,7.4-2.4,10.2-3.3c-0.9-2.8-2.1-6.3-3.3-10.2l-10.2,3.3L616.3,638.5z"/>
		<path fill="#89D3DF" d="M624.8,612c2.8-0.9,4.3-3.9,3.4-6.7c-0.9-2.8-3.9-4.3-6.7-3.4L579,615.6c-2.6,0.9-4.1,3.8-3.3,6.5
			c0.8,2.9,3.8,4.6,6.6,3.6C582.4,625.8,624.8,612,624.8,612z"/>
		<path fill="#258B74" d="M587.9,624c2.8-0.9,6.3-2.1,10.2-3.3c-1.2-3.8-2.4-7.4-3.3-10.2l-10.2,3.3L587.9,624z"/>
		<path fill="#819C3C" d="M609.3,617.1c3.8-1.2,7.4-2.4,10.2-3.3c-1.2-3.8-2.4-7.4-3.3-10.2l-10.2,3.3L609.3,617.1z"/>
	</g>
</g>
</svg>
