<?xml version="1.0" standalone="no"?>
<!DOCTYPE svg PUBLIC "-//W3C//DTD SVG 20010904//EN"
 "http://www.w3.org/TR/2001/REC-SVG-20010904/DTD/svg10.dtd">
<svg version="1.0" xmlns="http://www.w3.org/2000/svg"
 width="16.000000pt" height="16.000000pt" viewBox="0 0 16.000000 16.000000"
 preserveAspectRatio="xMidYMid meet">
<metadata>
Created by potrace 1.11, written by Peter Selinger 2001-2013
</metadata>
<g transform="translate(0.000000,16.000000) scale(0.002286,-0.002286)"
fill="#000000" stroke="none">
<path d="M3278 6945 c-2 -1 -34 -6 -73 -10 -88 -8 -143 -14 -176 -20 -14 -3
-43 -7 -63 -10 -21 -2 -46 -7 -55 -9 -9 -3 -32 -7 -51 -10 -133 -20 -472 -122
-637 -191 -100 -42 -320 -150 -403 -197 -151 -86 -418 -274 -530 -374 -418
-371 -693 -739 -910 -1219 -114 -251 -222 -622 -260 -890 -6 -44 -13 -93 -15
-110 -20 -135 -28 -547 -13 -710 22 -243 74 -512 135 -710 30 -98 80 -239 98
-280 7 -16 22 -52 33 -80 55 -140 178 -369 285 -534 38 -57 72 -108 78 -115 5
-6 34 -45 65 -86 350 -463 827 -836 1389 -1085 208 -92 493 -176 780 -229 67
-12 248 -33 360 -42 61 -4 403 -4 460 1 66 5 199 18 205 20 3 0 30 5 60 9 30
4 62 9 70 11 8 1 31 5 50 8 418 69 886 254 1265 502 236 154 550 419 580 488
30 70 -34 142 -109 123 -14 -3 -42 -23 -63 -43 -21 -21 -63 -60 -93 -87 -30
-27 -69 -61 -86 -77 -65 -59 -263 -203 -377 -275 -342 -217 -717 -364 -1127
-443 -58 -11 -135 -23 -170 -26 -36 -4 -71 -8 -78 -10 -68 -22 -581 -22 -727
0 -16 2 -66 9 -110 15 -870 123 -1670 610 -2185 1330 -81 113 -220 337 -220
354 0 7 -4 16 -10 22 -28 28 -154 316 -209 479 -51 152 -111 389 -127 500 -3
22 -9 68 -15 102 -5 34 -12 97 -17 140 -9 101 -9 572 1 643 4 30 10 70 12 88
12 90 17 125 36 222 83 425 252 833 497 1195 224 331 530 640 862 868 57 40
116 79 131 87 15 8 63 36 106 61 215 127 587 277 801 324 12 3 32 7 45 10 59
15 268 54 318 59 31 4 66 9 78 11 119 23 574 23 732 0 19 -2 68 -9 109 -15
535 -72 1049 -286 1500 -624 52 -39 97 -74 100 -77 3 -3 28 -25 55 -49 28 -23
75 -66 105 -94 96 -90 119 -106 154 -106 38 0 81 36 88 74 8 39 -15 77 -88
146 -95 91 -217 193 -314 266 -308 229 -646 404 -1001 519 -103 33 -315 89
-384 100 -77 14 -147 26 -172 30 -16 3 -50 7 -78 10 -27 3 -84 10 -125 14 -68
8 -564 13 -572 6z"/>
<path d="M3369 5826 c-2 -2 -37 -7 -77 -10 -40 -4 -78 -9 -85 -11 -7 -2 -30
-6 -52 -9 -72 -9 -148 -26 -255 -56 -740 -205 -1348 -791 -1584 -1528 -31 -97
-74 -268 -82 -332 -3 -25 -8 -54 -10 -65 -25 -126 -24 -452 1 -660 13 -98 65
-312 105 -430 77 -224 240 -522 386 -704 65 -81 236 -253 330 -333 337 -284
767 -467 1225 -522 113 -14 438 -14 544 -1 499 63 1006 304 1338 635 62 62 68
71 65 105 -3 42 -35 80 -76 88 -34 7 -71 -14 -144 -82 -328 -306 -769 -507
-1225 -560 -84 -10 -436 -7 -518 4 -219 29 -469 107 -674 209 -574 285 -988
809 -1136 1441 -42 178 -53 292 -50 515 2 113 5 214 8 225 2 11 8 45 12 75 4
30 18 102 31 160 167 721 705 1314 1405 1550 311 105 672 137 994 89 39 -6 79
-12 90 -14 11 -1 58 -12 105 -23 362 -87 695 -268 985 -536 56 -51 75 -61 115
-57 73 8 102 97 52 156 -57 67 -245 218 -382 308 -194 126 -499 260 -690 302
-83 19 -214 45 -250 50 -25 4 -56 9 -70 12 -30 5 -426 13 -431 9z"/>
<path d="M3529 4616 c-2 -2 -35 -6 -74 -10 -138 -12 -266 -48 -396 -111 -134
-64 -219 -127 -324 -236 -161 -169 -255 -353 -300 -594 -11 -56 -13 -260 -4
-328 25 -175 110 -380 215 -517 219 -286 554 -450 917 -451 320 0 573 114 834
376 l43 43 -137 128 c-141 133 -145 137 -179 167 -21 17 -23 16 -90 -50 -156
-154 -268 -210 -439 -220 -380 -21 -695 286 -695 677 0 299 182 557 460 650
83 28 244 36 328 16 121 -28 201 -77 327 -197 l80 -77 66 61 c36 34 111 105
168 158 l102 96 -89 84 c-227 216 -459 322 -721 328 -41 1 -78 4 -82 6 -3 3
-8 3 -10 1z"/>
</g>
</svg>
