<svg xmlns="http://www.w3.org/2000/svg" xmlns:xlink="http://www.w3.org/1999/xlink" viewBox="0 0 171 171"><defs><style>.cls-1{fill:#121921;}.cls-2{fill:#fff;}.cls-3{fill:url(#New_Gradient_Swatch_12);}.cls-4{fill:url(#linear-gradient);}.cls-5{fill:url(#New_Gradient_Swatch_2);}</style><linearGradient id="New_Gradient_Swatch_12" x1="144.28" y1="18.7" x2="158.02" y2="18.7" gradientUnits="userSpaceOnUse"><stop offset="0" stop-color="#f05225" stop-opacity="0"/><stop offset="1" stop-color="#f05225"/></linearGradient><linearGradient id="linear-gradient" x1="146.87" y1="18.7" x2="156.18" y2="18.7" gradientUnits="userSpaceOnUse"><stop offset="0" stop-color="#f05225"/><stop offset="1" stop-color="#f05225" stop-opacity="0"/></linearGradient><linearGradient id="New_Gradient_Swatch_2" x1="32.3" y1="32.3" x2="138.7" y2="138.7" gradientUnits="userSpaceOnUse"><stop offset="0" stop-color="#f8a27b"/><stop offset="1" stop-color="#f05225"/></linearGradient></defs><title>backstage-cover-art</title><g id="Layer_2" data-name="Layer 2"><g id="Layer_1-2" data-name="Layer 1"><rect class="cls-1" width="171" height="171"/><path class="cls-2" d="M153.57,17.8a1.54,1.54,0,1,0-1.24,2.48,1.59,1.59,0,0,0,1.26-.68l.78.73a2.61,2.61,0,1,1-2-4.22,2.57,2.57,0,0,1,2,1Z"/><path class="cls-3" d="M152.29,26.72h-.16a8,8,0,0,1-5.73-2.57,8,8,0,0,1,0-10.89A8,8,0,0,1,158,13a.22.22,0,1,1-.31.31,7.58,7.58,0,0,0-10.93.21,7.61,7.61,0,0,0,0,10.3,7.58,7.58,0,0,0,10.93.21.22.22,0,1,1,.31.31A8,8,0,0,1,152.29,26.72Z"/><path class="cls-4" d="M152.28,24.12h-.18a5.42,5.42,0,0,1,0-10.83,5.44,5.44,0,0,1,4,1.58.22.22,0,0,1-.31.31,5,5,0,0,0-3.7-1.46,5,5,0,0,0,0,10,5,5,0,0,0,3.7-1.46.22.22,0,1,1,.31.31A5.44,5.44,0,0,1,152.28,24.12Z"/><path class="cls-5" d="M160.73,74.81,146.25,60.33V39.86H131.14V24.75H110.67L96.19,10.27,85.5,21,74.81,10.27,60.33,24.75H39.86V39.86H24.75V60.33L10.27,74.81,21,85.5,10.27,96.19l14.48,14.48v20.47H39.86v15.11H60.33l14.48,14.48L85.5,150l10.69,10.69,14.48-14.48h20.47V131.14h15.11V110.67l14.48-14.48L150,85.5Zm-136,35L11.11,96.19,21.38,85.92l3.37,3.37Zm0-21.37-3-3,3-3Zm0-6.74-3.37,3.37L11.11,74.81,24.75,61.17Zm15.11,48.84H25.34V111.26l14.52,14.52Zm0-5.61L25.34,110.42V89.88L39.86,104.4Zm0-28.5L36,92.63l3.82-3.82Zm0-14.25L36,78.38l3.82-3.82Zm0-8.47-4.65,4.65L39.86,83V88l-4.65,4.65,4.65,4.65v6.29L25.34,89V82L39.86,67.43Zm0-7.12L25.34,81.12V60.58L39.86,46.06Zm0-21.37L25.34,59.74V40.45H39.86Zm85.08-5.36H104.4L89.88,25.34h20.54Zm-9.51,11.87V55h-3l-9.48-9.48h6.29ZM110,45.49h5.4v5.4Zm-.84,80h-6.29l9.48-9.48h3v3.25Zm6.23-5.4v5.4H110Zm-59.86-.84V116h3l9.48,9.48H61.8Zm5.4,6.23h-5.4v-5.4Zm27.25,5-2.3-2.3,2.15-2.15h13.41L97,130.55Zm8.22.59L92.63,135l-3.82-3.82ZM74,130.55l-4.44-4.44H82.93l2.15,2.15-2.3,2.3Zm8.22.59L78.38,135l-3.82-3.82Zm1.58-5h3.46l-1.73,1.73Zm1.73,2.57,1.88,1.88H83.62Zm3.16-3.16L98.14,116h13.41l-9.48,9.48Zm-.84,0H83.18L73.7,116H97.3Zm-5.48,0H68.93L59.45,116H72.86ZM58.85,115.43l-3.28-3.28V98.74l16.69,16.69Zm-.84,0H55.57V113ZM68.68,126.1l4.44,4.44H66.84L62.4,126.1Zm5,5,4.65,4.65L83,131.14H88l4.65,4.65,4.65-4.65h6.29L89,145.66H82L67.43,131.14Zm24.15-.59,4.44-4.44h6.29l-4.44,4.44ZM113,115.43l2.44-2.44v2.44Zm-.84,0H98.74l16.69-16.69v13.41Zm-14.25,0H73.1L55.57,97.9V73.1L73.1,55.57H97.9L115.43,73.1V97.9ZM61.8,45.49h6.29L58.61,55h-3V51.73Zm-6.23,5.4v-5.4H61ZM82.78,40.45l2.3,2.3L82.93,44.9H69.52L74,40.45Zm-8.22-.59L78.38,36l3.82,3.82Zm9.06.59h3.75L85.5,42.33Zm3.6,4.44H83.77l1.73-1.73Zm-4.89.59L72.86,55H59.45l9.48-9.48Zm.84,0h4.64L97.3,55H73.7Zm5.48,0h13.41L111.55,55H98.14Zm-.59-.59-2.15-2.15,2.3-2.3H97l4.44,4.44Zm.74-5L92.63,36l3.82,3.82Zm3.82-4.65L88,39.86H83l-4.65-4.65-4.65,4.65H67.43L82,25.34H89l14.52,14.52H97.28Zm-19.5,5.25L68.68,44.9H62.4l4.44-4.44ZM58,55.57,55.57,58V55.57Zm.84,0H72.26L55.57,72.26V58.85Zm39.89,0h13.41l3.28,3.28V72.26Zm14.25,0h2.44V58ZM102.32,44.9l-4.44-4.44h6.29l4.44,4.44ZM96.19,11.11l13.64,13.64H89.29l-3.37-3.37ZM88.45,24.75h-5.9l3-3ZM74.81,11.11,85.08,21.38l-3.37,3.37H61.17ZM60.58,25.34H81.12L66.6,39.86H46.06Zm-20.13,0H59.74L45.22,39.86H40.45Zm0,15.11h4.17l-4.17,4.17Zm0,5,5-5H66L61.56,44.9H55v6.58L51.48,55H44.9v6.58L40.45,66Zm11.27,70-6.24-6.24v-6.29L55,112.39v3ZM55,116v2.65L52.32,116Zm-4.09-.59h-5.4V110Zm-5.4-13.36V88.66L55,98.14v13.41Zm0-14.25V83.18L55,73.7V97.3Zm0-5.48V68.93L55,59.45V72.86Zm0-14.25V61.8l6.24-6.24H55v3Zm0-7.12v-5.4h5.4Zm6.83-6L55,52.32V55ZM40.45,66.84,44.9,62.4v6.29l-4.44,4.44Zm0,7.13,4.44-4.44V82.93l-2.15,2.15-2.3-2.3Zm4.44,9.81v3.46L43.17,85.5Zm-4.44-.15,1.88,1.88-1.88,1.88Zm0,4.59,2.3-2.3,2.15,2.15v13.41L40.45,97Zm0,9.66,4.44,4.44v6.29l-4.44-4.44Zm0,7.12,4.44,4.44V116h6.58L55,119.52v6.58h6.58L66,130.55H45.47l-5-5Zm0,21.38,4.17,4.17H40.45Zm0,19.29V131.14h4.77l14.52,14.52Zm5.61-14.52H66.6l14.52,14.52H60.58Zm28.75,28.75L61.17,146.25H81.71l3.37,3.37Zm7.74-13.64h5.9l-3,3Zm13.64,13.64L85.92,149.63l3.37-3.37h20.54Zm14.23-14.23H89.88l14.52-14.52h20.54Zm20.13,0H111.26l14.52-14.52h4.77Zm0-15.11h-4.17l4.17-4.17Zm0-5-5,5H105l4.44-4.44H116v-6.58l3.49-3.49h6.58v-6.58l4.44-4.44Zm-11.27-70,6.24,6.24v6.29L116,58.61v-3ZM116,55V52.32L118.68,55Zm4.09.59h5.4V61Zm5.4,13.36V82.34L116,72.86V59.45Zm0,14.25v4.64L116,97.3V73.7Zm0,5.48v13.41L116,111.55V98.14Zm0,14.25v6.29l-6.24,6.24H116v-3Zm0,7.13v5.4h-5.4Zm-6.83,6L116,118.68V116Zm11.87-11.87-4.44,4.44v-6.29l4.44-4.44Zm0-7.12-4.44,4.44V88.07l2.15-2.15,2.3,2.3Zm-4.44-9.81V83.77l1.73,1.73Zm4.44.15-1.88-1.88,1.88-1.88Zm0-4.59-2.3,2.3-2.15-2.15V69.52L130.55,74Zm0-9.66-4.44-4.44V62.4l4.44,4.44Zm0-7.12-4.44-4.44V55h-6.58L116,51.48V44.9h-6.58L105,40.45h20.54l5,5Zm0-21.37-4.17-4.17h4.17Zm0-4.77h-4.77L111.26,25.34h19.29Zm.59,34.7L135,78.38l-3.82,3.82Zm0,14.25L135,92.63l-3.82,3.82Zm14.52,41.74H131.14v-4.77l14.52-14.52Zm0-20.13-14.52,14.52V104.4l14.52-14.52Zm0-21.37-14.52,14.52V97.28l4.65-4.65L131.14,88V83l4.65-4.65-4.65-4.65V67.43L145.66,82Zm0-7.93L131.14,66.6V46.06l14.52,14.52Zm0-21.37L131.14,45.22V40.45h14.52Zm.59,1.43,13.64,13.64L149.63,85.08l-3.37-3.37Zm0,21.38,3,3-3,3Zm13.64,13.64-13.64,13.64V89.29l3.37-3.37ZM105.95,77V70.09h-5v-5H94l-4.91-4.91L85.5,63.71l-3.56-3.56L77,65.05H70.09v5h-5V77l-4.91,4.91,3.56,3.56-3.56,3.56L65.05,94v6.94h5v5H77l4.91,4.91,3.56-3.56,3.56,3.56L94,105.95h6.94v-5h5V94l4.91-4.91-3.56-3.56,3.56-3.56Zm-40.9,16.1L61,89.06l3.14-3.14.93.93Zm0-7.12-.51-.51.51-.51Zm0-1.85-.93.93L61,81.94l4.07-4.07Zm5,16.16H65.64V94.56L70.09,99Zm0-2.15-4.44-4.44V87.44l4.44,4.44Zm0-7.12L65.64,86.6V84.4L70.09,80Zm0-11.93-4.44,4.44V77.28l4.44-4.44Zm0-7.12-4.44,4.44V70.68h4.44Zm28.08-1.9H91.88l-4.44-4.44h6.29Zm-7.12,0H80l4.44-4.44h2.2Zm-2-9.11,4.07,4.07H86.85l-.93-.93ZM86,65.05H85l.51-.51ZM81.94,61l3.14,3.14-.93.93H77.87Zm-4.66,4.66h6.29l-4.44,4.44H72.83Zm-6.59,0h5.75L72,70.09H70.68Zm0,5h.72l-.72.72Zm0,1.56,1.56-1.56h6.29l-7.84,7.84Zm0,20.24,7.84,7.84H72.24l-1.56-1.56Zm0,7.13.72.72h-.72Zm0,5.75v-4.44H72l4.44,4.44Zm2.15-4.44h6.29l4.44,4.44H77.28Zm7.13,0H91l-4.44,4.44H84.4Zm2,9.11-4.07-4.07h6.29l.93.93ZM85,105.95h1l-.51.51ZM89.06,110l-3.14-3.14.93-.93h6.29Zm4.66-4.66H87.44l4.44-4.44h6.29Zm6.59,0H94.56L99,100.91h1.31Zm0-5H99.6l.72-.72Zm0-1.56-1.56,1.56H92.48l7.84-7.84Zm0-7.12-8.68,8.68H79.36l-8.68-8.68V79.36l8.68-8.68H91.64l8.68,8.68Zm0-13.11-7.84-7.84h6.29l1.56,1.56Zm0-7.12-.72-.72h.72Zm0-1.31H99l-4.44-4.44h5.75Zm5,30.23h-4.44V99l4.44-4.44Zm0-6.59-4.44,4.44V91.88l4.44-4.44Zm0-7.12L100.91,91V80l4.44,4.44Zm0-3-4.44-4.44V72.83l4.44,4.44Zm0-7.12L100.91,72V70.68h4.44Zm.59,8.56.51.51-.51.51ZM110,89.06l-4.07,4.07V86.85l.93-.93Zm-3.14-4-.93-.93V77.87L110,81.94Z"/><rect class="cls-1" y="64.13" width="171" height="42.75"/><path class="cls-2" d="M33.23,77.75c3,0,4.65,1.35,4.65,4a3.63,3.63,0,0,1-1.69,3.38c1.33.5,2.1,1.71,2.1,3.68,0,2.35-1.29,4.47-4.65,4.47H29V77.75Zm-1.62,6.36h1.67c1.44,0,2-.88,2-2.17S34.88,80,33,80h-1.4Zm0,6.95h1.83c1.56,0,2.23-.86,2.23-2.35,0-1.65-.74-2.35-2.48-2.35H31.61Z"/><path class="cls-2" d="M41.29,93.31l4.35-15.57h2.57l4.38,15.57H49.82L49,90.09H44.83L44,93.31Zm4.13-5.48h3L47,81.69Z"/><path class="cls-2" d="M62.68,82.57c-.25-1.89-.93-2.75-2.17-2.75-1.53,0-2.28,1.35-2.28,4.71v2c0,3.32.74,4.71,2.28,4.71,1.29,0,1.89-.86,2.17-2.75h2.48c-.45,3.5-2.05,5-4.65,5-2.89,0-4.9-2.1-4.9-7v-2c0-4.9,2-7,4.9-7,2.5,0,4.22,1.65,4.65,5Z"/><path class="cls-2" d="M77,93.31l-3.23-6.93-1.67,2.93v4H69.45V77.75h2.62v7.33l4.08-7.33h2.93L75.49,84l4.38,9.34Z"/><path class="cls-2" d="M90,81.49a2.58,2.58,0,0,0-2.46-1.67c-1.26,0-1.85.72-1.85,2,0,1.49.81,2.08,2.5,2.55,2.66.74,3.88,2,3.88,4.65a4.18,4.18,0,0,1-4.42,4.47A5.33,5.33,0,0,1,82.78,91l2-1.4a3,3,0,0,0,2.73,1.67c1.51,0,2-.95,2-2.08s-.5-2-2.57-2.59c-2.46-.7-3.81-2.08-3.81-4.71a4,4,0,0,1,4.4-4.31A4.69,4.69,0,0,1,92,80.09Z"/><path class="cls-2" d="M104.67,77.75V80h-3.5V93.31H98.55V80h-3.5V77.75Z"/><path class="cls-2" d="M106.4,93.31l4.35-15.57h2.57l4.38,15.57h-2.78l-.81-3.23h-4.17l-.79,3.23Zm4.13-5.48h3l-1.49-6.14Z"/><path class="cls-2" d="M130.27,85.33v1.2c0,5-1.8,7-4.67,7s-4.9-2.1-4.9-7V84.65c0-5,2-7.11,4.9-7.11,2.64,0,4.26,1.76,4.65,5h-2.48c-.23-1.8-.88-2.75-2.17-2.75-1.53,0-2.28,1.35-2.28,4.71v2c0,3.36.74,4.71,2.28,4.71s2.08-1.13,2.17-3.63h-2.12V85.33Z"/><path class="cls-2" d="M142.82,77.75V80h-5.3v4.11h4.74v2.26h-4.74v4.67h5.3v2.26H134.9V77.75Z"/></g></g></svg>