<svg xmlns="http://www.w3.org/2000/svg" xmlns:xlink="http://www.w3.org/1999/xlink" viewBox="0 0 360 360"><defs><style>.cls-1{fill:#121921;}.cls-2{fill:#fff;}.cls-3{fill:url(#New_Gradient_Swatch_19);}.cls-4{fill:url(#linear-gradient);}.cls-5{fill:url(#New_Gradient_Swatch_18);}</style><linearGradient id="New_Gradient_Swatch_19" x1="303.75" y1="39.38" x2="332.67" y2="39.38" gradientUnits="userSpaceOnUse"><stop offset="0" stop-color="#61c4b4" stop-opacity="0"/><stop offset="1" stop-color="#61c4b4"/></linearGradient><linearGradient id="linear-gradient" x1="309.21" y1="39.38" x2="328.8" y2="39.38" gradientUnits="userSpaceOnUse"><stop offset="0" stop-color="#61c4b4"/><stop offset="1" stop-color="#61c4b4" stop-opacity="0"/></linearGradient><linearGradient id="New_Gradient_Swatch_18" x1="68.32" y1="68.04" x2="291.97" y2="291.69" gradientUnits="userSpaceOnUse"><stop offset="0" stop-color="#b0ded5"/><stop offset="1" stop-color="#61c4b4"/></linearGradient></defs><title>founders-talk-cover-art</title><g id="Layer_2" data-name="Layer 2"><g id="Layer_1-2" data-name="Layer 1"><rect class="cls-1" width="360" height="360"/><path class="cls-2" d="M323.31,37.48a3.25,3.25,0,1,0-2.61,5.22,3.34,3.34,0,0,0,2.65-1.44L325,42.79a5.5,5.5,0,1,1-4.26-8.88,5.4,5.4,0,0,1,4.22,2Z"/><path class="cls-3" d="M320.61,56.25h-.33a16.75,16.75,0,0,1-12.07-5.41,16.93,16.93,0,0,1,0-22.92,16.88,16.88,0,0,1,24.32-.47.46.46,0,1,1-.64.64,16,16,0,0,0-23,.45,16,16,0,0,0,0,21.68,16,16,0,0,0,23,.45.46.46,0,1,1,.64.64A16.73,16.73,0,0,1,320.61,56.25Z"/><path class="cls-4" d="M320.6,50.78h-.39a11.4,11.4,0,0,1,0-22.79,11.44,11.44,0,0,1,8.46,3.33A.46.46,0,0,1,328,32a10.54,10.54,0,0,0-7.78-3.07,10.49,10.49,0,0,0,0,21A10.54,10.54,0,0,0,328,46.79a.46.46,0,0,1,.64.64A11.45,11.45,0,0,1,320.6,50.78Z"/><path class="cls-5" d="M180.08,21.89,68.18,68.18,22,179.78l-.1.25,45.9,110.69.1.25L180,338.14l111.58-46.21.25-.1L338,180.25l.1-.25L291.93,68.43l-.1-.25L180.33,22ZM336.71,180l-45.9,110.82L180,336.7,68.9,290,23.31,180,69.19,69.19,180.08,23.33,290.81,69.19ZM63.35,131.52v96.09l68.27,69.18h96.76l68.42-68.41V131.62L228.39,63.2H131.63Zm164.49-67,67.63,67.64v95.67l-67.65,67.63H132.18l-67.5-68.4v-95l67.5-67.55ZM179.71,275.34l.25.1,67.59-28,27.74-67.17.1-.25-27.92-67.5L180,84.62l-67.44,27.91L84.6,180l27.94,67.46ZM113.54,113.55,180,86.06l66.49,27.49L274,180l-27.42,66.41L180,274l-66.41-27.56L86,180Zm94,133,39.19-39.13v-54.9l-39.2-39.13H152.43l-39.19,39.13v54.9l39.2,39.13Zm-93-93.48L153,114.75H207l38.42,38.35v53.8L207,245.25H153L114.56,206.9Zm106.25,67.71L237.72,180l-16.9-40.8L180,122.29l-40.81,16.9L122.29,180l16.9,40.81L180,237.71ZM123.73,180l16.48-39.8L180,123.72l39.8,16.48L236.29,180l-16.49,39.8L180,236.28l-39.8-16.48Z"/><rect class="cls-1" y="135" width="360" height="90"/><path class="cls-2" d="M37.57,163.67v4.8H26.41v9.41h10v4.75h-10v13.82H20.9V163.67Z"/><path class="cls-2" d="M43.41,182.15V178c0-10.31,4.23-14.73,10.31-14.73S64,167.66,64,178v4.18c0,10.31-4.23,14.73-10.31,14.73S43.41,192.45,43.41,182.15ZM48.92,178v4.18c0,7.08,1.57,10,4.8,10s4.8-2.9,4.8-10V178c0-7.08-1.57-10-4.8-10S48.92,170.89,48.92,178Z"/><path class="cls-2" d="M92.43,163.67v19.48c0,9.69-4.32,13.73-10.26,13.73s-10.26-4-10.26-13.68V163.67h5.51v19.52c0,6.27,1.38,8.88,4.75,8.88s4.75-2.61,4.75-8.88V163.67Z"/><path class="cls-2" d="M121.5,163.67v32.78h-5L106.92,177v19.43h-5.51V163.67h4.89L116,183.38V163.67Z"/><path class="cls-2" d="M130.48,196.44V163.67h9.45c6,0,10.31,3.94,10.31,14.44V182c0,10.5-4.27,14.44-10.31,14.44ZM144.73,182v-3.9c0-6.74-1.19-9.69-4.8-9.69H136v23.28h3.94C143.54,191.69,144.73,188.75,144.73,182Z"/><path class="cls-2" d="M174.8,163.67v4.8H163.64v8.65h10v4.75h-10v9.83H174.8v4.75H158.13V163.67Z"/><path class="cls-2" d="M196.55,196.44l-4.84-13.3h-4.13v13.3h-5.51V163.67h9.55c6.17,0,10,3.28,10,9.79,0,4.51-1.71,7.41-4.66,8.74l5.56,14.25Zm-5.46-18.05c3.33,0,5-1.23,5-4.94s-1.71-5-5-5h-3.52v10Z"/><path class="cls-2" d="M223.15,171.55C222,169.32,220.59,168,218,168s-3.9,1.52-3.9,4.27c0,3.14,1.71,4.37,5.27,5.37,5.6,1.57,8.17,4.13,8.17,9.79,0,4.89-2.95,9.41-9.31,9.41-4.66,0-8-1.71-10.31-5.37l4.23-2.94c1.57,2.33,2.95,3.51,5.75,3.51,3.18,0,4.13-2,4.13-4.37,0-2.61-1-4.23-5.42-5.46-5.18-1.47-8-4.37-8-9.93,0-4.94,2.85-9.07,9.26-9.07,4.28,0,7.41,1.71,9.41,5.37Z"/><path class="cls-2" d="M265.47,163.67v4.8h-7.36v28H252.6v-28h-7.36v-4.8Z"/><path class="cls-2" d="M267.23,196.44l9.17-32.78h5.42L291,196.44h-5.84l-1.71-6.79h-8.79L273,196.44Zm8.69-11.54h6.37L279.15,172Z"/><path class="cls-2" d="M302.57,191.69h11.16v4.75H297.06V163.67h5.51Z"/><path class="cls-2" d="M335.68,196.44l-6.79-14.58L325.37,188v8.41h-5.51V163.67h5.51v15.44l8.6-15.44h6.17l-7.55,13.11,9.22,19.67Z"/></g></g></svg>