<svg xmlns="http://www.w3.org/2000/svg" viewBox="0 0 171 171"><defs><style>.cls-1{fill:#121921}.cls-2{fill:url(#New_Gradient_Swatch_4)}.cls-3{fill:#fff}.cls-4{fill:url(#linear-gradient)}.cls-5{fill:url(#linear-gradient-2)}</style><linearGradient id="New_Gradient_Swatch_4" x1="32.69" y1="32.39" x2="138.91" y2="138.61" gradientUnits="userSpaceOnUse"><stop offset="0" stop-color="#b0e2fa"/><stop offset="1" stop-color="#5acbf5"/></linearGradient><linearGradient id="linear-gradient" x1="144.28" y1="18.7" x2="158.02" y2="18.7" gradientUnits="userSpaceOnUse"><stop offset="0" stop-color="#5acbf5" stop-opacity="0"/><stop offset="1" stop-color="#5acbf5"/></linearGradient><linearGradient id="linear-gradient-2" x1="146.87" y1="18.7" x2="156.18" y2="18.7" gradientUnits="userSpaceOnUse"><stop offset="0" stop-color="#5acbf5"/><stop offset="1" stop-color="#5acbf5" stop-opacity="0"/></linearGradient></defs><title>go-time-cover-art</title><g id="Layer_2" data-name="Layer 2"><g id="Layer_1-2" data-name="Layer 1"><path class="cls-1" d="M0 0h171v171H0z"/><path class="cls-2" d="M160.91 85.5a32.91 32.91 0 0 0-3.1-13.91 33.43 33.43 0 0 0-2.45-14.42 32.93 32.93 0 0 0-8.46-12 33.41 33.41 0 0 0-8-12.76 32.91 32.91 0 0 0-12-7.64 33.43 33.43 0 0 0-11.9-8.49 32.93 32.93 0 0 0-14.5-2.52 33.47 33.47 0 0 0-14.7-3.37 33.49 33.49 0 0 0-14.25 3.17 32.91 32.91 0 0 0-14.07 2.38 33.41 33.41 0 0 0-12.32 8.65 32.93 32.93 0 0 0-12.46 7.8 33.43 33.43 0 0 0-7.85 12.33 32.91 32.91 0 0 0-8.26 11.61A33.41 33.41 0 0 0 14 71.17a32.93 32.93 0 0 0-3.3 14.33 33.43 33.43 0 0 0 3.17 14.27 32.91 32.91 0 0 0 2.38 14.05 33.41 33.41 0 0 0 8.65 12.32 32.93 32.93 0 0 0 7.8 12.46 33.43 33.43 0 0 0 12.3 7.86 32.91 32.91 0 0 0 11.62 8.26 33.48 33.48 0 0 0 13 2.65h1.65a33.47 33.47 0 0 0 14.48 3.28 33.49 33.49 0 0 0 14.07-3.09h1.59a33.5 33.5 0 0 0 12.66-2.5 32.93 32.93 0 0 0 12-8.46 33.41 33.41 0 0 0 12.76-8 32.91 32.91 0 0 0 7.64-12 33.43 33.43 0 0 0 8.53-11.94 32.93 32.93 0 0 0 2.52-14.49 33.41 33.41 0 0 0 3.39-14.67zm-.59 0a32.86 32.86 0 0 1-2.85 13.44 34.37 34.37 0 0 0-3.8-12.94 34.13 34.13 0 0 0 1.54-3.18 33.63 33.63 0 0 0 2.5-10 32.28 32.28 0 0 1 2.6 12.68zm-14.26 40.74a33 33 0 0 1-9.53 5.92c-1 .39-1.92.73-2.9 1a33.47 33.47 0 0 0 .88-14.9A33.18 33.18 0 0 0 147.9 112a33.71 33.71 0 0 1-1.85 14.23zM23.69 112a33.18 33.18 0 0 0 12.91 6.16 33.5 33.5 0 0 0 .79 14.43c-1-.31-1.94-.66-2.89-1.06a33 33 0 0 1-9.11-5.74 33.72 33.72 0 0 1-1.7-13.79zm-.24-55.91a33 33 0 0 1 1.89-11.06A33.71 33.71 0 0 1 37.82 38a33.18 33.18 0 0 0-.75 14.77 33.47 33.47 0 0 0-13.47 6.41c-.09-1.01-.15-2.04-.15-3.07zM148 59.18a33.5 33.5 0 0 0-13-6.33 33.18 33.18 0 0 0-.66-14.29 33.73 33.73 0 0 1 12 6.91 33 33 0 0 1 1.76 10.64c.04 1.03-.01 2.06-.1 3.07zm-32.57 78.69a12.15 12.15 0 0 1-4.79 9.66 32.59 32.59 0 0 1-13.21-4.88c.51-.76 1-1.54 1.44-2.35a5.28 5.28 0 1 0 3.68-9.89q.27-1.35.43-2.72a33.42 33.42 0 0 0 8.1 4.86 34.1 34.1 0 0 0 3.65 1.29 12.09 12.09 0 0 1 .69 4.03zM56.17 33.13a12.15 12.15 0 0 1 4.68-9.57 32.85 32.85 0 0 1 13.33 4.82q-.77 1.12-1.44 2.32A5.28 5.28 0 1 0 69 40.59c-.18.9-.32 1.81-.42 2.72a33.43 33.43 0 0 0-9.3-5.31c-.8-.3-1.61-.56-2.41-.79a12.09 12.09 0 0 1-.7-4.08zM132.3 60a32.81 32.81 0 0 1-5 8.25q-.83-.08-1.66-.12a14.49 14.49 0 0 1-8.64-3.35 14.49 14.49 0 0 1 .26-9.24c.19-.52.37-1 .53-1.58a32.83 32.83 0 0 1 10.85-1.39 32 32 0 0 1 5.65.74A33.23 33.23 0 0 1 132.3 60zm-15.87 46.1c-.24.2-.49.39-.72.6a32.66 32.66 0 0 1-4 3.15 33.78 33.78 0 0 0 1.82-3.67q.34-.81.64-1.63.65-.59 1.27-1.21a33.75 33.75 0 0 0 2.71-3.07 32.68 32.68 0 0 1-1.39 4.93c-.15.3-.24.6-.33.9zm-10.25 10.1c-.23.07-.45.13-.68.22a32.69 32.69 0 0 1-4.93 1.39 33.76 33.76 0 0 0 3.07-2.71c.36-.36.72-.74 1.06-1.12.48-.17 1-.35 1.44-.55a33.76 33.76 0 0 0 3.69-1.78 32.68 32.68 0 0 1-3.19 4c-.16.19-.31.35-.46.56zm-5.07 9.09a15.08 15.08 0 0 0-5.66-3.06 3.28 3.28 0 0 0 .55-1.43 33.21 33.21 0 0 0 3.48-2.19 33.26 33.26 0 0 0 6-1.56 15.08 15.08 0 0 0-2.92 8.09 12.75 12.75 0 0 0-1.45.16zm1.44.43c0 .26 0 .53-.05.79l-.8-.71c.3-.03.57-.05.85-.07zm-34 0h.69l-.66.57c.01-.17 0-.38-.01-.58zm0-.6A15.09 15.09 0 0 0 65.8 117h.08a33.25 33.25 0 0 0 6.2 1.63 33.21 33.21 0 0 0 3.48 2.19A3.19 3.19 0 0 0 76 122a15.08 15.08 0 0 0-6.12 3.17 12.81 12.81 0 0 0-1.34-.06zm-3.94-9.7a32.66 32.66 0 0 1-3.15-4 33.78 33.78 0 0 0 3.67 1.82q.81.34 1.63.64.59.65 1.21 1.27a33.76 33.76 0 0 0 3.03 2.66 32.68 32.68 0 0 1-4.93-1.39c-.3-.11-.6-.2-.9-.29a9.15 9.15 0 0 0-.58-.72zm-9.72-10.21a32.69 32.69 0 0 1-1.39-4.93 33.76 33.76 0 0 0 2.71 3.07c.37.37.74.72 1.12 1.06.17.48.35 1 .55 1.44a33.76 33.76 0 0 0 1.78 3.69 32.68 32.68 0 0 1-4-3.19c-.17-.16-.36-.31-.54-.46s-.12-.46-.25-.68zm.29-40.31c.24-.2.49-.39.72-.6a32.68 32.68 0 0 1 4.05-3.15A33.86 33.86 0 0 0 57.62 66c-.05.13-.09.27-.14.4l-.32.28a33.87 33.87 0 0 0-3.67 4 32.69 32.69 0 0 1 1.39-4.94c.12-.24.19-.54.28-.84zm10.25-10.1c.23-.07.45-.13.68-.22A32.71 32.71 0 0 1 71 53.19a33.86 33.86 0 0 0-4 3.67l-.14.16-.2.07a33.86 33.86 0 0 0-4.94 2.26 32.72 32.72 0 0 1 3.2-4c.19-.19.34-.35.49-.56zm5.07-9.09a15.08 15.08 0 0 0 5.66 3.06 3.28 3.28 0 0 0-.58 1.44 33.18 33.18 0 0 0-3.48 2.18 33.26 33.26 0 0 0-6 1.56 15.08 15.08 0 0 0 2.9-8.09 12.75 12.75 0 0 0 1.48-.16zm-1.5-.44q0-.39.05-.78l.79.71c-.23.03-.51.05-.84.07zm34 0h-.69l.65-.57c.04.19.04.39.04.59zm0 .6a15.09 15.09 0 0 0 2.79 8.13h-.08a33.25 33.25 0 0 0-6.2-1.63A33.16 33.16 0 0 0 96 50.2a3.19 3.19 0 0 0-.41-1.2 15.08 15.08 0 0 0 6.12-3.17 12.81 12.81 0 0 0 1.35.06zm3.94 9.7a32.68 32.68 0 0 1 3.15 4.05 33.86 33.86 0 0 0-4.91-2.32l-.4-.14-.28-.32a33.87 33.87 0 0 0-4-3.67 32.69 32.69 0 0 1 4.94 1.39c.29.11.6.2.89.29.27.26.46.5.67.74zm9.72 10.21a32.69 32.69 0 0 1 1.39 4.94 33.86 33.86 0 0 0-3.67-4l-.16-.14-.07-.2a33.86 33.86 0 0 0-2.15-4.93 32.72 32.72 0 0 1 4 3.2c.17.16.36.31.54.46s.1.46.18.68zM96 120.12a3.09 3.09 0 0 0-.3-1.12c.84 0 1.67-.11 2.49-.21q-1.05.71-2.19 1.33zm-3.15 1.62c-.31 0-.62-.07-.94-.08-.51 0-1-.06-1.53-.11a4.82 4.82 0 0 0-1.89-1c.74-.24 1.49-.51 2.22-.81q.82-.33 1.61-.7H95a2.55 2.55 0 0 1 .43 1.39c-.57.31-1.15.6-1.75.88-.24.12-.51.27-.79.42zm-1.81 1.15a1.64 1.64 0 0 0-.18-.71l1 .07H92c-.31.2-.62.41-.92.63zm-11.64-.73l1.31-.07a1.66 1.66 0 0 0-.23.8q-.48-.4-1.05-.74zm-.23-.58c-.24 0-.47 0-.71.05s-.41-.23-.63-.33a31.8 31.8 0 0 1-1.75-.88 2.55 2.55 0 0 1 .43-1.39h2.47c.46.22.93.43 1.41.63.81.34 1.63.64 2.46.92a4.86 4.86 0 0 0-1.6.86c-.65.06-1.34.11-2.04.13zm-5.81-2.78c.83.1 1.66.17 2.49.21a3.09 3.09 0 0 0-.34 1.11q-1.06-.62-2.11-1.33zM58 66.8a32 32 0 0 1 4.25-3.2 33.14 33.14 0 0 0-2.06 4.67 33.14 33.14 0 0 0-3.55 3.67A32 32 0 0 1 58 66.8zm9.25-9.26a32 32 0 0 1 5.36-1.37 33.14 33.14 0 0 0-3.84 3.66 33.15 33.15 0 0 0-4.85 2.12 32 32 0 0 1 3.31-4.42zm8.32-6.64a3.09 3.09 0 0 0 .32 1.1q-1.26.06-2.5.21 1.05-.7 2.16-1.32zm3.15-1.62c.31 0 .62.07.94.08.51 0 1 .06 1.53.11a4.82 4.82 0 0 0 1.89 1 34.1 34.1 0 0 0-3.43 1.33l-.38.19h-2.69a2.55 2.55 0 0 1-.43-1.39c.57-.31 1.15-.6 1.75-.88.25-.15.53-.3.8-.45zm1.81-1.15a1.64 1.64 0 0 0 .18.71l-1-.07h-.08c.27-.22.58-.43.88-.65zm11.64.73l-1.31.07a1.66 1.66 0 0 0 .23-.8q.51.38 1.07.72zm.23.58c.24 0 .47 0 .71-.05s.42.23.63.33c.59.27 1.17.57 1.75.88A2.55 2.55 0 0 1 95 52h-2.47l-.19-.1a34.05 34.05 0 0 0-3.68-1.46 4.87 4.87 0 0 0 1.6-.87c.74-.07 1.43-.12 2.13-.14zm5.81 2.78Q97 52.06 95.7 52a3.09 3.09 0 0 0 .3-1.11q1.15.62 2.2 1.32zm9.5 9.72a33.14 33.14 0 0 0-4.71-2.06 33.14 33.14 0 0 0-3.67-3.55 32 32 0 0 1 5.14 1.36 32 32 0 0 1 3.23 4.24zm6.06 5a32 32 0 0 1 1.37 5.35 33.15 33.15 0 0 0-3.65-3.84 33.15 33.15 0 0 0-2.12-4.86 32 32 0 0 1 4.39 3.34zm-19.2 51.51h-1.08l.68-.36a5 5 0 0 1 .4.35zm-2.33 0a33.08 33.08 0 0 1-5.24-.72 33.12 33.12 0 0 0 3.66-1.32 10.52 10.52 0 0 1 3 1.32q-.66.33-1.42.67zm-6.44 1.72a9.85 9.85 0 0 0-1.82.17 33.2 33.2 0 0 1-3.32-1.19l-.38-.17a33.56 33.56 0 0 0 5.52-.98 33.55 33.55 0 0 0 5.3.9l-.57.25c-1 .42-2.07.78-3.12 1.09a10 10 0 0 0-1.61-.12zm-8.47-2l.57.3H77c.12-.13.22-.23.33-.32zm.51-.4a10.39 10.39 0 0 1 3.09-1.38 33.12 33.12 0 0 0 3.66 1.32 33.09 33.09 0 0 1-5.45.73c-.43-.24-.87-.44-1.3-.69zM77 52.55h1.1l-.67.37a5 5 0 0 1-.43-.37zm2.34.06a32 32 0 0 1 5.26.74 33.05 33.05 0 0 0-3.6 1.32 10.62 10.62 0 0 1-3.09-1.35q.73-.37 1.45-.71zm6.44-1.72a9.84 9.84 0 0 0 1.83-.17 33.24 33.24 0 0 1 3.67 1.36 32.62 32.62 0 0 0-5.5.95 32.61 32.61 0 0 0-5.29-.93 33.29 33.29 0 0 1 3.68-1.33 10 10 0 0 0 1.63.11zm8.46 2l-.55-.3h.87c-.09.07-.19.17-.3.27zm-.51.39a10.48 10.48 0 0 1-3.19 1.41A33.05 33.05 0 0 0 87 53.35a32 32 0 0 1 5.47-.75c.41.21.85.4 1.28.66zm14.93 47.63a33.42 33.42 0 0 1-2.73 2.36 33.21 33.21 0 0 0 1.86-3.38 34 34 0 0 0 2.11-2.7 33.4 33.4 0 0 1-1.22 3.7zm-7.61 7.62a33.42 33.42 0 0 1-3.59 1.18 33.21 33.21 0 0 0 2.87-2.26 33.21 33.21 0 0 0 3.2-1.77 33.43 33.43 0 0 1-2.46 2.82zm-33-2.85a33.19 33.19 0 0 0 3.05 1.7 33.21 33.21 0 0 0 2.72 2.19 33.42 33.42 0 0 1-3.42-1.16 33.4 33.4 0 0 1-2.4-2.75zm-5.25-4.89a33.41 33.41 0 0 1-1.26-3.88 34 34 0 0 0 2.18 2.85 33.2 33.2 0 0 0 1.93 3.52 33.42 33.42 0 0 1-2.86-2.51zm-4-21a33.39 33.39 0 0 1 1.75-3.4 34 34 0 0 0-.47 3.56 33.18 33.18 0 0 0-1.06 3.55 33.85 33.85 0 0 1-.18-3.71zm4.26-9.86a33.39 33.39 0 0 1 2.78-2.37 34 34 0 0 0-1.7 3 33.19 33.19 0 0 0-2.25 2.74 33.85 33.85 0 0 1 1.21-3.37zm7.48-7.35a33.85 33.85 0 0 1 3.57-1.17q-1.34.94-2.59 2a33.19 33.19 0 0 0-3.26 1.76 33.85 33.85 0 0 1 2.33-2.58zm32.7 2.59a33.19 33.19 0 0 0-3.12-1.69q-1.18-1-2.45-1.93a33.85 33.85 0 0 1 3.41 1.16q1.19 1.18 2.2 2.47zm6.52 8.38a33.18 33.18 0 0 0-2.32-2.89 34 34 0 0 0-1.78-3.12 33.39 33.39 0 0 1 2.9 2.49 33.85 33.85 0 0 1 1.24 3.53zm2.73 9.93a33.19 33.19 0 0 0-1-3.4 34 34 0 0 0-.42-3.4 33.37 33.37 0 0 1 1.68 3.32 33.85 33.85 0 0 1-.22 3.5zm-.88 4.68c0-.94-.06-1.88-.15-2.82q.13-1.5.12-3c.26.93.49 1.88.67 2.84q-.25 1.51-.6 2.99zM100 106.93q-.85.41-1.73.77.86-.56 1.69-1.18t1.52-1q-.7.73-1.48 1.41zm-8.93 5.63a33.42 33.42 0 0 1-3.6-.26 33.2 33.2 0 0 0 3.35-1 33.21 33.21 0 0 0 3.48-.38 33.41 33.41 0 0 1-3.21 1.64zM77 110.86a33.2 33.2 0 0 0 3.62.43 33.21 33.21 0 0 0 3.52 1 33.43 33.43 0 0 1-3.77.26 33.44 33.44 0 0 1-3.37-1.69zm-7.11-5.53c.55.39 1.12.77 1.7 1.13s1.16.84 1.75 1.23c-.63-.26-1.25-.54-1.87-.84q-.85-.73-1.62-1.52zM60.5 88.25c.12.67.24 1.33.4 2s.17 1.13.28 1.69q-.36-.91-.66-1.83c-.03-.63-.03-1.24-.02-1.86zm20-29.7a33.84 33.84 0 0 1 3.59.26 33.94 33.94 0 0 0-3.33.94 33.94 33.94 0 0 0-3.45.39 33.85 33.85 0 0 1 3.19-1.59zm14.1 1.69a33.93 33.93 0 0 0-3.6-.45 33.92 33.92 0 0 0-3.48-1 33.84 33.84 0 0 1 3.74-.26 33.84 33.84 0 0 1 3.34 1.71zM107 71q.4.8.75 1.62-.45-.67-.94-1.32t-1-1.52q.62.61 1.19 1.22zm1.51 24a33.42 33.42 0 0 1-2.11 4.16 32.14 32.14 0 0 1-3.17 3.7 33.43 33.43 0 0 1-3.59 3.14 32.13 32.13 0 0 1-4.54 2.29 33.42 33.42 0 0 1-4.54 1.48 33.42 33.42 0 0 1-9.66 0 33.41 33.41 0 0 1-4.66-1.57 32.14 32.14 0 0 1-4.35-2.2 33.43 33.43 0 0 1-3.52-3.06 32.12 32.12 0 0 1-3.3-3.94A33.43 33.43 0 0 1 63 94.79a32.14 32.14 0 0 1-1.49-4.64 33.43 33.43 0 0 1-.33-4.66 32.12 32.12 0 0 1 .41-5.07 33.43 33.43 0 0 1 1.53-4.5 32.14 32.14 0 0 1 2.23-4.34 33.43 33.43 0 0 1 3.06-3.52 32.13 32.13 0 0 1 3.85-3.28 33.43 33.43 0 0 1 4.28-2.11 32.14 32.14 0 0 1 4.66-1.49 33.15 33.15 0 0 1 9.37 0 32.12 32.12 0 0 1 4.82 1.59 33.42 33.42 0 0 1 4.15 2.1 32.14 32.14 0 0 1 3.71 3.18 33.42 33.42 0 0 1 3.14 3.62 32.14 32.14 0 0 1 2.26 4.51 33.43 33.43 0 0 1 1.45 4.43 32.14 32.14 0 0 1 .37 4.86 33.42 33.42 0 0 1-.34 4.73 32.12 32.12 0 0 1-1.62 4.86zm-27.74 15.3c.6.15 1.21.29 1.81.41q-.94 0-1.88-.06-.89-.31-1.76-.68c.61.19 1.22.3 1.83.39zm4.86.87c1 .1 2 .16 3 .17q-1.42.39-2.88.65-1.52-.27-3-.68 1.46.05 2.88-.08zm3.06-.42c.67-.12 1.33-.26 2-.42s1.32-.21 2-.35c-.63.26-1.27.5-1.91.73-.72.09-1.41.1-2.09.1zm1.94-50.19c-.45-.11-.89-.21-1.34-.3.53 0 1.06 0 1.59.06s.92.33 1.37.51q-.8-.1-1.62-.22zM86 59.82q-1.46-.14-2.91-.15 1.37-.36 2.76-.61 1.46.26 2.9.65-1.42 0-2.75.11zm-3.33.44q-.79.15-1.58.33t-1.71.28q.76-.3 1.52-.56c.55-.02 1.1-.04 1.72-.04zm28 20.24c-.1-.67-.23-1.34-.38-2 .24.57.47 1.14.68 1.72q.07 1 .08 1.95-.19-.84-.4-1.67zM99.83 64.4c-.55-.4-1.11-.78-1.68-1.14.58.23 1.15.48 1.71.74q.73.64 1.43 1.32-.71-.48-1.46-.92zm-4.48-2.75c-.74-.38-1.48-.73-2.24-1q1.49.2 3 .53 1.09.71 2.13 1.5c-.97-.42-1.92-.75-2.89-1.04zm-9.55-3.19a34.4 34.4 0 0 0-3.95-.46A33.75 33.75 0 0 1 86 56.74 33.74 33.74 0 0 1 89.92 58a34.4 34.4 0 0 0-4.12.46zm-7.17 2.07c-.81.34-1.61.71-2.39 1.11s-1.79.58-2.66.92q1.11-.83 2.28-1.56c.91-.19 1.83-.35 2.77-.47zm-5.19 2.72c-.51.33-1 .66-1.5 1s-.93.56-1.38.85q.65-.62 1.32-1.2.77-.33 1.56-.65zm-8.61 8q-.52.68-1 1.39.39-.9.83-1.77c.42-.45.85-.89 1.29-1.32-.38.56-.76 1.12-1.11 1.7zm-3.85 9q-.21.79-.37 1.58 0-.89.09-1.78.29-.8.63-1.58c-.13.62-.25 1.22-.33 1.82zm3.58 19.07q.41.7.85 1.38-.62-.65-1.2-1.32-.36-.77-.68-1.56c.34.55.68 1.05 1.04 1.54zM76 109.27c.84.45 1.7.85 2.58 1.23q-1.53-.2-3-.54-1.24-.8-2.39-1.71 1.31.58 2.81 1.02zm9.84 3.38a33.77 33.77 0 0 0 3.93.46 33.31 33.31 0 0 1-4.11 1.26 33.3 33.3 0 0 1-3.93-1.24 33.77 33.77 0 0 0 4.07-.48zm7.11-2.08q1.39-.59 2.73-1.3c.91-.28 1.81-.6 2.69-1q-1.22.94-2.53 1.77-1.47.35-2.93.53zm14-11c.4-.55.78-1.11 1.15-1.68-.23.57-.47 1.14-.74 1.7q-.64.74-1.32 1.43.42-.75.86-1.48zm3.78-9.21c.14-.59.27-1.18.38-1.78v1.7q-.28.85-.61 1.68.07-.82.19-1.63zm0-12.24q-.59-1.38-1.31-2.7c-.29-.9-.61-1.78-1-2.64q.94 1.19 1.77 2.47c.24.92.41 1.88.54 2.84zm-4.77-9c-.67-.66-1.37-1.29-2.1-1.88q-1-1.15-2-2.21 1.27.71 2.48 1.53.86 1.23 1.66 2.55zm-9.68-8.53a34.39 34.39 0 0 0-3.61-2 33.73 33.73 0 0 1 4.12.37 33.75 33.75 0 0 1 3.3 2.76 34.4 34.4 0 0 0-3.8-1.14zM91.36 58a34.42 34.42 0 0 0-4.12-1.49 33.2 33.2 0 0 1 4.54-.58 33.19 33.19 0 0 1 4 2.3 34.42 34.42 0 0 0-4.42-.23zm-1.48-2.5l.64-.16.16.07zm-3.88.63l-1.27-.29h1.09c.61 0 1.21 0 1.79-.08q-.84.18-1.61.37zm-.18-.85A18.77 18.77 0 0 1 82 54.9a32.4 32.4 0 0 1 3.81-1.26 32.4 32.4 0 0 1 3.79 1.26 18.77 18.77 0 0 1-3.8.38zm-1.09 1.17A34.42 34.42 0 0 0 80.4 58a34.43 34.43 0 0 0-4.55.23A33.18 33.18 0 0 1 80 55.79a33.19 33.19 0 0 1 4.71.66zm-5.64 2.11a34.4 34.4 0 0 0-3.47 1.9 34.4 34.4 0 0 0-4 1.13 33.74 33.74 0 0 1 3.19-2.65 33.74 33.74 0 0 1 4.26-.39zM69.87 65c-.67.65-1.31 1.34-1.92 2.06q-1.18.94-2.26 2c.49-.84 1-1.65 1.59-2.44q1.26-.93 2.59-1.62zm-6.65 7.62q-.59 1.38-1.05 2.81c-.45.83-.86 1.67-1.24 2.54q.22-1.51.57-3 .81-1.26 1.72-2.39zM60 82.24c0 .94 0 1.87.09 2.81-.11 1-.17 2-.19 3-.24-.94-.44-1.89-.6-2.85q.29-1.51.7-2.96zm-.08 8a33.19 33.19 0 0 0 .35 3.53 33.85 33.85 0 0 1-1.54-3.19A33.38 33.38 0 0 1 59 86.9a34 34 0 0 0 .93 3.3zm.77 2.13q.56 1.39 1.25 2.73c.27.9.58 1.79.92 2.67q-.92-1.22-1.72-2.52c-.14-1-.34-1.96-.44-2.92zm4.56 9.1c.65.67 1.34 1.31 2.06 1.92a33.13 33.13 0 0 0 2.2 2.49q-1.27-.73-2.48-1.57a32.74 32.74 0 0 1-1.78-2.88zm10 9.09a33.77 33.77 0 0 0 3.6 2 33.31 33.31 0 0 1-4.11-.38 33.32 33.32 0 0 1-3.3-2.75 33.76 33.76 0 0 0 3.82 1.09zm4.66 2.65h.29l.26.12a34.05 34.05 0 0 0 3.9 1.36 32.65 32.65 0 0 1-4.57.56 32.65 32.65 0 0 1-4-2.29 34.06 34.06 0 0 0 4.13.21zm1.18 2.53h-.12zm4.52-.73l.73.17H84.8zm.18.75a18.7 18.7 0 0 1 3.89.4 32.56 32.56 0 0 1-3.89 1.28 32.56 32.56 0 0 1-3.89-1.28 18.7 18.7 0 0 1 3.9-.44zm1.08-1.07a34.06 34.06 0 0 0 3.91-1.31l.42-.18h.46a34.05 34.05 0 0 0 4.12-.26 32.65 32.65 0 0 1-4.16 2.37 32.65 32.65 0 0 1-4.74-.65zm5.69-2.1a33.76 33.76 0 0 0 3.44-1.94 33.78 33.78 0 0 0 4-1.11 33.31 33.31 0 0 1-3.18 2.64 33.32 33.32 0 0 1-4.26.37zm9.39-6.64q1.11-1.12 2.12-2.34 1.15-1 2.21-2-.79 1.4-1.71 2.73-1.27.82-2.57 1.57zm6.71-8c.37-.93.7-1.88 1-2.84s.82-1.69 1.18-2.56q-.18 1.51-.5 3-.79 1.18-1.67 2.35zm2.95-7.54a34 34 0 0 0 .95-3.46 33.4 33.4 0 0 1 .29 3.81 33.86 33.86 0 0 1-1.64 3.24 33.18 33.18 0 0 0 .41-3.65zm1.28-5.16a34.4 34.4 0 0 0 .41-3.89 33.38 33.38 0 0 1 1.31 4.16 33.73 33.73 0 0 1-1.21 3.9 33.75 33.75 0 0 0-.51-4.23zm.75-4.68c-.09-.23-.2-.45-.29-.67a34.41 34.41 0 0 0-.26-4.5 32.66 32.66 0 0 1 2.42 4.2 33.17 33.17 0 0 1-.62 4.67 34.08 34.08 0 0 0-1.25-3.76zm-.9-2a33.75 33.75 0 0 0-2-3.52 34.41 34.41 0 0 0-1.15-3.93 33.36 33.36 0 0 1 2.71 3.2 33.74 33.74 0 0 1 .44 4.19zm-3.22-8.42l-.41-.39a34.41 34.41 0 0 0-1.77-3.76 33.2 33.2 0 0 1 3.62 2.8 33.18 33.18 0 0 1 1.15 4.2 34.08 34.08 0 0 0-2.59-2.91zM108 68.71a33.75 33.75 0 0 0-3.31-2.59 34.41 34.41 0 0 0-2.29-2.85 33.76 33.76 0 0 1 3.8 2 33.73 33.73 0 0 1 1.8 3.44zm-6.58-6.5a34.43 34.43 0 0 0-3.38-3.06 33.19 33.19 0 0 1 4.61 1.24 33.18 33.18 0 0 1 2.88 3.8 34.42 34.42 0 0 0-4.07-1.99zM97 58.36a33.92 33.92 0 0 0-4-2.53 32.44 32.44 0 0 1 5.17.3 32.44 32.44 0 0 1 3.7 3.35A33.92 33.92 0 0 0 97 58.36zm-5.1-3.08l-.5-.28a10 10 0 0 0 2.91-1.46 32 32 0 0 1 2.88 1.84 33.15 33.15 0 0 0-5.29-.1zM80.19 55l-.33.16a33.13 33.13 0 0 0-5.1.08q1.26-.88 2.61-1.64a10.09 10.09 0 0 0 2.82 1.4zm-2.32.69h.9a33.92 33.92 0 0 0-4.21 2.63 33.93 33.93 0 0 0-4.65 1.07A32.44 32.44 0 0 1 73.79 56a32.4 32.4 0 0 1 4.08-.28zm-4.35 3.43a34.42 34.42 0 0 0-3.26 2.94 34.43 34.43 0 0 0-4 1.86 33.19 33.19 0 0 1 2.8-3.62 33.19 33.19 0 0 1 4.45-1.15zm-4.24 4a34.4 34.4 0 0 0-2.42 3 33.73 33.73 0 0 0-3.18 2.48 33.74 33.74 0 0 1 1.91-3.6 33.74 33.74 0 0 1 3.68-1.87zm-6.66 6.46l-.53.51a34.09 34.09 0 0 0-2.6 2.91 33.17 33.17 0 0 1 1.2-4.41 33.18 33.18 0 0 1 3.8-2.88 34.42 34.42 0 0 0-1.88 3.87zm-.53 1.36a34.41 34.41 0 0 0-1.13 3.75 33.75 33.75 0 0 0-2.09 3.64 33.72 33.72 0 0 1 .4-4.07 33.38 33.38 0 0 1 2.81-3.31zm-3.83 8.71c-.08.17-.16.34-.23.51a34.08 34.08 0 0 0-1.3 3.68 33.18 33.18 0 0 1-.55-4.49 32.66 32.66 0 0 1 2.34-4 34.4 34.4 0 0 0-.27 4.31zm0 1.46a34.4 34.4 0 0 0 .42 4.07 33.74 33.74 0 0 0-.5 4A33.73 33.73 0 0 1 57 85.11a33.36 33.36 0 0 1 1.28-3.99zm-.14 9.52v.73a34.06 34.06 0 0 0 .26 4.12A32.65 32.65 0 0 1 56 91.33a32.66 32.66 0 0 1 .67-5 34.41 34.41 0 0 0 1.48 4.31zm.62 1.37a34.41 34.41 0 0 0 1.85 3.45 33.76 33.76 0 0 0 1.18 4.29 33.3 33.3 0 0 1-2.64-3.17 33.35 33.35 0 0 1-.39-4.57zm3.34 8.93l.21.2.1.27a34.06 34.06 0 0 0 1.79 3.72 32.65 32.65 0 0 1-3.62-2.84 32.65 32.65 0 0 1-1.21-4.44 34.07 34.07 0 0 0 2.73 3.07zm1.28 1.22a33.77 33.77 0 0 0 3.24 2.57 33.77 33.77 0 0 0 2.46 3.11 33.33 33.33 0 0 1-3.79-2 33.3 33.3 0 0 1-1.91-3.7zm6.28 6.59l.43.17.32.33a34.07 34.07 0 0 0 3.1 2.73 32.65 32.65 0 0 1-4.62-1.27 32.64 32.64 0 0 1-2.92-3.8 34.06 34.06 0 0 0 3.69 1.82zm4.88 4a33.33 33.33 0 0 0 4 2.5 32.53 32.53 0 0 1-5.13-.34 32.55 32.55 0 0 1-3.71-3.31 33.31 33.31 0 0 0 4.84 1.14zm3.62 3.11h1.54l.42.19a9.88 9.88 0 0 0-2.83 1.43 33 33 0 0 1-2.86-1.81 33.12 33.12 0 0 0 3.72.18zm13.36.15l.25-.11h1.75a33.12 33.12 0 0 0 3.32-.17q-1.25.86-2.58 1.6A10 10 0 0 0 91.5 116zm1.37-.67a33.32 33.32 0 0 0 4.21-2.59 33.33 33.33 0 0 0 4.62-1.08 32.54 32.54 0 0 1-3.87 3.34 32.55 32.55 0 0 1-4.96.32zm5.25-3.37a34.06 34.06 0 0 0 3.1-2.73l.2-.21.27-.1a34.07 34.07 0 0 0 3.72-1.79 32.66 32.66 0 0 1-2.84 3.62 32.65 32.65 0 0 1-4.46 1.2zm4.31-4a33.77 33.77 0 0 0 2.57-3.26 33.76 33.76 0 0 0 3.11-2.46 33.32 33.32 0 0 1-2 3.79 33.3 33.3 0 0 1-3.69 1.91zm6.59-6.28c.06-.14.11-.29.17-.43l.33-.32a34.06 34.06 0 0 0 2.73-3.1 32.65 32.65 0 0 1-1.27 4.62 32.65 32.65 0 0 1-3.8 2.92 34.06 34.06 0 0 0 1.82-3.71zm.7-1.81a33.75 33.75 0 0 0 1.17-4.11 34.41 34.41 0 0 0 2-3.59 33.33 33.33 0 0 1-.39 4.4 33.32 33.32 0 0 1-2.79 3.27zm3.74-9a34.4 34.4 0 0 0 1.44-4.09 32.66 32.66 0 0 1 .6 4.78 32.65 32.65 0 0 1-2.29 4 34.06 34.06 0 0 0 .26-4.12c0-.25-.01-.44-.02-.63zm1.77-5.35a33.91 33.91 0 0 0 .8-4.8 32.54 32.54 0 0 1 1.67 4.84 32.54 32.54 0 0 1-1.7 4.8 33.33 33.33 0 0 0-.78-4.9zm.89-6.05a33.13 33.13 0 0 0-.09-5 32.05 32.05 0 0 1 2.67 4.61 33.08 33.08 0 0 1-.7 5.22 33.11 33.11 0 0 0-1.89-4.89zm-.55-1.1A33.33 33.33 0 0 0 112.9 74a33.93 33.93 0 0 0-1-4.44 32.44 32.44 0 0 1 3.44 3.87 32.42 32.42 0 0 1 .22 4.88zm-5-10.66a33.93 33.93 0 0 0-3.87-2.79 33.92 33.92 0 0 0-2.86-4.05 32.44 32.44 0 0 1 4.5 2.17 32.45 32.45 0 0 1 2.22 4.61zM98.41 55.57a32.64 32.64 0 0 0-3.61-2.4 4.92 4.92 0 0 0 .53-.59 32.89 32.89 0 0 1 3.95.37 33.09 33.09 0 0 1 4.36 3.81 32.61 32.61 0 0 0-5.23-1.19zM87.65 50.1l-.37-.1q.78-.15 1.57-.26a6.9 6.9 0 0 1-1.2.36zm-1.59.18h-.13.07zm-1.91-.14a6.71 6.71 0 0 1-1.73-.54q1.16.15 2.3.38zm-7.9 2.43a5 5 0 0 0 .61.65 32.64 32.64 0 0 0-3.32 2.19 32.61 32.61 0 0 0-5.46 1.2A33.07 33.07 0 0 1 72.31 53a32.89 32.89 0 0 1 3.95-.42zm-8.31 8.15a33.93 33.93 0 0 0-2.8 3.88 33.92 33.92 0 0 0-4 2.86A32.43 32.43 0 0 1 63.27 63a32.45 32.45 0 0 1 4.68-2.27zm-8.17 8.69A33.92 33.92 0 0 0 58.69 74a33.34 33.34 0 0 0-2.57 4.09 32.43 32.43 0 0 1 .31-5 32.44 32.44 0 0 1 3.35-3.67zm-4.22 9.82a33.1 33.1 0 0 0-2 5.06 33.09 33.09 0 0 1-.73-5.44 32.06 32.06 0 0 1 2.82-4.77 33.14 33.14 0 0 0-.07 5.16zm.08 1.25a33.91 33.91 0 0 0 .72 4.62 33.32 33.32 0 0 0-.86 5.09 32.55 32.55 0 0 1-1.61-4.7 32.54 32.54 0 0 1 1.77-5zm-.23 11a33.11 33.11 0 0 0 .12 5.07 33.08 33.08 0 0 1-2.64-4.58 33.08 33.08 0 0 1 .72-5.24 33.11 33.11 0 0 0 1.81 4.72zm.6 1.09a33.31 33.31 0 0 0 2.59 4.21 33.32 33.32 0 0 0 1.08 4.62 32.54 32.54 0 0 1-3.39-3.87 32.55 32.55 0 0 1-.28-4.96zm4.07 10a33.11 33.11 0 0 0 2.15 4.81 33.09 33.09 0 0 1-4.37-3.33 33.09 33.09 0 0 1-1.38-5.32A33.11 33.11 0 0 0 60 102.6zm1 .83a33.33 33.33 0 0 0 3.84 2.79 33.32 33.32 0 0 0 2.87 4 32.55 32.55 0 0 1-4.46-2.19 32.54 32.54 0 0 1-2.32-4.57zm7.53 7.76a33.11 33.11 0 0 0 3.67 3.5 33.08 33.08 0 0 1-5.1-1.37 33.08 33.08 0 0 1-3.2-4.21 33.11 33.11 0 0 0 4.55 2.11zm4.66 4.28a33.49 33.49 0 0 0 3.61 2.37 4.9 4.9 0 0 0-.53.59 33 33 0 0 1-3.94-.39 33.06 33.06 0 0 1-3.94-3.36l-.43-.45a33.56 33.56 0 0 0 5.15 1.27zM84 120.89l.34.1q-.77.15-1.55.26a6.93 6.93 0 0 1 1.21-.36zm1.6-.18zm1.87.14a6.7 6.7 0 0 1 1.75.55c-.77-.1-1.54-.24-2.31-.39zm7.91-2.43a5 5 0 0 0-.61-.66 33.47 33.47 0 0 0 3.34-2.16 33.56 33.56 0 0 0 5.45-1.23l-.29.3a33.06 33.06 0 0 1-3.99 3.33 33 33 0 0 1-3.94.43zm3.62-3.57a33.11 33.11 0 0 0 3.85-3.6 33.11 33.11 0 0 0 4.81-2.15 33.09 33.09 0 0 1-3.33 4.37 33.09 33.09 0 0 1-5.33 1.38zm4.67-4.55a33.33 33.33 0 0 0 2.79-3.84 33.32 33.32 0 0 0 4-2.87 32.55 32.55 0 0 1-2.19 4.46 32.54 32.54 0 0 1-4.55 2.25zm7.76-7.53A33.11 33.11 0 0 0 115 99.1a33.08 33.08 0 0 1-1.37 5.1 33.09 33.09 0 0 1-4.21 3.2 33.11 33.11 0 0 0 2.07-4.62zm.4-1.19a33.31 33.31 0 0 0 1.17-4.8 33.32 33.32 0 0 0 2.5-4 32.54 32.54 0 0 1-.34 5.13 32.54 32.54 0 0 1-3.28 3.68zm4.21-10A33.11 33.11 0 0 0 118 86.7a33.09 33.09 0 0 1 .73 5.44 33.09 33.09 0 0 1-2.79 4.73 33.11 33.11 0 0 0 .16-5.25zm2.21-6.12a33.54 33.54 0 0 0 .9-5.3 33.09 33.09 0 0 1 1.85 5.53 33 33 0 0 1-1.63 4.94l-.17.38a33.57 33.57 0 0 0-.89-5.51zm1.17-6.17l-.12-.29v-1.77a33.75 33.75 0 0 0-.25-4.09 32.7 32.7 0 0 1 2.51 4.48c.13.29.28.56.43.84 0 .31-.07.62-.08.94a32.69 32.69 0 0 1-.64 5.09 33.88 33.88 0 0 0-1.79-5.16zm-.73-2.14v.61a32.62 32.62 0 0 0-2.86-4.55 32.62 32.62 0 0 0-1.2-5.46 33.07 33.07 0 0 1 3.71 4.25 33.06 33.06 0 0 1 .41 5.19zm-5.43-11.43a32.62 32.62 0 0 0-4.56-3.22 32.62 32.62 0 0 0-3.08-4.4 33.08 33.08 0 0 1 5.18 2.6 33.06 33.06 0 0 1 2.52 5.06zm-18-15.93q-.58-.3-1.17-.58c.27 0 .55-.08.82-.14a2.9 2.9 0 0 1 .43.76zm-2.12-1.06a14.48 14.48 0 0 1-2.46-1.64 2.94 2.94 0 0 0-.8-.77 9.49 9.49 0 0 1 4.58 2.23q-.58.16-1.24.22zm-3.77-2c.28.28.57.55.88.8a1.11 1.11 0 0 1 .17.56A1.3 1.3 0 0 1 90 49a33.18 33.18 0 0 0-4 .66 33.19 33.19 0 0 0-4.57-.77 1.23 1.23 0 0 1-.33-.79 1.11 1.11 0 0 1 .17-.56c.3-.26.59-.52.88-.8a8.37 8.37 0 0 1 7.3 0zm-8.61.4a14.49 14.49 0 0 1-2.25 1.53c-.46-.06-.92-.13-1.37-.23a9.85 9.85 0 0 1 4.42-2.07 2.94 2.94 0 0 0-.73.77zm-3.14 2h-.07c-.46.21-.91.44-1.36.67a3 3 0 0 1 .5-.9c.37.1.69.17 1 .22zM66.05 58a32.62 32.62 0 0 0-3.22 4.56 32.61 32.61 0 0 0-4.4 3.08 33.08 33.08 0 0 1 2.57-5.2A33.07 33.07 0 0 1 66.05 58zm-9 9.68a32.61 32.61 0 0 0-1.19 5.24 32.62 32.62 0 0 0-3 4.71v-.41a33.06 33.06 0 0 1 .4-5.22 33.09 33.09 0 0 1 3.8-4.35zm-4.76 11.05l-.09.19A33.87 33.87 0 0 0 50.3 84a32.69 32.69 0 0 1-.58-5.09c0-.24 0-.47-.05-.71s.23-.41.33-.63a32.71 32.71 0 0 1 2.5-4.47 33.75 33.75 0 0 0-.25 4.09c0 .51.01 1.03.04 1.54zm.08 1.27a33.57 33.57 0 0 0 .91 5.51 33.55 33.55 0 0 0-.9 5.3c-.08-.19-.17-.38-.25-.57a33.06 33.06 0 0 1-1.57-5A33.06 33.06 0 0 1 52.37 80zm-.78 10.46q.33.82.7 1.61v1.75a33.75 33.75 0 0 0 .25 4.09A32.7 32.7 0 0 1 50 93.43c-.13-.29-.28-.56-.43-.84 0-.31.07-.62.08-.94a32.71 32.71 0 0 1 .64-5.09 33.76 33.76 0 0 0 1.3 3.89zm1.25 3.36v-.62a33.55 33.55 0 0 0 2.83 4.57 33.57 33.57 0 0 0 1.24 5.45l-.3-.29A33.06 33.06 0 0 1 53.26 99a33.06 33.06 0 0 1-.42-5.19zm5.57 11.81l-.15-.39a33.56 33.56 0 0 0 4.54 3.25 33.55 33.55 0 0 0 3.11 4.38l-.58-.23a33.07 33.07 0 0 1-4.6-2.39 33.07 33.07 0 0 1-2.32-4.62zm17.85 15.55c.39.2.78.39 1.17.57-.27 0-.55.08-.82.14a2.9 2.9 0 0 1-.35-.71zm2.12 1.05a14.49 14.49 0 0 1 2.46 1.64 2.93 2.93 0 0 0 .8.77 9.49 9.49 0 0 1-4.58-2.23q.65-.12 1.32-.18zm3.77 2c-.28-.28-.57-.55-.87-.8a1.11 1.11 0 0 1-.17-.56 1.3 1.3 0 0 1 .44-.91 33.21 33.21 0 0 0 4-.67 33.22 33.22 0 0 0 4.57.78 1.23 1.23 0 0 1 .34.8 1.11 1.11 0 0 1-.17.56c-.3.25-.59.52-.87.8a8.37 8.37 0 0 1-7.3 0zm8.61-.4a14.48 14.48 0 0 1 2.24-1.49c.46.06.92.13 1.37.23a9.85 9.85 0 0 1-4.37 2.07 2.94 2.94 0 0 0 .76-.77zm3.14-2h.07q.69-.32 1.36-.66a3 3 0 0 1-.49.89c-.31-.06-.62-.13-.94-.18zm12-9l-.39.15a33.57 33.57 0 0 0 3.25-4.54 33.55 33.55 0 0 0 4.38-3.11c-.08.19-.15.38-.23.58a33.07 33.07 0 0 1-2.39 4.6 33.07 33.07 0 0 1-4.6 2.38zm9.05-10l-.45.43a33.55 33.55 0 0 0 1.23-5.23 33.56 33.56 0 0 0 3-4.73v.42a33.06 33.06 0 0 1-.41 5.17 33 33 0 0 1-3.32 4.03zm4.33-10.65c.22-.46.43-.93.63-1.41a33.76 33.76 0 0 0 1.38-3.77 32.7 32.7 0 0 1 .57 5.1c0 .24 0 .47.05.71s-.23.42-.33.63a32.67 32.67 0 0 1-2.51 4.47 33.75 33.75 0 0 0 .25-4.09c.02-.52.01-1.04-.01-1.55zm3.14-.41a33.25 33.25 0 0 0-.82-6.16 33.24 33.24 0 0 0 .91-6.34v-.08A15.08 15.08 0 0 0 129 85c.37.17.73.35 1.09.54-.36.18-.72.36-1.09.53a15.09 15.09 0 0 0-6.55 5.79zm6.79-7.44a14.5 14.5 0 0 1-6.61-6.14 14.5 14.5 0 0 1 3.8-8.18c.38-.41.75-.82 1.1-1.24a32.83 32.83 0 0 1 10.54 2.93 32 32 0 0 1 4.53 2.59 33.29 33.29 0 0 1-4.13 5 32.81 32.81 0 0 1-7.75 5.75q-.69-.26-1.45-.61zM126 69.7a15.09 15.09 0 0 0-3.83 7.69v-.07a33.26 33.26 0 0 0-3.24-5.55 33.26 33.26 0 0 0-1.56-6 15.09 15.09 0 0 0 8.26 2.93c.41 0 .81.05 1.21.08-.29.32-.56.63-.84.92zm-9.29-14.37a15.09 15.09 0 0 0-.51 8.75 33.25 33.25 0 0 0-4.92-3.77 33.25 33.25 0 0 0-3.85-5.13l-.05-.06a15.08 15.08 0 0 0 8.57-.54c.38-.14.77-.27 1.15-.39-.1.38-.24.81-.38 1.14zm-1-1.31a14.5 14.5 0 0 1-9 .33 14.5 14.5 0 0 1-3.09-8.47 12.77 12.77 0 0 0 11.3-7.64 32 32 0 0 1 3.16-.76 32.89 32.89 0 0 1-.77 16q-.77.25-1.55.52zm-12.14-8.74c0-.36 0-.71-.06-1.07a32.84 32.84 0 0 1 9.53-5.38l1.09-.37a12.17 12.17 0 0 1-10.51 6.82zm9.26-7a33.45 33.45 0 0 0-9.4 5.24q-.16-1.57-.47-3.12a5.28 5.28 0 0 0-3.67-9.86q-.71-1.25-1.52-2.42a32.88 32.88 0 0 1 12.92-4.56 12.12 12.12 0 0 1 3.77 14.18q-.77.26-1.58.54zm-12.21-5.14c-.32-.7-.67-1.39-1-2.06a4.68 4.68 0 0 1 3.25 8.73 33.71 33.71 0 0 0-2.2-6.68zm1.71 6.86a4.69 4.69 0 0 1-3.27-8.78c.38.69.74 1.39 1.07 2.12a33.1 33.1 0 0 1 2.2 6.66zm-4.84-12.37a32.87 32.87 0 0 0-2.67-3.26 12.13 12.13 0 0 1 15.26-1.31 33.42 33.42 0 0 0-12.59 4.57zm-.5.32a32.61 32.61 0 0 0-4.57 3.52c-.46.42-.89.86-1.32 1.3a12.11 12.11 0 0 1 3.31-8A32.29 32.29 0 0 1 97 27.95zm-4.16 4a32 32 0 0 1 4.5-3.47c.51.74 1 1.5 1.45 2.29a5.28 5.28 0 0 0 3.68 9.89 32.6 32.6 0 0 1 .48 3.33q-.64.53-1.26 1.09l-.14.12a12.17 12.17 0 0 1-10.43-11.57c.55-.63 1.12-1.17 1.72-1.73zm8.1 13.77a14.49 14.49 0 0 1-5.71 2.77c-1.13-1.34-3.3-2.38-6-2.85a14.47 14.47 0 0 1-2.32-3.54q-.35-.76-.73-1.5a32.65 32.65 0 0 1 4.41-6.33 12.78 12.78 0 0 0 10.34 11.4zm-14.6-3.42a15.06 15.06 0 0 0 2 3.16 19.87 19.87 0 0 0-5 0 15.06 15.06 0 0 0 2-3.16c.17-.37.35-.73.53-1.09.14.36.3.73.47 1.09zm-1.61-.25a14.47 14.47 0 0 1-2.32 3.54 10.58 10.58 0 0 0-5.85 2.67 14.49 14.49 0 0 1-5.33-2.7 12.78 12.78 0 0 0 9.83-11.33 32.64 32.64 0 0 1 4.41 6.33q-.39.74-.74 1.5zm-14.06 3l-.25-.22q-.61-.57-1.24-1.11c.1-1 .25-2 .45-3a5.28 5.28 0 0 0 3.66-9.82q.66-1.16 1.4-2.24a32 32 0 0 1 4.09 3.2c.6.55 1.17 1.13 1.72 1.72a12.18 12.18 0 0 1-9.83 11.5zm1.43-11.86c.28-.6.58-1.18.89-1.75a4.68 4.68 0 0 1-3.25 8.72 33.05 33.05 0 0 1 2.36-6.95zM69.17 40a4.69 4.69 0 0 1 3.27-8.78c-.31.57-.61 1.14-.88 1.74A33.66 33.66 0 0 0 69.17 40zm10-8.54A32.61 32.61 0 0 0 75 28.21a32.26 32.26 0 0 1 2.48-3.07 12.1 12.1 0 0 1 3 7.63 20.1 20.1 0 0 0-1.31-1.3zm-4.65-3.57a33.39 33.39 0 0 0-13-4.83A12.13 12.13 0 0 1 77.1 24.7a32.84 32.84 0 0 0-2.58 3.19zM59.07 38.51A32.83 32.83 0 0 1 68.53 44c0 .43-.07.86-.09 1.29h-.1a12.19 12.19 0 0 1-11.22-7.45c.66.22 1.31.43 1.95.67zm9.27 7.38h.06a14.49 14.49 0 0 1-3.33 8.39 14.49 14.49 0 0 1-9.23-.28q-.78-.29-1.58-.54A32.93 32.93 0 0 1 53.58 37q1.42.26 2.83.65a12.78 12.78 0 0 0 11.93 8.25zm-12.71 8.69a15.08 15.08 0 0 0 8.75.51A33.25 33.25 0 0 0 60.61 60a33.25 33.25 0 0 0-5.13 3.85l-.06.05a15.08 15.08 0 0 0-.54-8.57c-.14-.38-.27-.76-.4-1.15.38.13.77.26 1.15.4zm-1.31 1a14.5 14.5 0 0 1 .33 9 14.5 14.5 0 0 1-8.47 3.09q-.83 0-1.66.1a32.8 32.8 0 0 1-4.91-8.31 33.29 33.29 0 0 1-1.85-6.23 32 32 0 0 1 5.18-.63A32.83 32.83 0 0 1 53.78 54c.17.49.35 1 .54 1.54zM46.2 68.24a15.09 15.09 0 0 0 8.15-2.73v.08a33.26 33.26 0 0 0-1.62 6.19 33.24 33.24 0 0 0-3.14 5.36 15.09 15.09 0 0 0-3.77-7.91c-.27-.3-.54-.61-.8-.92zm-.85 1.39a14.49 14.49 0 0 1 3.72 8.46 14.49 14.49 0 0 1-6.71 6.35q-.76.35-1.49.73a32.8 32.8 0 0 1-7.75-5.75 33.23 33.23 0 0 1-4.4-5.42 32 32 0 0 1 5-2.81 32.83 32.83 0 0 1 10.58-2.81c.31.41.7.83 1.04 1.24zM42.6 85a15.09 15.09 0 0 0 6.54-5.83 33.24 33.24 0 0 0 .86 6.1 33.26 33.26 0 0 0-.91 6.36v.08A15.09 15.09 0 0 0 42.6 86l-1.09-.53c.36-.15.72-.33 1.09-.47zm-.25 1.61a14.5 14.5 0 0 1 6.65 6.1 14.5 14.5 0 0 1-3.8 8.18q-.57.61-1.11 1.24a32.8 32.8 0 0 1-9.35-2.4A33.29 33.29 0 0 1 29 96.64a32 32 0 0 1 3.22-4.11 32.84 32.84 0 0 1 8.66-6.69c.47.25.97.5 1.47.73zm3.24 14.72a15.09 15.09 0 0 0 3.83-7.69v.07a33.26 33.26 0 0 0 3.23 5.54 33.26 33.26 0 0 0 1.56 6 15.09 15.09 0 0 0-8.21-2.96l-1.21-.08c.21-.31.52-.62.8-.91zm.38 1.58a14.49 14.49 0 0 1 8.61 3.35 14.49 14.49 0 0 1-.26 9.24c-.19.52-.37 1-.53 1.57a32.81 32.81 0 0 1-9.55 1.42 33.24 33.24 0 0 1-6.94-.74 32 32 0 0 1 1.52-5.49 32.83 32.83 0 0 1 5.5-9.46c.54.01 1.09.05 1.68.08zm8.91 12.79a15.09 15.09 0 0 0 .51-8.75 33.26 33.26 0 0 0 4.93 3.77 33.26 33.26 0 0 0 3.84 5.13l.05.06a14.88 14.88 0 0 0-8.57.54l-1.15.4c.11-.42.24-.85.38-1.18zm1 1.31a14.5 14.5 0 0 1 9-.33 14.5 14.5 0 0 1 3.09 8.47 12.78 12.78 0 0 0-11.3 7.66q-1.56.46-3.15.77a32.89 32.89 0 0 1 .77-16c.5-.23 1.03-.41 1.55-.58zM68 125.72c0 .36 0 .71.07 1.06a32.81 32.81 0 0 1-8.31 4.91c-.76.31-1.53.58-2.31.83a12.17 12.17 0 0 1 10.55-6.8zm-8 6.53a33.4 33.4 0 0 0 8.16-4.76q.16 1.57.47 3.12a5.28 5.28 0 0 0 3.67 9.86q.71 1.26 1.51 2.45A32.58 32.58 0 0 1 61 147.53a12.12 12.12 0 0 1-3.88-14.26c.88-.27 1.88-.64 2.88-1.03zm10.45 4.4a34.11 34.11 0 0 0 1.55 3.28 4.69 4.69 0 0 1-3.24-8.73 33.61 33.61 0 0 0 1.64 5.44zM69.26 131a4.69 4.69 0 0 1 3.27 8.78 33.5 33.5 0 0 1-1.53-3.36 33 33 0 0 1-1.74-5.42zm4.84 12.4a33.18 33.18 0 0 0 2.63 3.27A12.12 12.12 0 0 1 61.65 148a33.16 33.16 0 0 0 12.45-4.6zm.5-.32a33.83 33.83 0 0 0 5.53-4.47l.37-.38a12.11 12.11 0 0 1-3.34 8 32.59 32.59 0 0 1-2.56-3.15zm5.11-4.89a33.24 33.24 0 0 1-5.45 4.4q-.77-1.13-1.44-2.32a5.28 5.28 0 0 0-3.68-9.9 32.64 32.64 0 0 1-.48-3.33c.43-.35.85-.71 1.26-1.09l.14-.12a12.17 12.17 0 0 1 10.42 11.54c-.25.28-.48.55-.77.82zm-9-12.86a14.49 14.49 0 0 1 5.71-2.77c1.13 1.34 3.3 2.38 6 2.85a14.47 14.47 0 0 1 2.32 3.54c.23.5.48 1 .74 1.49a32.69 32.69 0 0 1-4.41 6.32 12.78 12.78 0 0 0-10.4-11.43zm14.59 3.37a15.06 15.06 0 0 0-2-3.16 19.87 19.87 0 0 0 5 0 15.06 15.06 0 0 0-2 3.16c-.17.37-.35.73-.53 1.1-.16-.37-.34-.73-.51-1.1zm1.61.25a14.47 14.47 0 0 1 2.32-3.54 10.58 10.58 0 0 0 5.77-2.67 14.49 14.49 0 0 1 5.33 2.7 12.78 12.78 0 0 0-9.83 11.31 32.71 32.71 0 0 1-4.41-6.32c.3-.48.55-.98.78-1.49zm14.06-3l.25.22c.41.38.82.75 1.24 1.1q-.16 1.51-.45 3a5.28 5.28 0 0 0-3.66 9.82c-.44.78-.9 1.54-1.4 2.27a33.29 33.29 0 0 1-5-4.14c-.27-.27-.52-.54-.78-.81a12.18 12.18 0 0 1 9.76-11.49zM100 136.6q-.64 1.52-1.41 2.95a4.68 4.68 0 0 1 3.24-8.72 33 33 0 0 1-1.83 5.77zm2.4-5.6a4.69 4.69 0 0 1-3.27 8.78q.77-1.43 1.42-3a33.61 33.61 0 0 0 1.88-5.78zm-11 7.61a33.89 33.89 0 0 0 5.11 4.2 32.62 32.62 0 0 1-2.45 3.08 12.1 12.1 0 0 1-3-7.67zm5.62 4.52a33.16 33.16 0 0 0 12.92 4.87 12.12 12.12 0 0 1-15.42-1.69 33.22 33.22 0 0 0 2.56-3.18zM111.31 132a32.82 32.82 0 0 1-8.25-5c0-.43.07-.86.09-1.29h.1a12.19 12.19 0 0 1 11.22 7.46 33.53 33.53 0 0 1-3.16-1.17zm-8.05-6.9h-.06a14.49 14.49 0 0 1 3.33-8.39 14.49 14.49 0 0 1 9.24.26c.52.19 1 .37 1.57.53A32.92 32.92 0 0 1 118 134q-1.42-.27-2.83-.67a12.78 12.78 0 0 0-11.92-8.23zm12.74-8.68a14.91 14.91 0 0 0-8.75-.51A33.25 33.25 0 0 0 111 111a33.26 33.26 0 0 0 5.13-3.84l.06-.05a15.08 15.08 0 0 0 .54 8.57c.14.38.27.77.4 1.15zm1.31-1a14.5 14.5 0 0 1-.33-9 14.5 14.5 0 0 1 8.47-3.09c.56 0 1.11-.05 1.66-.1a32.84 32.84 0 0 1 5.38 9.53 32 32 0 0 1 1.37 5 33.29 33.29 0 0 1-6.47.63 32.8 32.8 0 0 1-9.55-1.42c-.2-.46-.37-.97-.56-1.51zm8.12-12.7a15.09 15.09 0 0 0-8.15 2.73v-.08a33.26 33.26 0 0 0 1.63-6.2 33.24 33.24 0 0 0 3.09-5.3 15.09 15.09 0 0 0 3.77 7.91c.27.3.54.61.8.92zm.85-1.39a14.49 14.49 0 0 1-3.72-8.46 14.49 14.49 0 0 1 6.71-6.35c.5-.23 1-.48 1.49-.74a32.84 32.84 0 0 1 8.66 6.69 32 32 0 0 1 3.45 4.53 33.24 33.24 0 0 1-6.15 3.3 32.81 32.81 0 0 1-9.37 2.29q-.54-.59-1.1-1.21zm13.58-9.25a33.43 33.43 0 0 0-8.48-6.62 33.41 33.41 0 0 0 7.55-5.67 33.89 33.89 0 0 0 4.19-5.1A32.89 32.89 0 0 1 153 86a32.6 32.6 0 0 1-9.63 10.7 32.6 32.6 0 0 0-3.54-4.57zm3.59-17.89a33.18 33.18 0 0 0 5-13.9 33.71 33.71 0 0 1 8.75 11.36 33 33 0 0 1-2.55 10.93c-.4 1-.85 1.88-1.33 2.78a33.47 33.47 0 0 0-9.9-11.13zm-.49-.34a32.61 32.61 0 0 0-4.6-2.63 33.43 33.43 0 0 0-10.36-2.9 33.42 33.42 0 0 0 4.86-8.1 33.84 33.84 0 0 0 2-6.79 32.92 32.92 0 0 1 13 6.45 32.6 32.6 0 0 1-4.93 14.01zm-8.51-21.17a32.6 32.6 0 0 0-5.73-.74A33.44 33.44 0 0 0 118 53.29a33.55 33.55 0 0 0 .69-15.93 32.33 32.33 0 0 1 5.36-.45 33.23 33.23 0 0 1 9.61 1.43 32.6 32.6 0 0 1 .76 14.38zm-15.88-15.89a33.35 33.35 0 0 0-1.89-5.94 5.27 5.27 0 0 0 4-7.12 33.41 33.41 0 0 1 5.9 1.53 33 33 0 0 1 5.92 9.52c.39 1 .73 1.92 1 2.9a33.47 33.47 0 0 0-14.93-.89zm1.84-11.14a4.68 4.68 0 0 1-4.19 4.66h-.4l.16.37a32.8 32.8 0 0 1 2 6.16c-.93.17-1.85.39-2.77.65a12.67 12.67 0 0 0-3.65-14.07 33.23 33.23 0 0 1 8.37.14 4.65 4.65 0 0 1 .48 2.09zM112 22.83a4.67 4.67 0 0 1 7.58.14 34.46 34.46 0 0 0-7.58-.14zm-1.07.11a12.69 12.69 0 0 0-16.49 1A33.79 33.79 0 0 0 86.83 18a33.72 33.72 0 0 1 13.5-3.67 33 33 0 0 1 10.84 8.55zM94 24.36a12.71 12.71 0 0 0-3.52 8.77v.27a33.25 33.25 0 0 0-4.7 6.54 33.25 33.25 0 0 0-4.7-6.54v-.27a12.7 12.7 0 0 0-3.2-8.43 33.16 33.16 0 0 1 8.3-6.34 33.2 33.2 0 0 1 7.82 6zm-16.5-.09a12.7 12.7 0 0 0-16.83-1.32h-.25a33 33 0 0 1 11.23-8.75A33.71 33.71 0 0 1 85.58 18a33.75 33.75 0 0 0-8.07 6.27zm-21.07-1a33.81 33.81 0 0 1 3.59.2A12.73 12.73 0 0 0 56.16 37c-.81-.22-1.63-.39-2.44-.54a32.83 32.83 0 0 1 1.89-5.69l.16-.37h-.4a4.68 4.68 0 0 1-3.71-6.71 33.85 33.85 0 0 1 4.78-.42zM52 23a4.67 4.67 0 0 1 7.58-.14A34.45 34.45 0 0 0 52 23zm2.88 7.88a33.38 33.38 0 0 0-1.78 5.46 33.5 33.5 0 0 0-14.44.79c.31-1 .66-1.94 1.06-2.89a33 33 0 0 1 5.75-9.12 33.44 33.44 0 0 1 5.53-1.4 5.27 5.27 0 0 0 4 7.12zm-1.91 6a33.46 33.46 0 0 0 .58 16.4A33.4 33.4 0 0 0 42.91 52a32.61 32.61 0 0 0-5.26.64 32.6 32.6 0 0 1 .84-14.84A32.93 32.93 0 0 1 53 36.89zm-15.8 16.45a33.89 33.89 0 0 0 1.89 6.33 33.4 33.4 0 0 0 4.76 8.16 33.44 33.44 0 0 0-10.38 2.81 32.6 32.6 0 0 0-5 2.85 32.6 32.6 0 0 1-4.73-13.6 32.89 32.89 0 0 1 13.46-6.55zm-9.26 20.49a33.5 33.5 0 0 0-9.64 10.76c-.47-.91-.9-1.83-1.29-2.79a33 33 0 0 1-2.38-10.5 33.72 33.72 0 0 1 8.54-11 33.18 33.18 0 0 0 4.77 13.53zm.32.5a33.84 33.84 0 0 0 4.46 5.51 33.4 33.4 0 0 0 7.55 5.67 33.44 33.44 0 0 0-8.48 6.62 32.61 32.61 0 0 0-3.26 4.18 32.6 32.6 0 0 1-9.9-11.1 32.92 32.92 0 0 1 9.63-10.88zm0 22.48a33.47 33.47 0 0 0-5 14.07c-.78-.65-1.54-1.34-2.27-2.07a33 33 0 0 1-6.48-9.16 33.71 33.71 0 0 1 3.82-13.82 33.18 33.18 0 0 0 9.88 10.98zm.48.34a33.89 33.89 0 0 0 5.81 3.14 33.42 33.42 0 0 0 9.14 2.4 33.43 33.43 0 0 0-5.41 9.32 32.6 32.6 0 0 0-1.54 5.57 32.6 32.6 0 0 1-13-6.27 32.89 32.89 0 0 1 4.95-14.16zm8.52 21.16a33.84 33.84 0 0 0 7.05.75 33.41 33.41 0 0 0 9.35-1.33 33.55 33.55 0 0 0-.68 15.94 32.6 32.6 0 0 1-14.83-.85 32.92 32.92 0 0 1-.94-14.51zm10.07 16.44a33.18 33.18 0 0 0 5.73-.51 33.36 33.36 0 0 0 1.88 5.92 5.28 5.28 0 0 0-3.91 7.24 32.69 32.69 0 0 1-5.65-1.45 33.71 33.71 0 0 1-7.07-12.47 33.27 33.27 0 0 0 9.02 1.27zm3.88 10.61a4.68 4.68 0 0 1 4.19-4.66h.4l-.16-.37a32.8 32.8 0 0 1-2-6.14c.93-.18 1.85-.4 2.76-.66a12.68 12.68 0 0 0 3.76 14.16h-.07v-.05.06a33.51 33.51 0 0 1-3.56.2 33.43 33.43 0 0 1-4.69-.33 4.66 4.66 0 0 1-.63-2.21zm5.22 3.09c1 0 2.08-.05 3.11-.15a4.67 4.67 0 0 1-7.39-.13 34.05 34.05 0 0 0 4.29.28zm4.39-.29a12.69 12.69 0 0 0 16.34-1 33.25 33.25 0 0 0 7.64 6c-.87.45-1.77.87-2.69 1.24a33 33 0 0 1-10.66 2.4 33 33 0 0 1-10.91-8.54zm16.76-1.47a12.71 12.71 0 0 0 3.55-8.81v-.27a33.32 33.32 0 0 0 4.7-6.55 33.33 33.33 0 0 0 4.7 6.55v.27a12.7 12.7 0 0 0 3.24 8.46 32.67 32.67 0 0 1-8.33 6.42 32.68 32.68 0 0 1-7.85-6.07zm16.57.1a12.7 12.7 0 0 0 16.67 1.37h.28a33 33 0 0 1-11.32 8.74 33 33 0 0 1-11.08-2.56c-.91-.39-1.8-.81-2.67-1.27a33.24 33.24 0 0 0 8.12-6.29zm21.06 1.07a33.52 33.52 0 0 1-3.57-.2v-.06.05h-.07a12.74 12.74 0 0 0 4-13.59q1.21.33 2.44.56a32.83 32.83 0 0 1-1.88 5.67l-.16.37h.4a4.68 4.68 0 0 1 3.65 6.82 33.43 33.43 0 0 1-4.8.37zm4.28.31a4.67 4.67 0 0 1-7.39.13c1 .09 2.06.15 3.11.15a34.05 34.05 0 0 0 4.29-.28zm-2.79-8a33.38 33.38 0 0 0 1.77-5.45 32.75 32.75 0 0 0 14.28-.66 33.72 33.72 0 0 1-6.92 12 32.7 32.7 0 0 1-5.22 1.31 5.28 5.28 0 0 0-3.91-7.24zm1.9-6a33.45 33.45 0 0 0-.58-16.42 33.41 33.41 0 0 0 9.35 1.33 33.89 33.89 0 0 0 6.57-.64 32.89 32.89 0 0 1-1 15 32.6 32.6 0 0 1-14.32.7zm15.82-16.44a32.61 32.61 0 0 0-1.39-5.11 33.45 33.45 0 0 0-5.24-9.4 33.39 33.39 0 0 0 9.16-2.29 33.84 33.84 0 0 0 6.25-3.35 32.92 32.92 0 0 1 4.65 13.77 32.6 32.6 0 0 1-13.41 6.35zm9.27-20.49a33.18 33.18 0 0 0 9.64-10.57 33.72 33.72 0 0 1 3.64 13.34 33 33 0 0 1-6.28 8.75c-.73.73-1.49 1.42-2.27 2.07a33.5 33.5 0 0 0-4.71-13.61zm11.13-39.81a32.88 32.88 0 0 1 2.44 13.06 34.35 34.35 0 0 0-8.7-10.81 34.13 34.13 0 0 0 .19-3.53 33.66 33.66 0 0 0-1.45-9.8 32.31 32.31 0 0 1 7.54 11.05zm-16.31-24.61A32.86 32.86 0 0 1 146 44.33a34.37 34.37 0 0 0-11.81-6.45 34.13 34.13 0 0 0-1.19-3.34 33.63 33.63 0 0 0-5.32-8.86 32.29 32.29 0 0 1 10.8 7.13zM102.17 14.3a32.29 32.29 0 0 1 12.56 2.53 32.88 32.88 0 0 1 11 7.51 34.09 34.09 0 0 0-5.35-1.26 5.28 5.28 0 0 0-8.79-.64 33.6 33.6 0 0 0-10-8.12zM85.8 11a32.9 32.9 0 0 1 13.42 2.86 34.37 34.37 0 0 0-13 3.85 34.35 34.35 0 0 0-13.39-4A32.9 32.9 0 0 1 85.8 11zm-28.1 5.5a32.29 32.29 0 0 1 12.73-2.37 33.58 33.58 0 0 0-10.37 8.31 5.28 5.28 0 0 0-8.79.64 34.12 34.12 0 0 0-4.94 1.13 32.86 32.86 0 0 1 11.37-7.73zM33.11 32.81a32.3 32.3 0 0 1 11.23-7.29A33.67 33.67 0 0 0 39.21 34 34.14 34.14 0 0 0 38 37.3a34.35 34.35 0 0 0-12.22 6.59 32.88 32.88 0 0 1 7.33-11.08zm-16 23.76a32.28 32.28 0 0 1 7.33-10.67 33.63 33.63 0 0 0-1.58 10.21 34.14 34.14 0 0 0 .14 3.53 34.37 34.37 0 0 0-8.51 10.42 32.85 32.85 0 0 1 2.64-13.49zM11.28 85.5a32.3 32.3 0 0 1 2.79-13.09A33.66 33.66 0 0 0 16.42 82a34.13 34.13 0 0 0 1.5 3.2 34.35 34.35 0 0 0-4 13.3 32.88 32.88 0 0 1-2.64-13zm5.5 28.1a32.28 32.28 0 0 1-2.37-12.71 33.63 33.63 0 0 0 6.1 8.34 34.14 34.14 0 0 0 2.63 2.36A34.37 34.37 0 0 0 24.49 125a32.86 32.86 0 0 1-7.71-11.4zm16.32 24.59A32.29 32.29 0 0 1 25.82 127a33.66 33.66 0 0 0 8.46 5.13 34.13 34.13 0 0 0 3.32 1.2 34.35 34.35 0 0 0 6.59 12.22 32.88 32.88 0 0 1-11.09-7.36zm23.76 16a32.28 32.28 0 0 1-10.66-7.31 33.32 33.32 0 0 0 5.14 1.2 5.27 5.27 0 0 0 8.72.52 33.59 33.59 0 0 0 10.13 8.19 32.86 32.86 0 0 1-13.33-2.62zM85.8 160a32.9 32.9 0 0 1-13.24-2.78 33.65 33.65 0 0 0 9.76-2.36q1.58-.65 3.08-1.44 1.48.81 3.06 1.47a33.61 33.61 0 0 0 10.16 2.52A32.91 32.91 0 0 1 85.8 160zm28.1-5.5A32.88 32.88 0 0 1 101 157a33.57 33.57 0 0 0 10.52-8.38 5.27 5.27 0 0 0 8.72-.52A33.36 33.36 0 0 0 125 147a32.3 32.3 0 0 1-11.1 7.51zm24.59-16.32a32.86 32.86 0 0 1-11.49 7.49 34.37 34.37 0 0 0 6.45-11.81 34.13 34.13 0 0 0 3.34-1.16 33.63 33.63 0 0 0 8.86-5.31 32.28 32.28 0 0 1-7.16 10.8zm16-23.76a32.88 32.88 0 0 1-7.51 11 34.35 34.35 0 0 0 1.49-13.8 34.14 34.14 0 0 0 2.63-2.36 33.66 33.66 0 0 0 5.9-7.94 32.3 32.3 0 0 1-2.53 13.11z"/><path class="cls-1" d="M0 64.13h171v42.75H0z"/><path class="cls-3" d="M54.9 85.33v1.2c0 5-1.8 7-4.67 7s-4.9-2.1-4.9-7v-1.88c0-5 2-7.11 4.9-7.11 2.64 0 4.26 1.76 4.65 5H52.4c-.23-1.8-.88-2.75-2.17-2.75-1.53 0-2.28 1.35-2.28 4.71v2c0 3.36.74 4.71 2.28 4.71s2.08-1.13 2.17-3.63h-2.12v-2.25zm4.1 1.19v-2c0-4.9 2-7 4.9-7s4.9 2.1 4.9 7v2c0 4.9-2 7-4.9 7s-4.9-2.1-4.9-7zm2.62-2v2c0 3.36.74 4.74 2.28 4.74s2.28-1.38 2.28-4.74v-2c0-3.36-.74-4.74-2.28-4.74s-2.29 1.39-2.29 4.76zm27.13-6.77V80h-3.5v13.31h-2.62V80h-3.5v-2.25zm6.63 15.56h-2.62V77.75h2.62zm11.4-6.77l3.47-8.8h2.57v15.57h-2.62v-9.14l-2.55 6.14h-1.74l-2.57-6.07v9.07h-2.62V77.75h2.55zm19.13-8.79V80h-5.3v4.11h4.74v2.26h-4.74v4.67h5.3v2.26H118V77.75zm27.66-59.95a1.54 1.54 0 1 0-1.24 2.48 1.59 1.59 0 0 0 1.26-.68l.78.73a2.61 2.61 0 1 1-2-4.22 2.57 2.57 0 0 1 2 1z"/><path class="cls-4" d="M152.29 26.72h-.16a8 8 0 0 1-5.73-2.57 8 8 0 0 1 0-10.89A8 8 0 0 1 158 13a.22.22 0 1 1-.31.31 7.58 7.58 0 0 0-10.93.21 7.61 7.61 0 0 0 0 10.3 7.58 7.58 0 0 0 10.93.21.22.22 0 1 1 .31.31 8 8 0 0 1-5.71 2.38z"/><path class="cls-5" d="M152.28 24.12h-.18a5.42 5.42 0 0 1 0-10.83 5.44 5.44 0 0 1 4 1.58.22.22 0 0 1-.31.31 5 5 0 0 0-3.7-1.46 5 5 0 0 0 0 10 5 5 0 0 0 3.7-1.46.22.22 0 1 1 .31.31 5.44 5.44 0 0 1-3.82 1.55z"/></g></g></svg>