<svg xmlns="http://www.w3.org/2000/svg" xmlns:xlink="http://www.w3.org/1999/xlink" viewBox="0 0 360 360"><defs><style>.cls-1{fill:#121921;}.cls-2{fill:url(#New_Gradient_Swatch_13);}.cls-3{fill:url(#New_Gradient_Swatch_13-2);}.cls-4{fill:url(#New_Gradient_Swatch_13-3);}.cls-5{fill:url(#New_Gradient_Swatch_13-4);}.cls-6{fill:url(#New_Gradient_Swatch_13-5);}.cls-7{fill:url(#New_Gradient_Swatch_13-6);}.cls-8{fill:#fff;}.cls-9{fill:url(#linear-gradient);}.cls-10{fill:url(#New_Gradient_Swatch_6);}</style><linearGradient id="New_Gradient_Swatch_13" x1="67.8" y1="292.2" x2="292.2" y2="67.8" gradientUnits="userSpaceOnUse"><stop offset="0" stop-color="#8fcfac"/><stop offset="1" stop-color="#61c192"/></linearGradient><linearGradient id="New_Gradient_Swatch_13-2" x1="142.31" y1="217.69" x2="217.69" y2="142.31" xlink:href="#New_Gradient_Swatch_13"/><linearGradient id="New_Gradient_Swatch_13-3" x1="127.4" y1="232.6" x2="232.6" y2="127.4" xlink:href="#New_Gradient_Swatch_13"/><linearGradient id="New_Gradient_Swatch_13-4" x1="112.5" y1="247.5" x2="247.5" y2="112.5" xlink:href="#New_Gradient_Swatch_13"/><linearGradient id="New_Gradient_Swatch_13-5" x1="97.6" y1="262.4" x2="262.4" y2="97.6" xlink:href="#New_Gradient_Swatch_13"/><linearGradient id="New_Gradient_Swatch_13-6" x1="82.7" y1="277.3" x2="277.3" y2="82.7" xlink:href="#New_Gradient_Swatch_13"/><linearGradient id="linear-gradient" x1="303.75" y1="39.38" x2="332.67" y2="39.38" gradientUnits="userSpaceOnUse"><stop offset="0" stop-color="#61c192" stop-opacity="0"/><stop offset="1" stop-color="#61c192"/></linearGradient><linearGradient id="New_Gradient_Swatch_6" x1="309.21" y1="39.38" x2="328.8" y2="39.38" gradientUnits="userSpaceOnUse"><stop offset="0" stop-color="#61c192"/><stop offset="1" stop-color="#61c192" stop-opacity="0"/></linearGradient></defs><title>master-cover-art</title><g id="Layer_2" data-name="Layer 2"><g id="Layer_1-2" data-name="Layer 1"><rect class="cls-1" width="360" height="360"/><path class="cls-2" d="M180,338.75C92.47,338.75,21.25,267.54,21.25,180S92.47,21.25,180,21.25,338.75,92.46,338.75,180,267.53,338.75,180,338.75ZM180,22.5C93.15,22.5,22.5,93.15,22.5,180S93.15,337.5,180,337.5,337.5,266.85,337.5,180,266.85,22.5,180,22.5Z"/><path class="cls-3" d="M180,233.33A53.33,53.33,0,1,1,233.33,180,53.39,53.39,0,0,1,180,233.33Zm0-105.42A52.08,52.08,0,1,0,232.08,180,52.14,52.14,0,0,0,180,127.92Z"/><path class="cls-4" d="M180,254.42A74.42,74.42,0,1,1,254.42,180,74.5,74.5,0,0,1,180,254.42Zm0-147.58A73.17,73.17,0,1,0,253.17,180,73.25,73.25,0,0,0,180,106.83Z"/><path class="cls-5" d="M180,275.5A95.5,95.5,0,1,1,275.5,180,95.61,95.61,0,0,1,180,275.5Zm0-189.75A94.25,94.25,0,1,0,274.25,180,94.36,94.36,0,0,0,180,85.75Z"/><path class="cls-6" d="M180,296.58A116.58,116.58,0,1,1,296.58,180,116.72,116.72,0,0,1,180,296.58Zm0-231.92A115.33,115.33,0,1,0,295.33,180,115.46,115.46,0,0,0,180,64.67Z"/><path class="cls-7" d="M180,317.67c-75.91,0-137.67-61.76-137.67-137.67S104.09,42.33,180,42.33,317.67,104.09,317.67,180,255.91,317.67,180,317.67Zm0-274.08c-75.22,0-136.42,61.2-136.42,136.42S104.78,316.42,180,316.42,316.42,255.22,316.42,180,255.22,43.58,180,43.58Z"/><path class="cls-8" d="M323.31,37.48a3.25,3.25,0,1,0-2.61,5.22,3.34,3.34,0,0,0,2.65-1.44L325,42.79a5.5,5.5,0,1,1-4.26-8.88,5.4,5.4,0,0,1,4.22,2Z"/><path class="cls-9" d="M320.61,56.25h-.33a16.75,16.75,0,0,1-12.07-5.41,16.93,16.93,0,0,1,0-22.92,16.88,16.88,0,0,1,24.32-.47.46.46,0,1,1-.64.64,16,16,0,0,0-23,.45,16,16,0,0,0,0,21.68,16,16,0,0,0,23,.45.46.46,0,1,1,.64.64A16.73,16.73,0,0,1,320.61,56.25Z"/><path class="cls-10" d="M320.6,50.78h-.39a11.4,11.4,0,0,1,0-22.79,11.44,11.44,0,0,1,8.46,3.33A.46.46,0,0,1,328,32a10.54,10.54,0,0,0-7.78-3.07,10.49,10.49,0,0,0,0,21A10.54,10.54,0,0,0,328,46.79a.46.46,0,0,1,.64.64A11.45,11.45,0,0,1,320.6,50.78Z"/><rect class="cls-1" y="135" width="360" height="90"/><path class="cls-8" d="M109.41,180.59l7.31-18.52h5.41v32.77h-5.51V175.6l-5.37,12.92h-3.66l-5.41-12.78v19.09H96.69V162.06h5.37Z"/><path class="cls-8" d="M130,194.84l9.17-32.77h5.41l9.21,32.77h-5.84L146.23,188h-8.79l-1.66,6.79Zm8.69-11.54H145l-3.13-12.92Z"/><path class="cls-8" d="M175.44,169.95c-1.19-2.23-2.56-3.51-5.18-3.51s-3.9,1.52-3.9,4.27c0,3.13,1.71,4.37,5.27,5.37,5.6,1.57,8.17,4.13,8.17,9.78,0,4.89-2.94,9.4-9.31,9.4-4.65,0-8-1.71-10.31-5.37l4.23-2.95c1.57,2.33,2.94,3.51,5.75,3.51,3.18,0,4.13-2,4.13-4.37,0-2.61-1-4.23-5.42-5.46-5.18-1.47-8-4.37-8-9.93,0-4.94,2.85-9.07,9.26-9.07,4.27,0,7.41,1.71,9.4,5.37Z"/><path class="cls-8" d="M206.26,162.06v4.8H198.9v28h-5.51v-28H186v-4.8Z"/><path class="cls-8" d="M231,162.06v4.8H219.85v8.64h10v4.75h-10v9.83H231v4.75H214.34V162.06Z"/><path class="cls-8" d="M254.67,194.84l-4.84-13.3h-4.13v13.3h-5.51V162.06h9.55c6.17,0,10,3.28,10,9.78,0,4.51-1.71,7.41-4.65,8.74l5.56,14.25Zm-5.46-18c3.33,0,5-1.23,5-4.94s-1.71-5-5-5h-3.51v10Z"/></g></g></svg>