<svg xmlns="http://www.w3.org/2000/svg" viewBox="0 0 171 171"><defs><style>.cls-1{fill:#121921}.cls-2{fill:#fff}.cls-3{fill:url(#New_Gradient_Swatch_13)}.cls-4{fill:url(#linear-gradient)}.cls-5{fill:url(#New_Gradient_Swatch_3)}</style><linearGradient id="New_Gradient_Swatch_13" x1="144.28" y1="18.7" x2="158.02" y2="18.7" gradientUnits="userSpaceOnUse"><stop offset="0" stop-color="#fece0d" stop-opacity="0"/><stop offset="1" stop-color="#fece0d"/></linearGradient><linearGradient id="linear-gradient" x1="146.87" y1="18.7" x2="156.18" y2="18.7" gradientUnits="userSpaceOnUse"><stop offset="0" stop-color="#fece0d"/><stop offset="1" stop-color="#fece0d" stop-opacity="0"/></linearGradient><linearGradient id="New_Gradient_Swatch_3" x1="32.69" y1="32.69" x2="138.91" y2="138.91" gradientUnits="userSpaceOnUse"><stop offset="0" stop-color="#ffe390"/><stop offset="1" stop-color="#fece0d"/></linearGradient></defs><title>polyglot-cover-art</title><g id="Layer_2" data-name="Layer 2"><g id="Layer_1-2" data-name="Layer 1"><path class="cls-1" d="M0 0h171v171H0z"/><path class="cls-2" d="M153.57 17.8a1.54 1.54 0 1 0-1.24 2.48 1.59 1.59 0 0 0 1.26-.68l.78.73a2.61 2.61 0 1 1-2-4.22 2.57 2.57 0 0 1 2 1z"/><path class="cls-3" d="M152.29 26.72h-.16a8 8 0 0 1-5.73-2.57 8 8 0 0 1 0-10.89A8 8 0 0 1 158 13a.22.22 0 1 1-.31.31 7.58 7.58 0 0 0-10.93.21 7.61 7.61 0 0 0 0 10.3 7.58 7.58 0 0 0 10.93.21.22.22 0 1 1 .31.31 8 8 0 0 1-5.71 2.38z"/><path class="cls-4" d="M152.28 24.12h-.18a5.42 5.42 0 0 1 0-10.83 5.44 5.44 0 0 1 4 1.58.22.22 0 0 1-.31.31 5 5 0 0 0-3.7-1.46 5 5 0 0 0 0 10 5 5 0 0 0 3.7-1.46.22.22 0 1 1 .31.31 5.44 5.44 0 0 1-3.82 1.55z"/><path class="cls-5" d="M152.08 113.18a46.9 46.9 0 0 0 0-54.77 47.06 47.06 0 0 0-38.9-38.9 46.9 46.9 0 0 0-54.77 0 47.06 47.06 0 0 0-38.9 38.9 46.9 46.9 0 0 0 0 54.77 47.06 47.06 0 0 0 38.9 38.9 46.9 46.9 0 0 0 54.77 0 47.06 47.06 0 0 0 38.9-38.9zm8.23-27.39a46.19 46.19 0 0 1-8 26.1 47.74 47.74 0 0 0 .42-6.26 46.9 46.9 0 0 0-4.37-19.84A46.9 46.9 0 0 0 152.69 66a47.74 47.74 0 0 0-.42-6.26 46.19 46.19 0 0 1 8.04 26.06zM19.5 105.63a46.32 46.32 0 0 1 4.11-19.13 47.37 47.37 0 0 0 16 18.44 46.83 46.83 0 0 0 1.75 24.32 46.69 46.69 0 0 1-21.27-16.31 47.07 47.07 0 0 1-.59-7.32zm.58-47a46.69 46.69 0 0 1 21.27-16.3 46.83 46.83 0 0 0-1.75 24.32 47.37 47.37 0 0 0-16 18.44A46.32 46.32 0 0 1 19.5 66a47.07 47.07 0 0 1 .58-7.35zM152.1 66a46.32 46.32 0 0 1-4.1 19.09 47.37 47.37 0 0 0-16-18.44 46.83 46.83 0 0 0-1.75-24.32 46.69 46.69 0 0 1 21.27 16.31 47.06 47.06 0 0 1 .58 7.36zm-52.28 64.09a46.35 46.35 0 0 1-13.54-6.92 47.44 47.44 0 0 0 10.41-11 47.11 47.11 0 0 0 15.21.43 46 46 0 0 1-4.67 14.4 46.16 46.16 0 0 1-7.41 3.09zm6.92-2.17c-.64 1.17-1.33 2.31-2.07 3.43-1.31-.26-2.6-.59-3.87-1a46.75 46.75 0 0 0 5.94-2.44zM64.36 127a46 46 0 0 1-4.67-14.41 47.11 47.11 0 0 0 15.21-.43 47.44 47.44 0 0 0 10.41 11 46.36 46.36 0 0 1-13.54 6.92 46.17 46.17 0 0 1-7.41-3.08zm6.42 3.38c-1.27.37-2.55.7-3.87 1-.74-1.11-1.43-2.26-2.07-3.43a46.75 46.75 0 0 0 5.94 2.43zM41.51 99.82a46.36 46.36 0 0 1 6.92-13.54 47.44 47.44 0 0 0 11 10.41A47.1 47.1 0 0 0 59 111.9a46 46 0 0 1-14.41-4.67 46.17 46.17 0 0 1-3.08-7.41zm2.17 6.92c-1.17-.64-2.31-1.33-3.43-2.07.26-1.31.59-2.6 1-3.86a46.75 46.75 0 0 0 2.43 5.93zm.92-42.38A46 46 0 0 1 59 59.69a47.1 47.1 0 0 0 .43 15.21 47.44 47.44 0 0 0-11 10.41 46.36 46.36 0 0 1-6.92-13.54 46.17 46.17 0 0 1 3.09-7.41zm-3.38 6.42c-.37-1.27-.7-2.55-1-3.86 1.11-.74 2.26-1.43 3.43-2.07a46.75 46.75 0 0 0-2.44 5.93zm30.55-29.27a46.36 46.36 0 0 1 13.54 6.92 47.44 47.44 0 0 0-10.41 11A47.11 47.11 0 0 0 59.69 59a46 46 0 0 1 4.67-14.4 46.17 46.17 0 0 1 7.41-3.09zm-6.92 2.17c.64-1.17 1.33-2.31 2.07-3.43 1.31.26 2.6.59 3.87 1a46.75 46.75 0 0 0-5.94 2.43zm42.38.92A46 46 0 0 1 111.9 59a47.11 47.11 0 0 0-15.21.43 47.44 47.44 0 0 0-10.41-11 46.35 46.35 0 0 1 13.54-6.92 46.16 46.16 0 0 1 7.41 3.09zm-6.42-3.38c1.27-.37 2.55-.7 3.87-1 .74 1.11 1.43 2.26 2.07 3.43a46.75 46.75 0 0 0-5.94-2.44zm29.28 30.56a46.36 46.36 0 0 1-6.92 13.54 47.44 47.44 0 0 0-11-10.41 47.1 47.1 0 0 0 .43-15.21 46 46 0 0 1 14.4 4.66 46.18 46.18 0 0 1 3.09 7.41zm-2.17-6.92c1.17.64 2.31 1.33 3.43 2.07-.26 1.31-.59 2.6-1 3.86a46.77 46.77 0 0 0-2.44-5.94zm2.47 7.9a46.26 46.26 0 0 1 0 26.08 47 47 0 0 0-6.83-13 47 47 0 0 0 6.82-13.09zM112 112a46.47 46.47 0 0 1-15-.38 46.92 46.92 0 0 0 4.89-9.68 46.93 46.93 0 0 0 9.73-4.94 46.48 46.48 0 0 1 .38 15zm-52.81-6.35A47 47 0 0 1 60 97a46.92 46.92 0 0 0 9.68 4.89 46.92 46.92 0 0 0 4.89 9.68 46.47 46.47 0 0 1-14.93.36 47.15 47.15 0 0 1-.47-6.3zm.44-46a46.47 46.47 0 0 1 14.92.35 46.92 46.92 0 0 0-4.89 9.68A46.92 46.92 0 0 0 60 74.55a46.47 46.47 0 0 1-.36-14.93zM112.42 66a47 47 0 0 1-.8 8.59 46.93 46.93 0 0 0-9.68-4.89A46.92 46.92 0 0 0 97 60a46.47 46.47 0 0 1 15-.39 47.13 47.13 0 0 1 .42 6.39zM98.81 98.81a47 47 0 0 1-5.63 4.8 46.25 46.25 0 0 1-14.77 0A46.55 46.55 0 0 1 68 93.18a46.25 46.25 0 0 1 0-14.77A46.55 46.55 0 0 1 78.41 68a46.25 46.25 0 0 1 14.77 0 46.55 46.55 0 0 1 10.43 10.43 46.25 46.25 0 0 1 0 14.77 47 47 0 0 1-4.8 5.61zm4.56-4.33a46.05 46.05 0 0 1-1.9 7 46.05 46.05 0 0 1-7 1.9 46.65 46.65 0 0 0 8.89-8.89zm-11.26 9.87A46 46 0 0 1 85.8 108a46.06 46.06 0 0 1-6.32-3.64 46 46 0 0 0 12.64 0zm-15-1a46.05 46.05 0 0 1-7-1.9 46.05 46.05 0 0 1-1.9-7 46.64 46.64 0 0 0 8.89 8.89zm-9.88-11.23a46.05 46.05 0 0 1-3.63-6.32 46.05 46.05 0 0 1 3.64-6.32 46 46 0 0 0 0 12.65zm1-15a46.05 46.05 0 0 1 1.9-7 46.05 46.05 0 0 1 7-1.9 46.64 46.64 0 0 0-8.89 8.89zm11.26-9.87a46.06 46.06 0 0 1 6.31-3.65 46 46 0 0 1 6.32 3.64 46 46 0 0 0-12.64 0zm15 1a46.05 46.05 0 0 1 7 1.9 46.05 46.05 0 0 1 1.9 7 46.65 46.65 0 0 0-8.89-8.89zm9.87 11.26A46.05 46.05 0 0 1 108 85.8a46.05 46.05 0 0 1-3.64 6.32 46 46 0 0 0 0-12.65zm-.19-1.3a46.64 46.64 0 0 0-2-7.79 46.36 46.36 0 0 1 9.32 4.79 45.94 45.94 0 0 1-3.2 9.92 46.7 46.7 0 0 0-4.12-6.95zm-3-8.77a46.63 46.63 0 0 0-7.79-2 46.69 46.69 0 0 0-6.92-4.14 45.93 45.93 0 0 1 9.92-3.2 46.36 46.36 0 0 1 4.83 9.3zM85.8 62.95a46.51 46.51 0 0 0-10.26-3.39A46.84 46.84 0 0 1 85.8 48.79a46.84 46.84 0 0 1 10.26 10.77 46.51 46.51 0 0 0-10.26 3.39zm-.7.34a46.7 46.7 0 0 0-6.92 4.14 46.63 46.63 0 0 0-7.79 2 46.35 46.35 0 0 1 4.79-9.32 45.93 45.93 0 0 1 9.91 3.17zm-15.7 7.1a46.64 46.64 0 0 0-2 7.79 46.7 46.7 0 0 0-4.14 6.92 45.93 45.93 0 0 1-3.2-9.92 46.35 46.35 0 0 1 9.34-4.79zM62.95 85.8a46.51 46.51 0 0 0-3.39 10.26A46.84 46.84 0 0 1 48.79 85.8a46.84 46.84 0 0 1 10.77-10.26 46.51 46.51 0 0 0 3.39 10.26zm.34.7a46.7 46.7 0 0 0 4.14 6.92 46.64 46.64 0 0 0 2 7.79 46.35 46.35 0 0 1-9.32-4.79 45.93 45.93 0 0 1 3.17-9.92zm7.1 15.69a46.63 46.63 0 0 0 7.79 2 46.69 46.69 0 0 0 6.92 4.14 45.93 45.93 0 0 1-9.92 3.2 46.35 46.35 0 0 1-4.79-9.34zm15.41 6.46A46.51 46.51 0 0 0 96.06 112a46.84 46.84 0 0 1-10.26 10.8A46.84 46.84 0 0 1 75.54 112a46.51 46.51 0 0 0 10.26-3.35zm.7-.34a46.68 46.68 0 0 0 6.92-4.14 46.63 46.63 0 0 0 7.79-2 46.36 46.36 0 0 1-4.79 9.32 45.93 45.93 0 0 1-9.92-3.18zm15.69-7.1a46.64 46.64 0 0 0 2-7.79 46.7 46.7 0 0 0 4.14-6.92 45.94 45.94 0 0 1 3.2 9.92 46.36 46.36 0 0 1-9.34 4.79zm6.46-15.41A46.51 46.51 0 0 0 112 75.54a46.85 46.85 0 0 1 10.8 10.26A46.85 46.85 0 0 1 112 96.06a46.51 46.51 0 0 0-3.35-10.26zm3.87-26.72a46.56 46.56 0 0 0-4.38-14 46.79 46.79 0 0 1 18.38 18.38 46.56 46.56 0 0 0-14-4.38zM85.8 48a47 47 0 0 0-13-6.83 46.26 46.26 0 0 1 26.08 0A47 47 0 0 0 85.8 48zM59.08 59a46.56 46.56 0 0 0-14 4.38 46.79 46.79 0 0 1 18.38-18.31 46.56 46.56 0 0 0-4.38 14.01zM48 85.8a47 47 0 0 0-6.83 13 46.26 46.26 0 0 1 0-26.08A47 47 0 0 0 48 85.8zm11 26.72a46.56 46.56 0 0 0 4.38 14A46.79 46.79 0 0 1 45 108.14a46.56 46.56 0 0 0 14.08 4.38zm26.72 11a47 47 0 0 0 13 6.83 46.26 46.26 0 0 1-26.08 0 47 47 0 0 0 13.16-6.8zm26.72-11a46.56 46.56 0 0 0 14-4.38 46.79 46.79 0 0 1-18.38 18.38 46.56 46.56 0 0 0 4.46-14zm.07-.61a47.1 47.1 0 0 0-.43-15.21 47.44 47.44 0 0 0 11-10.41A46.36 46.36 0 0 1 130 99.83a46.18 46.18 0 0 1-3.09 7.41 46 46 0 0 1-14.32 4.66zm17.79-11.09c.37 1.27.7 2.55 1 3.86-1.11.74-2.26 1.43-3.43 2.07a46.77 46.77 0 0 0 2.51-5.94zm.33-1a47.13 47.13 0 0 0 0-28.05q.69-2.2 1.16-4.48a46.78 46.78 0 0 1 15.8 18.51 46.78 46.78 0 0 1-15.8 18.51q-.39-2.31-1.07-4.49zm1.54-42.08a46.5 46.5 0 0 1-.8 8.55q-2-1.29-4-2.37a47.37 47.37 0 0 0-19.76-19.76 46.65 46.65 0 0 0-2.37-4 46.25 46.25 0 0 1 24.22 1.93 46.24 46.24 0 0 1 2.8 15.65zm-18.41-19a47.08 47.08 0 0 0-8.91.86 47.37 47.37 0 0 0-18.45-16 46.32 46.32 0 0 1 19.13-4.11 47.06 47.06 0 0 1 7.31.58 46.69 46.69 0 0 1 16.31 21.27 46.83 46.83 0 0 0-15.3-2.6zm-15-5.64a47 47 0 0 1 5.49 6.61q-2.28.47-4.48 1.16a47.13 47.13 0 0 0-28.05 0q-2.2-.69-4.48-1.16A46.78 46.78 0 0 1 85.8 23.92a46.5 46.5 0 0 1 13.01 9.19zm-26.45-.42a47.55 47.55 0 0 0-5.71 6.91 46.83 46.83 0 0 0-24.32 1.75 46.68 46.68 0 0 1 16.37-21.26A47.06 47.06 0 0 1 66 19.5a46.32 46.32 0 0 1 19.13 4.11 47.11 47.11 0 0 0-12.77 9.08zm-14.57 6.66a46.49 46.49 0 0 1 8.55.8 46.65 46.65 0 0 0-2.37 4 47.37 47.37 0 0 0-19.76 19.78q-2.06 1.08-4 2.37a46.25 46.25 0 0 1 1.93-24.22 46.24 46.24 0 0 1 15.65-2.73zM33.11 72.78a47 47 0 0 1 6.61-5.49q.47 2.28 1.16 4.48a47.13 47.13 0 0 0 0 28.05q-.69 2.2-1.16 4.48a46.78 46.78 0 0 1-15.8-18.5 46.5 46.5 0 0 1 9.19-13.02zm6.23 41.07a46.49 46.49 0 0 1 .8-8.55q2 1.29 4 2.37a47.37 47.37 0 0 0 19.76 19.76 46.65 46.65 0 0 0 2.37 4 46.25 46.25 0 0 1-24.22-1.93 46.24 46.24 0 0 1-2.71-15.65zm18.41 19a47.08 47.08 0 0 0 8.91-.86 47.37 47.37 0 0 0 18.45 16A46.32 46.32 0 0 1 66 152.1a47.06 47.06 0 0 1-7.31-.58 46.68 46.68 0 0 1-16.31-21.27 46.83 46.83 0 0 0 15.36 2.6zm15 5.64a47 47 0 0 1-5.49-6.61q2.28-.47 4.48-1.16a47.13 47.13 0 0 0 28.05 0q2.2.69 4.48 1.16a46.78 46.78 0 0 1-18.51 15.8 46.5 46.5 0 0 1-12.98-9.19zm26.45.42a47.54 47.54 0 0 0 5.71-6.91 46.83 46.83 0 0 0 24.32-1.75 46.69 46.69 0 0 1-16.31 21.27 47.06 47.06 0 0 1-7.31.58A46.32 46.32 0 0 1 86.5 148a47.1 47.1 0 0 0 12.73-9.09zm14.62-6.65a46.49 46.49 0 0 1-8.55-.8 46.65 46.65 0 0 0 2.37-4 47.37 47.37 0 0 0 19.76-19.76q2.06-1.08 4-2.37a46.26 46.26 0 0 1-1.93 24.22 46.24 46.24 0 0 1-15.62 2.71zm19-18.41a47.08 47.08 0 0 0-.86-8.91A47.37 47.37 0 0 0 148 86.5a46.32 46.32 0 0 1 4.11 19.13 47.06 47.06 0 0 1-.58 7.31 46.69 46.69 0 0 1-21.27 16.31 46.83 46.83 0 0 0 2.59-15.4zm5.64-80.75a46.12 46.12 0 0 1 12.8 24.23A47.27 47.27 0 0 0 130 41.6a47.27 47.27 0 0 0-15.74-21.3 46.12 46.12 0 0 1 24.23 12.81zM85.8 11.28a46.19 46.19 0 0 1 26.1 8 47.74 47.74 0 0 0-6.26-.42 46.9 46.9 0 0 0-19.84 4.41A46.9 46.9 0 0 0 66 18.9a47.74 47.74 0 0 0-6.26.42 46.19 46.19 0 0 1 26.06-8.04zM33.11 33.11A46.12 46.12 0 0 1 57.34 20.3 47.27 47.27 0 0 0 41.6 41.6a47.27 47.27 0 0 0-21.3 15.74 46.12 46.12 0 0 1 12.81-24.23zM11.28 85.8a46.19 46.19 0 0 1 8-26.1 47.74 47.74 0 0 0-.38 6.3 46.9 46.9 0 0 0 4.37 19.8 46.9 46.9 0 0 0-4.37 19.84 47.74 47.74 0 0 0 .42 6.26 46.19 46.19 0 0 1-8.04-26.1zm21.83 52.69a46.12 46.12 0 0 1-12.8-24.23A47.27 47.27 0 0 0 41.6 130a47.27 47.27 0 0 0 15.74 21.3 46.12 46.12 0 0 1-24.23-12.81zm52.69 21.82a46.19 46.19 0 0 1-26.1-8 47.74 47.74 0 0 0 6.26.42 46.9 46.9 0 0 0 19.84-4.37 46.9 46.9 0 0 0 19.84 4.37 47.74 47.74 0 0 0 6.26-.42 46.19 46.19 0 0 1-26.1 8zm28.46-9A47.27 47.27 0 0 0 130 130a47.27 47.27 0 0 0 21.29-15.74 46.48 46.48 0 0 1-37 37z"/><path class="cls-1" d="M7.77 64.13h155.45v42.75H7.77z"/><path class="cls-2" d="M40.07 87.63v5.68h-2.62V77.75H42c2.93 0 4.76 1.71 4.76 4.92s-1.8 5-4.76 5zm1.56-2.26c1.8 0 2.5-.92 2.5-2.71s-.7-2.66-2.5-2.66h-1.56v5.37zm8.77 1.15v-2c0-4.9 2-7 4.9-7s4.9 2.1 4.9 7v2c0 4.9-2 7-4.9 7s-4.9-2.1-4.9-7zm2.62-2v2c0 3.36.74 4.74 2.28 4.74s2.28-1.38 2.28-4.74v-2c0-3.36-.74-4.74-2.28-4.74S53 81.17 53 84.54zm14.44 6.54h5.3v2.26h-7.92V77.75h2.62zm6.39-13.31h2.89l2.35 6.14 2.35-6.14h2.89l-3.93 9.07v6.5h-2.63v-6.5zm23.05 7.58v1.2c0 5-1.8 7-4.67 7s-4.9-2.1-4.9-7v-1.88c0-5 2-7.11 4.9-7.11 2.64 0 4.26 1.76 4.65 5H94.4c-.23-1.8-.88-2.75-2.17-2.75-1.53 0-2.28 1.35-2.28 4.71v2c0 3.36.74 4.71 2.28 4.71s2.08-1.13 2.17-3.63h-2.12v-2.25zm7.25 5.73h5.3v2.26h-7.92V77.75h2.62zm8.12-4.54v-2c0-4.9 2-7 4.9-7s4.89 2.1 4.89 7v2c0 4.9-2 7-4.89 7s-4.9-2.1-4.9-7zm2.62-2v2c0 3.36.74 4.74 2.28 4.74s2.28-1.38 2.28-4.74v-2c0-3.36-.74-4.74-2.28-4.74s-2.28 1.39-2.28 4.76zm20.01-6.77V80h-3.5v13.31h-2.62V80h-3.5v-2.25z"/></g></g></svg>