<?xml version="1.0" encoding="utf-8"?>
<!-- Generator: Adobe Illustrator 19.2.1, SVG Export Plug-In . SVG Version: 6.00 Build 0)  -->
<svg version="1.1" id="Layer_1" xmlns="http://www.w3.org/2000/svg" xmlns:xlink="http://www.w3.org/1999/xlink" x="0px" y="0px"
	 viewBox="0 0 316.2 316.2" enable-background="new 0 0 316.2 316.2" xml:space="preserve">
<linearGradient id="SVGID_1_" gradientUnits="userSpaceOnUse" x1="46.3141" y1="46.2967" x2="269.9359" y2="269.9185">
	<stop  offset="0" style="stop-color:#FBC29B"/>
	<stop  offset="0.529" style="stop-color:#F89F5C"/>
</linearGradient>
<path fill="url(#SVGID_1_)" d="M316.2,158.1c0-0.2-0.1-0.4-0.3-0.5l-20.2-13.5l17.1-17.3c0.1-0.1,0.2-0.4,0.2-0.6s-0.2-0.4-0.4-0.5
	l-20.6-8.4l12.5-18.4c0.1-0.2,0.1-0.4,0.1-0.6s-0.2-0.3-0.5-0.4L279.1,93l9.5-23.7c0.1-0.2,0.1-0.4-0.1-0.6
	c-0.1-0.2-0.3-0.3-0.5-0.3l-22.3,0.3l4.4-21.8c0-0.2,0-0.4-0.2-0.6s-0.4-0.2-0.6-0.2l-23.8,4.8l-0.1-24.3c0-0.2-0.1-0.4-0.3-0.5
	s-0.4-0.1-0.6-0.1l-20.5,8.7l-4.2-21.9c0-0.2-0.2-0.4-0.4-0.5c-0.2-0.1-0.4-0.1-0.6,0.1l-21.3,14.1L187.5,3
	c-0.1-0.2-0.3-0.3-0.5-0.4c-0.2,0-0.4,0-0.6,0.2L171,18.8L158.6,0.3c-0.2-0.3-0.8-0.3-1,0l-13.5,20.2L126.9,3.4
	c-0.1-0.1-0.4-0.2-0.6-0.2c-0.2,0-0.4,0.2-0.5,0.4l-8.4,20.6L99.1,11.7c-0.2-0.1-0.4-0.1-0.6-0.1c-0.2,0.1-0.3,0.2-0.4,0.5L93,37.2
	l-23.7-9.5c-0.2-0.1-0.4-0.1-0.6,0.1c-0.2,0.1-0.3,0.3-0.3,0.5l0.3,22.3l-21.8-4.4c-0.2,0-0.4,0-0.6,0.2s-0.2,0.4-0.2,0.6l4.8,23.8
	l-24.3,0.1c-0.2,0-0.4,0.1-0.5,0.3c-0.1,0.2-0.1,0.4-0.1,0.6l8.7,20.5l-21.9,4.2c-0.2,0-0.4,0.2-0.5,0.4c-0.1,0.2-0.1,0.4,0.1,0.6
	l14.1,21.3L3,128.7c-0.2,0.1-0.3,0.3-0.4,0.5c0,0.2,0,0.4,0.2,0.6l15.9,15.5L0.3,157.6c-0.2,0.1-0.3,0.3-0.3,0.5s0.1,0.4,0.3,0.5
	l20.2,13.5L3.4,189.4c-0.1,0.1-0.2,0.4-0.2,0.6s0.2,0.4,0.4,0.5l20.6,8.4l-12.5,18.4c-0.1,0.2-0.1,0.4-0.1,0.6s0.2,0.3,0.5,0.4
	l25.1,5.1L27.7,247c-0.1,0.2-0.1,0.4,0.1,0.6c0.1,0.2,0.3,0.3,0.5,0.3h0l22.3-0.3l-4.4,21.8c0,0.2,0,0.4,0.2,0.6
	c0.1,0.1,0.3,0.2,0.4,0.2c0,0,0.1,0,0.1,0l23.8-4.8l0.1,24.3c0,0.2,0.1,0.4,0.3,0.5c0.1,0.1,0.2,0.1,0.3,0.1c0.1,0,0.2,0,0.2,0
	l20.5-8.7l4.2,21.9c0,0.2,0.2,0.4,0.4,0.5c0.1,0,0.2,0,0.2,0c0.1,0,0.2,0,0.3-0.1l21.3-14.1l10.1,23.5c0.1,0.2,0.3,0.3,0.5,0.4
	c0,0,0.1,0,0.1,0c0.2,0,0.3-0.1,0.4-0.2l15.5-15.9l12.3,18.5c0.1,0.2,0.3,0.3,0.5,0.3s0.4-0.1,0.5-0.3l13.5-20.2l17.3,17.1
	c0.1,0.1,0.3,0.2,0.4,0.2c0,0,0.1,0,0.1,0c0.2,0,0.4-0.2,0.5-0.4l8.4-20.6l18.4,12.5c0.1,0.1,0.2,0.1,0.4,0.1c0.1,0,0.2,0,0.2,0
	c0.2-0.1,0.3-0.2,0.4-0.5l5.1-25.1l23.7,9.5c0.1,0,0.2,0,0.2,0c0.1,0,0.2,0,0.4-0.1c0.2-0.1,0.3-0.3,0.3-0.5l-0.3-22.3l21.8,4.4
	c0,0,0.1,0,0.1,0c0.2,0,0.3-0.1,0.4-0.2c0.1-0.1,0.2-0.4,0.2-0.6l-4.8-23.8l24.3-0.1c0.2,0,0.4-0.1,0.5-0.3c0.1-0.2,0.1-0.4,0.1-0.6
	l-8.7-20.5l21.9-4.2c0.2,0,0.4-0.2,0.5-0.4c0.1-0.2,0.1-0.4-0.1-0.6l-14.1-21.3l23.5-10.1c0.2-0.1,0.3-0.3,0.4-0.5
	c0-0.2,0-0.4-0.2-0.6L297.5,171l18.5-12.3C316.1,158.5,316.2,158.3,316.2,158.1z M311.3,126.6l-16.6,16.8l-14-9.3l10.6-15.6
	L311.3,126.6z M244.8,149.3l0.1,8l0,9.2l-1.8,8.8l-1.6,7.8l-3,7.4l-3.4,8.4l-5.1,7.6l-4.5,6.6l-5.5,5.7l-6.5,6.6l-7.5,5l-6.7,4.4
	l-7.4,3.2l-8.3,3.5l-9,1.8l-7.9,1.5l-8,0.1l-9.2,0l-8.8-1.8l-7.8-1.6l-7.4-3l-8.4-3.4l-7.6-5.1l-6.6-4.5l-5.7-5.5l-6.6-6.5l-5-7.5
	l-4.4-6.7l-3.2-7.4l-3.5-8.3l-1.8-9l-1.5-7.9l-0.1-8l0-9.2l1.8-8.8l1.6-7.8l3-7.4l3.4-8.4l5.1-7.6l4.5-6.6l5.5-5.7l6.5-6.6l7.5-5
	l6.7-4.4l7.4-3.2l8.3-3.5l9-1.8l7.9-1.5l8-0.1l9.2,0l8.8,1.8l7.8,1.6l7.4,3l8.4,3.4l7.6,5.1l6.6,4.5l5.7,5.5l6.6,6.5l5,7.5l4.4,6.7
	l3.2,7.4l3.5,8.3l1.8,9L244.8,149.3z M240.2,126.3l-1.1-2.7l-0.4-1l1.2,1.8L240.2,126.3z M232.1,110.4l-0.6-1l-1.6-2.4l1.3,1.3
	L232.1,110.4z M221.9,97.4l-2.1-2.1l-0.7-0.6l1.8,1.2L221.9,97.4z M208,85.6l-0.8-0.5l-2.4-1.6l1.7,0.7L208,85.6z M193.7,77.6
	l-2.6-1l-1.1-0.5l2.1,0.4L193.7,77.6z M176.7,72.1l-1.1-0.2l-2.8-0.6l1.9,0L176.7,72.1z M160.3,70.1l-2.9,0l-1,0l2.1-0.4L160.3,70.1
	z M142.1,71.6l-0.9,0.2l-2.9,0.6l1.7-0.7L142.1,71.6z M126.3,76l-2.7,1.1l-1,0.4l1.8-1.2L126.3,76z M110.4,84.2l-1,0.6l-2.4,1.6
	l1.3-1.3L110.4,84.2z M97.4,94.3l-2.1,2.1l-0.6,0.7l1.2-1.8L97.4,94.3z M85.6,108.2l-0.5,0.8l-1.6,2.4l0.7-1.7L85.6,108.2z
	 M77.6,122.5l-1,2.6l-0.5,1.1l0.4-2.1L77.6,122.5z M72.1,139.6l-0.2,1.1l-0.6,2.8l0-1.9L72.1,139.6z M70.1,155.9l0,2.9l0,1l-0.4-2.1
	L70.1,155.9z M71.6,174.1l0.2,0.9l0.6,2.9l-0.7-1.7L71.6,174.1z M76,189.9l1.1,2.7l0.4,1l-1.2-1.8L76,189.9z M84.2,205.8l0.6,1
	l1.6,2.4l-1.3-1.3L84.2,205.8z M94.4,218.8l2.1,2.1l0.7,0.6l-1.8-1.2L94.4,218.8z M108.2,230.6l0.8,0.5l2.4,1.6l-1.7-0.7
	L108.2,230.6z M122.6,238.6l2.6,1l1.1,0.5l-2.1-0.4L122.6,238.6z M139.6,244.1l1.1,0.2l2.8,0.6l-1.9,0L139.6,244.1z M156,246.1
	l2.9,0l1,0l-2.1,0.4L156,246.1z M174.1,244.6l0.9-0.2l2.9-0.6l-1.7,0.7L174.1,244.6z M189.9,240.2l2.7-1.1l1-0.4l-1.8,1.2
	L189.9,240.2z M205.9,232l1-0.6l2.4-1.6l-1.3,1.3L205.9,232z M218.8,221.9l2.1-2.1l0.6-0.7l-1.2,1.8L218.8,221.9z M230.6,208
	l0.5-0.8l1.6-2.4l-0.7,1.7L230.6,208z M238.7,193.7l1-2.6l0.5-1.1l-0.4,2.1L238.7,193.7z M244.2,176.6l0.2-1.1l0.6-2.8l0,1.9
	L244.2,176.6z M246.2,160.3l0-2.9l0-1l0.4,2.1L246.2,160.3z M244.7,142.1l-0.2-0.9l-0.6-2.9l0.7,1.7L244.7,142.1z M244.6,136.5
	l-1.8-4.3l-0.9-4.8l2.7,4L244.6,136.5z M239.2,121.1l-3.2-4.8l-2.3-5.4l4.3,4.3L239.2,121.1z M229.8,105.1l-3.5-3.4l-2.6-3.9
	l4.1,2.8L229.8,105.1z M218.9,92.9l-4.9-3.3l-4.2-4.1l5.7,2.3L218.9,92.9z M204,81.7l-4.3-1.7l-4-2.7l4.8,1L204,81.7z M189.2,74.6
	l-5.7-1.1l-5.4-2.2l6.1,0L189.2,74.6z M171.3,69.9l-4.9,0.1l-4.6-0.9l4.9-0.9L171.3,69.9z M154.9,69l-5.7,1.1l-5.9,0l5.6-2.4
	L154.9,69z M136.5,71.6l-4.3,1.8l-4.8,0.9l4-2.7L136.5,71.6z M121.1,77.1l-4.8,3.2l-5.4,2.3l4.3-4.3L121.1,77.1z M105.1,86.4
	l-3.4,3.5l-3.9,2.6l2.8-4.1L105.1,86.4z M92.9,97.4l-3.3,4.9l-4.1,4.2l2.3-5.7L92.9,97.4z M81.7,112.2l-1.7,4.3l-2.7,4l1-4.8
	L81.7,112.2z M74.6,127l-1.1,5.7l-2.2,5.4l0-6.1L74.6,127z M70,144.9l0.1,4.9l-0.9,4.6l-0.9-4.9L70,144.9z M69,161.3l1.1,5.7l0,5.9
	l-2.4-5.6L69,161.3z M71.7,179.7l1.8,4.3l0.9,4.8l-2.7-4L71.7,179.7z M77.1,195.2l3.2,4.8l2.3,5.4l-4.3-4.3L77.1,195.2z M86.5,211.1
	l3.5,3.4l2.6,3.9l-4.1-2.8L86.5,211.1z M97.4,223.4l4.9,3.3l4.2,4.1l-5.7-2.3L97.4,223.4z M112.3,234.5l4.3,1.7l4,2.7l-4.8-1
	L112.3,234.5z M127,241.6l5.7,1.1l5.4,2.2l-6.1,0L127,241.6z M144.9,246.3l4.9-0.1l4.6,0.9l-4.9,0.9L144.9,246.3z M161.3,247.2
	l5.7-1.1l5.9,0l-5.6,2.4L161.3,247.2z M179.7,244.6l4.3-1.8l4.8-0.9l-4,2.7L179.7,244.6z M195.2,239.2l4.8-3.2l5.4-2.3l-4.3,4.3
	L195.2,239.2z M211.2,229.8l3.4-3.5l3.9-2.6l-2.8,4.1L211.2,229.8z M223.4,218.9l3.3-4.9l4.1-4.2l-2.3,5.7L223.4,218.9z M234.5,204
	l1.7-4.3l2.7-4l-1,4.8L234.5,204z M241.6,189.2l1.1-5.7l2.2-5.4l0,6.1L241.6,189.2z M246.3,171.3l-0.1-4.9l0.9-4.6l0.9,4.9
	L246.3,171.3z M247.2,154.9l-1.1-5.7l0-5.9l2.4,5.6L247.2,154.9z M244.5,129l-3.3-4.9l-1.4-7.2l4.6,4.5L244.5,129z M237.5,112.6
	l-5.2-5.1l-2.3-5.5l6.3,4.3L237.5,112.6z M226.8,98.2l-5.1-3.4l-4-6.1l6.1,2.5L226.8,98.2z M214.2,85.8l-6.8-2.7l-4.4-4.3l7.5,1.5
	L214.2,85.8z M198.6,76.5l-5.8-1.2l-6-4.1l6.4,0L198.6,76.5z M182,69.8l-7.3,0.1l-5.5-2.2l7.4-1.4L182,69.8z M164.3,67.1l-6,1.2
	l-7.1-1.5l6.1-2.6L164.3,67.1z M146.6,67.3l-6.7,2.9l-6.1,0l6.3-4.2L146.6,67.3z M129,71.7l-4.9,3.3l-7.2,1.4l4.5-4.6L129,71.7z
	 M112.6,78.8l-5.1,5.2l-5.5,2.3l4.3-6.3L112.6,78.8z M98.2,89.4l-3.4,5.1l-6.1,4l2.5-6.1L98.2,89.4z M85.8,102.1l-2.7,6.8l-4.3,4.4
	l1.5-7.5L85.8,102.1z M76.5,117.6l-1.2,5.8l-4.1,6l0-6.4L76.5,117.6z M69.8,134.2l0.1,7.3l-2.2,5.5l-1.4-7.4L69.8,134.2z
	 M67.2,151.9l1.2,6l-1.5,7.1l-2.6-6.1L67.2,151.9z M67.4,169.6l2.9,6.7l0,6.1l-4.2-6.3L67.4,169.6z M71.8,187.2l3.3,4.9l1.4,7.2
	l-4.6-4.5L71.8,187.2z M78.8,203.7l5.2,5.1l2.3,5.5l-6.3-4.3L78.8,203.7z M89.4,218.1l5.1,3.4l4,6.1l-6.1-2.5L89.4,218.1z
	 M102.1,230.4l6.8,2.7l4.4,4.3l-7.5-1.5L102.1,230.4z M117.6,239.7l5.8,1.2l6,4.1l-6.4,0L117.6,239.7z M134.2,246.4l7.3-0.1l5.5,2.2
	l-7.4,1.4L134.2,246.4z M151.9,249.1l6-1.2l7.1,1.5l-6.1,2.6L151.9,249.1z M169.7,248.9l6.7-2.9l6.1,0l-6.3,4.2L169.7,248.9z
	 M187.2,244.5l4.9-3.3l7.2-1.4l-4.5,4.6L187.2,244.5z M203.7,237.5l5.1-5.2l5.5-2.3l-4.3,6.3L203.7,237.5z M218.1,226.8l3.4-5.1
	l6.1-4l-2.5,6.1L218.1,226.8z M230.5,214.1l2.7-6.8l4.3-4.4l-1.5,7.5L230.5,214.1z M239.8,198.6l1.2-5.8l4.1-6l0,6.4L239.8,198.6z
	 M246.4,182l-0.1-7.3l2.2-5.5l1.4,7.4L246.4,182z M249.1,164.3l-1.2-6l1.5-7.1l2.6,6.1L249.1,164.3z M248.9,146.6l-2.9-6.7l0-6.1
	l4.2,6.3L248.9,146.6z M250.6,138.2l-4.6-6.9l0-8.3l6.4,6.3L250.6,138.2z M244.4,119.3l-5-4.9l-1.3-6.9l6.2,4.2L244.4,119.3z
	 M235.8,104.1l-6.9-4.6l-3.2-7.6l8.4,3.4L235.8,104.1z M223.1,89.4l-6.7-2.7l-4-6l7.6,1.6L223.1,89.4z M209.4,78.6l-8.1-1.6
	l-5.9-5.8l9,0L209.4,78.6z M191.6,69.7l-7,0.1l-5.8-3.9l7.4-1.4L191.6,69.7z M174.9,65l-8.1,1.6l-7.7-3.1l8.3-3.5L174.9,65z
	 M155.4,63.6l-6.6,2.8l-7.1-1.4l6.5-4.3L155.4,63.6z M138.2,65.7l-6.9,4.6l-8.3,0l6.3-6.4L138.2,65.7z M119.3,71.9l-4.9,5l-6.9,1.3
	l4.2-6.2L119.3,71.9z M104.1,80.4l-4.6,6.9l-7.6,3.2l3.4-8.4L104.1,80.4z M89.4,93.2l-2.7,6.7l-6,4l1.6-7.6L89.4,93.2z M78.6,106.8
	L77,115l-5.8,5.9l0-9L78.6,106.8z M69.7,124.6l0.1,7l-3.9,5.8l-1.4-7.4L69.7,124.6z M65,141.4l1.6,8.1l-3.1,7.7l-3.5-8.3L65,141.4z
	 M63.6,160.8l2.8,6.6l-1.4,7.1l-4.3-6.5L63.6,160.8z M65.7,178.1l4.6,6.9l0,8.3l-6.4-6.3L65.7,178.1z M71.9,197l5,4.9l1.3,6.9
	l-6.2-4.2L71.9,197z M80.5,212.1l6.9,4.6l3.2,7.6l-8.4-3.4L80.5,212.1z M93.2,226.9l6.7,2.7l4,6l-7.6-1.6L93.2,226.9z M106.9,237.6
	l8.1,1.6l5.9,5.8l-9,0L106.9,237.6z M124.6,246.6l7-0.1l5.8,3.9l-7.4,1.4L124.6,246.6z M141.4,251.2l8.1-1.6l7.7,3.1l-8.3,3.5
	L141.4,251.2z M160.8,252.6l6.6-2.8l7.1,1.4l-6.5,4.3L160.8,252.6z M178.1,250.6l6.9-4.6l8.3,0l-6.3,6.4L178.1,250.6z M197,244.3
	l4.9-5l6.9-1.3l-4.2,6.2L197,244.3z M212.1,235.8l4.6-6.9l7.6-3.2l-3.4,8.4L212.1,235.8z M226.9,223.1l2.7-6.7l6-4L234,220
	L226.9,223.1z M237.6,209.4l1.6-8.1l5.8-5.9l0,9L237.6,209.4z M246.6,191.6l-0.1-7l3.9-5.8l1.4,7.4L246.6,191.6z M251.2,174.9
	l-1.6-8.1l3.1-7.7l3.5,8.3L251.2,174.9z M252.7,155.4l-2.8-6.6l1.4-7.1l4.3,6.5L252.7,155.4z M252.7,127.4l-6.8-6.6l0-8l8.6,5.8
	L252.7,127.4z M237.6,105.3l-1.8-9.3l8.3,3.4l0.1,10.4L237.6,105.3z M224.9,90.1l-3.2-7.5l10.2,2.1l1.8,9L224.9,90.1z M219.3,80.6
	l-8-1.6l-5.2-7.9l9.2,0L219.3,80.6z M203.3,69.5l-9.5,0.1l-5.7-5.6l10.2-2L203.3,69.5z M177,64.6l-7.9-5.3l8.2-3.5l7.4,7.2L177,64.6
	z M157.2,62.8l-7.6-3.1l8.7-5.7l7.6,5.1L157.2,62.8z M146.6,60l-6.8,4.5l-9.3-1.9l6.4-6.5L146.6,60z M127.4,63.5l-6.6,6.8l-8,0
	l5.8-8.6L127.4,63.5z M105.4,78.6L96,80.4l3.4-8.3l10.4-0.1L105.4,78.6z M90.1,91.3l-7.5,3.2l2.1-10.2l9-1.8L90.1,91.3z M80.6,96.9
	l-1.6,8l-7.9,5.2l0-9.2L80.6,96.9z M69.5,112.9l0.1,9.5l-5.6,5.7l-2-10.2L69.5,112.9z M64.6,139.2l-5.3,7.9l-3.5-8.2l7.2-7.4
	L64.6,139.2z M62.8,159l-3.1,7.6l-5.7-8.7l5.1-7.6L62.8,159z M60,169.6l4.5,6.8l-1.9,9.3l-6.5-6.4L60,169.6z M63.5,188.8l6.8,6.6
	l0,8l-8.6-5.8L63.5,188.8z M78.6,210.9l1.8,9.3l-8.3-3.4L72,206.5L78.6,210.9z M91.3,226.1l3.2,7.5l-10.2-2.1l-1.8-9L91.3,226.1z
	 M96.9,235.6l8,1.6l5.2,7.9l-9.2,0L96.9,235.6z M112.9,246.7l9.5-0.1l5.7,5.6l-10.2,2L112.9,246.7z M139.2,251.6l7.9,5.3l-8.2,3.5
	l-7.4-7.2L139.2,251.6z M159,253.4l7.6,3.1l-8.7,5.7l-7.6-5.1L159,253.4z M169.6,256.2l6.8-4.5l9.3,1.9l-6.4,6.5L169.6,256.2z
	 M188.8,252.7l6.6-6.8l8,0l-5.8,8.6L188.8,252.7z M210.9,237.6l9.3-1.8l-3.4,8.3l-10.4,0.1L210.9,237.6z M226.1,224.9l7.5-3.2
	l-2.1,10.2l-9,1.8L226.1,224.9z M235.6,219.3l1.6-8l7.9-5.2l0,9.2L235.6,219.3z M246.7,203.3l-0.1-9.5l5.6-5.7l2,10.2L246.7,203.3z
	 M251.6,177l5.3-7.9l3.5,8.2l-7.2,7.4L251.6,177z M253.4,157.2l3.1-7.6l5.7,8.7l-5.1,7.6L253.4,157.2z M256.2,146.6l-4.5-6.8
	l1.9-9.3l6.5,6.4L256.2,146.6z M253.9,128.6l2-9.6l9,6l-4.1,10.2L253.9,128.6z M245.9,110.9l-0.1-10.8l11.4,4.6l-2.4,12.1
	L245.9,110.9z M244.6,98l-9.1-3.6l-1.8-9.3l10.8,2.2L244.6,98z M221,81l-4.4-10.4l13-0.2l2.4,12.8L221,81z M205,69.5l-5.4-8.1
	l10.6-2.1l4.3,10.1L205,69.5z M186.8,62.6l-7.7-7.6l11.4-4.8l6.9,10.3L186.8,62.6z M167.7,58.3l-7.9-5.3l9.2-6.1l7.7,7.6L167.7,58.3
	z M148.1,59.1l-10.4-4.2l9.1-9.3l10.7,7.3L148.1,59.1z M128.6,62.3l-9.6-2l6-9l10.2,4.1L128.6,62.3z M110.9,70.4l-10.8,0.1l4.6-11.4
	l12.1,2.4L110.9,70.4z M94.4,80.7L85,82.5l2.2-10.8L98,71.7L94.4,80.7z M81,95.2l-10.4,4.4l-0.2-13l12.8-2.4L81,95.2z M69.5,111.2
	l-8.1,5.4L59.3,106l10.1-4.3L69.5,111.2z M62.7,129.5l-7.6,7.7l-4.8-11.4l10.3-6.9L62.7,129.5z M54.5,139.5l3.8,9l-5.3,7.9l-6.1-9.2
	L54.5,139.5z M52.8,158.8l6.2,9.4l-4.2,10.4l-9.3-9.1L52.8,158.8z M62.3,187.6l-2,9.6l-9-6l4.1-10.2L62.3,187.6z M70.4,205.4
	l0.1,10.8L59,211.5l2.4-12.1L70.4,205.4z M71.7,218.2l9.1,3.6l1.8,9.3L71.7,229L71.7,218.2z M95.2,235.3l4.4,10.4l-13,0.2L84.2,233
	L95.2,235.3z M111.2,246.7l5.4,8.1l-10.6,2.1l-4.3-10.1L111.2,246.7z M129.5,253.6l7.7,7.6l-11.4,4.8l-6.9-10.3L129.5,253.6z
	 M148.5,257.9l7.9,5.3l-9.2,6.1l-7.7-7.6L148.5,257.9z M168.2,257.1l10.4,4.2l-9.1,9.3l-10.7-7.3L168.2,257.1z M187.6,253.9l9.6,2
	l-6,9l-10.2-4.1L187.6,253.9z M205.4,245.9l10.8-0.1l-4.6,11.4l-12.1-2.4L205.4,245.9z M221.9,235.5l9.3-1.8l-2.2,10.8l-10.8,0.1
	L221.9,235.5z M235.3,221l10.4-4.4l0.2,13l-12.8,2.4L235.3,221z M246.7,205l8.1-5.4l2.1,10.6l-10.1,4.3L246.7,205z M253.6,186.7
	l7.6-7.7l4.8,11.4l-10.3,6.9L253.6,186.7z M261.8,176.7l-3.8-9l5.3-7.9l6.1,9.2L261.8,176.7z M263.4,157.4l-6.2-9.4l4.2-10.4
	l9.3,9.1L263.4,157.4z M261.7,136.2l4.2-10.5l13.1,8.7l-7.6,11.2L261.7,136.2z M266.4,124.5l5.6-13.9l18.2,7.4l-10.4,15.4
	L266.4,124.5z M265.3,123.8l-9.4-6.2l2.5-12.4l12.4,5L265.3,123.8z M258.7,104l2.7-13.3l16,3.3l-6.1,15.1L258.7,104z M257.5,103.5
	l-11.7-4.7l-0.1-11.3l14.4,2.9L257.5,103.5z M245.7,86.2l-0.1-16l18.6-0.2l-3.8,19.2L245.7,86.2z M244.5,85.9l-11-2.3l-2.5-13.3
	l13.5-0.2L244.5,85.9z M230.7,69.1l-2.6-13.5l16.2-3.2l0.1,16.6L230.7,69.1z M229.4,69.2l-13.5,0.2L211.5,59l15.4-3.1L229.4,69.2z
	 M211,57.8l-5.9-13.7l18.1-7.6l3.5,18.2L211,57.8z M209.7,58.1l-11,2.2l-7-10.5l12.3-5.2L209.7,58.1z M190.9,48.7l-7.5-11.3l13.6-9
	l6.4,15L190.9,48.7z M189.8,49.2l-11.6,4.9l-8-7.9l12.2-8.1L189.8,49.2z M169.2,45.3L157.9,34l12.9-13.3l10.9,16.3L169.2,45.3z
	 M168.2,46l-9.4,6.2l-11.2-7.6l9.4-9.7L168.2,46z M146.5,43.9l-11.4-7.7l9.2-13.8l11.8,11.6L146.5,43.9z M145.6,44.8l-9.4,9.7
	l-10.5-4.2l8.7-13.1L145.6,44.8z M124.6,49.8l-13.9-5.6l7.4-18.2l15.4,10.4L124.6,49.8z M123.8,50.9l-6.2,9.4l-12.4-2.5l5-12.4
	L123.8,50.9z M104,57.5l-13.3-2.7l3.3-16l15.1,6.1L104,57.5z M103.5,58.7l-4.7,11.7l-11.3,0.1l2.9-14.4L103.5,58.7z M86.2,70.5
	l-16,0.1L70,52l19.2,3.8L86.2,70.5z M85.9,71.7l-2.3,11l-13.3,2.5l-0.2-13.5L85.9,71.7z M69.2,85.6l-13.5,2.6l-3.2-16.2L69,71.8
	L69.2,85.6z M69.2,86.8l0.2,13.5L59,104.8l-3.1-15.4L69.2,86.8z M57.8,105.3l-13.7,5.9l-7.6-18.1l18.2-3.5L57.8,105.3z M58.1,106.5
	l2.2,11l-10.5,7l-5.2-12.3L58.1,106.5z M48.7,125.3l-11.3,7.5l-9-13.6l15-6.4L48.7,125.3z M49.2,126.5l4.9,11.6l-7.9,8l-8.1-12.2
	L49.2,126.5z M45.3,147l-11.2,11.4l-13.3-12.9l16.3-10.9L45.3,147z M46,148.1l6.2,9.4l-7.6,11.2l-9.7-9.4L46,148.1z M43.9,169.7
	l-7.7,11.4l-13.8-9.2l11.6-11.8L43.9,169.7z M44.8,170.6l9.7,9.4l-4.2,10.5l-13.1-8.7L44.8,170.6z M49.9,191.7l-5.6,13.9l-18.2-7.4
	l10.4-15.4L49.9,191.7z M50.9,192.4l9.4,6.2L57.8,211l-12.4-5L50.9,192.4z M57.6,212.3l-2.7,13.3l-16-3.3l6.1-15.1L57.6,212.3z
	 M58.7,212.7l11.7,4.7l0.1,11.3l-14.4-2.9L58.7,212.7z M70.5,230l0.1,16L52,246.3l3.8-19.2L70.5,230z M71.8,230.3l11,2.3l2.5,13.3
	L71.8,246L71.8,230.3z M85.6,247.1l2.6,13.5l-16.2,3.2l-0.1-16.6L85.6,247.1z M86.8,247.1l13.5-0.2l4.4,10.4l-15.4,3.1L86.8,247.1z
	 M105.3,258.4l5.9,13.7l-18.1,7.6l-3.5-18.2L105.3,258.4z M106.6,258.2l11-2.2l7,10.5l-12.3,5.2L106.6,258.2z M125.3,267.5l7.5,11.3
	l-13.6,9l-6.4-15L125.3,267.5z M126.5,267l11.6-4.9l8,7.9l-12.2,8.1L126.5,267z M147,270.9l11.4,11.2l-12.9,13.3l-10.9-16.3
	L147,270.9z M148.1,270.2l9.4-6.2l11.2,7.6l-9.4,9.7L148.1,270.2z M169.7,272.3l11.4,7.7l-9.2,13.8l-11.8-11.6L169.7,272.3z
	 M170.6,271.4l9.4-9.7l10.5,4.2l-8.7,13.1L170.6,271.4z M191.7,266.4l13.9,5.6l-7.4,18.2l-15.4-10.4L191.7,266.4z M192.4,265.3
	l6.2-9.4l12.4,2.5l-5,12.4L192.4,265.3z M212.3,258.7l13.3,2.7l-3.3,16l-15.1-6.1L212.3,258.7z M212.8,257.5l4.7-11.7l11.3-0.1
	l-2.9,14.4L212.8,257.5z M230,245.7l16-0.1l0.2,18.6l-19.2-3.8L230,245.7z M230.3,244.5l2.3-11l13.3-2.5l0.2,13.5L230.3,244.5z
	 M247.1,230.7l13.5-2.6l3.2,16.2l-16.6,0.1L247.1,230.7z M247.1,229.4l-0.2-13.5l10.4-4.4l3.1,15.4L247.1,229.4z M258.4,210.9
	l13.7-5.9l7.6,18.1l-18.2,3.5L258.4,210.9z M258.2,209.7l-2.2-11l10.5-7l5.2,12.3L258.2,209.7z M267.5,190.9l11.3-7.5l9,13.6
	l-15,6.4L267.5,190.9z M267,189.8l-4.9-11.6l7.9-8l8.1,12.2L267,189.8z M270.9,169.2l11.2-11.4l13.3,12.9l-16.3,10.9L270.9,169.2z
	 M270.2,168.1l-6.2-9.4l7.6-11.2l9.7,9.4L270.2,168.1z M272.3,146.5l7.7-11.4l13.8,9.2l-11.6,11.8L272.3,146.5z M303,99.1L290.8,117
	l-18.4-7.5l6.2-15.4L303,99.1z M287.1,69.6l-9.3,23.1l-16.2-3.3l3.9-19.5L287.1,69.6z M268.7,47.5l-4.2,21.2l-18.8,0.2l-0.1-16.8
	L268.7,47.5z M244.2,27.6l0.1,23.6l-16.5,3.3L224.3,36L244.2,27.6z M218.8,14l4.1,21.2l-18.3,7.7l-6.5-15.2L218.8,14z M186.8,4.4
	l9.8,22.9l-13.8,9.1l-11-16.5L186.8,4.4z M158.1,1.7l12,18L157,33.2L145,21.4L158.1,1.7z M126.7,4.9l16.8,16.6l-9.3,14l-15.6-10.6
	L126.7,4.9z M99.2,13.3L117,25.4l-7.5,18.4l-15.4-6.2L99.2,13.3z M69.7,29.2l23.1,9.3l-3.3,16.2L70,50.7L69.7,29.2z M47.6,47.5
	l21.2,4.2L69,70.6l-16.8,0.1L47.6,47.5z M27.6,72l23.6-0.1l3.3,16.5L36,91.9L27.6,72z M14,97.4l21.2-4.1l7.7,18.3l-15.2,6.5L14,97.4
	z M4.4,129.5l22.9-9.8l9.1,13.8l-16.5,11L4.4,129.5z M1.8,158.1l18-12l13.5,13.1l-11.8,11.9L1.8,158.1z M4.9,189.6l16.6-16.8l14,9.3
	l-10.6,15.6L4.9,189.6z M13.3,217.1l12.1-17.9l18.4,7.5l-6.2,15.4L13.3,217.1z M29.2,246.6l9.3-23.1l16.2,3.3l-3.9,19.5L29.2,246.6z
	 M47.6,268.7l4.2-21.2l18.8-0.2l0.1,16.8L47.6,268.7z M72.1,288.7l-0.1-23.6l16.5-3.3l3.5,18.5L72.1,288.7z M97.4,302.2L93.4,281
	l18.3-7.7l6.5,15.2L97.4,302.2z M129.5,311.8l-9.8-22.9l13.8-9.1l11,16.5L129.5,311.8z M158.1,314.5l-12-18l13.1-13.5l11.9,11.8
	L158.1,314.5z M189.6,311.3l-16.8-16.6l9.3-14l15.6,10.6L189.6,311.3z M217.1,302.9l-17.9-12.1l7.5-18.4l15.4,6.2L217.1,302.9z
	 M246.6,287.1l-23.1-9.3l3.3-16.2l19.5,3.9L246.6,287.1z M268.7,268.7l-21.2-4.2l-0.2-18.8l16.8-0.1L268.7,268.7z M288.7,244.2
	l-23.6,0.1l-3.3-16.5l18.5-3.5L288.7,244.2z M302.2,218.8l-21.2,4.1l-7.7-18.3l15.2-6.5L302.2,218.8z M311.9,186.7l-22.9,9.8
	l-9.1-13.8l16.5-11L311.9,186.7z M296.5,170.1L283.1,157l11.8-11.9l19.6,13.1L296.5,170.1z"/>
</svg>
