<svg xmlns="http://www.w3.org/2000/svg" viewBox="0 0 316.2 316.2">
  <linearGradient id="a" x1="46.3141" x2="269.9359" y1="46.2967" y2="269.9185" gradientUnits="userSpaceOnUse">
    <stop offset="0" stop-color="#FBC29B"/>
    <stop offset=".529" stop-color="#F89F5C"/>
  </linearGradient>
  <path fill="url(#a)" d="M316.2 158.1c0-.2-.1-.4-.3-.5l-20.2-13.5 17.1-17.3c.1-.1.2-.4.2-.6s-.2-.4-.4-.5l-20.6-8.4 12.5-18.4c.1-.2.1-.4.1-.6s-.2-.3-.5-.4l-25-4.9 9.5-23.7c.1-.2.1-.4-.1-.6-.1-.2-.3-.3-.5-.3l-22.3.3 4.4-21.8c0-.2 0-.4-.2-.6s-.4-.2-.6-.2l-23.8 4.8-.1-24.3c0-.2-.1-.4-.3-.5s-.4-.1-.6-.1L224 34.7l-4.2-21.9c0-.2-.2-.4-.4-.5-.2-.1-.4-.1-.6.1l-21.3 14.1-10-23.5c-.1-.2-.3-.3-.5-.4-.2 0-.4 0-.6.2l-15.4 16L158.6.3c-.2-.3-.8-.3-1 0l-13.5 20.2-17.2-17.1c-.1-.1-.4-.2-.6-.2-.2 0-.4.2-.5.4l-8.4 20.6-18.3-12.5c-.2-.1-.4-.1-.6-.1-.2.1-.3.2-.4.5L93 37.2l-23.7-9.5c-.2-.1-.4-.1-.6.1-.2.1-.3.3-.3.5l.3 22.3-21.8-4.4c-.2 0-.4 0-.6.2s-.2.4-.2.6l4.8 23.8-24.3.1c-.2 0-.4.1-.5.3-.1.2-.1.4-.1.6l8.7 20.5-21.9 4.2c-.2 0-.4.2-.5.4-.1.2-.1.4.1.6l14.1 21.3L3 128.7c-.2.1-.3.3-.4.5 0 .2 0 .4.2.6l15.9 15.5L.3 157.6c-.2.1-.3.3-.3.5s.1.4.3.5l20.2 13.5-17.1 17.3c-.1.1-.2.4-.2.6s.2.4.4.5l20.6 8.4-12.5 18.4c-.1.2-.1.4-.1.6s.2.3.5.4l25.1 5.1-9.5 23.6c-.1.2-.1.4.1.6.1.2.3.3.5.3l22.3-.3-4.4 21.8c0 .2 0 .4.2.6.1.1.3.2.4.2h.1l23.8-4.8.1 24.3c0 .2.1.4.3.5.1.1.2.1.3.1h.2l20.5-8.7 4.2 21.9c0 .2.2.4.4.5h.2c.1 0 .2 0 .3-.1l21.3-14.1 10.1 23.5c.1.2.3.3.5.4h.1c.2 0 .3-.1.4-.2l15.5-15.9 12.3 18.5c.1.2.3.3.5.3s.4-.1.5-.3l13.5-20.2 17.3 17.1c.1.1.3.2.4.2h.1c.2 0 .4-.2.5-.4l8.4-20.6 18.4 12.5c.1.1.2.1.4.1h.2c.2-.1.3-.2.4-.5l5.1-25.1 23.7 9.5h.2c.1 0 .2 0 .4-.1s.3-.3.3-.5l-.3-22.3 21.8 4.4h.1c.2 0 .3-.1.4-.2.1-.1.2-.4.2-.6l-4.8-23.8 24.3-.1c.2 0 .4-.1.5-.3.1-.2.1-.4.1-.6l-8.7-20.5 21.9-4.2c.2 0 .4-.2.5-.4.1-.2.1-.4-.1-.6l-14.1-21.3 23.5-10.1c.2-.1.3-.3.4-.5 0-.2 0-.4-.2-.6L297.5 171l18.5-12.3c.1-.2.2-.4.2-.6zm-4.9-31.5l-16.6 16.8-14-9.3 10.6-15.6 20 8.1zm-66.5 22.7l.1 8v9.2l-1.8 8.8-1.6 7.8-3 7.4-3.4 8.4-5.1 7.6-4.5 6.6-5.5 5.7-6.5 6.6-7.5 5-6.7 4.4-7.4 3.2-8.3 3.5-9 1.8-7.9 1.5-8 .1h-9.2l-8.8-1.8-7.8-1.6-7.4-3-8.4-3.4-7.6-5.1-6.6-4.5-5.7-5.5-6.6-6.5-5-7.5-4.4-6.7-3.2-7.4-3.5-8.3-1.8-9-1.5-7.9-.1-8v-9.2l1.8-8.8 1.6-7.8 3-7.4 3.4-8.4 5.1-7.6 4.5-6.6 5.5-5.7 6.5-6.6 7.5-5 6.7-4.4 7.4-3.2 8.3-3.5 9-1.8 7.9-1.5 8-.1h9.2l8.8 1.8 7.8 1.6 7.4 3 8.4 3.4 7.6 5.1 6.6 4.5 5.7 5.5 6.6 6.5 5 7.5 4.4 6.7 3.2 7.4 3.5 8.3 1.8 9 1.5 7.9zm-4.6-23l-1.1-2.7-.4-1 1.2 1.8.3 1.9zm-8.1-15.9l-.6-1-1.6-2.4 1.3 1.3.9 2.1zm-10.2-13l-2.1-2.1-.7-.6 1.8 1.2 1 1.5zM208 85.6l-.8-.5-2.4-1.6 1.7.7 1.5 1.4zm-14.3-8l-2.6-1-1.1-.5 2.1.4 1.6 1.1zm-17-5.5l-1.1-.2-2.8-.6h1.9l2 .8zm-16.4-2h-3.9l2.1-.4 1.8.4zm-18.2 1.5l-.9.2-2.9.6 1.7-.7 2.1-.1zM126.3 76l-2.7 1.1-1 .4 1.8-1.2 1.9-.3zm-15.9 8.2l-1 .6-2.4 1.6 1.3-1.3 2.1-.9zm-13 10.1l-2.1 2.1-.6.7 1.2-1.8 1.5-1zm-11.8 13.9l-.5.8-1.6 2.4.7-1.7 1.4-1.5zm-8 14.3l-1 2.6-.5 1.1.4-2.1 1.1-1.6zm-5.5 17.1l-.2 1.1-.6 2.8v-1.9l.8-2zm-2 16.3v3.9l-.4-2.1.4-1.8zm1.5 18.2l.2.9.6 2.9-.7-1.7-.1-2.1zm4.4 15.8l1.1 2.7.4 1-1.2-1.8-.3-1.9zm8.2 15.9l.6 1 1.6 2.4-1.3-1.3-.9-2.1zm10.2 13l2.1 2.1.7.6-1.8-1.2-1-1.5zm13.8 11.8l.8.5 2.4 1.6-1.7-.7-1.5-1.4zm14.4 8l2.6 1 1.1.5-2.1-.4-1.6-1.1zm17 5.5l1.1.2 2.8.6h-1.9l-2-.8zm16.4 2h3.9l-2.1.4-1.8-.4zm18.1-1.5l.9-.2 2.9-.6-1.7.7-2.1.1zm15.8-4.4l2.7-1.1 1-.4-1.8 1.2-1.9.3zm16-8.2l1-.6 2.4-1.6-1.3 1.3-2.1.9zm12.9-10.1l2.1-2.1.6-.7-1.2 1.8-1.5 1zm11.8-13.9l.5-.8 1.6-2.4-.7 1.7-1.4 1.5zm8.1-14.3l1-2.6.5-1.1-.4 2.1-1.1 1.6zm5.5-17.1l.2-1.1.6-2.8v1.9l-.8 2zm2-16.3v-3.9l.4 2.1-.4 1.8zm-1.5-18.2l-.2-.9-.6-2.9.7 1.7.1 2.1zm-.1-5.6l-1.8-4.3-.9-4.8 2.7 4v5.1zm-5.4-15.4l-3.2-4.8-2.3-5.4 4.3 4.3 1.2 5.9zm-9.4-16l-3.5-3.4-2.6-3.9 4.1 2.8 2 4.5zm-10.9-12.2l-4.9-3.3-4.2-4.1 5.7 2.3 3.4 5.1zM204 81.7l-4.3-1.7-4-2.7 4.8 1 3.5 3.4zm-14.8-7.1l-5.7-1.1-5.4-2.2h6.1l5 3.3zm-17.9-4.7l-4.9.1-4.6-.9 4.9-.9 4.6 1.7zm-16.4-.9l-5.7 1.1h-5.9l5.6-2.4 6 1.3zm-18.4 2.6l-4.3 1.8-4.8.9 4-2.7h5.1zm-15.4 5.5l-4.8 3.2-5.4 2.3 4.3-4.3 5.9-1.2zm-16 9.3l-3.4 3.5-3.9 2.6 2.8-4.1 4.5-2zm-12.2 11l-3.3 4.9-4.1 4.2 2.3-5.7 5.1-3.4zm-11.2 14.8l-1.7 4.3-2.7 4 1-4.8 3.4-3.5zM74.6 127l-1.1 5.7-2.2 5.4V132l3.3-5zM70 144.9l.1 4.9-.9 4.6-.9-4.9 1.7-4.6zm-1 16.4l1.1 5.7v5.9l-2.4-5.6 1.3-6zm2.7 18.4l1.8 4.3.9 4.8-2.7-4v-5.1zm5.4 15.5l3.2 4.8 2.3 5.4-4.3-4.3-1.2-5.9zm9.4 15.9l3.5 3.4 2.6 3.9-4.1-2.8-2-4.5zm10.9 12.3l4.9 3.3 4.2 4.1-5.7-2.3-3.4-5.1zm14.9 11.1l4.3 1.7 4 2.7-4.8-1-3.5-3.4zm14.7 7.1l5.7 1.1 5.4 2.2H132l-5-3.3zm17.9 4.7l4.9-.1 4.6.9-4.9.9-4.6-1.7zm16.4.9l5.7-1.1h5.9l-5.6 2.4-6-1.3zm18.4-2.6l4.3-1.8 4.8-.9-4 2.7h-5.1zm15.5-5.4l4.8-3.2 5.4-2.3-4.3 4.3-5.9 1.2zm16-9.4l3.4-3.5 3.9-2.6-2.8 4.1-4.5 2zm12.2-10.9l3.3-4.9 4.1-4.2-2.3 5.7-5.1 3.4zm11.1-14.9l1.7-4.3 2.7-4-1 4.8-3.4 3.5zm7.1-14.8l1.1-5.7 2.2-5.4v6.1l-3.3 5zm4.7-17.9l-.1-4.9.9-4.6.9 4.9-1.7 4.6zm.9-16.4l-1.1-5.7v-5.9l2.4 5.6-1.3 6zm-2.7-25.9l-3.3-4.9-1.4-7.2 4.6 4.5.1 7.6zm-7-16.4l-5.2-5.1-2.3-5.5 6.3 4.3 1.2 6.3zm-10.7-14.4l-5.1-3.4-4-6.1 6.1 2.5 3 7zm-12.6-12.4l-6.8-2.7-4.4-4.3 7.5 1.5 3.7 5.5zm-15.6-9.3l-5.8-1.2-6-4.1h6.4l5.4 5.3zM182 69.8l-7.3.1-5.5-2.2 7.4-1.4 5.4 3.5zm-17.7-2.7l-6 1.2-7.1-1.5 6.1-2.6 7 2.9zm-17.7.2l-6.7 2.9h-6.1l6.3-4.2 6.5 1.3zM129 71.7l-4.9 3.3-7.2 1.4 4.5-4.6 7.6-.1zm-16.4 7.1l-5.1 5.2-5.5 2.3 4.3-6.3 6.3-1.2zM98.2 89.4l-3.4 5.1-6.1 4 2.5-6.1 7-3zm-12.4 12.7l-2.7 6.8-4.3 4.4 1.5-7.5 5.5-3.7zm-9.3 15.5l-1.2 5.8-4.1 6V123l5.3-5.4zm-6.7 16.6l.1 7.3-2.2 5.5-1.4-7.4 3.5-5.4zm-2.6 17.7l1.2 6-1.5 7.1-2.6-6.1 2.9-7zm.2 17.7l2.9 6.7v6.1l-4.2-6.3 1.3-6.5zm4.4 17.6l3.3 4.9 1.4 7.2-4.6-4.5-.1-7.6zm7 16.5l5.2 5.1 2.3 5.5L80 210l-1.2-6.3zm10.6 14.4l5.1 3.4 4 6.1-6.1-2.5-3-7zm12.7 12.3l6.8 2.7 4.4 4.3-7.5-1.5-3.7-5.5zm15.5 9.3l5.8 1.2 6 4.1H123l-5.4-5.3zm16.6 6.7l7.3-.1 5.5 2.2-7.4 1.4-5.4-3.5zm17.7 2.7l6-1.2 7.1 1.5-6.1 2.6-7-2.9zm17.8-.2l6.7-2.9h6.1l-6.3 4.2-6.5-1.3zm17.5-4.4l4.9-3.3 7.2-1.4-4.5 4.6-7.6.1zm16.5-7l5.1-5.2 5.5-2.3-4.3 6.3-6.3 1.2zm14.4-10.7l3.4-5.1 6.1-4-2.5 6.1-7 3zm12.4-12.7l2.7-6.8 4.3-4.4-1.5 7.5-5.5 3.7zm9.3-15.5l1.2-5.8 4.1-6v6.4l-5.3 5.4zm6.6-16.6l-.1-7.3 2.2-5.5 1.4 7.4-3.5 5.4zm2.7-17.7l-1.2-6 1.5-7.1 2.6 6.1-2.9 7zm-.2-17.7l-2.9-6.7v-6.1l4.2 6.3-1.3 6.5zm1.7-8.4l-4.6-6.9V123l6.4 6.3-1.8 8.9zm-6.2-18.9l-5-4.9-1.3-6.9 6.2 4.2.1 7.6zm-8.6-15.2l-6.9-4.6-3.2-7.6 8.4 3.4 1.7 8.8zm-12.7-14.7l-6.7-2.7-4-6 7.6 1.6 3.1 7.1zm-13.7-10.8l-8.1-1.6-5.9-5.8h9l5 7.4zm-17.8-8.9l-7 .1-5.8-3.9 7.4-1.4 5.4 5.2zM174.9 65l-8.1 1.6-7.7-3.1 8.3-3.5 7.5 5zm-19.5-1.4l-6.6 2.8-7.1-1.4 6.5-4.3 7.2 2.9zm-17.2 2.1l-6.9 4.6H123l6.3-6.4 8.9 1.8zm-18.9 6.2l-4.9 5-6.9 1.3 4.2-6.2 7.6-.1zm-15.2 8.5l-4.6 6.9-7.6 3.2 3.4-8.4 8.8-1.7zM89.4 93.2l-2.7 6.7-6 4 1.6-7.6 7.1-3.1zm-10.8 13.6L77 115l-5.8 5.9v-9l7.4-5.1zm-8.9 17.8l.1 7-3.9 5.8-1.4-7.4 5.2-5.4zM65 141.4l1.6 8.1-3.1 7.7-3.5-8.3 5-7.5zm-1.4 19.4l2.8 6.6-1.4 7.1-4.3-6.5 2.9-7.2zm2.1 17.3l4.6 6.9v8.3l-6.4-6.3 1.8-8.9zm6.2 18.9l5 4.9 1.3 6.9-6.2-4.2-.1-7.6zm8.6 15.1l6.9 4.6 3.2 7.6-8.4-3.4-1.7-8.8zm12.7 14.8l6.7 2.7 4 6-7.6-1.6-3.1-7.1zm13.7 10.7l8.1 1.6 5.9 5.8h-9l-5-7.4zm17.7 9l7-.1 5.8 3.9-7.4 1.4-5.4-5.2zm16.8 4.6l8.1-1.6 7.7 3.1-8.3 3.5-7.5-5zm19.4 1.4l6.6-2.8 7.1 1.4-6.5 4.3-7.2-2.9zm17.3-2l6.9-4.6h8.3l-6.3 6.4-8.9-1.8zm18.9-6.3l4.9-5 6.9-1.3-4.2 6.2-7.6.1zm15.1-8.5l4.6-6.9 7.6-3.2-3.4 8.4-8.8 1.7zm14.8-12.7l2.7-6.7 6-4-1.6 7.6-7.1 3.1zm10.7-13.7l1.6-8.1 5.8-5.9v9l-7.4 5zm9-17.8l-.1-7 3.9-5.8 1.4 7.4-5.2 5.4zm4.6-16.7l-1.6-8.1 3.1-7.7 3.5 8.3-5 7.5zm1.5-19.5l-2.8-6.6 1.4-7.1 4.3 6.5-2.9 7.2zm0-28l-6.8-6.6v-8l8.6 5.8-1.8 8.8zm-15.1-22.1l-1.8-9.3 8.3 3.4.1 10.4-6.6-4.5zm-12.7-15.2l-3.2-7.5 10.2 2.1 1.8 9-8.8-3.6zm-5.6-9.5l-8-1.6-5.2-7.9h9.2l4 9.5zm-16-11.1l-9.5.1-5.7-5.6 10.2-2 5 7.5zM177 64.6l-7.9-5.3 8.2-3.5 7.4 7.2-7.7 1.6zm-19.8-1.8l-7.6-3.1 8.7-5.7 7.6 5.1-8.7 3.7zM146.6 60l-6.8 4.5-9.3-1.9 6.4-6.5 9.7 3.9zm-19.2 3.5l-6.6 6.8h-8l5.8-8.6 8.8 1.8zm-22 15.1L96 80.4l3.4-8.3 10.4-.1-4.4 6.6zM90.1 91.3l-7.5 3.2 2.1-10.2 9-1.8-3.6 8.8zm-9.5 5.6l-1.6 8-7.9 5.2v-9.2l9.5-4zm-11.1 16l.1 9.5-5.6 5.7-2-10.2 7.5-5zm-4.9 26.3l-5.3 7.9-3.5-8.2 7.2-7.4 1.6 7.7zM62.8 159l-3.1 7.6-5.7-8.7 5.1-7.6 3.7 8.7zM60 169.6l4.5 6.8-1.9 9.3-6.5-6.4 3.9-9.7zm3.5 19.2l6.8 6.6v8l-8.6-5.8 1.8-8.8zm15.1 22.1l1.8 9.3-8.3-3.4-.1-10.3 6.6 4.4zm12.7 15.2l3.2 7.5-10.2-2.1-1.8-9 8.8 3.6zm5.6 9.5l8 1.6 5.2 7.9h-9.2l-4-9.5zm16 11.1l9.5-.1 5.7 5.6-10.2 2-5-7.5zm26.3 4.9l7.9 5.3-8.2 3.5-7.4-7.2 7.7-1.6zm19.8 1.8l7.6 3.1-8.7 5.7-7.6-5.1 8.7-3.7zm10.6 2.8l6.8-4.5 9.3 1.9-6.4 6.5-9.7-3.9zm19.2-3.5l6.6-6.8h8l-5.8 8.6-8.8-1.8zm22.1-15.1l9.3-1.8-3.4 8.3-10.4.1 4.5-6.6zm15.2-12.7l7.5-3.2-2.1 10.2-9 1.8 3.6-8.8zm9.5-5.6l1.6-8 7.9-5.2v9.2l-9.5 4zm11.1-16l-.1-9.5 5.6-5.7 2 10.2-7.5 5zm4.9-26.3l5.3-7.9 3.5 8.2-7.2 7.4-1.6-7.7zm1.8-19.8l3.1-7.6 5.7 8.7-5.1 7.6-3.7-8.7zm2.8-10.6l-4.5-6.8 1.9-9.3 6.5 6.4-3.9 9.7zm-2.3-18l2-9.6 9 6-4.1 10.2-6.9-6.6zm-8-17.7l-.1-10.8 11.4 4.6-2.4 12.1-8.9-5.9zM244.6 98l-9.1-3.6-1.8-9.3 10.8 2.2.1 10.7zM221 81l-4.4-10.4 13-.2 2.4 12.8-11-2.2zm-16-11.5l-5.4-8.1 10.6-2.1 4.3 10.1-9.5.1zm-18.2-6.9l-7.7-7.6 11.4-4.8 6.9 10.3-10.6 2.1zm-19.1-4.3l-7.9-5.3 9.2-6.1 7.7 7.6-9 3.8zm-19.6.8l-10.4-4.2 9.1-9.3 10.7 7.3-9.4 6.2zm-19.5 3.2l-9.6-2 6-9 10.2 4.1-6.6 6.9zm-17.7 8.1l-10.8.1 4.6-11.4 12.1 2.4-5.9 8.9zM94.4 80.7L85 82.5l2.2-10.8H98l-3.6 9zM81 95.2l-10.4 4.4-.2-13 12.8-2.4-2.2 11zm-11.5 16l-8.1 5.4-2.1-10.6 10.1-4.3.1 9.5zm-6.8 18.3l-7.6 7.7-4.8-11.4 10.3-6.9 2.1 10.6zm-8.2 10l3.8 9-5.3 7.9-6.1-9.2 7.6-7.7zm-1.7 19.3l6.2 9.4-4.2 10.4-9.3-9.1 7.3-10.7zm9.5 28.8l-2 9.6-9-6 4.1-10.2 6.9 6.6zm8.1 17.8l.1 10.8-11.5-4.7 2.4-12.1 9 6zm1.3 12.8l9.1 3.6 1.8 9.3-10.9-2.1v-10.8zm23.5 17.1l4.4 10.4-13 .2-2.4-12.9 11 2.3zm16 11.4l5.4 8.1-10.6 2.1-4.3-10.1 9.5-.1zm18.3 6.9l7.7 7.6-11.4 4.8-6.9-10.3 10.6-2.1zm19 4.3l7.9 5.3-9.2 6.1-7.7-7.6 9-3.8zm19.7-.8l10.4 4.2-9.1 9.3-10.7-7.3 9.4-6.2zm19.4-3.2l9.6 2-6 9-10.2-4.1 6.6-6.9zm17.8-8l10.8-.1-4.6 11.4-12.1-2.4 5.9-8.9zm16.5-10.4l9.3-1.8-2.2 10.8-10.8.1 3.7-9.1zm13.4-14.5l10.4-4.4.2 13-12.8 2.4 2.2-11zm11.4-16l8.1-5.4 2.1 10.6-10.1 4.3-.1-9.5zm6.9-18.3l7.6-7.7 4.8 11.4-10.3 6.9-2.1-10.6zm8.2-10l-3.8-9 5.3-7.9 6.1 9.2-7.6 7.7zm1.6-19.3l-6.2-9.4 4.2-10.4 9.3 9.1-7.3 10.7zm-1.7-21.2l4.2-10.5 13.1 8.7-7.6 11.2-9.7-9.4zm4.7-11.7l5.6-13.9 18.2 7.4-10.4 15.4-13.4-8.9zm-1.1-.7l-9.4-6.2 2.5-12.4 12.4 5-5.5 13.6zm-6.6-19.8l2.7-13.3 16 3.3-6.1 15.1-12.6-5.1zm-1.2-.5l-11.7-4.7-.1-11.3 14.4 2.9-2.6 13.1zm-11.8-17.3l-.1-16 18.6-.2-3.8 19.2-14.7-3zm-1.2-.3l-11-2.3-2.5-13.3 13.5-.2v15.8zm-13.8-16.8l-2.6-13.5 16.2-3.2.1 16.6-13.7.1zm-1.3.1l-13.5.2-4.4-10.4 15.4-3.1 2.5 13.3zM211 57.8l-5.9-13.7 18.1-7.6 3.5 18.2-15.7 3.1zm-1.3.3l-11 2.2-7-10.5 12.3-5.2 5.7 13.5zm-18.8-9.4l-7.5-11.3 13.6-9 6.4 15-12.5 5.3zm-1.1.5l-11.6 4.9-8-7.9 12.2-8.1 7.4 11.1zm-20.6-3.9L157.9 34l12.9-13.3L181.7 37l-12.5 8.3zm-1 .7l-9.4 6.2-11.2-7.6 9.4-9.7L168.2 46zm-21.7-2.1l-11.4-7.7 9.2-13.8L156.1 34l-9.6 9.9zm-.9.9l-9.4 9.7-10.5-4.2 8.7-13.1 11.2 7.6zm-21 5l-13.9-5.6 7.4-18.2 15.4 10.4-8.9 13.4zm-.8 1.1l-6.2 9.4-12.4-2.5 5-12.4 13.6 5.5zM104 57.5l-13.3-2.7 3.3-16 15.1 6.1-5.1 12.6zm-.5 1.2l-4.7 11.7-11.3.1 2.9-14.4 13.1 2.6zM86.2 70.5l-16 .1L70 52l19.2 3.8-3 14.7zm-.3 1.2l-2.3 11-13.3 2.5-.2-13.5h15.8zM69.2 85.6l-13.5 2.6L52.5 72l16.5-.2.2 13.8zm0 1.2l.2 13.5-10.4 4.5-3.1-15.4 13.3-2.6zm-11.4 18.5l-13.7 5.9-7.6-18.1 18.2-3.5 3.1 15.7zm.3 1.2l2.2 11-10.5 7-5.2-12.3 13.5-5.7zm-9.4 18.8l-11.3 7.5-9-13.6 15-6.4 5.3 12.5zm.5 1.2l4.9 11.6-7.9 8-8.1-12.2 11.1-7.4zM45.3 147l-11.2 11.4-13.3-12.9 16.3-10.9 8.2 12.4zm.7 1.1l6.2 9.4-7.6 11.2-9.7-9.4L46 148.1zm-2.1 21.6l-7.7 11.4-13.8-9.2L34 160.1l9.9 9.6zm.9.9l9.7 9.4-4.2 10.5-13.1-8.7 7.6-11.2zm5.1 21.1l-5.6 13.9-18.2-7.4 10.4-15.4 13.4 8.9zm1 .7l9.4 6.2-2.5 12.4-12.4-5 5.5-13.6zm6.7 19.9l-2.7 13.3-16-3.3 6.1-15.1 12.6 5.1zm1.1.4l11.7 4.7.1 11.3-14.4-2.9 2.6-13.1zM70.5 230l.1 16-18.6.3 3.8-19.2 14.7 2.9zm1.3.3l11 2.3 2.5 13.3-13.5.1v-15.7zm13.8 16.8l2.6 13.5-16.2 3.2-.1-16.6 13.7-.1zm1.2 0l13.5-.2 4.4 10.4-15.4 3.1-2.5-13.3zm18.5 11.3l5.9 13.7-18.1 7.6-3.5-18.2 15.7-3.1zm1.3-.2l11-2.2 7 10.5-12.3 5.2-5.7-13.5zm18.7 9.3l7.5 11.3-13.6 9-6.4-15 12.5-5.3zm1.2-.5l11.6-4.9 8 7.9-12.2 8.1-7.4-11.1zm20.5 3.9l11.4 11.2-12.9 13.3-10.9-16.3 12.4-8.2zm1.1-.7l9.4-6.2 11.2 7.6-9.4 9.7-11.2-11.1zm21.6 2.1l11.4 7.7-9.2 13.8-11.8-11.6 9.6-9.9zm.9-.9l9.4-9.7 10.5 4.2-8.7 13.1-11.2-7.6zm21.1-5l13.9 5.6-7.4 18.2-15.4-10.4 8.9-13.4zm.7-1.1l6.2-9.4 12.4 2.5-5 12.4-13.6-5.5zm19.9-6.6l13.3 2.7-3.3 16-15.1-6.1 5.1-12.6zm.5-1.2l4.7-11.7 11.3-.1-2.9 14.4-13.1-2.6zm17.2-11.8l16-.1.2 18.6-19.2-3.8 3-14.7zm.3-1.2l2.3-11 13.3-2.5.2 13.5h-15.8zm16.8-13.8l13.5-2.6 3.2 16.2-16.6.1-.1-13.7zm0-1.3l-.2-13.5 10.4-4.4 3.1 15.4-13.3 2.5zm11.3-18.5l13.7-5.9 7.6 18.1-18.2 3.5-3.1-15.7zm-.2-1.2l-2.2-11 10.5-7 5.2 12.3-13.5 5.7zm9.3-18.8l11.3-7.5 9 13.6-15 6.4-5.3-12.5zm-.5-1.1l-4.9-11.6 7.9-8 8.1 12.2-11.1 7.4zm3.9-20.6l11.2-11.4 13.3 12.9-16.3 10.9-8.2-12.4zm-.7-1.1l-6.2-9.4 7.6-11.2 9.7 9.4-11.1 11.2zm2.1-21.6l7.7-11.4 13.8 9.2-11.6 11.8-9.9-9.6zM303 99.1L290.8 117l-18.4-7.5 6.2-15.4 24.4 5zm-15.9-29.5l-9.3 23.1-16.2-3.3 3.9-19.5 21.6-.3zm-18.4-22.1l-4.2 21.2-18.8.2-.1-16.8 23.1-4.6zm-24.5-19.9l.1 23.6-16.5 3.3-3.5-18.5 19.9-8.4zM218.8 14l4.1 21.2-18.3 7.7-6.5-15.2L218.8 14zm-32-9.6l9.8 22.9-13.8 9.1-11-16.5 15-15.5zm-28.7-2.7l12 18L157 33.2l-12-11.8 13.1-19.7zm-31.4 3.2l16.8 16.6-9.3 14-15.6-10.6 8.1-20zm-27.5 8.4L117 25.4l-7.5 18.4-15.4-6.2 5.1-24.3zM69.7 29.2l23.1 9.3-3.3 16.2-19.5-4-.3-21.5zM47.6 47.5l21.2 4.2.2 18.9-16.8.1-4.6-23.2zM27.6 72l23.6-.1 3.3 16.5L36 91.9 27.6 72zM14 97.4l21.2-4.1 7.7 18.3-15.2 6.5L14 97.4zm-9.6 32.1l22.9-9.8 9.1 13.8-16.5 11-15.5-15zm-2.6 28.6l18-12 13.5 13.1-11.8 11.9-19.7-13zm3.1 31.5l16.6-16.8 14 9.3-10.6 15.6-20-8.1zm8.4 27.5l12.1-17.9 18.4 7.5-6.2 15.4-24.3-5zm15.9 29.5l9.3-23.1 16.2 3.3-3.9 19.5-21.6.3zm18.4 22.1l4.2-21.2 18.8-.2.1 16.8-23.1 4.6zm24.5 20l-.1-23.6 16.5-3.3 3.5 18.5-19.9 8.4zm25.3 13.5l-4-21.2 18.3-7.7 6.5 15.2-20.8 13.7zm32.1 9.6l-9.8-22.9 13.8-9.1 11 16.5-15 15.5zm28.6 2.7l-12-18 13.1-13.5 11.9 11.8-13 19.7zm31.5-3.2l-16.8-16.6 9.3-14 15.6 10.6-8.1 20zm27.5-8.4l-17.9-12.1 7.5-18.4 15.4 6.2-5 24.3zm29.5-15.8l-23.1-9.3 3.3-16.2 19.5 3.9.3 21.6zm22.1-18.4l-21.2-4.2-.2-18.8 16.8-.1 4.6 23.1zm20-24.5l-23.6.1-3.3-16.5 18.5-3.5 8.4 19.9zm13.5-25.4l-21.2 4.1-7.7-18.3 15.2-6.5 13.7 20.7zm9.7-32.1l-22.9 9.8-9.1-13.8 16.5-11 15.5 15zm-15.4-16.6L283.1 157l11.8-11.9 19.6 13.1-18 11.9z"/>
</svg>
