<svg xmlns="http://www.w3.org/2000/svg" viewBox="0 0 400 200">
  <g fill="#b0b0b0" fill-rule="nonzero">
    <path d="M142.8806584 75.41111111c3.5802469 0 6.5020576 2.90740741 6.5020576 6.50205761v36.38065848c0 3.5802469-2.9074074 6.5-6.5020576 6.5h-36.37860079c-3.58024691 0-6.50205761-2.9053498-6.50205761-6.5V81.89670782c0-3.5781893 2.90534979-6.4855967 6.50205761-6.4855967h36.37860079zM125.2609053 87.8880658c-7.7119341 0-13.9670781 6.2469136-13.9670781 13.9588478 0 7.7139917 6.255144 13.946502 13.9670781 13.946502 7.7119342 0 13.9670782-6.2469135 13.9670782-13.9609053 0-7.7139918-6.2407407-13.9444445-13.9670782-13.9444445zm0 4.1337449c5.4320988 0 9.8419754 4.4032922 9.8419754 9.8251029 0 5.4218107-4.3950618 9.8271605-9.8419754 9.8271605-5.4300411 0-9.8415637-4.4053498-9.8415637-9.8271605s4.4115226-9.8251029 9.8415637-9.8251029zm.3004116 1.7222222c-.1502058 0-.3004116.1193416-.3004116.2839506v7.3251029c0 .2098766.2263375.3600823.4197531.2551441l6.5123457-3.3703704c.1481482-.0740741.1934157-.2551441.1193416-.4032922-1.3497943-2.3683128-3.8559671-3.9855967-6.7510288-4.090535zm-11.7907408-6.5745286c-.5684589 0-1.1136131.2259232-1.5154321.6280266l-1.0205761 1.0185185c-.4029696.400522-.6295624.9452175-.6295624 1.5133745 0 .5681569.2265928 1.1128525.6295624 1.5133745l.8395062.8395061c.1358024.1337449.3312757.1028807.4506173-.0308642a16.40986757 16.40986757 0 011.6358024-1.9176954 15.50617764 15.50617764 0 011.9341564-1.6460906c.1497942-.090535.1646091-.3004115.0452675-.436214l-.8539095-.8539094c-.4018189-.4021034-.9469731-.6280266-1.5154321-.6280266zm13.9228395-4.56950434h-4.9979423c-1.1834076-.00022749-2.1431243.95856813-2.144033 2.14197535v1.73868309c0 .1934157.1790124.3292181.3744856.2839507 1.4138197-.4082178 2.8782217-.6146473 4.3497943-.6131688 1.4259259 0 2.8374485.1934157 4.2016461.5679013.1810699.0452675.3600823-.0884774.3600823-.2839507v-1.69341559c-.0009088-1.18340722-.9606254-2.14220284-2.144033-2.14197535zM198.4419753 114.5792085c-9.6152263.0450713-9.6152263-7.7594554-9.6152263-9.0022538l-.0164609-29.23662548 5.8658436-.93004115v29.05761313c0 .7057614 0 5.1687243 3.7654321 5.1831276v4.9281797h.0004115zm-23.7777778-4.7779739c1.8 0 3.1358025-.1049383 4.0658437-.2839506v-5.9609054a12.01480589 12.01480589 0 00-1.4115227-.2860082 13.88561934 13.88561934 0 00-2.0395062-.150206c-.6460905 0-1.3065843.0452677-1.9650205.150206-.6604939.0905349-1.2613169.2695473-1.7860083.5246913-.5246913.2551441-.9609053.6152264-1.2757201 1.0781893-.3292181.4650206-.4794239.7345679-.4794239 1.4382716 0 1.3765432.4794239 2.1728395 1.3497942 2.6954733.8703704.5246913 2.0555556.7942387 3.5415638.7942387zm-.510288-21.2695474c1.9341563 0 3.5695473.2407408 4.8905349.7201647 1.3193416.4794238 2.3851852 1.1522633 3.1646091 2.0061728.7962963.8683127 1.3353909 2.0226337 1.6650206 3.2510288.345679 1.2283951.510288 2.5761317.510288 4.0576132v15.0699588c-.8991769.1934157-2.2658436.4176955-4.0946502.6872428-1.8296296.2695473-3.8847736.4053498-6.1670782.4053498-1.5144032 0-2.909465-.1502058-4.1543209-.4341564-1.2613169-.2839506-2.3251029-.7489712-3.2263375-1.3930041-.8847737-.6440329-1.5740741-1.4691358-2.0843621-2.4855967-.4958848-1.0205761-.7510288-2.4567901-.7510288-3.9547325 0-1.4382716.2839506-2.3518519.8415637-3.3415638.5679013-.9876543 1.3333334-1.7962963 2.2942387-2.4259259.9753087-.6296296 2.0843622-1.0781893 3.3600823-1.3477366 1.2757202-.2695474 2.6111111-.4053498 3.989712-.4053498.6460905 0 1.3209876.0452675 2.0411522.1193415.7057614.0761317 1.4711934.2119342 2.281893.4053498v-.9588477c0-.6728395-.0761316-1.3168724-.2407407-1.9156379-.1582178-.5900777-.4456774-1.1375865-.8415638-1.6028806-.4053498-.4650206-.9279835-.8251029-1.5884774-1.0781893-.6604938-.2551441-1.5020576-.4506173-2.5061728-.4506173-1.3497942 0-2.5802469.164609-3.7057613.3600823-1.1255144.1934156-2.0555556.4197531-2.7613169.6728395l-.7037037-4.8065844c.7345679-.255144 1.8292181-.510288 3.2407408-.7633745 1.409465-.2716049 2.9259259-.3909465 4.5452674-.3909465h.0004116zm115.8477365 21.1049383c1.800412 0 3.133745-.1049383 4.063786-.2860082v-5.9588478c-.329218-.0905349-.794239-.1954732-1.409465-.2860082a13.91483428 13.91483428 0 00-2.041152-.1502059c-.644033 0-1.304527.0452676-1.965021.1502059-.658436.090535-1.259259.2695473-1.78395.5246914-.526749.255144-.960906.6152263-1.275721 1.0781893-.331275.4650206-.479423.7345679-.479423 1.4382716 0 1.3765432.479423 2.1728395 1.349794 2.6954732.884773.5390947 2.055555.7942387 3.541152.7942387zm-.495885-21.2530864c1.934157 0 3.569548.2386831 4.890535.718107 1.31893.4794239 2.384774 1.1522634 3.164609 2.0061728.779836.8539095 1.335391 2.0226338 1.664609 3.2510288.345679 1.2283951.510288 2.5761317.510288 4.0596708v15.0679013c-.899176.1934156-2.265432.4176954-4.09465.6893004-1.829218.2695473-3.884773.4032921-6.166666.4032921-1.514404 0-2.909465-.1502057-4.15391-.4341563-1.261317-.2839507-2.325103-.7489712-3.226337-1.3930041-.884774-.644033-1.574074-1.4691359-2.084362-2.4855968-.495885-1.0185185-.751029-2.4567901-.751029-3.9547325 0-1.4382716.286008-2.3518518.841564-3.3415638.567901-.9876543 1.333333-1.7962962 2.294238-2.4259259.975309-.627572 2.084362-1.0781893 3.360083-1.3477366 1.27572-.2695473 2.611111-.4032922 3.991769-.4032922.644033 0 1.31893.0452675 2.039095.1193416.720164.0740741 1.471193.2098765 2.279835.4053498v-.9588478c0-.6748971-.074074-1.31893-.238683-1.9176954-.157765-.5902546-.445275-1.1378586-.841564-1.6028807-.40535-.4650206-.927983-.8251029-1.588477-1.0781893-.660906-.255144-1.502058-.4485597-2.506173-.4485597-1.349794 0-2.580247.1646091-3.705761.3580247-1.125515.1954733-2.055556.4197531-2.761317.6748971l-.703704-4.8086419c.734568-.2551441 1.829218-.5082305 3.240741-.7633745 1.409465-.255144 2.923868-.3888889 4.545267-.3888889zm-17.613168-2.7860082c1.964609 0 3.572016-1.5884774 3.572016-3.55144037 0-1.96090534-1.590946-3.54938271-3.572016-3.54938271-1.979424 0-3.569959 1.58847737-3.569959 3.54938271 0 1.96296297 1.604938 3.55144037 3.569959 3.55144037zm2.954732 28.9814814h-5.895473V89.2950617l5.895062-.9279835v26.2119341h.000411zm-10.335802.0001962c-9.615227.0450713-9.615227-7.7594554-9.615227-9.0022538l-.016461-29.23662548 5.866256-.93004115v29.05761313c0 .7057614 0 5.1687243 3.765432 5.1831276v4.9281797zm-19.067902-12.9405254c0-2.5329218-.555555-4.6440329-1.635391-6.1111111-1.080246-1.4835391-2.59465-2.2160494-4.530864-2.2160494-1.934156 0-3.451029.7325103-4.529218 2.2160494-1.080247 1.4814815-1.606584 3.5781893-1.606584 6.1111111 0 2.5617284.541152 4.281893 1.621399 5.7654321 1.080247 1.4979424 2.59465 2.2325103 4.530864 2.2325103 1.934157 0 3.450617-.7489712 4.530864-2.2325103 1.079836-1.4979424 1.61893-3.2037037 1.61893-5.7654321zm6-.0144033c0 1.9773663-.28395 3.4732511-.869958 5.1069959-.584363 1.6316873-1.409465 3.0246914-2.473251 4.1790124-1.065844 1.1522633-2.341564 2.0514403-3.841976 2.6810699-1.499588.627572-3.810699.9876543-4.96502.9876543-1.156379-.0144032-3.450618-.3436214-4.936214-.9876543-1.485597-.6440329-2.761317-1.5288066-3.825103-2.6810699-1.065844-1.154321-1.890535-2.5473251-2.491358-4.1790124-.599177-1.6337448-.899177-3.1296296-.899177-5.1069959 0-1.9773662.269136-3.8806584.869959-5.4979424.600823-1.6172839 1.440329-2.9958847 2.520576-4.1481481 1.080247-1.154321 2.37037-2.0390946 3.839506-2.6666667 1.485597-.6296296 3.121399-.9279835 4.890946-.9279835 1.771605 0 3.40535.3127572 4.90535.9279835 1.502058.6275721 2.792593 1.5123457 3.841976 2.6666667 1.063374 1.1522634 1.888888 2.5308642 2.489711 4.1481481.62963 1.617284.944445 3.5205762.944445 5.4979424h-.000412zm-44.149794 0c0 2.4547325.539095 5.18107 1.619342 6.3189301 1.080247 1.1399177 2.474897 1.7078189 4.187243 1.7078189.930041 0 1.814814-.1337448 2.639506-.3888889.825103-.255144 1.48395-.5555555 2.010699-.9135802V93.8053498c-.419753-.090535-2.175308-.4506173-3.872428-.4938272-2.129629-.0617284-3.748971.808642-4.888889 2.1995885-1.125926 1.3950617-1.695473 3.835391-1.695473 6.1131687zm16.306585 11.5617284c0 4-1.020577 6.9197531-3.076544 8.7777778-2.053498 1.8559671-5.1893 2.7860082-9.419753 2.7860082-1.545267 0-4.755144-.3004115-7.320987-.8683127l.944444-4.6440329c2.146091.4485596 4.981481.5699588 6.467078.5699588 2.35391 0 4.03498-.4794239 5.039095-1.4382716 1.006173-.9588477 1.5-2.3806584 1.5-4.2695473v-.9588478c-.584362.2839507-1.349794.5699589-2.294239.8703704-.944444.2839506-2.039094.4341564-3.271605.4341564-1.619341 0-3.090535-.255144-4.423868-.7654321-1.335391-.5082305-2.49177-1.2572017-3.436214-2.2469136-.944445-.9876543-1.695473-2.2304527-2.220165-3.7139918-.524691-1.4835391-.796296-4.1337448-.796296-6.0802469 0-1.8271605.286008-4.1193415.841975-5.6481481.569548-1.526749 1.378601-2.845679 2.474897-3.9382716 1.080659-1.0925926 2.401235-1.9320988 3.946503-2.5473251 1.545267-.6131688 3.358024-1.0020576 5.323045-1.0020576 1.907407 0 3.662551.2386831 5.372428.5246913 1.709876.2839506 3.164609.5823045 4.349794.9115227v23.2469135h.000412z"/>
  </g>
</svg>