<svg xmlns="http://www.w3.org/2000/svg" viewBox="0 0 400 200">
  <g fill="#101010" fill-rule="nonzero">
    <path d="M164.86868 96.94372l2.05058-2.05058c.0273-.02716.05446-.05446.07266-.08162l.0091.00896-2.13234 2.12324z"/>
    <path d="M171.60072 104.52864c.38108.9345.56266 1.93256.56266 2.91242 0 .98896-.18158 1.97806-.56266 2.91256-.38108.9345-.9527 1.81468-1.70576 2.55864l-12.0946 12.1219c-.75306.75306-1.6331 1.32468-2.55864 1.69666-.9345.38108-1.92346.57162-2.91256.57162-.98896 0-1.97792-.19054-2.91242-.57162-.9345-.38108-1.81468-.9527-2.56774-1.69666l-1.56968-1.56968-12.820472-12.8205c-.707714-.7077-1.2884004-1.53342-1.7057698-2.45882-.417368-.92554-.66234588-1.95076-.66234588-3.02148v-.15414L130 94.52088v-.04536c.07258594-1.99612.9345434-3.829 2.295524-5.18994l14.517216-14.517188c1.50612-1.506162 3.50224-2.2773861 5.47106-2.268392.9891 0 1.97806.1815436 2.91256.5626194.9345.3810758 1.81468.9526846 2.56774 1.7057726l12.17622 12.176248c.7532.75306 1.32482 1.62414 1.6968 2.55864.38108.93464.57162 1.9236.57162 2.91256 0 .98896-.19054 1.97792-.56266 2.91256-.38108.9345-.95256 1.81454-1.70576 2.5676l-2.05044 2.05058-3.03058 3.03044-7.0952 7.09534c-.75306.75306-1.63324 1.32468-2.55864 1.69666-.9345.38108-1.93256.57162-2.91256.57162-.97986 0-1.97792-.19054-2.91242-.57162-.93464-.38108-1.81468-.9527-2.55864-1.69666l-1.26126-1.23396-3.36616-3.36616c-.753074-.75306-1.32468-1.63324-1.70576-2.56774-.372008-.9345-.562548-1.9236-.562548-2.91256 0-.98896.19054-1.97792.562548-2.91242.38108-.93464.952686-1.81468 1.70576-2.56774l4.63638-4.63652c.75306-.75306 1.63324-1.32468 2.55864-1.70576.93464-.38108 1.9236-.56252 2.91256-.56252.98896 0 1.97792.18144 2.91256.56252.9345.38108 1.81454.9527 2.56774 1.6968l4.56372 4.56372-3.02134 3.02148-4.56386-4.55476c-.34468-.34482-.72576-.58982-1.1522-.76216-.41748-.17248-.86198-.2541-1.30662-.2541-.44464 0-.88914.08162-1.30648.2541-.41748.17234-.79856.41734-1.15234.76216l-4.62742 4.64548c-.34468.34482-.58968.7259-.76216 1.15234-.17234.41734-.25396.86184-.25396 1.30648 0 .44464.09072.88914.25396 1.30662.17248.41734.41748.79842.76216 1.1522l3.36616 3.36616 1.25216 1.25216c.34482.34482.7259.58982 1.14324.76216.41734.17234.86198.2541 1.30648.2541.44464 0 .88928-.08176 1.30662-.2541.41734-.17234.79842-.42644 1.15234-.76216l.9436-.9436L167.0006 94.8202l-.00896-.0091c.30842-.32662.53522-.6804.6895-1.07058.17234-.41734.2541-.86198.2541-1.30648 0-.44464-.08176-.88928-.2541-1.30662-.17234-.41734-.41734-.79842-.76216-1.15234l-12.16726-12.167162c-.34468-.344778-.73486-.58975-1.1522-.762146-.41734-.172396-.86198-.254058-1.31572-.254058-.4445 0-.88914.081662-1.30648.254058-.41734.172396-.79842.42644-1.14324.762146L135.31692 92.32512c-.64421.64414-1.007132 1.46076-1.04342 2.29544v.0091l.09072 10.40704v.12698c0 .42644.090734.84392.281274 1.27036.19054.41734.471814.83468.825664 1.18846l12.820542 12.8114 1.56954 1.56968c.34482.34482.7259.59892 1.14324.76216.41748.17248.86198.2541 1.30662.2541.44464 0 .88914-.09072 1.30648-.2541.41748-.17234.79856-.41734 1.15234-.76216l12.0946-12.0946c.34482-.34468.58982-.72576.76216-1.1522.17248-.41748.2541-.86198.2541-1.30662 0-.44464-.08162-.88914-.2541-1.30648-.07252-.17248-.15428-.33572-.25396-.49l3.0667-3.0667c.49.59878.88004 1.25202 1.1613 1.94166zM203.45688 104.0203c-.29036 1.46986-.79856 2.78544-1.56058 3.94688-.7441 1.1613-1.6604 2.14116-2.73112 2.92152-1.06162.78932-2.24112 1.37914-3.52044 1.79648-1.29738.39928-2.604.61698-3.95584.61698-1.85094 0-3.52044-.34482-5.0176-1.01612-1.49702-.68054-2.76724-1.60608-3.83796-2.77648-1.07058-1.1795-1.8963-2.57684-2.47702-4.19188-.58058-1.61504-.87094-3.36616-.87094-5.25336s.29036-3.63832.87094-5.25336c.58072-1.61504 1.41554-3.02148 2.49522-4.21008 1.07968-1.18846 2.39526-2.1322 3.93778-2.79454 1.54238-.6804 3.24814-1.01612 5.12638-1.01612 1.37914 0 2.71292.2086 3.98314.65324 1.27022.43554 2.40436 1.06162 3.41152 1.86004 1.00716.78932 1.85094 1.76022 2.54058 2.88526.57148.9345.98896 1.96896 1.26112 3.11206h-5.4803c-.33572-1.03432-.9254-1.8963-1.79648-2.5858-1.07058-.84378-2.3772-1.27022-3.91048-1.27022-.88018 0-1.71486.16324-2.52238.48986-.79842.33572-1.50612.84392-2.11414 1.56058-.61698.69874-1.10684 1.57878-1.46076 2.6495-.35378 1.07058-.54432 2.3499-.54432 3.86512 0 1.50612.19054 2.79454.54432 3.88332.35392 1.07982.84378 1.96896 1.46076 2.68576.61698.6986 1.31572 1.22486 2.09594 1.55148.78036.33572 1.57878.49 2.3954.49.6895 0 1.37004-.08176 2.03238-.2359.66234-.15428 1.27022-.42644 1.84184-.78946.55342-.38108 1.05252-.86184 1.46076-1.43346.39928-.58072.69874-1.29752.88928-2.1413h5.453zM211.62294 112.74846c-1.1431-.36288-2.1322-.87094-2.96688-1.53328-.83468-.66234-1.47896-1.4518-1.93256-2.3772-.45374-.92554-.68054-1.96896-.68054-3.13026 0-1.56968.45374-2.8763 1.36094-3.91062.90734-1.03432 2.1413-1.8872 3.69292-2.54044 1.55148-.66234 3.35706-1.16144 5.4166-1.50626 2.05968-.34468 4.24634-.64414 6.56908-.89824v-.4718c0-1.07058-.13608-1.96882-.42644-2.70382-.28126-.73486-.67144-1.31558-1.15234-1.74202-.48986-.42644-1.05252-.7259-1.69666-.91644-.64414-.19054-1.30648-.28126-2.00522-.28126-1.4154 0-2.5949.38108-3.5567 1.13414-.96166.7532-1.46986 1.8963-1.53328 3.43882h-5.50746c.09072-1.28842.42644-2.46792.98896-3.52954.56252-1.07058 1.31558-1.98702 2.25918-2.75828.9436-.77112 2.05058-1.36094 3.3208-1.78738 1.27022-.42644 2.67666-.63518 4.20994-.63518 1.50626 0 2.92166.19054 4.23724.56266 1.31558.38108 2.46792.98896 3.43882 1.83274.97076.84378 1.72382 1.96882 2.25918 3.36616.53536 1.39734.78932 3.1031.75306 5.10818 0 .31766-.0091.7259-.02716 1.225-.0182.49896-.0273 1.05238-.0273 1.6513 0 .59878-.00896 1.21576-.02716 1.86004-.0182.64414-.02716 1.25202-.02716 1.81454 0 1.59698.06342 3.17562.19054 4.73634.12698 1.55148.31752 2.86706.56252 3.92868h-5.13548c-.09072-.53536-.18144-1.01626-.2632-1.46076-.08162-.43554-.14504-1.09788-.2086-1.97806-.81662 1.37914-1.94166 2.4045-3.36616 3.05774-1.4245.66234-3.0849.98896-4.96314.98896-1.34274 0-2.6131-.18144-3.75634-.54446zm6.47836-11.32334c-1.4154.2541-2.57684.56252-3.48418.9436-.9072.38108-1.57864.82572-2.00508 1.34288-.42644.51716-.63518 1.13414-.63518 1.86004 0 1.09788.42644 1.95972 1.27022 2.5858s1.97806.9436 3.39346.9436c2.06864 0 3.69278-.52626 4.85408-1.57864 1.16144-1.05252 1.74216-2.65846 1.74216-4.82706v-1.93256c-2.01432.19054-3.72918.41734-5.13548.66234zM246.84498 91.79844c-.98896-.49-2.18666-.7259-3.60206-.7259-1.22486 0-2.31364.2541-3.27544.75306-.9527.4991-1.4336 1.1795-1.4336 2.02342 0 .84378.29036 1.50612.87108 1.97792.58072.4718 1.4245.81662 2.52238 1.03432l3.57476.7077c1.28842.2541 2.47702.55356 3.5749.89824 1.09788.34482 2.05968.80752 2.87616 1.38824.81662.58072 1.4518 1.29752 1.9054 2.1413.45374.84378.68054 1.8872.68054 3.1031 0 1.31558-.29036 2.48598-.87108 3.51134-.58058 1.01612-1.36094 1.8781-2.3499 2.56774-.98896.6895-2.1231 1.21576-3.41152 1.57864-1.28842.36302-2.64936.54446-4.10116.54446-1.56968 0-2.98508-.20874-4.2644-.63518-1.27022-.42644-2.3772-1.00716-3.3208-1.74202-.9436-.735-1.70576-1.61504-2.28648-2.64026-.58072-1.01626-.9527-2.12324-1.10684-3.32094h5.46196c.2541 1.31572.84392 2.33184 1.78752 3.03954.9436.70784 2.24112 1.06162 3.91048 1.06162 1.47896 0 2.69486-.29036 3.64742-.87108.9527-.58058 1.4336-1.3881 1.4336-2.42256 0-1.03432-.41734-1.81454-1.25202-2.3317-.83482-.5173-1.87824-.89824-3.13026-1.15234l-3.8108-.75306c-1.07072-.21784-2.05968-.5082-2.99418-.87108-.9254-.36288-1.73292-.83468-2.42256-1.4154-.6895-.58072-1.23396-1.28842-1.62414-2.11414-.39004-.83468-.58968-1.83274-.58968-2.99404 0-1.13428.28126-2.1413.84378-3.03954.56252-.89824 1.31558-1.6604 2.25918-2.30468.9436-.64414 2.03238-1.13414 3.27544-1.47896 1.24306-.34468 2.54968-.51716 3.92882-.51716 1.22486 0 2.41346.14518 3.57476.44464 1.16144.29946 2.21396.76216 3.15756 1.38824.9436.62594 1.74202 1.4154 2.40436 2.359.66234.9436 1.11594 2.04148 1.36094 3.29364h-5.27156c-.29932-1.17964-.9436-1.99612-1.93256-2.48612zM264.91912 92.01642v15.4427H270v5.2262h-6.50538c-2.31378 0-4.18278-1.87824-4.18278-4.18278V92.01642h-3.64742v-4.76336h3.64742v-5.471228h5.60728v5.471228H270v4.76336h-5.08088z"/>
  </g>
</svg>