<svg xmlns="http://www.w3.org/2000/svg" viewBox="0 0 400 200">
  <g fill="#101010" fill-rule="nonzero">
    <path d="M70 100.082333v-.0823333c0-8.40840003 6.4298-15.00373337 15.1684-15.00373337 5.8950667 0 9.6876 2.47346667 12.2425333 5.97653334l-6.0172666 4.65746663C89.7444 93.610933 87.849 92.25026633 85.0869333 92.25026633c-4.0404 0-6.8839333 3.46319997-6.8839333 7.66739997v.0823334c0 4.3281333 2.8426667 7.7081333 6.8839333 7.7081333 3.0090667 0 4.7805334-1.4022667 6.5112667-3.5039333l6.019 4.2874c-2.7204667 3.7509333-6.3890667 6.5121333-12.7365333 6.5121333C76.63693333 115.003733 70 108.6969997 70 100.082333zM99.8289333 85.57346633h7.9967334V107.419533h13.9732666v7.007h-21.97zM122.3926 100.082333v-.0823333c0-8.2844667 6.6776667-15.00373337 15.5809333-15.00373337 8.9024 0 15.4986 6.63693334 15.4986 14.92139997v.0823334c0 8.2853333-6.6776666 15.0037333-15.5809333 15.0037333-8.9024 0-15.4986-6.6360667-15.4986-14.9214zm22.8765333 0v-.0823333c0-4.2042-2.9666-7.78960003-7.3779333-7.78960003-4.4096 0-7.3372 3.54466663-7.3372 7.70813333v.0814667c0 4.1634666 3.0090667 7.7904666 7.4195333 7.7904666 4.3697334 0 7.2956-3.5455333 7.2956-7.7081333zM156.1596667 101.772333V85.57346633H164.2396v16.03419997c0 4.1634667 2.1016667 6.1420667 5.317 6.1420667 3.256933 0 5.3586-1.8962667 5.3586-5.9358V85.57346633h8.0782V101.566933c0 9.2742-5.317 13.3960667-13.52 13.3960667-8.1614-.0008667-13.3137333-4.1634667-13.3137333-13.1906667zM187.1014 85.57346633h11.171333c10.263067 0 16.2396 5.93493334 16.2396 14.26186667v.0823333c0 8.3260667-6.059733 14.5088667-16.405133 14.5088667h-11.0058V85.57346633zm7.9976 7.0486v14.71513337h3.256067c4.823 0 7.996733-2.6381334 7.996733-7.2956v-.0823334c0-4.6167333-3.1746-7.33719997-7.996733-7.33719997H195.099zM215.769867 108.6146663L230.238 92.29186633h-13.973267v-6.7184H241.2438V91.343733l-14.468133 16.3228H241.2438v6.76h-25.473067v-5.8118667zM244.731267 85.57346633h23.2076v6.76h-15.2932V96.743933h13.8502v6.3067333h-13.8502v4.5751334h15.4986v6.8016h-23.412134V85.57346633zM271.786867 85.57346633H285.4308c4.411333 0 7.460267 1.1544 9.398133 3.0914 1.69 1.69 2.554934 3.874 2.554934 6.71839997v.0823334c0 4.4520666-2.348667 7.3788-5.934934 8.9041333l6.883934 10.0576667H289.141l-5.812733-8.7386H279.7836v8.7386h-7.996733V85.57346633zM285.1006 99.4227997c2.679733 0 4.2874-1.3190667 4.2874-3.4207334v-.0832c0-2.3079333-1.69-3.4623333-4.328133-3.4623333H279.7836v6.9654h5.317v.0008667zM298.920467 100.082333v-.0823333c0-8.2844667 6.677666-15.00373337 15.580933-15.00373337 8.9024 0 15.4986 6.63606667 15.4986 14.92139997v.0823334c0 8.2853333-6.677667 15.0037333-15.580933 15.0037333-8.9024 0-15.4986-6.6360667-15.4986-14.9214zm22.876533 0v-.0823333c0-4.2042-2.9666-7.78960003-7.377933-7.78960003-4.4096 0-7.3372 3.54466663-7.3372 7.70813333v.0814667c0 4.1634666 3.009066 7.7904666 7.419533 7.7904666 4.369733 0 7.2956-3.5455333 7.2956-7.7081333z"/>
  </g>
</svg>