<svg xmlns="http://www.w3.org/2000/svg" viewBox="0 0 400 200">
  <g fill="none" fill-rule="nonzero">
    <path fill="#808080" d="M131.815261 97.1084339c2.120482 0 3.7911647-.8353414 5.1405623-2.5060241l2.6987952 2.8273092c-2.184739 2.4417671-4.6907631 3.6626506-7.6465864 3.6626506-2.9558233 0-5.3333333-.8995984-7.2610441-2.7630522-1.9277109-1.8634538-2.8273093-4.1767068-2.8273093-7.0040161 0-2.8273092.9638554-5.20481924 2.8915663-7.06827305 1.9277108-1.86345382 4.3052209-2.82730924 7.1325301-2.82730924 3.1485944 0 5.7831325 1.22088354 7.8393574 3.59839358l-2.6345381 3.02008032c-1.3493976-1.67068273-3.0200803-2.5060241-5.0120482-2.5060241-1.6064257 0-2.9558233.51405623-4.1124498 1.54216868-1.1566265 1.02811245-1.7349398 2.44176711-1.7349398 4.24096381 0 1.7991968.5140563 3.2128514 1.6064257 4.3052209 1.0923695.8995984 2.3775101 1.4779117 3.9196787 1.4779117zm11.24498 3.7269076V81.75100415h4.2409638V97.0441768h8.1606426v3.7911647H143.060241zm31.036145-2.6345382c-1.927711 1.8634539-4.3052213 2.8273093-7.1325306 2.8273093-2.8273092 0-5.2048193-.9638554-7.1325301-2.8273093-1.9277108-1.8634538-2.8915663-4.2409638-2.8915663-7.004016 0-2.76305222.9638555-5.14056226 2.8915663-7.00401608 1.9277108-1.86345381 4.3052209-2.82730924 7.1325301-2.82730924 2.8273093 0 5.2048196.96385543 7.1325306 2.82730924 1.92771 1.86345382 2.891566 4.24096386 2.891566 7.00401608 0 2.7630522-.963856 5.1405622-2.891566 7.004016zm-1.477912-7.004016c0-1.6706827-.578313-3.14859439-1.606426-4.36947793-1.0923693-1.22088353-2.4417669-1.79919678-4.0481926-1.79919678s-2.9558233.57831325-4.0481927 1.79919678c-1.0923695 1.22088354-1.6706828 2.63453813-1.6706828 4.36947793 0 1.7349397.5783133 3.1485944 1.6706828 4.3694779 1.0923694 1.2208835 2.441767 1.7991968 4.0481927 1.7991968 1.6064257 0 2.9558233-.5783133 4.0481926-1.7991968 1.09237-1.2208835 1.606426-2.6345382 1.606426-4.3694779zm13.044177 4.7550201c.706827.8995984 1.670682 1.3493976 2.891566 1.3493976 1.220883 0 2.184739-.4497992 2.827309-1.3493976.706827-.8995984 1.028113-2.120482 1.028113-3.5983936V81.75100415h4.240963V92.4176708c0 2.7630522-.771084 4.8835342-2.313253 6.3614458-1.542168 1.4779116-3.469879 2.248996-5.847389 2.248996-2.37751 0-4.369478-.7710844-5.911647-2.248996-1.542168-1.4779116-2.313253-3.5983936-2.313253-6.3614458V81.75100415h4.240964V92.2891568c.064257 1.5421686.449799 2.7630522 1.156627 3.6626506zm30.008032-11.69477915c1.799197 1.67068273 2.763052 3.98393574 2.763052 6.93975905 0 2.9558233-.899598 5.3333333-2.634538 7.0682731-1.799197 1.7349397-4.497992 2.5702811-8.096386 2.5702811h-6.618474V81.75100415h6.746988c3.405623 0 6.040161.83534137 7.839358 2.5060241zm-3.084338 11.37349395c1.028113-.9638554 1.542169-2.441767 1.542169-4.3052209 0-1.8634538-.514056-3.34136542-1.542169-4.30522084-1.028112-1.02811245-2.634538-1.54216868-4.819277-1.54216868h-2.37751V97.1084339h2.698795c1.927711 0 3.405623-.5140563 4.497992-1.4779117zm30.07229-13.87951805h4.30522v19.08433735h-4.30522l-9.060241-11.95180723v11.95180723h-4.305221V81.75100415h4.048192l9.31727 12.33734945V81.75100415zm22.554216 19.08433735l-1.799196-4.1124498h-8.032129l-1.799197 4.1124498h-4.562249l8.2249-19.08433735h4.11245l8.224899 19.08433735h-4.369478zm-5.718875-13.36546185l-2.37751 5.52610445h4.75502l-2.37751-5.52610445zm19.212851-1.99196787v15.35742972h-4.305221V85.47791178h-5.39759v-3.72690763h15.100402v3.72690763h-5.397591zm8.481928-3.72690763h4.240964v19.08433735h-4.240964V81.75100415zm16 12.14457835l4.883534-12.14457835h4.626506l-7.710843 19.08433735h-3.598394l-7.646586-19.08433735h4.626506l4.819277 12.14457835zm25.51004-12.14457835v3.79116466h-9.51004v3.98393579h8.546185v3.5983935h-8.546185v3.9839358h9.831325v3.7269076h-14.072289V81.75100415h13.751004zM126.9317269 117.0923696c1.1566265 0 2.1204819-.4497992 2.8915663-1.4136546l1.5421686 1.6064257c-1.2208835 1.3493976-2.6345381 2.0562249-4.3052208 2.0562249-1.6706828 0-3.0200804-.5140562-4.0481928-1.5421687-1.0923695-1.0281124-1.6064257-2.37751-1.6064257-3.9196787 0-1.6064257.5140562-2.8915663 1.6064257-3.9839357 1.0923695-1.0923695 2.4417671-1.6064257 3.9839357-1.6064257 1.7349398 0 3.2128514.6425702 4.433735 1.9919678l-1.4779117 1.6706828c-.7710843-.9638555-1.6706827-1.4136547-2.8273092-1.4136547-.8995984 0-1.6706827.3212852-2.313253.8995984-.6425703.5783133-.9638554 1.3493976-.9638554 2.3775101 0 1.0281124.3212851 1.7991968.8995984 2.37751.5783132.6425703 1.3493975.8995984 2.1847389.8995984zm15.0361446.6425703c-1.0923695 1.0281124-2.4417671 1.6064257-3.9839358 1.6064257-1.5421686 0-2.8915662-.5140562-3.9839357-1.6064257-1.0923695-1.0281125-1.6064257-2.37751-1.6064257-3.9196787s.5140562-2.8915663 1.6064257-3.9196787c1.0923695-1.0281125 2.4417671-1.6064257 3.9839357-1.6064257 1.5421687 0 2.8915663.5140562 3.9839358 1.6064257 1.0923695 1.0281124 1.6064257 2.37751 1.6064257 3.9196787s-.5140562 2.8915662-1.6064257 3.9196787zm-.7710844-3.9196787c0-.9638554-.3212851-1.7991968-.8995983-2.4417671-.6425703-.6425703-1.3493976-1.0281124-2.248996-1.0281124-.8995984 0-1.6706828.3212851-2.248996 1.0281124-.6425703.6425703-.8995984 1.4779117-.8995984 2.4417671 0 .9638554.3212851 1.7349397.8995984 2.441767.6425703.6425703 1.3493976 1.0281125 2.248996 1.0281125.8995984 0 1.6706827-.3212851 2.248996-1.0281125.5783132-.6425702.8995983-1.4779116.8995983-2.441767zm14.0080322-1.3493976l-2.8915663 5.9116466h-1.4136546l-2.8915663-5.9116466v6.7469879h-2.37751v-10.6666666h3.2128514l2.7630522 5.8473895 2.7630522-5.8473895h3.2128514v10.6666666h-2.37751v-6.7469879zm12.4016064-2.9558233c.7710843.6425703 1.1566265 1.6064257 1.1566265 2.9558233s-.3855422 2.313253-1.1566265 2.8915663c-.7710843.6425702-1.9277108.8995983-3.5341365.8995983h-1.4136547v2.9558233h-2.37751v-10.6666666h3.7911647c1.6064257 0 2.7630522.3212851 3.5341365.9638554zm-1.7349398 4.1767068c.2570282-.3212851.4497992-.7710843.4497992-1.4136546 0-.6425703-.192771-1.0281124-.5783132-1.2851406-.3855422-.2570281-.9638554-.3855421-1.7349398-.3855421h-1.3493976v3.5983935h1.6064257c.7710844 0 1.2851406-.192771 1.6064257-.5140562zm7.5823291 2.7630522c.385542.5140563.963856.7710844 1.606426.7710844.64257 0 1.220883-.2570281 1.606426-.7710844.385542-.5140562.578313-1.1566265.578313-2.0562249v-5.9116466h2.37751v5.9759037c0 1.5421686-.449799 2.7630522-1.285141 3.5983935-.835341.8353414-1.92771 1.2208836-3.277108 1.2208836s-2.441767-.4497992-3.277108-1.2851406c-.835342-.8353414-1.285141-2.0562249-1.285141-3.5983936v-5.9759036h2.37751v6.0401607c0 .8353413.192771 1.5421686.578313 1.9919678zm13.172691-5.8473895v8.6104417h-2.37751v-8.6104417h-3.02008v-2.0562249h8.41767v2.0562249h-3.02008zm4.819277-2.0562249h2.37751v10.7309237h-2.37751v-10.7309237zm12.465864 0h2.37751v10.6666666h-2.37751l-5.076306-6.6827309v6.6827309h-2.37751v-10.6666666h2.184739l5.269077 6.875502v-6.875502zm12.016064 5.2690763h2.37751v3.7911646c-1.09237 1.1566265-2.506024 1.7991968-4.433735 1.7991968-1.542169 0-2.891566-.5140562-3.983936-1.5421686-1.092369-1.0281125-1.606426-2.3775101-1.606426-3.9196788 0-1.6064257.514057-2.8915662 1.606426-3.9839357 1.09237-1.0923695 2.37751-1.6064257 3.919679-1.6064257s2.891566.5140562 3.983936 1.5421687l-1.220884 1.7991968c-.449799-.4497992-.899598-.7068274-1.349397-.8353414-.385543-.1285141-.835342-.2570281-1.285141-.2570281-.899598 0-1.670683.3212851-2.313253.8995984-.64257.6425702-.963855 1.4136546-.963855 2.441767 0 1.0281125.321285 1.7991968.899598 2.4417671.578313.5783133 1.28514.8995984 2.120482.8995984.835341 0 1.542169-.1285141 2.056225-.4497992l.192771-3.0200803zm15.871486-5.2690763v2.0562249h-4.947791v2.313253h4.75502v2.1204819h-4.75502v4.1767068h-2.37751v-10.6666666h7.325301zm11.052209 9.188755c-1.09237 1.0281124-2.441767 1.6064257-3.983936 1.6064257-1.606426 0-2.891566-.5140562-3.983936-1.6064257-1.092369-1.0281125-1.606426-2.37751-1.606426-3.9196787s.514057-2.8915663 1.606426-3.9196787c1.09237-1.0281125 2.441767-1.6064257 3.983936-1.6064257 1.606426 0 2.891566.5140562 3.983936 1.6064257 1.092369 1.0281124 1.606425 2.37751 1.606425 3.9196787s-.514056 2.8915662-1.606425 3.9196787zm-.835342-3.9196787c0-.9638554-.321285-1.7991968-.899598-2.4417671-.64257-.6425703-1.349398-1.0281124-2.248996-1.0281124-.899599 0-1.670683.3212851-2.248996 1.0281124-.64257.6425703-.899598 1.4779117-.899598 2.4417671 0 .9638554.321285 1.7349397.899598 2.441767.64257.6425703 1.349397 1.0281125 2.248996 1.0281125.899598 0 1.670683-.3212851 2.248996-1.0281125.64257-.6425702.899598-1.4779116.899598-2.441767zm7.325301 2.6345381c.385543.5140563.963856.7710844 1.606426.7710844.64257 0 1.220884-.2570281 1.606426-.7710844.385542-.5140562.578313-1.1566265.578313-2.0562249v-5.9116466h2.37751v5.9759037c0 1.5421686-.449799 2.7630522-1.28514 3.5983935-.835342.8353414-1.927711 1.2208836-3.277109 1.2208836-1.349397 0-2.441767-.4497992-3.277108-1.2851406-.835342-.8353414-1.285141-2.0562249-1.285141-3.5983936v-5.9759036h2.37751v6.0401607c-.064257.8353413.192771 1.5421686.578313 1.9919678zm16.128515-7.9036144h2.37751v10.6666666h-2.37751l-5.076306-6.6827309v6.6827309h-2.37751v-10.6666666h2.184739l5.269077 6.875502v-6.875502zm13.17269 1.4136546c1.028113.9638554 1.542169 2.248996 1.542169 3.9196787s-.514056 2.9558233-1.477912 3.9196787c-.963855.9638554-2.506024 1.4779117-4.562249 1.4779117h-3.66265v-10.7309237h3.791164c1.927711 0 3.405623.4497992 4.369478 1.4136546zm-1.734939 6.3614458c.578313-.5783133.899598-1.3493976.899598-2.3775101 0-1.0281124-.321285-1.8634538-.899598-2.441767-.578314-.5783133-1.477912-.8353414-2.698796-.8353414h-1.349397v6.4899598h1.542168c1.09237-.064257 1.927711-.3212851 2.506025-.8353413zm12.658634 2.8915662l-.963855-2.313253h-4.497992l-.963856 2.313253h-2.570281l4.626506-10.7309237h2.313253l4.626506 10.7309237h-2.570281zm-3.212851-7.5180722l-1.349398 3.0843373h2.698795l-1.349397-3.0843373zm10.79518-1.0923695v8.6104417h-2.441767v-8.6104417h-3.02008v-2.0562249h8.481928v2.0562249h-3.020081zm4.75502-2.0562249h2.37751v10.7309237h-2.37751v-10.7309237zm14.008033 9.188755c-1.09237 1.0281124-2.441767 1.6064257-3.983936 1.6064257-1.606426 0-2.891566-.5140562-3.983936-1.6064257-1.092369-1.0281125-1.606426-2.37751-1.606426-3.9196787s.514057-2.8915663 1.606426-3.9196787c1.09237-1.0281125 2.441767-1.6064257 3.983936-1.6064257 1.606426 0 2.891566.5140562 3.983936 1.6064257 1.092369 1.0281124 1.606425 2.37751 1.606425 3.9196787s-.514056 2.8915662-1.606425 3.9196787zm-.771085-3.9196787c0-.9638554-.321285-1.7991968-.899598-2.4417671-.64257-.6425703-1.349398-1.0281124-2.248996-1.0281124-.899599 0-1.670683.3212851-2.248996 1.0281124-.64257.6425703-.899599 1.4779117-.899599 2.4417671 0 .9638554.321286 1.7349397.899599 2.441767.64257.6425703 1.349397 1.0281125 2.248996 1.0281125.899598 0 1.670683-.3212851 2.248996-1.0281125.578313-.6425702.899598-1.4779116.899598-2.441767zm11.88755-5.2690763h2.441768v10.6666666h-2.441768l-5.076305-6.6827309v6.6827309h-2.37751v-10.6666666h2.248996l5.204819 6.875502v-6.875502zM76.10441767 106.554217h-5.84738956v13.751004H83.9437751v-5.9116466h-7.83935743v-7.8393574zm29.42971883.064257v7.7751004h-7.8393574v-.064257 5.9759036h13.686747v-13.751004h-5.9116466l.064257.064257zM70.25702811 92.86747h5.91164659l-.06425703-.064257v-7.77510041h7.83935743V79.116466H70.25702811V92.86747zM97.6947791 79.116466v5.91164659h7.8393574V92.86747h5.8473896V79.116466h-13.686747z"/>
    <path fill="#696969" d="M96.9236948 92.86747l-7.8393575-7.83935741h8.6104418V79.116466h-13.751004v5.91164659L91.7831325 92.86747h5.1405623zm-7.0682731 13.686747h-5.1405623l6.4899599 6.4899598 1.2851405 1.3493976h-8.5461847v5.9116466h13.751004v-5.9759036l-3.9196787-3.8554217-3.9196787-3.9196787zm15.6787148-13.686747v8.5461848l-1.3493975-1.3493976-6.4899599-6.4899599v5.2048193l3.8554217 3.8554217 3.9196787 3.9196787h5.9116466V92.86747h-5.8473896zm-21.5903614 7.7751004L76.1686747 92.86747h-5.91164659v13.686747h5.84738956v-8.5461847l7.83935743 7.8393574v-5.2048193z"/>
  </g>
</svg>