<svg xmlns="http://www.w3.org/2000/svg" viewBox="0 0 400 200">
  <g fill="#808080" fill-rule="nonzero">
    <path d="M85.1465724 106.859835c2.0159268-8.1155077-.8674948-16.66279318-7.3875147-21.89870439 4.0539073-2.31626427 8.808679-3.0884227 13.3872321-2.17404005l.5276796-2.1107185c-1.4222217-.29943347-2.8709635-.45500306-4.3243345-.46440628-4.0809454-.00862702-8.0787573 1.15335725-11.5192462 3.34817543-3.4358287-2.19218353-7.42781126-3.35407019-11.50341579-3.34817543-1.45342855-.00075072-2.90318431.14599285-4.32697291.4380223l.52767962 2.1107185a19.3658421 19.3658421 0 013.79929329-.36937574c3.36431476-.0069452 6.67115019.87208699 9.58793879 2.54869258-5.29321319 4.25135782-8.26196388 10.75711148-8.0045912 17.54135118.25737267 6.7842397 3.71049655 13.0463677 9.3105982 16.8844674l.60947.4221437.6173852-.4221437c4.3290986-2.9669341 7.4231617-7.4151776 8.6987985-12.506007zm-10.3979194 9.3926973c-5.81860203-5.0162464-8.09973175-13.0105692-5.80448339-20.3420495 1.10206389 1.8293131 2.47059309 3.4841753 4.06049469 4.9100589 1.1124972 1.002695 1.7465072 2.4308963 1.7439887 3.9285748v11.5034158zm1.0817357-15.9253711c-1.458995-1.0899916-2.7567136-2.3806043-3.8546997-3.8335924-1.4442036-1.9048653-1.4442036-4.5381029 0-6.44296823 1.0960638-1.45772861 2.3939716-2.75208296 3.8546997-3.84414605 1.4897418 1.10691846 2.8120056 2.42296189 3.9259364 3.90746761 1.3992459 1.87296207 1.3992459 4.44336297 0 6.31632507-1.1151538 1.4803822-2.4373208 2.792775-3.9259364 3.896914zm1.0896509 15.9253711v-11.5034158c-.0025186-1.4976785.6314915-2.9258798 1.7439887-3.9285748 1.5889659-1.4260733 2.9565979-3.0809258 4.0578563-4.9100589.5847812 1.8630188.8819409 3.8043435.8812262 5.7569847-.0016545 5.6003172-2.4378194 10.9232895-6.6751485 14.5850648h-.0079227zM139.6453239 102.7967019c0 5.4825913-3.559199 9.2555006-8.648669 9.2555006s-8.688245-3.7729093-8.688245-9.2555006c0-5.4825913 3.5618374-9.2555006 8.688245-9.2555006 5.1264075 0 8.648669 3.7729093 8.648669 9.2555006zm-14.2130506 0c0 3.9575971 2.1714016 6.693616 5.540636 6.693616 3.3692344 0 5.540636-2.7412957 5.540636-6.693616 0-3.9523204-2.1371024-6.6909777-5.5168904-6.6909777-3.379788 0-5.5643816 2.7412957-5.5643816 6.6909777zM186.582426 96.9341813c-.750472-.2289634-1.529352-.3515238-2.313875-.364099-2.350812 0-4.094794 2.0289282-4.094794 5.5881272v9.3979741h-3.060541V94.0398585h2.88113v2.6383981c.817904-1.7096819 2.276938-2.9259835 4.342804-2.9259835 1.461672 0 2.242638.4326973 2.242638.4326973l.002638 2.7492109zM204.916655 102.7967019c0 5.4825913-3.561838 9.2555006-8.651308 9.2555006-5.089469 0-8.685606-3.7729093-8.685606-9.2555006 0-5.4825913 3.548645-9.2555006 8.685606-9.2555006 5.136962 0 8.651308 3.7729093 8.651308 9.2555006zm-14.205136 0c0 3.9575971 2.171402 6.693616 5.553828 6.693616 3.382427 0 5.516891-2.7412957 5.516891-6.693616 0-3.9523204-2.134464-6.6909777-5.516891-6.6909777-3.382426 0-5.553828 2.7412957-5.553828 6.6909777zM215.496631 93.5412013c-2.664782 0-5.012956 1.0553592-7.089375 2.6383981v3.1660777c1.435288-1.1582567 4.123816-3.274252 7.19755-3.274252 1.348221 0 2.464263.3878445 3.189823 1.1107656.263552.262068.47486.5718669.622662.9128857.233736.5350847.209155 1.1478108-.066692 1.6624526-.275848.5146417-.772489.8743436-1.347489.9759455l-2.221532.403675c-4.377102.7915194-8.15265 1.9946289-8.15265 6.0867844 0 3.4906007 2.84947 4.9126973 6.266196 4.9126973 2.638398 0 4.770223-.9603769 5.944311-2.7412956v2.1714016h2.778233V99.3799763c0-3.4167256-2.493286-5.838775-7.121037-5.838775zm4.20033 8.999576v2.472179c0 2.8837691-2.456349 4.5908127-5.479953 4.5908127-2.242638 0-3.596136-.8891402-3.596136-2.4906478-.025412-.7005731.243421-1.37983.741389-1.8732627 1.74662-1.7545347 6.894135-1.7228739 8.3347-2.6990812zM257.64768 99.556749v11.9967962h-3.063181v-11.0258657c0-2.8837692-1.422096-4.3797409-4.020918-4.3797409-1.209736-.0145149-2.37368.4620112-3.225916 1.3207112-.852236.8586999-1.319954 2.0262105-1.296299 3.2358024v10.8570082h-3.060542V88.34355699h3.060542v7.69884571c1.174087-1.6384452 3.09748-2.4932862 5.340118-2.4932862 4.237267-.0079152 6.266196 2.7333804 6.266196 6.0076325zM273.879105 108.7779504h10.289752v2.7755948h-13.566643V88.3356418h3.276891zM322.478398 102.7967019c0 5.553828-3.274252 9.2343934-7.72523 9.2343934-2.775594 0-4.770223-1.1028504-5.981248-3.0974794v2.6383981h-2.873216V88.35411058h3.063181v8.14209662c1.211024-1.8468787 3.166077-2.9180683 5.804475-2.9180683 4.509023 0 7.712038 3.6647349 7.712038 9.218563zm-3.123863 0c0-3.9575972-1.994629-6.6197409-5.055171-6.6197409-3.166078 0-5.448292 2.4563486-5.448292 6.6197409 0 4.1633922 2.313875 6.5959953 5.448292 6.5959953 3.018327-.0105536 5.055171-2.643675 5.055171-6.5959953zM155.3780919 107.7410599s-2.1423793 1.5118022-4.5644288 1.5118022c-4.5881743 0-5.3717785-4.778139-5.3717785-6.501013 0-.9445465.3192461-6.4587986 5.50106-6.4587986 1.5453596.0455751 3.0608682.4368485 4.4351473 1.1450648v-2.770318c-1.4001648-.7783867-2.9756385-1.187011-4.5776208-1.1872792-5.4008009 0-8.5114723 4.4008481-8.5114723 9.1130271 0 8.1948646 6.123722 9.4481037 8.3663604 9.4481037.9893993 0 3.0447115-.1714959 4.7227327-1.2453239v-3.0552651zM239.163062 107.7410599s-2.13974 1.5118022-4.564428 1.5118022c-4.588175 0-5.36914-4.778139-5.36914-6.501013 0-.9445465.319246-6.4587986 5.498421-6.4587986 1.54536.0455751 3.060868.4368485 4.435147 1.1450648v-2.770318c-1.400164-.7783867-2.975638-1.187011-4.57762-1.1872792-5.398163 0-8.511473 4.4008481-8.511473 9.1130271 0 8.1948646 6.123722 9.4481037 8.366361 9.4481037.992037 0 3.044711-.1714959 4.722732-1.2453239v-3.0552651zM171.277079 111.5535452h3.416725l-7.047161-10.5219317c1.763137-2.1156837 3.22219-4.4672181 4.334888-6.9864782h-3.329658c-1.570645 3.1229664-3.739072 5.9072308-6.382285 8.1948646V88.3356418h-3.0658189v23.2179034h3.0605419v-5.4852297c1.215662-.8852513 2.362272-1.8616331 3.429918-2.9207067l5.58285 8.4059364zM294.769941 93.5412013c-2.66742 0-5.012956 1.0553592-7.092014 2.6383981v3.1660777c1.435289-1.1582567 4.126455-3.274252 7.19755-3.274252 1.35086 0 2.466902.3878445 3.189823 1.1107656.2643.2620039.476486.5717777.625301.9128857.232658.5355402.207229 1.1481399-.069012 1.6625559-.276241.5144161-.772866.8739833-1.347808.9758422l-2.218893.403675c-4.379741.7915194-8.15265 1.9946289-8.15265 6.0867844 0 3.4906007 2.846831 4.9126973 6.266195 4.9126973 2.638399 0 4.770224-.9603769 5.944311-2.7412956v2.1714016h2.775595V99.3799763c0-3.4167256-2.490648-5.838775-7.118398-5.838775zm4.20033 8.999576v2.472179c0 2.8837691-2.456349 4.5908127-5.482591 4.5908127-2.242639 0-3.596137-.8891402-3.596137-2.4906478-.024116-.7003498.244519-1.3791066.74139-1.8732627 1.746619-1.7545347 6.894134-1.7228739 8.337338-2.6990812zM332.839388 101.2321318c-3.203016-.7123675-4.698988-1.0553593-4.698988-2.5988222s1.459035-2.5988221 3.844147-2.5988221c2.110718 0 3.530176.5540636 6.387561 2.6806125v-3.2162073c-2.018374-1.4273734-3.87053-1.9576914-6.387561-1.9576914-4.057857 0-6.799152 2.1371025-6.799152 5.1976443 0 2.9180683 1.709682 3.9575971 6.371731 4.9496348 2.812532.6041932 4.912697 1.1371496 4.912697 3.0605418 0 1.7439812-1.707043 2.7755949-3.986619 2.7755949s-3.567114-.662238-7.004947-3.2109305v3.3745111c2.290129 1.749258 4.300589 2.3745583 6.978563 2.3745583 4.221437 0 7.012862-2.2057008 7.012862-5.4456537-.007915-3.1080329-2.073781-4.3533569-6.630294-5.3849705zM112.1743227 109.086643c-7.8545112 0-7.7331448-8.2054182-7.7331448-9.1499647 0-8.7410129 6.6091872-8.9890224 8.0048998-8.9890224 2.7122733 0 4.9258893 1.0105065 6.9548175 2.7676797v-3.5644759c-2.0210239-1.47138831-4.4549231-2.26729919-6.9548175-2.27429917-4.1713074 0-11.2316607 2.53813897-11.2316607 12.06011777 0 .9155242.1345583 4.1317315 1.8468786 7.0920141 1.8996467 3.2795289 5.0525324 5.0129565 9.1130271 5.0129565 3.2505065 0 5.2161131-1.0685513 7.2265725-2.538139v-3.5433687c-2.6278446 2.0394818-4.0341107 3.1265018-7.2265725 3.1265018z"/>
  </g>
</svg>