<svg xmlns="http://www.w3.org/2000/svg" xmlns:xlink="http://www.w3.org/1999/xlink" viewBox="0 0 400 200">
  <defs>
    <path id="a" d="M.01853933.01174157H51.094691V54.6910112H.01853933z"/>
  </defs>
  <g fill="none" fill-rule="evenodd">
    <g transform="translate(92.008427 72.5)">
      <mask id="b" fill="#fff">
        <use xlink:href="#a"/>
      </mask>
      <path fill="#FFFFFE" d="M21.8470506 16.994691c1.7102528-1.1664326 3.9145786-.7072753 3.5450281-.356573-.7029495.6686517.2329775.4718258.3337078 1.7071629.0744663.9099719-.2227809 1.4120787-.4786236 1.6972753-.5330056.0701404-1.1825.2005337-1.9636236.4542135-.4622472.1498595-.8648595.3170224-1.2164887.4844943-.0930057-.0608707-.193118-.1341011-.3133146-.2376123-1.2081461-1.045-1.1679776-2.8899719.0933146-3.7489607zM32.063764 24.2c.3102248-.2410112 1.7204495-.6939888 3.026545-.8491011.685955-.0815731 1.6623595-.1269944 1.8715449-.0111236.413118.2283427.413736.935618.1307023 1.5891292-.411882.9501404-.9964888 1.9969944-1.6567978 2.0844382-1.0774438.1418258-2.0983427-.440927-3.2626123-1.3113483-.4155899-.3102247-.6705057-1.0672472-.1093821-1.5019944zm1.9667135-9.241236c1.5922191.7403371 1.3839607 2.1496349 1.4272191 2.9771068.0123596.2376123.0083427.3982865-.0114326.5089045-.2212359-.1195787-.5691573-.2067135-1.1207022-.1829214-.1625281.0071068-.3194944.0259551-.4721348.0506742-.5867697-.3142416-.9377809-.9312921-1.2585113-1.5851124-.0293539-.0602528-.0522191-.1143258-.0738483-.1671629-.0089607-.0241011-.0203932-.0506741-.027809-.0723034-.0043258-.0114325-.0074157-.0216292-.0114326-.0327528-.1764325-.5589606-.0587078-.6708146.0173034-.8432303.0763202-.1755056.3639888-.3213483-.0602528-.468427-.0364607-.0126685-.083427-.0222472-.1334831-.0299719.2799438-.3488483 1.1241011-.4341292 1.7250842-.1548034zm-8.6779494 16.8503933c-1.7158146-1.1018539-3.4900281-2.6814045-4.2655899-3.5552247-.1307022-.0979495-.109073-.5336236-.109073-.5336236.6998595.5450562 3.6062078 2.6211517 6.6775561 3.5691292 1.0826967.3346348 2.7459832.4613202 4.1883427-.357191 1.1030899-.6257023 2.4301967-1.7148876 3.2208989-2.8374438l.1452247.2521348c-.0052528.1674719-.3704775.9794944-.5552528 1.3060955.3346349.192809.5852248.2450281.9581742.3479214l2.5445225-.3967416c.9115168-1.4744944 1.567191-3.8537079.8704213-6.1176686-.3995225-1.2983707-2.474691-3.8836797-2.6236236-4.0267415-.5225-.5008708.0868259-2.4382304-.9470505-4.5498596-1.0938203-2.2336798-3.9402248-4.564382-5.1780338-5.57879211.3652248.26634831 2.6097191 1.17044941 3.6547191 2.43266851.0979495-.1307022.138736-.8080056.2283427-.9794944-.8979213-1.17539322-.9677528-3.26941007-.9677528-3.82867973 0-1.02553371-.5225-2.18887641-.5225-2.18887641s.8994663.71067416 1.1312079 1.93581461c.274073 1.45101124.8592978 2.59272472 1.6326966 3.55924153 1.4633708 1.8233427 2.7842978 2.7592697 3.4535674 2.0856742.799045-.8101685-.8101685-4.43058989-2.8683427-6.45199438-2.3980618-2.35634832-3.0274719-2.05230337-4.4358427-1.54926966-1.1234831.40014044-1.730646 3.59199438-4.6601685 3.52865168-.4971629-.05685393-1.7748315-.08929775-2.4064045-.08342697.329382-.45977528.6111798-.81480337.6111798-.81480337s-.9828933.39488764-1.8196348.89637641l-.0651967-.09794944c.2827247-.59603933.5867697-.97115169.5867697-.97115169s-.7848315.47213484-1.5010674 1.03634832c.1307022-.71005618.6235393-1.16179775.6235393-1.16179775s-.9918539.18014045-2.256236 1.56997191c-1.4367977.39179775-1.7825561.65103932-2.9264325 1.15716292-1.8601124-.40601124-2.7388764-1.06106742-3.5743821-2.26735955-.6377528-.92047753-1.7705056-1.06014045-2.9307584-.58491573-1.6880056.70016854-3.82466291 1.65648876-3.82466291 1.65648876s.69491573-.02657303 1.42165731.00494382c-.99308989.3766573-1.94910113.8939045-1.94910113.8939045S7.37957865 9.09230337 7.95398876 9.1025c-.39705056.32969101-.61643258.48696629-.99278089.7369382-.90935394.659073-1.64598315 1.4213483-1.64598315 1.4213483s.61735955-.2814887 1.17044944-.438764c-.38685394.8877247-1.15407304 1.5409269-1.01348315 2.6276404.13595506.9927809 1.35337079 3.0358146 2.92581461 4.29.13564607.1090731 2.28373598 2.0949438 3.90283708 1.2795225 1.6197191-.8144944 2.2574719-1.540927 2.5235112-2.6542135.3136236-1.2795225.1347191-2.2448034-.5323876-5.0204494-.220618-.9164607-.7944101-2.80191014-1.0725-3.70384834l.0624157-.04542135c.5296068 1.11761236 1.8845225 4.06351119 2.4308146 6.04103929.852809 3.0858708.5855337 4.6512079.1962079 5.224691-1.1757023 1.7306461-4.1908146 1.9592978-5.5621067.9998877-.2088765 3.3225562.5326966 4.785.7839044 5.5216292-.1254494.8469382.4233147 2.419382.4233147 2.419382s.0624157-.715.3133146-1.0916573c.0673595.8407584.4909831 1.8387922.4909831 1.8387922s-.0256461-.6164326.1671629-1.1491293c.2712922.4594663.4715169.5694663.7276686.9142978.2561517.8979213.7724719 1.5551404.7724719 1.5551404s-.0846629-.4817134-.0376967-.9835112c1.2569663 1.2081461 1.4732585 2.970618 1.5990169 4.3236798.3519382 3.7239326-5.87047753 6.683118-7.07707865 9.0119663-.91367977 1.3783989-1.4602809 3.5623314.08713483 4.8474157 3.74185392 3.107191 2.30505622 3.9627809 4.17721912 5.3275843 2.5686236 1.8724719 5.7848876 1.0341854 6.8790168-.4897472 1.5239326-2.1224438 1.1318259-4.125.5660675-5.9971629-.442472-1.4642978-1.6438203-3.8969663-3.1325281-4.8387641-1.5186798-.961882-2.9956461-1.1423314-4.2479776-1.0128652l.1158708-.1325561c1.8004775-.358118 3.6816011-.1603652 5.0442416.7156179 1.5464888.9940169 2.9604213 2.6999439 3.7004494 5.3121349.8385955-.1201967.9581742-.1742697 1.7244663-.2833427l-1.7287921-13.4586236 3.6575-.4019944zm.9977247 16.8698596l-.1989888-1.8662922 3.8873877-5.9307303 4.4132865 1.2897191 3.796236-6.3389045 4.5495505 3.0012079 3.4575843-7.2491854 1.2285393 13.2021629-21.1335955 3.8920225zm21.1808708-19.800618l-13.8927528 2.5185674c-.3439045.4440168-1.1948596 1.2223595-1.6042697 1.4256741-1.7550562.8837079-2.940646.6275562-3.9652528.3612079-.658455-.1671629-1.0397472-.2614045-1.5878932-.5073595l-3.3908427.465646 2.0581741 17.1726686 23.7989326-4.2887641-1.4160955-17.1476404z" mask="url(#b)"/>
      <path fill="#101010" d="M32.4821348 16.4558146c.0040169.0105056.0071068.0210112.0114326.0327528.0074157.0219382.0188483.0482023.027809.0719944.0216292.0528371.0444944.1069101.0738483.1671629.3207304.6541292.6717416 1.2708708 1.2588202 1.5854214.1523315-.0250281.3092978-.0435674.4718259-.0506742.5515449-.0237921.8997753.0633427 1.1210112.1826124.0197753-.11.0237922-.2712922.0114326-.5085955-.0435674-.8274719.164691-2.2367697-1.4272191-2.9771068-.6009831-.2796348-1.4454494-.1940449-1.7253933.1544944.0503652.0077247.0970225.0173034.1334832.0299719.4245506.1470787.136573.2929214.0602528.468427-.0757022.1724157-.193736.2842696-.0173034.8435393zm-.3089887 9.2471067c1.1645786.8704214 2.1854775 1.4531742 3.2632303 1.3113484.660309-.0874439 1.2449157-1.1342978 1.6567978-2.0844382.2830337-.6535113.2824157-1.3607866-.1307023-1.5894382-.2091854-.1155618-1.1858989-.0701405-1.8715449.0114325-1.3064045.1551124-2.7166292.6080899-3.026854.8487922-.5611236.4347472-.3062078 1.1920786.1090731 1.5023033zM21.8467416 16.995c-1.2609832.8592978-1.3011517 2.7042697-.0930056 3.7492697.1198876.1038202.22.1767415.3130056.2379213.3519382-.1674719.7542415-.3346348 1.2167977-.4848034.7811236-.2533707 1.430618-.384073 1.9636236-.4539045.2558427-.2855056.5530899-.7879213.4786236-1.6978932-.1007303-1.2353371-1.0366573-1.0382023-.3337078-1.7071629.3695505-.3503933-1.8350843-.8098596-3.5453371.356573zm20.9519101 21.8405618l-4.5498596-3.0012079-3.7962359 6.3392135-4.4135955-1.2900281-3.8873877 5.9313483.1989888 1.8662922 21.1345225-3.8923315-1.2285394-13.2027809-3.4578932 7.2494944zm-19.7088483-5.692191l3.3914606-.4653371c.5478371.2459551.9294382.3395787 1.5875843.5070506 1.0246068.2663483 2.2105056.5225 3.9655618-.3615169.4094101-.2026966 1.2603652-.9813483 1.6042697-1.4253652l13.8933708-2.5185674 1.4164045 17.1482585-23.8001686 4.289073-2.0584831-17.1735955zm25.8064326-6.1791573l-1.3716012.2614045L44.8901966.01174157 0 5.21511236 5.52966292 50.0842978l5.25620788-.7616574c-.4199157-.5994382-1.07373597-1.3246348-2.18980338-2.2519101-1.54741573-1.2844663-1.00050562-3.4687078-.08713484-4.8474157 1.20660113-2.3285393 7.42932582-5.2889607 7.07738762-9.0128933-.1254494-1.3527528-.3417415-3.1155337-1.5990168-4.3236797-.0469663.5021067.0376966.9838202.0376966.9838202s-.5163202-.6572191-.7724719-1.5551405c-.2561517-.3451404-.4560674-.4551404-.7276685-.9142977-.192809.5326966-.167163 1.1488202-.167163 1.1488202s-.4236236-.9980337-.4909831-1.8387921c-.2508989.3763483-.3133146 1.0919663-.3133146 1.0919663s-.5490731-1.5724438-.4233146-2.419691c-.2512079-.7366292-.9930899-2.1990731-.7839045-5.5216292 1.3712921.9591011 4.3867135.7304494 5.5621067-1.0001967.3896348-.5734831.6566011-2.1388202-.1958989-5.225-.5466011-1.9775281-1.9015168-4.92373593-2.4311236-6.0410393l-.0624157.04511236c.2780899.90162921.851882 2.78769664 1.0725 3.70415734.6674157 2.775646.8460113 3.7409269.5326966 5.0207584-.2663483 1.1132865-.9041011 1.8397191-2.5235112 2.6542135-1.6197191.8154213-3.76780898-1.1704495-3.90345505-1.2795225-1.57275281-1.2544944-2.79016854-3.2972191-2.92581461-4.290309-.14089887-1.0867135.62662922-1.7399157 1.01348315-2.6276404-.55308989.1569663-1.17044944.438764-1.17044944.438764s.73662922-.7625843 1.64598315-1.4216573c.3766573-.24997191.59603932-.40724719.9927809-.7369382-.57441011-.00988764-1.03974719.00617978-1.03974719.00617978s.95632022-.5172472 1.94910112-.8939045c-.72643258-.03151685-1.4216573-.00494382-1.4216573-.00494382s2.13696629-.95601124 3.82497187-1.65648876c1.1602528-.47522472 2.2930057-.3355618 2.9307585.58491573.8358146 1.20629213 1.7145786 1.86134831 3.574691 2.26735955 1.1438764-.50581461 1.4896348-.76505618 2.9264326-1.15716292 1.264382-1.38983146 2.2565449-1.56997191 2.2565449-1.56997191s-.4931461.45174157-.6235393 1.16179775c.7162359-.56421348 1.5010674-1.03634832 1.5010674-1.03634832s-.3043539.37511236-.5867697.97115169l.0651967.09794944c.8367415-.50148877 1.8196348-.89637641 1.8196348-.89637641s-.2817978.35502809-.6111798.81480337c.631573-.00556179 1.9095506.02657304 2.4064045.08373596 2.9298315.06303371 3.5369944-3.12882023 4.6604775-3.52896067 1.4083708-.50303371 2.0380899-.80707866 4.4361517 1.54926966 2.0581742 2.02140449 3.6676967 5.64213478 2.8686517 6.45230338-.6695786.6735955-1.9905056-.2623315-3.4538764-2.0859832-.7737079-.96620782-1.3589326-2.10823029-1.6330056-3.55924153-.2314326-1.22514045-1.1308989-1.93581461-1.1308989-1.93581461s.5225 1.1633427.5225 2.18887641c0 .55926966.0698315 2.65328651.9677528 3.82867973-.0899157.1714888-.1307022.8491012-.2286517.9798034-1.045-1.2622191-3.2894943-2.1666292-3.6547191-2.43297751 1.237809 1.01441011 4.0845225 3.34542131 5.1783427 5.57910111 1.0338764 2.1119382.4245506 4.0492978.9470506 4.5504775.1489326.1427528 2.2241011 2.7280618 2.6236236 4.0267416.6970786 2.2639607.0414045 4.6431742-.8704214 6.1176685l-2.5445224.3970506c-.3729495-.1028932-.6235394-.1551123-.9581742-.3479213.1844663-.3266012.549691-1.1389326.5549438-1.3060955l-.1449157-.2521349c-.7907022 1.1222472-2.118118 2.2117416-3.2208989 2.8374438-1.4426685.8185113-3.105955.6918259-4.1886517.3571911-3.0719663-.9479776-5.9780056-3.0243821-6.6781741-3.5691293 0 0-.0213202.4356742.109382.5336236.7752528.8735113 2.5494663 2.4533708 4.2655899 3.5552248l-3.6575.4023033 1.7287921 13.4592416c-.7666011.109073-.8858708.1631461-1.7244663.2830337-.740337-2.6125-2.1542696-4.318118-3.7007584-5.3121348-1.3626404-.8762922-3.244073-1.073427-5.0445506-.715927l-.1158707.1331742c1.2523314-.1297753 2.7296067.0509831 4.2482865 1.0122472 1.4887078.9421067 2.6903651 3.3747752 3.1325281 4.839382.5657584 1.8721629.9578651 3.8747191-.5660675 5.9971629-1.0833146 1.5094101-4.2473595 2.3421348-6.8033146.5391854.6828652 1.0966011 1.6048877 1.9957584 2.8467135 2.1641573 1.8455899.2499719 3.5966292-.0698315 4.8001405-1.3060955 1.0298595-1.0576685 1.5749157-3.2697191 1.4309269-5.5985674l1.6280618-.2354495.5880057 4.1796911 26.9512359-3.2440731-2.198455-21.4435112z" mask="url(#b)"/>
    </g>
    <path fill="#101010" d="M156.5456742 107.7259551h5.1258146c4.8273315 0 7.2408427-2.8362079 7.2408427-8.5120225 0-4.8310393-2.4135112-7.2488764-7.2408427-7.2488764h-5.1258146v15.7608989zm5.7765449 3.738764H152.233736V88.2380337h10.0884831c7.2680337 0 10.9060675 3.6612079 10.9060675 10.9796067 0 8.1634832-3.6380338 12.2470787-10.9060675 12.2470787zM177.7460113 111.4647191h-4.428736l9.8796068-23.2266854h4.6373033l10.0924996 23.2266854h-4.637303l-2.9292134-6.3348876h-7.454045l1.4800562-3.7344382h4.8350562l-3.8085955-8.7249158-7.6666292 18.7942416M195.49 88.2380337h17.658708v3.7350562h-6.671685v19.4916292h-4.311939V91.9730899H195.49v-3.7350562M215.365084 111.4647191h-4.428118l9.879607-23.2266854h4.636685l10.092809 23.2266854h-4.64132l-2.929213-6.3348876h-7.454045l1.480056-3.7344382h4.835056l-3.808286-8.7249158-7.663231 18.7942416M242.721096 107.7259551h5.125814c4.827023 0 7.244551-2.8362079 7.244551-8.5120225 0-4.8310393-2.417528-7.2488764-7.244551-7.2488764h-5.125814v15.7608989zm5.776853 3.738764h-10.089101V88.2380337h10.089101c7.271742 0 10.906068 3.6612079 10.906068 10.9796067 0 8.1634832-3.634326 12.2470787-10.906068 12.2470787zM274.013624 107.8884831c4.68396 0 7.028258-2.7005618 7.028258-8.1047752 0-5.3195506-2.344298-7.9811798-7.028258-7.9811798-4.808175 0-7.209635 2.6616292-7.209635 7.9811798 0 5.4042134 2.40146 8.1047752 7.209635 8.1047752zm-11.688736-8.0043539c0-7.8761236 3.897893-11.8126404 11.688736-11.8126404 7.671264 0 11.503033 3.9365168 11.503033 11.8126404 0 7.8307023-3.831769 11.7471348-11.503033 11.7471348-7.446012 0-11.340197-3.9164325-11.688736-11.7471348zM303.512472 102.0658989v5.4391292c-.995871.2595506-1.886376.3874719-2.669663.3874719-5.272584 0-7.907331-2.7892416-7.907331-8.3646348 0-5.1492978 2.793567-7.7213203 8.380393-7.7213203 2.331938 0 4.501348.4338203 6.508848 1.3014607v-3.9012921c-2.0075-.7554775-4.285056-1.1352247-6.834522-1.1352247-8.352894 0-12.532894 3.8160112-12.532894 11.4563764 0 8.0664606 4.10677 12.1033988 12.319691 12.1033988 2.824776 0 5.171854-.410955 7.047725-1.235646V98.2452528h-6.966152l-1.456264 3.8206461h4.110169"/>
  </g>
</svg>