<svg width="216" height="56" xmlns="http://www.w3.org/2000/svg" xmlns:xlink="http://www.w3.org/1999/xlink">
  <defs>
    <path id="a" d="M.019.012h51.076V54.69H.019z"/>
  </defs>
  <g fill="none" fill-rule="evenodd">
    <g transform="translate(.008 .5)">
      <mask id="b" fill="#fff">
        <use xlink:href="#a"/>
      </mask>
      <path d="M21.847 16.995c1.71-1.167 3.915-.708 3.545-.357-.703.669.233.472.334 1.707.074.91-.223 1.412-.479 1.698a10.919 10.919 0 00-3.18.938 2.917 2.917 0 01-.313-.237c-1.208-1.045-1.168-2.89.093-3.75zM32.064 24.2c.31-.241 1.72-.694 3.026-.85.686-.08 1.663-.126 1.872-.01.413.228.414.935.13 1.589-.411.95-.996 1.997-1.656 2.084-1.078.142-2.099-.44-3.263-1.311-.415-.31-.67-1.067-.11-1.502zm1.966-9.241c1.593.74 1.384 2.15 1.428 2.977a2.39 2.39 0 01-.012.509c-.221-.12-.569-.207-1.12-.183a4.05 4.05 0 00-.473.05c-.586-.314-.937-.93-1.258-1.585a2.732 2.732 0 01-.074-.167l-.028-.072-.011-.033c-.177-.559-.059-.67.017-.843.076-.176.364-.321-.06-.468a.798.798 0 00-.134-.03c.28-.35 1.124-.435 1.725-.155zm-8.677 16.85c-1.716-1.102-3.49-2.681-4.266-3.555-.13-.098-.11-.534-.11-.534.7.545 3.607 2.621 6.678 3.57 1.083.334 2.746.46 4.189-.358 1.103-.625 2.43-1.715 3.22-2.837l.146.252c-.005.167-.37.98-.555 1.306.334.193.585.245.958.348l2.544-.397c.912-1.474 1.568-3.853.87-6.117-.399-1.299-2.474-3.884-2.623-4.027-.522-.501.087-2.438-.947-4.55-1.094-2.234-3.94-4.564-5.178-5.579.365.267 2.61 1.17 3.655 2.433.098-.13.139-.808.228-.98-.898-1.175-.968-3.27-.968-3.828 0-1.026-.522-2.19-.522-2.19s.9.711 1.131 1.937a7.901 7.901 0 001.633 3.559c1.463 1.823 2.784 2.76 3.453 2.085.8-.81-.81-4.43-2.868-6.451-2.398-2.357-3.027-2.053-4.436-1.55-1.123.4-1.73 3.592-4.66 3.529-.497-.057-1.775-.09-2.406-.084.329-.46.61-.814.61-.814s-.982.395-1.819.896l-.065-.098c.283-.596.587-.971.587-.971s-.785.472-1.501 1.036c.13-.71.623-1.162.623-1.162s-.992.18-2.256 1.57c-1.437.392-1.783.651-2.927 1.158-1.86-.406-2.738-1.061-3.574-2.268-.638-.92-1.77-1.06-2.93-.585-1.689.7-3.825 1.657-3.825 1.657s.695-.027 1.421.005c-.993.376-1.949.894-1.949.894s.466-.017 1.04-.007c-.397.33-.616.487-.993.737-.91.66-1.646 1.422-1.646 1.422s.618-.282 1.17-.439c-.386.888-1.153 1.54-1.013 2.628.136.992 1.354 3.035 2.926 4.29.136.109 2.284 2.095 3.903 1.28 1.62-.815 2.257-1.542 2.523-2.655.314-1.28.135-2.245-.532-5.02-.22-.917-.794-2.802-1.073-3.704l.063-.046c.53 1.118 1.884 4.064 2.43 6.041.854 3.086.586 4.652.197 5.225-1.176 1.73-4.19 1.96-5.562 1-.21 3.322.532 4.785.784 5.521-.126.847.423 2.42.423 2.42s.062-.715.313-1.092c.068.841.491 1.839.491 1.839s-.025-.616.167-1.15c.272.46.472.57.728.915.256.898.773 1.555.773 1.555s-.085-.481-.038-.983c1.257 1.208 1.473 2.97 1.599 4.323.352 3.724-5.87 6.684-7.077 9.012-.914 1.379-1.46 3.563.087 4.848 3.742 3.107 2.305 3.963 4.177 5.327 2.569 1.873 5.785 1.035 6.88-.49 1.523-2.122 1.131-4.124.565-5.996-.442-1.465-1.644-3.897-3.132-4.84-1.519-.961-2.996-1.142-4.248-1.012l.116-.133c1.8-.358 3.681-.16 5.044.716 1.546.994 2.96 2.7 3.7 5.312.839-.12.959-.174 1.725-.283L21.695 32.21l3.658-.402zm.997 16.87l-.199-1.866 3.888-5.931 4.413 1.29 3.796-6.34 4.55 3.002 3.457-7.25 1.229 13.203-21.134 3.892zm21.181-19.8l-13.893 2.518c-.344.444-1.194 1.222-1.604 1.426-1.755.883-2.94.627-3.965.36-.659-.166-1.04-.26-1.588-.507l-3.39.466 2.057 17.173 23.8-4.289-1.417-17.148z" fill="#FFFFFE" mask="url(#b)"/>
      <path d="M32.482 16.456l.012.033c.007.022.018.048.027.072.022.052.045.106.074.167.321.654.672 1.27 1.259 1.585.152-.025.31-.043.472-.05.551-.024.9.063 1.12.182.02-.11.025-.271.012-.509-.043-.827.165-2.236-1.427-2.977-.6-.28-1.445-.194-1.725.155a.79.79 0 01.133.03c.425.147.137.293.06.468-.075.173-.193.285-.017.844zm-.309 9.247c1.165.87 2.186 1.453 3.263 1.311.66-.087 1.245-1.134 1.657-2.084.283-.654.283-1.361-.13-1.59-.21-.115-1.186-.07-1.872.012-1.306.155-2.717.608-3.027.849-.561.434-.306 1.192.11 1.502zm-10.326-8.708c-1.261.86-1.301 2.704-.093 3.75.12.103.22.176.313.237a10.914 10.914 0 013.18-.939c.256-.285.553-.787.479-1.697-.1-1.236-1.037-1.039-.334-1.708.37-.35-1.835-.81-3.545.357zm20.952 21.84l-4.55-3-3.796 6.339-4.414-1.29-3.887 5.93.199 1.867 21.134-3.892-1.228-13.203-3.458 7.25zm-19.71-5.692l3.392-.465c.548.246.93.34 1.588.507 1.024.266 2.21.523 3.965-.361.41-.203 1.26-.982 1.605-1.426l13.893-2.518 1.416 17.148-23.8 4.289-2.058-17.174zm25.807-6.179l-1.371.262L44.89.012 0 5.215l5.53 44.87 5.256-.762c-.42-.6-1.074-1.325-2.19-2.252-1.547-1.285-1-3.469-.087-4.848 1.207-2.328 7.43-5.289 7.077-9.013-.125-1.352-.341-3.115-1.599-4.323-.047.502.038.984.038.984s-.516-.658-.772-1.556c-.257-.345-.457-.455-.728-.914-.193.533-.167 1.149-.167 1.149s-.424-.998-.491-1.839c-.251.377-.314 1.092-.314 1.092s-.549-1.572-.423-2.42c-.251-.736-.993-2.199-.784-5.521 1.371.959 4.387.73 5.562-1 .39-.574.657-2.14-.196-5.225-.546-1.978-1.901-4.924-2.43-6.041l-.063.045c.278.901.852 2.787 1.072 3.704.668 2.775.846 3.74.533 5.02-.266 1.114-.904 1.84-2.523 2.655-1.62.815-3.768-1.17-3.904-1.28-1.573-1.254-2.79-3.297-2.926-4.29-.14-1.087.627-1.74 1.014-2.628a9.749 9.749 0 00-1.17.44s.736-.763 1.645-1.423c.377-.25.596-.407.993-.737-.574-.01-1.04.007-1.04.007s.957-.518 1.95-.894C8.135 8.183 7.44 8.21 7.44 8.21s2.137-.956 3.825-1.657c1.16-.475 2.293-.335 2.93.585.836 1.207 1.715 1.862 3.575 2.268 1.144-.506 1.49-.765 2.927-1.158 1.264-1.39 2.256-1.57 2.256-1.57s-.493.452-.623 1.162c.716-.564 1.5-1.036 1.5-1.036s-.304.375-.586.971l.065.098c.837-.501 1.82-.896 1.82-.896s-.282.355-.611.814c.631-.005 1.91.027 2.406.084 2.93.063 3.537-3.129 4.66-3.529 1.409-.503 2.039-.807 4.437 1.55 2.058 2.02 3.667 5.642 2.868 6.452-.67.673-1.99-.263-3.454-2.086a7.897 7.897 0 01-1.633-3.56c-.231-1.225-1.13-1.935-1.13-1.935s.522 1.163.522 2.189c0 .559.07 2.653.968 3.828-.09.172-.131.85-.229.98-1.045-1.262-3.29-2.166-3.655-2.433 1.238 1.015 4.085 3.346 5.179 5.58 1.034 2.111.424 4.049.947 4.55.149.142 2.224 2.728 2.623 4.026.697 2.264.042 4.644-.87 6.118l-2.545.397c-.373-.103-.623-.155-.958-.348.185-.326.55-1.139.555-1.306l-.145-.252c-.79 1.122-2.118 2.212-3.22 2.837-1.443.819-3.107.692-4.19.358-3.071-.948-5.977-3.025-6.677-3.57 0 0-.022.436.109.534.775.874 2.55 2.454 4.266 3.555l-3.658.403 1.729 13.459c-.767.109-.886.163-1.725.283-.74-2.613-2.154-4.318-3.7-5.312-1.363-.876-3.244-1.074-5.045-.716l-.116.133c1.253-.13 2.73.051 4.248 1.012 1.49.942 2.69 3.375 3.133 4.84.566 1.872.958 3.874-.566 5.997-1.083 1.51-4.247 2.342-6.803.54.682 1.096 1.604 1.995 2.846 2.163 1.846.25 3.597-.07 4.8-1.306 1.03-1.058 1.575-3.27 1.431-5.598l1.628-.236.588 4.18 26.952-3.244-2.199-21.444z" fill="#774AA4" mask="url(#b)"/>
    </g>
    <path d="M64.546 35.726h5.125c4.828 0 7.241-2.836 7.241-8.512 0-4.831-2.413-7.249-7.24-7.249h-5.126v15.761zm5.776 3.739H60.234V16.238h10.088c7.268 0 10.906 3.661 10.906 10.98 0 8.163-3.638 12.247-10.906 12.247zM85.746 39.465h-4.429l9.88-23.227h4.637l10.093 23.227h-4.638L98.36 33.13h-7.454l1.48-3.735h4.835l-3.808-8.725-7.667 18.795M103.49 16.238h17.659v3.735h-6.672v19.492h-4.312V19.973h-6.675v-3.735M123.365 39.465h-4.428l9.88-23.227h4.636l10.093 23.227h-4.641l-2.93-6.335h-7.454l1.48-3.735h4.836l-3.809-8.725-7.663 18.795M150.721 35.726h5.126c4.827 0 7.244-2.836 7.244-8.512 0-4.831-2.417-7.249-7.244-7.249h-5.126v15.761zm5.777 3.739h-10.09V16.238h10.09c7.272 0 10.906 3.661 10.906 10.98 0 8.163-3.634 12.247-10.906 12.247zM182.014 35.888c4.684 0 7.028-2.7 7.028-8.104 0-5.32-2.344-7.981-7.028-7.981-4.809 0-7.21 2.661-7.21 7.98 0 5.405 2.401 8.105 7.21 8.105zm-11.69-8.004c0-7.876 3.899-11.813 11.69-11.813 7.67 0 11.503 3.937 11.503 11.813 0 7.83-3.832 11.747-11.503 11.747-7.446 0-11.34-3.916-11.69-11.747zM211.512 30.066v5.439c-.995.26-1.886.387-2.67.387-5.272 0-7.907-2.789-7.907-8.364 0-5.15 2.794-7.721 8.38-7.721 2.333 0 4.502.433 6.51 1.301v-3.901c-2.008-.756-4.285-1.136-6.835-1.136-8.353 0-12.533 3.816-12.533 11.457 0 8.066 4.107 12.103 12.32 12.103 2.825 0 5.172-.41 7.048-1.235v-12.15h-6.966l-1.457 3.82h4.11" fill="#774AA4"/>
  </g>
</svg>