<svg width="400" height="200" xmlns="http://www.w3.org/2000/svg">
  <g fill="#808080" fill-rule="evenodd">
    <path d="M137.379 100.242l-14.736 2.684c-.376.483-1.262 1.288-1.691 1.503-1.852.94-3.114.67-4.214.376-.698-.188-1.1-.269-1.691-.537l-3.597.483 2.174 18.225 25.258-4.563-1.503-18.171zm-22.493 21.016l-.215-1.986 4.134-6.28 4.67 1.368 4.026-6.737 4.832 3.194 3.677-7.703 1.315 14.01-22.44 4.134zm-1.047-17.903c-1.825-1.18-3.704-2.845-4.536-3.784-.134-.108-.108-.564-.108-.564.752.59 3.839 2.791 7.087 3.785 1.154.348 2.925.483 4.455-.376 1.181-.671 2.577-1.825 3.41-3.007l.16.269c0 .188-.403 1.047-.59 1.396.349.214.617.268 1.02.375l2.71-.429c.967-1.557 1.665-4.08.913-6.496-.43-1.369-2.63-4.133-2.791-4.267-.564-.537.08-2.577-.993-4.832-1.155-2.362-4.188-4.831-5.503-5.932.376.269 2.765 1.235 3.865 2.577.108-.134.161-.859.242-1.047-.967-1.235-1.02-3.462-1.02-4.053 0-1.1-.564-2.335-.564-2.335s.966.751 1.208 2.067c.295 1.53.913 2.764 1.745 3.784 1.556 1.933 2.952 2.926 3.677 2.201.859-.859-.859-4.697-3.033-6.844-2.55-2.497-3.221-2.174-4.697-1.638-1.181.403-1.826 3.812-4.94 3.731a25.586 25.586 0 00-2.55-.08c.35-.483.645-.86.645-.86s-1.047.43-1.933.967l-.08-.107c.295-.644.617-1.02.617-1.02s-.832.51-1.583 1.1a2.384 2.384 0 01.67-1.234s-1.046.188-2.388 1.664c-1.53.402-1.88.698-3.114 1.234-1.986-.429-2.899-1.127-3.784-2.415-.671-.967-1.88-1.128-3.114-.618a278.663 278.663 0 00-4.053 1.745s.751-.027 1.503 0a22.27 22.27 0 00-2.067.94s.483-.027 1.1 0c-.429.348-.643.51-1.046.778-.966.698-1.745 1.503-1.745 1.503s.644-.295 1.235-.456c-.403.94-1.235 1.637-1.074 2.791.134 1.047 1.423 3.221 3.114 4.563.134.108 2.416 2.228 4.133 1.37 1.718-.86 2.39-1.638 2.685-2.82.322-1.368.134-2.388-.564-5.34-.242-.967-.832-2.98-1.127-3.92l.053-.053c.564 1.18 1.987 4.321 2.577 6.415.913 3.275.617 4.939.215 5.556-1.262 1.825-4.456 2.094-5.905 1.074-.215 3.516.563 5.073.832 5.851-.134.886.456 2.577.456 2.577s.054-.751.322-1.154c.08.886.51 1.96.51 1.96s-.027-.645.188-1.209c.295.484.51.591.778.967.269.966.806 1.664.806 1.664s-.08-.51-.054-1.047c1.342 1.288 1.557 3.167 1.691 4.59.376 3.946-6.227 7.086-7.516 9.556-.966 1.449-1.556 3.784.08 5.153 3.973 3.302 2.443 4.214 4.43 5.664 2.738 1.986 6.146 1.1 7.3-.51 1.611-2.255 1.208-4.375.591-6.362-.483-1.557-1.745-4.133-3.328-5.126a6.939 6.939 0 00-4.51-1.074l.135-.134c1.905-.376 3.918-.161 5.368.751 1.637 1.047 3.14 2.872 3.919 5.637.886-.134 1.02-.188 1.825-.295l-1.852-14.387 3.892-.43zm9.207-17.903c1.69.778 1.476 2.281 1.503 3.167.027.242 0 .43-.027.537-.242-.134-.59-.215-1.181-.188-.161 0-.35.027-.51.054-.618-.322-.993-.993-1.342-1.691-.027-.054-.054-.134-.08-.188 0-.027-.028-.054-.028-.08v-.027c-.187-.59-.053-.725.027-.886.08-.161.376-.35-.053-.483-.027 0-.081-.027-.135-.027.296-.376 1.181-.483 1.826-.188zm-2.094 9.824c.322-.242 1.825-.725 3.22-.913.726-.08 1.772-.134 1.987 0 .43.242.43.993.134 1.691-.43 1.02-1.046 2.12-1.771 2.201-1.154.161-2.228-.456-3.463-1.395-.43-.323-.698-1.128-.107-1.584zm-10.844-7.65c1.825-1.235 4.16-.751 3.758-.376-.752.725.241.51.349 1.826.08.966-.242 1.503-.51 1.798-.564.08-1.262.215-2.094.483a9.915 9.915 0 00-1.288.51 1.262 1.262 0 01-.322-.242c-1.262-1.127-1.208-3.086.107-3.999z" fill-rule="nonzero"/>
    <path d="M159.389 111.89h-10.254V88.27h10.254c7.381 0 11.085 3.731 11.085 11.166 0 8.294-3.677 12.455-11.085 12.455zm-5.852-3.81h5.208c4.912 0 7.354-2.873 7.354-8.644 0-4.912-2.442-7.354-7.354-7.354h-5.208v15.997zM175.064 111.89h-4.482l10.038-23.62h4.725l10.253 23.62h-4.724l-2.98-6.441h-7.569l1.503-3.785h4.912l-3.865-8.884zM193.102 88.27h17.957v3.812h-6.764v19.809h-4.402V92.08h-6.791zM213.313 111.89h-4.509l10.066-23.62h4.697l10.253 23.62h-4.697l-2.98-6.441h-7.596l1.504-3.785h4.912l-3.866-8.884zM247 111.89h-10.254V88.27h10.253c7.382 0 11.086 3.731 11.086 11.166 0 8.294-3.704 12.455-11.086 12.455zm-5.879-3.81h5.207c4.912 0 7.355-2.873 7.355-8.644 0-4.912-2.47-7.354-7.355-7.354h-5.207v15.997zM261.064 100.107c0-7.998 3.973-11.998 11.891-11.998 7.784 0 11.703 4 11.703 11.998 0 7.972-3.892 11.945-11.703 11.945-7.596 0-11.542-3.973-11.89-11.945zm11.864 8.133c4.751 0 7.14-2.738 7.14-8.24 0-5.422-2.389-8.106-7.14-8.106-4.885 0-7.327 2.71-7.327 8.106 0 5.502 2.442 8.24 7.327 8.24zM302.91 102.335v5.53c-1.02.268-1.906.402-2.71.402-5.37 0-8.053-2.845-8.053-8.509 0-5.234 2.845-7.837 8.508-7.837 2.362 0 4.563.43 6.63 1.315v-3.973c-2.04-.778-4.348-1.154-6.952-1.154-8.482 0-12.75 3.865-12.75 11.65 0 8.213 4.161 12.293 12.536 12.293 2.872 0 5.26-.43 7.166-1.262V98.443H300.2l-1.476 3.892h4.187z"/>
  </g>
</svg>