<svg xmlns="http://www.w3.org/2000/svg" viewBox="0 0 400 200">
  <g fill="#b0b0b0" fill-rule="nonzero">
    <path d="M130.6534688 95.5381356l14.2669491 6.5 14.3771187-12.6144068c.220339-1.0466102.3029661-2.065678.3029661-3.1673729 0-8.86864404-7.2161017-16.08474573-16.0847458-16.08474573-5.315678 0-10.2457627 2.61652542-13.2478813 6.99576271l-2.3961865 12.42161022 2.7817797 5.9491525zM115.8907569 110.6313559c-.220339 1.0466102-.3029661 2.1207627-.3029661 3.2224577 0 8.8961864 7.2436441 16.1122881 16.1398305 16.1122881 5.3432204 0 10.3283899-2.6440678 13.3305085-7.0508475l2.3686441-12.3665254-3.1673729-6.059322-14.3220339-6.5275424-14.0466102 12.6694915zM115.8081298 85.9533898l9.7775424 2.3135594 2.1483051-11.09957632c-1.3220339-1.0190678-2.9745763-1.56991525-4.6822034-1.56991525-4.2415255 0-7.7118644 3.44279657-7.7118644 7.71186437 0 .9088983.1652542 1.8177966.4682203 2.6440678M114.95431624 88.2944915c-4.35169492 1.4322034-7.40889831 5.6186441-7.40889831 10.2182204 0 4.4894067 2.78177966 8.4830508 6.94067797 10.0805084l13.7161017-12.3940678-2.5063559-5.3707627-10.74152546-2.5338983zM147.5369434 122.9152542c1.3495762 1.0190678 2.9745762 1.5974577 4.654661 1.5974577 4.2415254 0 7.7118644-3.4427966 7.7118644-7.7118644 0-.9364407-.1652543-1.845339-.4682204-2.6716102l-9.75-2.286017-2.148305 11.0720339zM149.5199942 109.2817797l10.7415254 2.5063559c4.3792373-1.4322034 7.4088983-5.6186441 7.4088983-10.2457627 0-4.4618644-2.7817796-8.4830509-6.9406779-10.0529661l-14.0466102 12.3114407 2.8368644 5.4809322zM196.1492315 113.1652542l1.2944915-.1377118.0826271 2.6440678c-3.4152542.4682203-6.3347457.7161017-8.7584745.7161017-3.2224577 0-5.5084746-.9364407-6.8580509-2.8093221-1.3495763-1.8728813-2.0105932-4.7923729-2.0105932-8.7309322 0-7.8771186 3.1398305-11.8156779 9.3919491-11.8156779 3.0296611 0 5.2881356.8538135 6.7754238 2.5338983 1.4872881 1.6800847 2.2309322 4.3516949 2.2309322 7.9597457l-.1927966 2.5614407h-14.8177966c0 2.4788136.4406779 4.3241525 1.3495762 5.5084746.9088983 1.184322 2.4512712 1.7902542 4.6822034 1.7902542 2.2584746.0550848 4.5169492-.0275424 6.8305085-.220339zm-1.2118644-9.7224576c0-2.7542373-.440678-4.7097458-1.3220339-5.838983-.8813559-1.1292373-2.3135593-1.7076272-4.2966102-1.7076272-1.9830508 0-3.4978813.6059322-4.4894068 1.7902543-.9915254 1.184322-1.5148305 3.1122881-1.5423728 5.7563559h11.6504237zM202.97974 115.9745763V83.75h3.360169v32.2245763zM227.575079 100.3029661v11.0444915c0 1.1292373 2.78178 1.3495763 2.78178 1.3495763l-.165255 2.9745763c-2.368644 0-4.324152.1927966-5.508474-.9364407-2.699153 1.184322-5.370763 1.6800847-8.069915 1.6800847-2.065678 0-3.635594-.5783898-4.709746-1.7627118-1.074153-1.1567797-1.625-2.8368644-1.625-5.0402543 0-2.1758474.550847-3.8008474 1.652542-4.8199152 1.101695-1.0190678 2.836865-1.6800848 5.205509-1.9004237l7.050847-.661017v-1.9279661c0-1.5148305-.330508-2.6165254-.991525-3.2775424-.661017-.6610169-1.569916-.9915254-2.699153-.9915254h-8.841102V93.059322h8.620763c2.533898 0 4.379237.5783899 5.536017 1.7627119 1.184322 1.1567797 1.762712 3.0021186 1.762712 5.4809322zm-13.826271 9.1440678c0 2.7542373 1.129237 4.1313559 3.415254 4.1313559 2.038136 0 4.048729-.3305084 6.004237-1.0190678l1.019068-.3580508v-7.4088983l-6.637712.6334746c-1.349576.1101694-2.313559.4957627-2.919491 1.1567796-.605933.661017-.881356 1.625-.881356 2.8644068zM240.712791 96.0614407c-3.25 0-4.902543 1.1292373-4.902543 3.4152542 0 1.0466102.385594 1.7902543 1.129238 2.2309322.743644.440678 2.451271.881356 5.122881 1.3495763 2.67161.4682203 4.544492 1.1016949 5.646187 1.9555085 1.101694.8262712 1.652542 2.3961864 1.652542 4.7097457s-.743644 3.9936441-2.230932 5.0677966c-1.487288 1.0741526-3.635594 1.625-6.5 1.625-1.845339 0-8.042373-.6885593-8.042373-.6885593l.192796-2.9194915c3.552967.3305085 6.14195.6059322 7.877119.6059322 1.73517 0 3.057203-.2754237 3.966102-.8262712.908898-.5508475 1.377118-1.4872881 1.377118-2.7817797 0-1.2944915-.385593-2.1758474-1.156779-2.6440678-.771187-.4682203-2.478814-.9088983-5.122882-1.3220338-2.644067-.4131356-4.516949-1.0190678-5.618644-1.845339-1.101695-.7987288-1.652542-2.3135594-1.652542-4.4894068 0-2.1758475.771186-3.8008475 2.313559-4.8474576 1.542373-1.0466102 3.470339-1.5699153 5.756356-1.5699153 1.817797 0 8.152543.4682203 8.152543.4682203v2.9470339c-3.332628-.1927966-6.059322-.4406779-7.959746-.4406779zM265.611096 96.4470339h-7.133475v10.7415254c0 2.5614407.192797 4.2690678.550848 5.0677966.385593.7987288 1.266949 1.2118644 2.67161 1.2118644l3.993644-.2754237.220339 2.7817797c-2.010593.3305084-3.525424.4957627-4.572034.4957627-2.341102 0-3.938559-.5783898-4.847458-1.7076271-.908898-1.1292373-1.349576-3.3050848-1.349576-6.5v-11.815678h-3.194915v-2.9194915h3.194915v-6.8855932h3.332627V93.5h7.133475v2.9470339zM270.293299 88.4322034v-3.8834746h3.36017v3.911017l-3.36017-.0275424zm0 27.5423729V93.5275424h3.36017v22.4470339h-3.36017zM288.250926 93.059322c.991526 0 2.671611.1927966 5.040255.5508475l1.074152.1377119-.137712 2.7266949c-2.396186-.2754238-4.158898-.4131356-5.288135-.4131356-2.533899 0-4.269068.6059322-5.177966 1.8177966-.908899 1.2118644-1.377119 3.470339-1.377119 6.7478813 0 3.2775424.413136 5.5635594 1.266949 6.8580509.853814 1.2944915 2.616526 1.9279661 5.315678 1.9279661L294.255164 113l.137712 2.7817797c-2.78178.4131356-4.875.6334745-6.252119.6334745-3.497881 0-5.92161-.9088983-7.243644-2.6991525-1.322034-1.7902542-2.010593-4.8199153-2.010593-9.0889831s.716101-7.2711864 2.148305-8.9788135c1.459745-1.7076271 3.855932-2.5889831 7.216101-2.5889831z"/>
  </g>
</svg>