<svg xmlns="http://www.w3.org/2000/svg" viewBox="0 0 400 200">
  <g fill="#101010" fill-rule="nonzero">
    <path d="M226.024891 69.349593h-.528711v60.379084h.528711zM70 116.6027892v13.1258878h11.3757694v-1.7336078h-9.56052539v-4.2101905h6.17198985v-1.7336078h-6.17198985v-3.7148739h9.19739649v-1.7336078zM121.4826838 124.3810931c0 2.3091839-1.5166577 3.7676159-3.9182067 3.7676159-2.2751957 0-3.6657093-1.579968-3.6657093-3.7676159v-7.6567679h-1.8959268v7.6567679c0 3.5245439 2.6544648 5.3475839 5.5616361 5.3475839 4.423829 0 5.8141334-2.916864 5.8141334-5.3475839v-7.7783039h-1.8959267v7.7783039zM135.5474461 116.6027892h-1.5861323v13.1258878h1.5861323zM158.2559991 116.6027892v10.2778178l-9.3756932-10.2778178h-1.8750973v13.1258878h1.8750973V119.32703l9.3756932 10.401647h1.8750973v-13.1258878zM173.174991 116.6027892h-1.586132v13.1258878h1.586132zM194.482505 116.6027892l-4.410448 4.7055069-4.284275-4.7055069h-2.520137l5.418378 6.0676274-6.678447 7.0582604h2.394172l5.544343-5.8199691 5.166448 5.8199691h2.646102l-6.426307-7.0582604 5.544343-6.0676274zM96.1898463 116.6027892c-3.840848 0-6.9385442 2.8719891-6.9385442 6.8209742 0 3.948985 3.0976962 6.7013079 6.9385442 6.7013079.9912792 0 2.106417-.2393324 3.0976962-.7179973l1.1149328 1.1966622h2.2302756l-1.8584946-2.0343256c1.4869187-1.076996 2.4779929-2.9916554 2.4779929-5.2653135-.1238587-3.948985-3.2213498-6.7013079-7.0624029-6.7013079zm5.0800495 6.8209742c0 1.7949932-.6194982 2.9916553-1.734636 3.948985l-.9912792-1.0769959H96.313705l1.734636 2.0343256c-.4954345.2393325-1.2389964.3589987-1.8584947.3589987-2.8497738 0-5.0798444-2.1539919-5.0798444-5.1456472 0-2.9916554 2.1062119-5.1456472 4.9559858-5.1456472 2.9736325-.2393324 5.2039081 1.9146594 5.2039081 5.025981zM135.1920123 69.349593l-5.3378405 1.82174244V98.497472l-3.4758318-1.2144949V72.3858304l-10.675681 3.64348487V93.6394922l-3.6001301-1.214495V77.24381023l-3.5999246 1.21449496V94.9754366l10.675681 3.6434849V78.45830519l3.6001301-1.21449496V99.8334165l10.675681 3.6434848V73.60032536l1.7379159-.60724748 1.8620087.60724748v29.87657594l10.5515882-3.6434848V77.24381023l3.5999246 1.21449496V98.6189215l10.675681-3.6434849V78.45830519l-3.5999246-1.21449496V92.4249972l-3.4758318 1.214495V76.02931527l-10.675681-3.64348487v24.8971467l-3.5999246 1.2144949V71.17133544l-5.3378405-1.82174244zM168.4442562 93.8512503c1.6489628 0 3.0626098-1.4135572 3.0626098-3.0627072 0-1.6490715-1.295697-3.0627071-3.0626098-3.0627071-1.6491575 0-3.0628047 1.4135571-3.0628047 3.0627071 0 1.7669465 1.295697 3.0627072 3.0628047 3.0627072zm0-.3533893c-1.5314024 0-2.7093441-1.1779643-2.7093441-2.7093179 0-1.531275 1.1779417-2.7093179 2.7093441-2.7093179 1.5312073 0 2.7091488 1.1779643 2.7091488 2.7093179 0 1.5313536-1.1779415 2.7093179-2.7091488 2.7093179zm-1.295892-1.1779643h.8246763v-.9423714h.4712157l.7067261.9423714h.9424317l-.8246766-1.1779643c.4712158-.1177964.7067261-.4711857.7067261-.9423714 0-.7067001-.5889709-1.0600894-1.295697-1.0600894h-1.5314023v3.1805036-.0000785zm.8246763-1.64915v-.824575h.706726c.3534606 0 .5889709.1177964.5889709.4711857 0 .2355929-.2355103.4711857-.5889709.4711857h-.706726v-.1177964zM251.263276 92.9761911h2.773563l4.664544 6.5743577 4.538312-6.5743577h2.773563v13.8791996h-2.64754v-9.8615366l-4.790567 6.5743578h-.126024l-4.664544-6.4526104v9.8615366h-2.647331v-14.000947h.126024zM270.388554 92.9761911h11.248166v2.2106758h-8.46745v3.6844598h7.582591v2.2106758h-7.582591v3.6844598h8.595054v2.2106758h-11.249421l-.126349-14.000947zM290.938784 95.3096823h-4.799164v-2.3334912h12.250828v2.3334912h-4.799164v11.6674558h-2.6525V95.3096823zM305.434486 92.9761911h2.417952l6.289076 14.000947h-2.660147l-1.451172-3.3160138h-6.773466l-1.451172 3.3160138h-2.54005l6.168979-14.000947zm3.626927 8.4742574l-2.538048-5.5266896-2.419953 5.5266896h4.958001zM318.516809 92.9761911h2.625695v11.7707077h7.875016v2.2302393h-10.500711v-14.000947z"/>
  </g>
</svg>