<svg width="400" height="200" xmlns="http://www.w3.org/2000/svg" xmlns:xlink="http://www.w3.org/1999/xlink">
  <defs>
    <path id="a" d="M0 .546h19.728v38.889H0z"/>
    <path id="c" d="M.087.045H24.05v39.389H.087z"/>
  </defs>
  <g fill="none" fill-rule="evenodd">
    <g transform="translate(97.5 79.902)">
      <mask id="b" fill="#fff">
        <use xlink:href="#a"/>
      </mask>
      <path d="M5.274 10.255v3.789H0v6.292h5.274v19.099h7.823V20.336h5.873l.65-6.292h-6.523v-3.895c0-2.348.708-3.414 3.154-3.414h3.477V.813c-1.14-.159-2.987-.267-4.563-.267-7.283 0-9.891 3.361-9.891 9.709" fill="#101010" mask="url(#b)"/>
    </g>
    <path d="M135.283 107.344c0 3.586-1.667 5.856-4.955 5.856-3.731 0-5.179-2.478-5.179-6.227v-1.794c0-3.746 1.448-6.227 5.179-6.227 3.288 0 4.955 2.27 4.955 5.859v2.533zm.337-9.975c-1.17-2.427-3.62-4.38-7.63-4.38-7.351 0-10.86 5.279-10.86 12.297v1.583c0 7.018 3.509 12.294 10.86 12.294 4.01 0 6.514-1.899 7.63-4.325v3.797h7.685V93.517h-7.685v3.852zM158.262 98.9c1.943 0 3.783.58 4.908 1.16l1.635-5.383c-1.483-1.056-4.193-1.688-7.054-1.688-8.64 0-12.577 4.803-12.577 12.506v1.162c0 7.703 3.937 12.506 12.577 12.506 2.861 0 5.571-.632 7.054-1.687l-1.635-5.384c-1.125.58-2.965 1.16-4.908 1.16-3.988 0-5.727-2.374-5.727-6.437v-1.477c0-4.064 1.739-6.438 5.727-6.438M183.966 103.734h-9.463c0-3.37 1.358-5.53 4.893-5.53 3.427 0 4.57 2.16 4.57 4.899v.631zm-4.57-10.745c-8.535 0-12.721 4.69-12.721 11.798V107c0 7.372 3.697 12.163 13.593 12.163 3.751 0 7.99-.787 10.059-1.84l-1.413-5.214c-2.286.947-5.385 1.526-8.32 1.526-4.351 0-5.928-1.526-6.09-4.95h16.475v-4.002c0-6.952-3.534-11.694-11.583-11.694zM212.005 106.929c0 3.565-1.435 6.224-5.244 6.224-3.259 0-5.025-2.235-5.025-5.853v-2.66c0-3.618 1.766-5.852 5.025-5.852 3.809 0 5.244 2.66 5.244 6.226v1.915zm-2.87-14.152c-3.7 0-6.24 1.809-7.399 4.042V79.902l-7.952.69v38.04h7.51v-3.83c1.102 2.45 3.864 4.361 7.84 4.361 7.289 0 10.824-5.317 10.824-12.395v-1.596c0-7.076-3.535-12.395-10.824-12.395zM240.05 107.238c0 3.323-1.437 5.964-5.137 5.964-3.7 0-5.134-2.64-5.134-5.964v-2.322c0-3.326 1.435-5.963 5.134-5.963 3.7 0 5.138 2.637 5.138 5.963v2.322zm-5.137-14.249c-8.78 0-13.086 5.224-13.086 12.455v1.266c0 7.229 4.306 12.453 13.086 12.453 8.78 0 13.089-5.224 13.089-12.453v-1.266c0-7.231-4.309-12.455-13.089-12.455zM267.157 107.238c0 3.323-1.434 5.964-5.134 5.964-3.699 0-5.134-2.64-5.134-5.964v-2.322c0-3.326 1.435-5.963 5.134-5.963 3.7 0 5.134 2.637 5.134 5.963v2.322zm-5.134-14.249c-8.78 0-13.087 5.224-13.087 12.455v1.266c0 7.229 4.308 12.453 13.087 12.453 8.78 0 13.088-5.224 13.088-12.453v-1.266c0-7.231-4.308-12.455-13.088-12.455z" fill="#101010"/>
    <g transform="translate(277.915 79.902)">
      <mask id="d" fill="#fff">
        <use xlink:href="#c"/>
      </mask>
      <path fill="#101010" mask="url(#d)" d="M23.727 13.68h-8.236L7.843 25.962V.045L.087.747v38.687h7.756V26.828l7.97 12.606h8.237l-8.346-13.038z"/>
    </g>
  </g>
</svg>