<svg width="154" height="60" xmlns="http://www.w3.org/2000/svg">
  <g fill="#FF282D" fill-rule="nonzero">
    <path d="M104.376 6.202v39.703h11.999v-6.066h-3.965V.155h-8.035zM.125 39.838h4.068V20.684H.125v-5.268l4.068-.667V9.417c0-6.46 1.411-9.262 9.678-9.262 1.785 0 3.901.263 5.754.595l-1.098 6.493c-1.255-.198-1.877-.233-2.67-.233-2.913 0-3.65.29-3.65 3.125v4.614h6.048v5.935h-6.047v19.154h4.026v6.065l-16.109.002v-6.067zM100.903 37.922c-1.285.263-2.409.232-3.222.251-3.381.08-3.089-.999-3.089-4.097V20.684h6.435V14.75h-6.435V.155h-8.217v35.577c0 6.985 1.774 10.173 9.504 10.173 1.831 0 4.347-.458 6.246-.853l-1.222-7.13zM150.496 39.905c1.867 0 3.379 1.328 3.379 3 0 1.671-1.512 3-3.38 3-1.867 0-3.37-1.329-3.37-3 0-1.672 1.503-3 3.37-3m0 5.528c1.552 0 2.815-1.14 2.815-2.528 0-1.389-1.263-2.494-2.814-2.494-1.551 0-2.806 1.105-2.806 2.494 0 1.388 1.255 2.528 2.806 2.528m.622-1.054l-.68-.891h-.47v.891h-.755V41.43h1.378c.814 0 1.322.37 1.322 1.021 0 .48-.269.805-.69.917l.824 1.011h-.93zm-1.15-1.483h.604c.345 0 .575-.12.575-.445 0-.308-.23-.43-.556-.43h-.622v.875zM75.802 20.586V19.52c-2.425-.443-4.832-.449-6.139-.449-3.73 0-4.184 1.978-4.184 3.05 0 1.516.518 2.336 4.558 3.22 5.906 1.325 11.838 2.709 11.838 10.032 0 6.944-3.574 10.532-11.098 10.532-5.035 0-9.92-1.08-13.648-2.027v-5.984h6.07l-.004 1.063c2.611.505 5.35.454 6.78.454 3.978 0 4.621-2.139 4.621-3.276 0-1.578-1.14-2.335-4.87-3.092-7.025-1.2-12.601-3.598-12.601-10.734 0-6.755 4.518-9.404 12.042-9.404 5.097 0 8.973.79 12.702 1.737v5.944h-6.067zM39.125 25.545l-.64-.64-3.25 2.83a1.547 1.547 0 00-.523-.092c-.877 0-1.587.73-1.587 1.63 0 .902.71 1.632 1.587 1.632s1.588-.73 1.588-1.632c0-.17-.026-.335-.073-.49l2.898-3.238z"/>
    <path d="M52.189 37.888l-.006-24.955h-8.101v2.34a16.665 16.665 0 00-5.508-2.062h.046v-2.77h.988V8.405h-8.157v2.036h.988v2.77h.056c-7.748 1.412-13.62 8.128-13.62 16.206 0 9.105 7.456 16.485 16.653 16.485a16.7 16.7 0 008.58-2.356l1.46 2.359h8.557v-8.017h-1.936zm-16.176-.018v-.943h-.97v.94c-4.349-.25-7.826-3.708-8.053-8.02h.964v-.96h-.96c.259-4.281 3.722-7.706 8.048-7.956v.945h.971v-.948c4.265.226 7.7 3.537 8.071 7.72v.275h-.972v.96h.972v.264c-.369 4.184-3.805 7.497-8.07 7.723zM137.037 14.405h16.838v6.018h-4.025l-10.326 25.226c-2.96 7.086-7.821 13.756-15.224 13.756-1.82 0-4.244-.2-5.924-.601l.738-7.358c1.078.2 2.49.332 3.232.332 3.433 0 7.306-2.112 8.517-5.79L120.4 20.423h-4.025v-6.018h16.847v6.018h-4.025l5.928 14.48 5.928-14.48h-4.016v-6.018z"/>
  </g>
</svg>