<svg xmlns="http://www.w3.org/2000/svg" viewBox="0 0 400 200">
  <defs/>
  <g fill="#808080">
    <path d="M227.376182 76.20242734v39.70240216H239.375v-6.0662009h-3.965061V70.15482954l-8.034939.00107703zM123.125 109.8379232h4.06841601V90.6836569H123.125v-5.2676656l4.06841601-.6666704v-5.3323842c0-6.45903663 1.41090172-9.26210715 9.67723919-9.26210715 1.7853669 0 3.9015721.262693 5.7543448.59529389l-1.0981432 6.49281564c-1.254768-.1980723-1.8771409-.23322205-2.6702879-.23322205-2.9123 0-3.6486534.2895204-3.6486534 3.12490127v4.6146047h6.0469603v5.9344339h-6.0469603v19.1543642h4.0259681v6.065144l-16.10868708.0016644v-6.0669063H123.125zM223.903271 107.9217993c-1.2853999.2635781-2.4093061.2318548-3.2226168.2513392-3.3806849.0807771-3.0886265-.9990904-3.0886265-4.0970149V90.6841602h6.4348563v-5.9345228h-6.4348563V70.15482954H209.375v35.57697996c0 6.9851148 1.7737086 10.17302 9.5041401 10.17302 1.8308307 0 4.3465229-.4578348 6.2458599-.853202l-1.221729-7.1298282zM273.495534 109.9048295c1.867241 0 3.379466 1.3286634 3.379466 3.0003901 0 1.6712391-1.512334 2.9996099-3.379466 2.9996099-1.867242 0-3.370534-1.3283708-3.370534-2.9996099.000109-1.6717267 1.503401-3.0003901 3.370534-3.0003901m0 5.5285074c1.551114 0 2.814533-1.1397738 2.814533-2.5281173 0-1.3891236-1.263419-2.4943765-2.814533-2.4943765-1.550788 0-2.805928 1.1053504-2.805928 2.4943765.000109 1.388246 1.25514 2.5281173 2.805928 2.5281173m.622341-1.0542517l-.679968-.8913991h-.46907v.8913991h-.756113v-2.9488038h1.378127c.814066 0 1.321699.3688077 1.321699 1.0208035 0 .4791965-.268305.8052919-.689227.9164608l.823325 1.011442h-.928773v.0000975zm-1.148929-1.4829346h.603168c.345104 0 .574737-.1198479.574737-.4449682 0-.3086399-.229742-.429268-.556-.429268h-.622014v.8742362h.000109zM198.8018518 90.5857099v-1.066123c-2.4246017-.4422284-4.8323024-.4486147-6.1383938-.4486147-3.7297105 0-4.1844646 1.977697-4.1844646 3.0497151 0 1.5166044.5175431 2.3366083 4.5581529 3.2199843C198.9433483 96.6664723 204.875 98.04975 204.875 105.3725049c0 6.9445864-3.5744574 10.5323246-11.0983379 10.5323246-5.034721 0-9.9198881-1.0806641-13.6473386-2.0264295v-5.9843781h6.0690212l-.0035374 1.0631755c2.6116916.5044213 5.3501404.4539202 6.7797465.4539202 3.978312 0 4.6219246-2.1386323 4.6219246-3.2756927 0-1.5780113-1.1409139-2.3358223-4.8700348-3.091963C185.7007487 101.8431278 180.125 99.4447195 180.125 92.3088382c0-6.7543722 4.517964-9.4040087 12.0419428-9.4040087 5.0973135 0 8.9730406.7904304 12.7024563 1.736687v5.9441934h-6.0675473zM162.125 95.5446138l-.6399849-.6397843-3.2501375 2.8305484c-.1640431-.0587336-.3395312-.0924282-.5228553-.0924282-.8770278 0-1.5870223.7304608-1.5870223 1.6305278 0 .9010974.7099945 1.631352 1.5870223 1.631352.8766153 0 1.5882595-.7302546 1.5882595-1.631352 0-.1709458-.0259829-.335606-.0735152-.4904773L162.125 95.5446138z"/>
    <path d="M175.188618 107.8882669l-.0052644-24.9550342h-8.1013179v2.3402535c-1.6685961-.9908863-3.527205-1.6994909-5.5081849-2.0626913h.0457898v-2.7693294h.9884041v-2.03663595h-8.1572391v2.03663595h.9883048v2.7693294h.0562191C147.7469209 84.6227931 141.875 91.3391493 141.875 99.417458c0 9.1040991 7.4556917 16.4843236 16.6528856 16.4843236 3.1389353 0 6.0743495-.8608066 8.5803725-2.3552967l1.4595126 2.3583446H177.125v-8.0166609h-1.936382v.0000983zm-16.1755195-.0181895v-.9427086h-.9706245v.9400539c-4.3480443-.2508187-7.8258838-3.7087933-8.052747-8.0198072h.9647643v-.9607998h-.9597979c.2578532-4.2811241 3.7213896-7.7062593 8.0477806-7.9558981v.9448716h.9706245v-.9476246c4.2646095.2256483 7.6998377 3.536927 8.0710231 7.7192377v.2754975h-.9725117v.9607998h.9728097v.2631089c-.3691989 4.1842771-3.805321 7.4976206-8.0713211 7.7232689zM260.037164 84.4048295H276.875v6.018022h-4.024613l-10.326528 25.2261584c-2.959631 7.0862229-7.820816 13.7558196-15.224247 13.7558196-1.82028 0-4.243516-.2002628-5.923966-.601186l.738381-7.3573479c1.078295.2002628 2.490698.3320487 3.231782.3320487 3.433268 0 7.306041-2.112251 8.517259-5.7899311l-10.463254-25.5653629H239.375v-6.0182208h16.846544v6.0182208h-4.024213l5.927769 14.4807412 5.927769-14.4807412h-4.015805v-6.0182208h.0001z"/>
  </g>
</svg>