<svg xmlns="http://www.w3.org/2000/svg" xmlns:xlink="http://www.w3.org/1999/xlink" viewBox="0 0 400 200">
  <defs>
    <path id="a" d="M0 .26619718h31.7226825V43.918009H0z"/>
    <path id="c" d="M.1356082.05485275h26.8350064V42.0821895H.1356082z"/>
  </defs>
  <g fill="#808080">
    <g transform="translate(118.771186 77.681857)">
      <mask id="b" fill="#fff">
        <use xlink:href="#a"/>
      </mask>
      <path d="M31.0890077 18.9496991H17.5246031c-.3495519 0-.6336748.2841229-.6336748.6341229v6.6316261c0 .35.2841229.6345711.6336748.6345711h5.2916773v8.2395647s-1.1880282.4046735-4.4724712.4046735c-3.8755442 0-9.2891165-1.4156851-9.2891165-13.3201665 0-11.9067221 5.6371959-13.47343149 10.9293214-13.47343149 4.5809219 0 6.5549936.80665813 7.8102433 1.19519846.3948143.12055063.759603-.27202304.759603-.62202304l1.5133803-6.40755442c0-.16402049-.0555698-.36120359-.2419974-.49519846C29.3148079 2.0071895 26.2037964.26615237 18.3438092.26615237c-9.05563378 0-18.34385401 3.85268886-18.34385401 22.37221513 0 18.5199744 10.63444301 21.2796415 19.59596671 21.2796415 7.4199104 0 11.9210627-3.1706146 11.9210627-3.1706146.1855314-.1021767.2056979-.3616518.2056979-.4804098V19.583822c0-.35-.2836748-.6341229-.6336748-.6341229" mask="url(#b)"/>
    </g>
    <path d="M219.763081 80.16708067c0-.35268886-.279641-.63770807-.629641-.63770807h-7.6372604c-.3491037 0-.6323303.28501921-.6323303.63770807 0 .00179257.0017925 14.75960303.0017925 14.75960303h-11.9044814V80.16708067c0-.35268886-.2809859-.63770807-.6300896-.63770807h-7.63726c-.3473111 0-.6305377.28501921-.6305377.63770807v39.96453263c0 .3522407.2832266.6395007.6305377.6395007h7.63726c.3491037 0 .6300896-.28726.6300896-.6395007v-17.0944302h11.9044814s-.0206146 17.0930858-.0206146 17.0944302c0 .3522407.2832267.6395007.6327785.6395007h7.6551853c.349552 0 .629194-.28726.63009-.6395007V80.16708067zM164.2720823 85.41134443c0-2.75025608-2.2048656-4.97215109-4.925096-4.97215109-2.7175417 0-4.9237516 2.22189501-4.9237516 4.97215109 0 2.74711907 2.2062099 4.97573627 4.9237516 4.97573627 2.7202304 0 4.925096-2.2286172 4.925096-4.97573627M163.7259299 111.7010499V93.2532266c0-.35-.2823303-.6363636-.6318822-.6363636h-7.6130602c-.3495518 0-.6619078.3603073-.6619078.7103073v26.4301536c0 .7766326.4839949 1.0078746 1.1104994 1.0078746h6.859283c.7524327 0 .9370678-.3697183.9370678-1.0204226v-8.043726zM248.788254 92.6770487h-7.578553c-.34776 0-.630538.2863636-.630538.6390525v19.5955185s-1.925672 1.4089629-4.658451 1.4089629c-2.732778 0-3.457874-1.2400128-3.457874-3.9158771V93.3161012c0-.3526889-.282331-.6390525-.63009-.6390525h-7.691933c-.346863 0-.631434.2863636-.631434.6390525v18.3823943c0 7.9478233 4.429449 9.8923176 10.522855 9.8923176 4.999488 0 9.03009-2.7619079 9.03009-2.7619079s.191357 1.4555698.278745 1.628105c.086491.1720871.312804.3459668.55749.3459668l4.893278-.0215109c.346863 0 .631434-.2868118.631434-.6381562l-.002689-26.8272087c0-.3526889-.283226-.6390525-.63233-.6390525"/>
    <g transform="translate(253.214208 79.47443)">
      <mask id="d" fill="#fff">
        <use xlink:href="#c"/>
      </mask>
      <path d="M13.2989245 34.8218182c-2.6288093-.0802177-4.41197188-1.2727273-4.41197188-1.2727273V20.893073s1.75896288-1.0782331 3.91722148-1.2709347c2.7291934-.2442382 5.3588989.5798976 5.3588989 7.090525 0 6.8651088-1.1866838 8.2202944-4.8641485 8.1091549m2.9891165-22.5169654c-4.3044174 0-7.23213831 1.9207426-7.23213831 1.9207426V.69256082c0-.35268886-.28233035-.63770807-.63008963-.63770807H.76659411c-.34820743 0-.63098592.2850192-.63098592.63770807V40.6570935c0 .3526888.2827785.6395006.63233035.6395006H6.0815749c.23930858 0 .42035852-.1236876.5543534-.3396927.1322023-.2146607.32266325-1.8423175.32266325-1.8423175s3.13162615 2.9676056 9.06011525 2.9676056c6.9605634 0 10.9521767-3.5304738 10.9521767-15.8490397s-6.3752881-13.928297-10.6828425-13.928297" mask="url(#d)"/>
    </g>
    <path d="M185.6759939 92.6133675h-5.7290653s-.0085147-7.56690143-.0085147-7.568694c0-.28636364-.1474392-.42976953-.4790653-.42976953h-7.8066581c-.3033931 0-.4665173.13399488-.4665173.42573623v7.8209987s-3.9122919.9442382-4.1771447 1.0208707c-.2630602.0761844-.4571063.3190781-.4571063.6090269v4.9147887c0 .353137.2823304.6386044.6314341.6386044h4.0028169v11.8238156c0 8.7818182 6.1606274 9.6444942 10.3171575 9.6444942 1.8992317 0 4.1713188-.6099231 4.5464148-.7483995.2267606-.0833546.3589629-.3181818.3589629-.5727272l.0058259-5.4068502c0-.3526889-.2975673-.6381562-.6327785-.6381562-.3338669 0-1.1880282.1362356-2.0672855.1362356-2.8138925 0-3.7675417-1.3085788-3.7675417-3.0025609 0-1.6921895-.0004481-11.2358514-.0004481-11.2358514h5.7295134c.3491038 0 .6323304-.2854674.6323304-.6386044v-6.1561459c0-.3526889-.2832266-.6368118-.6323304-.6368118"/>
  </g>
</svg>