<svg width="400" height="200" xmlns="http://www.w3.org/2000/svg">
  <g fill="#b0b0b0" fill-rule="nonzero">
    <path d="M285.463 112.331c-1.56 0-2.93-.19-3.957-.666V97.38c1.407-1.18 3.158-2.036 5.383-2.036 4.014 0 5.555 2.835 5.555 7.42 0 6.505-2.492 9.568-6.981 9.568m1.75-21.04c-3.71 0-5.707 2.53-5.707 2.53v-3.995l-.02-5.288h-4.051l.019 30.152c2.035.856 4.813 1.313 7.837 1.313 7.743 0 11.472-4.946 11.472-13.488-.02-6.753-3.463-11.224-9.55-11.224M268.01 110.021a7.076 7.076 0 01-5.136 2.169c-3.158 0-4.432-1.56-4.432-3.596 0-3.063 2.13-4.527 6.658-4.527.856 0 2.226.095 2.93.228v5.726h-.02zm-4.299-18.738c-3.348 0-6.43 1.18-8.827 3.177l1.465 2.549c1.693-.99 3.767-1.979 6.753-1.979 3.406 0 4.908 1.75 4.908 4.68v1.503c-.665-.133-2.035-.228-2.872-.228-7.267 0-10.958 2.549-10.958 7.876 0 4.774 2.93 7.171 7.362 7.171 2.987 0 5.86-1.37 6.849-3.595l.76 3.025h2.93V99.634c-.019-5.003-2.187-8.351-8.37-8.351zM239.356 84.532h-4.147l.019 30.914h16.797v-3.824h-12.65zM223.408 84.528h-4.052l.019 5.193v17.94c0 5.003 2.169 8.351 8.351 8.351.856 0 1.693-.076 2.492-.228v-3.634c-.59.095-1.217.133-1.883.133-3.405 0-4.908-1.75-4.908-4.68V95.239h6.791v-3.386h-6.791l-.019-7.324zM209.051 115.446h4.052v-23.59h-4.052zM194.202 87.886c3.671 0 6.05 1.218 7.59 2.454l1.788-3.1c-2.416-2.131-5.688-3.273-9.188-3.273-8.827 0-15.01 5.384-15.01 16.247 0 11.376 6.677 15.808 14.306 15.808 3.824 0 7.077-.894 9.207-1.788l-.095-12.156v-3.824h-11.319v3.824h7.23l.094 9.226c-.95.476-2.587.856-4.813.856-6.125 0-10.234-3.861-10.234-11.984-.02-8.276 4.223-12.29 10.444-12.29M209.051 88.603h4.052v-4.052h-4.052zM167.41 103.447l-3.434-10.574.004.014-.004-.016v-.001l-6.816-20.984a2.686 2.686 0 00-2.575-1.838 2.65 2.65 0 00-2.542 1.854l-6.47 19.917H125.16l-6.482-19.918a2.65 2.65 0 00-2.542-1.853h-.014c-1.161 0-2.19.737-2.566 1.855l-6.797 20.964v.003c-.003.006-.003.011-.005.017l.004-.015-3.446 10.575a3.853 3.853 0 001.4 4.317l29.754 21.619.013.008.038.027-.035-.026c.001.002.004.003.006.004l.005.003c.047.033.094.062.144.089l.02.012.012.007.01.004.007.003.017.007c.026.012.053.022.08.033.025.01.049.023.074.032h.004l.012.006.016.006.006.001.02.005.009.002c.035.01.072.019.11.027.014.003.028.008.042.01l.007.002c.004 0 .009.003.014.003l.023.005c.006.001.013 0 .02.002h.003c.07.01.142.017.214.017h.002c.073 0 .144-.007.215-.017h.004c.006-.001.013 0 .02-.002l.023-.005c.005 0 .009-.002.014-.003l.006-.002c.015-.002.029-.007.044-.01.036-.008.073-.016.108-.027l.008-.001c.007-.003.014-.003.02-.006l.007-.001.017-.006.012-.005.003-.001c.027-.01.052-.023.079-.033l.074-.031.017-.008c.003 0 .005-.002.008-.003l.01-.004.012-.007.02-.013c.05-.026.097-.055.143-.087l.012-.007.003-.002c.004-.003.01-.005.014-.009l29.758-21.618a3.853 3.853 0 001.4-4.317zm-12.807-29.595l5.836 17.967h-11.672l5.836-17.967zm4.814 21.005l-2.38 3.052-17.565 22.504 8.308-25.556h11.637zm-28.168 25.558l-19.934-25.557h11.638l8.296 25.557zm-15.131-46.564l5.847 17.968h-11.672l5.825-17.968zm-9.62 31.455a.822.822 0 01-.297-.92l2.561-7.86 18.77 24.063-21.034-15.283zm27.915 24.036l-.017-.014-.004-.004a1.23 1.23 0 01-.097-.087l.006.004.007.006c.043.042.089.081.137.117l.001.002.007.005-.04-.029zm.946-6.105l-4.882-15.04-4.33-13.34h18.439l-9.227 28.38zm1 6.058l-.035.03-.004.003-.017.015-.039.029.007-.006v-.001a1.48 1.48 0 00.138-.117l.005-.004.007-.006c-.02.02-.041.038-.062.057zm27.864-23.989l-21.03 15.278 18.775-24.057 2.552 7.858a.822.822 0 01-.297.921z"/>
  </g>
</svg>