<svg xmlns="http://www.w3.org/2000/svg" viewBox="0 0 400 200">
  <g fill="none" fill-rule="nonzero">
    <path fill="#101010" d="M239.210799 84.411807h-4.178447l.019167 31.1466769h16.924625v-3.8526044h-12.746178l-.019167-27.2940725zM268.082331 110.0939192c-1.353363 1.4058354-3.223769 2.1955625-5.175141 2.1850592-3.181752 0-4.465954-1.5717092-4.465954-3.6225981 0-3.0859169 2.146725-4.5617902 6.708515-4.5617902a20.05845813 20.05845813 0 012.951747.2300062v5.7693229h-.019167zm-4.331784-18.8797442c-3.248349-.0099785-6.396683 1.1231502-8.893575 3.2009862l1.475874 2.5684029c1.705879-.9966936 3.795102-1.9933873 6.804351-1.9933873 3.430926 0 4.945134 1.7633811 4.945134 4.7151277v1.5142077a19.05603122 19.05603122 0 00-2.894246-.2300062c-7.321864 0-11.040299 2.5684029-11.040299 7.9352149 0 4.8109636 2.951747 7.226029 7.417701 7.226029 3.009249 0 5.903494-1.3800374 6.900187-3.6225981l.766688 3.0475825h2.951746V99.6286358c-.019167-5.0409699-2.204226-8.4144608-8.433561-8.4144608zM285.666307 112.4208156c-1.571709 0-2.951747-.1916719-3.986775-.6708515V97.3554075c1.418372-1.1883655 3.181753-2.0508888 5.424314-2.0508888 4.044276 0 5.596818 2.8559106 5.596818 7.4752024 0 6.5551776-2.510901 9.6410945-7.034357 9.6410945m1.763381-21.1989075c-2.193467-.0135249-4.287309.9147448-5.750156 2.5492357v-4.0289424l-.019167-5.3284777h-4.082611l.019168 30.3799895c2.050888.8625233 4.849298 1.3225358 7.89688 1.3225358 7.801045 0 11.557813-4.9834683 11.557813-13.5895347-.019167-6.804351-3.488428-11.3086396-9.621927-11.3086396M193.7155665 87.7909818c3.6992668 0 6.095165 1.2266999 7.6477071 2.472567l1.8017154-3.1242513c-2.4342326-2.1467248-5.7309885-3.2967559-9.2577507-3.2967559-8.8935742 0-15.1229096 5.4243135-15.1229096 16.3687766 0 11.4619771 6.7276822 15.9279963 14.4137237 15.9279963 3.1799437.007255 6.3308858-.6047049 9.2769176-1.8017804l-.095836-12.2478317v-3.8526043h-11.412142v3.8526043h7.2835306l.0958359 9.2960851c-.9583593.4791797-2.6067372.8625234-4.849298.8625234-6.1718338 0-10.3119459-3.8909387-10.3119459-12.075327-.0191672-8.3377259 4.2551152-12.3820021 10.522785-12.3820021M223.142947 84.4079735h-4.082611l.019167 5.2326418v18.0746562c0 5.0409698 2.18506 8.4144388 8.414395 8.4144388.842324.0021167 1.682988-.0748906 2.510901-.2300505v-3.6609325a11.95265496 11.95265496 0 01-1.897551.1341703c-3.430926 0-4.945134-1.7633811-4.945134-4.7151277V95.1990991h6.842685v-3.411759h-6.836935l-.019167-7.3793666h-.00575zM208.677472 115.5584839h4.08261V91.7911735h-4.08261zM208.677472 88.5135847h4.08261v-4.0826105h-4.08261z"/>
    <path fill="#616161" d="M134.3969599 129.7824524l11.9104892-36.6649096h16.6946189zM134.389293 129.7824524l-11.9143226-36.6649096h-16.67545168z"/>
    <path fill="#919191" d="M162.9963178 93.1309598l3.6283483 11.1399684c.3296819 1.0158016-.0306326 2.1284466-.8931909 2.758158l-31.3325986 22.7514495 28.5974412-36.6495759zM105.78610169 93.1309598l-3.62643154 11.1399684c-.3296819 1.0158016.03063259 2.1284466.89319085 2.758158l31.3306819 22.7725334-28.59744121-36.6706598z"/>
    <path fill="#101010" d="M134.3969599 129.7805357l11.9104892-36.6629929h-23.8248119zM105.78993513 93.1309598h16.69653557l-7.185778-22.08251474c-.1693226-.5055169-.6427863-.84624757-1.1759068-.84624757-.5331206 0-1.0065843.34073066-1.1759069.84624757l-7.15894387 22.08251474zM163.0059014 93.1309598h-16.6984523l7.172361-22.08251474c.1693226-.5055169.6427863-.84624757 1.1759068-.84624757.5331205 0 1.0065843.34073066 1.1759069.84624757l7.1723609 22.08251474h.0019167z"/>
  </g>
</svg>