<svg width="400" height="200" xmlns="http://www.w3.org/2000/svg">
  <g fill="#808080" fill-rule="nonzero">
    <path d="M186.742 101.326c0 8.396-6.349 14.583-14.141 14.583s-14.141-6.187-14.141-14.583c0-8.456 6.349-14.584 14.141-14.584s14.141 6.128 14.141 14.584zm-6.19 0c0-5.247-3.68-8.837-7.951-8.837-4.271 0-7.951 3.59-7.951 8.837 0 5.194 3.68 8.837 7.951 8.837 4.271 0 7.951-3.65 7.951-8.837zM217.677 101.326c0 8.396-6.35 14.583-14.142 14.583s-14.141-6.187-14.141-14.583c0-8.45 6.35-14.584 14.141-14.584 7.792 0 14.142 6.128 14.142 14.584zm-6.19 0c0-5.247-3.68-8.837-7.952-8.837-4.27 0-7.95 3.59-7.95 8.837 0 5.194 3.68 8.837 7.95 8.837 4.271 0 7.951-3.65 7.951-8.837zM247.727 88.493v25.753c0 10.594-6.224 14.92-13.583 14.92-6.927 0-11.096-4.65-12.669-8.452l5.465-2.283c.973 2.334 3.357 5.09 7.197 5.09 4.71 0 7.63-2.917 7.63-8.408v-2.063h-.22c-1.404 1.74-4.11 3.26-7.526 3.26-7.146 0-13.693-6.248-13.693-14.287 0-8.097 6.547-14.397 13.693-14.397 3.41 0 6.115 1.52 7.527 3.208h.219V88.5h5.96v-.006zm-5.516 13.53c0-5.051-3.357-8.744-7.63-8.744-4.33 0-7.957 3.693-7.957 8.744 0 5 3.628 8.64 7.958 8.64 4.272 0 7.63-3.64 7.63-8.64zM257.45 72.601v42.424h-6.187V72.601zM281.444 106.132l4.9 3.314c-1.582 2.373-5.393 6.463-11.978 6.463-8.166 0-14.265-6.404-14.265-14.583 0-8.673 6.15-14.584 13.559-14.584 7.46 0 11.109 6.023 12.302 9.278l.654 1.657-19.217 8.074c1.471 2.926 3.76 4.418 6.967 4.418 3.215 0 5.445-1.604 7.078-4.037zm-15.082-5.247l12.846-5.411c-.706-1.821-2.832-3.09-5.334-3.09-3.208 0-7.674 2.873-7.512 8.501zM135.041 97.625v-6.158h20.464c.2 1.073.303 2.343.303 3.717 0 4.62-1.245 10.333-5.26 14.403-3.904 4.123-8.892 6.322-15.5 6.322-12.249 0-22.548-10.117-22.548-22.538 0-12.42 10.3-22.538 22.548-22.538 6.776 0 11.603 2.697 15.23 6.21l-4.285 4.346c-2.601-2.474-6.125-4.398-10.952-4.398-8.944 0-15.94 7.31-15.94 16.38s6.996 16.38 15.94 16.38c5.802 0 9.106-2.362 11.223-4.509 1.716-1.74 2.846-4.227 3.29-7.624l-14.513.007z"/>
  </g>
</svg>