<svg xmlns="http://www.w3.org/2000/svg" viewBox="0 0 400 200">
  <defs/>
  <g fill="#808080" fill-rule="nonzero">
    <path d="M83.8477636 97.4783075c-.0860877-.8328586-.2149323-1.7532961-.4729084-2.8053883-.2579761-1.0519491-.6447969-2.1916203-1.2466933-3.3750809-.5588527-1.1835178-1.3326376-2.4108395-2.3213547-3.594343-.3868208-.4821708-.8166853-.9204948-1.2466934-1.3588332.6878407-2.7176663-.8166852-5.08465907-.8166852-5.08465907-2.5793309-.17534393-4.2128449.83282999-4.8145979 1.27115404-.0860877-.04383241-.2149323-.08766481-.30102-.13149721-.4298646-.17532962-.902773-.35065924-1.3326375-.48215645-.472765-.13151153-.9456734-.26300874-1.4185818-.39450596-.4729084-.13149721-.9887172-.21916202-1.4616256-.30684114-.0859442 0-.1718884-.0438324-.2578326-.0438324C67.0394279 77.53416278 63.8153002 76 63.8153002 76c-3.568048 2.32316037-4.2557452 5.56682986-4.2557452 5.56682986s0 .08766481-.0430439.17532962c-.2149323.0438324-.3868207.13149721-.601753.17534393-.2579761.0876648-.5588526.17532961-.8168287.30682683-.2579762.13149721-.5588527.21916202-.8168288.35065923-.5588526.21917634-1.0746614.48217076-1.5904702.78901191-.5159522.30682683-.9887172.61365366-1.504612.96432721-.0859729-.04383241-.1289594-.04383241-.1289594-.04383241-4.94361463-1.92866873-9.37137745.39449164-9.37137745.39449164-.38689245 5.39150028 1.97744873 8.76668128 2.45031409 9.38030628-.12895936.3507451-.21493228.6575576-.34390599 1.0081596-.38689246 1.2273932-.64481119 2.4546433-.81677137 3.7697585-.04298645.175301-.04298645.350602-.08597291.5698356C41.37561395 101.6863901 40 106.4203756 40 106.4203756c3.82592373 4.4709625 8.29667301 4.7777751 8.29667301 4.7777751.55883827 1.0519491 1.24665027 2.0163192 1.97744869 2.9367568.3009196.3945345.6448112.7452796.9887172 1.0958816-1.37560962 4.0765711.2149466 7.4516519.2149466 7.4516519 4.2557453.175301 7.0500084-1.8848077 7.6519049-2.3669212.4298646.1315115.8597291.263023 1.2895937.3943914 1.2895937.3507451 2.6652751.5260461 3.9979126.6137682h1.7194582c2.0204783 2.9367568 5.5454825 3.3312914 5.5454825 3.3312914 2.4932431-2.7176664 2.665275-5.3915432 2.665275-5.9613788v-.0437895-.087722-.1313684c.5158088-.3945346 1.0316176-.7890692 1.504526-1.2273932.9887172-.9205807 1.8914902-1.9725298 2.6222312-3.1122009.0860877-.087579.1289881-.2190905.2149323-.3068125 2.837307.175301 4.8576417-1.7972288 4.8576417-1.7972288-.4727649-3.0244788-2.1493228-4.4709625-2.4932431-4.777775l-.0430439-.0437895c-.0429003-.0439326-.1718884 0-.1718884 0l-.0430439-.0439326c0-.175301.0430439-.350602.0430439-.525903 0-.3068125.0429004-.6575576.0429004-.9643701v-.438324-.5698356-.2630231c0-.0875789 0-.175301-.0429004-.263023l-.0430439-.26288-.0859442-.2192335c-.0430438-.350602-.128988-.6575576-.1718884-1.0081596-.30102-1.3149722-.8168288-2.5423654-1.4616256-3.6381039-.6447969-1.0958817-1.4616256-2.1040413-2.4072989-2.9368999-.902773-.8328586-1.9774344-1.4902732-3.0522393-2.0163193-1.0746614-.4821135-2.235267-.8328586-3.3529723-.9643701-.5588526-.0875789-1.1177052-.0875789-1.6765579-.0875789H67.7272686c-.30102.0437894-.5588526.0875789-.8598726.1313684-1.1175618.2192336-2.1923667.6137681-3.13804 1.1836037-.9458168.5698356-1.7625021 1.2711827-2.4072989 2.1038982-.6447969.8328586-1.1607491 1.7095067-1.5475698 2.6300873-.3439204.9204376-.5588527 1.8848077-.6018965 2.8052453v1.0520922c0 .1315115 0 .2190905.0430438.350602.0429004.4822566.1289881.9205807.2578327 1.3589047.2579761.8766481.6449403 1.6655741 1.1177052 2.3231318.4729084.6575576 1.0748049 1.2273932 1.6765579 1.6657172.6018965.438324 1.2895937.7451366 1.934534.9204376.6447969.2192335 1.2895937.263023 1.9343905.263023H67.0394279c.0859442 0 .1289881-.0437895.2149323-.0437895s.1289881-.0439325.2149323-.0439325c.128988-.0437895.2579761-.087579.4298645-.1315116.2579762-.0875789.5158088-.2190904.7737849-.3068125.2149323-.1315115.4729085-.263023.6447969-.3945346.0430438-.0437894.1289881-.0875789.1720319-.1313684.2149323-.1754441.2578327-.4822566.0859442-.7013471-.128988-.1754441-.4298645-.2192335-.6018965-.1315115-.0429003.0437895-.0859442.0437895-.1718884.087579-.1718884.087722-.3439203.1754441-.5588526.2192335-.2149323.0437895-.3868207.1315116-.6018965.175301-.1288446 0-.2149323.0437895-.3437769.0437895H66.5665195s-.0429004 0 0 0h-.3008765c-.4729084-.0875789-.9887172-.2190905-1.4185817-.438324-.4729085-.2190905-.902773-.525903-1.3326376-.8766481-.3869642-.350602-.7737849-.8328587-1.031761-1.3149722-.2578327-.4821135-.4727649-1.0519491-.5588526-1.6657172-.0429004-.3068125-.0859443-.6136251-.0429004-.9204376v-.3507451-.1313684c0-.1754441.0429004-.3069556.0859442-.4822566.2149323-1.2711827.8597291-2.5423653 1.8484463-3.5065924.2579762-.2192336.5158088-.4822566.7737849-.6575576.3008765-.2190905.5588527-.350602.902773-.5260461.3008765-.1315115.6447968-.2628799.9887172-.350602.3439203-.087722.6878407-.1315115 1.031761-.175301h.8597292c.0429003 0 0 0 0 0h.128988c.3868207.0437895.7307411.087579 1.1177053.175301.730741.175301 1.4614821.4383241 2.1493228.8328586 1.3326375.7451366 2.4932431 1.9285972 3.1810838 3.3750809.3439204.7013471.6018965 1.4904162.7308846 2.2793422.0429003.2192336.0429003.3945346.0859442.6137682v1.1396711c0 .2190905-.0430439.4383241-.0430439.6574145-.0429003.2192336-.0429003.4383241-.0859442.6575577-.0430438.2190904-.0859442.438324-.128988.613625-.0859443.4383241-.2149323.8328586-.3868208 1.2273932-.3010199.8327155-.7308845 1.5779952-1.2466933 2.2793423-1.031761 1.4025511-2.4072989 2.5861548-3.9548687 3.2873588-.7737849.3507451-1.6335141.6137681-2.4503428.7890691-.4298646.0877221-.8597291.1315115-1.2895937.1315115H65.4488143c.0430438 0 0 0 0 0h-.0429004c-.2149323 0-.4729084 0-.6878407-.0437894-.902773-.0877221-1.8484463-.2192336-2.7081754-.4822567-.902773-.263023-1.7196018-.613625-2.5364305-1.0519491-1.6335141-.876648-3.0520958-2.1040412-4.2127014-3.5505249-.5588527-.7451366-1.0747475-1.4902731-1.46164-2.3231317-.4298789-.8328587-.7307841-1.6657173-.9887172-2.5861548-.2149466-.8766481-.3868924-1.7972288-.4298789-2.7176664V101.773969v.0877221-.4383241-.3507451c0-.438324.0429865-.9204375.1289594-1.3587616.0429864-.4822566.1289737-.9205806.2149466-1.4026941.0859729-.4821136.2149323-.9205807.343906-1.3589048.2579188-.8766481.5588383-1.7532961.9457308-2.5861548.730741-1.6655741 1.7194582-3.1120578 2.8802073-4.2517861.3008765-.3068269.601753-.5698356.902773-.83283.3008765-.2629945.6447968-.4821708.9887172-.7013328.3439203-.219162.6876972-.4383384 1.0316175-.613668.1720319-.0876648.3439204-.1753296.5588526-.2629944.0860877-.0438324.172032-.0876648.2579762-.1314972.0859442-.0438324.1718884-.0876648.2579761-.1315116.3868207-.1753296.7737849-.3068268 1.1606056-.438324.0859442-.0438324.2149323-.0438324.3008765-.0876648.0860877-.0438324.2149323-.0438324.30102-.0876648.2149323-.0438324.3868207-.0876791.601753-.1315115.0859442-.0438324.2149323-.0438324.3008765-.0876648.0860877 0 .2150758-.0438325.30102-.0438325s.2149323-.0438324.3008765-.0438324l.128988-.0438324h.1289881c.0859442 0 .2149323-.0438324.3008765-.0438324.1289881 0 .2149323-.0438324.3439203-.0438324.0859443 0 .2579762-.0438324.3439204-.0438324h1.0316175s.0430439 0 0 0h1.5906137c.7737849.0438324 1.504526.1314972 2.2354105.2629945 1.4614821.2630087 2.8371635.7451651 4.0838568 1.4026655 1.2465499.613668 2.3642551 1.4026656 3.3100719 2.1916632.0429004.0438467.1289881.0876791.1718885.1752724.0430438.0439325.128988.087722.1720319.1754441.1288446.0875789.2149323.2190904.3437769.3068125.128988.0875789.2150757.2190904.3439203.3068125.1289881.1315115.2149323.2192336.30102.350602.4298645.438324.7737849.8767912 1.1175617 1.3589047.6878407.9204376 1.2466934 1.7970857 1.6765579 2.6738769.0430439.0437894.0430439.0875789.0860877.175301.0429004.0437894.0429004.0875789.0859442.1753009.0429004.0877221.0859443.2192336.1289881.3068126.0429004.087722.0859442.2192335.1288446.3068125.0430438.087722.0860877.2192336.1289881.3068125.1720319.3945346.3008765.7890692.4298645 1.1396712.2149323.5698355.3439204 1.0958816.4729084 1.5779951.0430439.1754441.2149323.3069557.3869642.3069557.1718885 0 .3437769-.1754441.3437769-.3507451-.0429004-.7889261-.0429004-1.3587616-.1288446-2.0163193zM125.1035123 102.3330427c-.3422059 8.3427854-6.8438332 14.8365479-14.9708316 14.8365479-8.5547201 0-14.9280023-6.9667585-14.9280023-15.395607 0-8.5149116 6.8865197-15.4815859 15.3130375-15.4815859 3.8068091 0 7.5281023 1.6341739 10.6506423 4.6014133l-2.4381281 3.0533446c-2.3952988-2.1072121-5.3039779-3.5263406-8.2125142-3.5263406-6.1594213 0-11.2067091 5.0744936-11.2067091 11.3531686 0 6.3645977 4.7905976 11.3100669 10.8645032 11.3100669 5.4750094 0 9.7523695-4.0422981 10.607813-9.2028548h-12.4043585v-3.6553651h16.7672343l-.0426865 2.1072121zM140.295203 99.7911228h-2.4060336c-2.6288059 0-4.7674525 2.161101-4.7674525 4.8173899v12.5610779h-4.232828V95.6491228h3.4752822v1.800844c1.158477-1.170578 2.9852717-1.800844 5.0348391-1.800844h4.5892938l-1.693101 4.142zM161.637427 117.7584038h-3.549354v-2.624903c-2.760478 2.6686062-7.098415 3.9809863-11.480227 2.0561907-3.242666-1.4436324-5.696457-4.3747432-6.309832-7.8744235-1.2268956-6.7371416 3.943645-12.7304727 10.603894-12.7304727 2.804353 0 5.30202 1.1374247 7.142436 2.974814V96.934849h3.593083v20.8235548zm-4.250333-8.968145c1.007813-4.2434909-2.234708-8.0932249-6.441311-8.0932249-3.636958 0-6.572791 2.974814-6.572791 6.5620434 0 4.0685354 3.593083 7.2183048 7.755811 6.474637 2.541542-.3937568 4.64477-2.4061016 5.258291-4.9434555zM169.746589 95.2955714v1.1306706h6.986385v3.6529578h-6.986385v17.0903908h-4.366472V95.4260443c0-4.5661263 3.447247-7.2623016 7.813719-7.2623016h5.285696l-1.746558 3.9138752h-3.539138c-1.930496-.0435856-3.447247 1.4350602-3.447247 3.2179535zM198.128655 117.7584038h-3.549404v-2.624903c-2.761134 2.6686062-7.098807 3.9809863-11.480353 2.0561907-3.242432-1.4436324-5.696157-4.3747432-6.309661-7.8744235-1.226862-6.7371416 3.943538-12.7304727 10.603459-12.7304727 2.805009 0 5.301438 1.1374247 7.142681 2.974814V96.934849h3.593278v20.8235548zm-4.251387-8.968145c1.009101-4.2434909-2.234647-8.0932249-6.440698-8.0932249-3.637151 0-6.572319 2.974814-6.572319 6.5620434 0 4.0685354 3.593277 7.2183048 7.755454 6.474637 2.541765-.3937568 4.64479-2.4061016 5.257563-4.9434555zM220.584795 104.656606v12.5129846h-4.170855V104.656606c0-2.6179356-2.150621-4.7476882-4.695326-4.7476882-2.63407 0-4.740741 2.1297526-4.740741 4.7476882v12.5129846h-4.170855V96.0041781h3.467655v1.8191698c1.492835-1.3754592 3.511606-2.1742251 5.618276-2.1742251 4.828641.0444725 8.691846 4.0378673 8.691846 9.0074832zM244.912281 117.7584038h-3.549491v-2.624903c-2.761203 2.6686062-7.098982 3.9809863-11.480636 2.0561907-3.242366-1.4436324-5.696443-4.3747432-6.309231-7.8744235-1.227039-6.7371416 3.942904-12.7304727 10.603135-12.7304727 2.805078 0 5.30303 1.1374247 7.142857 2.974814V96.934849h3.593366v20.8235548zm-4.250029-8.968145c1.007663-4.2434909-2.234702-8.0932249-6.442319-8.0932249-3.635778 0-6.572481 2.974814-6.572481 6.5620434 0 4.0685354 3.593366 7.2183048 7.755645 6.474637 2.541827-.3937568 4.644904-2.4061016 5.259155-4.9434555zM257.076023 102.264498c0-8.7320295 6.849093-15.9721003 15.431438-15.9721003 4.812016 0 9.016381 2.1501091 11.703065 5.528762l-3.337739 2.7205311c-1.95027-2.4132519-4.94078-3.9929821-8.278519-3.9929821-6.198038 0-10.923247 5.3533193-10.923247 11.7157893 0 6.3186343 4.725209 11.5842107 10.923247 11.5842107 3.337739 0 6.371653-1.5796586 8.278519-3.9930537l3.337739 2.720531c-2.686684 3.3787819-6.891049 5.5290772-11.703065 5.5290772-8.582345.0436352-15.431438-7.1087357-15.431438-15.8407652zM286.081871 85.35672515h3.74269v31.81286545h-3.74269zM292.631579 107.3235576c0-6.5123044 4.915551-10.7387623 10.737923-10.7387623 5.822373 0 10.782545 4.2696827 10.782545 10.7387623 0 6.4690797-4.960172 10.7817056-10.782545 10.7817056-5.822372 0-10.737923-4.2695419-10.737923-10.7817056zm17.29295 0c0-3.9676721-2.975239-6.7278653-6.511845-6.7278653-3.536605 0-6.468663 2.7601932-6.468663 6.7278653 0 4.0107562 2.932058 6.7709494 6.468663 6.7709494 3.536606 0 6.511845-2.7601932 6.511845-6.7709494zM335.672515 96.5847953v20.9471723h-4.415166v-3.1751534c-1.192213 2.5578024-4.592009 3.748449-6.799592 3.748449-5.299378 0-8.478121-3.5278842-8.43391-9.5254601V96.5847953h4.415166v11.8626977c0 3.4397735 2.074951 5.5123911 4.768851 5.5123911 2.73811 0 6.049485-1.6316321 6.049485-5.9533766V96.5847953h4.415166zM360 85.35672515v32.22170565h-4.304094v-3.1168528c-1.377712 2.3706024-4.304093 3.6436852-7.059518 3.6436852-5.55251 0-10.156856-4.3899356-10.156856-10.9747673 0-6.6725415 4.604346-10.930769 10.113758-10.930769 2.88472 0 5.724904 1.2730828 7.102616 3.599687V85.35672515H360zm-4.347192 21.68606095c0-4.2143726-3.357365-6.804393-6.542337-6.804393-3.486661 0-6.369944 2.8534366-6.369944 6.804393 0 3.9069581 2.840185 6.9359577 6.369944 6.9359577 3.48666 0 6.542337-2.7217285 6.542337-6.9359577z"/>
  </g>
</svg>