<svg width="180" height="49" xmlns="http://www.w3.org/2000/svg">
  <path d="M179.071 9.1c-.636-.714-1.488-1.076-2.64-1.076-1.152 0-2.03.382-2.642 1.169-.612.76-.929 1.903-.929 3.4v10.858c-1.416-1.526-2.887-2.62-4.38-3.357a10.963 10.963 0 00-3.254-.953 16.6 16.6 0 00-2.25-.144c-3.74 0-6.772 1.286-9.098 3.859-2.299 2.573-3.45 6.144-3.45 10.733 0 2.17.294 4.193.88 6.048.59 1.853 1.416 3.475 2.544 4.853a11.94 11.94 0 004.008 3.192 11.443 11.443 0 005.014 1.116c.828 0 1.612-.07 2.344-.212a9.414 9.414 0 001.421-.336 12.206 12.206 0 003.204-1.617 18.72 18.72 0 003.007-2.76v.713c0 1.356.344 2.38 1.004 3.12a3.44 3.44 0 002.568 1.092c1.05 0 1.905-.358 2.568-1.044.655-.716 1-1.762 1-3.164V12.22c.01-1.362-.307-2.41-.919-3.12zm-7.605 29.944c-.66 1.38-1.544 2.405-2.616 3.072-1.104.67-2.304.998-3.624.998h-.024a6.697 6.697 0 01-3.622-1.044c-1.102-.715-1.98-1.761-2.614-3.141-.633-1.404-.95-3.096-.95-5.095 0-1.882.29-3.545.905-4.95.588-1.43 1.442-2.524 2.52-3.282 1.104-.788 2.328-1.145 3.715-1.145h.072c1.298 0 2.496.379 3.598 1.116 1.101.739 1.98 1.814 2.64 3.216.66 1.404.979 3.096.979 5.045 0 2.092-.32 3.832-.98 5.21zm-23.75.312c-.466-.403-1.102-.62-1.885-.62-.71 0-1.248.169-1.639.478-.955.855-1.711 1.546-2.304 2.045-.58.478-1.248.953-1.951 1.402a7.848 7.848 0 01-2.15.957 9.115 9.115 0 01-2.473.308c-.194 0-.39 0-.564-.024a6.79 6.79 0 01-3.127-.953c-1.128-.641-2.006-1.589-2.693-2.83-.66-1.286-1.003-2.76-1.024-4.428h14.748c1.98 0 3.518-.288 4.596-.809 1.104-.573 1.639-1.764 1.639-3.595 0-1.999-.538-3.95-1.589-5.88-1.051-1.908-2.616-3.477-4.742-4.687-2.108-1.214-4.625-1.81-7.584-1.81h-.219c-2.177.024-4.183.384-5.966 1.05a13.296 13.296 0 00-4.726 3.045 13.625 13.625 0 00-2.88 4.785 17.976 17.976 0 00-1.008 6.044c0 4.62 1.349 8.236 4.037 10.924 2.544 2.55 6.065 3.884 10.538 4.025.248.024.512.024.785.024 2.103 0 3.984-.264 5.621-.809 1.64-.547 2.986-1.216 4.066-2.023 1.07-.833 1.879-1.69 2.416-2.568.538-.88.81-1.668.81-2.311 0-.744-.24-1.337-.733-1.74zm-17.607-13.452c1.2-1.262 2.738-1.882 4.622-1.882h.029c1.954 0 3.545.62 4.742 1.856 1.2 1.24 1.908 3.12 2.081 5.64h-13.675c.242-2.472.98-4.354 2.2-5.614zM115.6 38.734c-.732 0-1.27.168-1.661.476a76.995 76.995 0 01-2.3 2.047c-.587.475-1.223.953-1.934 1.401-.705.43-1.418.764-2.174.956a8.98 8.98 0 01-2.472.307c-.192 0-.389 0-.562-.024a6.818 6.818 0 01-3.13-.95 7.037 7.037 0 01-2.663-2.833c-.687-1.284-1.03-2.76-1.056-4.425h14.772c1.956 0 3.494-.288 4.596-.811 1.075-.572 1.617-1.762 1.617-3.593 0-2.002-.516-3.953-1.567-5.88-1.051-1.908-2.64-3.48-4.742-4.69-2.107-1.212-4.649-1.807-7.58-1.807h-.247c-2.174.024-4.154.384-5.966 1.049A12.92 12.92 0 0093.835 23a13.296 13.296 0 00-2.909 4.786 17.882 17.882 0 00-1.008 6.043c0 4.62 1.373 8.237 4.061 10.925 2.544 2.55 6.041 3.883 10.517 4.024.269.024.509.024.782.024 2.127 0 3.987-.261 5.624-.806 1.636-.55 2.985-1.217 4.058-2.023 1.104-.835 1.884-1.69 2.424-2.568.535-.881.809-1.668.809-2.314 0-.737-.247-1.332-.71-1.735-.485-.408-1.126-.624-1.882-.624v.002zm-15.749-12.83c1.198-1.262 2.74-1.882 4.625-1.882h.026c1.954 0 3.545.62 4.743 1.856 1.221 1.24 1.908 3.12 2.104 5.64H97.654c.268-2.472 1.005-4.354 2.198-5.614zm-84.14 18.022V26.403c.51.048 1.002.07 1.515.07a13.234 13.234 0 006.701-1.786v19.234c0 1.644-.391 2.856-1.152 3.667-.756.806-1.76 1.21-2.98 1.21-1.2 0-2.154-.404-2.936-1.236-.756-.807-1.147-2.021-1.147-3.636zm71.04-34.824c-.635-.716-1.514-1.078-2.615-1.078-1.152 0-2.03.382-2.645 1.169-.634.76-.929 1.903-.929 3.4v10.858c-1.416-1.526-2.88-2.62-4.377-3.357a11.146 11.146 0 00-3.25-.953c-.746-.1-1.498-.147-2.251-.144-3.742 0-6.8 1.286-9.096 3.859-2.302 2.573-3.451 6.144-3.451 10.733 0 2.17.295 4.193.854 6.048a14.472 14.472 0 002.573 4.853 11.904 11.904 0 004.008 3.192 11.443 11.443 0 005.013 1.116c.807 0 1.59-.07 2.345-.212a9.345 9.345 0 001.421-.336 12.206 12.206 0 003.204-1.617c1-.715 1.985-1.644 3.005-2.76v.713c0 1.356.345 2.38 1.005 3.12.66.712 1.544 1.092 2.568 1.092 1.001 0 1.884-.358 2.544-1.044.66-.716.975-1.762.975-3.164V12.22c.002-1.362-.288-2.41-.898-3.12l-.002.002zM79.17 39.044c-.658 1.38-1.541 2.405-2.64 3.072-1.075.67-2.302.998-3.593.998h-.024c-1.32 0-2.52-.357-3.62-1.044-1.122-.715-1.98-1.761-2.615-3.141-.634-1.404-.953-3.096-.953-5.095 0-1.882.295-3.545.878-4.95.61-1.43 1.443-2.524 2.544-3.282 1.076-.788 2.324-1.145 3.694-1.145h.096c1.296 0 2.494.379 3.571 1.116 1.126.739 2.004 1.814 2.664 3.216.634 1.404.98 3.096.98 5.045 0 2.092-.346 3.832-.98 5.21h-.002zM35.988 23v.907c1.344-1.716 2.786-2.952 4.354-3.763 1.588-.782 3.398-1.19 5.452-1.19 1.983 0 3.768.432 5.328 1.262a8.04 8.04 0 013.497 3.571c.516.903.835 1.882.98 2.93.146 1.023.218 2.355.218 3.975v13.644c0 1.474-.367 2.592-1.051 3.329-.682.76-1.59 1.14-2.688 1.14-1.128 0-2.03-.38-2.741-1.162-.71-.765-1.054-1.879-1.054-3.307V32.113c0-2.427-.343-4.282-1.027-5.568-.684-1.282-2.08-1.927-4.128-1.927-1.349 0-2.568.403-3.672 1.166a6.782 6.782 0 00-2.443 3.24c-.367 1.092-.538 3.115-.538 6.144v9.163c0 1.498-.365 2.592-1.073 3.358-.71.737-1.612 1.116-2.74 1.116-1.102 0-1.985-.38-2.69-1.162-.711-.765-1.052-1.879-1.052-3.307V23.12c0-1.402.32-2.448.955-3.12.61-.686 1.464-1.046 2.568-1.046.66 0 1.248.144 1.783.453.538.307.975.761 1.296 1.378.317.619.466 1.36.466 2.215zM15.758 1.935C20.846.15 26.642.245 30.994 3.908c.808.737 1.735 1.668 2.102 2.76.442 1.385-1.538-.144-1.81-.334-1.42-.904-2.836-1.665-4.425-2.188-8.559-2.568-16.656 2.073-21.691 9.288-2.103 3.182-3.473 6.542-4.594 10.228-.125.404-.22.93-.442 1.284-.223.408-.096-1.092-.096-1.142.168-1.524.488-3 .884-4.474 2.32-7.855 7.454-14.4 14.839-17.4l-.003.005zm9.855 14.115a6.04 6.04 0 11-12.077-.34 6.04 6.04 0 0112.077.34z" fill="#003A9B" fill-rule="evenodd"/>
</svg>