<svg xmlns="http://www.w3.org/2000/svg" xmlns:xlink="http://www.w3.org/1999/xlink" viewBox="0 0 400 200">
  <defs>
    <path id="a" d="M.00005017.1208299H43.3994328v44.1173764H.00005017z"/>
    <path id="c" d="M.2200909.14631043h.11004546v.14631044H.22009091z"/>
    <path id="e" d="M.2200909.14631043h.11004546v.14631044H.22009091z"/>
    <path id="g" d="M.06719375.01388774h4.77480621v4.77465214H.06719376z"/>
  </defs>
  <g fill="#808080" fill-rule="evenodd">
    <g transform="translate(84.70898 77.099261)">
      <mask id="b" fill="#fff">
        <use xlink:href="#a"/>
      </mask>
      <path d="M38.7451334 27.1928258l-8.3079915 1.9099489c-.5251369.1430591-1.0502738-.1910389-1.193553-.7161758l-3.5333394-15.3744503c-.1430591-.5251369.1910389-1.0502738.7163959-1.193553l8.3077714-1.9099489c.5251369-.14305909 1.0504939.1910389 1.193553.7163959l3.5333394 15.3742302c.1432792.5728967-.1910389 1.0980336-.7161758 1.193553zm-1.0982536 2.053008l-10.0744412 9.3584855c-.3820778.3818577-.5728966.2387986-.4296174-.2865584l2.1007677-6.7801205c.1432792-.5251369.7161758-1.0502738 1.2413127-1.1457932l6.9231796-1.5756308c.525357-.1908189.6208764.0477597.2387986.4296174zm-13.3687619 10.981876L9.19022596 35.5485771c-.5251369-.1434993-.81169526-.7163959-.66841608-1.2415328l2.53038512-8.1169527c.1432792-.5249168.7163959-.8114751 1.2415328-.668416l15.087892 4.6313729c.5251369.1434993.8114752.7161758.6684161 1.2415328l-2.5306053 8.1169527c-.1910389.5249168-.7161758.8114752-1.2413127.7161758zm-16.90232138-7.878154L4.32005437 18.9328141c-.14327918-.525357.09551945-.6208765.42983754-.2387987l4.82219178 5.2042696c.38207781.3820778.52513691 1.1460134.38207781 1.6711503l-2.10076771 6.7801205c-.14327918.5249168-.38207781.5249168-.47759727 0zM4.558853 15.3039552L16.1134055 4.56109793c.3818578-.38185772 1.0027342-.334098 1.3845919.04775973l5.7771663 6.25476344c.3820778.3820779.334318 1.0027342-.0475397 1.384812L11.6730715 22.9910703c-.3820778.3822979-1.0027342.3345382-1.3845919-.0477597l-5.77738632-6.2545434c-.38207782-.4298376-.33431809-1.0504939.04775972-1.384812zM28.0020561 28.19556c.1432791.5251369-.1908188.8116953-.7159558.6684161l-14.2284369-4.3925743c-.525357-.1432792-.6206564-.5731168-.2387987-.9549745l10.8861365-10.1222009c.3818577-.3820778.8116953-.2387986.9549744.2863383L28.0020561 28.19556zM19.789804 4.56109793l13.1779431 4.05847633c.525357.14327918.525357.38207781 0 .52535699L26.0445675 10.720342c-.5251369.1432791-1.2413127-.0952994-1.6233905-.4773772l-4.8224119-5.2042696c-.4296174-.42983754-.334098-.62065636.1910389-.47759727zM43.3287467 26.7154486L39.1269911 8.42853535c-.2387986-1.00273417-1.1457932-2.00524825-2.1485274-2.29158652L17.7845558.21628333c-.2387986-.09551945-.525357-.09551945-.8116953-.09551945-.8116952 0-1.6711502.33431809-2.2440469.81169527L.97775385 13.7285445c-.76393553.6684161-1.14579326 2.0052482-.90699462 2.9602227L4.558853 36.2647529c.23857855 1.0025141 1.14579327 2.0052483 2.14852744 2.2918066l17.95259516 5.5863474c.2385786.0952994.5251369.0952994.8116953.0952994.8116953 0 1.6711503-.334098 2.2440469-.8114752l14.7058141-13.6555403c.7639356-.7639355 1.1460134-2.053008.9072148-3.0557422z" mask="url(#b)"/>
    </g>
    <path d="M244.729463 109.2576678c-1.193773 0-1.814429-.3343181-1.814429-1.5754107 0-.3343181.04776-.6684161.143279-1.1460133l1.384592-7.9736735c.763936-4.3448146 2.244267-5.5863474 5.825146-5.5863474 1.575411 0 3.103502.2387986 4.679133.6206563l-2.100988 11.7935713c-2.530385 2.2438268-5.634107 3.8672173-8.116733 3.8672173zm7.448317 1.0027342c-.04776.4775973.143279.5728966.334098.5728966h1.146013c.429838 0 .525357-.3818577.525357-.5728966l4.679133-26.59468477c.095299-.47737718-.238799-.57289663-.477597-.5251369l-1.241313.1910389c-.334318.04753964-.525137.334098-.525137.52513691l-1.337052 7.73487486c-1.193553-.3818577-3.43782-.6206564-4.726673-.6206564-4.965911 0-7.353017 1.9097288-8.260231 7.209738l-1.480112 8.3555312c-.095519.5251369-.143059 1.002514-.143059 1.4323516 0 2.387326 1.336832 3.2943207 3.819458 3.2943207 2.817163 0 5.729626-1.3368322 7.973673-3.246561l-.286558 2.2440469zM264.591809 109.2576678c-1.193553 0-1.814209-.3343181-1.814209-1.5754107 0-.3343181.04776-.6684161.143059-1.1460133l1.384592-7.9736735c.764156-4.2970549 2.148748-5.5863474 5.825146-5.5863474 1.623391 0 3.48558.3343181 4.583613.6206563l-2.100988 11.7935713c-2.530385 2.2438268-5.586127 3.8672173-8.021213 3.8672173zm7.352797 1.0027342c-.047759.4775973.1435.5728966.382298.5728966h1.145794c.429837 0 .525136-.3818577.525136-.5728966l3.198802-18.0003549c-2.291807-.859455-4.917491-1.2890725-6.731921-1.2890725-5.252249 0-7.353017 2.1007677-8.260232 7.209738l-1.480111 8.3555312c-.09552.5251369-.143279 1.002514-.143279 1.4323516 0 2.387326 1.337052 3.2943207 3.819898 3.2943207 2.816943 0 5.586347-1.3368322 7.830174-3.246561l-.286559 2.2440469zM296.581737 109.2576678c-1.193553 0-1.81421-.3343181-1.81421-1.5754107 0-.3343181.04776-.6684161.143059-1.1460133l1.384592-7.9736735c.764156-4.2970549 2.148748-5.5863474 5.825146-5.5863474 1.623391 0 3.48558.3343181 4.583613.6206563l-2.100767 11.7935713c-2.530605 2.2438268-5.586348 3.8672173-8.021433 3.8672173zm7.305257 1.0027342c-.04754.4775973.143279.5728966.334318.5728966h1.145793c.429838 0 .525357-.3818577.525357-.5728966l3.198802-18.0003549c-2.291587-.859455-4.917712-1.2890725-6.732141-1.2890725-5.252029 0-7.352797 2.1007677-8.260012 7.209738l-1.480111 8.3555312c-.09552.5251369-.143279 1.002514-.143279 1.4323516 0 2.387326 1.336832 3.2943207 3.819677 3.2943207 2.816944 0 5.586348-1.3368322 7.830395-3.246561l-.238799 2.2440469z"/>
    <g transform="translate(84.488889 121.117442)">
      <mask id="d" fill="#fff">
        <use xlink:href="#c"/>
      </mask>
    </g>
    <path d="M291.759501 92.9763109l.286558-1.2890724c.095299-.3343181-.095739-.3343181-.286558-.3343181h-5.490828l.763715-4.48831389c.09574-.47715709-.238578-.57289663-.477157-.5251369l-1.241533.1910389c-.334318.04775973-.525137.334098-.525137.52535699l-.764155 4.2970549h-3.38984c-.0953 0-.381858.0477597-.429618.3343181l-.191039 1.2413127c0 .0955194 0 .334098.334098.334098h3.342301l-2.578365 14.6105148c-.04776.2863382-.09552.5251369-.09552.7637154 0 1.7668898 1.241533 2.578365 3.199242 2.578365 1.527651 0 4.249295-.4296175 5.633887-1.0980336.429617-.2387986.382078-.5253569.286558-.7161758l-.286558-.7641556c-.04776-.1908188-.286338-.1430591-.429618-.0952994-1.337052.5251369-2.100987.8116953-4.822411.8116953-.907215 0-1.336833-.1910389-1.336833-.9549744 0-.1910389.04776-.4298376.0953-.7161758l2.530605-14.3714961h5.443068c.286559-.0479798.382078-.1432792.429838-.3343181M239.14316 91.3529204h-5.586347c-.238799 0-.525357.1910389-.668417.3818577l-3.962956 5.7773863-2.339567-6.0159648c-.143279-.3343181-.429837-.4298376-.716396-.3820779l-4.869951.7161759 4.201535 9.2627459-7.734655 9.7881029h5.25203c.334318 0 .859235-.1910389 1.098033-.4773772l3.628859-4.3927944 2.053008 4.3927944c.09552.2387986.429838.4773772.763936.4773772h5.10875l-4.106016-9.0239473 7.878154-10.5042787zM215.079102 110.4991126l3.342301-19.0508488c.04754-.3818578-.238799-.3818578-.477597-.334098l-4.679133.6206563c-.525137.0955195-.668416.4298376-.668416.6206564l-2.005468 11.5547726c-1.432132.7159557-4.010497 1.8619691-5.060991 1.8619691-.572896 0-.763935-.1910389-.763935-.6206564 0-.1432792.047539-.3818577.095519-.6206563l2.291807-13.1301834c.047759-.3820778-.238799-.3820778-.429838-.3343181l-4.679133.6684161c-.525136.0955195-.668416.4298376-.668416.6206564l-2.244047 12.700786c-.143059.8114751-.191038 1.4321315-.191038 2.2438268 0 2.4350858 1.002734 3.9629568 3.581099 3.9629568 2.244047 0 4.631373-.7639355 7.687115-2.1962871l.04776 1.4323516c0 .0955194.047759.3343181.238798.3343181h4.297055c.190819 0 .286558-.1910389.286558-.3343181M168.7175031 90.9709966c-2.2440469 0-4.631373.7639356-7.6871151 2.1962872l.0477597-1.71891c0-.4296174-.3343181-.3818577-.525357-.3343181l-3.6763985.6208765c-.6206564.0955194-.8116953.4773771-.859455.6684161l-3.0557422 17.5705173c-.1432791.8116953-.0955194.859455.5728967.859455h4.2017555c.4773772 0 .7161758 0 .859455-.859455l2.053008-11.6978317c1.527871-.8116952 4.0107166-1.8621891 5.0612105-1.8621891.5728966 0 .7639355.1434992.7639355.5731167 0 .1430591-.0477597.3818577-.0955195.6206563l-2.1487475 12.3662478c-.1430591.8116953-.0952994.859455.5731167.859455h4.2015354c.4775973 0 .716396 0 .859455-.859455l2.2440469-12.7958652c.1432792-1.0027342.1910389-1.5756308.1910389-2.244267 0-2.4348657-.9547543-3.9627368-3.580879-3.9627368M152.5314675 82.47212022l-4.6791326.66841609c-.5251369.04775973-.6206564.42961745-.6684161.62065636l-.859455 4.87017163c-.0955195.5728966-.0477597.5728966.4775972.5251369l4.631373-.6206564c.4773772-.0477597.5728966-.0955194.6684161-.7161758l.9069946-5.06099042c.0477597-.28655836-.0475396-.28655836-.4773772-.28655836"/>
    <g transform="translate(84.488889 121.117442)">
      <mask id="f" fill="#fff">
        <use xlink:href="#e"/>
      </mask>
    </g>
    <path d="M148.1866089 109.9738216l3.2945408-18.5254918c.0477597-.3818577-.2387986-.3818577-.4775973-.334098l-4.6791326.6206563c-.5251369.0955195-.6684161.4298376-.6684161.6206564l-3.1512616 17.7615563c-.0955195.6684161 0 .7639355.6206563.7639355h4.2017555c.4296175-.0477597.6684161-.0477597.859455-.9072147M194.452667 109.9738216l4.726892-26.92878274c.04776-.38185772-.143279-.38185772-.382078-.33431808l-5.395088.90721472c-2.435086-.66841609-5.20449-.95475436-6.78012-.95475436-5.0132312 0-6.6843814 1.71868989-7.4960767 6.20700376l-.4298375 2.5781449h-2.1962872c-.5728966 0-.6206563.2865583-.6684161.525357l-.6684161 3.7241582c-.0477597.1432792.0477598.334098.2865584.334098h2.4348657l-2.6259046 14.8968531c-.2865584 1.7666697-.5731167 2.8171636-2.2440469 4.5836132-.3343181.3343181-.2387986.4298375 0 .6206564l2.9602227 2.7694038c.2865584.2863383.4296175.2385786.7639356-.0955194 2.721424-2.7691838 3.580879-4.631373 4.0584763-7.2097379l2.721424-15.5175095h4.3450344c.238579 0 .286339 0 .381858-.2863382l1.002734-3.9151972c.09552-.2865583-.191039-.3820778-.382078-.3820778h-4.5358531l.5253571-2.8169435c.190819-1.0027342.620656-1.3370523 1.861969-1.3370523 1.67115 0 4.392574.3343181 5.920445.7163959l-3.867217 22.0586112c-.143279.8116953-.095739.859455.572897.859455h4.201535c.525357-.1432792.763936-.1432792.907215-1.0027342"/>
    <g transform="translate(310.30216 82.601534)">
      <mask id="h" fill="#fff">
        <use xlink:href="#g"/>
      </mask>
      <path d="M2.45473991.44350519c-1.09825362 0-1.95770861.85945499-1.95770861 1.95770862 0 1.09803353.85945499 1.95748852 1.95770861 1.95748852 1.09803354 0 1.95770862-.85945499 1.95770862-1.95748852 0-1.09825363-.90743481-1.95770862-1.95770862-1.95770862zm0 4.34503469c-1.33683217 0-2.38754616-1.0504939-2.38754616-2.38732607 0-1.33705227 1.05071399-2.38732607 2.38754616-2.38732607 1.33683217 0 2.38732607 1.0502738 2.38732607 2.38732607 0 1.33683217-1.09825362 2.38732607-2.38732607 2.38732607zm.62065636-2.96022271v-.09573954c0-.19081882-.09551945-.23857854-.33409799-.23857854h-.57311673l-.14327918.95475435H2.597799c.33431809 0 .38207782-.09529936.43005764-.334098l.04753963-.28633827zm-.62065636 1.05027381h-.52535699l-.14305909.95497445h-.525357l.47759727-2.81694352H2.789058c.57289663 0 .85945499.23857854.85945499.62065636v.1910389l-.04797981.38185773c-.04775973.38185772-.19081882.5251369-.52513691.66841608l.52513691 1.00273418h-.57267654l-.57311673-1.00273418z" mask="url(#h)"/>
    </g>
  </g>
</svg>