<svg width="400" height="200" xmlns="http://www.w3.org/2000/svg" xmlns:xlink="http://www.w3.org/1999/xlink">
  <defs>
    <path id="a" d="M0 .084h123.879v81.774H0z"/>
    <path id="c" d="M0 81.858h123.97V0H0z"/>
  </defs>
  <g transform="translate(137.5 59.07)" fill="none" fill-rule="evenodd">
    <mask id="b" fill="#fff">
      <use xlink:href="#a"/>
    </mask>
    <path d="M123.33 23.312C117.524-5.065 62.482-6.863 27 14.756v2.388c35.44-18.239 85.71-18.128 90.287 8.012 1.536 8.647-3.33 17.656-12.023 22.843v6.782c10.457-3.84 21.184-16.258 18.065-31.47m-64.486 49.67c-24.479 2.26-49.993-1.3-53.566-20.45-1.749-9.44 2.554-19.45 8.253-25.672v-3.323C3.264 32.55-2.3 43.954.905 57.425c4.094 17.28 25.985 27.064 59.41 23.815 13.229-1.283 30.531-5.542 42.567-12.16v-9.395C91.958 66.201 73.894 71.583 58.844 72.98" fill="#101010" mask="url(#b)"/>
    <path d="M100.785 19.163h-6.388v28.535c0 3.344 1.612 6.252 6.388 6.717V19.163zM24.368 29.573h-6.384l-.004 18.61c0 3.35 1.614 6.25 6.388 6.705V29.573z" fill="#101010"/>
    <mask id="d" fill="#fff">
      <use xlink:href="#c"/>
    </mask>
    <path fill="#101010" mask="url(#d)" d="M17.98 25.788h6.388v-5.915H17.98zM62.968 54.415c-5.179 0-7.37-3.581-7.37-7.11V22.713h6.342v6.8h4.777v5.096H61.94v12.308c0 1.438.687 2.24 2.194 2.24h2.583v5.259h-3.749M79.637 34.609c-2.178 0-3.85 1.123-4.56 2.64-.412.91-.564 1.62-.61 2.74h9.802c-.124-2.74-1.364-5.38-4.632-5.38m-5.17 9.726c0 3.262 2.035 5.66 5.636 5.66 2.822 0 4.213-.785 5.843-2.398l3.93 3.752c-2.52 2.495-5.16 4.012-9.82 4.012-6.087 0-11.92-3.33-11.92-13.036 0-8.298 5.097-12.988 11.78-12.988 6.792 0 10.696 5.49 10.696 12.699v2.3H74.466M42.018 34.698c1.882 0 2.664.92 2.664 2.413v17.54h6.42V37.074c0-3.561-1.92-7.494-7.557-7.494l-13.262-.007v25.078h6.423V34.698h5.312zM108.255 21.008c0-.3-.187-.395-.585-.395H107.274v.851c.062 0 .343.014.396.014.398 0 .585-.134.585-.418v-.052zm.601 2.128h-.464a.105.105 0 01-.095-.062l-.627-1.067a.185.185 0 00-.089-.049h-.287v1.064c0 .052-.036.114-.105.114h-.418c-.062 0-.105-.062-.105-.114v-2.683c0-.157.053-.222.19-.242.15-.016.542-.036.761-.036.775 0 1.23.228 1.23.947v.052c0 .444-.22.686-.56.793l.654 1.113a.2.2 0 01.017.079c0 .042-.023.091-.102.091zm-1.101-3.558c-1.134 0-2.046.937-2.046 2.07 0 1.139.912 2.06 2.046 2.06s2.075-.921 2.075-2.06c0-1.133-.941-2.07-2.075-2.07zm0 4.554a2.472 2.472 0 01-2.475-2.485 2.476 2.476 0 012.475-2.484 2.497 2.497 0 012.494 2.484 2.493 2.493 0 01-2.494 2.485z"/>
  </g>
</svg>