<svg xmlns="http://www.w3.org/2000/svg" xmlns:xlink="http://www.w3.org/1999/xlink" viewBox="0 0 400 200">
  <defs>
    <path id="a" d="M0 44.5820607h309.260464V0H0z"/>
  </defs>
  <g fill="#808080" fill-rule="evenodd" transform="translate(45 77.578616)">
    <path d="M163.597579 30.4329925c-.707588.8387143-1.543519 1.5534153-2.48367 2.1243101-.892217.5415151-1.924838.8161383-3.06972.8161383-.934894 0-1.816286-.1917414-2.619436-.5702763-.813046-.3831737-1.535169-.9206684-2.14534-1.5973302-.616047-.6828472-1.110554-1.499604-1.469605-2.428004-.358433-.9271628-.540278-1.9338056-.540278-2.9924042v-.0754596c0-1.088906.179989-2.6655159.523887-3.5713398.348227-.9160295.825416-1.7207252 1.418887-2.3912019.586976-.6630544 1.290853-1.1931269 2.09091-1.5750635.79016-.3772978 1.66444-.5684208 2.597788-.5684208 1.206734 0 2.237808.2758604 3.064771.8201588.899329.5922338 1.731858 1.3007495 2.474393 2.1060637l.539659.5857394 2.24585-2.4329521-.447809-.4976001c-.446882-.4963631-.931184-.9732427-1.439299-1.4173407-.52667-.4595611-1.117976-.870259-1.757836-1.2209603-.644499-.3528662-1.355179-.6346025-2.11163-.8371681-.761709-.2038026-1.614031-.3074049-2.532225-.3074049-1.415176 0-2.754892.2962715-3.981729.8810831-1.214775.5792448-2.284816 1.3783738-3.180434 2.3751203-.889124.9899428-1.596403 2.1410102-2.102971 3.4216578-.530073 1.3387885-.766966 3.3276426-.766966 4.7050887v.0751503c0 1.4423908.257923 2.8257129.766656 4.1113086.507806 1.2837402 1.217868 2.4249113 2.110085 3.3913503.893762.9682945 1.961639 1.7522697 3.17394 2.3302775 1.226836.5845023 2.566243.8810831 3.981419.8810831 1.797112 0 3.362898-.3967812 4.654061-1.1798287 1.242608-.7533585 2.368316-1.724127 3.345889-2.8850908l.450592-.5350206-2.293166-2.1304954-.496673.588832zM117.638258 27.4038171c0 .8949998-.146899 1.7241271-.435439 2.4648059-.286375.7344936-.687795 1.3712609-1.192817 1.8926741-.504713.5214131-1.108699.9352036-1.794948 1.2296196-.684084.2934882-1.428165.4422424-2.211522.4422424-1.661347 0-2.890966-.4932704-3.759988-1.5085725-.886031-1.0344763-1.335078-2.4555281-1.335078-4.2235702V15.1178267h-3.232081V28.035327c0 1.2144658.176279 2.3503795.524815 3.376815.35534 1.0468467.891598 1.9656595 1.59331 2.7313884.704186.7688215 1.571353 1.3734257 2.577377 1.7974218.998293.4205943 2.135134.6336747 3.379598.6336747 1.830513 0 3.356095-.4348202 4.534377-1.2927087.492652-.3584329.944482-.7545955 1.352396-1.1866324v2.0510154h3.23239V15.1178267h-3.23239v12.2859904zM63.0396221 8.0748835h-3.4590783V36.130065h19.1896118v-3.3663001H63.0396221zM186.174181 17.1029387c-.704186-.7688215-1.571353-1.3734258-2.577068-1.7974218-.998292-.420285-2.135134-.6333655-3.379907-.6333655-1.830204 0-3.355476.4348202-4.534068 1.2927088-.492961.3584328-.944172.7545955-1.352396 1.1866324V8.65456131h-3.232081V36.1289517h3.232081V23.8429612c0-.8949998.146899-1.7241271.435439-2.4648059.286375-.7344936.688104-1.3712609 1.193436-1.8929833.505332-.5223409 1.104369-.9367499 1.780722-1.2308566.670167-.2925604 1.418887-.4406962 2.225129-.4406962 1.661347 0 2.890967.4932705 3.759989 1.5085726.885721 1.0344762 1.334768 2.455528 1.334768 4.2235701v12.5831898h3.232699V23.2111421c0-1.2141566-.176897-2.3500703-.525124-3.3765058-.35534-1.0465374-.891289-1.9656595-1.593619-2.7316976M94.006862 31.9400496c-.5662559.4521388-1.2358048.8114995-1.9907096 1.0675671-.7592345.257614-1.5756821.3884312-2.4267669.3884312-.6191394 0-1.2249807-.0893763-1.8002051-.2650362-.5622356-.1722581-1.0607634-.4205943-1.4813577-.7388233-.4103886-.309879-.7264528-.6760434-.9661297-1.1195229-.2279249-.4218312-.3435883-.9231424-.3435883-1.4903261v-.0742225c0-1.2144659.4784259-2.3089387 1.2797198-2.9271503.9073702-.6998565 2.2637866-1.0548875 4.0312101-1.0548875 1.2695142 0 2.4122316.0896855 3.3962984.2672011.7722234.1391672 1.4742447.2829733 2.0946212.428635v1.5800117c0 .8467551-.191123 1.7850514-.4759519 2.3346072-.3222494.6234691-.7657289 1.1628194-1.3171403 1.6035155m-3.4457801-17.4132197c-1.3341497 0-2.564697.1595784-3.6579328.4747148-1.0688041.3083327-2.1385361.7239788-3.1795068 1.2361141l-.6129542.301529 1.2101361 2.986219.7193399-.3819367c.7941809-.4218312 1.6465027-.7725326 2.5322247-1.042517.8619089-.2625621 1.8311312-.3952349 2.8804519-.3952349 1.6984585 0 3.0279692.4236869 3.951421 1.2593086.7944901.7193399 1.3344589 2.4202724 1.3588905 4.2609907-.6175932-.1462802-1.2484845-.2712214-1.884324-.3723496-.9689131-.1537024-2.133588-.2319453-3.4615524-.2319453-1.2602364 0-2.4280039.1465894-3.4711395.4354387-1.0672578.2959623-1.9968948.7363492-2.7623144 1.3090996-.7821198.5848115-1.4046611 1.3196144-1.8506147 2.1843066-.4976.966439-.6751155 2.3225461-.6751155 3.2688831v.0742225c0 1.1145747.2436972 2.1113212.7249065 2.9630245.4688388.8303644 1.0882876 1.5326949 1.840409 2.0878174.7375862.5442984 1.5772284.9574704 2.4951134 1.2286919.9036591.2665825 1.8329868.40142 2.762933.40142.9283999 0 1.8017515-.1159726 2.5962416-.3445161.7864494-.2263787 1.5023873-.5254335 2.1267842-.8881961.57708-.3352383 1.1012765-.7227417 1.5596005-1.1526137v1.9393723h3.1962069V23.2819937c0-2.695205-.7768623-5.1065088-2.0782303-6.4502455-1.4807391-1.5296023-3.6075233-2.3049183-6.3209746-2.3049183M141.676332 16.809234c-.704496-.7691308-1.571662-1.373735-2.577377-1.7974218-.998602-.420285-2.135134-.6336747-3.379908-.6336747-1.830203 0-3.355476.4351295-4.534067 1.2927087-.492961.3584329-.944172.7549048-1.352396 1.1869417v-1.7398994h-3.232391v21.0108467h3.232391V23.5489473c0-.8946905.146898-1.7241271.435439-2.4644966.286993-.7348029.688413-1.3718795 1.193126-1.8929833.505641-.5226502 1.104679-.93675 1.781031-1.2311659.670477-.2922512 1.419197-.4406962 2.225129-.4406962 1.661348 0 2.890967.4935797 3.759989 1.5085725.886031 1.0347855 1.334768 2.4555281 1.334768 4.2238795v12.8766779h3.2327v-13.211607c0-1.2147751-.176897-2.3509981-.525124-3.3761965-.355341-1.0468467-.891289-1.9656595-1.59331-2.7316977M213.885619 22.3864991v.0742225c0 1.4597094-.254521 2.8371555-.757069 4.0942993-.501002 1.2531234-1.21694 2.3599666-2.127403 3.2892943-.909226.9271628-2.037408 1.671862-3.35362 2.2133771-1.319306.5427521-2.823858.8179939-4.47036.8179939h-5.778841V11.8973119h5.778841c1.644337 0 3.147343.2808085 4.465411.834694 1.316522.5529577 2.445632 1.3097181 3.355167 2.2495606.9117.9416981 1.628566 2.0609117 2.129877 3.3270241.503167 1.2701327.757997 2.6423214.757997 4.0779085m-.532546-9.8156179c-1.251886-1.2274548-2.761387-2.1997697-4.487679-2.88942052-1.722581-.68810453-3.636594-1.0372596-5.688227-1.0372596h-9.118854V36.1287971h9.118854c2.05318 0 3.968739-.3559588 5.692557-1.0576708 1.724127-.7020213 3.233009-1.6799029 4.483349-2.9061206 1.253742-1.2293104 2.235953-2.7001531 2.9188-4.3720152.680992-1.6672232 1.025817-3.4862932 1.025817-5.4064914v-.0742225c0-1.921126-.345135-3.7343201-1.026745-5.3901007-.682847-1.6582546-1.664439-3.1222936-2.917872-4.3512947"/>
    <mask id="b" fill="#fff">
      <use xlink:href="#a"/>
    </mask>
    <path d="M281.333007 36.1287352h3.232391V8.63826328h-3.232391zM305.725401 15.1179504l-6.167273 15.7858911-7.106187-15.7858911h-3.680199l9.167099 19.5935059c-.2805.65656-.561308 1.2246715-.837169 1.691964-.302147.5130632-.614809.9327296-.929946 1.246629-.282045.2817363-.579245.4805907-.883866.5916152-.324724.1184468-.688105.1787526-1.079628.1787526-.633675 0-1.156016-.0494817-1.552797-.1465895-.3974-.0967985-.814592-.2579232-1.240444-.4778074l-.729855-.3766792-1.155706 3.0196191.642334.2808085c.659034.2879215 1.29209.5078057 1.880922.6531581.607078.1499914 1.295801.2260694 2.047614.2260694 1.489089 0 2.802827-.4632721 3.904722-1.3768275 1.075608-.8909794 2.021327-2.3522351 2.89375-4.4706693l8.361785-20.6335489h-3.535156zM272.500745 15.1179504l-10.607016 11.584897V8.62224359h-3.232081V36.1287971h3.232081V31.081357l3.67185-3.8227686 6.967638 8.8702087h4.097392l-8.821345-11.249968 9.034735-9.7608787zM250.681893 14.9138075c-1.051795.3305995-2.302444 1.1965288-2.791694 1.5534154-.748719.5464632-1.428474 1.2147751-2.020399 1.9854521-.0167.0219575-.033709.043915-.050409.0661818v-3.4009373h-3.23239v21.0108466h3.23239v-9.0894743c0-1.4430093.202875-2.7267495.602749-3.8165834.39709-1.0817931.934894-2.0012244 1.599186-2.7323162.729854-.8031494 1.788762-1.598258 2.574902-1.9331871.864074-.3677107 1.783815-.554504 2.73479-.554504h.914484v-3.456295l-.714701-.0191741c-.985304-.027215-1.947723.1029837-2.848908.3865755M232.26367 31.9402043c-.565638.4518295-1.235496.8111901-1.99071 1.0675671-.759234.2576139-1.575682.3884311-2.426457.3884311-.619449 0-1.224981-.0893763-1.800205-.2653455-.562236-.1719488-1.060455-.4202849-1.481667-.738514-.404513-.3058585-.729546-.6828471-.965821-1.1198321-.231327-.427398-.343588-.9147924-.343588-1.4903262v-.0742225c0-1.2144658.478426-2.3089386 1.27972-2.9271503.907061-.6998564 2.263477-1.0548874 4.03121-1.0548874 1.269205 0 2.411922.0899948 3.395989.267201.771914.1391672 1.473626.2829734 2.09493.4289443v1.5800117c0 .8461366-.191123 1.7847421-.475642 2.334298-.322559.6234691-.766038 1.1628193-1.317759 1.6038248m-3.44578-17.413529c-1.333841 0-2.564388.1598877-3.657933.4750241-1.068186.3080234-2.137918.7236695-3.179507 1.2358048l-.613263.3018382 1.210754 2.986219.71934-.3822459c.793872-.4218313 1.645884-.7722234 2.531916-1.0422078.861909-.2625621 1.83144-.3955441 2.88107-.3955441 1.698459 0 3.027969.4236868 3.950803 1.2593086.79449.7193399 1.334768 2.4202724 1.359199 4.2609907-.617902-.1462802-1.248484-.2709122-1.884014-.3720403-.969841-.1540118-2.134207-.2319454-3.462171-.2319454-1.259927 0-2.427695.1462802-3.470831.4354387-1.066948.295653-1.996585.7360399-2.762623 1.3087903-.782429.5851208-1.404971 1.3199237-1.849996 2.1843067-.498219.9661297-.675734 2.3222368-.675734 3.2691923v.0742226c0 1.1142654.243697 2.1110119.724906 2.9627152.468839.8303644 1.088288 1.5330041 1.840409 2.0881267.737896.5442984 1.577538.9574704 2.495732 1.2283825.90335.2665825 1.832987.4017294 2.762624.4017294.92809 0 1.801442-.1159727 2.595932-.3445162.78614-.2263787 1.502078-.5254335 2.127094-.8885053.576461-.3349291 1.100348-.7221232 1.559291-1.1523045v1.9393724h3.196516V23.281839c0-2.6948956-.777172-5.1061995-2.07823-6.4502455-1.480739-1.529293-3.607524-2.3049182-6.321284-2.3049182M24.6026596 44.5819679c11.8882815 0 21.5600932-9.9999371 21.5600932-22.2908757 0-1.1625101-.1165912-2.3216183-.2907048-3.4705209.0219575.3785348.0649447.768203.0649447 1.1318933 0 10.7662845-8.4715719 19.5245409-18.884681 19.5245409-4.447784 0-8.5083739-1.5639302-11.7389087-4.2343943-1.4692965 1.2453919-2.5198543 2.1923474-5.54380309 3.1748679 3.86080759 3.7584424 9.12442069 6.1644888 14.83305969 6.1644888M8.16716682 19.9525883c0-10.76597529 8.47188118-19.52485015 18.88499028-19.52485015.8748978 0 1.752579.08628367 2.6271676.21308046-1.6656769-.41750163-3.3672279-.64078768-5.0765105-.64078768-11.8885908 0-21.56102105 9.99962784-21.56102105 22.29118497 0 2.9580764.6132635 5.7893559 1.43558707 8.1885986 1.31219215-1.3660035 3.47763392-2.822311 4.88878942-3.5280434-.85634223-2.2263661-1.19900282-4.4613914-1.19900282-6.9991828" mask="url(#b)"/>
    <path d="M20.8444336 16.3313029c-3.7986463-1.3366237-7.4655476-.2736955-9.1776135.4079145 2.7069568 1.4089907 4.3924264 3.108377 5.4349434 4.5934457 1.034167-1.537643 3.3777428-4.5365417 3.7426701-5.0013602M13.5188264 28.3708746s.0003092 0 .0003092-.0003093c-.0003092.0006186-.0009277.0012371-.0015463.0015463.0006186-.0003092.0009278-.0009277.0012371-.001237" mask="url(#b)"/>
    <path d="M13.5221355 28.3683077c-.0006186.0009278-.0015463.0012371-.0024741.0021649l-.0009278.0003092c.0009278-.0006185.0021648-.0015463.0034019-.0024741M28.3751115 27.3840245c-.0386576-.4849204-.1017467-.9862317-.1871026-1.5026966-.7982013.5631633-2.2470865 1.5147577-4.071414 2.445941-.2269972.1153541-.4592518.2310175-.6973824.3457532-.3890496.186484-.7926345.3701848-1.2079713.5477003-.0819541.0349464-.1623618.0705113-.2449343.1048393.0624706.1434968.1348375.3169919.213699.5139908.0609243.1518469.1261782.3219402.1932877.502239.0584503.1567951.1181375.3222494.1793711.4988372.1076227.3114253.2174101.6503747.325342 1.0143743.0590688.20071.1165912.4106979.1728766.6250154.0528836.2013286.1039115.4085331.1524654.6200672.2628714 1.1393156.45585 2.4156335.45585 3.7216404 0 .2894678-.0507188.5780079-.07113.8680942 1.5521783-1.0749894 4.7245722-3.9096708 4.8207522-9.144832.0018555-.0810262.0089685-.156795.0089685-.2390583 0-.1134986-.0055667-.2310176-.0098963-.347918-.0061852-.1877211-.0170093-.3791533-.0327816-.5739874" mask="url(#b)"/>
    <path d="M38.2827653 14.6703886c-1.0558153 0-1.9109205-.8844849-1.9109205-1.9755558s.8551052-1.9755559 1.9109205-1.9755559c1.0555059 0 1.9115389.884485 1.9115389 1.9755559s-.856033 1.9755558-1.9115389 1.9755558m-4.1004845 3.3053759c-1.055506 0-1.9106112-.8847942-1.9106112-1.9758651s.8551052-1.9761744 1.9106112-1.9761744c1.0555059 0 1.9115389.8851035 1.9115389 1.9761744s-.856033 1.9758651-1.9115389 1.9758651m-4.2814019 3.3403222c1.055506 0 1.9115389-.8841756 1.9115389-1.9752465 0-1.091071-.8560329-1.9761744-1.9115389-1.9761744-1.0551967 0-1.9109204.8851034-1.9109204 1.9761744 0 1.0910709.8557237 1.9752465 1.9109204 1.9752465M48.1410611 3.02147473c1.2457011.11628194 2.194203.32255867 2.7378829.46791109C46.573729 14.6295663 38.3282265 21.1793936 32.1105449 24.7179519c-.7728419.4391498-1.3468293.7459362-2.0865803 1.1185951-.051028-.5560504-.2829734-1.8883444-.4471907-2.7202551-.0371112-.1861748-.2560676-.2665825-.4082238-.1530839-2.8077757 2.0946211-5.4516434 3.6817458-9.222147 5.2688705-.229162.0967985-.3349291.3633811-.2300898.5891412.1054578.2266879.2464806.5074964.3649273.7521214-.8452088.2087509-1.7695883.4372943-2.0210171.5031668-.2266879-1.2095177-1.1086988-2.7719015-2.0661692-3.4776339.2971994-.5625448.9667483-1.6860881 1.4321853-2.431715.111643-.1787526.2279249-.362144.3488458-.5501744.1107152-.1716396.2257601-.3485365.3435883-.5272891 1.1662212-1.7683513 2.6840716-3.850602 4.4437636-5.9832622.1178283-.1422598.2344195-.2842104.3544125-.4273979.1153542-.1382395.2344195-.2758604.3519384-.4144091 3.4541302-4.0574973 7.727182-8.16138362 12.0840434-10.49197048 2.904265-1.55279679 5.9269768-2.44222988 8.9948406-2.7174717-.6321284 1.14024334-1.7491772 2.68438083-3.7445257 4.53221211-.0485539.04515202-.089067.09927261-.1181375.16019692-.081954.16947473-.118756.3457532-.118756.52265018 0 .59223379.4103886 1.19560096.9120091 1.6004229.7567604.61109867 1.5800117.70944347 2.0964767.25142877l.1515376-.1298894c2.3806871-2.02936717 3.9115264-4.37850966 4.6147847-6.97073087M14.0579292 29.9461546c.2835919-.2470991.4657463-.4311091.4855389-.5108983.0210298-.0887577-.1026744-.1778247-.231636-.3426606-.7010935-.8974738-3.0861102.0145353-4.1505847.6358396-1.8979315 1.1077709-3.56577319 2.9404485-4.1765626 3.7838017-.0132982.0176279-.02752418.036802-.03958534.0538114-.0086593.0123704-.02041119.0284519-.02876123.0395853-.12896161.1799896-.19885447.2839011-.19885447.2839011s.08752071-.0850466.23349165-.2223583c.01175189-.0111333.02041119-.0191741.03340013-.030926.01360746-.0132982.03030752-.028452.04577055-.042678.79016048-.7332565 2.93055215-2.6200546 4.51736761-3.0805434.1734951-.0361835-.9732427 2.837774-.9732427 2.837774s2.4171798-1.7751551 2.4335706-1.7872162c.3980182-.2996734.7975827-.604295 1.1578712-.8881961.1524654-.1193745.29689-.2347287.4320368-.3442069.1716396-.1394765.3275069-.2693659.4601796-.3850293m.185247-2.166988c1.0499393.0754595 2.0408098 2.0794673 2.0080282 2.5878915-.0429872.6670748-.2981271 1.7674236-2.1948215 3.5824732-.0151538.0145353-.0312353.0278335-.0457705.0414409-.0108242.0105149-.0222668.020102-.0327816.0303076-1.4541427 1.376209-3.484747 2.3098664-5.58864589 2.9395207-.0219575.0064944-.04360573.0129889-.06556322.0197926-.01515377.0043297-.02968901.0077316-.04484277.0123705-3.23022555.9494296-6.60332943 1.1962194-8.27890262 1.2583808 1.93875385-2.5356266 3.6826736-4.4654118 5.23516113-5.940275.0117519-.0108241.02257602-.0216482.03432791-.0324723.01515377-.0148446.03030753-.0287613.04546129-.0429873 1.91370375-1.8057718 3.5286619-2.9119965 4.84116327-3.5772157.0139168-.0064945.027215-.0136075.0414409-.0204112.0170094-.0089686.0349465-.0179371.0519558-.0265964 2.2065734-1.0954006 3.5388675-.9454093 3.9684303-.8427348.0077315.0021648.0170093.00835.0253593.0105149" mask="url(#b)"/>
  </g>
</svg>