<svg width="212" height="56" xmlns="http://www.w3.org/2000/svg">
  <g fill-rule="nonzero" fill="none">
    <path d="M45.85 24.743l-7.615-4.211-6.427 3.922-.08 4.01-3.123-2.057-4.248 2.588-.184-4.382-4.382-2.927 4.181-2.162c-.033 0 0 .418-.619-14.359L13.464.402 0 4.584l3.006 14.48 4.52 3.5-3.437 1.63 2.246 10.914 3.157 2.965-2.258 1.376 1.752 8.438 7.083 7.502c.034-.042.745-.59 9.112-7.243l-.243-5.733 3.588 3.045c.05-.05.77-.582 7.343-5.808l.255-4.24 2.71 1.881c.054-.05.66-.51 5.962-4.737l1.054-7.811z" fill="#231F20"/>
    <path fill="#000" d="M39.532 29.254l6.318-4.511-7.615-4.211-6.427 3.922z"/>
    <path fill="#004B16" d="M38.833 37.283l.699-8.029-7.724-4.8-.159 7.84zM28.526 45.45v-8.318l-7.803-5.916.615 8.17z"/>
    <path fill="#000" d="M28.526 37.132l7.836-5.615-7.757-5.11-7.882 4.809z"/>
    <path fill="#004B16" d="M16.07 55.38l-1.247-8.497-7.59-7.443 1.753 8.439z"/>
    <path fill="#000" d="M14.823 46.883l9.998-7.133-7.748-6.31-9.84 6z"/>
    <path fill="#004B16" d="M14.175 42.468l-1.647-11.24L4.073 24.2 6.335 35.1z"/>
    <path fill="#000" d="M12.528 31.228l11.645-6.615-8.697-5.829L4.073 24.2z"/>
    <path fill="#004B16" d="M11.737 25.86L9.48 10.466 0 4.588l3.006 14.476z"/>
    <path fill="#000" d="M9.48 10.467l13.857-5.31L13.464.402 0 4.588z"/>
    <g fill="#1CB35C">
      <path d="M44.796 32.545c-5.862 4.654-5.992 4.738-5.963 4.738.728-8.405.665-8.029.699-8.029 6.69-4.787 6.272-4.511 6.318-4.511l-1.054 7.802zM35.869 39.641c-7.255 5.77-7.372 5.808-7.343 5.808-.071-8.706-.03-8.317 0-8.317 8.363-5.98 7.807-5.615 7.836-5.615l-.493 8.124zM25.18 48.138c-9.056 7.2-9.14 7.242-9.11 7.242-1.284-8.756-1.255-8.497-1.255-8.497 10.65-7.593 9.977-7.133 10.006-7.133l.36 8.388zM23.337 5.157c.635 14.79.585 14.359.619 14.359-11.984 6.226-12.248 6.343-12.219 6.343C9.43 10.124 9.45 10.467 9.48 10.467l13.858-5.31zM24.173 24.613c.48 11.21.418 10.822.464 10.822-10.374 6.97-10.491 7.033-10.453 7.033-1.673-11.533-1.673-11.24-1.648-11.24l11.637-6.615z"/>
    </g>
    <path d="M63.395 6.357l6.933-1.673v33.402c0 3.66 1.091 5.841 3.274 6.544-1.07 2.037-2.9 3.055-5.49 3.052-3.145 0-4.717-2.183-4.717-6.548V6.357zM78.051 47.118v-24.01h-3.797V17.42h10.814v29.688l-7.017.009zm3.58-41.204a4.023 4.023 0 110 8.045 4.023 4.023 0 010-8.045zM109.947 47.126v-17.17c0-2.529-.485-4.381-1.455-5.544-.97-1.162-2.555-1.748-4.754-1.748a7.418 7.418 0 00-3.262.862 7.527 7.527 0 00-2.7 2.132v21.468h-6.938V17.438h4.993l1.254 2.776c1.885-2.23 4.672-3.345 8.363-3.345 3.53 0 6.317 1.058 8.363 3.174 2.046 2.116 3.068 5.069 3.065 8.86v18.223h-6.929zM120.602 32.207c0-4.533 1.307-8.223 3.922-11.069s6.067-4.269 10.357-4.269c4.514 0 8.018 1.369 10.513 4.106 2.494 2.738 3.749 6.481 3.763 11.232 0 4.739-1.271 8.502-3.814 11.29-2.542 2.787-6.027 4.18-10.453 4.18-4.51 0-8.019-1.41-10.525-4.23-2.506-2.822-3.76-6.568-3.763-11.24zm7.208 0c0 6.542 2.357 9.815 7.071 9.818a6.08 6.08 0 005.148-2.555c1.268-1.698 1.9-4.119 1.898-7.263 0-6.451-2.348-9.678-7.046-9.68a6.11 6.11 0 00-5.155 2.546c-1.277 1.703-1.916 4.081-1.916 7.134zM172.43 47.126v-1.802c-.572.627-1.55 1.179-2.926 1.651a13.1 13.1 0 01-4.244.707c-4.146 0-7.404-1.313-9.777-3.939-2.372-2.626-3.56-6.287-3.562-10.984 0-4.695 1.363-8.517 4.09-11.466a13.38 13.38 0 0110.248-4.424 13.535 13.535 0 016.155 1.388v-11.9l6.933-1.673v42.442h-6.916zm0-22.605a7.36 7.36 0 00-4.628-1.773c-2.788 0-4.924.846-6.41 2.538-1.486 1.692-2.234 4.119-2.246 7.28 0 6.175 2.978 9.262 8.932 9.262a6.736 6.736 0 002.454-.594c.97-.418 1.602-.803 1.899-1.208V24.52zM211.394 34.398h-21.217c.128 2.366.94 4.206 2.438 5.52 1.497 1.312 3.512 1.967 6.046 1.964 3.161 0 5.566-.822 7.213-2.467l2.689 5.31c-2.44 1.977-6.081 2.967-10.926 2.97-4.53 0-8.112-1.327-10.747-3.981-2.634-2.654-3.951-6.359-3.951-11.114 0-4.678 1.447-8.47 4.34-11.374a14.18 14.18 0 0110.412-4.353c4.307 0 7.765 1.285 10.374 3.855 2.61 2.57 3.913 5.843 3.91 9.819-.064 1.3-.259 2.59-.581 3.85zm-20.97-5.215h14.589c-.482-4.343-2.885-6.516-7.21-6.519-3.958 0-6.418 2.173-7.38 6.52z" fill="#000"/>
  </g>
</svg>