<svg xmlns="http://www.w3.org/2000/svg" viewBox="0 0 400 200">
  <defs/>
  <g fill="none" fill-rule="nonzero">
    <path fill="#808080" d="M133.6589077 101.25l6.2958333-4.4958333-7.5875-4.1958334-6.4041667 3.9083334z"/>
    <path fill="#808080" d="M132.9630743 109.25l.6958334-8-7.6958334-4.7833333-.1583333 7.8125zM122.692241 117.3875V109.1l-7.775-5.8958333.6125 8.1416666z"/>
    <path fill="#808080" d="M122.692241 109.1l7.8083333-5.5958333-7.7291666-5.0916667-7.8541667 4.7916667z"/>
    <path fill="#808080" d="M110.279741 127.2833333l-1.2416667-8.4666666L101.47557433 111.4l1.74583334 8.4083333z"/>
    <path fill="#808080" d="M109.0380743 118.8166667l9.9625-7.1083334-7.7208333-6.2875L101.47557433 111.4z"/>
    <path fill="#808080" d="M108.392241 114.4166667l-1.6416667-11.2L98.32557433 96.2125l2.25416667 10.8625z"/>
    <path fill="#808080" d="M106.7505743 103.2166667L118.354741 96.625l-8.6666667-5.8083333L98.32557433 96.2125z"/>
    <path fill="#808080" d="M105.9630743 97.8666667l-2.24999997-15.3375-9.44583333-5.85833337 2.99583333 14.42499997z"/>
    <path fill="#808080" d="M103.71307433 82.5291667L117.5214077 77.2375l-9.8375-4.7375-13.4166667 4.17083333z"/>
    <g fill="#101010">
      <path d="M138.9047413 104.5291663c-5.8416666 4.6375-5.9708333 4.7208334-5.9416666 4.7208334.725-8.375.6625-8 .6958333-8 6.6666667-4.7708334 6.25-4.4958334 6.2958333-4.4958334l-1.05 7.775zM130.008908 111.5999997c-7.2291667 5.75-7.3458333 5.7875-7.3166667 5.7875-.0708333-8.675-.0291666-8.2875 0-8.2875 8.3333334-5.9583334 7.7791667-5.5958334 7.8083334-5.5958334l-.4916667 8.0958334zM119.358908 120.0666663c-9.025 7.175-9.10833333 7.2166667-9.07916667 7.2166667-1.27916666-8.725-1.25005548-8.4666667-1.25005548-8.4666667 10.61255545-7.5666666 9.94172215-7.1083333 9.97088885-7.1083333l.3583333 8.3583333zM117.521408 77.23749967c.6333333 14.73750003.5833333 14.30833333.6166667 14.30833333-11.9416667 6.2041667-12.2041667 6.3208333-12.17500003 6.3208333-2.3-15.67916663-2.27916667-15.33749997-2.25-15.33749997l13.80833333-5.29166666zM118.3547413 96.6249997c.4791667 11.1708333.4166667 10.7833333.4625 10.7833333-10.33749997 6.9458333-10.45416663 7.0083333-10.41666663 7.0083333-1.66666667-11.4916666-1.66666667-11.2-1.64166667-11.2l11.5958333-6.5916666z"/>
      <path fill="#808080" d="M157.4380743 78.43333333l6.9083334-1.66666666V110.05c0 3.6472222 1.0875 5.8208333 3.2625 6.5208333-1.0666667 2.0305556-2.8902778 3.0444445-5.4708334 3.0416724-3.1333333 0-4.7-2.1750057-4.7-6.5250057V78.43333333zM172.042241 119.05V95.125h-3.7833333v-5.6666667h10.775v29.5833334L172.042241 119.05zm3.5666667-41.05833333c2.2137413 0 4.0083333 1.79459196 4.0083333 4.00833333 0 2.2137414-1.794592 4.0083333-4.0083333 4.0083333-2.2137414 0-4.0083334-1.7945919-4.0083334-4.0083333.0022967-2.21278938 1.795544-4.00603672 4.0083334-4.00833333zM203.825574 119.0583333V101.95c0-2.5208333-.483333-4.3666667-1.45-5.525-.966666-1.1583333-2.545833-1.7416667-4.7375-1.7416667-1.134876.032717-2.246962.3264219-3.25.8583334-1.0492973.490946-1.9706019 1.2182918-2.6916663 2.125v21.3916666h-6.9125V89.475h4.975l1.25 2.7666667c1.8777777-2.2222223 4.6555553-3.3333334 8.3333333-3.3333334 3.516667 0 6.294444 1.0541667 8.333333 3.1625 2.038889 2.1083334 3.056945 5.0513889 3.054173 8.8291667v18.1583333h-6.904173zM214.442241 104.1916667c0-4.5166667 1.302778-8.1930556 3.908333-11.0291667 2.605556-2.8361111 6.045834-4.2541667 10.320834-4.2541667 4.497222 0 7.988889 1.3638889 10.475 4.0916667 2.486111 2.7277778 3.736111 6.4583333 3.75 11.1916667 0 4.7222222-1.266667 8.4722222-3.8 11.25-2.533334 2.7777777-6.005556 4.1666666-10.416667 4.1666666-4.494444 0-7.990278-1.4055555-10.4875-4.2166666-2.497222-2.8111111-3.747222-6.5444445-3.75-11.2zm7.183333 0c0 6.5194444 2.348611 9.7805555 7.045834 9.7833333 2.028184.0639274 3.953689-.8917865 5.129166-2.5458333 1.263889-1.6916667 1.894445-4.1041667 1.891676-7.2375 0-6.4277778-2.340287-9.6430556-7.020842-9.6458334-2.02841-.0633917-3.955021.8881951-5.1375 2.5375-1.272223 1.6972223-1.908334 4.0666667-1.908334 7.1083334zM266.088074 119.0583333V117.2625c-.570833.625-1.545833 1.175-2.916666 1.6458333-1.36128.4661982-2.790271.7041667-4.229167.7041667-4.130556 0-7.377778-1.3083333-9.741667-3.925-2.363889-2.6166667-3.547222-6.2652778-3.55-10.9458333 0-4.6777778 1.358334-8.4861111 4.075-11.425 2.599401-2.8870448 6.328677-4.4968263 10.2125-4.4083334 2.124874-.028506 4.226415.4454829 6.133334 1.3833334V78.43333333l6.908333-1.66666666v42.29166663h-6.891667zm0-22.525c-1.286959-1.1045297-2.91697-1.7288518-4.6125-1.7666666-2.777777 0-4.906944.8430555-6.3875 2.5291666-1.480555 1.6861111-2.226389 4.1041667-2.2375 7.2541667 0 6.1527778 2.966667 9.2291667 8.9 9.2291667.845286-.0412769 1.675143-.242026 2.445834-.5916667.966666-.4166667 1.595833-.8 1.891666-1.2041667v-15.45zM304.913074 106.375h-21.141666c.127777 2.3583333.9375 4.1916667 2.429166 5.5 1.491667 1.3083333 3.5 1.9611111 6.025 1.9583333 3.15 0 5.545834-.8194444 7.1875-2.4583333l2.679167 5.2916667c-2.430556 1.9694444-6.059722 2.9555555-10.8875 2.9583333-4.513889 0-8.083333-1.3222222-10.708333-3.9666667-2.625-2.6444444-3.9375-6.3361111-3.9375-11.075 0-4.6611111 1.441666-8.4388889 4.325-11.3333333 2.709228-2.8190536 6.465487-4.3894415 10.375-4.3375 4.291666 0 7.7375 1.2805556 10.3375 3.8416667 2.6 2.5611111 3.898611 5.8222222 3.895837 9.7833333-.063518 1.2953884-.257556 2.5810648-.579171 3.8375zm-20.895833-5.1958333h14.5375c-.480556-4.3277778-2.875-6.4930556-7.183333-6.4958334-3.944445 0-6.395834 2.1652778-7.354167 6.4958334z"/>
    </g>
  </g>
</svg>