<svg xmlns="http://www.w3.org/2000/svg" viewBox="0 0 400 200">
  <g fill="#b0b0b0" fill-rule="nonzero">
    <path d="M180.0091913 70h10.3400735v1.06515215h-4.5508118V83.0974265h-1.2384499V71.06515215h-4.5508118zM191.0386031 70h1.2614691v5.690674h7.8270681V70h1.2515363v13.0974265h-1.2515363v-6.34160035h-7.8270681v6.34160035h-1.2614691zM204.1360295 70h8.8742995v1.06515215h-7.6452526v4.73400957h7.1613756v1.06515215h-7.1613756v5.16796043h7.7323506v1.0651522h-8.9613975zM180.0091913 115.4963235h8.2720588v1.0651522h-7.025853v4.7340095h6.2408415v1.0651522h-6.2408415v6.2331126h-1.2462058zM195.1845431 115.4963235c4.1228152 0 6.1941335 3.257422 6.1941335 6.8933824 0 3.6359603-2.0614076 6.8933823-6.1941335 6.8933823-4.1327259 0-6.2139547-3.257422-6.2139547-6.8933823 0-3.6359604 2.0614076-6.8933824 6.2139547-6.8933824m0 12.7009574c3.4687147 0 4.9553068-2.9286913 4.9553068-5.8175366 0-2.8888452-1.4965027-5.7876519-4.9553068-5.7876519-3.4588042 0-4.9553068 2.9286913-4.9553068 5.8175366 0 2.8888452 1.4766814 5.8175365 4.9553068 5.8175365M202.7673725 115.4963235h1.2624508v7.9395904c0 2.9652728 1.4327816 4.1146782 3.8975665 4.1146782 2.464785 0 3.9075862-1.1494054 3.9075862-4.1146782v-7.9395904h1.262451v8.2100387c0 2.6368713-1.4728597 4.8873878-5.1800566 4.8873878-3.7071969 0-5.1600173-2.2408576-5.1600173-4.8873878v-8.2100387h.0100194zM215.165441 115.4963235h1.395168l7.658581 11.0756099h.029684v-11.0756099h1.256641V128.59375h-1.405063l-7.648686-11.0756099h-.039579V128.59375h-1.246746zM228.262868 115.4963235h4.439751c3.869064.0887627 5.900322 2.219067 5.900322 6.5487133 0 4.3296462-2.011913 6.450088-5.900322 6.5487132h-4.439751v-13.0974265zm1.218755 12.0322743h2.611618c3.685284 0 5.290945-1.5582781 5.290945-5.483561 0-3.925283-1.595989-5.4835611-5.290945-5.4835611h-2.611618v10.9671221zM243.840645 115.4963235h1.380404l5.100642 13.0974265h-1.331453l-1.585997-4.0732207h-5.87406l-1.566416 4.0732207h-1.360824l5.237704-13.0974265zm-1.95802 7.9590536h5.110432l-2.516056-6.7065135-2.594376 6.7065135zM248.943015 115.4963235h10.340073v1.0651522h-4.550811V128.59375h-1.23845v-12.0322743h-4.550812zM260.661765 115.4963235h1.378676V128.59375h-1.378676zM269.633072 115.4963235c4.122816 0 6.194134 3.257422 6.194134 6.8933824 0 3.6359603-2.061408 6.8933823-6.194134 6.8933823-4.132725 0-6.213954-3.257422-6.213954-6.8933823 0-3.6359604 2.061407-6.8933824 6.213954-6.8933824m0 12.7009574c3.468715 0 4.955307-2.9286913 4.955307-5.8175366 0-2.8888452-1.446949-5.7876519-4.955307-5.7876519-3.508357 0-4.955306 2.9286913-4.955306 5.8175366 0 2.8888452 1.476681 5.8175365 4.955306 5.8175365M277.895221 115.4963235h1.396504l7.656012 11.0756099h.039617v-11.0756099h1.24794V128.59375h-1.396504l-7.656012-11.0756099h-.039617V128.59375h-1.24794zM180.0091913 87.9227941h7.0764448v16.9245543h10.1570111v5.8236075h-17.2334559zM201.3786766 87.9227941h6.8933823v22.7481618h-6.8933823zM213.097427 87.9227941h7.238051l6.686581 12.1739734h.068934V87.9227941h6.686581v22.7481618h-6.883535l-7.041098-12.417843h-.068934v12.417843h-6.68658zM259.962708 101.9676277c0 6.379554-3.333313 9.3926664-10.320637 9.3926664-6.987324 0-10.349791-3.0131124-10.349791-9.3926664V87.9227941h6.987324v12.4744818c0 2.3064541 0 5.2606784 3.40134 5.2606784s3.304158-2.9444096 3.304158-5.2606784V87.9227941h6.987325v14.0448336h-.009719zM270.862205 98.565266l-7.408041-10.6424719h8.142084l3.399778 6.1845346 3.351487-6.1845346h7.697794l-7.22453 10.7107554 8.035841 12.0374064h-8.35457l-3.853726-6.7795765-3.969628 6.7795765h-7.948914zM123.2697092 116.875V93.4375H111.764706v35.15625h34.4669118V116.875z"/>
    <path d="M169.6691178 70H111.764706v17.5722382h11.5711831v-5.8083557h34.7523463v35.1150421h-5.7807419V128.59375h17.3616243z"/>
  </g>
</svg>