<svg width="400" height="200" xmlns="http://www.w3.org/2000/svg">
  <g fill="#b0b0b0" fill-rule="nonzero">
    <path d="M168.852 103.272l-1.247 3.533h-.104a25.085 25.085 0 00-1.213-3.464l-6.685-16.8h-6.547v26.777h4.33V96.795c0-1.04 0-2.217-.035-3.672-.034-.728-.104-1.282-.138-1.698h.104c.207 1.04.45 1.802.623 2.287l8.037 19.536h3.048l7.967-19.71c.173-.45.346-1.35.52-2.113h.103a249.862 249.862 0 00-.207 4.815v16.974h4.607V86.472h-6.305l-6.858 16.8zm17.527-9.249h4.503v19.19h-4.503v-19.19zm2.286-8.105c-.762 0-1.385.277-1.905.762s-.796 1.108-.796 1.87c0 .728.277 1.351.796 1.836.52.485 1.143.728 1.905.728.763 0 1.42-.278 1.906-.728.52-.485.796-1.108.796-1.836 0-.727-.277-1.35-.796-1.87-.45-.485-1.109-.762-1.906-.762zm18.186 7.932a12.56 12.56 0 00-2.528-.277c-2.044 0-3.915.45-5.473 1.351-1.56.9-2.806 2.148-3.603 3.706-.831 1.594-1.247 3.43-1.247 5.543 0 1.836.416 3.464 1.212 4.953.797 1.455 1.906 2.633 3.395 3.43 1.42.796 3.083 1.212 4.954 1.212 2.147 0 3.983-.45 5.438-1.282l.035-.034v-4.157l-.174.138c-.658.485-1.42.901-2.182 1.144-.797.277-1.524.415-2.148.415-1.8 0-3.221-.52-4.226-1.663-1.039-1.108-1.558-2.632-1.558-4.537 0-1.975.52-3.534 1.593-4.677 1.074-1.143 2.494-1.732 4.226-1.732 1.455 0 2.944.485 4.295 1.455l.174.139v-4.4l-.035-.034c-.589-.243-1.247-.52-2.148-.693zm14.86-.138a4.752 4.752 0 00-3.048 1.073c-.762.624-1.281 1.525-1.732 2.598h-.034v-3.36h-4.503v19.19h4.503v-9.802c0-1.663.346-3.049 1.108-4.053.762-1.04 1.732-1.559 2.91-1.559.416 0 .831.104 1.35.173.486.139.832.277 1.075.45l.173.14v-4.504l-.104-.035c-.312-.208-.935-.311-1.697-.311zm12.263-.104c-3.152 0-5.68.935-7.447 2.77-1.802 1.837-2.668 4.365-2.668 7.552 0 2.98.901 5.404 2.633 7.17 1.732 1.733 4.087 2.633 7.032 2.633 3.083 0 5.542-.935 7.309-2.806 1.801-1.87 2.667-4.364 2.667-7.447 0-3.048-.831-5.473-2.529-7.24-1.628-1.766-4.018-2.632-6.997-2.632zm3.603 14.756c-.832 1.074-2.148 1.594-3.776 1.594-1.628 0-2.944-.52-3.88-1.663-.935-1.074-1.385-2.633-1.385-4.607 0-2.044.485-3.603 1.385-4.711.936-1.109 2.217-1.663 3.845-1.663 1.594 0 2.84.52 3.741 1.594.901 1.073 1.386 2.632 1.386 4.676-.07 2.078-.45 3.706-1.316 4.78zm15.968-6.374c-1.42-.588-2.32-1.039-2.736-1.42-.346-.346-.52-.831-.52-1.455 0-.52.208-1.039.728-1.385.52-.347 1.108-.52 1.974-.52.762 0 1.559.139 2.321.347.762.207 1.455.52 2.01.935l.172.138v-4.226l-.104-.034a12.499 12.499 0 00-2.043-.59 13.886 13.886 0 00-2.217-.207c-2.148 0-3.914.52-5.3 1.663-1.386 1.074-2.044 2.528-2.044 4.226 0 .9.139 1.697.45 2.355a5.25 5.25 0 001.386 1.802c.624.484 1.524 1.039 2.771 1.558 1.04.45 1.836.797 2.321 1.074.485.277.797.589 1.04.831.173.278.276.624.276 1.074 0 1.282-.97 1.905-2.944 1.905-.762 0-1.559-.138-2.494-.45a9.637 9.637 0 01-2.529-1.282l-.173-.138v4.4l.104.034c.658.312 1.455.52 2.425.762.97.173 1.836.312 2.598.312 2.32 0 4.226-.52 5.577-1.663 1.385-1.109 2.113-2.529 2.113-4.365 0-1.281-.347-2.424-1.109-3.29-1.004-.832-2.251-1.698-4.053-2.39zm17.043-8.382c-3.152 0-5.68.935-7.447 2.77-1.767 1.837-2.668 4.365-2.668 7.552 0 2.98.901 5.404 2.633 7.17 1.732 1.733 4.087 2.633 7.032 2.633 3.083 0 5.542-.935 7.309-2.806 1.801-1.87 2.667-4.364 2.667-7.447 0-3.048-.831-5.473-2.529-7.24-1.628-1.766-4.018-2.632-6.997-2.632zm3.568 14.756c-.831 1.074-2.148 1.594-3.776 1.594-1.662 0-2.944-.52-3.88-1.663-.935-1.074-1.385-2.633-1.385-4.607 0-2.044.485-3.603 1.386-4.711.935-1.109 2.217-1.663 3.845-1.663 1.558 0 2.84.52 3.74 1.594.901 1.073 1.386 2.632 1.386 4.676 0 2.078-.45 3.706-1.316 4.78zM304.189 97.73v-3.707h-4.538v-5.68l-.139.034-4.295 1.282-.104.034v4.33h-6.79V91.6c0-1.109.278-1.975.763-2.53.485-.553 1.212-.83 2.113-.83.623 0 1.281.138 2.009.45l.173.104v-3.915l-.104-.034c-.623-.208-1.455-.347-2.529-.347-1.35 0-2.528.312-3.602.832a6.008 6.008 0 00-2.46 2.46c-.588 1.038-.9 2.216-.9 3.567v2.667h-3.152v3.672h3.152v15.519h4.538V97.73h6.789v9.872c0 4.053 1.905 6.097 5.716 6.097.623 0 1.281-.104 1.905-.208.658-.139 1.143-.312 1.42-.45l.035-.035v-3.707l-.174.139c-.277.173-.52.312-.935.416a3.171 3.171 0 01-.9.138c-.901 0-1.525-.208-1.975-.727-.416-.485-.623-1.282-.623-2.46V97.73h4.607zM95 77.535h21.234v21.234H95zM118.451 77.535h21.234v21.234h-21.234zM95 100.986h21.234v21.234H95zM118.451 100.986h21.234v21.234h-21.234z"/>
  </g>
</svg>