<svg width="400" height="200" xmlns="http://www.w3.org/2000/svg">
  <g fill="#b0b0b0" fill-rule="nonzero">
    <path d="M137.747 77.544h-12.742c-.872 0-1.629.648-1.745 1.531l-5.178 33.027c-.117.648.407 1.236 1.047 1.236h6.11c.872 0 1.628-.647 1.745-1.53l1.396-8.89a1.763 1.763 0 011.745-1.53h4.015c8.378 0 13.207-4.122 14.487-12.246 1.222-7.359-2.443-11.598-10.88-11.598zm1.455 12.069c-.698 4.65-4.19 4.65-7.564 4.65h-1.92l1.338-8.653c.059-.53.524-.883 1.048-.883h.872c3.55-.06 6.982 0 6.226 4.886zM175.798 89.495h-6.109c-.523 0-.989.412-1.047.883l-.29 1.708-.408-.648c-1.338-1.943-4.247-2.59-7.215-2.59-6.69.059-12.45 5.18-13.556 12.48-.931 5.593 1.57 12.599 9.949 12.599 5.41 0 8.436-3.532 8.436-3.532l-.29 1.707c-.117.648.407 1.236 1.047 1.236h5.469c.873 0 1.629-.647 1.745-1.53l3.317-21.135c.116-.589-.408-1.178-1.048-1.178zm-8.494 12.01c-.582 3.532-3.375 5.887-6.866 5.887-3.723 0-5.643-2.59-5.062-6.005.524-3.473 3.375-5.946 6.808-5.946 3.607 0 5.643 2.59 5.12 6.064zM208.322 89.495h-6.109c-.582 0-1.164.295-1.455.766l-8.494 12.598-3.607-12.127c-.233-.766-.931-1.296-1.688-1.296h-6.05c-.757 0-1.222.707-.99 1.413l6.75 20.075-6.342 9.067c-.524.706 0 1.707.872 1.707h6.11c.581 0 1.105-.294 1.454-.765l20.364-29.79c.523-.706 0-1.648-.815-1.648z"/>
    <g>
      <path d="M228.511 77.544H215.77c-.872 0-1.629.648-1.745 1.531l-5.178 33.027c-.117.648.407 1.236 1.047 1.236h6.11c.872 0 1.628-.647 1.745-1.53l1.396-8.89a1.763 1.763 0 011.745-1.53h4.015c8.378 0 13.207-4.122 14.487-12.246 1.222-7.359-2.443-11.598-10.88-11.598zm1.455 12.069c-.698 4.65-4.19 4.65-7.564 4.65h-1.92l1.338-8.653c.059-.53.524-.883 1.048-.883h.872c3.55-.06 6.982 0 6.226 4.886zM266.562 89.495h-6.109c-.523 0-.989.412-1.047.883l-.291 1.708-.407-.648c-1.338-1.943-4.248-2.59-7.215-2.59-6.69.059-12.45 5.18-13.556 12.48-.931 5.593 1.57 12.599 9.949 12.599 5.41 0 8.436-3.532 8.436-3.532l-.29 1.707c-.117.648.407 1.236 1.047 1.236h5.469c.872 0 1.629-.647 1.745-1.53l3.317-21.135c.116-.589-.408-1.178-1.048-1.178zm-8.494 12.01c-.582 3.532-3.375 5.887-6.866 5.887-3.723 0-5.643-2.59-5.062-6.005.524-3.473 3.375-5.946 6.808-5.946 3.607 0 5.643 2.59 5.12 6.064zM273.835 78.427l-5.236 33.675c-.117.648.407 1.236 1.047 1.236h5.236c.873 0 1.63-.647 1.746-1.53l5.178-33.027c.116-.648-.407-1.237-1.047-1.237h-5.877c-.523 0-.93.412-1.047.883z"/>
    </g>
  </g>
</svg>