<svg xmlns="http://www.w3.org/2000/svg" viewBox="0 0 400 200">
  <g fill="#b0b0b0" fill-rule="evenodd">
    <path d="M122.1595596 90.0516204c-.874844-.0893273-1.7567217-.1558655-2.6446483-.1993334-2.03863-2.30717429-5.0194862-3.76187154-8.3403486-3.76187154-4.4250031 0-8.2466606 2.58303364-10.0393945 6.32366364-3.5902508 1.2189296-6.99650153 2.837792-10.16557799 4.8025688 1.36888685.8488196 2.7822263 1.6325076 4.23523549 2.3479694-3.64215903.8343303-7.0422202 2.3026728-10.07807952 4.2846116 3.01827523-1.2069725 6.30875229-1.8779816 9.75776758-1.8779816 1.25761464 0 2.49145564.0994556 3.70194494.2709357-.3854434-.9644526-.6631315-1.9832048-.8184342-3.0414862.222263.6463914.4924954 1.2704159.8057737 1.8688379.8426299.3393028 1.6966544.6560979 2.56137.949682 1.7927339 3.74063 5.6143914 6.3240856 10.0393945 6.3240856 3.3204404 0 6.3017186-1.4551193 8.3403486-3.7618715.8875046-.0434679 1.7689603-.1100062 2.6440856-.1993334-.0804648-2.3884832-.1214006-4.7782324-.1214006-7.1561651 0-2.3841223.0409358-4.7800612.1219633-7.1743119m-2.9750887 12.1853578c-.0312293.0506422-.0634434.1002997-.0959388.1500978-.4822263.7369847-1.0644709 1.402789-1.7276024 1.9774373-.0572539.0492355-.115211.0981896-.1733089.1465811-.5835107.4813822-1.2259633.8945382-1.9145566 1.2263853-.1378593.0663975-.277266.1297003-.4189235.1892049-.2826116.1197125-.5725383.2262018-.8686545.3180611-.0739938.0229297-.1482691.0452967-.222685.0665383-.8223731.2336575-1.6906055.3585749-2.5878165.3585749-2.4474251 0-4.6775107-.9302691-6.3562997-2.4558655-.1116942-.1019877-.2212783-.2063669-.3281896-.3132782-.1069113-.1069114-.2112905-.2164955-.3128563-.3281896-.1021284-.1118349-.201162-.2262019-.2975229-.3428196-.2212783-.2688257-.4282079-.5504526-.6195229-.84263-.0580979-.0889052-.1153517-.1782324-.1703548-.2689663-.8686544-1.4292355-1.3688868-3.1070398-1.3688868-4.9018838 0-2.2838227.8105566-4.3788624 2.1587645-6.0126361.0483914-.0580979.0972049-.1161957.146581-.1733089.2477248-.2857064.5121897-.5566422.7919878-.8109786.0814496-.0739939.1650092-.146159.2491315-.2174801.1468624-.1244954.2969603-.24463.450997-.3604037.1214006-.0905932.2450519-.1780917.3705321-.2634801.0866544-.0580979.1747156-.1149297.2630581-.1703547.0783547-.0492355.1571315-.0972049.2367523-.1439083.2015841-.1187278.4083731-.2301407.6191009-.3339572.1215413-.0593639.2442079-.1166177.3682813-.1711988.1531927-.0672415.3084954-.130685.466049-.1900489.0462813-.0171621.092422-.03432415.1391253-.05106421.9975107-.3581529 2.0725321-.5535474 3.1932722-.5535474 1.386471 0 2.7035902.29836697 3.8898838.83475231.0699144.0316514.1389847.0642874.2081957.0972049 3.1682324 1.5264403 5.3542875 4.7682446 5.3542875 8.5204098 0 1.8450642-.5289297 3.566055-1.4428808 5.0207523"/>
    <path d="M114.1979021 96.5338222l-2.7511376-.4822263 1.2131621-5.864789-4.8543364 7.3916514 2.8320245.482367-1.3754985 6.1859449 4.9357859-7.712948M122.7820367 97.2259323c0 5.3834067.2041162 10.718844.6046116 15.9995596.9588257-.169792 1.8934557-.3850214 2.7998104-.6414679.3688441-5.0713945.5566422-10.1930091.5566422-15.3580917 0-5.1628318-.1873761-10.28177372-.5560795-15.35049543-.9064954-.25700917-1.8415474-.47209786-2.8009358-.6424526-.3999327 5.27860551-.6040489 10.61179203-.6040489 15.99294803M98.9980673 87.35661118c1.0578593-1.12116208 2.2970458-2.1490581 3.6830948-3.05513149 1.3843608-.90522936 2.913052-1.68666667 4.5428868-2.32335169.4629542-.1809052.933786-.34985321 1.4120734-.50698471-.5958899-.04135779-1.1933272-.06245871-1.7913272-.06245871-2.6727829 0-5.305052.41104587-7.8237982 1.22103975-2.1618593.69576759-4.2168073 1.67653823-6.1203914 2.92149236l4.0094557 4.51250151c.5826666-.9460244 1.2823731-1.85294188 2.0880061-2.70710702"/>
    <path d="M106.8445138 80.63357754c1.2770275 0 2.5323914.09185933 3.7606055.26840367.9094495-.2284526 1.8349357-.41371865 2.7739266-.55622018-3.3605321-1.23173089-6.990734-1.90231804-10.778208-1.90231804-3.1475535 0-6.186789.46070336-9.05313759 1.32499694l1.39491131 3.70630581c3.57351068-1.81678899 7.61827528-2.8411682 11.90190218-2.8411682M140.5589969 97.3239812c0-1.7389969-1.4098226-3.1483975-3.1483975-3.1483975-1.738997 0-3.1485382 1.4094006-3.1485382 3.1483975 0 1.7385749 1.4095412 3.1483976 3.1485382 3.1483976 1.7385749 0 3.1483975-1.4098227 3.1483975-3.1483976M133.7159694 98.6510882c-.1503792-.4203302-.2291559-.8673883-.2291559-1.3272477 0-.4592966.0787767-.9064954.2291559-1.326685-2.3105504-.0109725-4.4504648-.7303731-6.2219572-1.9488807.0157554 1.0609541.0241958 2.1205015.0241958 3.1775168 0 1.1228502-.0092845 2.2480918-.0272906 3.3741774 1.7724771-1.2189297 3.9136575-1.9379083 6.225052-1.9488808M104.7487706 87.19722892c1.9162447-1.2311682 4.1380306-1.88192049 6.4257921-1.88192049 1.7363242 0 3.4101896.36560856 4.9754556 1.08683792.75063.34591437 1.4679205.77229358 2.1318961 1.26774312.5711315.42553517 1.1054067.90382263 1.5919939 1.42487463.7613211.0417798 1.5251743.1011437 2.2821345.1772477.1011437-2.70921713.2539144-5.41505811.4571866-8.09740673l.0047828-.06696025c-1.4670764-.22001223-2.9856391-.33662997-4.5420428-.33662997-10.6945076 0-19.6452355 5.46612233-21.9228685 12.78996945 1.4486483-.6621468 2.9271193-1.255786 4.4293639-1.7768379.9588257-1.8665872 2.3938288-3.4476086 4.1663058-4.58691748M122.6187156 113.350972l-.0047829-.0669602c-.2041162-2.6902263-.3568868-5.404367-.4584526-8.1224465-.7569602.076104-1.5203914.1354679-2.2821345.1772477-.4865872.521052-1.0208624.9993395-1.5915719 1.4248746-.6643976.4954496-1.3816881.9218288-2.131896 1.2677432-1.5652661.7216513-3.2391315 1.0872599-4.9754557 1.0872599-2.2873394 0-4.5094067-.6511743-6.425792-1.8824832-1.7724771-1.1391682-3.2074802-2.7201896-4.1663058-4.5873394-.3898043-.1350459-.7797493-.2758594-1.1664588-.4206117l.3872722.9689542-1.3254189-.1873762c-.5276637-.0748379-1.0415413-.1333578-1.547682-.1761223 1.212318 2.4505199 3.1973517 4.630104 5.7390275 6.3813395l-.0053455-.0035169c1.5374128 1.6756942 2.484 3.8979022 2.484 6.3519389 0 1.549792-.3802386 3.0075841-1.0429481 4.2968501-.1235107.2482875-.1042385.7753884.2962569.9548869 1.1488746.4981223 2.414789.7766544 3.7468196.7766544.6010948 0 1.1877003-.0620367 1.7575657-.169792l-.0026727-.0136453c-.128575-.6209297-.1997554-1.2625382-.1997554-1.9211682 0-2.4571315.9402569-4.691156 2.4778104-6.371211l-.0105505-.0022508c1.0283181.2046789 2.0861774.3564649 3.1678104.4528257l-.0405137-.0035168c.0351682 1.3279511.3515413 2.5842997.8800489 3.7222018l.8308135-.8308134c-.2412539-.7541468-.374049-1.5559817-.374049-2.3889052 0-.1381407.0039389-.2745933.0109725-.4110459l-.0422018-.0016881c.4871498.022789.9780978.0347462 1.4731254.0347462 1.5564036 0 3.0753883-.1161957 4.5424648-.33663M164.6265627 90.6469476c0 3.0957859-2.2988746 4.9720795-5.7696942 4.9720795h-3.0329052s-.6259939 0-.6259939-.6258532v-8.41124773s0-.62585321.3982447-.64948624c.3986666-.0237737 1.572159-.11703976 3.166685-.11703976 3.6587584 0 5.8636636 1.12552294 5.8636636 4.83154743m6.6145749-.4224404c0-6.42677675-4.2225749-9.52242201-12.8534128-9.52242201-3.564789 0-6.9897493.18723547-8.993211.36631193 0 0-.6231805.05612844-.6231805.68198165v31.30349233s0 .6258532.6259939.6258532h5.174789s.6258532 0 .6258532-.6258532v-11.8362079s0-.6258532.6259939-.6258532h2.9226177s.6259939 0 .8889114.5677553l5.5256269 11.9517003s.2629174.5684587.8889113.5684587h5.8311682s.6258532 0 .3487278-.561003l-6.7625627-13.6544037s-.2778287-.5617064-.2778287-.6082691c0 0 0 .0465627 0 0 0 0 0-.0467034.5975779-.2325321 2.873945-.8928502 5.4540245-4.0833089 5.4540245-8.3990092M314.31633 113.679443s.625994 0 .625994-.6258532V81.46832984s0-.62599389-.625994-.62599389h-4.940428s-.625994 0-.625994.62599389V93.492336s0 .6258532.015474 1.2511437l.203976 8.5530459s.015474.6259938-.030948.6259938c0 0 .046422 0 0 0 0 0-.047829 0-.306667-.5698654-3.259388-7.1707951-7.715902-14.910893-11.633639-21.96281957 0 0-.303853-.54749848-.929847-.54749848h-6.160061s-.625994 0-.625994.62599389v31.58525996s0 .6258532.625994.6258532h4.894006s.625994 0 .625994-.6258532v-12.5398532s0-.6258532-.012661-1.2510031l-.16318-8.5066238s-.012661-.6258533.057676-.6258533c0 0-.070337 0 0 0 0 0 .071743 0 .336208.567052 2.221223 4.7342019 5.739449 10.9730398 12.006422 22.4332294 0 0 .299633.5489052.925626.5489052h5.738043M270.68104 114.1485867c8.865199 0 12.992538-4.9255168 12.992538-14.5891743V81.46832984s0-.62599389-.624587-.62599389h-5.316025s-.625994 0-.625994.62599389v19.40510706c0 5.3005504-2.15792 8.0211621-6.285259 8.0211621-3.940245 0-6.145994-2.9551132-6.145994-8.0211621V81.46832984s0-.62599389-.624588-.62599389H258.7337s-.625994 0-.625994.62599389v19.07663606c0 9.2877798 4.598594 13.6036208 12.573334 13.6036208M220.017737 80.84247663s-.625994 0-.865138.57858715l-3.044159 7.34930892-2.62636 7.223688h-.047829s-.046422 0-.263058-.5867462l-2.456991-6.6369418-3.00041-7.34790219s-.236612-.57999388-.862465-.57999388h-6.206342s-.625854 0-.349431.56100306l9.391315 19.04892351s.277125.5610031.277125 1.186997v11.4143302s0 .6258533.625853.6258533h5.595963s.625994 0 .625994-.6258533v-11.4143302s0-.6259939.279939-1.1862936l9.479939-19.05018961s.278532-.56044036-.347462-.56044036h-6.206483M247.402508 100.0527519s-.625994 0-.625994.6259938v6.9801835s0 .6259939-.351682.742893c-.351682.1176024-1.524893.3055413-2.97945.3055413-6.096758 0-9.944159-4.2225749-9.944159-11.399419 0-7.4114862 4.080918-11.35215289 10.226912-11.35215289 3.189052 0 6.333088.51640979 8.396758 1.35988379l.206789-4.7219633s.028135-.62585321-.548624-.86992049c-1.301223-.55284404-4.490275-1.2564893-8.149174-1.2564893-10.64893 0-16.93419 6.94234251-16.93419 17.02844039 0 9.7103608 5.394801 16.559578 16.371499 16.559578 3.845994 0 7.834067-.8450214 9.544648-1.4735474 0 0 .588012-.2156514.588012-.8415046v-11.061523s0-.6259938-.625994-.6259938h-5.175351M184.359156 100.0686479l1.579755-6.1758165 1.940581-7.6981774h.138422s.138704.02166361.285285.62993272l1.701296 7.07907648 1.637854 6.1649847h6.588831l-5.668972-18.67909482s-.181749-.61910092-.807743-.61910092h-7.1924589s-.6258532.02025688-.8070397.61980428l-5.6426667 18.67839146h6.2468563M199.786459 105.1801341h-6.781554l2.078581 7.7981957.102691.3257982s.101988.3257982.727982.3257982h5.831872s.625853.0291192.444104-.5698655l-2.403676-7.8799266M176.5644771 105.1801341l-2.3921407 7.8799266s-.1810459.5698655.4448073.5698655h5.6142508s.6258532.0291192.7812966-.5766178l2.0311743-7.8731743h-6.4793883"/>
  </g>
</svg>