<svg xmlns="http://www.w3.org/2000/svg" viewBox="0 0 400 200">
  <g fill="#101010" fill-rule="nonzero">
    <path d="M170.9322033 100.4802262c-2.8248587 0-5.02824858.7344633-7.20338982 1.8926554v21.0169491c0 .5932204-.4519774 1.0734464-1.04519774 1.1016949h-4.80225989c-.59322034-.0282485-1.04519774-.5084745-1.04519774-1.1016949V96.045198c0-.5649718.480226-1.0451978 1.04519774-1.0451978h4.5480226c.56497175 0 1.04519774.480226 1.04519774 1.0451978v1.1016949c2.14689266-1.6384181 4.77401131-2.5141243 7.48587571-2.5141243.5649717 0 1.0451977.480226 1.0451977 1.0451977v3.7570622c-.0564971.5932203-.5084745 1.0451977-1.0734463 1.0451977zM198.4745762 112.1468929h-17.0338983v.1694915c0 3.0225989 1.2429378 6.6384181 6.2711864 6.6384181 3.220339-.0282486 6.4124294-.1977401 9.6045198-.5367232h.1694915c.5367232 0 .9322034.2542373.9322034.7909605v3.4463277c0 .8474576-.1694915 1.2146892-1.1016949 1.3559322-3.3898305.6214689-5.4237288.8757062-10.1412429.8757062-5.2259887 0-12.6553673-2.8248588-12.6553673-13.1073447v-3.8700565c0-8.1638418 4.5480226-13.2768361 12.5423729-13.2768361 8.0508475 0 12.4293785 5.480226 12.4293785 13.2768361v2.9378532c.0282486.8474576-.2824858 1.299435-1.0169491 1.299435zm-5.9039548-5.1129944c0-4.0677966-2.259887-6.4406779-5.480226-6.4406779s-5.5932203 2.2881356-5.5932203 6.4406779v.1977401h11.0734463v-.1977401zM228.5028248 124.4632771h-4.8022599c-.5932203-.0282486-1.0451977-.5084746-1.0451977-1.101695v-17.0056497c0-4.5480226-.4237289-5.8474576-4.4350283-5.8474576-1.779661 0-3.700565.7344633-5.9039548 1.8926554v21.0169491c0 .5932204-.4519774 1.0734463-1.0451977 1.1016949h-4.8022599c-.5932204-.0282486-1.0451978-.5084745-1.0451978-1.1016949V96.0734466c0-.5649718.480226-1.0451978 1.0451978-1.0451978h4.5480226c.5649717 0 1.0451977.480226 1.0451977 1.0451978v1.1016949c3.0225989-1.920904 5.0282486-2.5141243 8.4745763-2.5141243 7.5141243 0 9.039548 5.0564972 9.039548 11.6949152v17.0338983c-.0282486.5932204-.5084746 1.0451978-1.0734463 1.0734464zM258.305085 123.5593223c-3.446328.8757062-6.9774015 1.3276836-10.5084749 1.3559322-8.4180791 0-12.4858757-4.9717514-12.4858757-13.1073447v-4.039548c0-8.1638418 4.0677966-13.1073446 12.4858757-13.1073446 1.6949152.0282486 3.3615819.1412429 5.0282486.3672316v-9.23728812c0-.56497175.480226-1.04519774 1.0451977-1.04519774h4.8022596c.564972 0 1.045198.48022599 1.045198 1.04519774v36.38418082c0 .7344632-.225989 1.0734463-1.412429 1.3841808zm-5.4802263-22.9096046c-1.6666667-.2259887-3.3333334-.338983-5.0282486-.3672316-4.4915254 0-5.5932203 3.1920904-5.5932203 7.4858757v4.0112994c0 4.2937854 1.1016949 7.4858757 5.5932203 7.4858757 1.6949152 0 3.3615819-.1129943 5.0282486-.3672316v-18.2485876zM289.548023 112.1468929h-17.033899v.1694915c0 3.0225989 1.242938 6.6384181 6.271187 6.6384181 3.220339-.0282486 6.412429-.1977401 9.604519-.5367232h.169492c.508475 0 .932203.2542373.932203.7909605v3.4463277c0 .8474576-.169491 1.2146892-1.101695 1.3559322-3.38983.6214689-5.423728.8757062-10.141243.8757062-5.225988 0-12.655367-2.8248588-12.655367-13.1073447v-3.8700565c0-8.1638418 4.548023-13.2768361 12.542373-13.2768361 8.050848 0 12.429379 5.480226 12.429379 13.2768361v2.9378532c.028248.8474576-.282486 1.299435-1.016949 1.299435zm-5.903955-5.1129944c0-4.0677966-2.259887-6.4406779-5.480226-6.4406779s-5.593221 2.2881356-5.593221 6.4406779v.1977401h11.073447v-.1977401zM310.621469 100.4802262c-2.824859 0-5.028249.7344633-7.20339 1.8926554v21.0169491c0 .5932204-.451977 1.0734464-1.045198 1.1016949h-4.80226c-.59322-.0282485-1.045197-.5084745-1.045197-1.1016949V96.045198c0-.5649718.480226-1.0451978 1.045197-1.0451978h4.548023c.564972 0 1.045198.480226 1.045198 1.0451978v1.1016949c2.146892-1.6384181 4.774011-2.5141243 7.485875-2.5141243.564972 0 1.045198.480226 1.045198 1.0451977v3.7570622c-.028248.5932203-.508474 1.0451977-1.073446 1.0451977z"/>
    <path d="M104.0112993 75.16949152c-8.58757064 0-15.56497178 6.94915255-15.56497178 15.53672318V114.0112994h6.94915255V90.6497175c.2259887-4.6610169 3.98305083-8.36158191 8.64406783-8.53107343h12.6271186v-6.94915255h-12.6553672zM121.1581919 75.16949152h-.819209V82.11864407H127.2881354v-6.94915255h-.819209zM131.7796609 96.4124294h-.8192091V103.3615819H137.9096044V96.4124294h-.8192091zM137.0903953 75.16949152h-6.1299435V82.11864407H137.9096044v-6.94915255zM131.7796609 85.7909605h-.8192091V92.740113H137.9096044V85.7909605h-.8192091zM131.7796609 107.0621469h-.8192091V114.0112994H137.9096044V107.0621469h-.8192091zM131.7796609 117.6836158h-.8192091V124.6327684H137.9096044V117.6836158h-.8192091zM121.1581919 117.6836158h-.819209V124.6327684H127.2881354V117.6836158h-.819209zM110.5084744 117.6836158h-.819209V124.6327684H116.6384179V117.6836158h-.819209zM99.8870055 117.6836158h-.819209V124.6327684H106.016949V117.6836158h-.819209zM89.23728798 117.6836158h-.79096045V124.6327684h6.94915254V117.6836158h-.81920904z"/>
    <path d="M104.0112993 75.16949152c-8.58757064 0-15.56497178 6.94915255-15.56497178 15.53672318V114.0112994h6.94915255V90.6497175c.2259887-4.6610169 3.98305083-8.36158191 8.64406783-8.53107343h12.6271186v-6.94915255h-12.6553672zM121.1581919 75.16949152h-.819209V82.11864407H127.2881354v-6.94915255h-.819209zM131.7796609 96.4124294h-.8192091V103.3615819H137.9096044V96.4124294h-.8192091zM137.0903953 75.16949152h-6.1299435V82.11864407H137.9096044v-6.94915255zM131.7796609 85.7909605h-.8192091V92.740113H137.9096044V85.7909605h-.8192091zM131.7796609 107.0621469h-.8192091V114.0112994H137.9096044V107.0621469h-.8192091zM131.7796609 117.6836158h-.8192091V124.6327684H137.9096044V117.6836158h-.8192091zM121.1581919 117.6836158h-.819209V124.6327684H127.2881354V117.6836158h-.819209zM110.5084744 117.6836158h-.819209V124.6327684H116.6384179V117.6836158h-.819209zM99.8870055 117.6836158h-.819209V124.6327684H106.016949V117.6836158h-.819209zM89.23728798 117.6836158h-.79096045V124.6327684h6.94915254V117.6836158h-.81920904z"/>
  </g>
</svg>