<svg xmlns="http://www.w3.org/2000/svg" viewBox="0 0 400 200">
  <g fill="#808080" fill-rule="nonzero">
    <path d="M170.3 116.2720637V82.9h10.2460783c4.1114007 0 7.2434647.89577608 9.3962849 2.68735504 2.1528202 1.79157902 3.229214 4.39747296 3.229214 7.81776016 0 2.6222202-.667688 4.7924413-2.0030842 6.5107284-.8378334 1.0780616-2.6110962 2.1909788-5.3197879 3.3387516l.0000072.0000177c-.2288223.0969604-.3357171.3610595-.238757.5898817a.44999919.44999919 0 00.0482837.0861635l8.8244478 12.3414056h-8.2551339l-8.2839092-12.0695487c-.140638-.2049077-.4207581-.2570086-.625666-.1163706-.1222776.0839251-.1953522.2227102-.1953522.3710183v11.814901H170.3zm6.8226255-17.2723638h3.0835354c1.942394 0 3.439634-.4560315 4.4917641-1.3681081 1.0521302-.9120765 1.5781874-2.2068801 1.5781874-3.8844496 0-1.596134-.4936847-2.8624356-1.4810684-3.7989428-.9873837-.9365072-2.3227596-1.4047538-4.0061677-1.4047538h-3.6662508v10.4562543zm16.6006768 5.6896058c0-3.6320192 1.0440176-6.6002954 3.1320837-8.9049174 2.0880662-2.3046221 4.7801394-3.4569158 8.0763008-3.4569158 3.3707354 0 6.1224672 1.176724 8.2552772 3.5302073 2.13281 2.3534833 3.1992 5.3950502 3.1992 9.1247919 0 .5374737-.014915.9527881-.044744 1.2459556h-16.5776709c.2535511 1.596134.8799615 2.8624356 1.8792504 3.7989428.9992884.9365072 2.2222804 1.4047538 3.669012 1.4047538 1.0738624 0 2.0433073-.2687328 2.908363-.8062065.8650562-.5374737 1.5287525-1.2703814 1.9911105-2.1987451l5.346914 1.6124131c-1.058948 2.2476172-2.479558 3.9862371-4.261871 5.2159118-1.7823135 1.2296747-3.7920472 1.8445028-6.0292604 1.8445028-3.3707354 0-6.1373818-1.1685806-8.3000215-3.5057768-2.1626397-2.3371963-3.2439438-5.3054724-3.2439438-8.9049175zm6.0900589-2.7384113h10.6267118c-.253551-1.5309856-.861318-2.2599215-1.82332-3.1312803-.9620019-.8713589-2.1588935-1.3070318-3.5907102-1.3070318-1.4019872 0-2.5504061.4234578-3.4452918 1.270386-.8948853.8469283-1.4840096 1.5880792-1.7673898 3.1679261zm17.8017098-3.7242787v-5.3502796h2.622219v-6.20534712h6.31275v6.20534712h2.889297v5.3502796h-2.889297v11.0914473c0 .5374737.14163.9242861.424896 1.1604488.283266.2361626.740531.3542422 1.37181.3542422h1.092591v5.3014186h-5.02592c-1.489169 0-2.55747-.3420236-3.204935-1.026081-.647464-.6840574-.971192-1.8078492-.971192-3.3714091V98.2266157h-2.622219zm13.585516 6.511551c0-3.6483063 1.12867-6.6287976 3.386044-8.9415631 2.257375-2.3127657 5.174734-3.4691311 8.752165-3.4691311 3.499321 0 6.381531 1.1889391 8.646716 3.566853 2.265186 2.377914 3.397761 5.3909789 3.397761 9.0392852 0 3.4040001-1.171629 6.2826987-3.514925 8.636182C249.525053 115.923276 246.650654 117.1 243.245064 117.1c-3.499321 0-6.381531-1.1604372-8.646716-3.4813463-2.265186-2.3209092-3.397761-5.2810419-3.397761-8.880487zm26.234098 0c0-3.6483063 1.128671-6.6287976 3.386046-8.9415631 2.257374-2.3127657 5.174733-3.4691311 8.752163-3.4691311 3.499321 0 6.381531 1.1889391 8.646717 3.566853 2.265185 2.377914 3.397761 5.3909789 3.397761 9.0392852 0 3.4040001-1.17163 6.2826987-3.514925 8.636182C275.759152 115.923276 272.884753 117.1 269.479163 117.1c-3.499321 0-6.381531-1.1604372-8.646716-3.4813463-2.265186-2.3209092-3.397762-5.2810419-3.397762-8.880487zm-18.444453-4.8974927c-1.133064 1.2378182-1.699587 2.8583585-1.699587 4.8616696 0 2.003311.566523 3.6197796 1.699587 4.8494543 1.133063 1.2296747 2.622209 1.8445028 4.467484 1.8445028 1.812901 0 3.293954-.6148281 4.443205-1.8445028 1.14925-1.2296747 1.723866-2.8135696 1.723866-4.7517323 0-2.0847465-.554384-3.7419322-1.663167-4.9716069-1.108783-1.2296746-2.593883-1.8445028-4.455344-1.8445028-1.861462 0-3.366794.6188998-4.516044 1.8567181zm26.234099 0c-1.133063 1.2378182-1.699587 2.8583585-1.699587 4.8616696 0 2.003311.566524 3.6197796 1.699587 4.8494543 1.133063 1.2296747 2.622209 1.8445028 4.467484 1.8445028 1.812901 0 3.293955-.6148281 4.443205-1.8445028 1.149249-1.2296747 1.723865-2.8135696 1.723865-4.7517323 0-2.0847465-.554383-3.7419322-1.663166-4.9716069-1.108784-1.2296746-2.593883-1.8445028-4.455344-1.8445028-1.861461 0-3.366794.6188998-4.516044 1.8567181zm18.91292 16.4313897V82.9H290.45v33.3720637h-6.312749zM113.15 77.5h15.3c1.9882251 0 3.6 1.6117749 3.6 3.6v6.3c0 .7455844-.6044156 1.35-1.35 1.35h-19.8c-.74558441 0-1.35-.6044156-1.35-1.35v-6.3c0-1.9882251 1.6117749-3.6 3.6-3.6zm-2.25 15.1875h40.05c1.9882251 0 3.6 1.6117749 3.6 3.6v14.175c0 .7455844-.6044156 1.35-1.35 1.35h-40.05c-1.9882251 0-3.6-1.6117749-3.6-3.6v-14.175c0-.7455844.60441559-1.35 1.35-1.35zm22.5 23.0625h19.8c.7455844 0 1.35.6044156 1.35 1.35v2.025c0 1.863961-1.511039 3.375-3.375 3.375h-15.75c-1.863961 0-3.375-1.511039-3.375-3.375V117.1c0-.7455844.6044156-1.35 1.35-1.35z"/>
  </g>
</svg>