<svg width="400" height="200" xmlns="http://www.w3.org/2000/svg">
  <g fill="#101010" fill-rule="evenodd">
    <path d="M119.842 107.322a23.028 23.028 0 001.283-7.606c0-12.737-10.325-23.062-23.062-23.062C85.325 76.654 75 86.979 75 99.716a22.988 22.988 0 006.625 16.177L105.02 92.5l5.776 5.776 9.047 9.047zm-4.213 7.338l-10.61-10.61-16.614 16.615a22.977 22.977 0 009.658 2.114c7.036 0 13.336-3.151 17.566-8.119z"/>
    <path d="M135.316 111.728V87.512h11.831c1.223 0 2.341.185 3.356.554 1.038.369 1.926.888 2.664 1.557a6.78 6.78 0 011.73 2.352c.414.922.622 1.937.622 3.044 0 1.522-.438 2.883-1.315 4.082-.853 1.2-1.995 2.087-3.424 2.664l5.362 9.963h-5.605l-4.739-9.271h-5.466v9.271h-5.016zm11.382-19.891h-6.366v6.503h6.366c1.13 0 2.03-.3 2.698-.9.692-.599 1.038-1.383 1.038-2.352 0-.968-.346-1.752-1.038-2.352-.669-.6-1.568-.9-2.698-.9zm9.909 10.897c0-1.315.242-2.537.726-3.667a9.359 9.359 0 012.041-2.975 9.608 9.608 0 013.079-2.007 9.805 9.805 0 013.77-.726c1.338 0 2.595.242 3.771.726a9.211 9.211 0 013.045 2.007 8.67 8.67 0 012.04 2.975c.508 1.13.762 2.352.762 3.667a9.088 9.088 0 01-.761 3.701 8.754 8.754 0 01-2.041 2.94c-.854.83-1.869 1.488-3.045 1.972a9.805 9.805 0 01-3.77.727 9.805 9.805 0 01-3.771-.727 9.92 9.92 0 01-3.079-1.971 9.468 9.468 0 01-2.041-2.94 9.46 9.46 0 01-.726-3.702zm9.617 5.223c1.383 0 2.56-.507 3.528-1.522.969-1.015 1.453-2.248 1.453-3.701 0-1.476-.484-2.722-1.453-3.737-.968-1.014-2.145-1.522-3.528-1.522-1.384 0-2.56.508-3.529 1.522-.969 1.015-1.453 2.26-1.453 3.737 0 1.453.484 2.686 1.453 3.701.969 1.015 2.145 1.522 3.529 1.522zm21.486-.034a5.25 5.25 0 002.249-.485c.715-.323 1.395-.83 2.041-1.522l2.837 2.94a9.868 9.868 0 01-3.321 2.388c-1.292.553-2.63.83-4.013.83a9.716 9.716 0 01-3.736-.727 9.596 9.596 0 01-3.01-1.971 9.28 9.28 0 01-1.972-2.94 9.46 9.46 0 01-.726-3.702c0-1.315.242-2.537.726-3.667a9.183 9.183 0 011.972-2.975 9.302 9.302 0 013.01-2.007 9.716 9.716 0 013.736-.726c1.43 0 2.802.288 4.117.864a9.4 9.4 0 013.355 2.353l-2.906 3.079c-.646-.715-1.337-1.257-2.075-1.626a5.263 5.263 0 00-2.387-.554c-1.361 0-2.514.508-3.46 1.522-.922 1.015-1.384 2.26-1.384 3.737 0 1.476.473 2.71 1.419 3.701.968.992 2.145 1.488 3.528 1.488zm9.59 3.805V87.512l4.74-1.038v14.841l7.784-7.61h5.362l-8.441 8.268 8.96 9.755h-6.054l-7.61-8.233v8.233h-4.74zm24.878.83l.277-.657-7.023-18.196h5.224l4.463 12.28 5.12-12.28h5.12l-8.303 19.441c-.923 2.168-1.995 3.713-3.217 4.636-1.223.922-2.814 1.384-4.774 1.384-.415 0-.82-.023-1.211-.07a4.108 4.108 0 01-.9-.138v-4.082c.231.046.473.08.727.104.254.023.565.034.934.034.853 0 1.568-.207 2.145-.622.6-.415 1.072-1.027 1.418-1.834zm22.606-.83V87.512h2.664v21.829h14.426v2.387h-17.09zm21.674-20.653c-.461 0-.865-.173-1.21-.518-.347-.346-.52-.75-.52-1.211 0-.485.173-.888.52-1.211.345-.346.749-.519 1.21-.519.484 0 .888.173 1.21.519.347.323.52.726.52 1.21 0 .462-.173.866-.52 1.212a1.587 1.587 0 01-1.21.518zm1.28 3.321v17.332h-2.56V94.396h2.56zm4.366 17.332V94.396h2.56v2.041a6.388 6.388 0 012.387-1.764c.922-.415 1.948-.622 3.078-.622 1.96 0 3.564.622 4.809 1.868 1.245 1.245 1.868 2.86 1.868 4.843v10.966h-2.525v-10.447c0-1.522-.439-2.733-1.315-3.633-.876-.9-2.052-1.349-3.528-1.349-1.038 0-1.972.23-2.803.692-.807.461-1.464 1.119-1.971 1.972v12.765h-2.56zm21.273-17.332v10.448c0 1.522.438 2.733 1.314 3.632.877.9 2.053 1.35 3.529 1.35 1.038 0 1.96-.231 2.768-.693a5.577 5.577 0 002.006-2.006v-12.73h2.56v17.331h-2.56v-2.006a6.388 6.388 0 01-2.387 1.764c-.9.392-1.914.588-3.044.588-1.984 0-3.598-.623-4.843-1.868-1.246-1.246-1.868-2.86-1.868-4.843V94.396h2.525zm14.523 17.332l6.815-8.925-6.469-8.407h3.044l4.913 6.504 4.913-6.504h2.94l-6.4 8.372 6.85 8.96h-3.044l-5.293-7.057-5.363 7.057H307.9z" fill-rule="nonzero"/>
  </g>
</svg>