<svg width="220" height="49" xmlns="http://www.w3.org/2000/svg">
  <g fill="none" fill-rule="evenodd">
    <path d="M57.352 2.3c0-.092-.01-.183-.027-.274 0-.028-.014-.052-.022-.08-.008-.027-.036-.123-.058-.184l-.04-.088a1.203 1.203 0 00-.089-.15c-.02-.031-.038-.061-.06-.091l-.039-.053c-.022-.024-.046-.044-.068-.066l-.055-.066-.044-.03a1.38 1.38 0 00-.127-.096l-.107-.069a1.388 1.388 0 00-.145-.066l-.116-.046c-.052-.017-.107-.025-.16-.036L56.079.88a1.534 1.534 0 00-.195 0h-.11c-.737.066-10.465.995-21.4 5.872-6.566 2.92-11.65 7.404-14.847 12.846l-.824.358C6.995 25.18 0 35.338 0 47.128v.197a1.424 1.424 0 001.426 1.424h38.862c.076 0 .151-.006.225-.02l.1-.024c.046-.014.093-.022.14-.039.046-.016.068-.033.104-.05.036-.016.082-.032.12-.054.073-.043.142-.092.207-.146l15.66-13.204a1.417 1.417 0 00.506-1.099V2.301h.002zm-14.16 40.693l-1.503 1.266V16.167l12.814-10.8v28.092l-11.31 9.534zm-25.584-7.448H38.84V45.9H5.322l12.286-10.355zM35.53 9.356a73.42 73.42 0 0115.608-4.882L39.684 14.13a72.66 72.66 0 00-15.507 3.651c2.836-3.461 6.66-6.332 11.353-8.426zM21.455 21.88a73.533 73.533 0 0117.385-4.767v15.584H18.542a25.18 25.18 0 012.913-10.817zm-3.91 1.819a28.215 28.215 0 00-1.885 9.756L3.022 44.119c.956-8.665 6.102-15.913 14.523-20.421z" fill="#3569F3"/>
    <path d="M68.284 40.559V8.299h13.353c3.45 0 6.225.894 8.322 2.684 2.097 1.79 3.144 4.426 3.143 7.91a10.484 10.484 0 01-5.127 9.286l6.915 12.385H85.7l-5.465-10.99h-3.582v10.99l-8.369-.005zm8.369-17.699h4.16a3.769 3.769 0 002.747-1.041 3.713 3.713 0 001.066-2.78c0-1.226-.339-2.194-1.017-2.905-.677-.71-1.622-1.067-2.835-1.068h-4.121v7.794zm19.303 6.32a12.513 12.513 0 011.522-6.144 11.396 11.396 0 014.284-4.377 12.27 12.27 0 016.335-1.62c2.42 0 4.54.54 6.363 1.62a11.441 11.441 0 014.256 4.388 12.485 12.485 0 011.525 6.132 12.477 12.477 0 01-1.525 6.143 11.448 11.448 0 01-4.256 4.38c-1.832 1.08-3.952 1.62-6.363 1.62a12.27 12.27 0 01-6.335-1.62 11.403 11.403 0 01-4.284-4.369 12.505 12.505 0 01-1.522-6.154zm12.141 4.983a4.033 4.033 0 003.242-1.429 5.31 5.31 0 001.209-3.555 5.315 5.315 0 00-1.209-3.555 4.392 4.392 0 00-5.01-1.054 4.394 4.394 0 00-1.471 1.054 5.302 5.302 0 00-1.212 3.555 5.296 5.296 0 001.212 3.572 4.024 4.024 0 003.24 1.423v-.011zm15.916 6.385h8.176V8.298h-8.176v32.25zm12.913 0h8.176V8.298h-8.173l-.003 32.25zm12.913-1.066V8.299h8.176v11.363a5.81 5.81 0 011.96-1.453 9.664 9.664 0 012.123-.676 9.163 9.163 0 011.648-.193c2.127 0 3.924.532 5.393 1.594a10.093 10.093 0 013.339 4.184 13.668 13.668 0 011.134 5.542c0 3.998-1.16 7.112-3.48 9.341-2.321 2.23-5.74 3.342-10.257 3.338-1.863.004-3.72-.2-5.539-.604a41.006 41.006 0 01-4.492-1.242l-.005-.011zm8.176-10.787v5.468c.403.142.815.255 1.234.338a8.087 8.087 0 001.62.145 4.217 4.217 0 003.245-1.346c.841-.905 1.26-2.34 1.259-4.305a6.79 6.79 0 00-.363-2.154 4.294 4.294 0 00-1.137-1.813 2.844 2.844 0 00-2.03-.726c-1.356 0-2.332.42-2.927 1.259a5.266 5.266 0 00-.895 3.146l-.006-.012zm32.507 11.853l-.291-2.13a9.004 9.004 0 01-3.113 2.3c-1.247.453-2.57.666-3.895.63a9.427 9.427 0 01-3.144-.583 6.08 6.08 0 01-2.807-2.08c-.775-1.007-1.162-2.414-1.162-4.22 0-1.831.5-3.364 1.5-4.596a9.24 9.24 0 013.994-2.784 15.116 15.116 0 015.39-.928c.742 0 1.339.016 1.793.05.45.03.933.079 1.449.145v-.45c0-.805-.2-1.41-.604-1.814a3.111 3.111 0 00-1.474-.824 6.954 6.954 0 00-1.694-.217 11.97 11.97 0 00-3.795.55c-.955.292-1.859.724-2.686 1.28l-3.096-4.685c.967-.773 2.33-1.482 4.086-2.126 1.756-.645 3.974-.97 6.65-.976 3.162 0 5.719.815 7.67 2.446 1.95 1.63 2.925 4.056 2.925 7.277v13.738l-7.696-.003zm-.291-8.322v-1.497a10.106 10.106 0 00-2.225-.195c-1.356 0-2.355.266-2.998.799a2.395 2.395 0 00-.967 1.923c0 1.68.904 2.519 2.709 2.517a4.163 4.163 0 002.37-.75c.744-.502 1.116-1.43 1.116-2.786l-.005-.011zm12.638 8.322V17.821h7.886l.275 2.855a9.054 9.054 0 012.394-2.297 6.135 6.135 0 013.46-.942c.557-.007 1.115.026 1.669.096.418.049.832.14 1.233.274l-1.056 6.976a9.804 9.804 0 00-2.37-.275c-3.549 0-5.323 1.952-5.323 5.855V40.57l-8.168-.022z" fill="#343F55"/>
  </g>
</svg>