<svg xmlns="http://www.w3.org/2000/svg" viewBox="0 0 400 200">
  <g fill="#101010" fill-rule="nonzero">
    <path d="M288.354679 116.677917h6.11103l-6.11103-16.489806zM277.892594 116.677917h9.037583V92.29656104zM288.721616 82.93012773l-24.600589 33.74821907h12.092238zM71.5798452 116.525915l-6.8065585-9.9497666c1.7779415-.663719 3.2180054-1.7048637 4.3184721-3.1242938 1.1013264-1.4202899 1.6524195-3.2575534 1.6524195-5.5126505v-.0799558c0-2.8913043-.9216408-5.1464013-2.7666421-6.76615078-1.8432817-1.61888971-4.4233603-2.42790469-7.7410955-2.42790469H47.50025792V116.525915h6.1299435v-8.9146401h4.81454188l5.9708917 8.9146401h7.1642102zM226.245284 95.7958732c0-.6362073.139278-1.2328666.417833-1.7899778.278556-.5579711.675756-1.0420045 1.194179-1.4400639.517563-.39805945 1.140874-.71616311 1.870793-.95517073.729919-.23814787 1.545812-.35765168 2.447679-.35765168 1.433186 0 2.80619.23728813 4.119012.7161631 1.313682.47715549 2.619627 1.24662241 3.921273 2.30840091l1.830385-2.42790471c-1.433186-1.12883813-2.912798-1.97654139-4.437976-2.54139033-1.526038-.56398919-3.309997-.84254482-5.353598-.84254482-1.326579 0-2.547409.19258167-3.660772.57774502-1.115082.38430361-2.083149.91476296-2.90592 1.5991157-.82363.67661508-1.459837 1.47875215-1.910341 2.40727094-.452223.9285188-.676615 1.9576271-.676615 3.0709899 0 1.1675264.185704 2.176001.557111 3.024564.372267.8563007.949153 1.5991157 1.71776 2.2370425.770327.6353476 1.745271 1.1795628 2.931712 1.6309261 1.180423.4513633 2.57492.8563006 4.166298 1.2001965 1.466716.3181036 2.667772.6499631 3.614346.9955785.942274.3447556 1.679071.7299189 2.20953 1.1537705.537338.4255712.908745.8958487 1.121101 1.413412.212356.5244411.318104 1.1133628.318104 1.7770818 0 1.4331859-.56399 2.5869565-1.690248 3.4699091-1.128839.8743552-2.634243 1.3128224-4.517932 1.3128224-1.936994 0-3.649595-.3249816-5.134365-.9749447-1.48649-.6499632-2.958364-1.637804-4.417342-2.965242l-1.95075 2.3092606c1.672194 1.5062638 3.429502 2.6196267 5.273643 3.3357898 1.844142.723041 3.880865 1.0815524 6.10931 1.0815524 1.379022 0 2.653156-.1857038 3.820683-.5571113 1.168386-.3714075 2.162245-.9027266 2.991034-1.5982559.829649-.6903709 1.480472-1.5260379 1.950749-2.5078605.470278-.9818227.710145-2.0771309.710145-3.2695898 0-2.149349-.736797-3.8413166-2.209531-5.0621469-1.471874-1.2208302-3.760501-2.1828789-6.865021-2.8723901-1.538933-.3181036-2.799312-.6559813-3.781134-1.0153524-.981823-.3576517-1.75215-.7557112-2.307542-1.1933186-.557971-.4376075-.942274-.9216409-1.15463-1.4589782-.213215-.5313191-.318963-1.1279784-.318963-1.7916974zm32.955539-4.02702034h9.353107v-2.90506018h-21.850282v2.90506018h9.353107v24.95566204h3.144068V91.76885286zm63.042987 20.53746004l-2.070253-2.0298452c-1.326578 1.2741341-2.678949 2.2619749-4.059691 2.965242-1.379022.703267-3.023704 1.0549005-4.934045 1.0549005-1.538934 0-2.966102-.2974699-4.279784-.8958487-1.312823-.5966593-2.453697-1.4125522-3.421764-2.446819-.968926-1.0351265-1.725497-2.255097-2.268853-3.6624908-.544215-1.4056742-.815893-2.918816-.815893-4.536846 0-1.6188897.271678-3.123434.815893-4.5170719.543356-1.393638 1.299927-2.6075903 2.268853-3.6418571.968067-1.0342667 2.108941-1.8450012 3.421764-2.42790465 1.313682-.58376321 2.74085-.87607468 4.279784-.87607468 1.910341 0 3.548145.35765168 4.914271 1.07381479 1.367846.71702284 2.647139 1.63264554 3.842177 2.74772784l2.149349-2.3084009c-.690371-.66371898-1.407394-1.26639646-2.149349-1.81147138-.743675-.54421518-1.55269-1.00847457-2.428765-1.39277818-.875215-.38430362-1.824367-.683493-2.845738-.89584869-1.021371-.21149595-2.169123-.31810366-3.442397-.31810366-2.043601 0-3.927291.37828543-5.651069 1.13399656-1.725497.75571113-3.211987 1.79169737-4.45775 3.10451975-1.248342 1.3136822-2.223286 2.8457382-2.925694 4.5970278-.704126 1.7504299-1.0549 3.6212233-1.0549 5.6115205 0 2.0178089.350774 3.8997789 1.0549 5.6519283.702408 1.7521493 1.677352 3.2704495 2.925694 4.5574797 1.245763 1.2870302 2.718497 2.301523 4.416483 3.0451977 1.697985.7419553 3.555883 1.1133629 5.571972 1.1133629 1.274134 0 2.427905-.1195039 3.463031-.3576517 1.035127-.2390076 2.004053-.5708671 2.905061-.9947188.902726-.4238516 1.746131-.9353967 2.527634-1.532056.782363-.597519 1.532916-1.2672562 2.249079-2.010931zm16.755465-11.2634487l11.940064-12.17907152h-4.05969l-15.999755 16.63768112V88.86379268h-3.144927v27.86072222h3.144927v-7.482314l5.930484-6.0104397 10.706338 13.4927537h3.941046l-12.458487-15.6816507zM219.360489 116.525915l-6.806559-9.9497666c1.778802-.663719 3.217146-1.7048637 4.319332-3.1242938 1.100467-1.4202899 1.6507-3.2575534 1.6507-5.5126505v-.0799558c0-2.8913043-.921641-5.1464013-2.765782-6.76615078-1.844142-1.61888971-4.42422-2.42790469-7.741096-2.42790469h-12.736183V116.525915h6.129084v-8.9146401h4.815402l5.970892 8.9146401h7.16421zm-7.044707-18.2686072c0 1.1941783-.404937 2.149349-1.213952 2.8663719-.809015.7161631-1.969663 1.0738148-3.482805 1.0738148h-6.20904V94.198477h6.089536c1.513142 0 2.692704.3318595 3.542127.9955785.850283.6619995 1.274134 1.6567183 1.274134 2.9832965v.0799558zm-22.527757 18.2686072v-5.4524687h-15.124539v-5.8505281h13.135102v-5.4533284h-13.135102v-5.6510686h14.925079v-5.45332837h-20.975067V116.525915h21.174527zm-26.626996-13.9303611v-.0799558c0-1.9627855-.359371-3.787153-1.075534-5.4722427-.716163-1.6842299-1.730656-3.1509457-3.044338-4.3975681-1.312822-1.24834195-2.878408-2.22242695-4.695898-2.92569396-1.817489-.70240727-3.814665-1.05490051-5.989806-1.05490051h-10.8662489V116.525915h10.8662489c2.175141 0 4.172317-.3576517 5.989806-1.0738148 1.81749-.7170228 3.383076-1.6997052 4.695898-2.9463277 1.313682-1.2466224 2.328175-2.7202161 3.044338-4.4173421.716163-1.6979858 1.075534-3.5300909 1.075534-5.4928765zm-6.408499.0808155c0 1.2466225-.205478 2.3728814-.615573 3.3822157-.411816 1.0084746-.983543 1.8845493-1.711742 2.6265046-.729919.742815-1.612872 1.3136821-2.647138 1.7108818-1.034267.3989192-2.176861.5966593-3.422624.5966593h-4.7363054V94.198477h4.7363054c1.245763 0 2.388357.2054778 3.422624.6155736 1.034266.4118153 1.917219.9887006 2.647138 1.7323753.728199.7419553 1.299926 1.6309261 1.711742 2.6669123.410095 1.0342668.615573 2.1613855.615573 3.3822157v.0808155zm-24.7157946-.0808155v-.0799558c0-1.9627855-.3593711-3.787153-1.0755342-5.4722427-.7161631-1.6842299-1.7306559-3.1509457-3.044338-4.3975681-1.3128224-1.24834195-2.879268-2.22242695-4.6967576-2.92569396-1.8174895-.70240727-3.8146647-1.05490051-5.9898059-1.05490051h-10.8662491V116.525915h10.8662491c2.1751412 0 4.1723164-.3576517 5.9898059-1.0738148 1.8174896-.7170228 3.3839352-1.6997052 4.6967576-2.9463277 1.3136821-1.2466224 2.3281749-2.7202161 3.044338-4.4173421.7161631-1.6979858 1.0755342-3.5300909 1.0755342-5.4928765zm-6.4084991.0808155c0 1.2466225-.2054778 2.3728814-.6164333 3.3822157-.4118153 1.0084746-.9826824 1.8845493-1.7108819 2.6265046-.7307786.742815-1.6128715 1.3136821-2.6471382 1.7108818-1.0351266.3989192-2.1768608.5966593-3.4234832.5966593h-4.7363056V94.198477h4.7363056c1.2466224 0 2.3883566.2054778 3.4234832.6155736 1.0342667.4118153 1.9163596.9887006 2.6471382 1.7323753.7281995.7419553 1.2990666 1.6309261 1.7108819 2.6669123.4109555 1.0342668.6164333 2.1613855.6164333 3.3822157v.0808155zm-25.5119135 1.7108819V88.66519283H93.987239v15.96020637c0 2.2293048-.5313191 3.9006386-1.5922378 5.0148612-1.0609187 1.1150823-2.5345124 1.6721935-4.4173421 1.6721935-1.8845493 0-3.3564235-.577745-4.418202-1.7315156-1.0617784-1.1546303-1.591378-2.8732498-1.591378-5.154139V88.66519283h-6.1299435v15.92065827c0 4.1129944 1.0746745 7.2037583 3.2240236 9.2722919 2.149349 2.0711127 5.0939572 3.1062392 8.8355441 3.1062392 1.8570375 0 3.5429869-.2587816 5.0544092-.7772046 1.5131417-.5158438 2.7993122-1.2990666 3.8610906-2.3479489 1.0609187-1.0480226 1.8768116-2.3539671 2.4476787-3.9204127.5700074-1.5655858.855441-3.4088676.855441-5.5315647zm-35.581184-6.1299435c0 1.1941783-.4049374 2.149349-1.2139524 2.8663719-.8090149.7161631-1.9696634 1.0738148-3.4828052 1.0738148h-6.20817978V94.198477h6.08867598c1.5131418 0 2.6927045.3318595 3.542987.9955785.848563.6619995 1.2732744 1.6567183 1.2732744 2.9832965v.0799558z"/>
  </g>
</svg>