<svg xmlns="http://www.w3.org/2000/svg" viewBox="0 0 400 200">
  <path fill="#808080" fill-rule="nonzero" d="M224.289773 106.3664773L209.28125 87.01136364h-3.732955v25.95170456h3.784091V93.0965909L224.75 112.9886364h3.298295V87.01136364h-3.758522v19.35511366zm-37.7642048-4.8068182h13.4488638v-3.3494318h-13.4488638v-7.8238637H201.6875v-3.34943178h-19.0227273v25.95170458h19.2272723v-3.3494319h-15.3664768v-8.0795454zm-15.8011364-3.2982955c-5.2414773-1.2528409-6.6732954-2.25-6.6732954-4.6534091 0-2.1732954 1.9176136-3.6306818 4.78125-3.6306818 2.3778409 0 4.7301136.84375 7.1846591 2.5823864l2.0454545-2.8892046c-2.6846591-2.0710227-5.625-3.01704541-9.1534091-3.01704541-5.1392045 0-8.71875 3.04261361-8.71875 7.38920451 0 4.6789773 3.0170455 6.2897728 8.5909091 7.6193182 4.8835227 1.125 6.3920455 2.1988637 6.3920455 4.5511364 0 2.3267045-2.0198864 3.8352273-5.1647728 3.8352273-3.0681818 0-5.6761363-1.0227273-8.4119318-3.2982955l-2.3011364 2.7357955c3.0170455 2.5568181 6.6477273 3.9119318 10.5852273 3.9119318 5.5482955 0 9.1534091-2.9914773 9.1534091-7.6193182 0-3.9630682-2.3267045-6.0596591-8.3096591-7.5170455zM296.775568 87.01136364l-7.823863 12.24715906-7.74716-12.24715906h-4.525568l10.278409 15.69886366v10.2784091h3.886364v-10.3806819l10.278409-15.57102268h-4.346591v-.02556818zm-65.633523 3.52840906h8.488637v22.4488637h3.886363V90.5397727h8.514205v-3.50284088h-20.914773v3.50284088h.025568zm38.940341 12.2982955c3.911932-1.0738637 6.085228-3.8352273 6.085228-7.7471591 0-4.9857955-3.65625-8.07954546-9.536932-8.07954546h-11.53125v25.95170456h3.860795v-9.3323864h6.545455l6.596591 9.3323864h4.5l-7.107955-9.9715909.588068-.1534091zm-11.122159-2.53125v-9.84375h7.286932c3.809659 0 5.982955 1.7897727 5.982955 4.9090909 0 3.0170454-2.326705 4.9346591-5.931819 4.9346591h-7.338068zM128 79.98011364c-.84375-1.45738637-2.3267045-2.32670455-4.0142045-2.32670455s-3.1704546.86931818-4.0142046 2.32670455L113.375 91.4346591l1.6875.9715909c4.9090909 2.8125 9 6.9289773 11.8380682 11.8380682 2.53125 4.3721591 3.9886363 9.2556818 4.2954545 14.2414773h-4.6278409c-.28125-4.1931819-1.5340909-8.284091-3.65625-11.940341-2.4289773-4.21875-5.9573863-7.747159-10.1505682-10.1505681l-1.6875-.9715909-6.18749996 10.6875 1.6875.9715909c4.09090906 2.3522727 6.98011366 6.7244318 7.56818186 11.3778409h-10.58522732c-.38352273 0-.58806818-.2301137-.66477273-.3835228-.07670454-.153409-.20454545-.434659 0-.7670454l2.9659091-5.1136364c-.9971591-.84375-2.14772728-1.4829545-3.34943182-1.9176136l-2.99147727 5.1136364c-.84375 1.4573863-.84375 3.1960227 0 4.6278409.84374999 1.4573863 2.32670454 2.3267045 4.01420454 2.3267045h14.5738636v-1.9431818c0-3.375-.8948863-6.6988636-2.5823863-9.6392046-1.3551137-2.3778409-3.2215909-4.4232954-5.4204546-6.0085227l2.3267046-4.0142045c2.8892045 1.9943182 5.3181818 4.6278409 7.1079545 7.6960227 2.0965909 3.6306818 3.1960227 7.7727273 3.1960227 11.9403409v1.9431818h12.3494319v-1.9431818c0-6.3409091-1.6619319-12.6051136-4.8579546-18.1022727-2.8636363-4.9602273-6.8522727-9.1534091-11.6079545-12.2471591l4.7045454-8.13068183c.2045455-.33238636.4857955-.38352272.6647728-.38352272.153409 0 .4602272.05113636.6647727.38352272l20.4545454 35.41193183c.2045455.3323864.0767046.6136364 0 .7670454-.0767045.1534091-.28125.3835228-.6647727.3835228h-4.8068182c.0511364 1.3039772.0767046 2.5823863 0 3.8607954h4.8068182c1.6875 0 3.1704546-.8693182 4.0142046-2.3267045.84375-1.4573864.84375-3.1704546 0-4.6278409L128 79.98011364z"/>
</svg>