<svg width="400" height="200" xmlns="http://www.w3.org/2000/svg">
  <g fill="#b0b0b0" fill-rule="nonzero">
    <path d="M168.55 112.65l2.178-5.06c2.354 1.757 5.482 2.671 8.574 2.671 2.284 0 3.725-.878 3.725-2.214-.035-3.725-13.67-.808-13.775-10.155-.035-4.744 4.182-8.399 10.156-8.399 3.549 0 7.098.878 9.628 2.881l-2.038 5.166c-2.32-1.476-5.2-2.53-7.942-2.53-1.862 0-3.092.879-3.092 2.003.035 3.655 13.775 1.652 13.916 10.577 0 4.85-4.112 8.258-10.016 8.258-4.322 0-8.293-1.019-11.315-3.197M252.149 105.763c-1.09 1.898-3.128 3.198-5.482 3.198a6.284 6.284 0 01-6.29-6.29 6.284 6.284 0 016.29-6.29c2.354 0 4.392 1.3 5.482 3.197l6.009-3.338c-2.25-4.006-6.572-6.747-11.491-6.747-7.274 0-13.178 5.904-13.178 13.178 0 7.274 5.904 13.177 13.178 13.177 4.954 0 9.242-2.705 11.49-6.747l-6.008-3.338zM192.901 78.565h7.52v36.792h-7.52zM261.11 78.564v36.792h7.52v-11.034l8.925 11.034h9.629l-11.35-13.107L286.34 90.02h-9.206l-8.504 10.156V78.564zM222.771 105.833c-1.09 1.793-3.338 3.128-5.868 3.128a6.284 6.284 0 01-6.29-6.29 6.284 6.284 0 016.29-6.29c2.53 0 4.779 1.405 5.868 3.232v6.22zm0-15.813v2.987c-1.23-2.073-4.287-3.514-7.485-3.514-6.606 0-11.807 5.833-11.807 13.143 0 7.309 5.2 13.212 11.807 13.212 3.198 0 6.255-1.44 7.485-3.514v2.987h7.52v-25.3h-7.52z"/>
    <g>
      <path d="M122.058 105.798a4.634 4.634 0 01-4.638 4.639 4.634 4.634 0 01-4.639-4.639 4.634 4.634 0 014.639-4.638h4.638v4.638zM124.378 105.798a4.634 4.634 0 014.638-4.638 4.634 4.634 0 014.639 4.638v11.597a4.634 4.634 0 01-4.639 4.638 4.634 4.634 0 01-4.638-4.638v-11.597zM129.016 87.174a4.634 4.634 0 01-4.638-4.639 4.634 4.634 0 014.638-4.638 4.634 4.634 0 014.639 4.638v4.639h-4.639zM129.016 89.528a4.634 4.634 0 014.639 4.639 4.634 4.634 0 01-4.639 4.638h-11.631a4.634 4.634 0 01-4.639-4.638 4.634 4.634 0 014.639-4.639h11.631z"/>
      <g>
        <path d="M147.605 94.167a4.634 4.634 0 014.639-4.639 4.634 4.634 0 014.639 4.639 4.634 4.634 0 01-4.639 4.638h-4.639v-4.638zM145.286 94.167a4.634 4.634 0 01-4.638 4.638 4.634 4.634 0 01-4.639-4.638V82.535a4.634 4.634 0 014.639-4.638 4.634 4.634 0 014.638 4.638v11.632z"/>
      </g>
      <g>
        <path d="M140.648 112.756a4.634 4.634 0 014.638 4.639 4.634 4.634 0 01-4.638 4.638 4.634 4.634 0 01-4.639-4.638v-4.639h4.639zM140.648 110.437a4.634 4.634 0 01-4.639-4.639 4.634 4.634 0 014.639-4.638h11.631a4.634 4.634 0 014.639 4.638 4.634 4.634 0 01-4.639 4.639h-11.631z"/>
      </g>
    </g>
  </g>
</svg>