<svg xmlns="http://www.w3.org/2000/svg" viewBox="0 0 400 200">
  <g fill="none" fill-rule="evenodd">
    <path fill="#101010" fill-rule="nonzero" d="M186.789743 86.45880342c-4.922621.01169891-9.241022 3.2853796-10.58188 8.02188038-.28511.9270136-.442457 1.8885811-.467692 2.8581196v4.9832479c.025658.9453357.175078 1.883234.444444 2.7897436 1.286182 4.7714668 5.613437 8.0867345 10.555214 8.0867345 4.941777 0 9.269032-3.3152677 10.555214-8.0867345.251153-.9087437.379925-1.8469371.382906-2.7897436v-4.9832479c.000367-.9660701-.13122-1.9276638-.391112-2.8581196-1.30809-4.72624044-5.601407-8.00463098-10.505299-8.02188038m4.144958 15.86324788c-.00035.9669592-.351679 1.9009206-.988718 2.6283761-.783277.9353018-1.936349 1.4813675-3.15624 1.4947008-1.250749-.0131057-2.437182-.5563699-3.264273-1.4947008-.663294-.7184539-1.046654-1.6511355-1.080342-2.6283761v-4.7603419c.03685-1.1090699.510728-2.1585822 1.318291-2.9196581.798684-.7755234 1.867943-1.2096031 2.981196-1.2102564 1.090368.0122594 2.133698.4459591 2.911453 1.2102564.80349.7589468 1.260278 1.8144044 1.26359 2.9196581 0 .8888889.015043 3.8769231.015043 4.7589744M288.622222 86.45880342c-4.920664.01213524-9.236463 3.28638145-10.573675 8.02188038-.280012.927722-.432296 1.8892747-.45265 2.8581196v4.9832479c.019519.9453829.166721 1.8837908.437607 2.7897436 1.285884 4.7694173 5.611391 8.0831753 10.551111 8.0831753 4.939721 0 9.265227-3.313758 10.551111-8.0831753.248732-.9090788.375201-1.8472517.376069-2.7897436v-4.9832479c.000281-.9660643-.131304-1.9276465-.391111-2.8581196-1.308091-4.72624044-5.601408-8.00463098-10.5053-8.02188038m4.144958 15.86324788c-.000226.9669819-.35157 1.9009856-.988718 2.6283761-.783701.9355135-1.937279 1.4815769-3.157607 1.4947008-1.248536-.0124892-2.432678-.5560702-3.256068-1.4947008-.661037-.7191891-1.041548-1.6520221-1.072137-2.6283761v-4.7603419c.030527-1.1088346.502061-2.1596962 1.310085-2.9196581.798283-.776139 1.867802-1.2102564 2.981197-1.2102564 1.090339.0124012 2.133618.4460798 2.911453 1.2102564.803994.7587119 1.26129 1.8142 1.264957 2.9196581 0 .8888889.015043 3.8769231.015043 4.7589744M172.537436 87.06461538h-6.40547V98.9483761l-6.0758978-10.59692311c-.4608989-.74374218-1.2498187-1.2220756-2.1223931-1.28683761h-6.3904274v25.47692422h3.9466667c.6621547-.0047869 1.2932293-.281551 1.7452809-.7654117.4520516-.4838607.6853295-1.1322702.6451465-1.7932219V98.2673504l8.2912822 14.2741892h3.976752c.655077.0006469 1.281918-.2666547 1.734944-.7398276.453027-.4731729.69282-1.1110436.663688-1.7654727l-.009572-22.97162392zM266.494359 106.2099145V87.06461538h-6.337094v25.47692312h12.16c.667359-.0192897 1.297618-.3113854 1.743701-.8081249.446084-.4967396.668967-1.1546668.616641-1.8202512v-3.7032479h-8.183248zM247.965812 87.06461538h-12.289915v25.47692312h3.946667c.662155-.0047858 1.293229-.2815499 1.745281-.7654106.452051-.4838607.685329-1.1322702.645146-1.7932219v-4.9121368h5.954188c4.928987-.0607487 8.8928-4.0737162 8.8928-9.0030769s-3.963813-8.94232815-8.8928-9.00307692m.015043 11.53230772h-5.969231v-5.0598748h5.937778c1.397233-.0082622 2.536649 1.1176843 2.545003 2.5149175.008262 1.3972332-1.117684 2.5366494-2.514917 2.5449573M209.187008 112.5415385c1.207106.0510331 2.29011-.7367093 2.613334-1.9008547.084786-.2147009 1.877607-6.2673505 3.593846-12.1066667l3.418803 11.4707692.782223 2.5367522h3.302564c.995546-.0204377 1.886402-.6232646 2.275555-1.5398291.100539-.1971404.18514-.402011.252992-.6126496.136752-.4294017 6.903248-23.32444442 6.903248-23.32444442h-6.788377l-3.37094 11.54735042c-1.394872-4.6495726-2.735042-9.1336752-2.888205-9.65470084-.258277-1.0730468-1.196131-1.84520068-2.298803-1.89264958h-5.010599l-3.355897 11.48717952c-1.401709-4.6208547-2.766496-9.07213678-2.911453-9.60136755-.285218-1.12814146-1.311851-1.90974432-2.475214-1.88444444h-4.808205l7.608889 25.47008549 3.156239.0054701zM311.004444 112.5415385c1.207106.0510331 2.29011-.7367093 2.613334-1.9008547.084786-.2147009 1.877606-6.2673505 3.593846-12.1066667l3.418803 11.4707692.780855 2.5367522h3.302564c.995547-.0204377 1.886403-.6232646 2.275556-1.5398291a4.15180317 4.15180317 0 00.252991-.6126496c.136752-.4294017 6.904615-23.32444442 6.904615-23.32444442h-6.788376l-3.37094 11.54735042c-1.394872-4.6495726-2.735043-9.1336752-2.888205-9.65470084-.258277-1.0730468-1.196132-1.84520068-2.298803-1.89264958h-5.010599l-3.355897 11.48717952c-1.401709-4.6208547-2.766496-9.07213678-2.911453-9.60136755-.285218-1.12814146-1.311851-1.90974432-2.475214-1.88444444h-4.806837l7.608889 25.47008549 3.154871.0054701zM147.1685469 101.0488889c-.8326887-1.100274-1.9360704-1.9662073-3.2027351-2.5135043a30.61880374 30.61880374 0 00-4.865641-1.662906 33.9746657 33.9746657 0 01-3.6006837-1.1719658c-.797265-.3295726-1.4564103-.5470085-1.4564103-1.1801709-.0595973-.4240449.1473329-.8411641.5210256-1.0502564.8148669-.4205995 1.7280271-.6138134 2.6434188-.5593163.8880951-.0365125 1.7681591.1812499 2.5367522.6276923.3363367.1887199.6187972.4603527.8205128.7890599h7.0263248v-.3774359c-.0941669-1.3243965-.5796609-2.5909646-1.3948718-3.6389744-.9396029-1.2256682-2.1766306-2.19109581-3.5938462-2.80478631-1.6976114-.74961742-3.5396321-1.11568692-5.3948718-1.07213676-1.7776162-.04271049-3.5454327.27549648-5.1965812.93538462-1.4491689.5767512-2.7131627 1.53857814-3.6553846 2.78153845-.8699185 1.194464-1.3321531 2.6372689-1.3182906 4.1148718-.0424055 1.3876707.3309548 2.756341 1.0721368 3.9302564.7646768 1.1133716 1.8082305 2.0064989 3.0263248 2.5900855 1.459384.7132258 2.9898939 1.2706082 4.5661538 1.662906 1.7695727.4977777 3.102906.9121367 3.965812 1.2417094.5240059.1652972 1.0072377.4392993 1.4181196.8041025.191453.191453.191453.2447864.191453.5894017.0387124.4997519-.2114209.9777136-.6441025 1.2307693-2.0004989.8910824-4.2835679.8995198-6.2905983.0232478-.4183557-.2502674-.7540539-.6178237-.9654701-1.057094h-7.0112821a.8560714.8560714 0 00-.0082051.1682051v.0533334c.0687645 1.435061.5960154 2.8102271 1.5042735 3.9234188 1.0344472 1.2558949 2.3829114 2.2155787 3.9083761 2.7815384 1.7864017.6919357 3.6916309 1.0251185 5.6068376.9805129 2.7218542.1217104 5.4161529-.589073 7.7237607-2.0376069 2.0531095-1.3664378 3.26454-3.6881741 3.2109401-6.1538461.0465146-1.4032331-.3532846-2.7850543-1.1418803-3.9466667M109.4536751 98.014359l-9.2936752-16.09846156c-.7379104-1.13917219-1.9820527-1.85018347-3.3381197-1.90769231h-6.9292308a.66598227.66598227 0 00-.1914529 0H78.2235896c-1.3565112.05691328-2.6001654.77136382-3.33264956 1.91452991L65.59452979 98.014359c-.62066357 1.207174-.62066357 2.6396636 0 3.8468376l9.2991453 16.1066666c.73219881 1.1432951 1.97369841 1.8601528 3.32991451 1.9227351h18.5982906c1.3571989-.0617106 2.5999009-.7786737 3.3326496-1.9227351l9.2991453-16.1066666c.6206636-1.207174.6206636-2.6396636 0-3.8468376M99.0030768 82.58598291l3.394188 5.88034188-5.9459829 10.17572651-3.8919658-6.6652992c-.1194002-.2040001-.3379854-.3294265-.574359-.3295726h-7.7251282l5.9158975-10.30564104h6.6461538c.8770613.05909631 1.6787497.51662807 2.1757265 1.2417094M87.9466665 99.3244444l-3.7059829-6.3452991h7.3641026l3.7087179 6.3439316-7.3668376.0013675zm-1.2102564.6441026l-3.6635897 6.2755556-3.677265-6.3056411 3.6622222-6.2755555 3.6786325 6.305641zm1.1719658.6974359h7.325812l-3.6389744 6.237265h-7.3545299l3.6676923-6.237265zM76.0547007 82.58598291c.4958599-.72126984 1.2953934-1.17497733 2.1688889-1.23076923h10.4054701L82.7199999 91.6471795H70.82256397l5.23213673-9.06119659zM66.75555543 98.6844444l3.29162393-5.7052991H81.9090597l-3.8700855 6.6201709c-.1221506.2081308-.1221506.4660573 0 .6741881l3.8700855 6.628376H70.04717936l-3.2957265-5.699829c-.38327996-.7940005-.38327996-1.7195038 0-2.5135043m11.47213674 19.8632479c-.8797484-.0625923-1.6819459-.5259609-2.1757265-1.2567522l-5.23487178-9.059829H82.6748717l5.9678632 10.3165812H78.2235896zm20.7726496-1.2567522c-.4934903.7304296-1.295103 1.1937517-2.174359 1.2567522h-6.6311111l-5.9692308-10.3206838h7.7538462c.2363735-.0001462.4549588-.1255725.574359-.3295726l3.8618803-6.6078633 5.9377778 10.1989744-3.3531624 5.8023931zm9.2991453-16.1066666l-5.1719658 8.9654701-5.9158975-10.1675214 5.9637607-10.19350429 5.1336752 8.88888889c.38328.7940005.38328 1.7195038 0 2.5135043"/>
  </g>
</svg>