<svg xmlns="http://www.w3.org/2000/svg" viewBox="0 0 400 200">
  <g fill="none" fill-rule="nonzero">
    <path fill="#808080" d="M69.4675408 81.73009293l10.8506556 38.85833067c.7419251 2.5967381 3.5241445 4.1733291 6.1208826 3.4314039 2.6894787-.7419252 4.2660697-3.4314039 3.5241445-6.028142L79.112568 79.13335484c-.7419252-2.59673809-3.5241446-4.17332907-6.1208827-3.4314039-2.6894787.74192517-4.2660697 3.4314039-3.5241445 6.02814199z"/>
    <path fill="#808080" d="M89.592261 81.45187099L62.32651103 111.4998403c-1.85481292 2.0402942-1.66933162 5.1007355.46370323 6.9555484 2.04029421 1.7620723 5.19347614 1.576591 7.04828914-.4637032l27.1730092-30.0479693c1.854813-2.0402942 1.6693317-5.10073552-.4637032-6.95554844-1.9475536-1.76207227-5.1934762-1.57659098-6.9555484.46370323z"/>
    <path fill="#808080" d="M58.70962584 98.2379279l38.76559006 12.5199872c2.596738.8346658 5.4716981-.5564439 6.3063639-3.1531819.8346658-2.5967381-.5564439-5.3789575-3.153182-6.2136233l-38.76559-12.5199872c-2.59673808-.8346658-5.47169811.5564438-6.30636392 3.1531819-.83466582 2.5967381.55644387 5.3789575 3.15318196 6.2136233zM131.5110329 105.5644389c0-.9274064-.3709625-1.6693316-1.0201471-2.2257755-.6491845-.5564438-1.4838503-1.0201471-2.5039974-1.4838503-1.0201471-.4637032-2.0402942-.9274065-3.2459226-1.3911097-1.1128878-.4637032-2.2257755-1.1128877-3.2459226-1.7620723-1.0201471-.7419251-1.7620723-1.6693316-2.5039975-2.6894787-.6491845-1.0201471-.9274064-2.4112568-.9274064-4.0805884 0-1.3911097.2782219-2.6894787.7419251-3.7096259.4637033-1.0201471 1.1128878-1.9475535 2.0402943-2.6894787.9274064-.74192516 1.9475535-1.20562839 3.1531819-1.57659097 1.2056284-.37096258 2.5039975-.46370323 3.9878478-.46370323 1.6693316 0 3.3386632.18548129 4.8225136.46370323 1.4838503.27822194 2.7822194.74192517 3.7096258 1.29836904l-1.7620723 4.82251363c-.6491845-.3709626-1.5765909-.7419252-2.7822193-1.0201471-1.2056284-.3709626-2.5967381-.4637033-3.9878478-.4637033-1.2983691 0-2.4112568.278222-3.153182.8346658-.7419251.5564439-1.0201471 1.2056284-1.0201471 2.1330349 0 .8346658.278222 1.576591.9274065 2.1330349.6491845.5564438 1.4838503 1.1128877 2.5039974 1.5765909 1.0201471.4637033 2.1330349.9274065 3.2459226 1.4838504 1.2056284.4637032 2.2257755 1.1128877 3.2459226 1.8548129 1.0201471.7419252 1.854813 1.576591 2.5039975 2.6894787.6491845 1.0201471 1.0201471 2.3185162 1.0201471 3.8951072 0 1.5765909-.2782219 2.9677006-.8346658 4.0805884-.4637033 1.1128877-1.2056284 2.0402942-2.2257755 2.7822194-.9274065.7419251-2.0402942 1.298369-3.4314039 1.6693316-1.2983691.3709626-2.7822194.5564439-4.3588104.5564439-2.1330348 0-3.9878478-.1854813-5.5644387-.5564439-1.576591-.3709626-2.7822194-.7419252-3.5241446-1.2056284l1.8548129-4.9152542c.278222.1854812.7419252.3709625 1.2056284.5564438.4637033.1854813 1.0201471.3709626 1.6693316.5564439.6491846.1854813 1.2983691.2782219 1.9475536.4637032.7419252.0927407 1.3911097.1854813 2.1330349.1854813 1.6693316 0 2.9677006-.2782219 3.8951071-.8346658 1.0201471-.8346658 1.4838503-1.7620723 1.4838503-2.9677007zM159.611449 98.4234092c-.370963-1.3911097-1.020147-2.5039974-1.762073-3.5241445-.834665-1.0201471-1.854813-1.7620723-3.0604409-2.2257755-1.2056284-.5564439-2.6894788-.8346659-4.3588104-.8346659-3.1531819 0-5.5644387.9274065-7.326511 2.8749601-1.7620723 1.9475535-2.5967381 4.6370323-2.5967381 8.1611768 0 1.6693316.1854813 3.153182.5564439 4.5442917.4637032 1.3911097 1.0201471 2.5039974 1.8548129 3.5241445.8346658.9274065 1.8548129 1.6693316 3.153182 2.2257755 1.2056284.5564439 2.6894787.8346658 4.3588103.8346658 3.153182 0 5.5644383-.9274064 7.2337703-2.87496 1.762072-1.9475536 2.596738-4.6370323 2.596738-8.2539175 0-1.576591-.185481-3.0604413-.649184-4.451551zm-6.0281423 9.4595459c-.7419252 1.0201471-1.7620723 1.576591-3.153182 1.576591-.7419251 0-1.3911097-.1854813-1.9475535-.4637033-.5564439-.3709625-.9274065-.8346658-1.2983691-1.3911096-.3709626-.5564439-.5564439-1.2983691-.7419252-2.0402943-.1854812-.7419251-.2782219-1.6693316-.2782219-2.596738 0-2.3185162.3709626-3.9878478 1.1128878-4.9152543.7419251-.9274064 1.7620722-1.4838503 3.1531819-1.4838503 1.576591 0 2.5967381.5564439 3.2459226 1.7620723.6491846 1.2056284.9274065 2.6894787.9274065 4.6370323 0 2.2257755-.2782219 3.8951071-1.0201471 4.9152542zM169.90566 92.4880079v11.9635433c0 1.6693316.185482 2.9677007.556444 3.7096258.463703.7419252 1.205629 1.1128878 2.411257 1.1128878 1.020147 0 1.854813-.278222 2.596738-.9274065.741925-.6491845 1.205629-1.3911097 1.576591-2.2257755V92.4880079h5.471698v14.653022c0 1.1128878.092741 2.3185162.185482 3.4314039.09274 1.1128878.278221 2.1330349.463703 2.9677007h-4.080589l-.927406-3.153182h-.185481c-.649185 1.0201471-1.576591 1.9475536-2.689479 2.6894788-1.112888.7419251-2.503998 1.0201471-4.080589 1.0201471-1.020147 0-2.040294-.1854813-2.87496-.4637033-.834665-.2782219-1.576591-.7419251-2.133034-1.3911096-.556444-.6491846-1.020148-1.4838504-1.29837-2.5967381-.278221-1.1128878-.463703-2.5039975-.463703-4.0805885v-13.076431h5.471698zM199.95363 97.5887434c-.834666-.2782219-1.669332-.4637032-2.318516-.4637032-1.020148 0-1.762073.2782219-2.503998.8346658-.649184.4637032-1.112888 1.2056284-1.298369 1.9475535v13.5401344h-5.471698v-20.959386h4.26607l.649184 2.7822193h.185481c.463704-1.0201471 1.112888-1.8548129 1.947554-2.4112568.834666-.5564438 1.762072-.8346658 2.87496-.8346658.741925 0 1.576591.1854813 2.503997.4637033l-.834665 5.1007355zM218.501759 112.1490248c-.834666.6491845-1.854813 1.1128878-3.060441 1.3911097-1.205629.3709626-2.411257.4637032-3.616886.4637032-1.669331 0-3.153182-.2782219-4.266069-.8346658-1.112888-.5564439-2.133035-1.298369-2.78222-2.2257755-.741925-1.0201471-1.298369-2.1330348-1.576591-3.5241445-.278222-1.3911097-.463703-2.8749601-.463703-4.5442917 0-3.5241445.834666-6.3063639 2.411257-8.1611768 1.576591-1.9475536 3.895107-2.8749601 6.955548-2.8749601 1.576591 0 2.78222.0927407 3.709626.3709626.927407.278222 1.762072.5564439 2.596738.9274065l-1.298369 4.451551c-.649184-.2782219-1.298369-.5564439-1.947553-.7419252-.649185-.1854813-1.298369-.2782219-2.133035-.2782219-1.483851 0-2.689479.4637032-3.431404 1.4838503-.741925 1.0201471-1.205629 2.5967381-1.205629 4.729773 0 .9274064.092741 1.7620722.278222 2.5039974.185482.7419252.463704 1.3911097.927407 1.9475536.370962.5564438.927406 1.0201471 1.48385 1.298369.649185.278222 1.39111.4637032 2.225776.4637032.927406 0 1.669331-.0927406 2.318516-.3709625.649184-.278222 1.205628-.5564439 1.762072-.9274065l1.112888 4.451551zM238.440998 96.2903743c-.463703-1.1128877-1.112888-1.9475535-1.854813-2.596738-.741925-.6491846-1.669332-1.1128878-2.689479-1.3911097-1.020147-.278222-2.040294-.4637033-3.153182-.4637033-3.153182 0-5.657179.9274065-7.419252 2.7822194-1.762072 1.8548129-2.689478 4.6370323-2.689478 8.3466582 0 3.4314039.741925 6.1208826 2.318516 8.1611768 1.576591 1.9475536 4.080588 2.9677007 7.419252 2.9677007 1.669331 0 3.153182-.1854813 4.544291-.6491845 1.483851-.4637033 2.596738-1.0201472 3.431404-1.7620723l-1.762072-3.6168852c-.463703.3709626-1.205629.7419252-2.133035 1.1128877-.927406.3709626-1.947554.4637033-3.060441.4637033-1.854813 0-3.153182-.4637033-3.987848-1.2983691-.834666-.9274064-1.298369-2.2257755-1.298369-3.9878478h12.612728c.185481-.7419251.278222-1.3911096.278222-2.1330348.09274-.6491845.09274-1.2983691.09274-1.8548129.092741-1.576591-.185481-2.9677007-.649184-4.0805885zm-4.358811 4.729773h-7.790214c.185481-1.3911097.556444-2.5967381 1.205629-3.4314039.741925-.8346658 1.762072-1.2983691 3.153181-1.2983691 1.205629 0 2.133035.3709626 2.689479 1.2056284.649185.8346659.834666 1.9475536.741925 3.5241446zM258.194755 92.3952672c-1.391109-.2782219-2.9677-.3709626-4.822513-.3709626-3.431404 0-6.028142.9274065-7.790214 2.8749601-1.762073 1.9475535-2.689479 4.7297729-2.689479 8.5321394 0 3.6168852.649184 6.2136233 1.947553 7.8829549 1.298369 1.6693316 3.338664 2.5039974 6.120883 2.5039974 2.503997 0 4.26607-.6491845 5.193476-1.9475535h.185481v1.298369c0 1.4838504-.370962 2.5967381-1.020147 3.4314039-.649184.8346658-1.947553 1.2983691-3.895107 1.2983691-1.298369 0-2.318516-.0927407-3.153182-.3709626-.834666-.278222-1.576591-.4637033-2.225775-.7419252l-1.112888 4.3588104c.556444.2782219 1.48385.5564438 2.596738.9274064 1.205628.278222 2.782219.4637033 4.822514.4637033 2.9677 0 5.286216-.7419252 6.955548-2.2257755 1.669332-1.3911097 2.503998-3.7096259 2.503998-6.6773266V93.229933c-1.020148-.2782219-2.133035-.6491845-3.616886-.8346658zm-1.947553 14.1893189c-.278222.9274064-.741925 1.6693316-1.298369 2.1330348-.556444.4637032-1.39111.7419252-2.411257.7419252-1.298369 0-2.225776-.5564439-2.87496-1.576591-.649185-1.0201471-1.020147-2.5967381-1.020147-4.6370323 0-2.3185162.370962-3.9878478 1.205628-5.0079949.741925-1.0201471 1.854813-1.576591 3.245923-1.576591 1.298369 0 2.411257.1854813 3.245922.5564439v9.3668053h-.09274zM278.041254 97.5887434c-.834666-.2782219-1.669332-.4637032-2.318517-.4637032-1.020147 0-1.762072.2782219-2.503997.8346658-.649185.4637032-1.112888 1.2056284-1.298369 1.9475535v13.5401344h-5.471698v-20.959386h4.26607l.649184 2.7822193h.185481c.463704-1.0201471 1.112888-1.8548129 1.947554-2.4112568.834666-.5564438 1.762072-.8346658 2.87496-.8346658.741925 0 1.576591.1854813 2.503997.4637033l-.834665 5.1007355zM298.444196 110.3869525c-.092741-1.1128877-.092741-2.3185161-.092741-3.5241445 0-1.2056284.092741-2.4112568.185481-3.6168852.092741-1.298369.092741-2.5039974.092741-3.7096258 0-1.1128878-.092741-2.1330349-.370963-3.0604414-.185481-.9274064-.649184-1.6693316-1.205628-2.3185161-.556444-.6491845-1.298369-1.1128878-2.318516-1.4838503-1.020147-.3709626-2.225776-.5564439-3.616885-.5564439-1.669332 0-3.245923.1854813-4.822514.4637032s-2.87496.6491845-3.987848 1.2056284l1.298369 4.0805884c.741926-.3709626 1.762073-.6491845 2.967701-.9274064 1.205628-.1854813 2.411257-.3709626 3.524145-.3709626 1.48385 0 2.411256.3709626 2.782219 1.0201471.463703.6491845.556444 1.7620723.370963 3.3386632-1.854813-.0927406-3.524145 0-5.007995.1854813-1.483851.1854813-2.78222.5564439-3.895107 1.1128878-1.020148.5564439-1.854813 1.2056284-2.503998 2.1330348-.556444.8346659-.834666 1.9475536-.834666 3.2459227 0 .9274064.185482 1.7620722.463703 2.5039974.278222.7419252.741926 1.3911097 1.29837 1.9475536.556443.5564438 1.205628.9274064 2.040294 1.298369.741925.2782219 1.669331.4637032 2.689478.4637032 1.576591 0 2.874961-.2782219 3.802367-.9274064 1.020147-.6491845 1.762072-1.3911097 2.318516-2.2257755h.185481l.927407 2.87496h4.451551c-.463703-1.0201471-.649185-2.0402942-.741925-3.153182zm-5.842661-3.3386632c-.278222.5564439-.741925 1.1128877-1.39111 1.576591-.649184.4637032-1.48385.7419251-2.596738.7419251-.834666 0-1.48385-.1854813-1.947553-.6491845-.463704-.4637032-.649185-1.0201471-.649185-1.8548129 0-.5564439.185481-1.0201471.556444-1.3911097.370963-.3709626.834666-.6491845 1.48385-.8346658.649185-.1854813 1.298369-.278222 2.133035-.3709626.834666-.0927406 1.669332 0 2.503998 0v2.7822194h-.092741zM320.052766 94.4355614c-1.298369-1.6693316-3.245922-2.5039974-5.935401-2.5039974-1.39111 0-2.689479.2782219-3.616885.7419252-1.020147.4637032-1.854813 1.298369-2.596738 2.3185161h-.185482l-.649184-2.5039974h-3.987848v29.3987847h5.471698v-8.62488c.556444.2782219 1.112888.4637032 1.669332.5564438.556444.1854813 1.298369.1854813 2.133035.1854813 1.576591 0 2.87496-.2782219 4.080588-.8346658 1.205628-.5564439 2.225776-1.298369 3.060441-2.3185161.834666-1.0201471 1.483851-2.2257755 1.854813-3.6168852.463704-1.4838504.649185-3.0604413.649185-4.9152543.09274-3.6168852-.556444-6.2136232-1.947554-7.8829549zm-4.822513 13.354653c-.741926 1.1128878-1.947554 1.6693317-3.524145 1.6693317-.741925 0-1.39111-.0927407-1.854813-.278222-.463703-.1854813-.834666-.4637032-1.298369-.7419251v-8.7176208c.370963-1.0201471.834666-1.8548129 1.39111-2.4112567.649184-.5564439 1.48385-.8346659 2.503997-.8346659 1.39111 0 2.411257.4637033 2.967701 1.4838504.556444 1.0201471.927406 2.4112568.927406 4.2660697.092741 2.5967381-.278222 4.451551-1.112887 5.5644387zM339.25008 113.5401345v-11.9635433c0-1.6693317-.278222-2.9677007-.741925-3.7096259-.463703-.7419251-1.298369-1.1128877-2.596738-1.1128877-.927407 0-1.762073.2782219-2.596738.9274064-.741926.6491846-1.298369 1.3911097-1.483851 2.4112568v13.4473937h-5.471698V84.04860908h5.471698V94.806524h.185482c.649184-.9274064 1.48385-1.576591 2.503997-2.1330348 1.020147-.5564439 2.225776-.8346659 3.709626-.8346659 1.020147 0 2.040294.1854813 2.782219.4637033.741925.2782219 1.483851.7419251 2.040294 1.3911097.556444.6491845.927407 1.4838503 1.205629 2.6894787.278222 1.1128877.463703 2.4112568.463703 4.0805884v13.0764311h-5.471698z"/>
  </g>
</svg>