<svg xmlns="http://www.w3.org/2000/svg" viewBox="0 0 400 200">
  <g fill="#101010" fill-rule="evenodd">
    <path d="M145.5936884 112.2137343c0 1.3487214-1.0935761 2.4418484-2.4411746 2.4418484h-24.5734577c-1.34804768 0-2.44117462-1.093127-2.44117462-2.4418484V87.6396027c0-1.34872145 1.09312694-2.442073 2.44117462-2.442073h24.5734577c1.3475985 0 2.4411746 1.09335155 2.4411746 2.442073v24.5741316zm.6809865-35.43510133h-30.82114884c-4.27211169 0-7.73543971 3.46265422-7.73543971 7.73566432v30.81980121c0 4.2723363 3.46332802 7.7367873 7.73543971 7.7367873h30.82114884c4.2721117 0 7.7367873-3.464451 7.7367873-7.7367873V84.51429729c0-4.2730101-3.4646756-7.73566432-7.7367873-7.73566432z"/>
    <path d="M125.9531148 106.2068142c-.7768905 0-1.400604-.6304515-1.400604-1.4077912v-9.8093937c0-.7784628.6237135-1.4086896 1.400604-1.4086896h9.8239927c.7748691 0 1.4008286.6302268 1.4008286 1.4086896v9.8093937c0 .7773397-.6259595 1.4077912-1.4008286 1.4077912h-9.8239927M177.5627665 97.8624846c-1.4338447-.3910282-2.7895288-.7602702-3.8417786-1.2290098-1.9499749-.871447-2.8575825-2.0786706-2.8575825-3.7995539 0-3.2533272 3.1511344-4.7094074 6.2744184-4.7094074 2.9754974 0 5.5745656 1.2296836 7.3201548 3.4631035l.1197117.1525032 2.5161909-1.9663708-.1210593-.1534016c-2.3167463-2.95079139-5.7526732-4.57599512-9.6753077-4.57599512-2.6118704 0-5.007002.70569239-6.7449548 1.98680932-1.9434616 1.4336201-2.97123 3.4952212-2.97123 5.9624493 0 5.7382989 5.4047682 7.1386782 9.7471796 8.2641476 4.3951923 1.1591592 7.0885924 2.0398148 7.0885924 5.3966826 0 3.298921-2.6675711 5.4296987-6.7959389 5.4296987-2.0416117 0-5.8220746-.5410608-8.1974414-4.1708172l-.1109523-.1702466-2.6455604 1.9165096.1026421.1549738c2.2401578 3.4006647 6.1216906 5.3519873 10.6482738 5.3519873 6.1479687 0 10.2792564-3.468943 10.2792564-8.6315927 0-5.912139-5.6188118-7.4425617-10.1346142-8.6724698M200.7940162 112.2463012c-3.2272737 0-6.6762273-2.1449275-6.6762273-8.1637514 0-3.9260035 1.7534502-8.1215267 6.6762273-8.1215267 4.2260688 0 6.9572018 3.188418 6.9572018 8.1215267 0 4.9598361-2.731133 8.1637514-6.9572018 8.1637514zm6.9572018-18.6831049v3.1059898c-1.7080812-2.3192169-4.2422401-3.5875317-7.2002187-3.5875317-5.6259989 0-9.555596 4.5402838-9.555596 11.040425 0 6.4785795 3.9295971 11.0035905 9.555596 11.0035905 2.9772942 0 5.5110039-1.2662933 7.2002187-3.5819167v11.5271326h2.958877V93.5631963h-2.958877zM230.264871 93.5631963v11.6457212c0 4.0773837-2.790876 7.0373837-6.636697 7.0373837-3.194932 0-4.747365-1.894948-4.747365-5.7928765V93.5631963h-2.960449v13.4930541c0 5.0525958 2.746855 8.0694195 7.346433 8.0694195 2.865668 0 5.328404-1.21486 6.998078-3.4368252v2.9548342h2.957979V93.5631963h-2.957979M245.304744 112.2463012c-1.366914 0-4.547246-.3654237-4.547246-3.7447515 0-2.3499871 1.488871-3.0509629 4.422144-3.5852856.29737-.0545778.604847-.1084817.919062-.1630595 1.839247-.3196054 3.907586-.6794142 5.359174-1.5897169v3.0496153c0 4.4484225-3.178535 6.0331982-6.153134 6.0331982zm1.607685-19.1646468c-2.976845 0-5.935722.9819501-8.117259 2.692951l-.139926.1100538 1.546369 2.3443721.167552-.145316c1.839696-1.5955566 4.545-2.1637939 6.462633-2.1637939 1.085715 0 4.62608.2120221 4.62608 2.9402352 0 2.4133242-2.941582 2.8640959-5.787261 3.3004932-.351499.053904-.700302.1073587-1.04102.164407-2.080692.3465574-6.953383 1.1591593-6.953383 6.3397769 0 3.9846241 2.815357 6.4608362 7.347331 6.4608362 2.779422 0 4.941644-.9480355 6.434333-2.8189513v2.3369603h2.960225V99.3421477c0-3.9201639-2.8057-6.2604933-7.505674-6.2604933zM271.54563 93.9616362c-.703222-.501082-1.810948-.8004734-2.96539-.8004734-2.333816 0-4.699974 1.2429349-5.993669 3.0882464v-2.6862129h-2.958877v21.0804826h2.958877v-11.2843403c0-4.9998148 2.809294-7.2381758 5.592084-7.2381758.862463 0 1.789836.1958509 2.360993.499959l.199669.1057865.925576-2.6808226-.119263-.0844495M275.638287 102.0025316c.400461-3.7034251 2.961572-6.0826102 6.57628-6.0826102 4.383962 0 6.202771 3.1032946 6.458815 6.0826102h-13.035095zm6.656462-8.9208772c-5.815785 0-9.876773 4.5571288-9.876773 11.0806283 0 6.5576387 4.065255 10.9633872 10.116646 10.9633872 4.289855 0 6.885554-2.0699112 8.308618-3.806741l.118364-.1444176-2.143355-1.9099962-.128022.1650808c-1.407791 1.8165627-3.536548 2.8167053-5.995016 2.8167053-4.288059 0-7.080957-2.9950375-7.155524-7.6469474h16.170283l.018867-.1727172c.019765-.1751878.081979-.8018211.081979-1.5088611 0-5.7913043-3.913426-9.8361211-9.516067-9.8361211z"/>
  </g>
</svg>