<svg xmlns="http://www.w3.org/2000/svg" viewBox="0 0 400 200">
  <path fill="#101010" fill-rule="nonzero" d="M124.7726882 79.40049144c.313914.0358984.5807407.28275528.6795655.56880987l.0289481.10877237 1.0197296 5.24565289c1.3694495.53049858 2.6586764 1.23650034 3.819625 2.10697477l.4292487.33411608 5.1449999-1.7635086c.3332883-.14359358.6864415-.04038577.9358559.24680139 1.7701801 1.98787371 3.207072 4.38857879 4.0413962 6.91044109.1294896.2911758.0619108.6302163-.1593306.8469361l-.0900838.0752038-4.0833332 3.484388c.1456757.7785465.1876127 1.6199151.1876127 2.4388471 0 .6587357-.0268397 1.3275228-.1121615 1.9673039l-.0754512.473787 4.0833332 3.4866316c.2913513.2041721.3950901.5945672.2494144.92214-.832117 2.5218622-2.2690088 4.9203238-4.039189 6.9081973-.2236636.2552775-.5275498.3651887-.8263978.2856114l-.1116653-.0388098-5.1449999-1.7635088c-1.128128.9114205-2.3887975 1.6615196-3.7370529 2.232964l-.5096136.2058833-1.0219368 5.2501402c-.0618019.3298166-.3553604.6349529-.7085136.6775822-1.3331531.2445578-2.6663062.3881514-4.0391891.3881514-1.3750899 0-2.7082431-.1435936-4.0413961-.3881514-.313914-.0378927-.5807408-.2831985-.6795656-.5688837l-.028948-.1086985-1.0197296-5.2501402c-1.3865676-.5330912-2.7248635-1.2515527-3.8732911-2.1373927l-.3755828-.3014546-5.14499976 1.7635088c-.33328835.1435935-.68644148.0403856-.93806304-.2468016-1.77018019-1.9878735-3.20707203-4.3863351-4.03918907-6.9081973-.12948954-.2911758-.06191077-.631989.15933064-.8475271l.0900837-.0746129 4.08112608-3.4866316c-.14567568-.7785464-.18761268-1.6176714-.18761268-2.4410909 0-.6551456.02683966-1.3246507.11216145-1.9648626l.07545123-.4739845-4.08112608-3.484388c-.29135123-.2064157-.39729723-.5945671-.24941434-.9221399.83211704-2.5218623 2.26900888-4.92256738 4.03918907-6.91044109.2236636-.25527744.52754973-.36341583.82639775-.2850204l.11166529.03821901 5.14499976 1.7635086c1.1044865-.92281306 2.4127865-1.67842943 3.7881303-2.25539967l.4607436-.18569118 1.0197296-5.24565289c.0618019-.3298165.3553603-.63719648.7085136-.67758224 2.6663062-.53398855 5.414279-.53398855 8.0805852 0zM238.914004 93.4685409c1.027725 0 1.979323.2248995 2.854793.6746987.87547.4497992 1.630404 1.0995092 2.264802 1.9491299.634399.8496207 1.132402 1.8897813 1.494009 3.1204819.361608 1.2307005.542411 2.6269523.542411 4.188755 0 1.4618474-.206179 2.811245-.618538 4.0481928-.41236 1.2369478-.989662 2.3114681-1.731908 3.2235609-.742247.9120929-1.630405 1.6242749-2.664474 2.1365462-1.034069.5122713-2.179159.768407-3.435268.768407-1.027725 0-1.890507-.1436859-2.588346-.4310576-.697838-.2873717-1.332237-.6746988-1.903196-1.1619813v7.4591701h-5.899905v-25.601071h3.654136l.178953.0067678c.289884.0225594.537916.1015172.744096.2368734.247415.1624275.421875.4060688.523379.7309237l.437735 1.4243642.290832-.3022088c.296184-.2951808.608427-.5692772.936728-.8222893.437735-.3373493.90719-.6278446 1.408365-.8714859.501175-.2436412 1.040414-.4341811 1.617716-.5716198.577304-.1374386 1.208529-.2061579 1.89368-.2061579zm-55.4971804.0749664c1.3068608 0 2.502702.1999109 3.5875233.5997323 1.0848214.3998215 2.0173872.9808122 2.7976974 1.7429719.7803103.7621598 1.3893324 1.6961179 1.8270674 2.8018742.4377351 1.1057563.6566026 2.3583222.6566026 3.7576974 0 .4373048-.0190315.7933958-.0570957 1.0682731-.0380641.2748773-.1078482.4935298-.2093512.6559572-.101504.1624275-.2379001.2748773-.4091872.3373493-.1712881.0624722-.3901557.0937082-.6566026.0937082h-11.381109l.0422087.3188994c.2163158 1.4604036.703421 2.5317031 1.4613158 3.2138985.8120301.7309238 1.8587876 1.0963855 3.1402726 1.0963855.6851503 0 1.2751409-.0812137 1.7699719-.2436412.4948308-.1624275.9357379-.3435966 1.3227204-.5435074.3869836-.1999107.7422461-.3810798 1.0657898-.5435073.3235437-.1624275.6629468-.2436412 1.0182093-.2436412.469455 0 .8247186.1686746 1.0657898.506024l1.712876 2.0803214-.2639224.2866704c-.5336719.5576592-1.1023 1.0212278-1.7058853 1.3907057-.7041819.4310576-1.4273965.768407-2.1696426 1.0120482-.7422461.2436413-1.4844922.4123159-2.2267383.5060241-.7422467.0937082-1.449601.1405623-2.1220634.1405623-1.3829887 0-2.6803337-.221776-3.8920348-.665328-1.2117011-.443552-2.2711466-1.1026328-3.1783365-1.9772424-.9071898-.8746095-1.6240601-1.9616242-2.1506109-3.2610441-.5265507-1.2994199-.7898261-2.811245-.7898261-4.5354752 0-1.2994199.2252115-2.5301205.6756344-3.6921018.4504229-1.1619812 1.0975094-2.1802767 1.9412595-3.0548862.8437499-.8746096 1.8651315-1.56805 3.0641447-2.0803212 1.1990131-.5122714 2.5534539-.7684071 4.0633224-.7684071zm31.5549804 0c1.306861 0 2.502703.1999109 3.587524.5997323 1.084822.3998215 2.017387.9808122 2.797698 1.7429719.78031.7621598 1.389332 1.6961179 1.827067 2.8018742s.656603 2.3583222.656603 3.7576974c0 .4373048-.019032.7933958-.057096 1.0682731-.038064.2748773-.107848.4935298-.209351.6559572-.101504.1624275-.2379.2748773-.409187.3373493-.171289.0624722-.390156.0937082-.656603.0937082H211.12735l.042209.3188994c.216315 1.4604036.70342 2.5317031 1.461316 3.2138985.81203.7309238 1.858787 1.0963855 3.140272 1.0963855.685151 0 1.275141-.0812137 1.769972-.2436412s.935738-.3435966 1.32272-.5435074c.386984-.1999107.742246-.3810798 1.06579-.5435073.323543-.1624275.662947-.2436412 1.018209-.2436412.469455 0 .824719.1686746 1.06579.506024l1.712876 2.0803214-.263922.2866704c-.533672.5576592-1.1023 1.0212278-1.705885 1.3907057-.704182.4310576-1.427397.768407-2.169643 1.0120482-.742246.2436413-1.484492.4123159-2.226738.5060241-.742248.0937082-1.449602.1405623-2.122064.1405623-1.382989 0-2.680334-.221776-3.892035-.665328-1.211701-.443552-2.271146-1.1026328-3.178336-1.9772424-.90719-.8746095-1.624061-1.9616242-2.150612-3.2610441-.52655-1.2994199-.789825-2.811245-.789825-4.5354752 0-1.2994199.225212-2.5301205.675634-3.6921018.450424-1.1619812 1.09751-2.1802767 1.94126-3.0548862.84375-.8746096 1.865132-1.56805 3.064144-2.0803212 1.199014-.5122714 2.553454-.7684071 4.063322-.7684071zm43.050282 0c1.497181 0 2.861137.2311469 4.091871.6934405 1.230733.4622937 2.287006 1.124498 3.168821 1.9866131.881814.8621151 1.566963 1.908523 2.055451 3.1392236.488486 1.2307006.73273 2.6144578.73273 4.1512717 0 1.5493084-.244244 2.94556-.73273 4.1887551-.488488 1.243195-1.173637 2.2989736-2.055451 3.1673359-.881815.8683624-1.938088 1.5368139-3.168821 2.0053548-1.230734.4685408-2.59469.7028113-4.091871.7028113-1.509868 0-2.883341-.2342705-4.120418-.7028113-1.237076-.4685409-2.302866-1.1369924-3.197368-2.0053548-.894501-.8683623-1.585996-1.9241409-2.074483-3.1673359-.488487-1.2431951-.732731-2.6394467-.732731-4.1887551 0-1.5368139.244244-2.9205711.732731-4.1512717.488487-1.2307006 1.179982-2.2771085 2.074483-3.1392236.894502-.8621151 1.960292-1.5243194 3.197368-1.9866131 1.237077-.4622936 2.61055-.6934405 4.120418-.6934405zm36.046523-5.34136544v5.67871494h4.796053v3.9732261h-4.796053v9.6519412l.006798.1879901c.027188.366418.135942.6754637.326261.927137.22204.293619.542411.4404285.961114.4404285.215695 0 .396499-.0218653.542411-.0655957.145911-.0437305.272791-.0937082.380639-.1499332.107848-.0562248.209352-.1062025.304512-.149933.095159-.0437305.206179-.0655957.333058-.0655957.177632 0 .320372.0406069.428219.1218207.107848.0812137.218868.2092814.33306.3842034l1.789003 2.75502-.28994.2042546c-.686934.4612198-1.446725.8148218-2.279373 1.0608058-.951599.2811244-1.934916.4216867-2.949953.4216867-.93891 0-1.766801-.1343151-2.483671-.4029451-.716869-.2686302-1.319548-.64971-1.808035-1.1432397-.488488-.4935296-.859611-1.0901383-1.11337-1.7898259-.253759-.6996877-.380638-1.4805891-.380638-2.3427042V97.8540829h-1.674812l-.148555-.0080693c-.241424-.0268976-.45201-.1210396-.631756-.2824259-.215695-.1936635-.323543-.4779117-.323543-.8527443v-2.2677376l3.140272-.5997323 1.16095-4.7416332.043879-.14368586c.182214-.50394165.598977-.75591258 1.250293-.75591258h3.083177zm-121.7664472-2.23025427v5.02275771h-7.8031015v22.2838018h-6.4328007V90.9946453h-7.8031015v-5.02275771h22.0390037zm29.4614662-.7496654v28.05622491h-5.8999061V85.22222219h5.8999061zm80.467106 8.24631871c.900845 0 1.624059.2124051 2.169642.6372155l-.761278 4.2730923-.036542.1480589c-.056841.1849175-.146165.3198573-.26797.4048193-.152255.1062026-.355262.1593039-.609022.1593039-.215695 0-.469455-.0281125-.761278-.0843373-.291823-.056225-.659775-.0843375-1.103853-.0843375-1.547932 0-2.765978.8121376-3.654136 2.4364124v11.9196787h-5.899906V93.8433735h3.501879l.209947.0046855c.201026.0093707.375287.0327978.522784.070281.196664.0499777.361607.1280678.494831.2342705.133224.1062025.234727.2467648.304511.4216867.069784.1749219.130052.3873271.180803.6372155l.323544 1.8179385.244361-.3579421c.660401-.9316828 1.390978-1.6807312 2.19173-2.2471449.900846-.6372156 1.884163-.9558233 2.949953-.9558233zm-161.4999294-5.75742977c-6.7821874 0-12.27767939 5.50271827-12.27767939 12.28888887 0 6.7861706 5.49549199 12.2888889 12.27767939 12.2888889S133.010691 106.7861706 133.010691 100s-5.497699-12.28888887-12.2798864-12.28888887zM236.858553 97.9103079c-.431391 0-.821546.0406068-1.170465.1218206-.34892.0812137-.672462.1967872-.97063.3467202-.298167.1499331-.57413.340473-.82789.5716198-.253759.2311468-.507519.4966533-.761279.7965194v8.2463187l.192651.1998469c.38996.3817174.807887.6555747 1.253779.8215721.520206.1936635 1.065788.2904953 1.636747.2904953.545584 0 1.046757-.1062026 1.503525-.3186078.456767-.2124051.853265-.5528781 1.189496-1.021419.336233-.4685408.599507-1.0776439.789827-1.8273092.19032-.7496653.28548-1.6617582.28548-2.7362785 0-1.0245426-.076129-1.8866577-.228384-2.5863454-.152256-.6996876-.364779-1.2650602-.63757-1.6961177-.272791-.4310576-.599507-.7402946-.980146-.9277109-.380639-.1874163-.805686-.2811245-1.275141-.2811245zm21.163533-.056225c-1.395676 0-2.417058.4685409-3.064144 1.4056226-.647086.9370816-.97063 2.367693-.97063 4.291834 0 1.924141.323544 3.357876.97063 4.3012048.647086.9433289 1.668468 1.4149933 3.064144 1.4149933 1.357614 0 2.356791-.4716644 2.997534-1.4149933.640742-.9433288.961113-2.3770638.961113-4.3012048 0-1.924141-.320371-3.3547524-.961113-4.291834-.640743-.9370817-1.63992-1.4056226-2.997534-1.4056226zm-129.5187963-3.2207496v3.6601308l-5.9214474-.0006045.0003947 8.7849182h-3.7006578l-.0001579-8.7849182-5.9208948.0006045v-3.6601308h15.5427632zm55.0277256 2.9208836c-1.1292294 0-2.0110433.3154841-2.6454418.9464524-.6343985.6309683-1.0531015 1.5399376-1.256109 2.7269077h7.3653661c0-.4622937-.0602678-.9120929-.1808033-1.3493977-.1205356-.4373047-.3171995-.8277554-.5899906-1.171352-.2727911-.3435966-.6312263-.6215975-1.0753052-.8340026-.4440791-.2124052-.9833177-.3186078-1.6177162-.3186078zm31.5549817 0c-1.12923 0-2.011044.3154841-2.645442.9464524-.634399.6309683-1.053101 1.5399376-1.25611 2.7269077h7.365367c0-.4622937-.060268-.9120929-.180803-1.3493977-.120536-.4373047-.3172-.8277554-.589991-1.171352-.272791-.3435966-.631227-.6215975-1.075305-.8340026-.444079-.2124052-.983318-.3186078-1.617716-.3186078z"/>
</svg>