<svg xmlns="http://www.w3.org/2000/svg" viewBox="0 0 400 200">
  <g fill="none" fill-rule="evenodd">
    <path fill="#101010" fill-rule="nonzero" d="M126.2658762 113.2866525V86.58250491c0-2.70476093 0-2.70476093 2.8519588-2.70476093s2.8519588 0 2.8519588 2.70476093v26.70414759c0 2.7047609 0 2.7047609-2.8519588 2.7047609s-2.8519588 0-2.8519588-2.7047609zM140.1392758 111.7533413V88.1158161c0-4.24420537 0-4.24420537 4.2442053-4.24420537h6.9183001c9.2673328 0 14.9712504 4.62446654 15.5784416 12.15609107a37.22878024 37.22878024 0 010 6.5993714c-.6133244 7.4825585-6.317242 13.3643402-15.5784416 13.3643402h-6.9183001c-4.2442053 0-4.2442053 0-4.2442053-4.2380721zm11.0398405-1.1714497c6.3417751 0 9.6046613-3.5818149 9.972656-8.5068105a29.49477611 29.49477611 0 000-5.4769875c-.4170607-4.97406151-3.6308809-7.30469451-9.972656-7.30469451h-5.3297897v21.28849251h5.3297897zM174.5222458 111.7533413V88.1158161c0-4.24420537 0-4.24420537 4.2442054-4.24420537h16.0691008c2.802893 0 2.802893 0 2.802893 2.631162 0 2.63116199 0 2.68022795-2.802893 2.68022795h-14.5971221v8.26761392h13.1926091c2.680228 0 2.680228 0 2.680228 2.5084971s0 2.5330301-2.680228 2.5330301h-13.1926091v8.1878817h14.7197871c2.802893 0 2.802893 0 2.802893 2.606629 0 2.7047609 0 2.7047609-2.802893 2.7047609h-16.1917658c-4.2442054 0-4.2442054 0-4.2442054-4.2380721zM205.826327 111.7533413V86.60703789c0-2.75382689 0-2.75382689 2.827426-2.75382689s2.851959 0 2.851959 2.70476093v24.12205157h14.192328c2.876492 0 2.876492 0 2.876492 2.680228 0 2.6802279 0 2.6312232-2.876492 2.6312232h-15.627508c-4.244205 0-4.244205 0-4.244205-4.2381334zM236.664282 113.2866525V86.58250491c0-2.70476093 0-2.70476093 2.851958-2.70476093 2.851959 0 2.851959 0 2.851959 2.70476093v26.70414759c0 2.7047609 0 2.7047609-2.851959 2.7047609-2.851958 0-2.851958 0-2.851958-2.7047609zM250.470215 113.2866525V88.14034907c0-4.24420536 0-4.24420536 4.244206-4.24420536h16.069101c2.753827 0 2.77836 0 2.77836 2.68022796 0 2.68022795 0 2.63116199-2.77836 2.63116199h-14.603256v8.58654264h13.536071c2.77836 0 2.77836 0 2.77836 2.582096 0 2.5820961 0 2.631162-2.77836 2.631162h-13.536071v10.2793182c0 2.7047609 0 2.7047609-2.851959 2.7047609-2.851958 0-2.858092 0-2.858092-2.7047609zM115.2873681 83.87774398H92.92555774C90 83.87774398 90 83.87774398 90 86.55797193s0 2.631162 2.92555774 2.631162h8.34121286v9.47586317l5.6793846-4.4527357v-5.02312747h8.3412129c2.8764918 0 2.8764918 0 2.8764918-2.631162s0-2.68022795-2.8764918-2.68022795zM101.2667706 104.1603843v9.0526693c0 2.7047609 0 2.7047609 2.8519588 2.7047609s2.8274294 0 2.8274294-2.7538269V99.7076487l-5.6793882 4.4527356zM284.503591 83.87774398h22.36181c2.925558 0 2.925558 0 2.925558 2.68022795s0 2.631162-2.925558 2.631162h-8.341213v9.47586317l-5.679385-4.4527357v-5.02312747h-8.341212c-2.876492 0-2.876492 0-2.876492-2.631162s.006133-2.68022795 2.876492-2.68022795zM298.530321 104.1603843v9.0526693c0 2.7047609 0 2.7047609-2.851959 2.7047609-2.851958 0-2.827429 0-2.827429-2.7538269V99.7076487l5.679388 4.4527356z"/>
  </g>
</svg>