<svg width="400" height="200" xmlns="http://www.w3.org/2000/svg">
  <path d="M146.306 104.194V79.942h-5.894v24.589c0 9.263 6.456 15.382 14.877 15.382 4.098 0 7.747-1.571 10.386-4.322v3.649h5.838V79.942h-5.894v24.252c0 6.232-4.21 10.442-9.656 10.442-5.502 0-9.657-4.098-9.657-10.442zm31.003 15.046h5.614v-3.593a14.287 14.287 0 0010.217 4.266c8.421 0 15.046-6.68 15.046-14.933 0-8.309-6.625-14.99-15.046-14.99a14.157 14.157 0 00-10.161 4.267V79.942h-5.67v39.298zm5.557-14.26c0-5.558 4.436-9.937 9.881-9.937 5.39 0 9.825 4.38 9.825 9.937 0 5.502-4.435 9.937-9.825 9.937-5.502 0-9.88-4.435-9.88-9.937zm28.683-.056c0 8.533 6.625 14.933 15.214 14.933 5.221 0 9.488-2.301 12.35-6.119l-4.097-3.032c-2.134 2.864-4.94 4.211-8.253 4.211-4.828 0-8.702-3.48-9.488-8.14h23.299v-1.853c0-8.533-6.064-14.877-14.316-14.877-8.365 0-14.709 6.793-14.709 14.877zm14.596-9.937c4.211 0 7.748 2.92 8.702 7.298h-17.46c1.011-4.379 4.548-7.298 8.758-7.298zm33.3.674v-5.277h-1.965c-3.144 0-5.445 1.46-6.849 3.761v-3.537h-5.614v28.632h5.67v-16.28c0-4.436 2.695-7.3 6.4-7.3h2.358z" fill="#b0b0b0" fill-rule="nonzero"/>
</svg>