<?xml version="1.0" standalone="no"?><!DOCTYPE svg PUBLIC "-//W3C//DTD SVG 1.1//EN" "http://www.w3.org/Graphics/SVG/1.1/DTD/svg11.dtd" ><svg xmlns="http://www.w3.org/2000/svg"><metadata></metadata><defs><font id="com.myfonts.paratype.din-2014.narrow-regular.wfkit2.hCyN" horiz-adv-x="3054"><font-face font-family="" font-weight="400" font-stretch="normal" units-per-em="1000" panose-1="2 11 5 6 2 2 2 2 2 4" ascent="779" descent="-221" x-height="4" bbox="-279 -243 3054 1010" underline-thickness="50" underline-position="-75" unicode-range="U+0020-f4f1" /><missing-glyph horiz-adv-x="200"  /><glyph glyph-name="space" unicode=" " d="" /><glyph glyph-name="exclam" unicode="!" d="M139 690 l0 -501 l-86 0 l0 501 l86 0 ZM144 0 l0 96 l-96 0 l0 -96 l96 0 Z" /><glyph glyph-name="quotedbl" unicode="&quot;" d="M118 690 l0 -169 l-86 0 l0 169 l86 0 ZM264 690 l0 -169 l-86 0 l0 169 l86 0 Z" /><glyph glyph-name="numbersign" unicode="#" d="M15 494 l99 0 l29 196 l86 0 l-29 -196 l102 0 l28 196 l87 0 l-28 -196 l80 0 l0 -78 l-94 0 l-17 -132 l81 0 l0 -78 l-95 0 l-30 -206 l-86 0 l29 206 l-101 0 l-29 -206 l-88 0 l30 206 l-84 0 l0 78 l98 0 l17 132 l-85 0 l0 78 ZM188 416 l-19 -132 l101 0 l19 132 l-101 0 Z" /><glyph glyph-name="dollar" unicode="$" d="M243 376 q77 -31 113 -75 q36 -44 36 -119 q0 -73 -35 -125 q-35 -52 -114 -63 l0 -110 l-74 0 l0 110 q-101 10 -157 113 l68 46 q24 -39 42.5 -57 q18.5 -18 46.5 -24 l0 241 q-143 59 -143 198 q0 74 35.5 125 q35.5 51 107.5 60 l0 116 l74 0 l0 -116 q87 -12 140 -113 l-66 -40 q-32 65 -74 73 l0 -240 ZM243 289 l0 -217 q37 8 50 36 q13 28 13 74 q0 81 -63 107 ZM169 403 l0 215 q-57 -10 -57 -107 q0 -82 57 -108 Z" /><glyph glyph-name="percent" unicode="%" d="M407 690 l78 0 l-308 -690 l-79 0 l309 690 ZM20 553 q0 71 31.5 108 q31.5 37 86.5 37 q55 0 86.5 -37 q31.5 -37 31.5 -108 l0 -65 q0 -71 -31.5 -108 q-31.5 -37 -86.5 -37 q-55 0 -86.5 37 q-31.5 37 -31.5 108 l0 65 ZM83 490 q0 -45 13 -65.5 q13 -20.5 42 -20.5 q29 0 42 20.5 q13 20.5 13 65.5 l0 61 q0 45 -13 65.5 q-13 20.5 -42 20.5 q-29 0 -42 -20.5 q-13 -20.5 -13 -65.5 l0 -61 ZM336 202 q0 71 31.5 108 q31.5 37 86.5 37 q55 0 86.5 -37 q31.5 -37 31.5 -108 l0 -65 q0 -71 -31.5 -108 q-31.5 -37 -86.5 -37 q-55 0 -86.5 37 q-31.5 37 -31.5 108 l0 65 ZM399 139 q0 -45 13 -65.5 q13 -20.5 42 -20.5 q29 0 42 20.5 q13 20.5 13 65.5 l0 61 q0 45 -13 65.5 q-13 20.5 -42 20.5 q-29 0 -42 -20.5 q-13 -20.5 -13 -65.5 l0 -61 Z" /><glyph glyph-name="ampersand" unicode="&amp;" d="M36 186 q0 113 92 203 q-58 90 -58 157 q0 67 40 109.5 q40 42.5 104 42.5 q73 0 107.5 -40 q34.5 -40 34.5 -95 q0 -36 -20.5 -71.5 q-20.5 -35.5 -39 -52.5 q-18.5 -17 -61.5 -54 l137 -199 q20 51 20 136 l77 0 q0 -107 -46 -196 l95 -126 l-104 0 l-41 62 q-65 -70 -161 -70 q-84 0 -130 57 q-46 57 -46 137 ZM218 70 q61 0 106 50 l-151 215 q-55 -61 -55 -148 q0 -55 25.5 -86 q25.5 -31 74.5 -31 ZM156 543 q0 -52 35 -106 q41 35 60.5 62 q19.5 27 19.5 61 q0 24 -14 42.5 q-14 18.5 -43 18.5 q-27 0 -42.5 -21 q-15.5 -21 -15.5 -57 Z" /><glyph glyph-name="quotesingle" unicode="&#39;" d="M118 690 l0 -169 l-86 0 l0 169 l86 0 Z" /><glyph glyph-name="parenleft" unicode="(" d="M242 -52 l-50 -64 q-83 74 -109.5 132 q-26.5 58 -26.5 146 l0 372 q0 88 26.5 146 q26.5 58 109.5 132 l49 -64 q-62 -61 -83.5 -105 q-21.5 -44 -21.5 -128 l0 -334 q0 -58 11.5 -97.5 q11.5 -39.5 31.5 -66.5 q20 -27 63 -69 Z" /><glyph glyph-name="parenright" unicode=")" d="M74 -116 l-50 64 q43 42 63 69 q20 27 31.5 66.5 q11.5 39.5 11.5 97.5 l0 334 q0 84 -21.5 128 q-21.5 44 -83.5 105 l49 64 q83 -74 109.5 -132 q26.5 -58 26.5 -146 l0 -372 q0 -88 -26.5 -146 q-26.5 -58 -109.5 -132 Z" /><glyph glyph-name="asterisk" unicode="*" d="M212 690 l-3 -121 l79 63 l38 -55 l-88 -62 l87 -61 l-37 -55 l-79 62 l3 -120 l-68 0 l2 120 l-78 -62 l-36 55 l85 61 l-85 62 l36 55 l78 -63 l-2 121 l68 0 Z" /><glyph glyph-name="plus" unicode="+" d="M43 318 l0 72 l123 0 l0 159 l72 0 l0 -159 l124 0 l0 -72 l-124 0 l0 -158 l-72 0 l0 158 l-123 0 Z" /><glyph glyph-name="comma" unicode="," d="M144 116 l0 -175 l-96 -83 l0 258 l96 0 Z" /><glyph glyph-name="hyphen" unicode="-" d="M24 253 l0 72 l211 0 l0 -72 l-211 0 Z" /><glyph glyph-name="period" unicode="." d="M164 116 l0 -116 l-116 0 l0 116 l116 0 Z" /><glyph glyph-name="slash" unicode="/" d="M112 -116 l-75 0 l264 928 l75 0 l-264 -928 Z" /><glyph glyph-name="zero" unicode="0" d="M363 515 l0 -340 q0 -90 -46.5 -136.5 q-46.5 -46.5 -114.5 -46.5 q-68 0 -114 46.5 q-46 46.5 -46 136.5 l0 340 q0 90 46 136.5 q46 46.5 114 46.5 q68 0 114.5 -46.5 q46.5 -46.5 46.5 -136.5 ZM277 515 q0 105 -75 105 q-75 0 -75 -105 l0 -340 q0 -105 75 -105 q75 0 75 105 l0 340 Z" /><glyph glyph-name="one" unicode="1" d="M259 690 l0 -690 l-86 0 l0 591 l-79 -71 l0 94 l79 76 l86 0 Z" /><glyph glyph-name="two" unicode="2" d="M364 78 l0 -78 l-328 0 l0 72 l184 281 q60 92 60 164 q0 50 -19.5 77 q-19.5 27 -55.5 27 q-35 0 -56 -28 q-21 -28 -22 -80 l-82 0 q0 83 46.5 134 q46.5 51 114.5 51 q71 0 115.5 -49.5 q44.5 -49.5 44.5 -131.5 q0 -42 -14.5 -85 q-14.5 -43 -26.5 -64.5 q-12 -21.5 -36 -59.5 l-146 -230 l221 0 Z" /><glyph glyph-name="three" unicode="3" d="M152 317 l0 78 l36 0 q48 0 68.5 30.5 q20.5 30.5 20.5 89.5 q0 46 -19.5 76 q-19.5 30 -54.5 30 q-72 0 -77 -99 l-83 0 q0 82 46.5 129 q46.5 47 113.5 47 q71 0 115.5 -49 q44.5 -49 44.5 -134 q0 -110 -79 -157 q87 -45 87 -170 q0 -88 -44.5 -142 q-44.5 -54 -118.5 -54 q-78 0 -122 48 q-44 48 -50 133 l84 0 q10 -103 84 -103 q81 0 81 118 q0 129 -97 129 l-36 0 Z" /><glyph glyph-name="four" unicode="4" d="M204 690 l85 0 l-179 -500 l137 0 l0 203 l86 0 l0 -203 l48 0 l0 -78 l-48 0 l0 -112 l-86 0 l0 112 l-236 0 l0 63 l193 515 Z" /><glyph glyph-name="five" unicode="5" d="M210 382 q-40 0 -66 -51 l-79 0 l0 359 l284 0 l0 -86 l-202 0 l0 -177 q32 41 85 41 q68 0 104 -64.5 q36 -64.5 36 -188.5 q0 -108 -42 -165.5 q-42 -57.5 -122 -57.5 q-64 0 -107.5 49 q-43.5 49 -48.5 121 l84 0 q17 -92 77 -92 q37 0 55 33.5 q18 33.5 18 111.5 q0 85 -17 126 q-17 41 -59 41 Z" /><glyph glyph-name="six" unicode="6" d="M284 690 l-105 -299 q15 9 40 9 q65 0 103 -54.5 q38 -54.5 38 -147.5 q0 -97 -44 -151.5 q-44 -54.5 -117 -54.5 q-72 0 -116.5 52.5 q-44.5 52.5 -44.5 145.5 q0 50 38 164 l114 336 l94 0 ZM124 198 q0 -60 19.5 -94 q19.5 -34 55.5 -34 q36 0 56 34.5 q20 34.5 20 93.5 q0 59 -20 93.5 q-20 34.5 -56 34.5 q-36 0 -55.5 -34.5 q-19.5 -34.5 -19.5 -93.5 Z" /><glyph glyph-name="seven" unicode="7" d="M125 491 l-78 0 l0 199 l314 0 l0 -78 l-167 -612 l-89 0 l168 612 l-148 0 l0 -121 Z" /><glyph glyph-name="eight" unicode="8" d="M32 194 q0 55 24.5 100 q24.5 45 57.5 64 q-33 21 -53.5 61.5 q-20.5 40.5 -20.5 88.5 q0 89 47.5 139.5 q47.5 50.5 114.5 50.5 q68 0 115 -50.5 q47 -50.5 47 -139.5 q0 -48 -21 -88.5 q-21 -40.5 -53 -61.5 q34 -18 58 -63 q24 -45 24 -101 q0 -94 -50 -148 q-50 -54 -120 -54 q-70 0 -120 54 q-50 54 -50 148 ZM112 194 q0 -57 25 -90.5 q25 -33.5 65 -33.5 q39 0 65 33.5 q26 33.5 26 90.5 q0 60 -28 91.5 q-28 31.5 -63 31.5 q-36 0 -63 -31.5 q-27 -31.5 -27 -91.5 ZM118 508 q0 -53 24 -83.5 q24 -30.5 60 -30.5 q36 0 59.5 30.5 q23.5 30.5 23.5 83.5 q0 52 -23.5 82 q-23.5 30 -59.5 30 q-37 0 -60.5 -30 q-23.5 -30 -23.5 -82 Z" /><glyph glyph-name="nine" unicode="9" d="M121 0 l105 299 q-15 -9 -40 -9 q-65 0 -103 54.5 q-38 54.5 -38 147.5 q0 97 44 151.5 q44 54.5 117 54.5 q71 0 116 -53.5 q45 -53.5 45 -141.5 q0 -53 -38 -167 l-114 -336 l-94 0 ZM281 492 q0 60 -19.5 94 q-19.5 34 -55.5 34 q-36 0 -56 -34.5 q-20 -34.5 -20 -93.5 q0 -59 20 -93.5 q20 -34.5 56 -34.5 q36 0 55.5 34.5 q19.5 34.5 19.5 93.5 Z" /><glyph glyph-name="colon" unicode=":" d="M144 96 l0 -96 l-96 0 l0 96 l96 0 ZM144 500 l0 -96 l-96 0 l0 96 l96 0 Z" /><glyph glyph-name="semicolon" unicode=";" d="M144 96 l0 -175 l-96 -83 l0 258 l96 0 ZM144 500 l0 -96 l-96 0 l0 96 l96 0 Z" /><glyph glyph-name="less" unicode="&lt;" d="M326 485 l-189 -129 l189 -129 l0 -95 l-264 183 l0 82 l264 183 l0 -95 Z" /><glyph glyph-name="equal" unicode="=" d="M47 400 l0 72 l311 0 l0 -72 l-311 0 ZM47 236 l0 72 l311 0 l0 -72 l-311 0 Z" /><glyph glyph-name="greater" unicode="&gt;" d="M268 356 l-189 129 l0 95 l264 -183 l0 -82 l-264 -183 l0 95 l189 129 Z" /><glyph glyph-name="question" unicode="?" d="M238 189 l-80 0 l0 77 q0 45 23 71 l39 45 q31 35 43 63.5 q12 28.5 12 67.5 q0 52 -21 80 q-21 28 -54 28 q-34 0 -53.5 -27.5 q-19.5 -27.5 -20.5 -80.5 l-86 0 q0 84 45.5 134.5 q45.5 50.5 114.5 50.5 q73 0 117 -50 q44 -50 44 -134 q0 -31 -6 -57.5 q-6 -26.5 -22.5 -53.5 q-16.5 -27 -24 -38 q-7.5 -11 -30.5 -40 l-21 -28 q-19 -25 -19 -71 l0 -37 ZM244 0 l0 96 l-96 0 l0 -96 l96 0 Z" /><glyph glyph-name="at" unicode="@" d="M504 484 l0 -259 q0 -95 54 -95 q35 0 48 37.5 q13 37.5 13 108.5 q0 87 -22 154.5 q-22 67.5 -59 106 q-37 38.5 -81 57.5 q-44 19 -92 19 q-66 0 -116.5 -30 q-50.5 -30 -79.5 -80 q-29 -50 -43 -107.5 q-14 -57.5 -14 -119.5 q0 -160 72.5 -248 q72.5 -88 183.5 -88 q50 0 87.5 11.5 q37.5 11.5 82.5 40.5 l32 -59 q-19 -22 -77.5 -43.5 q-58.5 -21.5 -129.5 -21.5 q-64 0 -123 27 q-59 27 -105.5 77 q-46.5 50 -74.5 129 q-28 79 -28 175 q0 186 97 297.5 q97 111.5 236 111.5 q140 0 236.5 -110.5 q96.5 -110.5 96.5 -298.5 q0 -97 -36 -157.5 q-36 -60.5 -106 -60.5 q-32 0 -59 17.5 q-27 17.5 -41 51.5 q-24 -69 -99 -69 q-67 0 -101.5 52.5 q-34.5 52.5 -34.5 137.5 l0 52 q0 90 36 139.5 q36 49.5 100 49.5 q43 0 71 -33 l0 28 l76 0 ZM363 130 q38 0 50 30 q12 30 11 92 l0 55 q2 110 -61 110 q-35 0 -49 -29 q-14 -29 -14 -92 l0 -44 q0 -122 63 -122 Z" /><glyph glyph-name="A" unicode="a" d="M98 0 l-90 0 l192 690 l76 0 l193 -690 l-90 0 l-39 158 l-203 0 l-39 -158 ZM238 544 l-76 -308 l152 0 l-76 308 Z" /><glyph glyph-name="B" unicode="b" d="M68 690 l171 0 q194 0 194 -176 q0 -54 -25.5 -98 q-25.5 -44 -65.5 -56 q52 -12 80.5 -54 q28.5 -42 28.5 -108 q0 -84 -47.5 -141 q-47.5 -57 -147.5 -57 l-188 0 l0 690 ZM154 319 l0 -241 l102 0 q109 0 109 120 q0 63 -29 92 q-29 29 -92 29 l-90 0 ZM154 613 l0 -216 l96 0 q97 0 97 117 q0 50 -22.5 74.5 q-22.5 24.5 -85.5 24.5 l-85 0 Z" /><glyph glyph-name="C" unicode="c" d="M442 475 l-81 0 q-15 80 -42.5 112.5 q-27.5 32.5 -76.5 32.5 q-61 0 -88.5 -54 q-27.5 -54 -27.5 -183 l0 -76 q0 -129 27 -183 q27 -54 89 -54 q50 0 77.5 34 q27.5 34 41.5 111 l80 0 q-24 -223 -199 -223 q-202 0 -202 315 l0 76 q0 315 202 315 q173 0 200 -223 Z" /><glyph glyph-name="D" unicode="d" d="M248 0 l-180 0 l0 690 l180 0 q200 0 200 -309 l0 -72 q0 -309 -200 -309 ZM248 78 q61 0 87.5 52 q26.5 52 26.5 179 l0 72 q0 126 -27 178.5 q-27 52.5 -87 52.5 l-94 0 l0 -534 l94 0 Z" /><glyph glyph-name="E" unicode="e" d="M68 690 l337 0 l0 -78 l-251 0 l0 -216 l227 0 l0 -78 l-227 0 l0 -240 l251 0 l0 -78 l-337 0 l0 690 Z" /><glyph glyph-name="F" unicode="f" d="M68 690 l337 0 l0 -78 l-251 0 l0 -232 l227 0 l0 -78 l-227 0 l0 -302 l-86 0 l0 690 Z" /><glyph glyph-name="G" unicode="g" d="M243 347 l203 0 l0 -40 q0 -161 -54 -238 q-54 -77 -150 -77 q-202 0 -202 315 l0 76 q0 315 202 315 q174 0 200 -223 l-81 0 q-14 77 -41.5 111 q-27.5 34 -77.5 34 q-62 0 -89 -54 q-27 -54 -27 -183 l0 -76 q0 -129 27 -183 q27 -54 89 -54 q114 0 118 199 l-117 0 l0 78 Z" /><glyph glyph-name="H" unicode="h" d="M154 690 l0 -294 l206 0 l0 294 l86 0 l0 -690 l-86 0 l0 318 l-206 0 l0 -318 l-86 0 l0 690 l86 0 Z" /><glyph glyph-name="I" unicode="i" d="M162 690 l0 -690 l-86 0 l0 690 l86 0 Z" /><glyph glyph-name="J" unicode="j" d="M4 78 l71 44 q27 -52 77 -52 q55 0 78.5 46 q23.5 46 23.5 168 l0 406 l86 0 l0 -406 q0 -155 -48 -223.5 q-48 -68.5 -140 -68.5 q-105 0 -148 86 Z" /><glyph glyph-name="K" unicode="k" d="M516 0 l-101 0 l-169 339 l-92 -145 l0 -194 l-86 0 l0 690 l86 0 l0 -355 l226 355 l96 0 l-173 -276 l213 -414 Z" /><glyph glyph-name="L" unicode="l" d="M154 690 l0 -612 l251 0 l0 -78 l-337 0 l0 690 l86 0 Z" /><glyph glyph-name="M" unicode="m" d="M154 690 l153 -417 l152 417 l87 0 l0 -690 l-86 0 l0 463 l-119 -319 l-71 0 l-116 319 l0 -463 l-86 0 l0 690 l86 0 Z" /><glyph glyph-name="N" unicode="n" d="M361 690 l86 0 l0 -690 l-80 0 l-213 478 l0 -478 l-86 0 l0 690 l77 0 l216 -483 l0 483 Z" /><glyph glyph-name="O" unicode="o" d="M444 307 q0 -315 -202 -315 q-202 0 -202 315 l0 76 q0 315 202 315 q202 0 202 -315 l0 -76 ZM126 383 l0 -76 q0 -130 27 -183.5 q27 -53.5 89 -53.5 q62 0 89 53.5 q27 53.5 27 183.5 l0 76 q0 130 -27 183.5 q-27 53.5 -89 53.5 q-62 0 -89 -53.5 q-27 -53.5 -27 -183.5 Z" /><glyph glyph-name="P" unicode="p" d="M248 263 l-94 0 l0 -263 l-86 0 l0 690 l180 0 q95 0 148 -56.5 q53 -56.5 53 -157.5 q0 -100 -52.5 -156.5 q-52.5 -56.5 -148.5 -56.5 ZM154 341 l94 0 q63 0 89 34 q26 34 26 101 q0 68 -26 102 q-26 34 -89 34 l-94 0 l0 -271 Z" /><glyph glyph-name="Q" unicode="q" d="M444 307 q0 -125 -35 -205 l74 -81 l-59 -51 l-60 66 q-47 -44 -122 -44 q-202 0 -202 315 l0 76 q0 315 202 315 q202 0 202 -315 l0 -76 ZM226 191 l59 51 l62 -70 q11 55 11 135 l0 76 q0 130 -27 183.5 q-27 53.5 -89 53.5 q-62 0 -89 -53.5 q-27 -53.5 -27 -183.5 l0 -76 q0 -130 27 -183.5 q27 -53.5 89 -53.5 q44 0 69 25 l-85 96 Z" /><glyph glyph-name="R" unicode="r" d="M463 0 l-91 0 l-111 291 l-107 0 l0 -291 l-86 0 l0 690 l178 0 q98 0 150.5 -50.5 q52.5 -50.5 52.5 -149.5 q0 -144 -107 -184 l121 -306 ZM154 369 l92 0 q65 0 91 28 q26 28 26 93 q0 66 -26 94 q-26 28 -91 28 l-92 0 l0 -243 Z" /><glyph glyph-name="S" unicode="s" d="M413 585 l-65 -44 q-23 40 -49.5 59.5 q-26.5 19.5 -72.5 19.5 q-44 0 -69 -28.5 q-25 -28.5 -25 -79.5 q0 -55 27 -82 q27 -27 93 -46 q84 -24 128 -70.5 q44 -46.5 44 -128.5 q0 -49 -17 -90.5 q-17 -41.5 -61.5 -72 q-44.5 -30.5 -110.5 -30.5 q-136 0 -199 113 l68 46 q30 -43 58 -62 q28 -19 73 -19 q104 0 104 111 q0 49 -24.5 79 q-24.5 30 -96.5 50 q-172 47 -172 202 q0 78 46 132 q46 54 136 54 q126 0 185 -113 Z" /><glyph glyph-name="T" unicode="t" d="M4 690 l409 0 l0 -78 l-162 0 l0 -612 l-86 0 l0 612 l-161 0 l0 78 Z" /><glyph glyph-name="U" unicode="u" d="M386 690 l86 0 l0 -409 q0 -148 -53 -218.5 q-53 -70.5 -149 -70.5 q-202 0 -202 288 l0 410 l86 0 l0 -410 q0 -114 27.5 -162 q27.5 -48 88.5 -48 q61 0 88.5 48 q27.5 48 27.5 162 l0 410 Z" /><glyph glyph-name="V" unicode="v" d="M8 690 l91 0 l146 -540 l146 540 l91 0 l-199 -690 l-75 0 l-200 690 Z" /><glyph glyph-name="W" unicode="w" d="M342 506 l-118 -506 l-84 0 l-132 690 l89 0 l90 -522 l113 522 l84 0 l115 -525 l90 525 l89 0 l-132 -690 l-85 0 l-119 506 Z" /><glyph glyph-name="X" unicode="x" d="M109 0 l-93 0 l158 356 l-140 334 l93 0 l96 -253 l97 253 l93 0 l-141 -334 l159 -356 l-93 0 l-115 268 l-114 -268 Z" /><glyph glyph-name="Y" unicode="y" d="M16 690 l98 0 l110 -290 l111 290 l98 0 l-166 -394 l0 -296 l-86 0 l0 296 l-165 394 Z" /><glyph glyph-name="Z" unicode="z" d="M24 690 l363 0 l0 -58 l-261 -554 l269 0 l0 -78 l-371 0 l0 58 l260 554 l-260 0 l0 78 Z" /><glyph glyph-name="bracketleft" unicode="[" d="M56 -102 l0 894 l176 0 l0 -72 l-96 0 l0 -750 l96 0 l0 -72 l-176 0 Z" /><glyph glyph-name="backslash" unicode="\" d="M37 812 l77 0 l262 -928 l-77 0 l-262 928 Z" /><glyph glyph-name="bracketright" unicode="]" d="M48 792 l176 0 l0 -894 l-176 0 l0 72 l96 0 l0 750 l-96 0 l0 72 Z" /><glyph glyph-name="asciicircum" unicode="^" d="M162 690 l84 0 l139 -253 l-87 0 l-93 190 l-93 -190 l-87 0 l137 253 Z" /><glyph glyph-name="underscore" unicode="_" d="M0 -93 l421 0 l0 -62 l-421 0 l0 62 Z" /><glyph glyph-name="grave" unicode="`" d="M151 725 l55 -158 l-72 0 l-74 158 l91 0 Z" /><glyph glyph-name="a" unicode="a" d="M32 146 q0 143 156 143 l79 0 l0 58 q0 51 -16.5 69 q-16.5 18 -60.5 18 q-37 0 -54.5 -9 q-17.5 -9 -32.5 -39 l-61 39 q21 44 55.5 63.5 q34.5 19.5 93.5 19.5 q80 0 118 -37 q38 -37 38 -124 l0 -347 l-80 0 l0 49 q-12 -28 -33 -42.5 q-21 -14.5 -60 -14.5 q-69 0 -105.5 40.5 q-36.5 40.5 -36.5 113.5 ZM267 192 l0 29 l-74 0 q-43 0 -62 -19 q-19 -19 -19 -58 q0 -78 75 -78 q39 0 59.5 25 q20.5 25 20.5 101 Z" /><glyph glyph-name="b" unicode="b" d="M132 690 l0 -240 q31 58 102 58 q72 0 114.5 -59 q42.5 -59 42.5 -165 l0 -66 q0 -102 -40 -164 q-40 -62 -117 -62 q-70 0 -102 52 l0 -44 l-80 0 l0 690 l80 0 ZM221 64 q45 0 67.5 43 q22.5 43 22.5 111 l0 66 q0 72 -23 112 q-23 40 -67 40 q-41 0 -65 -39 q-24 -39 -24 -106 l0 -73 q0 -154 89 -154 Z" /><glyph glyph-name="c" unicode="c" d="M289 116 l59 -41 q-34 -83 -141 -83 q-88 0 -131.5 59.5 q-43.5 59.5 -43.5 166.5 l0 66 q0 106 46.5 165 q46.5 59 128.5 59 q97 0 141 -77 l-61 -42 q-29 47 -80 47 q-47 0 -71 -40 q-24 -40 -24 -112 l0 -66 q0 -154 95 -154 q53 0 82 52 Z" /><glyph glyph-name="d" unicode="d" d="M291 450 l0 240 l80 0 l0 -690 l-80 0 l0 44 q-32 -52 -102 -52 q-77 0 -117 62 q-40 62 -40 164 l0 66 q0 106 42.5 165 q42.5 59 114.5 59 q71 0 102 -58 ZM202 64 q89 0 89 154 l0 73 q0 67 -24 106 q-24 39 -65 39 q-44 0 -67 -40 q-23 -40 -23 -112 l0 -66 q0 -68 22.5 -111 q22.5 -43 67.5 -43 Z" /><glyph glyph-name="e" unicode="e" d="M289 116 l59 -41 q-38 -83 -143 -83 q-85 0 -129 60 q-44 60 -44 166 l0 66 q0 107 41.5 165.5 q41.5 58.5 118.5 58.5 q82 0 121.5 -54 q39.5 -54 39.5 -170 l0 -52 l-241 0 l0 -14 q0 -154 92 -154 q33 0 50.5 12 q17.5 12 34.5 40 ZM254.5 407 q-18.5 29 -62.5 29 q-44 0 -62 -32.5 q-18 -32.5 -18 -101.5 l161 0 q0 76 -18.5 105 Z" /><glyph glyph-name="f" unicode="f" d="M17 500 l51 0 l0 36 q0 81 27.5 117.5 q27.5 36.5 98.5 36.5 l24 0 l0 -76 l-19 0 q-32 0 -41.5 -19.5 q-9.5 -19.5 -9.5 -72.5 l0 -22 l70 0 l0 -72 l-70 0 l0 -428 l-80 0 l0 428 l-51 0 l0 72 Z" /><glyph glyph-name="g" unicode="g" d="M291 450 l0 50 l80 0 l0 -490 q0 -206 -172 -206 q-109 0 -149 83 l61 42 q14 -28 33 -40.5 q19 -12.5 53 -12.5 q50 0 72 33.5 q22 33.5 22 100.5 l0 34 q-32 -52 -102 -52 q-77 0 -117 62 q-40 62 -40 164 l0 66 q0 106 42.5 165 q42.5 59 114.5 59 q71 0 102 -58 ZM202 64 q89 0 89 154 l0 73 q0 67 -24 106 q-24 39 -65 39 q-44 0 -67 -40 q-23 -40 -23 -112 l0 -66 q0 -68 22.5 -111 q22.5 -43 67.5 -43 Z" /><glyph glyph-name="h" unicode="h" d="M52 0 l0 690 l81 0 l0 -239 q29 57 98 57 q65 0 103.5 -48 q38.5 -48 38.5 -148 l0 -312 l-80 0 l0 311 q0 70 -20 96.5 q-20 26.5 -57 26.5 q-84 0 -84 -122 l0 -312 l-80 0 Z" /><glyph glyph-name="i" unicode="i" d="M64 0 l0 500 l80 0 l0 -500 l-80 0 ZM60 600 l0 90 l88 0 l0 -90 l-88 0 Z" /><glyph glyph-name="j" unicode="j" d="M143 500 l0 -536 q0 -81 -31.5 -117.5 q-31.5 -36.5 -111.5 -36.5 l0 74 q18 0 30.5 6 q12.5 6 19 13 q6.5 7 9.5 23 q3 16 3.5 26.5 q0.5 10.5 0.5 31.5 l0 516 l80 0 ZM58 600 l0 90 l88 0 l0 -90 l-88 0 Z" /><glyph glyph-name="k" unicode="k" d="M274 500 l92 0 l-145 -204 l168 -296 l-94 0 l-126 227 l-37 -51 l0 -176 l-80 0 l0 690 l80 0 l0 -391 l142 201 Z" /><glyph glyph-name="l" unicode="l" d="M52 154 l0 536 l80 0 l0 -516 q0 -23 0.5 -32 q0.5 -9 3 -26 q2.5 -17 9 -23.5 q6.5 -6.5 18.5 -12.5 q12 -6 31 -6 l0 -74 q-79 0 -110.5 36.5 q-31.5 36.5 -31.5 117.5 Z" /><glyph glyph-name="m" unicode="m" d="M52 0 l0 500 l80 0 l0 -49 q29 57 96 57 q85 0 117 -79 q37 79 117 79 q63 0 101.5 -50.5 q38.5 -50.5 38.5 -145.5 l0 -312 l-80 0 l0 311 q0 123 -77 123 q-35 0 -56.5 -30.5 q-21.5 -30.5 -21.5 -91.5 l0 -312 l-80 0 l0 311 q0 123 -77 123 q-35 0 -56.5 -31.5 q-21.5 -31.5 -21.5 -90.5 l0 -312 l-80 0 Z" /><glyph glyph-name="n" unicode="n" d="M52 0 l0 500 l81 0 l0 -49 q29 57 98 57 q65 0 103.5 -48 q38.5 -48 38.5 -148 l0 -312 l-80 0 l0 311 q0 70 -20 96.5 q-20 26.5 -57 26.5 q-84 0 -84 -122 l0 -312 l-80 0 Z" /><glyph glyph-name="o" unicode="o" d="M369 284 l0 -66 q0 -108 -44 -167 q-44 -59 -125 -59 q-81 0 -124.5 59 q-43.5 59 -43.5 167 l0 66 q0 107 43.5 165.5 q43.5 58.5 124.5 58.5 q81 0 125 -58.5 q44 -58.5 44 -165.5 ZM200 64 q89 0 89 154 l0 66 q0 75 -20 113.5 q-20 38.5 -69 38.5 q-49 0 -68.5 -38 q-19.5 -38 -19.5 -114 l0 -66 q0 -154 88 -154 Z" /><glyph glyph-name="p" unicode="p" d="M132 500 l0 -50 q31 58 102 58 q72 0 114.5 -59 q42.5 -59 42.5 -165 l0 -66 q0 -102 -40 -164 q-40 -62 -117 -62 q-70 0 -102 52 l0 -234 l-80 0 l0 690 l80 0 ZM221 64 q45 0 67.5 43 q22.5 43 22.5 111 l0 66 q0 72 -23 112 q-23 40 -67 40 q-41 0 -65 -39 q-24 -39 -24 -106 l0 -73 q0 -154 89 -154 Z" /><glyph glyph-name="q" unicode="q" d="M291 450 l0 50 l80 0 l0 -690 l-80 0 l0 234 q-32 -52 -102 -52 q-77 0 -117 62 q-40 62 -40 164 l0 66 q0 106 42.5 165 q42.5 59 114.5 59 q71 0 102 -58 ZM202 64 q89 0 89 154 l0 73 q0 67 -24 106 q-24 39 -65 39 q-44 0 -67 -40 q-23 -40 -23 -112 l0 -66 q0 -68 22.5 -111 q22.5 -43 67.5 -43 Z" /><glyph glyph-name="r" unicode="r" d="M330 440 l-62 -47 q-24 41 -62 41 q-74 0 -74 -121 l0 -313 l-80 0 l0 500 l80 0 l0 -49 q27 57 91 57 q69 0 107 -68 Z" /><glyph glyph-name="s" unicode="s" d="M330 425 l-58 -42 q-16 28 -34 39.5 q-18 11.5 -53 11.5 q-68 0 -68 -67 q0 -34 19 -52 q19 -18 61 -27 q66 -15 105.5 -47 q39.5 -32 39.5 -102 q0 -67 -39.5 -107 q-39.5 -40 -113.5 -40 q-109 0 -157 81 l57 46 q29 -53 95 -53 q78 0 78 71 q0 34 -18.5 51 q-18.5 17 -70.5 29 q-136 30 -136 149 q0 63 39 102.5 q39 39.5 106 39.5 q105 0 148 -83 Z" /><glyph glyph-name="t" unicode="t" d="M17 428 l0 72 l51 0 l0 110 l80 0 l0 -110 l83 0 l0 -72 l-83 0 l0 -254 q0 -57 9 -77.5 q9 -20.5 45 -20.5 l29 0 l0 -76 l-35 0 q-72 0 -100 36.5 q-28 36.5 -28 117.5 l0 274 l-51 0 Z" /><glyph glyph-name="u" unicode="u" d="M373 500 l0 -500 l-80 0 l0 49 q-15 -28 -36.5 -42.5 q-21.5 -14.5 -62.5 -14.5 q-142 0 -142 196 l0 312 l80 0 l0 -311 q0 -70 20 -96.5 q20 -26.5 57 -26.5 q39 0 61.5 32 q22.5 32 22.5 90 l0 312 l80 0 Z" /><glyph glyph-name="v" unicode="v" d="M320 500 l84 0 l-154 -500 l-85 0 l-157 500 l86 0 l112 -386 l114 386 Z" /><glyph glyph-name="w" unicode="w" d="M293 367 l-98 -367 l-67 0 l-120 500 l86 0 l71 -351 l90 351 l76 0 l91 -354 l70 354 l85 0 l-118 -500 l-68 0 l-98 367 Z" /><glyph glyph-name="x" unicode="x" d="M388 0 l-90 0 l-100 184 l-100 -184 l-90 0 l143 255 l-125 245 l90 0 l82 -175 l82 175 l90 0 l-124 -244 l142 -256 Z" /><glyph glyph-name="y" unicode="y" d="M155 -19 l4 14 l-155 505 l86 0 l93 -322 l15 -53 l93 375 l83 0 l-138 -516 q-27 -99 -60.5 -136.5 q-33.5 -37.5 -117.5 -37.5 l0 78 q39 0 60 18 q21 18 37 75 Z" /><glyph glyph-name="z" unicode="z" d="M33 62 l205 366 l-205 0 l0 72 l299 0 l0 -62 l-203 -366 l203 0 l0 -72 l-299 0 l0 62 Z" /><glyph glyph-name="braceleft" unicode="{" d="M160 629 l0 -213 q0 -33 -8.5 -47.5 q-8.5 -14.5 -29.5 -22.5 q38 -15 38 -70 l0 -213 q0 -55 11.5 -70.5 q11.5 -15.5 41.5 -15.5 l21 0 l0 -72 l-23 0 q-67 0 -99 32 q-32 32 -32 123 l0 198 q0 28 -9.5 40 q-9.5 12 -30.5 12 l-15 0 l0 72 l15 0 q21 0 30.5 12 q9.5 12 9.5 40 l0 198 q0 91 32 123 q32 32 99 32 l23 0 l0 -72 l-21 0 q-30 0 -41.5 -15.5 q-11.5 -15.5 -11.5 -70.5 Z" /><glyph glyph-name="bar" unicode="|" d="M142 812 l0 -928 l-74 0 l0 928 l74 0 Z" /><glyph glyph-name="braceright" unicode="}" d="M99 416 l0 213 q0 55 -11.5 70.5 q-11.5 15.5 -41.5 15.5 l-21 0 l0 72 l23 0 q67 0 99 -32 q32 -32 32 -123 l0 -198 q0 -28 9.5 -40 q9.5 -12 30.5 -12 l15 0 l0 -72 l-15 0 q-21 0 -30.5 -12 q-9.5 -12 -9.5 -40 l0 -198 q0 -91 -32 -123 q-32 -32 -99 -32 l-23 0 l0 72 l21 0 q30 0 41.5 15.5 q11.5 15.5 11.5 70.5 l0 213 q0 55 38 70 q-21 8 -29.5 22.5 q-8.5 14.5 -8.5 47.5 Z" /><glyph glyph-name="asciitilde" unicode="~" d="M268 277 q-36 0 -73.5 23 q-37.5 23 -59.5 23 q-46 0 -77 -48 l-51 46 q48 74 128 74 q37 0 74.5 -23 q37.5 -23 58.5 -23 q46 0 77 48 l52 -46 q-49 -74 -129 -74 Z" /><glyph glyph-name="nonbreakingspace" unicode=" " d="" /><glyph glyph-name="exclamdown" unicode="¡" d="M139 -190 l0 501 l-86 0 l0 -501 l86 0 ZM144 500 l0 -96 l-96 0 l0 96 l96 0 Z" /><glyph glyph-name="cent" unicode="¢" d="M170 -116 l0 112 q-66 13 -102 71.5 q-36 58.5 -36 150.5 l0 66 q0 93 36 150 q36 57 102 70 l0 118 l74 0 l0 -118 q69 -13 104 -73 l-61 -42 q-29 47 -80 47 q-47 0 -71 -40 q-24 -40 -24 -112 l0 -66 q0 -154 95 -154 q53 0 82 52 l59 -41 q-29 -67 -104 -80 l0 -111 l-74 0 Z" /><glyph glyph-name="sterling" unicode="£" d="M15 0 l0 78 l57 0 l0 240 l-57 0 l0 78 l57 0 l0 10 q0 292 177 292 q100 0 144 -86 l-69 -42 q-26 50 -75 50 q-51 0 -71 -47.5 q-20 -47.5 -20 -166.5 l0 -10 l128 0 l0 -78 l-128 0 l0 -240 l219 0 l0 -78 l-362 0 Z" /><glyph glyph-name="currency" unicode="¤" d="M53 366 q0 64 19 108 l-51 68 l64 47 l36 -49 q34 26 82 26 q47 0 82 -26 l36 49 l64 -47 l-51 -68 q19 -47 19 -108 q0 -64 -20 -110 l52 -68 l-63 -48 l-38 51 q-34 -25 -81 -25 q-49 0 -81 25 l-38 -51 l-63 48 l51 68 q-19 48 -19 110 ZM203 483 q-64 0 -64 -117 q0 -117 64 -117 q64 0 64 117 q0 117 -64 117 Z" /><glyph glyph-name="yen" unicode="¥" d="M61 224 l99 0 l0 72 l-99 0 l0 78 l63 0 l-100 316 l92 0 l87 -311 l84 311 l95 0 l-100 -316 l63 0 l0 -78 l-99 0 l0 -72 l99 0 l0 -78 l-99 0 l0 -146 l-86 0 l0 146 l-99 0 l0 78 Z" /><glyph glyph-name="brokenbar" unicode="¦" d="M150 243 l0 -243 l-86 0 l0 243 l86 0 ZM150 690 l0 -243 l-86 0 l0 243 l86 0 Z" /><glyph glyph-name="section" unicode="§" d="M61 -47 l84 0 q3 -23 6 -34.5 q3 -11.5 15 -21.5 q12 -10 34 -10 q58 0 58 68 q0 33 -15 53.5 q-15 20.5 -55 37.5 q-3 1 -18 7 q-15 6 -20 8.5 q-5 2.5 -19 10 q-14 7.5 -20.5 12.5 q-6.5 5 -18.5 15 q-12 10 -18 19.5 q-6 9.5 -14 23.5 q-8 14 -12 29.5 q-4 15.5 -7 35.5 q-3 20 -3 43 q0 120 73 163 q-56 50 -56 129 q0 65 39.5 107 q39.5 42 104.5 42 q68 0 102.5 -38 q34.5 -38 36.5 -106 l-84 0 q-3 23 -6 34.5 q-3 11.5 -15 21.5 q-12 10 -34 10 q-58 0 -58 -68 q0 -35 14.5 -54.5 q14.5 -19.5 55.5 -36.5 q3 -1 10 -4 q31 -12 48 -21.5 q17 -9.5 42 -31.5 q25 -22 37.5 -59 q12.5 -37 12.5 -88 q0 -121 -73 -164 q56 -48 56 -128 q0 -65 -39.5 -107 q-39.5 -42 -104.5 -42 q-68 0 -102.5 38 q-34.5 38 -36.5 106 ZM275 250 q0 56 -16.5 83.5 q-16.5 27.5 -58.5 27.5 q-76 0 -76 -111 q0 -55 17 -83 q17 -28 59 -28 q75 0 75 111 Z" /><glyph glyph-name="dieresis" unicode="¨" d="M48 600 l0 90 l88 0 l0 -90 l-88 0 ZM202 600 l0 90 l88 0 l0 -90 l-88 0 Z" /><glyph glyph-name="copyright" unicode="©" d="M168.5 -62 q-128.5 128 -128.5 312 q0 184 128.5 312 q128.5 128 311.5 128 q183 0 311.5 -128 q128.5 -128 128.5 -312 q0 -184 -128.5 -312 q-128.5 -128 -311.5 -128 q-183 0 -311.5 128 ZM224.5 511 q-104.5 -107 -104.5 -261 q0 -154 104.5 -261.5 q104.5 -107.5 255.5 -107.5 q151 0 255.5 107.5 q104.5 107.5 104.5 261.5 q0 154 -104.5 261 q-104.5 107 -255.5 107 q-151 0 -255.5 -107 ZM599 120 l62 -44 q-45 -84 -173 -84 q-102 0 -159 61 q-57 61 -57 165 l0 66 q0 106 57 165 q57 59 159 59 q118 0 173 -78 l-63 -44 q-34 50 -110 50 q-64 0 -100 -40.5 q-36 -40.5 -36 -111.5 l0 -66 q0 -69 33.5 -111.5 q33.5 -42.5 102.5 -42.5 q82 0 111 56 Z" /><glyph glyph-name="ordfeminine" unicode="ª" d="M20 466 q0 92 99 92 l55 0 l0 28 q0 33 -11 45 q-11 12 -40 12 q-23 0 -34.5 -6.5 q-11.5 -6.5 -22.5 -26.5 l-42 27 q28 55 100 55 q103 0 103 -101 l0 -217 l-53 0 l0 30 q-19 -34 -59 -34 q-45 0 -70 25 q-25 25 -25 71 ZM174 496 l0 16 l-52 0 q-48 0 -48 -48 q0 -45 46 -45 q28 0 41 17 q13 17 13 60 Z" /><glyph glyph-name="guillemotleft" unicode="«" d="M24 283 l186 231 l0 -114 l-93 -117 l93 -117 l0 -114 l-186 231 ZM185 283 l186 231 l0 -114 l-93 -117 l93 -117 l0 -114 l-186 231 Z" /><glyph glyph-name="logicalnot" unicode="¬" d="M372 187 l-73 0 l0 127 l-277 0 l0 78 l350 0 l0 -205 Z" /><glyph glyph-name="uni00AD" unicode="­" d="M24 253 l0 72 l211 0 l0 -72 l-211 0 Z" /><glyph glyph-name="registered" unicode="®" d="M102.5 322.5 q-74.5 74.5 -74.5 178.5 q0 104 74.5 178.5 q74.5 74.5 178.5 74.5 q104 0 178.5 -74.5 q74.5 -74.5 74.5 -178.5 q0 -104 -74.5 -178.5 q-74.5 -74.5 -178.5 -74.5 q-104 0 -178.5 74.5 ZM142.5 639.5 q-57.5 -57.5 -57.5 -138.5 q0 -81 57.5 -138.5 q57.5 -57.5 138.5 -57.5 q81 0 138.5 57.5 q57.5 57.5 57.5 138.5 q0 81 -57.5 138.5 q-57.5 57.5 -138.5 57.5 q-81 0 -138.5 -57.5 ZM231 374 l-52 0 l0 261 l107 0 q50 0 73.5 -23.5 q23.5 -23.5 23.5 -55.5 q0 -59 -56 -78 l69 -104 l-59 0 l-64 97 l-42 0 l0 -97 ZM231 515 l44 0 q56 0 56 40 q0 35 -51 35 l-49 0 l0 -75 Z" /><glyph glyph-name="macron" unicode="¯" d="M52 600 l0 72 l219 0 l0 -72 l-219 0 Z" /><glyph glyph-name="degree" unicode="°" d="M55 463.5 q-39 38.5 -39 95.5 q0 57 39 95.5 q39 38.5 95 38.5 q56 0 95 -38.5 q39 -38.5 39 -95.5 q0 -57 -39 -95.5 q-39 -38.5 -95 -38.5 q-56 0 -95 38.5 ZM84 559 q0 -29 19 -48.5 q19 -19.5 47 -19.5 q28 0 46.5 19.5 q18.5 19.5 18.5 48.5 q0 29 -18.5 48 q-18.5 19 -46.5 19 q-28 0 -47 -19.5 q-19 -19.5 -19 -47.5 Z" /><glyph glyph-name="plusminus" unicode="±" d="M43 358 l0 72 l123 0 l0 159 l72 0 l0 -159 l124 0 l0 -72 l-124 0 l0 -128 l-72 0 l0 128 l-123 0 ZM43 128 l0 72 l319 0 l0 -72 l-319 0 Z" /><glyph glyph-name="twosuperior" unicode="²" d="M200 424 l0 -50 l-169 0 l0 50 l87 103 q28 33 28 69 q0 47 -31 47 q-15 0 -25.5 -13 q-10.5 -13 -11.5 -34 l-46 0 q0 43 24.5 70 q24.5 27 58.5 27 q38 0 61.5 -25 q23.5 -25 23.5 -68 q0 -49 -45 -103 l-61 -73 l106 0 Z" /><glyph glyph-name="threesuperior" unicode="³" d="M88 512 l0 50 l16 0 q41 0 41 43 q0 38 -28 38 q-15 0 -22 -9.5 q-7 -9.5 -10 -28.5 l-53 0 q0 37 25 62.5 q25 25.5 60 25.5 q38 0 59.5 -22 q21.5 -22 21.5 -62 q0 -47 -43 -71 q48 -17 48 -75 q0 -44 -23 -68 q-23 -24 -63 -24 q-39 0 -62.5 26 q-23.5 26 -25.5 64 l54 0 q5 -40 34 -40 q32 0 32 44 q0 47 -45 47 l-16 0 Z" /><glyph glyph-name="acute" unicode="´" d="M77 567 l54 158 l89 0 l-74 -158 l-69 0 Z" /><glyph glyph-name="mu" unicode="µ&#x3bc;" d="M122 -137 l-80 0 l0 637 l80 0 l0 -309 q0 -71 19.5 -98 q19.5 -27 57.5 -27 q42 0 63 33.5 q21 33.5 21 88.5 l0 312 l80 0 l0 -500 l-80 0 l0 49 q-29 -57 -93 -57 q-47 0 -68 29 l0 -158 Z" /><glyph glyph-name="paragraph" unicode="¶" d="M91.5 365.5 q-55.5 55.5 -55.5 134.5 q0 79 55.5 134.5 q55.5 55.5 134.5 55.5 l231 0 l0 -880 l-86 0 l0 802 l-59 0 l0 -802 l-86 0 l0 500 q-79 0 -134.5 55.5 Z" /><glyph glyph-name="periodcentered" unicode="·" d="M144 396 l0 -96 l-96 0 l0 96 l96 0 Z" /><glyph glyph-name="cedilla" unicode="¸" d="M93 -69 l16 94 l55 -3 l-11 -45 q45 -21 45 -74 q0 -39 -26.5 -60.5 q-26.5 -21.5 -65.5 -21.5 q-21 0 -30 3 l11 52 q4 -1 13 -1 q31 0 31 28 q0 28 -38 28 Z" /><glyph glyph-name="onesuperior" unicode="¹" d="M155 690 l0 -316 l-53 0 l0 254 l-46 -41 l0 60 l46 43 l53 0 Z" /><glyph glyph-name="ordmasculine" unicode="º" d="M250 555 l0 -45 q0 -64 -29 -101.5 q-29 -37.5 -82 -37.5 q-51 0 -81 36.5 q-30 36.5 -30 102.5 l0 45 q0 67 30 102.5 q30 35.5 81 35.5 q51 0 81 -35.5 q30 -35.5 30 -102.5 ZM82 510 q0 -89 57 -89 q57 0 57 89 l0 45 q0 88 -57 88 q-57 0 -57 -88 l0 -45 Z" /><glyph glyph-name="guillemotright" unicode="»" d="M205 514 l186 -231 l-186 -231 l0 114 l93 117 l-93 117 l0 114 ZM44 514 l186 -231 l-186 -231 l0 114 l93 117 l-93 117 l0 114 Z" /><glyph glyph-name="onequarter" unicode="¼" d="M388 690 l73 0 l-377 -690 l-74 0 l378 690 ZM140 690 l0 -316 l-53 0 l0 254 l-46 -41 l0 60 l46 43 l53 0 ZM356 316 l57 0 l-97 -205 l60 0 l0 56 l54 0 l0 -56 l31 0 l0 -50 l-31 0 l0 -61 l-54 0 l0 61 l-125 0 l0 43 l105 212 Z" /><glyph glyph-name="onehalf" unicode="½" d="M388 690 l73 0 l-377 -690 l-74 0 l378 690 ZM140 690 l0 -316 l-53 0 l0 254 l-46 -41 l0 60 l46 43 l53 0 ZM459 50 l0 -50 l-169 0 l0 50 l87 103 q28 33 28 69 q0 47 -31 47 q-15 0 -25.5 -13 q-10.5 -13 -11.5 -34 l-46 0 q0 43 24.5 70 q24.5 27 58.5 27 q38 0 61.5 -25 q23.5 -25 23.5 -68 q0 -49 -45 -103 l-61 -73 l106 0 Z" /><glyph glyph-name="threequarters" unicode="¾" d="M388 690 l73 0 l-377 -690 l-74 0 l378 690 ZM74 512 l0 50 l16 0 q41 0 41 43 q0 38 -28 38 q-15 0 -22 -9.5 q-7 -9.5 -10 -28.5 l-53 0 q0 37 25 62.5 q25 25.5 60 25.5 q38 0 59.5 -22 q21.5 -22 21.5 -62 q0 -47 -43 -71 q48 -17 48 -75 q0 -44 -23 -68 q-23 -24 -63 -24 q-39 0 -62.5 26 q-23.5 26 -25.5 64 l54 0 q5 -40 34 -40 q32 0 32 44 q0 47 -45 47 l-16 0 ZM356 316 l57 0 l-97 -205 l60 0 l0 56 l54 0 l0 -56 l31 0 l0 -50 l-31 0 l0 -61 l-54 0 l0 61 l-125 0 l0 43 l105 212 Z" /><glyph glyph-name="questiondown" unicode="¿" d="M155 311 l80 0 l0 -77 q0 -45 -23 -71 l-39 -45 q-31 -35 -43 -63.5 q-12 -28.5 -12 -67.5 q0 -52 21 -80 q21 -28 54 -28 q34 0 53.5 27.5 q19.5 27.5 20.5 80.5 l86 0 q0 -84 -45.5 -134.5 q-45.5 -50.5 -114.5 -50.5 q-73 0 -117 50 q-44 50 -44 134 q0 31 6 57.5 q6 26.5 22.5 53.5 q16.5 27 24 38 q7.5 11 30.5 40 l21 28 q19 25 19 71 l0 37 ZM149 404 l0 96 l96 0 l0 -96 l-96 0 Z" /><glyph glyph-name="Agrave" unicode="à" d="M98 0 l-90 0 l192 690 l76 0 l193 -690 l-90 0 l-39 158 l-203 0 l-39 -158 ZM238 544 l-76 -308 l152 0 l-76 308 ZM200 876 l67 -129 l-71 0 l-88 129 l92 0 Z" /><glyph glyph-name="Aacute" unicode="á" d="M98 0 l-90 0 l192 690 l76 0 l193 -690 l-90 0 l-39 158 l-203 0 l-39 -158 ZM238 544 l-76 -308 l152 0 l-76 308 ZM207 747 l67 129 l92 0 l-88 -129 l-71 0 Z" /><glyph glyph-name="Acircumflex" unicode="â" d="M98 0 l-90 0 l192 690 l76 0 l193 -690 l-90 0 l-39 158 l-203 0 l-39 -158 ZM238 544 l-76 -308 l152 0 l-76 308 ZM202 879 l71 0 l117 -142 l-84 0 l-68 92 l-68 -92 l-84 0 l116 142 Z" /><glyph glyph-name="Atilde" unicode="ã" d="M98 0 l-90 0 l192 690 l76 0 l193 -690 l-90 0 l-39 158 l-203 0 l-39 -158 ZM238 544 l-76 -308 l152 0 l-76 308 ZM290 762 q-20 0 -52 14.5 q-32 14.5 -50 14.5 q-29 0 -49 -28 l-46 37 q39 55 95 55 q19 0 51.5 -14.5 q32.5 -14.5 51.5 -14.5 q26 0 47 28 l46 -37 q-40 -55 -94 -55 Z" /><glyph glyph-name="Adieresis" unicode="ä" d="M98 0 l-90 0 l192 690 l76 0 l193 -690 l-90 0 l-39 158 l-203 0 l-39 -158 ZM238 544 l-76 -308 l152 0 l-76 308 ZM280 779 l0 90 l90 0 l0 -90 l-90 0 ZM106 779 l0 90 l90 0 l0 -90 l-90 0 Z" /><glyph glyph-name="Aring" unicode="å" d="M98 0 l-90 0 l180 649 q-55 25 -55 88 q0 45 29.5 72 q29.5 27 75.5 27 q47 0 76.5 -27 q29.5 -27 29.5 -72 q0 -64 -57 -88 l182 -649 l-90 0 l-39 158 l-203 0 l-39 -158 ZM238 544 l-76 -308 l152 0 l-76 308 ZM185 737 q0 -23 14.5 -35 q14.5 -12 38.5 -12 q53 0 53 47 q0 47 -53 47 q-53 0 -53 -47 Z" /><glyph glyph-name="AE" unicode="æ" d="M102 0 l-94 0 l304 690 l345 0 l0 -78 l-254 0 l0 -216 l230 0 l0 -78 l-230 0 l0 -240 l254 0 l0 -78 l-340 0 l0 158 l-147 0 l-68 -158 ZM208 236 l109 0 l0 273 l-109 -273 Z" /><glyph glyph-name="Ccedilla" unicode="ç" d="M215 -69 l10 62 q-185 11 -185 314 l0 76 q0 315 202 315 q173 0 200 -223 l-81 0 q-15 80 -42.5 112.5 q-27.5 32.5 -76.5 32.5 q-61 0 -88.5 -54 q-27.5 -54 -27.5 -183 l0 -76 q0 -129 27 -183 q27 -54 89 -54 q50 0 77.5 34 q27.5 34 41.5 111 l80 0 q-22 -198 -162 -220 l-4 -18 q46 -16 46 -74 q0 -39 -26.5 -60.5 q-26.5 -21.5 -66.5 -21.5 q-21 0 -30 3 l11 52 q4 -1 13 -1 q31 0 31 28 q0 28 -38 28 Z" /><glyph glyph-name="Egrave" unicode="è" d="M68 690 l337 0 l0 -78 l-251 0 l0 -216 l227 0 l0 -78 l-227 0 l0 -240 l251 0 l0 -78 l-337 0 l0 690 ZM218 876 l67 -129 l-71 0 l-88 129 l92 0 Z" /><glyph glyph-name="Eacute" unicode="é" d="M68 690 l337 0 l0 -78 l-251 0 l0 -216 l227 0 l0 -78 l-227 0 l0 -240 l251 0 l0 -78 l-337 0 l0 690 ZM192 747 l67 129 l92 0 l-88 -129 l-71 0 Z" /><glyph glyph-name="Ecircumflex" unicode="ê" d="M68 690 l337 0 l0 -78 l-251 0 l0 -216 l227 0 l0 -78 l-227 0 l0 -240 l251 0 l0 -78 l-337 0 l0 690 ZM199 879 l71 0 l117 -142 l-84 0 l-68 92 l-68 -92 l-84 0 l116 142 Z" /><glyph glyph-name="Edieresis" unicode="ë" d="M68 690 l337 0 l0 -78 l-251 0 l0 -216 l227 0 l0 -78 l-227 0 l0 -240 l251 0 l0 -78 l-337 0 l0 690 ZM276 779 l0 90 l90 0 l0 -90 l-90 0 ZM102 779 l0 90 l90 0 l0 -90 l-90 0 Z" /><glyph glyph-name="Igrave" unicode="ì" d="M162 690 l0 -690 l-86 0 l0 690 l86 0 ZM87 876 l67 -129 l-71 0 l-88 129 l92 0 Z" /><glyph glyph-name="Iacute" unicode="í" d="M162 690 l0 -690 l-86 0 l0 690 l86 0 ZM82 747 l67 129 l92 0 l-88 -129 l-71 0 Z" /><glyph glyph-name="Icircumflex" unicode="î" d="M162 690 l0 -690 l-86 0 l0 690 l86 0 ZM83 879 l71 0 l117 -142 l-84 0 l-68 92 l-68 -92 l-84 0 l116 142 Z" /><glyph glyph-name="Idieresis" unicode="ï" d="M162 690 l0 -690 l-86 0 l0 690 l86 0 ZM161 779 l0 90 l90 0 l0 -90 l-90 0 ZM-13 779 l0 90 l90 0 l0 -90 l-90 0 Z" /><glyph glyph-name="Eth" unicode="ð" d="M-8 318 l0 78 l82 0 l0 294 l180 0 q200 0 200 -309 l0 -72 q0 -309 -200 -309 l-180 0 l0 318 l-82 0 ZM254 78 q61 0 87.5 52 q26.5 52 26.5 179 l0 72 q0 126 -27 178.5 q-27 52.5 -87 52.5 l-94 0 l0 -216 l131 0 l0 -78 l-131 0 l0 -240 l94 0 Z" /><glyph glyph-name="Ntilde" unicode="ñ" d="M361 690 l86 0 l0 -690 l-80 0 l-213 478 l0 -478 l-86 0 l0 690 l77 0 l216 -483 l0 483 ZM309 762 q-20 0 -52 14.5 q-32 14.5 -50 14.5 q-29 0 -49 -28 l-46 37 q39 55 95 55 q19 0 51.5 -14.5 q32.5 -14.5 51.5 -14.5 q26 0 47 28 l46 -37 q-40 -55 -94 -55 Z" /><glyph glyph-name="Ograve" unicode="ò" d="M444 307 q0 -315 -202 -315 q-202 0 -202 315 l0 76 q0 315 202 315 q202 0 202 -315 l0 -76 ZM126 383 l0 -76 q0 -130 27 -183.5 q27 -53.5 89 -53.5 q62 0 89 53.5 q27 53.5 27 183.5 l0 76 q0 130 -27 183.5 q-27 53.5 -89 53.5 q-62 0 -89 -53.5 q-27 -53.5 -27 -183.5 ZM222 876 l67 -129 l-71 0 l-88 129 l92 0 Z" /><glyph glyph-name="Oacute" unicode="ó" d="M444 307 q0 -315 -202 -315 q-202 0 -202 315 l0 76 q0 315 202 315 q202 0 202 -315 l0 -76 ZM126 383 l0 -76 q0 -130 27 -183.5 q27 -53.5 89 -53.5 q62 0 89 53.5 q27 53.5 27 183.5 l0 76 q0 130 -27 183.5 q-27 53.5 -89 53.5 q-62 0 -89 -53.5 q-27 -53.5 -27 -183.5 ZM191 747 l67 129 l92 0 l-88 -129 l-71 0 Z" /><glyph glyph-name="Ocircumflex" unicode="ô" d="M444 307 q0 -315 -202 -315 q-202 0 -202 315 l0 76 q0 315 202 315 q202 0 202 -315 l0 -76 ZM126 383 l0 -76 q0 -130 27 -183.5 q27 -53.5 89 -53.5 q62 0 89 53.5 q27 53.5 27 183.5 l0 76 q0 130 -27 183.5 q-27 53.5 -89 53.5 q-62 0 -89 -53.5 q-27 -53.5 -27 -183.5 ZM206 879 l71 0 l117 -142 l-84 0 l-68 92 l-68 -92 l-84 0 l116 142 Z" /><glyph glyph-name="Otilde" unicode="õ" d="M444 307 q0 -315 -202 -315 q-202 0 -202 315 l0 76 q0 315 202 315 q202 0 202 -315 l0 -76 ZM126 383 l0 -76 q0 -130 27 -183.5 q27 -53.5 89 -53.5 q62 0 89 53.5 q27 53.5 27 183.5 l0 76 q0 130 -27 183.5 q-27 53.5 -89 53.5 q-62 0 -89 -53.5 q-27 -53.5 -27 -183.5 ZM294 762 q-20 0 -52 14.5 q-32 14.5 -50 14.5 q-29 0 -49 -28 l-46 37 q39 55 95 55 q19 0 51.5 -14.5 q32.5 -14.5 51.5 -14.5 q26 0 47 28 l46 -37 q-40 -55 -94 -55 Z" /><glyph glyph-name="Odieresis" unicode="ö" d="M444 307 q0 -315 -202 -315 q-202 0 -202 315 l0 76 q0 315 202 315 q202 0 202 -315 l0 -76 ZM126 383 l0 -76 q0 -130 27 -183.5 q27 -53.5 89 -53.5 q62 0 89 53.5 q27 53.5 27 183.5 l0 76 q0 130 -27 183.5 q-27 53.5 -89 53.5 q-62 0 -89 -53.5 q-27 -53.5 -27 -183.5 ZM284 779 l0 90 l90 0 l0 -90 l-90 0 ZM110 779 l0 90 l90 0 l0 -90 l-90 0 Z" /><glyph glyph-name="multiply" unicode="×" d="M299 526 l55 -46 l-106 -126 l106 -126 l-55 -46 l-97 116 l-97 -116 l-55 46 l105 126 l-105 126 l55 46 l97 -117 l97 117 Z" /><glyph glyph-name="Oslash" unicode="ø" d="M72 -116 l44 155 q-76 76 -76 268 l0 76 q0 315 202 315 q32 0 59 -9 l35 122 l80 0 l-47 -163 q75 -77 75 -265 l0 -76 q0 -315 -202 -315 q-30 0 -57 8 l-33 -116 l-80 0 ZM126 383 l0 -76 q0 -112 19 -166 l135 473 q-18 6 -38 6 q-62 0 -89 -53.5 q-27 -53.5 -27 -183.5 ZM358 383 q0 105 -18 161 l-134 -469 q14 -5 36 -5 q62 0 89 53.5 q27 53.5 27 183.5 l0 76 Z" /><glyph glyph-name="Ugrave" unicode="ù" d="M386 690 l86 0 l0 -409 q0 -148 -53 -218.5 q-53 -70.5 -149 -70.5 q-202 0 -202 288 l0 410 l86 0 l0 -410 q0 -114 27.5 -162 q27.5 -48 88.5 -48 q61 0 88.5 48 q27.5 48 27.5 162 l0 410 ZM251 876 l67 -129 l-71 0 l-88 129 l92 0 Z" /><glyph glyph-name="Uacute" unicode="ú" d="M386 690 l86 0 l0 -409 q0 -148 -53 -218.5 q-53 -70.5 -149 -70.5 q-202 0 -202 288 l0 410 l86 0 l0 -410 q0 -114 27.5 -162 q27.5 -48 88.5 -48 q61 0 88.5 48 q27.5 48 27.5 162 l0 410 ZM228 747 l67 129 l92 0 l-88 -129 l-71 0 Z" /><glyph glyph-name="Ucircumflex" unicode="û" d="M386 690 l86 0 l0 -409 q0 -148 -53 -218.5 q-53 -70.5 -149 -70.5 q-202 0 -202 288 l0 410 l86 0 l0 -410 q0 -114 27.5 -162 q27.5 -48 88.5 -48 q61 0 88.5 48 q27.5 48 27.5 162 l0 410 ZM234 879 l71 0 l117 -142 l-84 0 l-68 92 l-68 -92 l-84 0 l116 142 Z" /><glyph glyph-name="Udieresis" unicode="ü" d="M386 690 l86 0 l0 -409 q0 -148 -53 -218.5 q-53 -70.5 -149 -70.5 q-202 0 -202 288 l0 410 l86 0 l0 -410 q0 -114 27.5 -162 q27.5 -48 88.5 -48 q61 0 88.5 48 q27.5 48 27.5 162 l0 410 ZM312 779 l0 90 l90 0 l0 -90 l-90 0 ZM138 779 l0 90 l90 0 l0 -90 l-90 0 Z" /><glyph glyph-name="Yacute" unicode="ý" d="M16 690 l98 0 l110 -290 l111 290 l98 0 l-166 -394 l0 -296 l-86 0 l0 296 l-165 394 ZM182 747 l67 129 l92 0 l-88 -129 l-71 0 Z" /><glyph glyph-name="Thorn" unicode="þ" d="M248 143 l-94 0 l0 -143 l-86 0 l0 690 l86 0 l0 -120 l94 0 q95 0 148 -56.5 q53 -56.5 53 -157.5 q0 -100 -52.5 -156.5 q-52.5 -56.5 -148.5 -56.5 ZM154 221 l94 0 q63 0 89 34 q26 34 26 101 q0 68 -26 102 q-26 34 -89 34 l-94 0 l0 -271 Z" /><glyph glyph-name="germandbls" unicode="ß" d="M373 564 q0 -68 -48 -97 q28 -13 38 -40 q10 -27 10 -75 l0 -212 q0 -85 -28.5 -112.5 q-28.5 -27.5 -98.5 -27.5 l-26 0 l0 72 l26 0 q26 0 37 15 q11 15 11 53 l0 212 q0 43 -10 59.5 q-10 16.5 -38 16.5 l-26 0 l0 72 l26 0 q48 0 48 59 q0 67 -74 67 q-45 0 -66.5 -30 q-21.5 -30 -21.5 -105 l0 -491 l-80 0 l0 499 q0 199 168 199 q79 0 116 -38.5 q37 -38.5 37 -95.5 Z" /><glyph glyph-name="agrave" unicode="à" d="M32 146 q0 143 156 143 l79 0 l0 58 q0 51 -16.5 69 q-16.5 18 -60.5 18 q-37 0 -54.5 -9 q-17.5 -9 -32.5 -39 l-61 39 q21 44 55.5 63.5 q34.5 19.5 93.5 19.5 q80 0 118 -37 q38 -37 38 -124 l0 -347 l-80 0 l0 49 q-12 -28 -33 -42.5 q-21 -14.5 -60 -14.5 q-69 0 -105.5 40.5 q-36.5 40.5 -36.5 113.5 ZM267 192 l0 29 l-74 0 q-43 0 -62 -19 q-19 -19 -19 -58 q0 -78 75 -78 q39 0 59.5 25 q20.5 25 20.5 101 ZM192 725 l55 -158 l-72 0 l-74 158 l91 0 Z" /><glyph glyph-name="aacute" unicode="á" d="M32 146 q0 143 156 143 l79 0 l0 58 q0 51 -16.5 69 q-16.5 18 -60.5 18 q-37 0 -54.5 -9 q-17.5 -9 -32.5 -39 l-61 39 q21 44 55.5 63.5 q34.5 19.5 93.5 19.5 q80 0 118 -37 q38 -37 38 -124 l0 -347 l-80 0 l0 49 q-12 -28 -33 -42.5 q-21 -14.5 -60 -14.5 q-69 0 -105.5 40.5 q-36.5 40.5 -36.5 113.5 ZM267 192 l0 29 l-74 0 q-43 0 -62 -19 q-19 -19 -19 -58 q0 -78 75 -78 q39 0 59.5 25 q20.5 25 20.5 101 ZM155 567 l54 158 l89 0 l-74 -158 l-69 0 Z" /><glyph glyph-name="acircumflex" unicode="â" d="M32 146 q0 143 156 143 l79 0 l0 58 q0 51 -16.5 69 q-16.5 18 -60.5 18 q-37 0 -54.5 -9 q-17.5 -9 -32.5 -39 l-61 39 q21 44 55.5 63.5 q34.5 19.5 93.5 19.5 q80 0 118 -37 q38 -37 38 -124 l0 -347 l-80 0 l0 49 q-12 -28 -33 -42.5 q-21 -14.5 -60 -14.5 q-69 0 -105.5 40.5 q-36.5 40.5 -36.5 113.5 ZM267 192 l0 29 l-74 0 q-43 0 -62 -19 q-19 -19 -19 -58 q0 -78 75 -78 q39 0 59.5 25 q20.5 25 20.5 101 ZM156 700 l86 0 l95 -142 l-77 0 l-61 97 l-61 -97 l-77 0 l95 142 Z" /><glyph glyph-name="atilde" unicode="ã" d="M32 146 q0 143 156 143 l79 0 l0 58 q0 51 -16.5 69 q-16.5 18 -60.5 18 q-37 0 -54.5 -9 q-17.5 -9 -32.5 -39 l-61 39 q21 44 55.5 63.5 q34.5 19.5 93.5 19.5 q80 0 118 -37 q38 -37 38 -124 l0 -347 l-80 0 l0 49 q-12 -28 -33 -42.5 q-21 -14.5 -60 -14.5 q-69 0 -105.5 40.5 q-36.5 40.5 -36.5 113.5 ZM267 192 l0 29 l-74 0 q-43 0 -62 -19 q-19 -19 -19 -58 q0 -78 75 -78 q39 0 59.5 25 q20.5 25 20.5 101 ZM250 589 q-20 0 -52 14.5 q-32 14.5 -50 14.5 q-29 0 -49 -28 l-45 40 q39 55 95 55 q19 0 51.5 -14.5 q32.5 -14.5 51.5 -14.5 q26 0 47 28 l45 -40 q-40 -55 -94 -55 Z" /><glyph glyph-name="adieresis" unicode="ä" d="M32 146 q0 143 156 143 l79 0 l0 58 q0 51 -16.5 69 q-16.5 18 -60.5 18 q-37 0 -54.5 -9 q-17.5 -9 -32.5 -39 l-61 39 q21 44 55.5 63.5 q34.5 19.5 93.5 19.5 q80 0 118 -37 q38 -37 38 -124 l0 -347 l-80 0 l0 49 q-12 -28 -33 -42.5 q-21 -14.5 -60 -14.5 q-69 0 -105.5 40.5 q-36.5 40.5 -36.5 113.5 ZM267 192 l0 29 l-74 0 q-43 0 -62 -19 q-19 -19 -19 -58 q0 -78 75 -78 q39 0 59.5 25 q20.5 25 20.5 101 ZM69 600 l0 90 l88 0 l0 -90 l-88 0 ZM223 600 l0 90 l88 0 l0 -90 l-88 0 Z" /><glyph glyph-name="aring" unicode="å" d="M32 146 q0 143 156 143 l79 0 l0 58 q0 51 -16.5 69 q-16.5 18 -60.5 18 q-37 0 -54.5 -9 q-17.5 -9 -32.5 -39 l-61 39 q21 44 55.5 63.5 q34.5 19.5 93.5 19.5 q80 0 118 -37 q38 -37 38 -124 l0 -347 l-80 0 l0 49 q-12 -28 -33 -42.5 q-21 -14.5 -60 -14.5 q-69 0 -105.5 40.5 q-36.5 40.5 -36.5 113.5 ZM267 192 l0 29 l-74 0 q-43 0 -62 -19 q-19 -19 -19 -58 q0 -78 75 -78 q39 0 59.5 25 q20.5 25 20.5 101 ZM86 646 q0 46 32 78 q32 32 77 32 q46 0 78 -32 q32 -32 32 -78 q0 -45 -32 -77 q-32 -32 -78 -32 q-45 0 -77 32 q-32 32 -32 77 ZM138 646 q0 -23 17 -40 q17 -17 40 -17 q24 0 40.5 17 q16.5 17 16.5 40 q0 24 -16.5 40.5 q-16.5 16.5 -40.5 16.5 q-23 0 -40 -16.5 q-17 -16.5 -17 -40.5 Z" /><glyph glyph-name="ae" unicode="æ" d="M524 116 l59 -41 q-38 -83 -143 -83 q-97 0 -133 82 q-33 -82 -133 -82 q-69 0 -105.5 40.5 q-36.5 40.5 -36.5 113.5 q0 143 156 143 l79 0 l0 58 q0 51 -16.5 69 q-16.5 18 -60.5 18 q-37 0 -54.5 -9 q-17.5 -9 -32.5 -39 l-61 39 q21 44 55.5 63.5 q34.5 19.5 93.5 19.5 q87 0 122 -63 q39 63 120 63 q78 0 116.5 -54.5 q38.5 -54.5 38.5 -169.5 l0 -63 l-241 0 l0 -3 q0 -154 92 -154 q33 0 50.5 12 q17.5 12 34.5 40 ZM267 192 l0 29 l-74 0 q-43 0 -62 -19 q-19 -19 -19 -58 q0 -78 75 -78 q39 0 59.5 25 q20.5 25 20.5 101 ZM427 436 q-45 0 -62.5 -34.5 q-17.5 -34.5 -17.5 -112.5 l161 0 q0 85 -18.5 116 q-18.5 31 -62.5 31 Z" /><glyph glyph-name="ccedilla" unicode="ç" d="M289 116 l59 -41 q-31 -71 -112 -81 l-4 -17 q45 -21 45 -74 q0 -39 -26.5 -60.5 q-26.5 -21.5 -65.5 -21.5 q-21 0 -30 3 l11 52 q4 -1 13 -1 q31 0 31 28 q0 28 -38 28 l10 63 q-75 7 -112.5 66 q-37.5 59 -37.5 158 l0 66 q0 106 46.5 165 q46.5 59 128.5 59 q97 0 141 -77 l-61 -42 q-29 47 -80 47 q-47 0 -71 -40 q-24 -40 -24 -112 l0 -66 q0 -154 95 -154 q53 0 82 52 Z" /><glyph glyph-name="egrave" unicode="è" d="M289 116 l59 -41 q-38 -83 -143 -83 q-85 0 -129 60 q-44 60 -44 166 l0 66 q0 107 41.5 165.5 q41.5 58.5 118.5 58.5 q82 0 121.5 -54 q39.5 -54 39.5 -170 l0 -52 l-241 0 l0 -14 q0 -154 92 -154 q33 0 50.5 12 q17.5 12 34.5 40 ZM254.5 407 q-18.5 29 -62.5 29 q-44 0 -62 -32.5 q-18 -32.5 -18 -101.5 l161 0 q0 76 -18.5 105 ZM183 725 l55 -158 l-72 0 l-74 158 l91 0 Z" /><glyph glyph-name="eacute" unicode="é" d="M289 116 l59 -41 q-38 -83 -143 -83 q-85 0 -129 60 q-44 60 -44 166 l0 66 q0 107 41.5 165.5 q41.5 58.5 118.5 58.5 q82 0 121.5 -54 q39.5 -54 39.5 -170 l0 -52 l-241 0 l0 -14 q0 -154 92 -154 q33 0 50.5 12 q17.5 12 34.5 40 ZM254.5 407 q-18.5 29 -62.5 29 q-44 0 -62 -32.5 q-18 -32.5 -18 -101.5 l161 0 q0 76 -18.5 105 ZM147 567 l54 158 l89 0 l-74 -158 l-69 0 Z" /><glyph glyph-name="ecircumflex" unicode="ê" d="M289 116 l59 -41 q-38 -83 -143 -83 q-85 0 -129 60 q-44 60 -44 166 l0 66 q0 107 41.5 165.5 q41.5 58.5 118.5 58.5 q82 0 121.5 -54 q39.5 -54 39.5 -170 l0 -52 l-241 0 l0 -14 q0 -154 92 -154 q33 0 50.5 12 q17.5 12 34.5 40 ZM254.5 407 q-18.5 29 -62.5 29 q-44 0 -62 -32.5 q-18 -32.5 -18 -101.5 l161 0 q0 76 -18.5 105 ZM152 700 l86 0 l95 -142 l-77 0 l-61 97 l-61 -97 l-77 0 l95 142 Z" /><glyph glyph-name="edieresis" unicode="ë" d="M289 116 l59 -41 q-38 -83 -143 -83 q-85 0 -129 60 q-44 60 -44 166 l0 66 q0 107 41.5 165.5 q41.5 58.5 118.5 58.5 q82 0 121.5 -54 q39.5 -54 39.5 -170 l0 -52 l-241 0 l0 -14 q0 -154 92 -154 q33 0 50.5 12 q17.5 12 34.5 40 ZM254.5 407 q-18.5 29 -62.5 29 q-44 0 -62 -32.5 q-18 -32.5 -18 -101.5 l161 0 q0 76 -18.5 105 ZM74 600 l0 90 l88 0 l0 -90 l-88 0 ZM228 600 l0 90 l88 0 l0 -90 l-88 0 Z" /><glyph glyph-name="igrave" unicode="ì" d="M64 0 l0 500 l80 0 l0 -500 l-80 0 ZM82 725 l55 -158 l-72 0 l-74 158 l91 0 Z" /><glyph glyph-name="iacute" unicode="í" d="M64 0 l0 500 l80 0 l0 -500 l-80 0 ZM65 567 l54 158 l89 0 l-74 -158 l-69 0 Z" /><glyph glyph-name="icircumflex" unicode="î" d="M64 0 l0 500 l80 0 l0 -500 l-80 0 ZM57 700 l86 0 l95 -142 l-77 0 l-61 97 l-61 -97 l-77 0 l95 142 Z" /><glyph glyph-name="idieresis" unicode="ï" d="M-8 600 l0 90 l81 0 l0 -90 l-81 0 ZM135 600 l0 90 l81 0 l0 -90 l-81 0 ZM64 0 l0 500 l80 0 l0 -500 l-80 0 Z" /><glyph glyph-name="eth" unicode="ð" d="M117 635 l30 68 l40 -19 l26 58 l64 -28 l-29 -60 q3 -2 19.5 -14 q16.5 -12 22 -16.5 q5.5 -4.5 19.5 -18 q14 -13.5 19.5 -24.5 q5.5 -11 15.5 -31 q10 -20 14 -41 q4 -21 7.5 -51.5 q3.5 -30.5 3.5 -65.5 l0 -174 q0 -108 -44 -167 q-44 -59 -125 -59 q-81 0 -124.5 59 q-43.5 59 -43.5 167 l0 66 q0 107 43 165.5 q43 58.5 120 58.5 q63 0 94 -36 q-7 41 -24 65.5 q-17 24.5 -50 47.5 l-24 -49 l-60 27 l24 54 l-38 18 ZM200 64 q89 0 89 154 l0 66 q0 75 -20 113.5 q-20 38.5 -69 38.5 q-49 0 -68.5 -38 q-19.5 -38 -19.5 -114 l0 -66 q0 -154 88 -154 Z" /><glyph glyph-name="ntilde" unicode="ñ" d="M52 0 l0 500 l81 0 l0 -49 q29 57 98 57 q65 0 103.5 -48 q38.5 -48 38.5 -148 l0 -312 l-80 0 l0 311 q0 70 -20 96.5 q-20 26.5 -57 26.5 q-84 0 -84 -122 l0 -312 l-80 0 ZM261 589 q-20 0 -52 14.5 q-32 14.5 -50 14.5 q-29 0 -49 -28 l-45 40 q39 55 95 55 q19 0 51.5 -14.5 q32.5 -14.5 51.5 -14.5 q26 0 47 28 l45 -40 q-40 -55 -94 -55 Z" /><glyph glyph-name="ograve" unicode="ò" d="M369 284 l0 -66 q0 -108 -44 -167 q-44 -59 -125 -59 q-81 0 -124.5 59 q-43.5 59 -43.5 167 l0 66 q0 107 43.5 165.5 q43.5 58.5 124.5 58.5 q81 0 125 -58.5 q44 -58.5 44 -165.5 ZM200 64 q89 0 89 154 l0 66 q0 75 -20 113.5 q-20 38.5 -69 38.5 q-49 0 -68.5 -38 q-19.5 -38 -19.5 -114 l0 -66 q0 -154 88 -154 ZM187 725 l55 -158 l-72 0 l-74 158 l91 0 Z" /><glyph glyph-name="oacute" unicode="ó" d="M369 284 l0 -66 q0 -108 -44 -167 q-44 -59 -125 -59 q-81 0 -124.5 59 q-43.5 59 -43.5 167 l0 66 q0 107 43.5 165.5 q43.5 58.5 124.5 58.5 q81 0 125 -58.5 q44 -58.5 44 -165.5 ZM200 64 q89 0 89 154 l0 66 q0 75 -20 113.5 q-20 38.5 -69 38.5 q-49 0 -68.5 -38 q-19.5 -38 -19.5 -114 l0 -66 q0 -154 88 -154 ZM152 567 l54 158 l89 0 l-74 -158 l-69 0 Z" /><glyph glyph-name="ocircumflex" unicode="ô" d="M369 284 l0 -66 q0 -108 -44 -167 q-44 -59 -125 -59 q-81 0 -124.5 59 q-43.5 59 -43.5 167 l0 66 q0 107 43.5 165.5 q43.5 58.5 124.5 58.5 q81 0 125 -58.5 q44 -58.5 44 -165.5 ZM200 64 q89 0 89 154 l0 66 q0 75 -20 113.5 q-20 38.5 -69 38.5 q-49 0 -68.5 -38 q-19.5 -38 -19.5 -114 l0 -66 q0 -154 88 -154 ZM157 700 l86 0 l95 -142 l-77 0 l-61 97 l-61 -97 l-77 0 l95 142 Z" /><glyph glyph-name="otilde" unicode="õ" d="M369 284 l0 -66 q0 -108 -44 -167 q-44 -59 -125 -59 q-81 0 -124.5 59 q-43.5 59 -43.5 167 l0 66 q0 107 43.5 165.5 q43.5 58.5 124.5 58.5 q81 0 125 -58.5 q44 -58.5 44 -165.5 ZM200 64 q89 0 89 154 l0 66 q0 75 -20 113.5 q-20 38.5 -69 38.5 q-49 0 -68.5 -38 q-19.5 -38 -19.5 -114 l0 -66 q0 -154 88 -154 ZM251 589 q-20 0 -52 14.5 q-32 14.5 -50 14.5 q-29 0 -49 -28 l-45 40 q39 55 95 55 q19 0 51.5 -14.5 q32.5 -14.5 51.5 -14.5 q26 0 47 28 l45 -40 q-40 -55 -94 -55 Z" /><glyph glyph-name="odieresis" unicode="ö" d="M369 284 l0 -66 q0 -108 -44 -167 q-44 -59 -125 -59 q-81 0 -124.5 59 q-43.5 59 -43.5 167 l0 66 q0 107 43.5 165.5 q43.5 58.5 124.5 58.5 q81 0 125 -58.5 q44 -58.5 44 -165.5 ZM200 64 q89 0 89 154 l0 66 q0 75 -20 113.5 q-20 38.5 -69 38.5 q-49 0 -68.5 -38 q-19.5 -38 -19.5 -114 l0 -66 q0 -154 88 -154 ZM79 600 l0 90 l88 0 l0 -90 l-88 0 ZM233 600 l0 90 l88 0 l0 -90 l-88 0 Z" /><glyph glyph-name="divide" unicode="÷" d="M158 150 l0 90 l88 0 l0 -90 l-88 0 ZM158 469 l0 90 l88 0 l0 -90 l-88 0 ZM43 318 l0 72 l319 0 l0 -72 l-319 0 Z" /><glyph glyph-name="oslash" unicode="ø" d="M284 582 l70 0 l-42 -118 q57 -57 57 -180 l0 -66 q0 -108 -44 -167 q-44 -59 -125 -59 q-28 0 -55 8 l-28 -79 l-70 0 l41 115 q-56 58 -56 182 l0 66 q0 107 43.5 165.5 q43.5 58.5 124.5 58.5 q28 0 54 -8 l30 82 ZM200 64 q89 0 89 154 l0 66 q0 55 -10 89 l-109 -304 q10 -5 30 -5 ZM112 218 q0 -52 10 -88 l108 301 q-15 5 -30 5 q-49 0 -68.5 -38 q-19.5 -38 -19.5 -114 l0 -66 Z" /><glyph glyph-name="ugrave" unicode="ù" d="M373 500 l0 -500 l-80 0 l0 49 q-15 -28 -36.5 -42.5 q-21.5 -14.5 -62.5 -14.5 q-142 0 -142 196 l0 312 l80 0 l0 -311 q0 -70 20 -96.5 q20 -26.5 57 -26.5 q39 0 61.5 32 q22.5 32 22.5 90 l0 312 l80 0 ZM203 725 l55 -158 l-72 0 l-74 158 l91 0 Z" /><glyph glyph-name="uacute" unicode="ú" d="M373 500 l0 -500 l-80 0 l0 49 q-15 -28 -36.5 -42.5 q-21.5 -14.5 -62.5 -14.5 q-142 0 -142 196 l0 312 l80 0 l0 -311 q0 -70 20 -96.5 q20 -26.5 57 -26.5 q39 0 61.5 32 q22.5 32 22.5 90 l0 312 l80 0 ZM173 567 l54 158 l89 0 l-74 -158 l-69 0 Z" /><glyph glyph-name="ucircumflex" unicode="û" d="M373 500 l0 -500 l-80 0 l0 49 q-15 -28 -36.5 -42.5 q-21.5 -14.5 -62.5 -14.5 q-142 0 -142 196 l0 312 l80 0 l0 -311 q0 -70 20 -96.5 q20 -26.5 57 -26.5 q39 0 61.5 32 q22.5 32 22.5 90 l0 312 l80 0 ZM169 700 l86 0 l95 -142 l-77 0 l-61 97 l-61 -97 l-77 0 l95 142 Z" /><glyph glyph-name="udieresis" unicode="ü" d="M373 500 l0 -500 l-80 0 l0 49 q-15 -28 -36.5 -42.5 q-21.5 -14.5 -62.5 -14.5 q-142 0 -142 196 l0 312 l80 0 l0 -311 q0 -70 20 -96.5 q20 -26.5 57 -26.5 q39 0 61.5 32 q22.5 32 22.5 90 l0 312 l80 0 ZM91 600 l0 90 l88 0 l0 -90 l-88 0 ZM245 600 l0 90 l88 0 l0 -90 l-88 0 Z" /><glyph glyph-name="yacute" unicode="ý" d="M155 -19 l4 14 l-155 505 l86 0 l93 -322 l15 -53 l93 375 l83 0 l-138 -516 q-27 -99 -60.5 -136.5 q-33.5 -37.5 -117.5 -37.5 l0 78 q39 0 60 18 q21 18 37 75 ZM150 567 l54 158 l89 0 l-74 -158 l-69 0 Z" /><glyph glyph-name="thorn" unicode="þ" d="M132 690 l0 -240 q31 58 102 58 q72 0 114.5 -59 q42.5 -59 42.5 -165 l0 -66 q0 -102 -40 -164 q-40 -62 -117 -62 q-70 0 -102 52 l0 -234 l-80 0 l0 880 l80 0 ZM221 64 q45 0 67.5 43 q22.5 43 22.5 111 l0 66 q0 72 -23 112 q-23 40 -67 40 q-41 0 -65 -39 q-24 -39 -24 -106 l0 -73 q0 -154 89 -154 Z" /><glyph glyph-name="ydieresis" unicode="ÿ" d="M155 -19 l4 14 l-155 505 l86 0 l93 -322 l15 -53 l93 375 l83 0 l-138 -516 q-27 -99 -60.5 -136.5 q-33.5 -37.5 -117.5 -37.5 l0 78 q39 0 60 18 q21 18 37 75 ZM70 600 l0 90 l88 0 l0 -90 l-88 0 ZM224 600 l0 90 l88 0 l0 -90 l-88 0 Z" /><glyph glyph-name="Amacron" unicode="&#x100;" d="M98 0 l-90 0 l192 690 l76 0 l193 -690 l-90 0 l-39 158 l-203 0 l-39 -158 ZM238 544 l-76 -308 l152 0 l-76 308 ZM113 768 l0 72 l251 0 l0 -72 l-251 0 Z" /><glyph glyph-name="amacron" unicode="&#x101;" d="M32 146 q0 143 156 143 l79 0 l0 58 q0 51 -16.5 69 q-16.5 18 -60.5 18 q-37 0 -54.5 -9 q-17.5 -9 -32.5 -39 l-61 39 q21 44 55.5 63.5 q34.5 19.5 93.5 19.5 q80 0 118 -37 q38 -37 38 -124 l0 -347 l-80 0 l0 49 q-12 -28 -33 -42.5 q-21 -14.5 -60 -14.5 q-69 0 -105.5 40.5 q-36.5 40.5 -36.5 113.5 ZM267 192 l0 29 l-74 0 q-43 0 -62 -19 q-19 -19 -19 -58 q0 -78 75 -78 q39 0 59.5 25 q20.5 25 20.5 101 ZM89 600 l0 72 l219 0 l0 -72 l-219 0 Z" /><glyph glyph-name="Abreve" unicode="&#x102;" d="M98 0 l-90 0 l192 690 l76 0 l193 -690 l-90 0 l-39 158 l-203 0 l-39 -158 ZM238 544 l-76 -308 l152 0 l-76 308 ZM312 879 l76 0 q0 -73 -40 -112 q-40 -39 -109 -39 q-69 0 -109.5 39 q-40.5 39 -40.5 112 l76 0 q4 -76 74 -76 q69 0 73 76 Z" /><glyph glyph-name="abreve" unicode="&#x103;" d="M32 146 q0 143 156 143 l79 0 l0 58 q0 51 -16.5 69 q-16.5 18 -60.5 18 q-37 0 -54.5 -9 q-17.5 -9 -32.5 -39 l-61 39 q21 44 55.5 63.5 q34.5 19.5 93.5 19.5 q80 0 118 -37 q38 -37 38 -124 l0 -347 l-80 0 l0 49 q-12 -28 -33 -42.5 q-21 -14.5 -60 -14.5 q-69 0 -105.5 40.5 q-36.5 40.5 -36.5 113.5 ZM267 192 l0 29 l-74 0 q-43 0 -62 -19 q-19 -19 -19 -58 q0 -78 75 -78 q39 0 59.5 25 q20.5 25 20.5 101 ZM262 690 l61 0 q-1 -57 -34.5 -87.5 q-33.5 -30.5 -86.5 -30.5 q-54 0 -87.5 30.5 q-33.5 30.5 -34.5 87.5 l63 0 q5 -60 59 -60 q55 0 60 60 Z" /><glyph glyph-name="Aogonek" unicode="&#x104;" d="M98 0 l-90 0 l192 690 l76 0 l193 -690 q-46 -33 -46 -68 q0 -28 31 -28 q10 0 15 1 l10 -51 q-12 -4 -36 -4 q-37 0 -63.5 18.5 q-26.5 18.5 -26.5 57.5 q0 36 26 74 l-39 158 l-203 0 l-39 -158 ZM238 544 l-76 -308 l152 0 l-76 308 Z" /><glyph glyph-name="aogonek" unicode="&#x105;" d="M32 146 q0 143 156 143 l79 0 l0 58 q0 51 -16.5 69 q-16.5 18 -60.5 18 q-37 0 -54.5 -9 q-17.5 -9 -32.5 -39 l-61 39 q21 44 55.5 63.5 q34.5 19.5 93.5 19.5 q80 0 118 -37 q38 -37 38 -124 l0 -347 q-46 -34 -46 -68 q0 -28 31 -28 q5 0 15 2 l10 -53 q-9 -3 -36 -3 q-39 0 -64.5 18 q-25.5 18 -25.5 58 q0 45 36 78 l0 45 q-12 -28 -33 -42.5 q-21 -14.5 -60 -14.5 q-69 0 -105.5 40.5 q-36.5 40.5 -36.5 113.5 ZM267 192 l0 29 l-74 0 q-43 0 -62 -19 q-19 -19 -19 -58 q0 -78 75 -78 q39 0 59.5 25 q20.5 25 20.5 101 Z" /><glyph glyph-name="Cacute" unicode="&#x106;" d="M442 475 l-81 0 q-15 80 -42.5 112.5 q-27.5 32.5 -76.5 32.5 q-61 0 -88.5 -54 q-27.5 -54 -27.5 -183 l0 -76 q0 -129 27 -183 q27 -54 89 -54 q50 0 77.5 34 q27.5 34 41.5 111 l80 0 q-24 -223 -199 -223 q-202 0 -202 315 l0 76 q0 315 202 315 q173 0 200 -223 ZM193 747 l67 129 l92 0 l-88 -129 l-71 0 Z" /><glyph glyph-name="cacute" unicode="&#x107;" d="M289 116 l59 -41 q-34 -83 -141 -83 q-88 0 -131.5 59.5 q-43.5 59.5 -43.5 166.5 l0 66 q0 106 46.5 165 q46.5 59 128.5 59 q97 0 141 -77 l-61 -42 q-29 47 -80 47 q-47 0 -71 -40 q-24 -40 -24 -112 l0 -66 q0 -154 95 -154 q53 0 82 52 ZM160 567 l54 158 l89 0 l-74 -158 l-69 0 Z" /><glyph glyph-name="Ccircumflex" unicode="&#x108;" d="M442 475 l-81 0 q-15 80 -42.5 112.5 q-27.5 32.5 -76.5 32.5 q-61 0 -88.5 -54 q-27.5 -54 -27.5 -183 l0 -76 q0 -129 27 -183 q27 -54 89 -54 q50 0 77.5 34 q27.5 34 41.5 111 l80 0 q-24 -223 -199 -223 q-202 0 -202 315 l0 76 q0 315 202 315 q173 0 200 -223 ZM206 879 l71 0 l117 -142 l-84 0 l-68 92 l-68 -92 l-84 0 l116 142 Z" /><glyph glyph-name="ccircumflex" unicode="&#x109;" d="M289 116 l59 -41 q-34 -83 -141 -83 q-88 0 -131.5 59.5 q-43.5 59.5 -43.5 166.5 l0 66 q0 106 46.5 165 q46.5 59 128.5 59 q97 0 141 -77 l-61 -42 q-29 47 -80 47 q-47 0 -71 -40 q-24 -40 -24 -112 l0 -66 q0 -154 95 -154 q53 0 82 52 ZM165 700 l86 0 l95 -142 l-77 0 l-61 97 l-61 -97 l-77 0 l95 142 Z" /><glyph glyph-name="Cdotaccent" unicode="&#x10a;" d="M442 475 l-81 0 q-15 80 -42.5 112.5 q-27.5 32.5 -76.5 32.5 q-61 0 -88.5 -54 q-27.5 -54 -27.5 -183 l0 -76 q0 -129 27 -183 q27 -54 89 -54 q50 0 77.5 34 q27.5 34 41.5 111 l80 0 q-24 -223 -199 -223 q-202 0 -202 315 l0 76 q0 315 202 315 q173 0 200 -223 ZM198 779 l0 90 l90 0 l0 -90 l-90 0 Z" /><glyph glyph-name="cdotaccent" unicode="&#x10b;" d="M289 116 l59 -41 q-34 -83 -141 -83 q-88 0 -131.5 59.5 q-43.5 59.5 -43.5 166.5 l0 66 q0 106 46.5 165 q46.5 59 128.5 59 q97 0 141 -77 l-61 -42 q-29 47 -80 47 q-47 0 -71 -40 q-24 -40 -24 -112 l0 -66 q0 -154 95 -154 q53 0 82 52 ZM160 600 l0 90 l88 0 l0 -90 l-88 0 Z" /><glyph glyph-name="Ccaron" unicode="&#x10c;" d="M442 475 l-81 0 q-15 80 -42.5 112.5 q-27.5 32.5 -76.5 32.5 q-61 0 -88.5 -54 q-27.5 -54 -27.5 -183 l0 -76 q0 -129 27 -183 q27 -54 89 -54 q50 0 77.5 34 q27.5 34 41.5 111 l80 0 q-24 -223 -199 -223 q-202 0 -202 315 l0 76 q0 315 202 315 q173 0 200 -223 ZM274 737 l-71 0 l-116 142 l84 0 l68 -92 l68 92 l84 0 l-117 -142 Z" /><glyph glyph-name="ccaron" unicode="&#x10d;" d="M289 116 l59 -41 q-34 -83 -141 -83 q-88 0 -131.5 59.5 q-43.5 59.5 -43.5 166.5 l0 66 q0 106 46.5 165 q46.5 59 128.5 59 q97 0 141 -77 l-61 -42 q-29 47 -80 47 q-47 0 -71 -40 q-24 -40 -24 -112 l0 -66 q0 -154 95 -154 q53 0 82 52 ZM248 558 l-86 0 l-95 142 l77 0 l61 -97 l61 97 l77 0 l-95 -142 Z" /><glyph glyph-name="Dcaron" unicode="&#x10e;" d="M248 0 l-180 0 l0 690 l180 0 q200 0 200 -309 l0 -72 q0 -309 -200 -309 ZM248 78 q61 0 87.5 52 q26.5 52 26.5 179 l0 72 q0 126 -27 178.5 q-27 52.5 -87 52.5 l-94 0 l0 -534 l94 0 ZM254 737 l-71 0 l-116 142 l84 0 l68 -92 l68 92 l84 0 l-117 -142 Z" /><glyph glyph-name="dcaron" unicode="&#x10f;" d="M291 450 l0 240 l80 0 l0 -690 l-80 0 l0 44 q-32 -52 -102 -52 q-77 0 -117 62 q-40 62 -40 164 l0 66 q0 106 42.5 165 q42.5 59 114.5 59 q71 0 102 -58 ZM202 64 q89 0 89 154 l0 73 q0 67 -24 106 q-24 39 -65 39 q-44 0 -67 -40 q-23 -40 -23 -112 l0 -66 q0 -68 22.5 -111 q22.5 -43 67.5 -43 ZM527 690 l0 -96 l-96 -83 l0 179 l96 0 Z" /><glyph glyph-name="Dcroat" unicode="&#x110;" d="M-8 318 l0 78 l82 0 l0 294 l180 0 q200 0 200 -309 l0 -72 q0 -309 -200 -309 l-180 0 l0 318 l-82 0 ZM254 78 q61 0 87.5 52 q26.5 52 26.5 179 l0 72 q0 126 -27 178.5 q-27 52.5 -87 52.5 l-94 0 l0 -216 l131 0 l0 -78 l-131 0 l0 -240 l94 0 Z" /><glyph glyph-name="dcroat" unicode="&#x111;" d="M170 558 l0 72 l121 0 l0 60 l80 0 l0 -60 l74 0 l0 -72 l-74 0 l0 -558 l-80 0 l0 44 q-32 -52 -102 -52 q-77 0 -117 62 q-40 62 -40 164 l0 66 q0 106 42.5 165 q42.5 59 114.5 59 q71 0 102 -58 l0 108 l-121 0 ZM202 64 q89 0 89 154 l0 73 q0 67 -24 106 q-24 39 -65 39 q-44 0 -67 -40 q-23 -40 -23 -112 l0 -66 q0 -68 22.5 -111 q22.5 -43 67.5 -43 Z" /><glyph glyph-name="Emacron" unicode="&#x112;" d="M68 690 l337 0 l0 -78 l-251 0 l0 -216 l227 0 l0 -78 l-227 0 l0 -240 l251 0 l0 -78 l-337 0 l0 690 ZM111 768 l0 72 l251 0 l0 -72 l-251 0 Z" /><glyph glyph-name="emacron" unicode="&#x113;" d="M289 116 l59 -41 q-38 -83 -143 -83 q-85 0 -129 60 q-44 60 -44 166 l0 66 q0 107 41.5 165.5 q41.5 58.5 118.5 58.5 q82 0 121.5 -54 q39.5 -54 39.5 -170 l0 -52 l-241 0 l0 -14 q0 -154 92 -154 q33 0 50.5 12 q17.5 12 34.5 40 ZM254.5 407 q-18.5 29 -62.5 29 q-44 0 -62 -32.5 q-18 -32.5 -18 -101.5 l161 0 q0 76 -18.5 105 ZM89 600 l0 72 l219 0 l0 -72 l-219 0 Z" /><glyph glyph-name="Edotaccent" unicode="&#x116;" d="M68 690 l337 0 l0 -78 l-251 0 l0 -216 l227 0 l0 -78 l-227 0 l0 -240 l251 0 l0 -78 l-337 0 l0 690 ZM193 779 l0 90 l90 0 l0 -90 l-90 0 Z" /><glyph glyph-name="edotaccent" unicode="&#x117;" d="M289 116 l59 -41 q-38 -83 -143 -83 q-85 0 -129 60 q-44 60 -44 166 l0 66 q0 107 41.5 165.5 q41.5 58.5 118.5 58.5 q82 0 121.5 -54 q39.5 -54 39.5 -170 l0 -52 l-241 0 l0 -14 q0 -154 92 -154 q33 0 50.5 12 q17.5 12 34.5 40 ZM254.5 407 q-18.5 29 -62.5 29 q-44 0 -62 -32.5 q-18 -32.5 -18 -101.5 l161 0 q0 76 -18.5 105 ZM153 600 l0 90 l88 0 l0 -90 l-88 0 Z" /><glyph glyph-name="Eogonek" unicode="&#x118;" d="M68 690 l337 0 l0 -78 l-251 0 l0 -216 l227 0 l0 -78 l-227 0 l0 -240 l251 0 l0 -78 l-87 0 q-46 -34 -46 -68 q0 -28 31 -28 q10 0 15 1 l10 -51 q-12 -4 -36 -4 q-37 0 -63.5 18.5 q-26.5 18.5 -26.5 57.5 q0 41 31 74 l-165 0 l0 690 Z" /><glyph glyph-name="eogonek" unicode="&#x119;" d="M289 116 l59 -41 q-29 -63 -93 -78 q-41 -31 -41 -65 q0 -28 31 -28 q5 0 15 2 l10 -53 q-9 -3 -36 -3 q-39 0 -64.5 18 q-25.5 18 -25.5 58 q0 40 26 69 q-68 12 -103 70 q-35 58 -35 153 l0 66 q0 107 41.5 165.5 q41.5 58.5 118.5 58.5 q82 0 121.5 -54 q39.5 -54 39.5 -170 l0 -52 l-241 0 l0 -14 q0 -154 92 -154 q33 0 50.5 12 q17.5 12 34.5 40 ZM254.5 407 q-18.5 29 -62.5 29 q-44 0 -62 -32.5 q-18 -32.5 -18 -101.5 l161 0 q0 76 -18.5 105 Z" /><glyph glyph-name="Ecaron" unicode="&#x11a;" d="M68 690 l337 0 l0 -78 l-251 0 l0 -216 l227 0 l0 -78 l-227 0 l0 -240 l251 0 l0 -78 l-337 0 l0 690 ZM273 737 l-71 0 l-116 142 l84 0 l68 -92 l68 92 l84 0 l-117 -142 Z" /><glyph glyph-name="ecaron" unicode="&#x11b;" d="M289 116 l59 -41 q-38 -83 -143 -83 q-85 0 -129 60 q-44 60 -44 166 l0 66 q0 107 41.5 165.5 q41.5 58.5 118.5 58.5 q82 0 121.5 -54 q39.5 -54 39.5 -170 l0 -52 l-241 0 l0 -14 q0 -154 92 -154 q33 0 50.5 12 q17.5 12 34.5 40 ZM254.5 407 q-18.5 29 -62.5 29 q-44 0 -62 -32.5 q-18 -32.5 -18 -101.5 l161 0 q0 76 -18.5 105 ZM240 558 l-86 0 l-95 142 l77 0 l61 -97 l61 97 l77 0 l-95 -142 Z" /><glyph glyph-name="Gcircumflex" unicode="&#x11c;" d="M243 347 l203 0 l0 -40 q0 -161 -54 -238 q-54 -77 -150 -77 q-202 0 -202 315 l0 76 q0 315 202 315 q174 0 200 -223 l-81 0 q-14 77 -41.5 111 q-27.5 34 -77.5 34 q-62 0 -89 -54 q-27 -54 -27 -183 l0 -76 q0 -129 27 -183 q27 -54 89 -54 q114 0 118 199 l-117 0 l0 78 ZM206 879 l71 0 l117 -142 l-84 0 l-68 92 l-68 -92 l-84 0 l116 142 Z" /><glyph glyph-name="gcircumflex" unicode="&#x11d;" d="M291 450 l0 50 l80 0 l0 -490 q0 -206 -172 -206 q-109 0 -149 83 l61 42 q14 -28 33 -40.5 q19 -12.5 53 -12.5 q50 0 72 33.5 q22 33.5 22 100.5 l0 34 q-32 -52 -102 -52 q-77 0 -117 62 q-40 62 -40 164 l0 66 q0 106 42.5 165 q42.5 59 114.5 59 q71 0 102 -58 ZM202 64 q89 0 89 154 l0 73 q0 67 -24 106 q-24 39 -65 39 q-44 0 -67 -40 q-23 -40 -23 -112 l0 -66 q0 -68 22.5 -111 q22.5 -43 67.5 -43 ZM173 700 l86 0 l95 -142 l-77 0 l-61 97 l-61 -97 l-77 0 l95 142 Z" /><glyph glyph-name="Gbreve" unicode="&#x11e;" d="M243 347 l203 0 l0 -40 q0 -161 -54 -238 q-54 -77 -150 -77 q-202 0 -202 315 l0 76 q0 315 202 315 q174 0 200 -223 l-81 0 q-14 77 -41.5 111 q-27.5 34 -77.5 34 q-62 0 -89 -54 q-27 -54 -27 -183 l0 -76 q0 -129 27 -183 q27 -54 89 -54 q114 0 118 199 l-117 0 l0 78 ZM323 879 l76 0 q0 -73 -40 -112 q-40 -39 -109 -39 q-69 0 -109.5 39 q-40.5 39 -40.5 112 l76 0 q4 -76 74 -76 q69 0 73 76 Z" /><glyph glyph-name="gbreve" unicode="&#x11f;" d="M291 450 l0 50 l80 0 l0 -490 q0 -206 -172 -206 q-109 0 -149 83 l61 42 q14 -28 33 -40.5 q19 -12.5 53 -12.5 q50 0 72 33.5 q22 33.5 22 100.5 l0 34 q-32 -52 -102 -52 q-77 0 -117 62 q-40 62 -40 164 l0 66 q0 106 42.5 165 q42.5 59 114.5 59 q71 0 102 -58 ZM202 64 q89 0 89 154 l0 73 q0 67 -24 106 q-24 39 -65 39 q-44 0 -67 -40 q-23 -40 -23 -112 l0 -66 q0 -68 22.5 -111 q22.5 -43 67.5 -43 ZM292 690 l61 0 q-1 -57 -34.5 -87.5 q-33.5 -30.5 -86.5 -30.5 q-54 0 -87.5 30.5 q-33.5 30.5 -34.5 87.5 l63 0 q5 -60 59 -60 q55 0 60 60 Z" /><glyph glyph-name="Gdotaccent" unicode="&#x120;" d="M243 347 l203 0 l0 -40 q0 -161 -54 -238 q-54 -77 -150 -77 q-202 0 -202 315 l0 76 q0 315 202 315 q174 0 200 -223 l-81 0 q-14 77 -41.5 111 q-27.5 34 -77.5 34 q-62 0 -89 -54 q-27 -54 -27 -183 l0 -76 q0 -129 27 -183 q27 -54 89 -54 q114 0 118 199 l-117 0 l0 78 ZM198 779 l0 90 l90 0 l0 -90 l-90 0 Z" /><glyph glyph-name="gdotaccent" unicode="&#x121;" d="M291 450 l0 50 l80 0 l0 -490 q0 -206 -172 -206 q-109 0 -149 83 l61 42 q14 -28 33 -40.5 q19 -12.5 53 -12.5 q50 0 72 33.5 q22 33.5 22 100.5 l0 34 q-32 -52 -102 -52 q-77 0 -117 62 q-40 62 -40 164 l0 66 q0 106 42.5 165 q42.5 59 114.5 59 q71 0 102 -58 ZM202 64 q89 0 89 154 l0 73 q0 67 -24 106 q-24 39 -65 39 q-44 0 -67 -40 q-23 -40 -23 -112 l0 -66 q0 -68 22.5 -111 q22.5 -43 67.5 -43 ZM155 600 l0 90 l88 0 l0 -90 l-88 0 Z" /><glyph glyph-name="Gcommaaccent" unicode="&#x122;" d="M243 347 l203 0 l0 -40 q0 -161 -54 -238 q-54 -77 -150 -77 q-202 0 -202 315 l0 76 q0 315 202 315 q174 0 200 -223 l-81 0 q-14 77 -41.5 111 q-27.5 34 -77.5 34 q-62 0 -89 -54 q-27 -54 -27 -183 l0 -76 q0 -129 27 -183 q27 -54 89 -54 q114 0 118 199 l-117 0 l0 78 ZM295 -64 l0 -96 l-96 -83 l0 179 l96 0 Z" /><glyph glyph-name="gcommaaccent" unicode="&#x123;" d="M291 450 l0 50 l80 0 l0 -490 q0 -206 -172 -206 q-109 0 -149 83 l61 42 q14 -28 33 -40.5 q19 -12.5 53 -12.5 q50 0 72 33.5 q22 33.5 22 100.5 l0 34 q-32 -52 -102 -52 q-77 0 -117 62 q-40 62 -40 164 l0 66 q0 106 42.5 165 q42.5 59 114.5 59 q71 0 102 -58 ZM202 64 q89 0 89 154 l0 73 q0 67 -24 106 q-24 39 -65 39 q-44 0 -67 -40 q-23 -40 -23 -112 l0 -66 q0 -68 22.5 -111 q22.5 -43 67.5 -43 ZM158 593 l0 96 l96 83 l0 -179 l-96 0 Z" /><glyph glyph-name="Hcircumflex" unicode="&#x124;" d="M154 690 l0 -294 l206 0 l0 294 l86 0 l0 -690 l-86 0 l0 318 l-206 0 l0 -318 l-86 0 l0 690 l86 0 ZM221 879 l71 0 l117 -142 l-84 0 l-68 92 l-68 -92 l-84 0 l116 142 Z" /><glyph glyph-name="hcircumflex" unicode="&#x125;" d="M52 0 l0 690 l81 0 l0 -239 q29 57 98 57 q65 0 103.5 -48 q38.5 -48 38.5 -148 l0 -312 l-80 0 l0 311 q0 70 -20 96.5 q-20 26.5 -57 26.5 q-84 0 -84 -122 l0 -312 l-80 0 ZM49 866 l86 0 l95 -142 l-77 0 l-61 97 l-61 -97 l-77 0 l95 142 Z" /><glyph glyph-name="Hbar" unicode="&#x126;" d="M-8 468 l0 78 l80 0 l0 144 l86 0 l0 -144 l206 0 l0 144 l86 0 l0 -144 l80 0 l0 -78 l-80 0 l0 -468 l-86 0 l0 318 l-206 0 l0 -318 l-86 0 l0 468 l-80 0 ZM158 396 l206 0 l0 72 l-206 0 l0 -72 Z" /><glyph glyph-name="hbar" unicode="&#x127;" d="M-23 558 l0 72 l75 0 l0 60 l81 0 l0 -60 l129 0 l0 -72 l-129 0 l0 -107 q29 57 98 57 q65 0 103.5 -48 q38.5 -48 38.5 -148 l0 -312 l-80 0 l0 311 q0 70 -20 96.5 q-20 26.5 -57 26.5 q-84 0 -84 -122 l0 -312 l-80 0 l0 558 l-75 0 Z" /><glyph glyph-name="Imacron" unicode="&#x12a;" d="M162 690 l0 -690 l-86 0 l0 690 l86 0 ZM-6 768 l0 72 l251 0 l0 -72 l-251 0 Z" /><glyph glyph-name="imacron" unicode="&#x12b;" d="M64 0 l0 500 l80 0 l0 -500 l-80 0 ZM-5 600 l0 72 l219 0 l0 -72 l-219 0 Z" /><glyph glyph-name="Iogonek" unicode="&#x12e;" d="M162 690 l0 -690 q-46 -34 -46 -68 q0 -28 31 -28 q10 0 15 1 l10 -51 q-12 -4 -36 -4 q-37 0 -63.5 18.5 q-26.5 18.5 -26.5 57.5 q0 41 30 74 l0 690 l86 0 Z" /><glyph glyph-name="iogonek" unicode="&#x12f;" d="M28 -74 q0 45 36 78 l0 496 l80 0 l0 -500 q-46 -34 -46 -68 q0 -28 31 -28 q5 0 15 2 l10 -53 q-9 -3 -36 -3 q-39 0 -64.5 18 q-25.5 18 -25.5 58 ZM58 600 l0 90 l93 0 l0 -90 l-93 0 Z" /><glyph glyph-name="Idotaccent" unicode="&#x130;" d="M162 690 l0 -690 l-86 0 l0 690 l86 0 ZM74 779 l0 90 l90 0 l0 -90 l-90 0 Z" /><glyph glyph-name="dotlessi" unicode="&#x131;" d="M64 0 l0 500 l80 0 l0 -500 l-80 0 Z" /><glyph glyph-name="Jcircumflex" unicode="&#x134;" d="M4 78 l71 44 q27 -52 77 -52 q55 0 78.5 46 q23.5 46 23.5 168 l0 406 l86 0 l0 -406 q0 -155 -48 -223.5 q-48 -68.5 -140 -68.5 q-105 0 -148 86 ZM263 879 l71 0 l117 -142 l-84 0 l-68 92 l-68 -92 l-84 0 l116 142 Z" /><glyph glyph-name="jcircumflex" unicode="&#x135;" d="M143 500 l0 -536 q0 -81 -31.5 -117.5 q-31.5 -36.5 -111.5 -36.5 l0 74 q18 0 30.5 6 q12.5 6 19 13 q6.5 7 9.5 23 q3 16 3.5 26.5 q0.5 10.5 0.5 31.5 l0 516 l80 0 ZM59 700 l86 0 l95 -142 l-77 0 l-61 97 l-61 -97 l-77 0 l95 142 Z" /><glyph glyph-name="Kcommaaccent" unicode="&#x136;" d="M516 0 l-101 0 l-169 339 l-92 -145 l0 -194 l-86 0 l0 690 l86 0 l0 -355 l226 355 l96 0 l-173 -276 l213 -414 ZM320 -64 l0 -96 l-96 -83 l0 179 l96 0 Z" /><glyph glyph-name="kcommaaccent" unicode="&#x137;" d="M274 500 l92 0 l-145 -204 l168 -296 l-94 0 l-126 227 l-37 -51 l0 -176 l-80 0 l0 690 l80 0 l0 -391 l142 201 ZM253 -64 l0 -96 l-96 -83 l0 179 l96 0 Z" /><glyph glyph-name="Lacute" unicode="&#x139;" d="M154 690 l0 -612 l251 0 l0 -78 l-337 0 l0 690 l86 0 ZM75 747 l67 129 l92 0 l-88 -129 l-71 0 Z" /><glyph glyph-name="lacute" unicode="&#x13a;" d="M52 154 l0 536 l80 0 l0 -516 q0 -23 0.5 -32 q0.5 -9 3 -26 q2.5 -17 9 -23.5 q6.5 -6.5 18.5 -12.5 q12 -6 31 -6 l0 -74 q-79 0 -110.5 36.5 q-31.5 36.5 -31.5 117.5 ZM52 718 l54 158 l89 0 l-74 -158 l-69 0 Z" /><glyph glyph-name="Lcommaaccent" unicode="&#x13b;" d="M154 690 l0 -612 l251 0 l0 -78 l-337 0 l0 690 l86 0 ZM290 -64 l0 -96 l-96 -83 l0 179 l96 0 Z" /><glyph glyph-name="lcommaaccent" unicode="&#x13c;" d="M52 154 l0 536 l80 0 l0 -516 q0 -23 0.5 -32 q0.5 -9 3 -26 q2.5 -17 9 -23.5 q6.5 -6.5 18.5 -12.5 q12 -6 31 -6 l0 -74 q-79 0 -110.5 36.5 q-31.5 36.5 -31.5 117.5 ZM169 -64 l0 -96 l-96 -83 l0 179 l96 0 Z" /><glyph glyph-name="Lcaron" unicode="&#x13d;" d="M154 690 l0 -612 l251 0 l0 -78 l-337 0 l0 690 l86 0 ZM328 740 l0 -185 l-86 -74 l0 259 l86 0 Z" /><glyph glyph-name="lcaron" unicode="&#x13e;" d="M52 154 l0 536 l80 0 l0 -516 q0 -23 0.5 -32 q0.5 -9 3 -26 q2.5 -17 9 -23.5 q6.5 -6.5 18.5 -12.5 q12 -6 31 -6 l0 -74 q-79 0 -110.5 36.5 q-31.5 36.5 -31.5 117.5 ZM267 690 l0 -96 l-96 -83 l0 179 l96 0 Z" /><glyph glyph-name="Ldot" unicode="&#x13f;" d="M154 690 l0 -612 l251 0 l0 -78 l-337 0 l0 690 l86 0 ZM282 350 l0 90 l88 0 l0 -90 l-88 0 Z" /><glyph glyph-name="ldot" unicode="&#x140;" d="M52 154 l0 536 l80 0 l0 -516 q0 -23 0.5 -32 q0.5 -9 3 -26 q2.5 -17 9 -23.5 q6.5 -6.5 18.5 -12.5 q12 -6 31 -6 l0 -74 q-79 0 -110.5 36.5 q-31.5 36.5 -31.5 117.5 ZM184 344 l0 90 l90 0 l0 -90 l-90 0 Z" /><glyph glyph-name="Lslash" unicode="&#x141;" d="M46 222 l-54 56 l101 99 l0 313 l86 0 l0 -229 l89 87 l54 -56 l-143 -140 l0 -274 l251 0 l0 -78 l-337 0 l0 268 l-47 -46 Z" /><glyph glyph-name="lslash" unicode="&#x142;" d="M37 244 l-45 52 l85 72 l0 322 l80 0 l0 -253 l47 40 l45 -52 l-92 -79 l0 -172 q0 -23 0.5 -32 q0.5 -9 3 -26 q2.5 -17 9 -23.5 q6.5 -6.5 18.5 -12.5 q12 -6 31 -6 l0 -74 q-79 0 -110.5 36.5 q-31.5 36.5 -31.5 117.5 l0 124 l-40 -34 Z" /><glyph glyph-name="Nacute" unicode="&#x143;" d="M361 690 l86 0 l0 -690 l-80 0 l-213 478 l0 -478 l-86 0 l0 690 l77 0 l216 -483 l0 483 ZM215 747 l67 129 l92 0 l-88 -129 l-71 0 Z" /><glyph glyph-name="nacute" unicode="&#x144;" d="M52 0 l0 500 l81 0 l0 -49 q29 57 98 57 q65 0 103.5 -48 q38.5 -48 38.5 -148 l0 -312 l-80 0 l0 311 q0 70 -20 96.5 q-20 26.5 -57 26.5 q-84 0 -84 -122 l0 -312 l-80 0 ZM168 567 l54 158 l89 0 l-74 -158 l-69 0 Z" /><glyph glyph-name="Ncommaaccent" unicode="&#x145;" d="M361 690 l86 0 l0 -690 l-80 0 l-213 478 l0 -478 l-86 0 l0 690 l77 0 l216 -483 l0 483 ZM306 -64 l0 -96 l-96 -83 l0 179 l96 0 Z" /><glyph glyph-name="ncommaaccent" unicode="&#x146;" d="M52 0 l0 500 l81 0 l0 -49 q29 57 98 57 q65 0 103.5 -48 q38.5 -48 38.5 -148 l0 -312 l-80 0 l0 311 q0 70 -20 96.5 q-20 26.5 -57 26.5 q-84 0 -84 -122 l0 -312 l-80 0 ZM260 -64 l0 -96 l-96 -83 l0 179 l96 0 Z" /><glyph glyph-name="Ncaron" unicode="&#x147;" d="M361 690 l86 0 l0 -690 l-80 0 l-213 478 l0 -478 l-86 0 l0 690 l77 0 l216 -483 l0 483 ZM292 737 l-71 0 l-116 142 l84 0 l68 -92 l68 92 l84 0 l-117 -142 Z" /><glyph glyph-name="ncaron" unicode="&#x148;" d="M52 0 l0 500 l81 0 l0 -49 q29 57 98 57 q65 0 103.5 -48 q38.5 -48 38.5 -148 l0 -312 l-80 0 l0 311 q0 70 -20 96.5 q-20 26.5 -57 26.5 q-84 0 -84 -122 l0 -312 l-80 0 ZM262 558 l-86 0 l-95 142 l77 0 l61 -97 l61 97 l77 0 l-95 -142 Z" /><glyph glyph-name="Omacron" unicode="&#x14c;" d="M444 307 q0 -315 -202 -315 q-202 0 -202 315 l0 76 q0 315 202 315 q202 0 202 -315 l0 -76 ZM126 383 l0 -76 q0 -130 27 -183.5 q27 -53.5 89 -53.5 q62 0 89 53.5 q27 53.5 27 183.5 l0 76 q0 130 -27 183.5 q-27 53.5 -89 53.5 q-62 0 -89 -53.5 q-27 -53.5 -27 -183.5 ZM117 768 l0 72 l251 0 l0 -72 l-251 0 Z" /><glyph glyph-name="omacron" unicode="&#x14d;" d="M369 284 l0 -66 q0 -108 -44 -167 q-44 -59 -125 -59 q-81 0 -124.5 59 q-43.5 59 -43.5 167 l0 66 q0 107 43.5 165.5 q43.5 58.5 124.5 58.5 q81 0 125 -58.5 q44 -58.5 44 -165.5 ZM200 64 q89 0 89 154 l0 66 q0 75 -20 113.5 q-20 38.5 -69 38.5 q-49 0 -68.5 -38 q-19.5 -38 -19.5 -114 l0 -66 q0 -154 88 -154 ZM91 600 l0 72 l219 0 l0 -72 l-219 0 Z" /><glyph glyph-name="Ohungarumlaut" unicode="&#x150;" d="M444 307 q0 -315 -202 -315 q-202 0 -202 315 l0 76 q0 315 202 315 q202 0 202 -315 l0 -76 ZM126 383 l0 -76 q0 -130 27 -183.5 q27 -53.5 89 -53.5 q62 0 89 53.5 q27 53.5 27 183.5 l0 76 q0 130 -27 183.5 q-27 53.5 -89 53.5 q-62 0 -89 -53.5 q-27 -53.5 -27 -183.5 ZM124 747 l64 129 l92 0 l-85 -129 l-71 0 ZM257 747 l74 129 l93 0 l-96 -129 l-71 0 Z" /><glyph glyph-name="ohungarumlaut" unicode="&#x151;" d="M369 284 l0 -66 q0 -108 -44 -167 q-44 -59 -125 -59 q-81 0 -124.5 59 q-43.5 59 -43.5 167 l0 66 q0 107 43.5 165.5 q43.5 58.5 124.5 58.5 q81 0 125 -58.5 q44 -58.5 44 -165.5 ZM200 64 q89 0 89 154 l0 66 q0 75 -20 113.5 q-20 38.5 -69 38.5 q-49 0 -68.5 -38 q-19.5 -38 -19.5 -114 l0 -66 q0 -154 88 -154 ZM103 567 l54 158 l89 0 l-74 -158 l-69 0 ZM220 567 l74 158 l89 0 l-94 -158 l-69 0 Z" /><glyph glyph-name="OE" unicode="&#x152;" d="M358 690 l337 0 l0 -78 l-251 0 l0 -216 l227 0 l0 -78 l-227 0 l0 -240 l251 0 l0 -78 l-337 0 l0 43 q-40 -51 -116 -51 q-202 0 -202 315 l0 76 q0 315 202 315 q76 0 116 -50 l0 42 ZM126 383 l0 -76 q0 -130 27 -183.5 q27 -53.5 89 -53.5 q62 0 89 53.5 q27 53.5 27 183.5 l0 76 q0 130 -27 183.5 q-27 53.5 -89 53.5 q-62 0 -89 -53.5 q-27 -53.5 -27 -183.5 Z" /><glyph glyph-name="oe" unicode="&#x153;" d="M546 116 l59 -41 q-38 -83 -143 -83 q-99 0 -133 91 q-35 -91 -129 -91 q-81 0 -124.5 59 q-43.5 59 -43.5 167 l0 66 q0 107 43.5 165.5 q43.5 58.5 124.5 58.5 q95 0 129 -87 q34 87 126 87 q78 0 116.5 -54.5 q38.5 -54.5 38.5 -169.5 l0 -52 l-241 0 l0 -14 q0 -154 92 -154 q33 0 50.5 12 q17.5 12 34.5 40 ZM200 64 q89 0 89 154 l0 66 q0 75 -20 113.5 q-20 38.5 -69 38.5 q-49 0 -68.5 -38 q-19.5 -38 -19.5 -114 l0 -66 q0 -154 88 -154 ZM511.5 407 q-18.5 29 -62.5 29 q-44 0 -62 -32.5 q-18 -32.5 -18 -101.5 l161 0 q0 76 -18.5 105 Z" /><glyph glyph-name="Racute" unicode="&#x154;" d="M463 0 l-91 0 l-111 291 l-107 0 l0 -291 l-86 0 l0 690 l178 0 q98 0 150.5 -50.5 q52.5 -50.5 52.5 -149.5 q0 -144 -107 -184 l121 -306 ZM154 369 l92 0 q65 0 91 28 q26 28 26 93 q0 66 -26 94 q-26 28 -91 28 l-92 0 l0 -243 ZM173 747 l67 129 l92 0 l-88 -129 l-71 0 Z" /><glyph glyph-name="racute" unicode="&#x155;" d="M330 440 l-62 -47 q-24 41 -62 41 q-74 0 -74 -121 l0 -313 l-80 0 l0 500 l80 0 l0 -49 q27 57 91 57 q69 0 107 -68 ZM117 567 l54 158 l89 0 l-74 -158 l-69 0 Z" /><glyph glyph-name="Rcommaaccent" unicode="&#x156;" d="M463 0 l-91 0 l-111 291 l-107 0 l0 -291 l-86 0 l0 690 l178 0 q98 0 150.5 -50.5 q52.5 -50.5 52.5 -149.5 q0 -144 -107 -184 l121 -306 ZM154 369 l92 0 q65 0 91 28 q26 28 26 93 q0 66 -26 94 q-26 28 -91 28 l-92 0 l0 -243 ZM302 -64 l0 -96 l-96 -83 l0 179 l96 0 Z" /><glyph glyph-name="rcommaaccent" unicode="&#x157;" d="M330 440 l-62 -47 q-24 41 -62 41 q-74 0 -74 -121 l0 -313 l-80 0 l0 500 l80 0 l0 -49 q27 57 91 57 q69 0 107 -68 ZM142 -64 l0 -96 l-96 -83 l0 179 l96 0 Z" /><glyph glyph-name="Rcaron" unicode="&#x158;" d="M463 0 l-91 0 l-111 291 l-107 0 l0 -291 l-86 0 l0 690 l178 0 q98 0 150.5 -50.5 q52.5 -50.5 52.5 -149.5 q0 -144 -107 -184 l121 -306 ZM154 369 l92 0 q65 0 91 28 q26 28 26 93 q0 66 -26 94 q-26 28 -91 28 l-92 0 l0 -243 ZM278 737 l-71 0 l-116 142 l84 0 l68 -92 l68 92 l84 0 l-117 -142 Z" /><glyph glyph-name="rcaron" unicode="&#x159;" d="M330 440 l-62 -47 q-24 41 -62 41 q-74 0 -74 -121 l0 -313 l-80 0 l0 500 l80 0 l0 -49 q27 57 91 57 q69 0 107 -68 ZM226 558 l-86 0 l-95 142 l77 0 l61 -97 l61 97 l77 0 l-95 -142 Z" /><glyph glyph-name="Sacute" unicode="&#x15a;" d="M413 585 l-65 -44 q-23 40 -49.5 59.5 q-26.5 19.5 -72.5 19.5 q-44 0 -69 -28.5 q-25 -28.5 -25 -79.5 q0 -55 27 -82 q27 -27 93 -46 q84 -24 128 -70.5 q44 -46.5 44 -128.5 q0 -49 -17 -90.5 q-17 -41.5 -61.5 -72 q-44.5 -30.5 -110.5 -30.5 q-136 0 -199 113 l68 46 q30 -43 58 -62 q28 -19 73 -19 q104 0 104 111 q0 49 -24.5 79 q-24.5 30 -96.5 50 q-172 47 -172 202 q0 78 46 132 q46 54 136 54 q126 0 185 -113 ZM181 747 l67 129 l92 0 l-88 -129 l-71 0 Z" /><glyph glyph-name="sacute" unicode="&#x15b;" d="M330 425 l-58 -42 q-16 28 -34 39.5 q-18 11.5 -53 11.5 q-68 0 -68 -67 q0 -34 19 -52 q19 -18 61 -27 q66 -15 105.5 -47 q39.5 -32 39.5 -102 q0 -67 -39.5 -107 q-39.5 -40 -113.5 -40 q-109 0 -157 81 l57 46 q29 -53 95 -53 q78 0 78 71 q0 34 -18.5 51 q-18.5 17 -70.5 29 q-136 30 -136 149 q0 63 39 102.5 q39 39.5 106 39.5 q105 0 148 -83 ZM137 567 l54 158 l89 0 l-74 -158 l-69 0 Z" /><glyph glyph-name="Scircumflex" unicode="&#x15c;" d="M413 585 l-65 -44 q-23 40 -49.5 59.5 q-26.5 19.5 -72.5 19.5 q-44 0 -69 -28.5 q-25 -28.5 -25 -79.5 q0 -55 27 -82 q27 -27 93 -46 q84 -24 128 -70.5 q44 -46.5 44 -128.5 q0 -49 -17 -90.5 q-17 -41.5 -61.5 -72 q-44.5 -30.5 -110.5 -30.5 q-136 0 -199 113 l68 46 q30 -43 58 -62 q28 -19 73 -19 q104 0 104 111 q0 49 -24.5 79 q-24.5 30 -96.5 50 q-172 47 -172 202 q0 78 46 132 q46 54 136 54 q126 0 185 -113 ZM195 879 l71 0 l117 -142 l-84 0 l-68 92 l-68 -92 l-84 0 l116 142 Z" /><glyph glyph-name="scircumflex" unicode="&#x15d;" d="M330 425 l-58 -42 q-16 28 -34 39.5 q-18 11.5 -53 11.5 q-68 0 -68 -67 q0 -34 19 -52 q19 -18 61 -27 q66 -15 105.5 -47 q39.5 -32 39.5 -102 q0 -67 -39.5 -107 q-39.5 -40 -113.5 -40 q-109 0 -157 81 l57 46 q29 -53 95 -53 q78 0 78 71 q0 34 -18.5 51 q-18.5 17 -70.5 29 q-136 30 -136 149 q0 63 39 102.5 q39 39.5 106 39.5 q105 0 148 -83 ZM143 700 l86 0 l95 -142 l-77 0 l-61 97 l-61 -97 l-77 0 l95 142 Z" /><glyph glyph-name="Scedilla" unicode="&#x15e;" d="M197 -69 l10 62 q-115 10 -171 112 l68 45 q30 -43 58 -61.5 q28 -18.5 73 -18.5 q104 0 104 111 q0 49 -24.5 79 q-24.5 30 -96.5 50 q-172 47 -172 202 q0 78 46 132 q46 54 136 54 q126 0 185 -113 l-65 -44 q-23 40 -49.5 59.5 q-26.5 19.5 -72.5 19.5 q-44 0 -69 -28.5 q-25 -28.5 -25 -79.5 q0 -55 27 -82 q27 -27 93 -46 q84 -24 128 -70.5 q44 -46.5 44 -128.5 q0 -72 -40 -128 q-40 -56 -123 -64 l-4 -16 q46 -16 46 -74 q0 -39 -26.5 -60.5 q-26.5 -21.5 -66.5 -21.5 q-21 0 -30 3 l11 52 q4 -1 13 -1 q31 0 31 28 q0 28 -38 28 Z" /><glyph glyph-name="scedilla" unicode="&#x15f;" d="M158 -69 l10 62 q-92 5 -136 80 l57 46 q29 -53 95 -53 q78 0 78 71 q0 34 -18.5 51 q-18.5 17 -70.5 29 q-136 30 -136 149 q0 63 39 102.5 q39 39.5 106 39.5 q105 0 148 -83 l-58 -42 q-16 28 -34 39.5 q-18 11.5 -53 11.5 q-68 0 -68 -67 q0 -34 19 -52 q19 -18 61 -27 q66 -15 105.5 -47 q39.5 -32 39.5 -102 q0 -59 -30.5 -97.5 q-30.5 -38.5 -89.5 -47.5 l-4 -17 q45 -21 45 -74 q0 -39 -26.5 -60.5 q-26.5 -21.5 -65.5 -21.5 q-21 0 -30 3 l11 52 q4 -1 13 -1 q31 0 31 28 q0 28 -38 28 Z" /><glyph glyph-name="Scaron" unicode="&#x160;" d="M413 585 l-65 -44 q-23 40 -49.5 59.5 q-26.5 19.5 -72.5 19.5 q-44 0 -69 -28.5 q-25 -28.5 -25 -79.5 q0 -55 27 -82 q27 -27 93 -46 q84 -24 128 -70.5 q44 -46.5 44 -128.5 q0 -49 -17 -90.5 q-17 -41.5 -61.5 -72 q-44.5 -30.5 -110.5 -30.5 q-136 0 -199 113 l68 46 q30 -43 58 -62 q28 -19 73 -19 q104 0 104 111 q0 49 -24.5 79 q-24.5 30 -96.5 50 q-172 47 -172 202 q0 78 46 132 q46 54 136 54 q126 0 185 -113 ZM262 737 l-71 0 l-116 142 l84 0 l68 -92 l68 92 l84 0 l-117 -142 Z" /><glyph glyph-name="scaron" unicode="&#x161;" d="M330 425 l-58 -42 q-16 28 -34 39.5 q-18 11.5 -53 11.5 q-68 0 -68 -67 q0 -34 19 -52 q19 -18 61 -27 q66 -15 105.5 -47 q39.5 -32 39.5 -102 q0 -67 -39.5 -107 q-39.5 -40 -113.5 -40 q-109 0 -157 81 l57 46 q29 -53 95 -53 q78 0 78 71 q0 34 -18.5 51 q-18.5 17 -70.5 29 q-136 30 -136 149 q0 63 39 102.5 q39 39.5 106 39.5 q105 0 148 -83 ZM226 558 l-86 0 l-95 142 l77 0 l61 -97 l61 97 l77 0 l-95 -142 Z" /><glyph glyph-name="Tcedilla" unicode="&#x162;" d="M171 -69 l11 69 l-17 0 l0 612 l-161 0 l0 78 l409 0 l0 -78 l-162 0 l0 -612 l-15 0 l-5 -23 q46 -16 46 -74 q0 -39 -26.5 -60.5 q-26.5 -21.5 -66.5 -21.5 q-21 0 -30 3 l11 52 q4 -1 13 -1 q31 0 31 28 q0 28 -38 28 Z" /><glyph glyph-name="tcedilla" unicode="&#x163;" d="M126 -69 l13 76 q-39 13 -55 48.5 q-16 35.5 -16 98.5 l0 274 l-51 0 l0 72 l51 0 l0 110 l80 0 l0 -110 l83 0 l0 -72 l-83 0 l0 -254 q0 -57 9 -77.5 q9 -20.5 45 -20.5 l29 0 l0 -76 l-40 0 l-5 -23 q45 -21 45 -74 q0 -39 -26.5 -60.5 q-26.5 -21.5 -65.5 -21.5 q-21 0 -30 3 l11 52 q4 -1 13 -1 q31 0 31 28 q0 28 -38 28 Z" /><glyph glyph-name="Tcaron" unicode="&#x164;" d="M4 690 l409 0 l0 -78 l-162 0 l0 -612 l-86 0 l0 612 l-161 0 l0 78 ZM243 737 l-71 0 l-116 142 l84 0 l68 -92 l68 92 l84 0 l-117 -142 Z" /><glyph glyph-name="tcaron" unicode="&#x165;" d="M17 428 l0 72 l51 0 l0 110 l80 0 l0 -110 l83 0 l0 -72 l-83 0 l0 -254 q0 -57 9 -77.5 q9 -20.5 45 -20.5 l29 0 l0 -76 l-35 0 q-72 0 -100 36.5 q-28 36.5 -28 117.5 l0 274 l-51 0 ZM327 690 l0 -96 l-96 -83 l0 179 l96 0 Z" /><glyph glyph-name="Umacron" unicode="&#x16a;" d="M386 690 l86 0 l0 -409 q0 -148 -53 -218.5 q-53 -70.5 -149 -70.5 q-202 0 -202 288 l0 410 l86 0 l0 -410 q0 -114 27.5 -162 q27.5 -48 88.5 -48 q61 0 88.5 48 q27.5 48 27.5 162 l0 410 ZM145 768 l0 72 l251 0 l0 -72 l-251 0 Z" /><glyph glyph-name="umacron" unicode="&#x16b;" d="M373 500 l0 -500 l-80 0 l0 49 q-15 -28 -36.5 -42.5 q-21.5 -14.5 -62.5 -14.5 q-142 0 -142 196 l0 312 l80 0 l0 -311 q0 -70 20 -96.5 q20 -26.5 57 -26.5 q39 0 61.5 32 q22.5 32 22.5 90 l0 312 l80 0 ZM103 600 l0 72 l219 0 l0 -72 l-219 0 Z" /><glyph glyph-name="Ubreve" unicode="&#x16c;" d="M386 690 l86 0 l0 -409 q0 -148 -53 -218.5 q-53 -70.5 -149 -70.5 q-202 0 -202 288 l0 410 l86 0 l0 -410 q0 -114 27.5 -162 q27.5 -48 88.5 -48 q61 0 88.5 48 q27.5 48 27.5 162 l0 410 ZM344 879 l76 0 q0 -73 -40 -112 q-40 -39 -109 -39 q-69 0 -109.5 39 q-40.5 39 -40.5 112 l76 0 q4 -76 74 -76 q69 0 73 76 Z" /><glyph glyph-name="ubreve" unicode="&#x16d;" d="M373 500 l0 -500 l-80 0 l0 49 q-15 -28 -36.5 -42.5 q-21.5 -14.5 -62.5 -14.5 q-142 0 -142 196 l0 312 l80 0 l0 -311 q0 -70 20 -96.5 q20 -26.5 57 -26.5 q39 0 61.5 32 q22.5 32 22.5 90 l0 312 l80 0 ZM273 690 l61 0 q-1 -57 -34.5 -87.5 q-33.5 -30.5 -86.5 -30.5 q-54 0 -87.5 30.5 q-33.5 30.5 -34.5 87.5 l63 0 q5 -60 59 -60 q55 0 60 60 Z" /><glyph glyph-name="Uring" unicode="&#x16e;" d="M386 690 l86 0 l0 -409 q0 -148 -53 -218.5 q-53 -70.5 -149 -70.5 q-202 0 -202 288 l0 410 l86 0 l0 -410 q0 -114 27.5 -162 q27.5 -48 88.5 -48 q61 0 88.5 48 q27.5 48 27.5 162 l0 410 ZM165 800 q0 45 29.5 72 q29.5 27 75.5 27 q47 0 76.5 -27 q29.5 -27 29.5 -72 q0 -44 -30 -71 q-30 -27 -76 -27 q-46 0 -75.5 27 q-29.5 27 -29.5 71 ZM217 800 q0 -23 14.5 -35 q14.5 -12 38.5 -12 q53 0 53 47 q0 47 -53 47 q-53 0 -53 -47 Z" /><glyph glyph-name="uring" unicode="&#x16f;" d="M373 500 l0 -500 l-80 0 l0 49 q-15 -28 -36.5 -42.5 q-21.5 -14.5 -62.5 -14.5 q-142 0 -142 196 l0 312 l80 0 l0 -311 q0 -70 20 -96.5 q20 -26.5 57 -26.5 q39 0 61.5 32 q22.5 32 22.5 90 l0 312 l80 0 ZM103 646 q0 46 32 78 q32 32 77 32 q46 0 78 -32 q32 -32 32 -78 q0 -45 -32 -77 q-32 -32 -78 -32 q-45 0 -77 32 q-32 32 -32 77 ZM155 646 q0 -23 17 -40 q17 -17 40 -17 q24 0 40.5 17 q16.5 17 16.5 40 q0 24 -16.5 40.5 q-16.5 16.5 -40.5 16.5 q-23 0 -40 -16.5 q-17 -16.5 -17 -40.5 Z" /><glyph glyph-name="Uhungarumlaut" unicode="&#x170;" d="M386 690 l86 0 l0 -409 q0 -148 -53 -218.5 q-53 -70.5 -149 -70.5 q-202 0 -202 288 l0 410 l86 0 l0 -410 q0 -114 27.5 -162 q27.5 -48 88.5 -48 q61 0 88.5 48 q27.5 48 27.5 162 l0 410 ZM159 747 l64 129 l92 0 l-85 -129 l-71 0 ZM292 747 l74 129 l93 0 l-96 -129 l-71 0 Z" /><glyph glyph-name="uhungarumlaut" unicode="&#x171;" d="M373 500 l0 -500 l-80 0 l0 49 q-15 -28 -36.5 -42.5 q-21.5 -14.5 -62.5 -14.5 q-142 0 -142 196 l0 312 l80 0 l0 -311 q0 -70 20 -96.5 q20 -26.5 57 -26.5 q39 0 61.5 32 q22.5 32 22.5 90 l0 312 l80 0 ZM116 567 l54 158 l89 0 l-74 -158 l-69 0 ZM233 567 l74 158 l89 0 l-94 -158 l-69 0 Z" /><glyph glyph-name="Uogonek" unicode="&#x172;" d="M386 690 l86 0 l0 -409 q0 -260 -164 -286 q-39 -30 -39 -63 q0 -28 31 -28 q10 0 15 1 l10 -51 q-12 -4 -36 -4 q-37 0 -63.5 18.5 q-26.5 18.5 -26.5 57.5 q0 38 27 70 q-158 29 -158 284 l0 410 l86 0 l0 -410 q0 -114 27.5 -162 q27.5 -48 88.5 -48 q61 0 88.5 48 q27.5 48 27.5 162 l0 410 Z" /><glyph glyph-name="uogonek" unicode="&#x173;" d="M373 500 l0 -500 q-46 -34 -46 -68 q0 -28 31 -28 q5 0 15 2 l10 -53 q-9 -3 -36 -3 q-39 0 -64.5 18 q-25.5 18 -25.5 58 q0 45 36 78 l0 45 q-15 -28 -36.5 -42.5 q-21.5 -14.5 -62.5 -14.5 q-142 0 -142 196 l0 312 l80 0 l0 -311 q0 -70 20 -96.5 q20 -26.5 57 -26.5 q39 0 61.5 32 q22.5 32 22.5 90 l0 312 l80 0 Z" /><glyph glyph-name="Ydieresis" unicode="&#x178;" d="M16 690 l98 0 l110 -290 l111 290 l98 0 l-166 -394 l0 -296 l-86 0 l0 296 l-165 394 ZM266 779 l0 90 l90 0 l0 -90 l-90 0 ZM92 779 l0 90 l90 0 l0 -90 l-90 0 Z" /><glyph glyph-name="Zacute" unicode="&#x179;" d="M24 690 l363 0 l0 -58 l-261 -554 l269 0 l0 -78 l-371 0 l0 58 l260 554 l-260 0 l0 78 ZM165 747 l67 129 l92 0 l-88 -129 l-71 0 Z" /><glyph glyph-name="zacute" unicode="&#x17a;" d="M33 62 l205 366 l-205 0 l0 72 l299 0 l0 -62 l-203 -366 l203 0 l0 -72 l-299 0 l0 62 ZM142 567 l54 158 l89 0 l-74 -158 l-69 0 Z" /><glyph glyph-name="Zdotaccent" unicode="&#x17b;" d="M24 690 l363 0 l0 -58 l-261 -554 l269 0 l0 -78 l-371 0 l0 58 l260 554 l-260 0 l0 78 ZM168 779 l0 90 l90 0 l0 -90 l-90 0 Z" /><glyph glyph-name="zdotaccent" unicode="&#x17c;" d="M33 62 l205 366 l-205 0 l0 72 l299 0 l0 -62 l-203 -366 l203 0 l0 -72 l-299 0 l0 62 ZM144 600 l0 90 l88 0 l0 -90 l-88 0 Z" /><glyph glyph-name="Zcaron" unicode="&#x17d;" d="M24 690 l363 0 l0 -58 l-261 -554 l269 0 l0 -78 l-371 0 l0 58 l260 554 l-260 0 l0 78 ZM254 737 l-71 0 l-116 142 l84 0 l68 -92 l68 92 l84 0 l-117 -142 Z" /><glyph glyph-name="zcaron" unicode="&#x17e;" d="M33 62 l205 366 l-205 0 l0 72 l299 0 l0 -62 l-203 -366 l203 0 l0 -72 l-299 0 l0 62 ZM235 558 l-86 0 l-95 142 l77 0 l61 -97 l61 97 l77 0 l-95 -142 Z" /><glyph glyph-name="uni018F" unicode="&#x18f;" d="M40 307 l0 40 l321 0 l0 36 q0 128 -27.5 182.5 q-27.5 54.5 -88.5 54.5 q-51 0 -78 -33 q-27 -33 -39 -112 l-84 0 q23 223 201 223 q202 0 202 -315 l0 -76 q0 -315 -202 -315 q-97 0 -151 77 q-54 77 -54 238 ZM161.5 115.5 q28.5 -45.5 83.5 -45.5 q55 0 82 46 q27 46 34 153 l-234 0 q6 -108 34.5 -153.5 Z" /><glyph glyph-name="florin" unicode="&#x192;" d="M106 500 l51 0 l0 36 q0 80 30 117 q30 37 102 37 l18 0 l0 -78 l-15 0 q-34 0 -43 -19.5 q-9 -19.5 -9 -76.5 l0 -16 l67 0 l0 -78 l-67 0 l0 -458 q0 -79 -34.5 -116.5 q-34.5 -37.5 -112.5 -37.5 l0 78 q18 0 30.5 5.5 q12.5 5.5 19 12.5 q6.5 7 10 21.5 q3.5 14.5 4 25.5 q0.5 11 0.5 31 l0 438 l-51 0 l0 78 Z" /><glyph glyph-name="uni01DD" unicode="&#x1dd;" d="M106 384 l-59 41 q38 83 143 83 q85 0 129 -60 q44 -60 44 -166 l0 -66 q0 -107 -41.5 -165.5 q-41.5 -58.5 -118.5 -58.5 q-82 0 -121.5 54 q-39.5 54 -39.5 170 l0 52 l241 0 l0 14 q0 154 -92 154 q-33 0 -50.5 -12 q-17.5 -12 -34.5 -40 ZM140.5 93 q18.5 -29 62.5 -29 q44 0 62 32.5 q18 32.5 18 101.5 l-161 0 q0 -76 18.5 -105 Z" /><glyph glyph-name="Scommaaccent" unicode="&#x218;" d="M413 585 l-65 -44 q-23 40 -49.5 59.5 q-26.5 19.5 -72.5 19.5 q-44 0 -69 -28.5 q-25 -28.5 -25 -79.5 q0 -55 27 -82 q27 -27 93 -46 q84 -24 128 -70.5 q44 -46.5 44 -128.5 q0 -49 -17 -90.5 q-17 -41.5 -61.5 -72 q-44.5 -30.5 -110.5 -30.5 q-136 0 -199 113 l68 46 q30 -43 58 -62 q28 -19 73 -19 q104 0 104 111 q0 49 -24.5 79 q-24.5 30 -96.5 50 q-172 47 -172 202 q0 78 46 132 q46 54 136 54 q126 0 185 -113 ZM288 -64 l0 -96 l-96 -83 l0 179 l96 0 Z" /><glyph glyph-name="scommaaccent" unicode="&#x219;" d="M330 425 l-58 -42 q-16 28 -34 39.5 q-18 11.5 -53 11.5 q-68 0 -68 -67 q0 -34 19 -52 q19 -18 61 -27 q66 -15 105.5 -47 q39.5 -32 39.5 -102 q0 -67 -39.5 -107 q-39.5 -40 -113.5 -40 q-109 0 -157 81 l57 46 q29 -53 95 -53 q78 0 78 71 q0 34 -18.5 51 q-18.5 17 -70.5 29 q-136 30 -136 149 q0 63 39 102.5 q39 39.5 106 39.5 q105 0 148 -83 ZM238 -64 l0 -96 l-96 -83 l0 179 l96 0 Z" /><glyph glyph-name="Tcommaaccent" unicode="&#x21a;" d="M4 690 l409 0 l0 -78 l-162 0 l0 -612 l-86 0 l0 612 l-161 0 l0 78 ZM256 -64 l0 -96 l-96 -83 l0 179 l96 0 Z" /><glyph glyph-name="tcommaaccent" unicode="&#x21b;" d="M17 428 l0 72 l51 0 l0 110 l80 0 l0 -110 l83 0 l0 -72 l-83 0 l0 -254 q0 -57 9 -77.5 q9 -20.5 45 -20.5 l29 0 l0 -76 l-35 0 q-72 0 -100 36.5 q-28 36.5 -28 117.5 l0 274 l-51 0 ZM194 -64 l0 -96 l-96 -83 l0 179 l96 0 Z" /><glyph glyph-name="uni0237" unicode="&#x237;" d="M143 500 l0 -536 q0 -81 -31.5 -117.5 q-31.5 -36.5 -111.5 -36.5 l0 74 q18 0 30.5 6 q12.5 6 19 13 q6.5 7 9.5 23 q3 16 3.5 26.5 q0.5 10.5 0.5 31.5 l0 516 l80 0 Z" /><glyph glyph-name="uni0259" unicode="&#x259;" d="M106 384 l-59 41 q38 83 143 83 q85 0 129 -60 q44 -60 44 -166 l0 -66 q0 -107 -41.5 -165.5 q-41.5 -58.5 -118.5 -58.5 q-82 0 -121.5 54 q-39.5 54 -39.5 170 l0 52 l241 0 l0 14 q0 154 -92 154 q-33 0 -50.5 -12 q-17.5 -12 -34.5 -40 ZM140.5 93 q18.5 -29 62.5 -29 q44 0 62 32.5 q18 32.5 18 101.5 l-161 0 q0 -76 18.5 -105 Z" /><glyph glyph-name="afii57929" unicode="&#x2bc;" d="M120 500 l0 -146 l-93 -83 l0 229 l93 0 Z" /><glyph glyph-name="circumflex" unicode="&#x2c6;" d="M123 700 l86 0 l95 -142 l-77 0 l-61 97 l-61 -97 l-77 0 l95 142 Z" /><glyph glyph-name="caron" unicode="&#x2c7;" d="M209 558 l-86 0 l-95 142 l77 0 l61 -97 l61 97 l77 0 l-95 -142 Z" /><glyph glyph-name="breve" unicode="&#x2d8;" d="M222 690 l61 0 q-1 -57 -34.5 -87.5 q-33.5 -30.5 -86.5 -30.5 q-54 0 -87.5 30.5 q-33.5 30.5 -34.5 87.5 l63 0 q5 -60 59 -60 q55 0 60 60 Z" /><glyph glyph-name="dotaccent" unicode="&#x2d9;" d="M78 600 l0 90 l88 0 l0 -90 l-88 0 Z" /><glyph glyph-name="ring" unicode="&#x2da;" d="M41 646 q0 46 32 78 q32 32 77 32 q46 0 78 -32 q32 -32 32 -78 q0 -45 -32 -77 q-32 -32 -78 -32 q-45 0 -77 32 q-32 32 -32 77 ZM93 646 q0 -23 17 -40 q17 -17 40 -17 q24 0 40.5 17 q16.5 17 16.5 40 q0 24 -16.5 40.5 q-16.5 16.5 -40.5 16.5 q-23 0 -40 -16.5 q-17 -16.5 -17 -40.5 Z" /><glyph glyph-name="ogonek" unicode="&#x2db;" d="M177 52 l10 -52 q-46 -34 -46 -68 q0 -28 31 -28 q5 0 15 2 l10 -53 q-9 -3 -36 -3 q-39 0 -64.5 18 q-25.5 18 -25.5 58 q0 40 27 69 q27 29 79 57 Z" /><glyph glyph-name="tilde" unicode="&#x2dc;" d="M219 589 q-20 0 -52 14.5 q-32 14.5 -50 14.5 q-29 0 -49 -28 l-45 40 q39 55 95 55 q19 0 51.5 -14.5 q32.5 -14.5 51.5 -14.5 q26 0 47 28 l45 -40 q-40 -55 -94 -55 Z" /><glyph glyph-name="hungarumlaut" unicode="&#x2dd;" d="M44 567 l54 158 l89 0 l-74 -158 l-69 0 ZM161 567 l74 158 l89 0 l-94 -158 l-69 0 Z" /><glyph glyph-name="acutecomb" unicode="&#x301;" d="M-246 567 l54 158 l89 0 l-74 -158 l-69 0 Z" /><glyph glyph-name="Delta" unicode="&#x394;&#x2206;" d="M413 0 l-398 0 l148 690 l101 0 l149 -690 ZM307 78 l-93 497 l-94 -497 l187 0 Z" /><glyph glyph-name="Omega" unicode="&#x3a9;&#x2126;" d="M401 78 l51 0 l0 -78 l-147 0 l0 78 q29 28 45 76 q16 48 16 155 l0 74 q0 128 -27 182.5 q-27 54.5 -89 54.5 q-62 0 -89 -54.5 q-27 -54.5 -27 -182.5 l0 -74 q0 -107 16 -155 q16 -48 45 -76 l0 -78 l-147 0 l0 78 l51 0 q-51 80 -51 231 l0 74 q0 315 202 315 q202 0 202 -315 l0 -74 q0 -151 -51 -231 Z" /><glyph glyph-name="pi" unicode="&#x3c0;" d="M296 154 l0 274 l-161 0 l0 -428 l-80 0 l0 428 l-65 0 l0 72 l450 0 l0 -72 l-64 0 l0 -254 q0 -21 0.5 -31.5 q0.5 -10.5 3.5 -26.5 q3 -16 9.5 -23 q6.5 -7 19 -13 q12.5 -6 31.5 -6 l0 -74 q-81 0 -112.5 36.5 q-31.5 36.5 -31.5 117.5 Z" /><glyph glyph-name="afii10023" unicode="&#x401;" d="M68 690 l337 0 l0 -78 l-251 0 l0 -216 l227 0 l0 -78 l-227 0 l0 -240 l251 0 l0 -78 l-337 0 l0 690 ZM278 779 l0 90 l90 0 l0 -90 l-90 0 ZM104 779 l0 90 l90 0 l0 -90 l-90 0 Z" /><glyph glyph-name="afii10051" unicode="&#x402;" d="M4 690 l408 0 l0 -78 l-161 0 l0 -225 q48 45 125 45 q98 0 139 -56.5 q41 -56.5 41 -181.5 l0 -27 q0 -95 -35 -131 q-35 -36 -98 -36 l-27 0 l0 78 l27 0 q27 0 37 22.5 q10 22.5 10 70.5 l0 23 q0 90 -25.5 125 q-25.5 35 -84.5 35 q-75 0 -109 -60 l0 -294 l-86 0 l0 612 l-161 0 l0 78 Z" /><glyph glyph-name="afii10052" unicode="&#x403;" d="M389 690 l0 -78 l-235 0 l0 -612 l-86 0 l0 690 l321 0 ZM186 747 l67 129 l92 0 l-88 -129 l-71 0 Z" /><glyph glyph-name="afii10053" unicode="&#x404;" d="M126 386 l193 0 l0 -78 l-193 0 l0 -1 q0 -129 27 -183 q27 -54 89 -54 q50 0 77.5 34 q27.5 34 41.5 111 l80 0 q-24 -223 -199 -223 q-202 0 -202 315 l0 76 q0 315 202 315 q173 0 200 -223 l-81 0 q-15 80 -42.5 112.5 q-27.5 32.5 -76.5 32.5 q-60 0 -87.5 -53.5 q-27.5 -53.5 -28.5 -180.5 Z" /><glyph glyph-name="afii10054" unicode="&#x405;" d="M413 585 l-65 -44 q-23 40 -49.5 59.5 q-26.5 19.5 -72.5 19.5 q-44 0 -69 -28.5 q-25 -28.5 -25 -79.5 q0 -55 27 -82 q27 -27 93 -46 q84 -24 128 -70.5 q44 -46.5 44 -128.5 q0 -49 -17 -90.5 q-17 -41.5 -61.5 -72 q-44.5 -30.5 -110.5 -30.5 q-136 0 -199 113 l68 46 q30 -43 58 -62 q28 -19 73 -19 q104 0 104 111 q0 49 -24.5 79 q-24.5 30 -96.5 50 q-172 47 -172 202 q0 78 46 132 q46 54 136 54 q126 0 185 -113 Z" /><glyph glyph-name="afii10055" unicode="&#x406;" d="M162 690 l0 -690 l-86 0 l0 690 l86 0 ZM69 779 l0 90 l90 0 l0 -90 l-90 0 Z" /><glyph glyph-name="afii10056" unicode="&#x407;" d="M162 690 l0 -690 l-86 0 l0 690 l86 0 ZM161 779 l0 90 l90 0 l0 -90 l-90 0 ZM-13 779 l0 90 l90 0 l0 -90 l-90 0 Z" /><glyph glyph-name="afii10057" unicode="&#x408;" d="M4 78 l71 44 q27 -52 77 -52 q55 0 78.5 46 q23.5 46 23.5 168 l0 406 l86 0 l0 -406 q0 -155 -48 -223.5 q-48 -68.5 -140 -68.5 q-105 0 -148 86 Z" /><glyph glyph-name="afii10058" unicode="&#x409;" d="M115 690 l335 0 l0 -273 l104 0 q98 0 144.5 -61.5 q46.5 -61.5 46.5 -147.5 q0 -86 -46.5 -147 q-46.5 -61 -144.5 -61 l-190 0 l0 612 l-163 0 l0 -82 q0 -309 -28 -400 q-19 -62 -55 -91.5 q-36 -29.5 -102 -46.5 l0 97 q57 16 75 78 q24 82 24 363 l0 160 ZM554 339 l-104 0 l0 -261 l104 0 q105 0 105 130 q0 131 -105 131 Z" /><glyph glyph-name="afii10059" unicode="&#x40a;" d="M154 690 l0 -294 l206 0 l0 294 l86 0 l0 -273 l104 0 q98 0 144.5 -61.5 q46.5 -61.5 46.5 -147.5 q0 -86 -46.5 -147 q-46.5 -61 -144.5 -61 l-190 0 l0 318 l-206 0 l0 -318 l-86 0 l0 690 l86 0 ZM550 339 l-104 0 l0 -261 l104 0 q105 0 105 130 q0 131 -105 131 Z" /><glyph glyph-name="afii10060" unicode="&#x40b;" d="M4 690 l408 0 l0 -78 l-161 0 l0 -225 q48 45 125 45 q98 0 139 -56.5 q41 -56.5 41 -181.5 l0 -194 l-86 0 l0 194 q0 90 -25.5 125 q-25.5 35 -86.5 35 q-35 0 -63.5 -17 q-28.5 -17 -43.5 -43 l0 -294 l-86 0 l0 612 l-161 0 l0 78 Z" /><glyph glyph-name="afii10061" unicode="&#x40c;" d="M478 0 l-97 0 l-163 308 l-64 0 l0 -308 l-86 0 l0 690 l86 0 l0 -304 l65 0 l138 304 l88 0 l-156 -340 l189 -350 ZM195 747 l67 129 l92 0 l-88 -129 l-71 0 Z" /><glyph glyph-name="afii10062" unicode="&#x40e;" d="M368 690 l90 0 l-182 -574 q-23 -72 -58 -98 q-35 -26 -110 -26 l0 79 q44 0 62 14.5 q18 14.5 32 69.5 l-182 535 l95 0 l131 -416 l122 416 ZM311 879 l82 0 q0 -142 -146 -142 q-146 0 -146 142 l82 0 q0 -80 64 -80 q64 0 64 80 Z" /><glyph glyph-name="afii10145" unicode="&#x40f;" d="M300 -130 l-86 0 l0 130 l-146 0 l0 690 l86 0 l0 -612 l206 0 l0 612 l86 0 l0 -690 l-146 0 l0 -130 Z" /><glyph glyph-name="afii10017" unicode="&#x410;" d="M98 0 l-90 0 l192 690 l76 0 l193 -690 l-90 0 l-39 158 l-203 0 l-39 -158 ZM238 544 l-76 -308 l152 0 l-76 308 Z" /><glyph glyph-name="afii10018" unicode="&#x411;" d="M414 690 l0 -78 l-260 0 l0 -195 l104 0 q98 0 144.5 -61.5 q46.5 -61.5 46.5 -147.5 q0 -86 -46.5 -147 q-46.5 -61 -144.5 -61 l-190 0 l0 690 l346 0 ZM258 339 l-104 0 l0 -261 l104 0 q105 0 105 130 q0 131 -105 131 Z" /><glyph glyph-name="afii10019" unicode="&#x412;" d="M68 690 l171 0 q194 0 194 -176 q0 -54 -25.5 -98 q-25.5 -44 -65.5 -56 q52 -12 80.5 -54 q28.5 -42 28.5 -108 q0 -84 -47.5 -141 q-47.5 -57 -147.5 -57 l-188 0 l0 690 ZM154 319 l0 -241 l102 0 q109 0 109 120 q0 63 -29 92 q-29 29 -92 29 l-90 0 ZM154 613 l0 -216 l96 0 q97 0 97 117 q0 50 -22.5 74.5 q-22.5 24.5 -85.5 24.5 l-85 0 Z" /><glyph glyph-name="afii10020" unicode="&#x413;" d="M389 690 l0 -78 l-235 0 l0 -612 l-86 0 l0 690 l321 0 Z" /><glyph glyph-name="afii10021" unicode="&#x414;" d="M94 -130 l-86 0 l0 208 l23 0 q34 25 58 119 q26 102 26 335 l0 158 l339 0 l0 -612 l67 0 l0 -208 l-86 0 l0 130 l-341 0 l0 -130 ZM172 171 q-15 -55 -35 -93 l232 0 l0 534 l-168 0 l0 -80 q0 -255 -29 -361 Z" /><glyph glyph-name="afii10022" unicode="&#x415;" d="M68 690 l337 0 l0 -78 l-251 0 l0 -216 l227 0 l0 -78 l-227 0 l0 -240 l251 0 l0 -78 l-337 0 l0 690 Z" /><glyph glyph-name="afii10024" unicode="&#x416;" d="M103 0 l-95 0 l154 349 l-121 341 l86 0 l106 -304 l73 0 l0 304 l86 0 l0 -304 l72 0 l107 304 l86 0 l-122 -341 l155 -349 l-95 0 l-132 308 l-71 0 l0 -308 l-86 0 l0 308 l-70 0 l-133 -308 Z" /><glyph glyph-name="afii10025" unicode="&#x417;" d="M173 319 l0 78 l50 0 q96 0 96 118 q0 106 -86 106 q-46 0 -71.5 -25.5 q-25.5 -25.5 -37.5 -81.5 l-79 0 q14 92 65 138 q51 46 123 46 q82 0 127 -48 q45 -48 45 -135 q0 -104 -87 -152 q45 -17 73.5 -61.5 q28.5 -44.5 28.5 -104.5 q0 -85 -46 -145 q-46 -60 -142 -60 q-81 0 -131 46.5 q-50 46.5 -68 149.5 l84 0 q15 -61 41 -89.5 q26 -28.5 75 -28.5 q51 0 76.5 34 q25.5 34 25.5 93 q0 122 -121 122 l-41 0 Z" /><glyph glyph-name="afii10026" unicode="&#x418;" d="M68 690 l86 0 l0 -491 l236 491 l75 0 l0 -690 l-86 0 l0 486 l-234 -486 l-77 0 l0 690 Z" /><glyph glyph-name="afii10027" unicode="&#x419;" d="M68 690 l86 0 l0 -491 l236 491 l75 0 l0 -690 l-86 0 l0 486 l-234 -486 l-77 0 l0 690 ZM337 879 l82 0 q0 -142 -146 -142 q-146 0 -146 142 l82 0 q0 -80 64 -80 q64 0 64 80 Z" /><glyph glyph-name="afii10028" unicode="&#x41a;" d="M478 0 l-97 0 l-163 308 l-64 0 l0 -308 l-86 0 l0 690 l86 0 l0 -304 l65 0 l138 304 l88 0 l-156 -340 l189 -350 Z" /><glyph glyph-name="afii10029" unicode="&#x41b;" d="M115 690 l335 0 l0 -690 l-86 0 l0 612 l-163 0 l0 -82 q0 -309 -28 -400 q-19 -62 -55 -91.5 q-36 -29.5 -102 -46.5 l0 97 q57 16 75 78 q24 82 24 363 l0 160 Z" /><glyph glyph-name="afii10030" unicode="&#x41c;" d="M154 690 l153 -417 l152 417 l87 0 l0 -690 l-86 0 l0 463 l-119 -319 l-71 0 l-116 319 l0 -463 l-86 0 l0 690 l86 0 Z" /><glyph glyph-name="afii10031" unicode="&#x41d;" d="M154 690 l0 -294 l206 0 l0 294 l86 0 l0 -690 l-86 0 l0 318 l-206 0 l0 -318 l-86 0 l0 690 l86 0 Z" /><glyph glyph-name="afii10032" unicode="&#x41e;" d="M444 307 q0 -315 -202 -315 q-202 0 -202 315 l0 76 q0 315 202 315 q202 0 202 -315 l0 -76 ZM126 383 l0 -76 q0 -130 27 -183.5 q27 -53.5 89 -53.5 q62 0 89 53.5 q27 53.5 27 183.5 l0 76 q0 130 -27 183.5 q-27 53.5 -89 53.5 q-62 0 -89 -53.5 q-27 -53.5 -27 -183.5 Z" /><glyph glyph-name="afii10033" unicode="&#x41f;" d="M68 690 l378 0 l0 -690 l-86 0 l0 612 l-206 0 l0 -612 l-86 0 l0 690 Z" /><glyph glyph-name="afii10034" unicode="&#x420;" d="M248 263 l-94 0 l0 -263 l-86 0 l0 690 l180 0 q95 0 148 -56.5 q53 -56.5 53 -157.5 q0 -100 -52.5 -156.5 q-52.5 -56.5 -148.5 -56.5 ZM154 341 l94 0 q63 0 89 34 q26 34 26 101 q0 68 -26 102 q-26 34 -89 34 l-94 0 l0 -271 Z" /><glyph glyph-name="afii10035" unicode="&#x421;" d="M442 475 l-81 0 q-15 80 -42.5 112.5 q-27.5 32.5 -76.5 32.5 q-61 0 -88.5 -54 q-27.5 -54 -27.5 -183 l0 -76 q0 -129 27 -183 q27 -54 89 -54 q50 0 77.5 34 q27.5 34 41.5 111 l80 0 q-24 -223 -199 -223 q-202 0 -202 315 l0 76 q0 315 202 315 q173 0 200 -223 Z" /><glyph glyph-name="afii10036" unicode="&#x422;" d="M4 690 l409 0 l0 -78 l-162 0 l0 -612 l-86 0 l0 612 l-161 0 l0 78 Z" /><glyph glyph-name="afii10037" unicode="&#x423;" d="M368 690 l90 0 l-182 -574 q-23 -72 -58 -98 q-35 -26 -110 -26 l0 79 q44 0 62 14.5 q18 14.5 32 69.5 l-182 535 l95 0 l131 -416 l122 416 Z" /><glyph glyph-name="afii10038" unicode="&#x424;" d="M258 636 l0 54 l85 0 l0 -54 q218 0 218 -275 l0 -32 q0 -275 -218 -275 l0 -54 l-85 0 l0 54 q-218 0 -218 275 l0 32 q0 275 218 275 ZM343 558 l0 -426 q66 0 99 41.5 q33 41.5 33 155.5 l0 32 q0 113 -33.5 155 q-33.5 42 -98.5 42 ZM258 132 l0 426 q-65 0 -98.5 -42 q-33.5 -42 -33.5 -155 l0 -32 q0 -114 33 -155.5 q33 -41.5 99 -41.5 Z" /><glyph glyph-name="afii10039" unicode="&#x425;" d="M109 0 l-93 0 l158 356 l-140 334 l93 0 l96 -253 l97 253 l93 0 l-141 -334 l159 -356 l-93 0 l-115 268 l-114 -268 Z" /><glyph glyph-name="afii10040" unicode="&#x426;" d="M154 690 l0 -612 l211 0 l0 612 l85 0 l0 -612 l67 0 l0 -208 l-86 0 l0 130 l-363 0 l0 690 l86 0 Z" /><glyph glyph-name="afii10041" unicode="&#x427;" d="M114 690 l0 -194 q0 -92 23 -126 q23 -34 88 -34 q42 0 66.5 14 q24.5 14 31.5 34 l0 306 l85 0 l0 -690 l-85 0 l0 291 q-37 -33 -112 -33 q-105 0 -144 55.5 q-39 55.5 -39 182.5 l0 194 l86 0 Z" /><glyph glyph-name="afii10042" unicode="&#x428;" d="M154 690 l0 -612 l156 0 l0 612 l86 0 l0 -612 l156 0 l0 612 l85 0 l0 -690 l-569 0 l0 690 l86 0 Z" /><glyph glyph-name="afii10043" unicode="&#x429;" d="M154 690 l0 -612 l156 0 l0 612 l86 0 l0 -612 l156 0 l0 612 l85 0 l0 -612 l67 0 l0 -208 l-86 0 l0 130 l-550 0 l0 690 l86 0 Z" /><glyph glyph-name="afii10044" unicode="&#x42a;" d="M-16 690 l206 0 l0 -273 l105 0 q67 0 111.5 -32.5 q44.5 -32.5 61.5 -77.5 q17 -45 17 -99 q0 -54 -17 -99 q-17 -45 -61.5 -77 q-44.5 -32 -111.5 -32 l-191 0 l0 612 l-120 0 l0 78 ZM295 339 l-105 0 l0 -261 l105 0 q104 0 104 130 q0 131 -104 131 Z" /><glyph glyph-name="afii10045" unicode="&#x42b;" d="M68 690 l86 0 l0 -273 l80 0 q98 0 144.5 -61.5 q46.5 -61.5 46.5 -147.5 q0 -86 -46.5 -147 q-46.5 -61 -144.5 -61 l-166 0 l0 690 ZM234 339 l-80 0 l0 -261 l80 0 q105 0 105 130 q0 131 -105 131 ZM574 690 l0 -690 l-86 0 l0 690 l86 0 Z" /><glyph glyph-name="afii10046" unicode="&#x42c;" d="M68 690 l86 0 l0 -273 l104 0 q98 0 144.5 -61.5 q46.5 -61.5 46.5 -147.5 q0 -86 -46.5 -147 q-46.5 -61 -144.5 -61 l-190 0 l0 690 ZM258 339 l-104 0 l0 -261 l104 0 q105 0 105 130 q0 131 -105 131 Z" /><glyph glyph-name="afii10047" unicode="&#x42d;" d="M147 386 l193 0 q-1 127 -28.5 180.5 q-27.5 53.5 -87.5 53.5 q-49 0 -76.5 -32.5 q-27.5 -32.5 -42.5 -112.5 l-81 0 q27 223 200 223 q202 0 202 -315 l0 -76 q0 -315 -202 -315 q-175 0 -199 223 l80 0 q14 -77 41.5 -111 q27.5 -34 77.5 -34 q62 0 89 54 q27 54 27 183 l0 1 l-193 0 l0 78 Z" /><glyph glyph-name="afii10048" unicode="&#x42e;" d="M594 307 q0 -315 -185 -315 q-185 0 -185 315 l0 11 l-70 0 l0 -318 l-86 0 l0 690 l86 0 l0 -294 l70 0 q4 157 50 229.5 q46 72.5 135 72.5 q185 0 185 -315 l0 -76 ZM310 383 l0 -76 q0 -129 22 -183 q22 -54 77 -54 q55 0 77 54 q22 54 22 183 l0 76 q0 129 -22 183 q-22 54 -77 54 q-55 0 -77 -54 q-22 -54 -22 -183 Z" /><glyph glyph-name="afii10049" unicode="&#x42f;" d="M108 0 l-92 0 l141 303 q-117 38 -117 187 q0 99 52.5 149.5 q52.5 50.5 150.5 50.5 l178 0 l0 -690 l-86 0 l0 291 l-96 0 l-131 -291 ZM243 369 l92 0 l0 243 l-92 0 q-65 0 -91 -28 q-26 -28 -26 -94 q0 -65 26 -93 q26 -28 91 -28 Z" /><glyph glyph-name="afii10065" unicode="&#x430;" d="M32 146 q0 143 156 143 l79 0 l0 58 q0 51 -16.5 69 q-16.5 18 -60.5 18 q-37 0 -54.5 -9 q-17.5 -9 -32.5 -39 l-61 39 q21 44 55.5 63.5 q34.5 19.5 93.5 19.5 q80 0 118 -37 q38 -37 38 -124 l0 -347 l-80 0 l0 49 q-12 -28 -33 -42.5 q-21 -14.5 -60 -14.5 q-69 0 -105.5 40.5 q-36.5 40.5 -36.5 113.5 ZM267 192 l0 29 l-74 0 q-43 0 -62 -19 q-19 -19 -19 -58 q0 -78 75 -78 q39 0 59.5 25 q20.5 25 20.5 101 Z" /><glyph glyph-name="afii10066" unicode="&#x431;" d="M322 716 l28 -68 q-22 -24 -64 -28 l-69 -6 q-34 -3 -51 -17.5 q-17 -14.5 -28 -39.5 q-14 -34 -21 -108 q35 59 99 59 q69 0 111 -59 q42 -59 42 -165 l0 -66 q0 -103 -42 -164.5 q-42 -61.5 -127 -61.5 q-82 0 -125 60 q-43 60 -43 166 l0 64 q0 221 35 308 q36 89 132 99 l79 8 q23 2 44 19 ZM200 64 q89 0 89 154 l0 66 q0 82 -22 117 q-22 35 -67 35 q-45 0 -66.5 -36 q-21.5 -36 -21.5 -116 l0 -66 q0 -154 88 -154 Z" /><glyph glyph-name="afii10067" unicode="&#x432;" d="M52 500 l154 0 q66 0 104 -33.5 q38 -33.5 38 -96.5 q0 -32 -13.5 -58 q-13.5 -26 -34.5 -40 q30 -13 50.5 -47.5 q20.5 -34.5 20.5 -81.5 q0 -60 -36 -101.5 q-36 -41.5 -108 -41.5 l-175 0 l0 500 ZM132 226 l0 -154 l77 0 q79 0 79 78 q0 42 -20.5 59 q-20.5 17 -67.5 17 l-68 0 ZM132 428 l0 -130 l62 0 q71 0 71 66 q0 31 -18 47.5 q-18 16.5 -62 16.5 l-53 0 Z" /><glyph glyph-name="afii10068" unicode="&#x433;" d="M299 500 l0 -72 l-167 0 l0 -428 l-80 0 l0 500 l247 0 Z" /><glyph glyph-name="afii10069" unicode="&#x434;" d="M94 -117 l-80 0 l0 189 l30 0 q14 12 32 66 q18 56 18 237 l0 125 l268 0 l0 -428 l56 0 l0 -189 l-80 0 l0 117 l-244 0 l0 -117 ZM143 90 q-3 -10 -6 -18 l145 0 l0 356 l-110 0 l0 -67 q0 -193 -29 -271 Z" /><glyph glyph-name="afii10070" unicode="&#x435;" d="M289 116 l59 -41 q-38 -83 -143 -83 q-85 0 -129 60 q-44 60 -44 166 l0 66 q0 107 41.5 165.5 q41.5 58.5 118.5 58.5 q82 0 121.5 -54 q39.5 -54 39.5 -170 l0 -52 l-241 0 l0 -14 q0 -154 92 -154 q33 0 50.5 12 q17.5 12 34.5 40 ZM254.5 407 q-18.5 29 -62.5 29 q-44 0 -62 -32.5 q-18 -32.5 -18 -101.5 l161 0 q0 76 -18.5 105 Z" /><glyph glyph-name="afii10072" unicode="&#x436;" d="M434 500 l81 0 l-91 -243 l108 -257 l-91 0 l-83 216 l-48 0 l0 -216 l-80 0 l0 216 l-51 0 l-82 -216 l-89 0 l108 257 l-92 243 l84 0 l76 -214 l46 0 l0 214 l80 0 l0 -214 l47 0 l77 214 Z" /><glyph glyph-name="afii10073" unicode="&#x437;" d="M117 226 l0 72 l33 0 q38 0 59.5 19 q21.5 19 21.5 54 q0 29 -17 47 q-17 18 -49 18 q-27 0 -44 -11.5 q-17 -11.5 -35 -39.5 l-60 45 q44 78 144 78 q63 0 102 -36 q39 -36 39 -91 q0 -79 -62 -113 q34 -13 55.5 -46 q21.5 -33 21.5 -81 q0 -61 -38.5 -105 q-38.5 -44 -113.5 -44 q-115 0 -155 84 l57 44 q9 -16 17.5 -26 q8.5 -10 29 -20 q20.5 -10 48.5 -10 q35 0 55 21 q20 21 20 61 q0 80 -99 80 l-30 0 Z" /><glyph glyph-name="afii10074" unicode="&#x438;" d="M132 500 l0 -342 l176 342 l77 0 l0 -500 l-80 0 l0 349 l-178 -349 l-75 0 l0 500 l80 0 Z" /><glyph glyph-name="afii10075" unicode="&#x439;" d="M132 500 l0 -342 l176 342 l77 0 l0 -500 l-80 0 l0 349 l-178 -349 l-75 0 l0 500 l80 0 ZM278 690 l75 0 q0 -57 -36.5 -87.5 q-36.5 -30.5 -94.5 -30.5 q-59 0 -95.5 30.5 q-36.5 30.5 -36.5 87.5 l76 0 q0 -60 56 -60 q56 0 56 60 Z" /><glyph glyph-name="afii10076" unicode="&#x43a;" d="M271 500 l86 0 l-112 -242 l124 -258 l-89 0 l-100 216 l-48 0 l0 -216 l-80 0 l0 500 l80 0 l0 -214 l43 0 l96 214 Z" /><glyph glyph-name="afii10077" unicode="&#x43b;" d="M85 500 l275 0 l0 -500 l-80 0 l0 428 l-115 0 l0 -157 q0 -123 -21 -183 q-31 -91 -128 -100 l0 80 q42 15 57 69 q12 43 12 162 l0 201 Z" /><glyph glyph-name="afii10078" unicode="&#x43c;" d="M130 500 l128 -288 l129 288 l78 0 l0 -500 l-80 0 l0 320 l-100 -225 l-61 0 l-92 222 l0 -317 l-80 0 l0 500 l78 0 Z" /><glyph glyph-name="afii10079" unicode="&#x43d;" d="M132 500 l0 -210 l161 0 l0 210 l80 0 l0 -500 l-80 0 l0 218 l-161 0 l0 -218 l-80 0 l0 500 l80 0 Z" /><glyph glyph-name="afii10080" unicode="&#x43e;" d="M369 284 l0 -66 q0 -108 -44 -167 q-44 -59 -125 -59 q-81 0 -124.5 59 q-43.5 59 -43.5 167 l0 66 q0 107 43.5 165.5 q43.5 58.5 124.5 58.5 q81 0 125 -58.5 q44 -58.5 44 -165.5 ZM200 64 q89 0 89 154 l0 66 q0 75 -20 113.5 q-20 38.5 -69 38.5 q-49 0 -68.5 -38 q-19.5 -38 -19.5 -114 l0 -66 q0 -154 88 -154 Z" /><glyph glyph-name="afii10081" unicode="&#x43f;" d="M52 500 l321 0 l0 -500 l-80 0 l0 428 l-161 0 l0 -428 l-80 0 l0 500 Z" /><glyph glyph-name="afii10082" unicode="&#x440;" d="M132 500 l0 -50 q31 58 102 58 q72 0 114.5 -59 q42.5 -59 42.5 -165 l0 -66 q0 -102 -40 -164 q-40 -62 -117 -62 q-70 0 -102 52 l0 -234 l-80 0 l0 690 l80 0 ZM221 64 q45 0 67.5 43 q22.5 43 22.5 111 l0 66 q0 72 -23 112 q-23 40 -67 40 q-41 0 -65 -39 q-24 -39 -24 -106 l0 -73 q0 -154 89 -154 Z" /><glyph glyph-name="afii10083" unicode="&#x441;" d="M289 116 l59 -41 q-34 -83 -141 -83 q-88 0 -131.5 59.5 q-43.5 59.5 -43.5 166.5 l0 66 q0 106 46.5 165 q46.5 59 128.5 59 q97 0 141 -77 l-61 -42 q-29 47 -80 47 q-47 0 -71 -40 q-24 -40 -24 -112 l0 -66 q0 -154 95 -154 q53 0 82 52 Z" /><glyph glyph-name="afii10084" unicode="&#x442;" d="M0 500 l329 0 l0 -72 l-125 0 l0 -428 l-80 0 l0 428 l-124 0 l0 72 Z" /><glyph glyph-name="afii10085" unicode="&#x443;" d="M155 -19 l4 14 l-155 505 l86 0 l93 -322 l15 -53 l93 375 l83 0 l-138 -516 q-27 -99 -60.5 -136.5 q-33.5 -37.5 -117.5 -37.5 l0 78 q39 0 60 18 q21 18 37 75 Z" /><glyph glyph-name="afii10086" unicode="&#x444;" d="M303 690 l0 -182 q94 0 142.5 -57 q48.5 -57 48.5 -167 l0 -66 q0 -108 -48.5 -167 q-48.5 -59 -142.5 -59 l0 -182 l-80 0 l0 182 q-94 0 -142.5 59 q-48.5 59 -48.5 167 l0 66 q0 110 48.5 167 q48.5 57 142.5 57 l0 182 l80 0 ZM414 284 q0 77 -26.5 114.5 q-26.5 37.5 -84.5 37.5 l0 -372 q62 0 86.5 39.5 q24.5 39.5 24.5 114.5 l0 66 ZM112 218 q0 -75 24.5 -114.5 q24.5 -39.5 86.5 -39.5 l0 372 q-58 0 -84.5 -37.5 q-26.5 -37.5 -26.5 -114.5 l0 -66 Z" /><glyph glyph-name="afii10087" unicode="&#x445;" d="M388 0 l-90 0 l-100 184 l-100 -184 l-90 0 l143 255 l-125 245 l90 0 l82 -175 l82 175 l90 0 l-124 -244 l142 -256 Z" /><glyph glyph-name="afii10088" unicode="&#x446;" d="M429 -117 l-80 0 l0 117 l-297 0 l0 500 l80 0 l0 -428 l161 0 l0 428 l80 0 l0 -428 l56 0 l0 -189 Z" /><glyph glyph-name="afii10089" unicode="&#x447;" d="M116 500 l0 -120 q0 -69 18 -94 q18 -25 55 -25 q48 0 69 34 l0 205 l79 0 l0 -500 l-79 0 l0 213 q-27 -27 -79 -27 q-70 0 -106.5 43.5 q-36.5 43.5 -36.5 150.5 l0 120 l80 0 Z" /><glyph glyph-name="afii10090" unicode="&#x448;" d="M532 0 l-480 0 l0 500 l80 0 l0 -428 l120 0 l0 428 l80 0 l0 -428 l120 0 l0 428 l80 0 l0 -500 Z" /><glyph glyph-name="afii10091" unicode="&#x449;" d="M588 -117 l-80 0 l0 117 l-456 0 l0 500 l80 0 l0 -428 l120 0 l0 428 l80 0 l0 -428 l120 0 l0 428 l80 0 l0 -428 l56 0 l0 -189 Z" /><glyph glyph-name="afii10092" unicode="&#x44a;" d="M-16 500 l184 0 l0 -192 l70 0 q173 0 173 -151 q0 -71 -36 -114 q-36 -43 -109 -43 l-177 0 l0 428 l-105 0 l0 72 ZM168 236 l0 -164 l79 0 q81 0 81 86 q0 41 -21.5 59.5 q-21.5 18.5 -71.5 18.5 l-67 0 Z" /><glyph glyph-name="afii10093" unicode="&#x44b;" d="M52 500 l80 0 l0 -192 l52 0 q164 0 164 -151 q0 -71 -35.5 -114 q-35.5 -43 -108.5 -43 l-152 0 l0 500 ZM397 500 l74 0 l0 -500 l-74 0 l0 500 ZM132 236 l0 -164 l53 0 q80 0 80 86 q0 42 -19.5 60 q-19.5 18 -64.5 18 l-49 0 Z" /><glyph glyph-name="afii10094" unicode="&#x44c;" d="M52 500 l80 0 l0 -192 l67 0 q172 0 172 -151 q0 -71 -35.5 -114 q-35.5 -43 -108.5 -43 l-175 0 l0 500 ZM132 236 l0 -164 l76 0 q80 0 80 86 q0 41 -21.5 59.5 q-21.5 18.5 -70.5 18.5 l-64 0 Z" /><glyph glyph-name="afii10095" unicode="&#x44d;" d="M116 218 l0 72 l144 0 q-2 69 -25.5 107.5 q-23.5 38.5 -69.5 38.5 q-51 0 -80 -47 l-61 42 q44 77 141 77 q82 0 128.5 -59 q46.5 -59 46.5 -165 l0 -66 q0 -107 -43.5 -166.5 q-43.5 -59.5 -131.5 -59.5 q-107 0 -141 83 l59 41 q29 -52 82 -52 q95 0 95 154 l-144 0 Z" /><glyph glyph-name="afii10096" unicode="&#x44e;" d="M506 284 l0 -66 q0 -226 -156 -226 q-75 0 -115 60 q-40 60 -40 166 l-63 0 l0 -218 l-80 0 l0 500 l80 0 l0 -210 l63 0 q0 102 41.5 160 q41.5 58 113.5 58 q77 0 116.5 -58 q39.5 -58 39.5 -166 ZM350 64 q42 0 59 37.5 q17 37.5 17 116.5 l0 66 q0 78 -17 115 q-17 37 -59 37 q-41 0 -58.5 -37.5 q-17.5 -37.5 -17.5 -114.5 l0 -66 q0 -79 17.5 -116.5 q17.5 -37.5 58.5 -37.5 Z" /><glyph glyph-name="afii10097" unicode="&#x44f;" d="M352 0 l-80 0 l0 192 l-60 0 l-96 -192 l-88 0 l105 203 q-91 34 -91 149 q0 62 36.5 105 q36.5 43 116.5 43 l157 0 l0 -500 ZM272 264 l0 164 l-67 0 q-83 0 -83 -76 q0 -88 95 -88 l55 0 Z" /><glyph glyph-name="afii10071" unicode="&#x451;" d="M289 116 l59 -41 q-38 -83 -143 -83 q-85 0 -129 60 q-44 60 -44 166 l0 66 q0 107 41.5 165.5 q41.5 58.5 118.5 58.5 q82 0 121.5 -54 q39.5 -54 39.5 -170 l0 -52 l-241 0 l0 -14 q0 -154 92 -154 q33 0 50.5 12 q17.5 12 34.5 40 ZM254.5 407 q-18.5 29 -62.5 29 q-44 0 -62 -32.5 q-18 -32.5 -18 -101.5 l161 0 q0 76 -18.5 105 ZM74 600 l0 90 l88 0 l0 -90 l-88 0 ZM228 600 l0 90 l88 0 l0 -90 l-88 0 Z" /><glyph glyph-name="afii10099" unicode="&#x452;" d="M293 -44 l0 355 q0 70 -20 96.5 q-20 26.5 -57 26.5 q-84 0 -84 -122 l0 -312 l-80 0 l0 558 l-75 0 l0 72 l75 0 l0 60 l81 0 l0 -60 l129 0 l0 -72 l-129 0 l0 -107 q29 57 98 57 q65 0 103.5 -48 q38.5 -48 38.5 -148 l0 -356 q0 -79 -32 -112.5 q-32 -33.5 -100 -33.5 l0 72 l12 0 q40 0 40 74 Z" /><glyph glyph-name="afii10100" unicode="&#x453;" d="M299 500 l0 -72 l-167 0 l0 -428 l-80 0 l0 500 l247 0 ZM124 567 l54 158 l89 0 l-74 -158 l-69 0 Z" /><glyph glyph-name="afii10101" unicode="&#x454;" d="M281 116 l59 -41 q-34 -83 -141 -83 q-88 0 -131.5 59.5 q-43.5 59.5 -43.5 166.5 l0 66 q0 106 46.5 165 q46.5 59 128.5 59 q97 0 141 -77 l-61 -42 q-29 47 -80 47 q-46 0 -70 -38.5 q-24 -38.5 -25 -107.5 l144 0 l0 -72 l-144 0 q0 -154 95 -154 q53 0 82 52 Z" /><glyph glyph-name="afii10102" unicode="&#x455;" d="M330 425 l-58 -42 q-16 28 -34 39.5 q-18 11.5 -53 11.5 q-68 0 -68 -67 q0 -34 19 -52 q19 -18 61 -27 q66 -15 105.5 -47 q39.5 -32 39.5 -102 q0 -67 -39.5 -107 q-39.5 -40 -113.5 -40 q-109 0 -157 81 l57 46 q29 -53 95 -53 q78 0 78 71 q0 34 -18.5 51 q-18.5 17 -70.5 29 q-136 30 -136 149 q0 63 39 102.5 q39 39.5 106 39.5 q105 0 148 -83 Z" /><glyph glyph-name="afii10103" unicode="&#x456;" d="M64 0 l0 500 l80 0 l0 -500 l-80 0 ZM60 600 l0 90 l88 0 l0 -90 l-88 0 Z" /><glyph glyph-name="afii10104" unicode="&#x457;" d="M-21 600 l0 90 l81 0 l0 -90 l-81 0 ZM146 600 l0 90 l84 0 l0 -90 l-84 0 ZM64 0 l0 500 l80 0 l0 -500 l-80 0 Z" /><glyph glyph-name="afii10105" unicode="&#x458;" d="M143 500 l0 -536 q0 -81 -31.5 -117.5 q-31.5 -36.5 -111.5 -36.5 l0 74 q18 0 30.5 6 q12.5 6 19 13 q6.5 7 9.5 23 q3 16 3.5 26.5 q0.5 10.5 0.5 31.5 l0 516 l80 0 ZM58 600 l0 90 l88 0 l0 -90 l-88 0 Z" /><glyph glyph-name="afii10106" unicode="&#x459;" d="M85 500 l275 0 l0 -192 l67 0 q172 0 172 -151 q0 -71 -35.5 -114 q-35.5 -43 -108.5 -43 l-175 0 l0 428 l-115 0 l0 -157 q0 -123 -21 -183 q-31 -91 -128 -100 l0 80 q42 15 57 69 q12 43 12 162 l0 201 ZM360 236 l0 -164 l76 0 q80 0 80 86 q0 41 -21.5 59.5 q-21.5 18.5 -70.5 18.5 l-64 0 Z" /><glyph glyph-name="afii10107" unicode="&#x45a;" d="M132 500 l0 -210 l161 0 l0 210 l80 0 l0 -192 l67 0 q172 0 172 -151 q0 -71 -35.5 -114 q-35.5 -43 -108.5 -43 l-175 0 l0 218 l-161 0 l0 -218 l-80 0 l0 500 l80 0 ZM373 236 l0 -164 l76 0 q80 0 80 86 q0 41 -21.5 59.5 q-21.5 18.5 -70.5 18.5 l-64 0 Z" /><glyph glyph-name="afii10108" unicode="&#x45b;" d="M-23 558 l0 72 l75 0 l0 60 l81 0 l0 -60 l129 0 l0 -72 l-129 0 l0 -107 q29 57 98 57 q65 0 103.5 -48 q38.5 -48 38.5 -148 l0 -312 l-80 0 l0 311 q0 70 -20 96.5 q-20 26.5 -57 26.5 q-84 0 -84 -122 l0 -312 l-80 0 l0 558 l-75 0 Z" /><glyph glyph-name="afii10109" unicode="&#x45c;" d="M271 500 l86 0 l-112 -242 l124 -258 l-89 0 l-100 216 l-48 0 l0 -216 l-80 0 l0 500 l80 0 l0 -214 l43 0 l96 214 ZM155 567 l54 158 l89 0 l-74 -158 l-69 0 Z" /><glyph glyph-name="afii10110" unicode="&#x45e;" d="M155 -19 l4 14 l-155 505 l86 0 l93 -322 l15 -53 l93 375 l83 0 l-138 -516 q-27 -99 -60.5 -136.5 q-33.5 -37.5 -117.5 -37.5 l0 78 q39 0 60 18 q21 18 37 75 ZM250 690 l75 0 q0 -57 -36.5 -87.5 q-36.5 -30.5 -94.5 -30.5 q-59 0 -95.5 30.5 q-36.5 30.5 -36.5 87.5 l76 0 q0 -60 56 -60 q56 0 56 60 Z" /><glyph glyph-name="afii10193" unicode="&#x45f;" d="M252 -117 l-79 0 l0 117 l-121 0 l0 500 l80 0 l0 -428 l161 0 l0 428 l80 0 l0 -500 l-121 0 l0 -117 Z" /><glyph glyph-name="afii10146" unicode="&#x462;" d="M-8 528 l0 78 l74 0 l0 84 l86 0 l0 -84 l135 0 l0 -78 l-135 0 l0 -111 l104 0 q98 0 144.5 -61.5 q46.5 -61.5 46.5 -147.5 q0 -86 -46.5 -147 q-46.5 -61 -144.5 -61 l-190 0 l0 528 l-74 0 ZM256 339 l-104 0 l0 -261 l104 0 q105 0 105 130 q0 131 -105 131 Z" /><glyph glyph-name="afii10194" unicode="&#x463;" d="M-23 428 l0 72 l75 0 l0 190 l80 0 l0 -190 l126 0 l0 -72 l-126 0 l0 -120 l67 0 q172 0 172 -151 q0 -71 -35.5 -114 q-35.5 -43 -108.5 -43 l-175 0 l0 428 l-75 0 ZM132 236 l0 -164 l76 0 q80 0 80 86 q0 41 -21.5 59.5 q-21.5 18.5 -70.5 18.5 l-64 0 Z" /><glyph glyph-name="afii10147" unicode="&#x472;" d="M444 307 q0 -315 -202 -315 q-202 0 -202 315 l0 76 q0 315 202 315 q202 0 202 -315 l0 -76 ZM153 123.5 q27 -53.5 89 -53.5 q62 0 89 53.5 q27 53.5 27 183.5 l0 11 l-232 0 l0 -11 q0 -130 27 -183.5 ZM330 569 q-27 51 -88 51 q-61 0 -88 -51 q-27 -51 -28 -173 l232 0 q-1 122 -28 173 Z" /><glyph glyph-name="afii10195" unicode="&#x473;" d="M369 284 l0 -66 q0 -108 -44 -167 q-44 -59 -125 -59 q-81 0 -124.5 59 q-43.5 59 -43.5 167 l0 66 q0 107 43.5 165.5 q43.5 58.5 124.5 58.5 q81 0 125 -58.5 q44 -58.5 44 -165.5 ZM200 64 q89 0 89 154 l-177 0 q0 -154 88 -154 ZM268 399 q-20 37 -68 37 q-48 0 -67.5 -36.5 q-19.5 -36.5 -20.5 -109.5 l177 0 q-1 72 -21 109 Z" /><glyph glyph-name="afii10148" unicode="&#x474;" d="M8 690 l91 0 l146 -541 l114 420 q19 67 53.5 98 q34.5 31 100.5 31 l0 -78 q-31 0 -46 -16.5 q-15 -16.5 -27 -56.5 l-157 -547 l-75 0 l-200 690 Z" /><glyph glyph-name="afii10196" unicode="&#x475;" d="M421 508 l0 -72 q-25 0 -35.5 -13.5 q-10.5 -13.5 -21.5 -49.5 l-114 -373 l-85 0 l-157 500 l86 0 l112 -386 l90 305 q15 51 41.5 70 q26.5 19 83.5 19 Z" /><glyph glyph-name="afii10050" unicode="&#x490;" d="M303 690 l0 108 l86 0 l0 -186 l-235 0 l0 -612 l-86 0 l0 690 l235 0 Z" /><glyph glyph-name="afii10098" unicode="&#x491;" d="M219 500 l0 93 l80 0 l0 -165 l-167 0 l0 -428 l-80 0 l0 500 l167 0 Z" /><glyph glyph-name="uni0492" unicode="&#x492;" d="M393 690 l0 -78 l-235 0 l0 -216 l133 0 l0 -78 l-133 0 l0 -318 l-86 0 l0 318 l-80 0 l0 78 l80 0 l0 294 l321 0 Z" /><glyph glyph-name="uni0493" unicode="&#x493;" d="M318 500 l0 -72 l-167 0 l0 -138 l91 0 l0 -72 l-91 0 l0 -218 l-80 0 l0 218 l-79 0 l0 72 l79 0 l0 210 l247 0 Z" /><glyph glyph-name="uni0496" unicode="&#x496;" d="M103 0 l-95 0 l154 349 l-121 341 l86 0 l106 -304 l73 0 l0 304 l86 0 l0 -304 l72 0 l107 304 l86 0 l-122 -341 l120 -271 l55 0 l0 -208 l-86 0 l0 130 l-29 0 l-132 308 l-71 0 l0 -308 l-86 0 l0 308 l-70 0 l-133 -308 Z" /><glyph glyph-name="uni0497" unicode="&#x497;" d="M434 500 l81 0 l-91 -243 l73 -185 l54 0 l0 -189 l-80 0 l0 117 l-30 0 l-83 216 l-48 0 l0 -216 l-80 0 l0 216 l-50 0 l-83 -216 l-89 0 l108 257 l-92 243 l84 0 l76 -214 l46 0 l0 214 l80 0 l0 -214 l47 0 l77 214 Z" /><glyph glyph-name="uni0498" unicode="&#x498;" d="M193 -130 l0 125 q-131 20 -160 193 l84 0 q15 -61 41 -89.5 q26 -28.5 75 -28.5 q51 0 76.5 34 q25.5 34 25.5 93 q0 122 -121 122 l-41 0 l0 78 l50 0 q96 0 96 118 q0 106 -86 106 q-46 0 -71.5 -25.5 q-25.5 -25.5 -37.5 -81.5 l-79 0 q14 92 65 138 q51 46 123 46 q82 0 127 -48 q45 -48 45 -135 q0 -104 -87 -152 q45 -17 73.5 -61.5 q28.5 -44.5 28.5 -104.5 q0 -75 -36.5 -132 q-36.5 -57 -111.5 -70 l0 -125 l-79 0 Z" /><glyph glyph-name="uni0499" unicode="&#x499;" d="M136 -117 l0 112 q-85 10 -117 81 l57 44 q9 -16 17.5 -26 q8.5 -10 29 -20 q20.5 -10 48.5 -10 q35 0 55 21 q20 21 20 61 q0 80 -99 80 l-30 0 l0 72 l33 0 q38 0 59.5 19 q21.5 19 21.5 54 q0 29 -17 47 q-17 18 -49 18 q-27 0 -44 -11.5 q-17 -11.5 -35 -39.5 l-60 45 q44 78 144 78 q63 0 102 -36 q39 -36 39 -91 q0 -79 -62 -113 q34 -13 55.5 -46 q21.5 -33 21.5 -81 q0 -52 -27.5 -92.5 q-27.5 -40.5 -82.5 -51.5 l0 -114 l-80 0 Z" /><glyph glyph-name="uni049A" unicode="&#x49a;" d="M402 0 l-21 0 l-163 308 l-64 0 l0 -308 l-86 0 l0 690 l86 0 l0 -304 l65 0 l138 304 l88 0 l-156 -340 l147 -272 l52 0 l0 -208 l-86 0 l0 130 Z" /><glyph glyph-name="uni049B" unicode="&#x49b;" d="M271 500 l86 0 l-112 -242 l89 -186 l48 0 l0 -189 l-80 0 l0 117 l-22 0 l-100 216 l-48 0 l0 -216 l-80 0 l0 500 l80 0 l0 -214 l43 0 l96 214 Z" /><glyph glyph-name="uni049C" unicode="&#x49c;" d="M190 192 l0 116 l-36 0 l0 -308 l-86 0 l0 690 l86 0 l0 -304 l36 0 l0 125 l78 0 l0 -125 l28 0 l84 304 l85 0 l-96 -340 l129 -350 l-91 0 l-110 308 l-29 0 l0 -116 l-78 0 Z" /><glyph glyph-name="uni049D" unicode="&#x49d;" d="M153 108 l0 108 l-21 0 l0 -216 l-80 0 l0 500 l80 0 l0 -214 l21 0 l0 109 l70 0 l0 -109 l12 0 l75 214 l86 0 l-87 -242 l99 -258 l-89 0 l-79 216 l-17 0 l0 -108 l-70 0 Z" /><glyph glyph-name="uni04A0" unicode="&#x4a0;" d="M-16 612 l0 78 l206 0 l0 -304 l65 0 l138 304 l88 0 l-156 -340 l189 -350 l-97 0 l-163 308 l-64 0 l0 -308 l-86 0 l0 612 l-120 0 Z" /><glyph glyph-name="uni04A1" unicode="&#x4a1;" d="M-16 428 l0 72 l188 0 l0 -214 l43 0 l96 214 l86 0 l-112 -242 l124 -258 l-89 0 l-100 216 l-48 0 l0 -216 l-80 0 l0 428 l-108 0 Z" /><glyph glyph-name="uni04A2" unicode="&#x4a2;" d="M427 0 l-67 0 l0 318 l-206 0 l0 -318 l-86 0 l0 690 l86 0 l0 -294 l206 0 l0 294 l86 0 l0 -612 l67 0 l0 -208 l-86 0 l0 130 Z" /><glyph glyph-name="uni04A3" unicode="&#x4a3;" d="M132 500 l0 -210 l161 0 l0 210 l80 0 l0 -428 l56 0 l0 -189 l-80 0 l0 117 l-56 0 l0 218 l-161 0 l0 -218 l-80 0 l0 500 l80 0 Z" /><glyph glyph-name="uni04AA" unicode="&#x4aa;" d="M202 -130 l0 126 q-162 29 -162 311 l0 76 q0 315 202 315 q173 0 200 -223 l-81 0 q-15 80 -42.5 112.5 q-27.5 32.5 -76.5 32.5 q-61 0 -88.5 -54 q-27.5 -54 -27.5 -183 l0 -76 q0 -129 27 -183 q27 -54 89 -54 q50 0 77.5 34 q27.5 34 41.5 111 l80 0 q-22 -196 -160 -220 l0 -125 l-79 0 Z" /><glyph glyph-name="uni04AB" unicode="&#x4ab;" d="M167 -117 l0 113 q-135 25 -135 222 l0 66 q0 106 46.5 165 q46.5 59 128.5 59 q97 0 141 -77 l-61 -42 q-29 47 -80 47 q-47 0 -71 -40 q-24 -40 -24 -112 l0 -66 q0 -154 95 -154 q53 0 82 52 l59 -41 q-27 -66 -101 -79 l0 -113 l-80 0 Z" /><glyph glyph-name="uni04AE" unicode="&#x4ae;" d="M16 690 l98 0 l110 -290 l111 290 l98 0 l-166 -394 l0 -296 l-86 0 l0 296 l-165 394 Z" /><glyph glyph-name="uni04AF" unicode="&#x4af;" d="M320 500 l84 0 l-154 -500 l0 -190 l-85 0 l0 190 l-157 500 l86 0 l112 -387 l114 387 Z" /><glyph glyph-name="uni04B0" unicode="&#x4b0;" d="M73 218 l0 78 l108 0 l-165 394 l98 0 l110 -290 l111 290 l98 0 l-166 -394 l109 0 l0 -78 l-109 0 l0 -218 l-86 0 l0 218 l-108 0 Z" /><glyph glyph-name="uni04B1" unicode="&#x4b1;" d="M83 -72 l0 72 l82 0 l-157 500 l86 0 l112 -387 l114 387 l84 0 l-154 -500 l82 0 l0 -72 l-82 0 l0 -118 l-85 0 l0 118 l-82 0 Z" /><glyph glyph-name="uni04B2" unicode="&#x4b2;" d="M109 0 l-93 0 l158 356 l-140 334 l93 0 l96 -253 l97 253 l93 0 l-141 -334 l124 -278 l56 0 l0 -208 l-86 0 l0 130 l-28 0 l-115 268 l-114 -268 Z" /><glyph glyph-name="uni04B3" unicode="&#x4b3;" d="M320 0 l-22 0 l-100 184 l-100 -184 l-90 0 l143 255 l-125 245 l90 0 l82 -175 l82 175 l90 0 l-124 -244 l102 -184 l52 0 l0 -189 l-80 0 l0 117 Z" /><glyph glyph-name="uni04B6" unicode="&#x4b6;" d="M114 690 l0 -194 q0 -92 23 -126 q23 -34 88 -34 q42 0 66.5 14 q24.5 14 31.5 34 l0 306 l85 0 l0 -612 l67 0 l0 -208 l-86 0 l0 130 l-66 0 l0 291 q-37 -33 -112 -33 q-105 0 -144 55.5 q-39 55.5 -39 182.5 l0 194 l86 0 Z" /><glyph glyph-name="uni04B7" unicode="&#x4b7;" d="M318 -117 l0 117 l-56 0 l0 213 q-27 -27 -79 -27 q-70 0 -106.5 43.5 q-36.5 43.5 -36.5 150.5 l0 120 l80 0 l0 -120 q0 -69 18 -94 q18 -25 55 -25 q48 0 69 34 l0 205 l79 0 l0 -428 l57 0 l0 -189 l-80 0 Z" /><glyph glyph-name="uni04B8" unicode="&#x4b8;" d="M181 142 l0 117 q-87 8 -120 63 q-33 55 -33 174 l0 194 l86 0 l0 -194 q0 -78 14 -114.5 q14 -36.5 53 -42.5 l0 122 l77 0 l0 -122 q52 10 65 45 l0 306 l85 0 l0 -690 l-85 0 l0 291 q-25 -23 -65 -30 l0 -119 l-77 0 Z" /><glyph glyph-name="uni04B9" unicode="&#x4b9;" d="M157 88 l0 99 q-57 7 -87 51.5 q-30 44.5 -30 141.5 l0 120 l80 0 l0 -120 q0 -55 8 -82 q8 -27 29 -30 l0 107 l71 0 l0 -109 q21 9 34 29 l0 205 l79 0 l0 -500 l-79 0 l0 213 q-14 -14 -34 -20 l0 -105 l-71 0 Z" /><glyph glyph-name="uni04BA" unicode="&#x4ba;" d="M362 0 l0 270 q0 92 -23 126 q-23 34 -88 34 q-76 0 -97 -55 l0 -375 l-86 0 l0 690 l86 0 l0 -217 q42 35 111 35 q105 0 144 -56.5 q39 -56.5 39 -181.5 l0 -270 l-86 0 Z" /><glyph glyph-name="uni04BB" unicode="&#x4bb;" d="M52 0 l0 690 l81 0 l0 -239 q29 57 98 57 q65 0 103.5 -48 q38.5 -48 38.5 -148 l0 -312 l-80 0 l0 311 q0 70 -20 96.5 q-20 26.5 -57 26.5 q-84 0 -84 -122 l0 -312 l-80 0 Z" /><glyph glyph-name="uni04D8" unicode="&#x4d8;" d="M40 307 l0 40 l321 0 l0 36 q0 128 -27.5 182.5 q-27.5 54.5 -88.5 54.5 q-51 0 -78 -33 q-27 -33 -39 -112 l-84 0 q23 223 201 223 q202 0 202 -315 l0 -76 q0 -315 -202 -315 q-97 0 -151 77 q-54 77 -54 238 ZM161.5 115.5 q28.5 -45.5 83.5 -45.5 q55 0 82 46 q27 46 34 153 l-234 0 q6 -108 34.5 -153.5 Z" /><glyph glyph-name="afii10846" unicode="&#x4d9;" d="M106 384 l-59 41 q38 83 143 83 q85 0 129 -60 q44 -60 44 -166 l0 -66 q0 -107 -41.5 -165.5 q-41.5 -58.5 -118.5 -58.5 q-82 0 -121.5 54 q-39.5 54 -39.5 170 l0 52 l241 0 l0 14 q0 154 -92 154 q-33 0 -50.5 -12 q-17.5 -12 -34.5 -40 ZM140.5 93 q18.5 -29 62.5 -29 q44 0 62 32.5 q18 32.5 18 101.5 l-161 0 q0 -76 18.5 -105 Z" /><glyph glyph-name="uni04E2" unicode="&#x4e2;" d="M68 690 l86 0 l0 -491 l236 491 l75 0 l0 -690 l-86 0 l0 486 l-234 -486 l-77 0 l0 690 ZM141 768 l0 72 l251 0 l0 -72 l-251 0 Z" /><glyph glyph-name="uni04E3" unicode="&#x4e3;" d="M132 500 l0 -342 l176 342 l77 0 l0 -500 l-80 0 l0 349 l-178 -349 l-75 0 l0 500 l80 0 ZM109 600 l0 72 l219 0 l0 -72 l-219 0 Z" /><glyph glyph-name="uni04E8" unicode="&#x4e8;" d="M444 307 q0 -315 -202 -315 q-202 0 -202 315 l0 76 q0 315 202 315 q202 0 202 -315 l0 -76 ZM153 123.5 q27 -53.5 89 -53.5 q62 0 89 53.5 q27 53.5 27 183.5 l0 11 l-232 0 l0 -11 q0 -130 27 -183.5 ZM330 569 q-27 51 -88 51 q-61 0 -88 -51 q-27 -51 -28 -173 l232 0 q-1 122 -28 173 Z" /><glyph glyph-name="uni04E9" unicode="&#x4e9;" d="M369 284 l0 -66 q0 -108 -44 -167 q-44 -59 -125 -59 q-81 0 -124.5 59 q-43.5 59 -43.5 167 l0 66 q0 107 43.5 165.5 q43.5 58.5 124.5 58.5 q81 0 125 -58.5 q44 -58.5 44 -165.5 ZM200 64 q89 0 89 154 l-177 0 q0 -154 88 -154 ZM268 399 q-20 37 -68 37 q-48 0 -67.5 -36.5 q-19.5 -36.5 -20.5 -109.5 l177 0 q-1 72 -21 109 Z" /><glyph glyph-name="uni04EE" unicode="&#x4ee;" d="M368 690 l90 0 l-182 -574 q-23 -72 -58 -98 q-35 -26 -110 -26 l0 79 q44 0 62 14.5 q18 14.5 32 69.5 l-182 535 l95 0 l131 -416 l122 416 ZM116 768 l0 72 l251 0 l0 -72 l-251 0 Z" /><glyph glyph-name="uni04EF" unicode="&#x4ef;" d="M155 -19 l4 14 l-155 505 l86 0 l93 -322 l15 -53 l93 375 l83 0 l-138 -516 q-27 -99 -60.5 -136.5 q-33.5 -37.5 -117.5 -37.5 l0 78 q39 0 60 18 q21 18 37 75 ZM85 600 l0 72 l219 0 l0 -72 l-219 0 Z" /><glyph glyph-name="uni1E9E" unicode="&#x1e9e;" d="M423 636 l-88 -191 q48 -7 68 -40.5 q20 -33.5 20 -102.5 l0 -162 q0 -86 -27.5 -113 q-27.5 -27 -95.5 -27 l-58 0 l0 78 l55 0 q24 0 32 14 q8 14 8 54 l0 150 q0 42 -10 59 q-10 17 -35 17 l-54 0 l0 63 l76 167 q-5 6 -25.5 12 q-20.5 6 -38.5 6 q-52 0 -74 -29.5 q-22 -29.5 -22 -99.5 l0 -491 l-86 0 l0 499 q0 95 45.5 147 q45.5 52 136.5 52 q56 0 104.5 -21 q48.5 -21 68.5 -41 Z" /><glyph glyph-name="uni2010" unicode="&#x2010;" d="M24 253 l0 72 l211 0 l0 -72 l-211 0 Z" /><glyph glyph-name="uni2011" unicode="&#x2011;" d="M24 253 l0 72 l211 0 l0 -72 l-211 0 Z" /><glyph glyph-name="figuredash" unicode="&#x2012;" d="M47 313 l0 72 l311 0 l0 -72 l-311 0 Z" /><glyph glyph-name="endash" unicode="&#x2013;" d="M48 253 l0 72 l315 0 l0 -72 l-315 0 Z" /><glyph glyph-name="emdash" unicode="&#x2014;" d="M16 253 l0 72 l505 0 l0 -72 l-505 0 Z" /><glyph glyph-name="quoteleft" unicode="&#x2018;" d="M48 534 l0 176 l96 83 l0 -259 l-96 0 Z" /><glyph glyph-name="quoteright" unicode="&#x2019;" d="M134 740 l0 -185 l-86 -74 l0 259 l86 0 Z" /><glyph glyph-name="quotesinglbase" unicode="&#x201a;" d="M144 96 l0 -176 l-96 -83 l0 259 l96 0 Z" /><glyph glyph-name="quotedblleft" unicode="&#x201c;" d="M48 534 l0 176 l96 83 l0 -259 l-96 0 ZM204 534 l0 176 l96 83 l0 -259 l-96 0 Z" /><glyph glyph-name="quotedblright" unicode="&#x201d;" d="M300 740 l0 -176 l-96 -83 l0 259 l96 0 ZM144 740 l0 -176 l-96 -83 l0 259 l96 0 Z" /><glyph glyph-name="quotedblbase" unicode="&#x201e;" d="M300 96 l0 -176 l-96 -83 l0 259 l96 0 ZM144 96 l0 -176 l-96 -83 l0 259 l96 0 Z" /><glyph glyph-name="dagger" unicode="&#x2020;" d="M16 500 l153 0 l0 190 l86 0 l0 -190 l154 0 l0 -78 l-154 0 l0 -612 l-86 0 l0 612 l-153 0 l0 78 Z" /><glyph glyph-name="daggerdbl" unicode="&#x2021;" d="M16 500 l153 0 l0 190 l86 0 l0 -190 l154 0 l0 -78 l-154 0 l0 -344 l154 0 l0 -78 l-154 0 l0 -190 l-86 0 l0 190 l-153 0 l0 78 l153 0 l0 344 l-153 0 l0 78 Z" /><glyph glyph-name="bullet" unicode="&#x2022;" d="M77 281.5 q-25 24.5 -25 59.5 q0 35 25 59.5 q25 24.5 59 24.5 q34 0 59 -24.5 q25 -24.5 25 -59.5 q0 -35 -25 -59.5 q-25 -24.5 -59 -24.5 q-34 0 -59 24.5 Z" /><glyph glyph-name="ellipsis" unicode="&#x2026;" d="M164 116 l0 -116 l-116 0 l0 116 l116 0 ZM644 116 l0 -116 l-116 0 l0 116 l116 0 ZM404 116 l0 -116 l-116 0 l0 116 l116 0 Z" /><glyph glyph-name="perthousand" unicode="&#x2030;" d="M407 690 l78 0 l-308 -690 l-79 0 l309 690 ZM20 553 q0 71 31.5 108 q31.5 37 86.5 37 q55 0 86.5 -37 q31.5 -37 31.5 -108 l0 -65 q0 -71 -31.5 -108 q-31.5 -37 -86.5 -37 q-55 0 -86.5 37 q-31.5 37 -31.5 108 l0 65 ZM83 490 q0 -45 13 -65.5 q13 -20.5 42 -20.5 q29 0 42 20.5 q13 20.5 13 65.5 l0 61 q0 45 -13 65.5 q-13 20.5 -42 20.5 q-29 0 -42 -20.5 q-13 -20.5 -13 -65.5 l0 -61 ZM336 202 q0 71 31.5 108 q31.5 37 86.5 37 q55 0 86.5 -37 q31.5 -37 31.5 -108 l0 -65 q0 -71 -31.5 -108 q-31.5 -37 -86.5 -37 q-55 0 -86.5 37 q-31.5 37 -31.5 108 l0 65 ZM399 139 q0 -45 13 -65.5 q13 -20.5 42 -20.5 q29 0 42 20.5 q13 20.5 13 65.5 l0 61 q0 45 -13 65.5 q-13 20.5 -42 20.5 q-29 0 -42 -20.5 q-13 -20.5 -13 -65.5 l0 -61 ZM605 202 q0 71 31.5 108 q31.5 37 86.5 37 q55 0 86.5 -37 q31.5 -37 31.5 -108 l0 -65 q0 -71 -31.5 -108 q-31.5 -37 -86.5 -37 q-55 0 -86.5 37 q-31.5 37 -31.5 108 l0 65 ZM668 139 q0 -45 13 -65.5 q13 -20.5 42 -20.5 q29 0 42 20.5 q13 20.5 13 65.5 l0 61 q0 45 -13 65.5 q-13 20.5 -42 20.5 q-29 0 -42 -20.5 q-13 -20.5 -13 -65.5 l0 -61 Z" /><glyph glyph-name="guilsinglleft" unicode="&#x2039;" d="M24 283 l186 231 l0 -114 l-93 -117 l93 -117 l0 -114 l-186 231 Z" /><glyph glyph-name="guilsinglright" unicode="&#x203a;" d="M46 514 l186 -231 l-186 -231 l0 114 l93 117 l-93 117 l0 114 Z" /><glyph glyph-name="fraction" unicode="&#x2044;" d="M378 690 l73 0 l-377 -690 l-74 0 l378 690 Z" /><glyph glyph-name="uni2074" unicode="&#x2074;" d="M147 690 l57 0 l-97 -205 l60 0 l0 56 l54 0 l0 -56 l31 0 l0 -50 l-31 0 l0 -61 l-54 0 l0 61 l-125 0 l0 43 l105 212 Z" /><glyph glyph-name="Euro" unicode="&#x20ac;" d="M8 309 l51 0 l0 72 l-51 0 l0 78 l54 0 q21 239 169 239 q78 0 115.5 -56 q37.5 -56 45.5 -167 l-78 0 q-8 83 -27 114 q-19 31 -56 31 q-39 0 -58 -35.5 q-19 -35.5 -26 -125.5 l99 0 l0 -78 l-101 0 l0 -72 l101 0 l0 -78 l-99 0 q8 -83 27.5 -122 q19.5 -39 56.5 -39 q38 0 57 33.5 q19 33.5 27 111.5 l77 0 q-10 -114 -48.5 -168.5 q-38.5 -54.5 -112.5 -54.5 q-70 0 -114 60.5 q-44 60.5 -55 178.5 l-54 0 l0 78 Z" /><glyph glyph-name="uni20B4" unicode="&#x20b4;" d="M3 236 l0 80 l401 0 l0 -80 l-279 0 q-6 -24 -6 -55 q0 -111 89 -111 q35 0 55.5 16.5 q20.5 16.5 51.5 61.5 l68 -41 q-39 -59 -77.5 -87 q-38.5 -28 -97.5 -28 q-86 0 -130.5 56 q-44.5 56 -44.5 131 q0 17 5 57 l-35 0 ZM3 376 l0 80 l276 0 q8 24 8 56 q0 108 -79 108 q-24 0 -44 -12 q-20 -12 -28 -22 q-8 -10 -24 -34 q-3 -5 -5 -7 l-64 40 q59 113 162 113 q85 0 126.5 -52.5 q41.5 -52.5 41.5 -133.5 q0 -28 -6 -56 l37 0 l0 -80 l-401 0 Z" /><glyph glyph-name="uni20B8" unicode="&#x20b8;" d="M5 560 l396 0 l0 -78 l-155 0 l0 -482 l-86 0 l0 482 l-155 0 l0 78 ZM5 690 l396 0 l0 -78 l-396 0 l0 78 Z" /><glyph glyph-name="uni20BD" unicode="&#x20bd;" d="M10 133 l0 78 l74 0 l0 52 l-74 0 l0 78 l74 0 l0 349 l110 0 q95 0 148 -56.5 q53 -56.5 53 -157.5 q0 -100 -52.5 -156.5 q-52.5 -56.5 -148.5 -56.5 l-24 0 l0 -52 l81 0 l0 -78 l-81 0 l0 -133 l-86 0 l0 133 l-74 0 ZM170 341 l24 0 q63 0 89 34 q26 34 26 101 q0 68 -26 102 q-26 34 -89 34 l-24 0 l0 -271 Z" /><glyph glyph-name="afii61352" unicode="&#x2116;" d="M738 536 l0 -45 q0 -75 -30 -119 q-30 -44 -92 -44 q-58 0 -90 44 q-32 44 -32 119 l0 45 q0 77 32 119.5 q32 42.5 90 42.5 q58 0 90 -42.5 q32 -42.5 32 -119.5 ZM562 495 q0 -99 54 -99 q54 0 54 99 l0 37 q0 98 -54 98 q-54 0 -54 -98 l0 -37 ZM511 215 l0 70 l211 0 l0 -70 l-211 0 ZM361 690 l86 0 l0 -690 l-80 0 l-213 478 l0 -478 l-86 0 l0 690 l77 0 l216 -483 l0 483 Z" /><glyph glyph-name="trademark" unicode="&#x2122;" d="M471 690 l150 -260 l150 260 l65 0 l0 -417 l-71 0 l0 278 l-115 -198 l-64 0 l-109 198 l0 -278 l-71 0 l0 417 l65 0 ZM24 690 l338 0 l0 -66 l-134 0 l0 -351 l-71 0 l0 351 l-133 0 l0 66 Z" /><glyph glyph-name="uni2190" unicode="&#x2190;" d="M523 -92 l-110 0 l-353 353 l353 353 l110 0 l-314 -314 l606 0 l0 -78 l-606 0 l314 -314 Z" /><glyph glyph-name="uni2191" unicode="&#x2191;" d="M766 286 l0 -110 l-314 314 l0 -606 l-78 0 l0 606 l-314 -314 l0 110 l353 353 l353 -353 Z" /><glyph glyph-name="uni2192" unicode="&#x2192;" d="M462 -92 l-110 0 l314 314 l-606 0 l0 78 l606 0 l-314 314 l110 0 l353 -353 l-353 -353 Z" /><glyph glyph-name="uni2193" unicode="&#x2193;" d="M60 236 l0 110 l314 -314 l0 606 l78 0 l0 -606 l314 314 l0 -110 l-353 -353 l-353 353 Z" /><glyph glyph-name="uni2196" unicode="&#x2196;" d="M137 -78 l-77 78 l0 500 l500 0 l78 -77 l-445 0 l428 -429 l-55 -55 l-429 428 l0 -445 Z" /><glyph glyph-name="uni2197" unicode="&#x2197;" d="M638 0 l-77 -78 l0 445 l-429 -428 l-55 55 l428 429 l-445 0 l78 77 l500 0 l0 -500 Z" /><glyph glyph-name="uni2198" unicode="&#x2198;" d="M561 578 l77 -78 l0 -500 l-500 0 l-78 77 l445 0 l-428 429 l55 55 l429 -428 l0 445 Z" /><glyph glyph-name="uni2199" unicode="&#x2199;" d="M60 500 l77 78 l0 -445 l429 428 l55 -55 l-428 -429 l445 0 l-78 -77 l-500 0 l0 500 Z" /><glyph glyph-name="uni21A3" unicode="&#x21a3;" d="M207 414 l94 -94 l794 0 l-55 55 l39 39 l133 -133 l-133 -133 l-39 39 l55 55 l-794 0 l-94 -94 l-39 39 l94 94 l-94 94 l39 39 ZM79 414 l133 -133 l-133 -133 l-39 39 l94 94 l-94 94 l39 39 Z" /><glyph glyph-name="partialdiff" unicode="&#x2202;" d="M371 218 q0 -108 -44 -167 q-44 -59 -125 -59 q-81 0 -124.5 59 q-43.5 59 -43.5 167 l0 66 q0 107 43 165.5 q43 58.5 120 58.5 q61 0 94 -36 l0 33 q0 56 -22.5 88.5 q-22.5 32.5 -67.5 32.5 q-45 0 -92 -45 l-41 59 q52 58 130 58 q86 0 129.5 -55.5 q43.5 -55.5 43.5 -178.5 l0 -246 ZM202 64 q89 0 89 154 l0 80 q-2 68 -22 103 q-20 35 -67 35 q-49 0 -68.5 -38 q-19.5 -38 -19.5 -114 l0 -66 q0 -154 88 -154 Z" /><glyph glyph-name="product" unicode="&#x220f;" d="M68 690 l378 0 l0 -880 l-85 0 l0 802 l-207 0 l0 -802 l-86 0 l0 880 Z" /><glyph glyph-name="summation" unicode="&#x2211;" d="M387 690 l0 -78 l-260 0 l150 -321 l0 -83 l-150 -320 l260 0 l0 -78 l-363 0 l0 58 l177 382 l-177 382 l0 58 l363 0 Z" /><glyph glyph-name="minus" unicode="&#x2212;" d="M43 318 l0 72 l319 0 l0 -72 l-319 0 Z" /><glyph glyph-name="fraction" unicode="&#x2215;" d="M112 -116 l-75 0 l264 928 l75 0 l-264 -928 Z" /><glyph glyph-name="radical" unicode="&#x221a;" d="M18 500 l152 0 l108 -356 l89 546 l212 0 l0 -78 l-146 0 l-109 -612 l-78 0 l-141 422 l-87 0 l0 78 Z" /><glyph glyph-name="infinity" unicode="&#x221e;" d="M308 284 q-68 -116 -140 -116 q-65 0 -106 50 q-41 50 -41 124 q0 74 41 124 q41 50 106 50 q77 0 146 -114 q33 54 65 84 q32 30 72 30 q64 0 105.5 -50 q41.5 -50 41.5 -124 q0 -74 -41.5 -124 q-41.5 -50 -105.5 -50 q-75 0 -143 116 ZM458 247 q28 0 47.5 26 q19.5 26 19.5 69 q0 42 -20 68 q-20 26 -51 26 q-10 0 -18 -1.5 q-8 -1.5 -15.5 -7 q-7.5 -5.5 -12.5 -9.5 q-5 -4 -12 -14 q-7 -10 -11 -16.5 q-4 -6.5 -13 -21 q-9 -14.5 -14 -22.5 q31 -52 52 -74.5 q21 -22.5 48 -22.5 ZM162 247 q17 0 30.5 5.5 q13.5 5.5 27 21.5 q13.5 16 21.5 28 q8 12 26 41 q-31 50 -53 71.5 q-22 21.5 -52 21.5 q-29 0 -48.5 -26 q-19.5 -26 -19.5 -68 q0 -43 19.5 -69 q19.5 -26 48.5 -26 Z" /><glyph glyph-name="integral" unicode="&#x222b;" d="M59 -10 l0 546 q0 80 31.5 117 q31.5 37 104.5 37 l21 0 l0 -82 l-18 0 q-36 0 -44.5 -20 q-8.5 -20 -8.5 -78 l0 -546 q0 -80 -31.5 -117 q-31.5 -37 -104.5 -37 l-21 0 l0 82 l18 0 q36 0 44.5 20 q8.5 20 8.5 78 Z" /><glyph glyph-name="approxequal" unicode="&#x2248;" d="M337 465 l33 -54 q-50 -52 -91 -52 q-27 0 -81.5 26.5 q-54.5 26.5 -76.5 26.5 q-20 0 -52 -34 l-33 54 q46 52 86 52 q27 0 82.5 -26.5 q55.5 -26.5 75.5 -26.5 q27 0 57 34 ZM337 306 l33 -54 q-50 -52 -91 -52 q-27 0 -81.5 26.5 q-54.5 26.5 -76.5 26.5 q-21 0 -52 -34 l-33 54 q46 52 86 52 q27 0 82.5 -26.5 q55.5 -26.5 75.5 -26.5 q27 0 57 34 Z" /><glyph glyph-name="notequal" unicode="&#x2260;" d="M47 400 l0 72 l155 0 l60 178 l68 -23 l-52 -155 l80 0 l0 -72 l-105 0 l-31 -92 l136 0 l0 -72 l-160 0 l-55 -165 l-68 23 l48 142 l-76 0 l0 72 l100 0 l31 92 l-131 0 Z" /><glyph glyph-name="lessequal" unicode="&#x2264;" d="M326 560 l-189 -129 l189 -129 l0 -95 l-264 183 l0 82 l264 183 l0 -95 ZM62 315 l264 -183 l0 -95 l-264 183 l0 95 Z" /><glyph glyph-name="greaterequal" unicode="&#x2265;" d="M268 431 l-189 129 l0 95 l264 -183 l0 -82 l-264 -183 l0 95 l189 129 ZM79 132 l264 183 l0 -95 l-264 -183 l0 95 Z" /><glyph glyph-name="uni231A" unicode="&#x231a;" d="M185 -205 l0 235 q-57 34 -91 92.5 q-34 58.5 -34 127.5 q0 69 34 127 q34 58 91 92 l0 235 l261 0 l0 -234 q48 -29 80.5 -76 q32.5 -47 41.5 -104 l38 0 l0 -80 l-38 0 q-9 -57 -41 -104 q-32 -47 -81 -76 l0 -235 l-261 0 ZM167 398.5 q-62 -61.5 -62 -148.5 q0 -87 62 -149 q62 -62 149 -62 q87 0 148.5 62 q61.5 62 61.5 149 q0 87 -61.5 148.5 q-61.5 61.5 -148.5 61.5 q-87 0 -149 -61.5 ZM482 318 l-166 -93 l-133 75 l-6 20 l20 5 l119 -70 l153 87 l19 -5 l-6 -19 Z" /><glyph glyph-name="uni23F2" unicode="&#x23f2;" d="M199.5 5.5 q-139.5 139.5 -139.5 336.5 q0 197 139.5 336.5 q139.5 139.5 336.5 139.5 q197 0 336.5 -139.5 q139.5 -139.5 139.5 -336.5 q0 -197 -139.5 -336.5 q-139.5 -139.5 -336.5 -139.5 q-197 0 -336.5 139.5 ZM237.5 640 q-123.5 -123 -123.5 -298 q0 -175 123.5 -298.5 q123.5 -123.5 298.5 -123.5 q175 0 298 123.5 q123 123.5 123 298.5 q0 175 -123 298 q-123 123 -298 123 q-175 0 -298.5 -123 ZM871 508 l-335 -192 l-248 142 l-10 35 l36 10 l222 -129 l309 179 l36 -9 l-10 -36 ZM802 364 l126 0 l0 -46 l-126 0 l0 46 ZM513 -50 l0 126 l46 0 l0 -126 l-46 0 ZM145 364 l126 0 l0 -46 l-126 0 l0 46 ZM513 607 l0 126 l46 0 l0 -126 l-46 0 Z" /><glyph glyph-name="uni2550" unicode="&#x2550;" d="M2158 387 l0 -78 l-2158 0 l0 78 l2158 0 ZM2158 259 l0 -78 l-2158 0 l0 78 l2158 0 Z" /><glyph glyph-name="lozenge" unicode="&#x25ca;" d="M175 587 l96 0 l152 -291 l-152 -296 l-96 0 l-153 296 l153 291 ZM222 517 l-104 -221 l104 -226 l104 226 l-104 221 Z" /><glyph glyph-name="uni261D" unicode="&#x261d;" d="M645 -28 l-370 0 l-215 292 q3 3 8 7 q5 4 21.5 12 q16.5 8 33 10 q16.5 2 39 -6 q22.5 -8 42.5 -29 l71 -74 l0 450 q0 61 50 61 q50 0 50 -58 l0 -229 l36 0 q29 0 41.5 -13 q12.5 -13 12.5 -41 l36 0 q29 0 41.5 -13 q12.5 -13 12.5 -41 l34 0 q30 0 43 -12 q13 -12 13 -39 l0 -277 ZM275 -243 l0 161 l370 0 l0 -161 l-370 0 ZM584.5 -142.5 q-7.5 7.5 -19.5 7.5 q-12 0 -20 -7.5 q-8 -7.5 -8 -19.5 q0 -12 8 -20 q8 -8 20 -8 q12 0 19.5 8 q7.5 8 7.5 20 q0 12 -7.5 19.5 Z" /><glyph glyph-name="uni261E" unicode="&#x261e;" d="M278 51 l0 370 l292 215 q3 -3 7 -8 q4 -5 12 -21.5 q8 -16.5 10 -33 q2 -16.5 -6 -39 q-8 -22.5 -29 -42.5 l-74 -71 l450 0 q61 0 61 -50 q0 -50 -58 -50 l-229 0 l0 -36 q0 -29 -13 -41.5 q-13 -12.5 -41 -12.5 l0 -36 q0 -29 -13 -41.5 q-13 -12.5 -41 -12.5 l0 -34 q0 -30 -12 -43 q-12 -13 -39 -13 l-277 0 ZM60 421 l164 0 l0 -370 l-164 0 l0 370 ZM161.5 111.5 q7.5 7.5 7.5 19.5 q0 12 -7.5 20 q-7.5 8 -19.5 8 q-12 0 -20 -8 q-8 -8 -8 -20 q0 -12 8 -19.5 q8 -7.5 20 -7.5 q12 0 19.5 7.5 Z" /><glyph glyph-name="uni26F3" unicode="&#x26f3;" d="M60 513 q0 115 81 196 q81 81 196 81 q115 0 196 -81 q81 -81 81 -196 q0 -86 -82 -216 l-195 -307 l-197 309 q-80 128 -80 214 ZM258.5 591 q-32.5 -32 -32.5 -78 q0 -46 32.5 -78 q32.5 -32 78.5 -32 q46 0 78 32 q32 32 32 78 q0 46 -32 78 q-32 32 -78 32 q-46 0 -78.5 -32 Z" /><glyph glyph-name="uni2709" unicode="&#x2709;" d="M60 578 l1116 0 l0 -60 l-558 -334 l-558 334 l0 60 ZM60 481 l338 -201 l-338 -243 l0 444 ZM1176 0 l-1116 0 l366 263 l192 -114 l192 114 l366 -263 ZM838 280 l338 201 l0 -444 l-338 243 Z" /><glyph glyph-name="uniF040" unicode="&#xf040;" d="M1619 414 l94 -94 l1341 0 l0 -78 l-1341 0 l-94 -94 l-39 39 l94 94 l-94 94 l39 39 ZM0 242 l0 78 l1341 0 l94 94 l39 -39 l-94 -94 l94 -94 l-39 -39 l-94 94 l-1341 0 Z" /><glyph glyph-name="uniF041" unicode="&#xf041;" d="M1556 422 l68 -39 l-37 -63 l1268 0 l0 -78 l-1313 0 l-58 -101 l-67 39 l139 242 ZM1371 422 l68 -39 l-140 -242 l-67 39 l35 62 l-1267 0 l0 78 l1312 0 l59 102 Z" /><glyph glyph-name="uniF042" unicode="&#xf042;" d="M1464 242 l0 78 l1361 0 l0 -78 l-1361 0 ZM1241 320 l0 -78 l-1241 0 l0 78 l1241 0 Z" /><glyph glyph-name="uniF043" unicode="&#xf043;" d="M275 -28 l370 0 l0 277 q0 27 -13 39 q-13 12 -43 12 l-34 0 q0 28 -12.5 41 q-12.5 13 -41.5 13 l-36 0 q0 28 -12.5 41 q-12.5 13 -41.5 13 l-36 0 l0 229 q0 58 -50 58 q-50 0 -50 -61 l0 -450 l-71 74 q-20 21 -42.5 29.5 q-22.5 8.5 -39.5 5.5 q-17 -3 -31.5 -9.5 q-14.5 -6.5 -22.5 -13.5 l-8 -6 l215 -292 ZM275 -82 l0 -161 l370 0 l0 161 l-370 0 ZM545 -142.5 q8 7.5 20 7.5 q12 0 19.5 -7.5 q7.5 -7.5 7.5 -19.5 q0 -12 -7.5 -20 q-7.5 -8 -19.5 -8 q-12 0 -20 8 q-8 8 -8 20 q0 12 8 19.5 ZM83 660 l158 0 l0 -55 l-158 0 l0 55 ZM409 660 l158 0 l0 -55 l-158 0 l0 55 ZM297 725 l0 158 l55 0 l0 -158 l-55 0 Z" /><glyph glyph-name="uniF044" unicode="&#xf044;" d="M177 126 l324 -154 l370 0 l0 277 q0 27 -13 39 q-13 12 -43 12 l-34 0 q0 28 -12.5 41 q-12.5 13 -41.5 13 l-36 0 q0 28 -12.5 41 q-12.5 13 -41.5 13 l-36 0 l0 229 q0 58 -50 58 q-50 0 -50 -61 l0 -478 l-201 45 q-30 6 -51.5 1 q-21.5 -5 -35.5 -17.5 q-14 -12.5 -22 -25.5 q-8 -13 -11 -23 l-3 -10 ZM501 -82 l0 -161 l370 0 l0 161 l-370 0 ZM553 814 l158 0 l0 -158 l-55 0 l0 103 l-103 0 l0 55 ZM218 15 l-158 0 l0 158 l55 0 l0 -103 l103 0 l0 -55 ZM771 -142.5 q8 7.5 20 7.5 q12 0 19.5 -7.5 q7.5 -7.5 7.5 -19.5 q0 -12 -7.5 -20 q-7.5 -8 -19.5 -8 q-12 0 -20 8 q-8 8 -8 20 q0 12 8 19.5 Z" /><glyph glyph-name="uniF045" unicode="&#xf045;" d="M370 665 l503 0 l0 -55 l-498 0 l0 -202 l36 0 q29 0 41.5 -13 q12.5 -13 12.5 -41 l36 0 q29 0 41.5 -13 q12.5 -13 12.5 -41 l34 0 q30 0 43 -12 q13 -12 13 -39 l0 -277 l-370 0 l-215 292 q3 3 8 7 q5 4 21.5 12 q16.5 8 33 10 q16.5 2 39 -6 q22.5 -8 42.5 -29 l71 -74 l0 450 q0 61 50 61 q35 0 45 -30 ZM275 -243 l0 161 l370 0 l0 -161 l-370 0 ZM87 637 l112 112 l39 -39 l-73 -73 l73 -73 l-39 -39 l-112 112 ZM584.5 -142.5 q-7.5 7.5 -19.5 7.5 q-12 0 -20 -7.5 q-8 -7.5 -8 -19.5 q0 -12 8 -20 q8 -8 20 -8 q12 0 19.5 8 q7.5 8 7.5 20 q0 12 -7.5 19.5 Z" /><glyph glyph-name="uniF046" unicode="&#xf046;" d="M892 -28 l-370 0 l-215 292 q3 3 8 7 q5 4 21.5 12 q16.5 8 33 10 q16.5 2 39 -6 q22.5 -8 42.5 -29 l71 -74 l0 426 l-492 0 l0 55 l497 0 q11 30 45 30 q50 0 50 -58 l0 -229 l36 0 q28 0 41 -13 q13 -13 13 -41 l36 0 q28 0 41 -13 q13 -13 13 -41 l34 0 q30 0 43 -12 q13 -12 13 -39 l0 -277 ZM522 -243 l0 161 l370 0 l0 -161 l-370 0 ZM816 637 l-112 -112 l-39 39 l73 73 l-73 73 l39 39 l112 -112 ZM831.5 -142.5 q-7.5 7.5 -19.5 7.5 q-12 0 -20 -7.5 q-8 -7.5 -8 -19.5 q0 -12 8 -20 q8 -8 20 -8 q12 0 19.5 8 q7.5 8 7.5 20 q0 12 -7.5 19.5 Z" /><glyph glyph-name="uniF047" unicode="&#xf047;" d="M866 510 l0 -634 l-55 0 l0 603 l-137 -79 l17 -31 q27 -48 -19 -73 l18 -32 q27 -46 -20 -73 l17 -30 q28 -48 -17 -74 l-239 -139 l-185 321 l145 332 q2 -1 5 -2 q3 -1 13 -6 q10 -5 17.5 -11 q7.5 -6 17.5 -16.5 q10 -10.5 13.5 -23.5 q3.5 -13 6 -30.5 q2.5 -17.5 -5.5 -38.5 l-29 -99 l391 226 q52 29 78 -13 q25 -43 -26 -73 l-6 -4 ZM60 162 l140 81 l184 -321 l-139 -81 l-185 321 ZM726 690 l112 112 l112 -112 l-39 -39 l-73 73 l-73 -73 l-39 39 ZM295.5 -27.5 q-7.5 7.5 -19.5 7.5 q-12 0 -20 -7.5 q-8 -7.5 -8 -19.5 q0 -12 8 -20 q8 -8 20 -8 q12 0 19.5 8 q7.5 8 7.5 20 q0 12 -7.5 19.5 Z" /><glyph glyph-name="uniF048" unicode="&#xf048;" d="M245 137 l186 321 l360 40 q1 -4 2 -10.5 q1 -6.5 -0.5 -24.5 q-1.5 -18 -7.5 -33.5 q-6 -15.5 -24.5 -31 q-18.5 -15.5 -46.5 -22.5 l-100 -24 l332 -192 l0 603 l55 0 l0 -635 l4 -2 q51 -30 27 -74 q-25 -43 -76 -14 l-198 115 l-18 -30 q-28 -48 -73 -21 l-18 -31 q-27 -46 -74 -19 l-17 -30 q-28 -48 -73 -22 l-240 137 ZM245 565 l140 -80 l-186 -320 l-139 80 l185 320 ZM973 -163 l-112 112 l39 39 l73 -73 l73 73 l39 -39 l-112 -112 ZM191.5 293.5 q-7.5 7.5 -19.5 7.5 q-12 0 -20 -7.5 q-8 -7.5 -8 -19.5 q0 -12 8 -20 q8 -8 20 -8 q12 0 19.5 8 q7.5 8 7.5 20 q0 12 -7.5 19.5 Z" /><glyph glyph-name="uniF400" unicode="&#xf400;" d="M-246 567 l54 158 l89 0 l-74 -158 l-69 0 Z" /><glyph glyph-name="uniF401" unicode="&#xf401;" d="M-279 747 l67 129 l92 0 l-88 -129 l-71 0 Z" /><glyph glyph-name="uniF406" unicode="&#xf406;" d="M273 879 l76 0 q0 -73 -40 -112 q-40 -39 -109 -39 q-69 0 -109.5 39 q-40.5 39 -40.5 112 l76 0 q4 -76 74 -76 q69 0 73 76 Z" /><glyph glyph-name="uniF407" unicode="&#xf407;" d="M123 -69 l16 94 l55 -3 l-11 -45 q46 -16 46 -74 q0 -39 -26.5 -60.5 q-26.5 -21.5 -66.5 -21.5 q-21 0 -30 3 l11 52 q4 -1 13 -1 q31 0 31 28 q0 28 -38 28 Z" /><glyph glyph-name="uniF408" unicode="&#xf408;" d="M168 879 l71 0 l117 -142 l-84 0 l-68 92 l-68 -92 l-84 0 l116 142 Z" /><glyph glyph-name="uniF409" unicode="&#xf409;" d="M198 -64 l0 -96 l-96 -83 l0 179 l96 0 Z" /><glyph glyph-name="uniF40A" unicode="&#xf40a;" d="M135 690 l0 -136 l-93 -83 l0 219 l93 0 Z" /><glyph glyph-name="uniF40B" unicode="&#xf40b;" d="M104 779 l0 90 l90 0 l0 -90 l-90 0 Z" /><glyph glyph-name="uniF40C" unicode="&#xf40c;" d="M67 800 q0 45 29.5 72 q29.5 27 75.5 27 q47 0 76.5 -27 q29.5 -27 29.5 -72 q0 -44 -30 -71 q-30 -27 -76 -27 q-46 0 -75.5 27 q-29.5 27 -29.5 71 ZM119 800 q0 -23 14.5 -35 q14.5 -12 38.5 -12 q53 0 53 47 q0 47 -53 47 q-53 0 -53 -47 Z" /><glyph glyph-name="uniF40D" unicode="&#xf40d;" d="M246 762 q-20 0 -52 14.5 q-32 14.5 -50 14.5 q-29 0 -49 -28 l-46 37 q39 55 95 55 q19 0 51.5 -14.5 q32.5 -14.5 51.5 -14.5 q26 0 47 28 l46 -37 q-40 -55 -94 -55 Z" /><glyph glyph-name="uniF40E" unicode="&#xf40e;" d="M191 45 l25 -45 q-46 -34 -46 -68 q0 -28 31 -28 q10 0 15 1 l10 -51 q-12 -4 -36 -4 q-37 0 -63.5 18.5 q-26.5 18.5 -26.5 57.5 q0 68 91 119 Z" /><glyph glyph-name="afii10017.var.accented" unicode="&#xf460;" d="M98 0 l-90 0 l192 690 l76 0 l193 -690 l-90 0 l-39 158 l-203 0 l-39 -158 ZM238 544 l-76 -308 l152 0 l-76 308 ZM204 747 l67 129 l92 0 l-88 -129 l-71 0 Z" /><glyph glyph-name="afii10022.var.accented" unicode="&#xf461;" d="M68 690 l337 0 l0 -78 l-251 0 l0 -216 l227 0 l0 -78 l-227 0 l0 -240 l251 0 l0 -78 l-337 0 l0 690 ZM192 747 l67 129 l92 0 l-88 -129 l-71 0 Z" /><glyph glyph-name="afii10026.var.accented" unicode="&#xf462;" d="M68 690 l86 0 l0 -491 l236 491 l75 0 l0 -690 l-86 0 l0 486 l-234 -486 l-77 0 l0 690 ZM227 747 l67 129 l92 0 l-88 -129 l-71 0 Z" /><glyph glyph-name="afii10032.var.accented" unicode="&#xf463;" d="M444 307 q0 -315 -202 -315 q-202 0 -202 315 l0 76 q0 315 202 315 q202 0 202 -315 l0 -76 ZM126 383 l0 -76 q0 -130 27 -183.5 q27 -53.5 89 -53.5 q62 0 89 53.5 q27 53.5 27 183.5 l0 76 q0 130 -27 183.5 q-27 53.5 -89 53.5 q-62 0 -89 -53.5 q-27 -53.5 -27 -183.5 ZM201 747 l67 129 l92 0 l-88 -129 l-71 0 Z" /><glyph glyph-name="afii10037.var.accented" unicode="&#xf464;" d="M368 690 l90 0 l-182 -574 q-23 -72 -58 -98 q-35 -26 -110 -26 l0 79 q44 0 62 14.5 q18 14.5 32 69.5 l-182 535 l95 0 l131 -416 l122 416 ZM200 747 l67 129 l92 0 l-88 -129 l-71 0 Z" /><glyph glyph-name="afii10045.var.accented" unicode="&#xf465;" d="M68 690 l86 0 l0 -273 l80 0 q98 0 144.5 -61.5 q46.5 -61.5 46.5 -147.5 q0 -86 -46.5 -147 q-46.5 -61 -144.5 -61 l-166 0 l0 690 ZM234 339 l-80 0 l0 -261 l80 0 q105 0 105 130 q0 131 -105 131 ZM574 690 l0 -690 l-86 0 l0 690 l86 0 ZM267 747 l67 129 l92 0 l-88 -129 l-71 0 Z" /><glyph glyph-name="afii10047.var.accented" unicode="&#xf466;" d="M147 386 l193 0 q-1 127 -28.5 180.5 q-27.5 53.5 -87.5 53.5 q-49 0 -76.5 -32.5 q-27.5 -32.5 -42.5 -112.5 l-81 0 q27 223 200 223 q202 0 202 -315 l0 -76 q0 -315 -202 -315 q-175 0 -199 223 l80 0 q14 -77 41.5 -111 q27.5 -34 77.5 -34 q62 0 89 54 q27 54 27 183 l0 1 l-193 0 l0 78 ZM175 747 l67 129 l92 0 l-88 -129 l-71 0 Z" /><glyph glyph-name="afii10048.var.accented" unicode="&#xf467;" d="M594 307 q0 -315 -185 -315 q-185 0 -185 315 l0 11 l-70 0 l0 -318 l-86 0 l0 690 l86 0 l0 -294 l70 0 q4 157 50 229.5 q46 72.5 135 72.5 q185 0 185 -315 l0 -76 ZM310 383 l0 -76 q0 -129 22 -183 q22 -54 77 -54 q55 0 77 54 q22 54 22 183 l0 76 q0 129 -22 183 q-22 54 -77 54 q-55 0 -77 -54 q-22 -54 -22 -183 ZM225 747 l67 129 l92 0 l-88 -129 l-71 0 Z" /><glyph glyph-name="afii10049.var.accented" unicode="&#xf468;" d="M108 0 l-92 0 l141 303 q-117 38 -117 187 q0 99 52.5 149.5 q52.5 50.5 150.5 50.5 l178 0 l0 -690 l-86 0 l0 291 l-96 0 l-131 -291 ZM243 369 l92 0 l0 243 l-92 0 q-65 0 -91 -28 q-26 -28 -26 -94 q0 -65 26 -93 q26 -28 91 -28 ZM207 747 l67 129 l92 0 l-88 -129 l-71 0 Z" /><glyph glyph-name="afii10023.var.accented" unicode="&#xf469;" d="M68 690 l337 0 l0 -78 l-251 0 l0 -216 l227 0 l0 -78 l-227 0 l0 -240 l251 0 l0 -78 l-337 0 l0 690 ZM195 881 l67 129 l92 0 l-88 -129 l-71 0 ZM276 779 l0 90 l90 0 l0 -90 l-90 0 ZM102 779 l0 90 l90 0 l0 -90 l-90 0 Z" /><glyph glyph-name="afii10065.var.accented" unicode="&#xf46a;" d="M32 146 q0 143 156 143 l79 0 l0 58 q0 51 -16.5 69 q-16.5 18 -60.5 18 q-37 0 -54.5 -9 q-17.5 -9 -32.5 -39 l-61 39 q21 44 55.5 63.5 q34.5 19.5 93.5 19.5 q80 0 118 -37 q38 -37 38 -124 l0 -347 l-80 0 l0 49 q-12 -28 -33 -42.5 q-21 -14.5 -60 -14.5 q-69 0 -105.5 40.5 q-36.5 40.5 -36.5 113.5 ZM267 192 l0 29 l-74 0 q-43 0 -62 -19 q-19 -19 -19 -58 q0 -78 75 -78 q39 0 59.5 25 q20.5 25 20.5 101 ZM155 567 l54 158 l89 0 l-74 -158 l-69 0 Z" /><glyph glyph-name="afii10070.var.accented" unicode="&#xf46b;" d="M289 116 l59 -41 q-38 -83 -143 -83 q-85 0 -129 60 q-44 60 -44 166 l0 66 q0 107 41.5 165.5 q41.5 58.5 118.5 58.5 q82 0 121.5 -54 q39.5 -54 39.5 -170 l0 -52 l-241 0 l0 -14 q0 -154 92 -154 q33 0 50.5 12 q17.5 12 34.5 40 ZM254.5 407 q-18.5 29 -62.5 29 q-44 0 -62 -32.5 q-18 -32.5 -18 -101.5 l161 0 q0 76 -18.5 105 ZM155 567 l54 158 l89 0 l-74 -158 l-69 0 Z" /><glyph glyph-name="afii10074.var.accented" unicode="&#xf46c;" d="M132 500 l0 -342 l176 342 l77 0 l0 -500 l-80 0 l0 349 l-178 -349 l-75 0 l0 500 l80 0 ZM180 567 l54 158 l89 0 l-74 -158 l-69 0 Z" /><glyph glyph-name="afii10080.var.accented" unicode="&#xf46d;" d="M369 284 l0 -66 q0 -108 -44 -167 q-44 -59 -125 -59 q-81 0 -124.5 59 q-43.5 59 -43.5 167 l0 66 q0 107 43.5 165.5 q43.5 58.5 124.5 58.5 q81 0 125 -58.5 q44 -58.5 44 -165.5 ZM200 64 q89 0 89 154 l0 66 q0 75 -20 113.5 q-20 38.5 -69 38.5 q-49 0 -68.5 -38 q-19.5 -38 -19.5 -114 l0 -66 q0 -154 88 -154 ZM152 567 l54 158 l89 0 l-74 -158 l-69 0 Z" /><glyph glyph-name="afii10085.var.accented" unicode="&#xf46e;" d="M155 -19 l4 14 l-155 505 l86 0 l93 -322 l15 -53 l93 375 l83 0 l-138 -516 q-27 -99 -60.5 -136.5 q-33.5 -37.5 -117.5 -37.5 l0 78 q39 0 60 18 q21 18 37 75 ZM155 567 l54 158 l89 0 l-74 -158 l-69 0 Z" /><glyph glyph-name="afii10093.var.accented" unicode="&#xf46f;" d="M52 500 l80 0 l0 -192 l52 0 q164 0 164 -151 q0 -71 -35.5 -114 q-35.5 -43 -108.5 -43 l-152 0 l0 500 ZM397 500 l74 0 l0 -500 l-74 0 l0 500 ZM132 236 l0 -164 l53 0 q80 0 80 86 q0 42 -19.5 60 q-19.5 18 -64.5 18 l-49 0 ZM211 567 l54 158 l89 0 l-74 -158 l-69 0 Z" /><glyph glyph-name="afii10095.var.accented" unicode="&#xf470;" d="M116 218 l0 72 l144 0 q-2 69 -25.5 107.5 q-23.5 38.5 -69.5 38.5 q-51 0 -80 -47 l-61 42 q44 77 141 77 q82 0 128.5 -59 q46.5 -59 46.5 -165 l0 -66 q0 -107 -43.5 -166.5 q-43.5 -59.5 -131.5 -59.5 q-107 0 -141 83 l59 41 q29 -52 82 -52 q95 0 95 154 l-144 0 ZM135 567 l54 158 l89 0 l-74 -158 l-69 0 Z" /><glyph glyph-name="afii10096.var.accented" unicode="&#xf471;" d="M506 284 l0 -66 q0 -226 -156 -226 q-75 0 -115 60 q-40 60 -40 166 l-63 0 l0 -218 l-80 0 l0 500 l80 0 l0 -210 l63 0 q0 102 41.5 160 q41.5 58 113.5 58 q77 0 116.5 -58 q39.5 -58 39.5 -166 ZM350 64 q42 0 59 37.5 q17 37.5 17 116.5 l0 66 q0 78 -17 115 q-17 37 -59 37 q-41 0 -58.5 -37.5 q-17.5 -37.5 -17.5 -114.5 l0 -66 q0 -79 17.5 -116.5 q17.5 -37.5 58.5 -37.5 ZM207 567 l54 158 l89 0 l-74 -158 l-69 0 Z" /><glyph glyph-name="afii10097.var.accented" unicode="&#xf472;" d="M352 0 l-80 0 l0 192 l-60 0 l-96 -192 l-88 0 l105 203 q-91 34 -91 149 q0 62 36.5 105 q36.5 43 116.5 43 l157 0 l0 -500 ZM272 264 l0 164 l-67 0 q-83 0 -83 -76 q0 -88 95 -88 l55 0 ZM178 567 l54 158 l89 0 l-74 -158 l-69 0 Z" /><glyph glyph-name="afii10071.var.accented" unicode="&#xf473;" d="M289 116 l59 -41 q-38 -83 -143 -83 q-85 0 -129 60 q-44 60 -44 166 l0 66 q0 107 41.5 165.5 q41.5 58.5 118.5 58.5 q82 0 121.5 -54 q39.5 -54 39.5 -170 l0 -52 l-241 0 l0 -14 q0 -154 92 -154 q33 0 50.5 12 q17.5 12 34.5 40 ZM254.5 407 q-18.5 29 -62.5 29 q-44 0 -62 -32.5 q-18 -32.5 -18 -101.5 l161 0 q0 76 -18.5 105 ZM157 717 l54 158 l89 0 l-74 -158 l-69 0 ZM76 600 l0 90 l88 0 l0 -90 l-88 0 ZM230 600 l0 90 l88 0 l0 -90 l-88 0 Z" /><glyph glyph-name="dollar.fitted" unicode="&#xf5f5;" d="M192 -116 l0 111 q-103 15 -156 110 l68 46 q42 -62 88 -76 l0 243 q-146 49 -146 194 q0 70 37 121 q37 51 109 62 l0 117 l68 0 l0 -116 q100 -11 153 -111 l-65 -44 q-38 65 -88 75 l0 -235 q80 -24 122 -70.5 q42 -46.5 42 -125.5 q0 -73 -40 -128.5 q-40 -55.5 -124 -63.5 l0 -109 l-68 0 ZM339 181 q0 41 -16.5 68.5 q-16.5 27.5 -62.5 46.5 l0 -225 q79 12 79 110 ZM132 512 q0 -76 60 -106 l0 209 q-60 -21 -60 -103 Z" /><glyph glyph-name="Euro.fitted" unicode="&#xf5f6;" d="M4 381 l0 78 l66 0 q24 239 199 239 q173 0 200 -223 l-81 0 q-15 80 -42.5 112.5 q-27.5 32.5 -76.5 32.5 q-51 0 -78.5 -37.5 q-27.5 -37.5 -34.5 -123.5 l144 0 l0 -78 l-147 0 l0 -72 l147 0 l0 -78 l-144 0 q7 -86 34 -123.5 q27 -37.5 79 -37.5 q50 0 77.5 34 q27.5 34 41.5 111 l80 0 q-24 -223 -199 -223 q-175 0 -199 239 l-66 0 l0 78 l63 0 l0 72 l-63 0 Z" /><glyph glyph-name="cent.fitted" unicode="&#xf5f7;" d="M170 -116 l0 112 q-66 13 -102 71.5 q-36 58.5 -36 150.5 l0 66 q0 93 36 150 q36 57 102 70 l0 118 l74 0 l0 -118 q69 -13 104 -73 l-61 -42 q-29 47 -80 47 q-47 0 -71 -40 q-24 -40 -24 -112 l0 -66 q0 -154 95 -154 q53 0 82 52 l59 -41 q-29 -67 -104 -80 l0 -111 l-74 0 Z" /><glyph glyph-name="sterling.fitted" unicode="&#xf5f8;" d="M70 0 l0 78 l57 0 l0 240 l-57 0 l0 78 l57 0 l0 17 q0 147 48.5 216 q48.5 69 128.5 69 q100 0 144 -86 l-69 -42 q-26 50 -75 50 q-49 0 -70 -46 q-21 -46 -21 -161 l0 -17 l124 0 l0 -78 l-124 0 l0 -240 l219 0 l0 -78 l-362 0 Z" /><glyph glyph-name="yen.fitted" unicode="&#xf5f9;" d="M82 146 l0 78 l99 0 l0 72 l-99 0 l0 78 l66 0 l-132 316 l98 0 l110 -290 l111 290 l98 0 l-133 -316 l67 0 l0 -78 l-100 0 l0 -72 l100 0 l0 -78 l-100 0 l0 -146 l-86 0 l0 146 l-99 0 Z" /><glyph glyph-name="florin.fitted" unicode="&#xf5fa;" d="M30 500 l50 0 l0 36 q0 81 29 117.5 q29 36.5 100 36.5 l20 0 l0 -78 l-17 0 q-30 0 -39.5 -17 q-9.5 -17 -9.5 -63 l0 -32 l66 0 l0 -78 l-66 0 l0 -458 q0 -79 -34 -116.5 q-34 -37.5 -112 -37.5 l0 78 q36 0 49.5 21 q13.5 21 13.5 75 l0 438 l-50 0 l0 78 Z" /><glyph glyph-name="uni20B4.fitted" unicode="&#xf5fb;" d="M36 236 l0 80 l401 0 l0 -80 l-279 0 q-6 -24 -6 -55 q0 -111 89 -111 q35 0 55.5 16.5 q20.5 16.5 51.5 61.5 l68 -41 q-39 -59 -77.5 -87 q-38.5 -28 -97.5 -28 q-86 0 -130.5 56 q-44.5 56 -44.5 131 q0 17 5 57 l-35 0 ZM36 376 l0 80 l276 0 q8 24 8 56 q0 108 -79 108 q-24 0 -44 -12 q-20 -12 -28 -22 q-8 -10 -24 -34 q-3 -5 -5 -7 l-64 40 q59 113 162 113 q85 0 126.5 -52.5 q41.5 -52.5 41.5 -133.5 q0 -28 -6 -56 l37 0 l0 -80 l-401 0 Z" /><glyph glyph-name="uni20BD.fitted" unicode="&#xf5fc;" d="M5 133 l0 78 l74 0 l0 52 l-74 0 l0 78 l74 0 l0 349 l110 0 q95 0 148 -56.5 q53 -56.5 53 -157.5 q0 -100 -52.5 -156.5 q-52.5 -56.5 -148.5 -56.5 l-24 0 l0 -52 l81 0 l0 -78 l-81 0 l0 -133 l-86 0 l0 133 l-74 0 ZM165 341 l24 0 q63 0 89 34 q26 34 26 101 q0 68 -26 102 q-26 34 -89 34 l-24 0 l0 -271 Z" /><glyph glyph-name="uni20B8.fitted" unicode="&#xf5fd;" d="M2 560 l409 0 l0 -78 l-162 0 l0 -482 l-86 0 l0 482 l-161 0 l0 78 ZM2 690 l409 0 l0 -78 l-409 0 l0 78 Z" /><glyph glyph-name="currency.fitted" unicode="&#xf5fe;" d="M56 366 q0 64 19 108 l-51 68 l64 47 l36 -49 q34 26 82 26 q47 0 82 -26 l36 49 l64 -47 l-51 -68 q19 -47 19 -108 q0 -64 -20 -110 l52 -68 l-63 -48 l-38 51 q-34 -25 -81 -25 q-49 0 -81 25 l-38 -51 l-63 48 l51 68 q-19 48 -19 110 ZM206 483 q-64 0 -64 -117 q0 -117 64 -117 q64 0 64 117 q0 117 -64 117 Z" /><glyph glyph-name="uniF639" unicode="&#xf639;" d="M389 515 l0 -340 q0 -90 -46.5 -136.5 q-46.5 -46.5 -114.5 -46.5 q-68 0 -114 46.5 q-46 46.5 -46 136.5 l0 340 q0 90 46 136.5 q46 46.5 114 46.5 q68 0 114.5 -46.5 q46.5 -46.5 46.5 -136.5 ZM303 515 q0 105 -75 105 q-75 0 -75 -105 l0 -340 q0 -105 75 -105 q75 0 75 105 l0 340 Z" /><glyph glyph-name="uniF63A" unicode="&#xf63a;" d="M352 78 l0 -78 l-328 0 l0 72 l184 281 q60 92 60 164 q0 50 -19.5 77 q-19.5 27 -55.5 27 q-35 0 -56 -28 q-21 -28 -22 -80 l-82 0 q0 83 46.5 134 q46.5 51 114.5 51 q71 0 115.5 -49.5 q44.5 -49.5 44.5 -131.5 q0 -42 -14.5 -85 q-14.5 -43 -26.5 -64.5 q-12 -21.5 -36 -59.5 l-146 -230 l221 0 Z" /><glyph glyph-name="uniF63B" unicode="&#xf63b;" d="M130 317 l0 78 l36 0 q48 0 68.5 30.5 q20.5 30.5 20.5 89.5 q0 46 -19.5 76 q-19.5 30 -54.5 30 q-72 0 -77 -99 l-83 0 q0 82 46.5 129 q46.5 47 113.5 47 q71 0 115.5 -49 q44.5 -49 44.5 -134 q0 -110 -79 -157 q87 -45 87 -170 q0 -88 -44.5 -142 q-44.5 -54 -118.5 -54 q-78 0 -122 48 q-44 48 -50 133 l84 0 q10 -103 84 -103 q81 0 81 118 q0 129 -97 129 l-36 0 Z" /><glyph glyph-name="uniF63C" unicode="&#xf63c;" d="M205 690 l85 0 l-179 -500 l137 0 l0 203 l86 0 l0 -203 l48 0 l0 -78 l-48 0 l0 -112 l-86 0 l0 112 l-236 0 l0 63 l193 515 Z" /><glyph glyph-name="uniF63D" unicode="&#xf63d;" d="M200 382 q-40 0 -66 -51 l-79 0 l0 359 l284 0 l0 -86 l-202 0 l0 -177 q32 41 85 41 q68 0 104 -64.5 q36 -64.5 36 -188.5 q0 -108 -42 -165.5 q-42 -57.5 -122 -57.5 q-64 0 -107.5 49 q-43.5 49 -48.5 121 l84 0 q17 -92 77 -92 q37 0 55 33.5 q18 33.5 18 111.5 q0 85 -17 126 q-17 41 -59 41 Z" /><glyph glyph-name="uniF63E" unicode="&#xf63e;" d="M272 690 l-105 -299 q15 9 40 9 q65 0 103 -54.5 q38 -54.5 38 -147.5 q0 -97 -44 -151.5 q-44 -54.5 -117 -54.5 q-72 0 -116.5 52.5 q-44.5 52.5 -44.5 145.5 q0 50 38 164 l114 336 l94 0 ZM112 198 q0 -60 19.5 -94 q19.5 -34 55.5 -34 q36 0 56 34.5 q20 34.5 20 93.5 q0 59 -20 93.5 q-20 34.5 -56 34.5 q-36 0 -55.5 -34.5 q-19.5 -34.5 -19.5 -93.5 Z" /><glyph glyph-name="uniF63F" unicode="&#xf63f;" d="M104 491 l-78 0 l0 199 l314 0 l0 -78 l-167 -612 l-89 0 l168 612 l-148 0 l0 -121 Z" /><glyph glyph-name="uniF640" unicode="&#xf640;" d="M36 194 q0 55 24.5 100 q24.5 45 57.5 64 q-33 21 -53.5 61.5 q-20.5 40.5 -20.5 88.5 q0 89 47.5 139.5 q47.5 50.5 114.5 50.5 q68 0 115 -50.5 q47 -50.5 47 -139.5 q0 -48 -21 -88.5 q-21 -40.5 -53 -61.5 q34 -18 58 -63 q24 -45 24 -101 q0 -94 -50 -148 q-50 -54 -120 -54 q-70 0 -120 54 q-50 54 -50 148 ZM116 194 q0 -57 25 -90.5 q25 -33.5 65 -33.5 q39 0 65 33.5 q26 33.5 26 90.5 q0 60 -28 91.5 q-28 31.5 -63 31.5 q-36 0 -63 -31.5 q-27 -31.5 -27 -91.5 ZM122 508 q0 -53 24 -83.5 q24 -30.5 60 -30.5 q36 0 59.5 30.5 q23.5 30.5 23.5 83.5 q0 52 -23.5 82 q-23.5 30 -59.5 30 q-37 0 -60.5 -30 q-23.5 -30 -23.5 -82 Z" /><glyph glyph-name="uniF641" unicode="&#xf641;" d="M98 0 l105 299 q-15 -9 -40 -9 q-65 0 -103 54.5 q-38 54.5 -38 147.5 q0 97 44 151.5 q44 54.5 117 54.5 q71 0 116 -53.5 q45 -53.5 45 -141.5 q0 -53 -38 -167 l-114 -336 l-94 0 ZM258 492 q0 60 -19.5 94 q-19.5 34 -55.5 34 q-36 0 -56 -34.5 q-20 -34.5 -20 -93.5 q0 -59 20 -93.5 q20 -34.5 56 -34.5 q36 0 55.5 34.5 q19.5 34.5 19.5 93.5 Z" /><glyph glyph-name="uniF6BA" unicode="&#xf6ba;" d="M24 309 l0 72 l211 0 l0 -72 l-211 0 Z" /><glyph glyph-name="uniF6BB" unicode="&#xf6bb;" d="M48 309 l0 72 l315 0 l0 -72 l-315 0 Z" /><glyph glyph-name="uniF6BC" unicode="&#xf6bc;" d="M16 309 l0 72 l505 0 l0 -72 l-505 0 Z" /><glyph glyph-name="uniF6C3" unicode="&#xf6c3;" d="M177 -64 l0 -96 l-96 -83 l0 179 l96 0 Z" /><glyph glyph-name="uniF6C9" unicode="&#xf6c9;" d="M103 747 l67 129 l92 0 l-88 -129 l-71 0 Z" /><glyph glyph-name="uniF6CA" unicode="&#xf6ca;" d="M237 737 l-71 0 l-116 142 l84 0 l68 -92 l68 92 l84 0 l-117 -142 Z" /><glyph glyph-name="uniF6CB" unicode="&#xf6cb;" d="M233 779 l0 90 l90 0 l0 -90 l-90 0 ZM59 779 l0 90 l90 0 l0 -90 l-90 0 Z" /><glyph glyph-name="uniF6CE" unicode="&#xf6ce;" d="M162 876 l67 -129 l-71 0 l-88 129 l92 0 Z" /><glyph glyph-name="uniF6CF" unicode="&#xf6cf;" d="M76 747 l64 129 l92 0 l-85 -129 l-71 0 ZM209 747 l74 129 l93 0 l-96 -129 l-71 0 Z" /><glyph glyph-name="uniF6D0" unicode="&#xf6d0;" d="M66 768 l0 72 l251 0 l0 -72 l-251 0 Z" /><glyph glyph-name="uniF6D1" unicode="&#xf6d1;" d="M263 879 l82 0 q0 -142 -146 -142 q-146 0 -146 142 l82 0 q0 -80 64 -80 q64 0 64 80 Z" /><glyph glyph-name="uniF6D4" unicode="&#xf6d4;" d="M221 690 l75 0 q0 -57 -36.5 -87.5 q-36.5 -30.5 -94.5 -30.5 q-59 0 -95.5 30.5 q-36.5 30.5 -36.5 87.5 l76 0 q0 -60 56 -60 q56 0 56 60 Z" /><glyph glyph-name="uniF6DC" unicode="&#xf6dc;" d="M195 690 l0 -690 l-86 0 l0 591 l-79 -71 l0 94 l79 76 l86 0 Z" /><glyph glyph-name="fi" unicode="&#xfb01;" d="M274 0 l0 428 l-126 0 l0 -428 l-80 0 l0 428 l-51 0 l0 72 l51 0 l0 36 q0 81 27.5 117.5 q27.5 36.5 98.5 36.5 l24 0 l0 -76 l-19 0 q-32 0 -41.5 -19.5 q-9.5 -19.5 -9.5 -72.5 l0 -22 l206 0 l0 -500 l-80 0 Z" /><glyph glyph-name="fl" unicode="&#xfb02;" d="M277 154 l0 460 l-79 0 q-32 0 -41.5 -19.5 q-9.5 -19.5 -9.5 -72.5 l0 -22 l70 0 l0 -72 l-70 0 l0 -428 l-80 0 l0 428 l-51 0 l0 72 l51 0 l0 36 q0 81 27.5 117.5 q27.5 36.5 98.5 36.5 l164 0 l0 -516 q0 -23 0.5 -32 q0.5 -9 3 -26 q2.5 -17 9 -23.5 q6.5 -6.5 18.5 -12.5 q12 -6 31 -6 l0 -74 q-79 0 -110.5 36.5 q-31.5 36.5 -31.5 117.5 Z" /><glyph glyph-name="uniFEFF" unicode="&#xfeff;" d="" /><glyph glyph-name="uniF4D3" unicode="&#x1f4d3;" d="M60 60 l0 815 q0 25 18 43 q18 18 43 18 l510 0 q25 0 43 -18 q18 -18 18 -43 l0 -815 q0 -25 -18 -42.5 q-18 -17.5 -43 -17.5 l-510 0 q-25 0 -43 17.5 q-18 17.5 -18 42.5 ZM346 95 q-12 -12 -12 -29 q0 -17 12 -29 q12 -12 30 -12 q17 0 29 12 q12 12 12 29 q0 17 -12 29 q-12 12 -29 12 q-18 0 -30 -12 ZM648 823 l-544 0 l0 -691 l544 0 l0 691 ZM357 879 q0 -7 5.5 -12.5 q5.5 -5.5 12.5 -5.5 q7 0 12.5 5.5 q5.5 5.5 5.5 12.5 q0 17 -18 17 q-18 0 -18 -17 Z" /><glyph glyph-name="uniF4F1" unicode="&#x1f4f1;" d="M60 60 l0 715 q0 25 18 43 q18 18 43 18 l310 0 q25 0 43 -18 q18 -18 18 -43 l0 -715 q0 -25 -18 -42.5 q-18 -17.5 -43 -17.5 l-310 0 q-25 0 -43 17.5 q-18 17.5 -18 42.5 ZM246 95 q-12 -12 -12 -29 q0 -17 12 -29 q12 -12 30 -12 q17 0 29 12 q12 12 12 29 q0 17 -12 29 q-12 12 -29 12 q-18 0 -30 -12 ZM448 723 l-344 0 l0 -591 l344 0 l0 591 ZM323 790 l-94 0 q-11 0 -11 -12 q0 -12 11 -12 l94 0 q11 0 11 11 q0 13 -11 13 Z" /></font>
</defs>
</svg>
