<?xml version="1.0" standalone="no"?><!DOCTYPE svg PUBLIC "-//W3C//DTD SVG 1.1//EN" "http://www.w3.org/Graphics/SVG/1.1/DTD/svg11.dtd" ><svg xmlns="http://www.w3.org/2000/svg"><metadata></metadata><defs><font id="com.myfonts.latinotype.sana-sans.medium-italic.wfkit2.hCyN" horiz-adv-x="1498"><font-face font-family="" font-weight="400" font-stretch="normal" units-per-em="1000" panose-1="0 0 6 0 0 0 0 0 0 0" ascent="760" descent="-240" x-height="0" bbox="-226 -253 1391 964" underline-thickness="50" underline-position="-75" unicode-range="U+0020-fb02" /><missing-glyph horiz-adv-x="659" d="M199 720 l445 0 l-153 -720 l-445 0 l153 720 ZM424 81 l118 558 l-276 0 l-118 -558 l276 0 Z" /><glyph glyph-name="space" unicode=" " d="" /><glyph glyph-name="exclam" unicode="!" d="M85 219 l57 314 l42 180 l108 9 l3 -11 l-38 -179 l-87 -313 l-85 0 ZM90 -7 q-24 0 -38.5 15 q-14.5 15 -14.5 38 q0 33 25 57 q25 24 58 24 q23 0 37.5 -14.5 q14.5 -14.5 14.5 -37.5 q0 -33 -25.5 -57.5 q-25.5 -24.5 -56.5 -24.5 Z" /><glyph glyph-name="quotedbl" unicode="&quot;" d="M68 460 l41 230 l89 0 l-66 -230 l-64 0 ZM220 460 l49 230 l89 0 l-73 -230 l-65 0 Z" /><glyph glyph-name="numbersign" unicode="#" d="M622 317 l-109 0 l-33 -110 l115 0 l-21 -69 l-115 0 l-42 -138 l-85 0 l42 138 l-138 0 l-42 -138 l-84 0 l42 138 l-119 0 l19 69 l121 0 l33 110 l-126 0 l20 69 l127 0 l41 135 l85 0 l-41 -135 l138 0 l41 135 l84 0 l-41 -135 l110 0 l-22 -69 ZM395 207 l34 110 l-138 0 l-34 -110 l138 0 Z" /><glyph glyph-name="dollar" unicode="$" d="M262 576 l30 141 l89 0 l-30 -141 l-89 0 ZM190 -10 q-18 0 -39 4 q-21 4 -46 13 q-25 9 -37.5 14 q-12.5 5 -40.5 18 q-28 13 -29 13 l32 74 q118 -59 163 -59 q45 0 83.5 24.5 q38.5 24.5 38.5 62.5 q0 25 -24.5 43 q-24.5 18 -60 30.5 q-35.5 12.5 -71 27.5 q-35.5 15 -60 43.5 q-24.5 28.5 -24.5 69.5 q0 76 64.5 122.5 q64.5 46.5 170.5 46.5 q57 0 144 -28 l-27 -74 q-24 9 -67 18 q-43 9 -60 9 q-56 0 -92.5 -23 q-36.5 -23 -36.5 -58 q0 -23 24.5 -42 q24.5 -19 60 -33.5 q35.5 -14.5 71 -31.5 q35.5 -17 60 -46 q24.5 -29 24.5 -67 q0 -69 -65.5 -120 q-65.5 -51 -155.5 -51 ZM100 -185 l30 140 l89 0 l-30 -140 l-89 0 Z" /><glyph glyph-name="percent" unicode="%" d="M209 -34 l-56 41 l405 537 l57 -42 l-406 -536 ZM154 225 q-56 0 -88.5 30.5 q-32.5 30.5 -32.5 82.5 q0 79 55 135.5 q55 56.5 135 56.5 q57 0 89.5 -30.5 q32.5 -30.5 32.5 -82.5 q0 -79 -55.5 -135.5 q-55.5 -56.5 -135.5 -56.5 ZM171 289 q41 0 68 35.5 q27 35.5 27 78.5 q0 29 -15 46 q-15 17 -43 17 q-42 0 -70 -35.5 q-28 -35.5 -28 -79.5 q0 -29 16 -45.5 q16 -16.5 45 -16.5 ZM558 -10 q-57 0 -89.5 30.5 q-32.5 30.5 -32.5 81.5 q0 81 55 137 q55 56 135 56 q57 0 89 -30.5 q32 -30.5 32 -81.5 q0 -79 -54.5 -136 q-54.5 -57 -134.5 -57 ZM575 54 q40 0 67 36 q27 36 27 79 q0 29 -15.5 45.5 q-15.5 16.5 -42.5 16.5 q-42 0 -69 -35.5 q-27 -35.5 -27 -79.5 q0 -29 15.5 -45.5 q15.5 -16.5 44.5 -16.5 Z" /><glyph glyph-name="ampersand" unicode="&amp;" d="M576 -49 q28 0 72 22 l25 -62 q-68 -28 -102 -28 q-66 -1 -127 68 l-65 77 q-84 -38 -169 -38 q-86 1 -131.5 57.5 q-45.5 56.5 -45.5 146.5 q0 130 74 218 q74 88 195 88 q69 0 103.5 -31 q34.5 -31 34.5 -82 q0 -107 -154 -141 l107 -125 q89 55 148.5 142.5 q59.5 87.5 59.5 184.5 q0 158 -215 204 l16 78 q282 -53 282 -277 q0 -111 -68 -217 q-68 -106 -173 -173 l56 -66 q40 -46 77 -46 ZM151 104.5 q29 -37.5 75 -37.5 q46 0 101 22 l-124 146 l16 46 q55 8 94.5 33 q39.5 25 39.5 62 q0 26 -19 40.5 q-19 14.5 -52 14.5 q-64 0 -112 -65.5 q-48 -65.5 -48 -164.5 q0 -59 29 -96.5 Z" /><glyph glyph-name="quotesingle" unicode="&#39;" d="M68 460 l39 230 l101 0 l-63 -230 l-77 0 Z" /><glyph glyph-name="parenleft" unicode="(" d="M124 -226 q-83 133 -83 325 q0 178 79.5 355 q79.5 177 210.5 302 l62 -37 q-119 -136 -186.5 -301.5 q-67.5 -165.5 -67.5 -329.5 q0 -152 59 -282 l-74 -32 Z" /><glyph glyph-name="parenright" unicode=")" d="M216 756 q83 -133 83 -325 q0 -178 -79.5 -355 q-79.5 -177 -210.5 -302 l-62 37 q119 136 186.5 301.5 q67.5 165.5 67.5 329.5 q0 152 -59 282 l74 32 Z" /><glyph glyph-name="asterisk" unicode="*" d="M138 336 l36 127 l-121 -71 l-23 65 l125 56 l-102 55 l52 66 l91 -71 l18 127 l75 0 l-36 -127 l121 71 l23 -65 l-125 -56 l102 -55 l-52 -66 l-90 71 l-18 -127 l-76 0 Z" /><glyph glyph-name="plus" unicode="+" d="M184 34 l41 196 l-184 0 l16 75 l179 0 l41 194 l84 0 l-42 -194 l183 0 l-17 -75 l-176 0 l-42 -196 l-83 0 Z" /><glyph glyph-name="comma" unicode="," d="M90 -137 l-50 12 q19 28 26.5 41 q7.5 13 15.5 33.5 q8 20.5 9 41.5 q-31 8 -31 51 q0 34 22 58 q22 24 55 24 q49 0 49 -49 q0 -48 -30 -107 q-30 -59 -66 -105 Z" /><glyph glyph-name="hyphen" unicode="-" d="M75 247 l16 76 l302 0 l-15 -76 l-303 0 Z" /><glyph glyph-name="period" unicode="." d="M89 -10 q-23 0 -36 13.5 q-13 13.5 -13 36.5 q0 35 22.5 59.5 q22.5 24.5 54.5 24.5 q23 0 36 -14 q13 -14 13 -38 q0 -34 -22.5 -58 q-22.5 -24 -54.5 -24 Z" /><glyph glyph-name="slash" unicode="/" d="M1 -49 l424 784 l78 -42 l-424 -780 l-78 38 Z" /><glyph glyph-name="zero" unicode="0" d="M251 -10 q-92 0 -146 56 q-54 56 -54 150 q0 140 95 237 q95 97 227 97 q93 0 146.5 -56 q53.5 -56 53.5 -149 q0 -141 -94.5 -238 q-94.5 -97 -227.5 -97 ZM273 75 q79 0 139 68.5 q60 68.5 60 161.5 q0 63 -32.5 101.5 q-32.5 38.5 -86.5 38.5 q-81 0 -141.5 -67.5 q-60.5 -67.5 -60.5 -161.5 q0 -63 33 -102 q33 -39 89 -39 Z" /><glyph glyph-name="one" unicode="1" d="M288 83 l133 0 l-29 -83 l-356 0 l19 83 l132 0 l73 346 l-140 0 l18 83 l207 9 l36 0 l-93 -438 Z" /><glyph glyph-name="two" unicode="2" d="M16 0 l14 68 q30 19 85 52.5 q55 33.5 84 51.5 q29 18 68.5 46.5 q39.5 28.5 59.5 49.5 q20 21 35 48 q15 27 15 54 q0 34 -21 53.5 q-21 19.5 -64 19.5 q-59 -3 -160 -29 l-19 79 q119 37 196 37 q79 0 123.5 -36.5 q44.5 -36.5 44.5 -100.5 q0 -169 -287 -308 l0 -1 l257 0 l-28 -84 l-403 0 Z" /><glyph glyph-name="three" unicode="3" d="M127 -145 q-47 0 -141 28 l25 82 q81 -28 123 -28 q71 0 118.5 41.5 q47.5 41.5 47.5 101.5 q0 43 -32.5 69 q-32.5 26 -88.5 26 l-46 0 l26 79 l41 0 q58 0 101 36.5 q43 36.5 43 86.5 q0 33 -21.5 51 q-21.5 18 -60.5 18 q-10 -1 -146 -25 l-18 73 q127 36 192 36 q70 0 111 -34 q41 -34 41 -91 q0 -65 -41 -114 q-41 -49 -104 -70 l-1 -3 q48 -11 77 -45 q29 -34 29 -83 q0 -103 -77.5 -169 q-77.5 -66 -197.5 -66 Z" /><glyph glyph-name="four" unicode="4" d="M350 -146 l-94 9 l29 138 l-282 0 l-1 80 l369 449 l97 -10 l-355 -434 l-1 -3 l191 0 l40 190 l95 0 l-40 -190 l91 0 l-27 -82 l-82 0 l-30 -147 Z" /><glyph glyph-name="five" unicode="5" d="M187 270 q15 1 40 1 q84 -1 132.5 -42.5 q48.5 -41.5 48.5 -111.5 q0 -116 -77.5 -189.5 q-77.5 -73.5 -200.5 -73.5 q-58 0 -153 35 l25 83 q107 -32 142 -32 q70 0 115 44 q45 44 45 114 q0 96 -146 96 q-36 0 -84 -2 l-1 3 l101 325 l306 0 l-20 -91 l-226 0 l-47 -159 Z" /><glyph glyph-name="six" unicode="6" d="M513 582 q-114 0 -206 -64.5 q-92 -64.5 -131 -171.5 q110 56 162 56 q66 0 107.5 -43 q41.5 -43 41.5 -112 q0 -108 -73 -182.5 q-73 -74.5 -182 -74.5 q-81 0 -127 55 q-46 55 -46 148 q0 120 58 227.5 q58 107.5 166 175.5 q108 68 240 68 l-10 -82 ZM307 324 q-20 0 -69 -17 q-49 -17 -81 -32 q-5 -35 -5 -64 q0 -64 26.5 -102 q26.5 -38 72.5 -38 q60 0 100.5 46 q40.5 46 40.5 113 q0 44 -21 69 q-21 25 -64 25 Z" /><glyph glyph-name="seven" unicode="7" d="M95 -141 l-92 29 l382 540 l0 1 l-42 -1 l-259 0 l21 92 l420 0 l-10 -70 l-420 -591 Z" /><glyph glyph-name="eight" unicode="8" d="M210 -10 q-82 0 -128 38.5 q-46 38.5 -46 103.5 q0 131 159 206 l1 3 q-30 15 -47 46.5 q-17 31.5 -17 70.5 q0 85 63.5 141.5 q63.5 56.5 162.5 56.5 q70 0 109 -35.5 q39 -35.5 39 -93.5 q0 -56 -35 -105.5 q-35 -49.5 -95 -76.5 l0 -2 q41 -20 64.5 -56 q23.5 -36 23.5 -81 q1 -95 -73.5 -155.5 q-74.5 -60.5 -180.5 -60.5 ZM308 372 q45 13 75 54.5 q30 41.5 30 87.5 q0 30 -19 47 q-19 17 -53 17 q-51 0 -82.5 -30 q-31.5 -30 -31.5 -79 q0 -74 81 -97 ZM227 71 q60 0 99 35 q39 35 39 89 q0 40 -25.5 65.5 q-25.5 25.5 -77.5 43.5 q-63 -26 -95.5 -62 q-32.5 -36 -32.5 -90 q0 -36 23.5 -58.5 q23.5 -22.5 69.5 -22.5 Z" /><glyph glyph-name="nine" unicode="9" d="M304 531 q79 0 124.5 -56.5 q45.5 -56.5 45.5 -151.5 q0 -118 -57 -224 q-57 -106 -165 -174 q-108 -68 -241 -68 l9 84 q115 0 206.5 63 q91.5 63 130.5 168 q-106 -54 -162 -54 q-65 0 -106.5 43 q-41.5 43 -41.5 113 q0 107 74 182 q74 75 183 75 ZM227 197 q37 0 149 51 q5 33 5 62 q0 63 -26 101 q-26 38 -73 38 q-59 0 -99.5 -46 q-40.5 -46 -40.5 -112 q0 -94 85 -94 Z" /><glyph glyph-name="colon" unicode=":" d="M165 368 q-52 0 -52 49 q0 36 23.5 59 q23.5 23 57.5 23 q24 0 38 -13.5 q14 -13.5 14 -36.5 q0 -35 -23.5 -58 q-23.5 -23 -57.5 -23 ZM85 -10 q-25 0 -39 13 q-14 13 -14 36 q0 36 23.5 59 q23.5 23 57.5 23 q25 0 39 -13.5 q14 -13.5 14 -36.5 q0 -35 -24 -58 q-24 -23 -57 -23 Z" /><glyph glyph-name="semicolon" unicode=";" d="M180 367 q-24 0 -38.5 13.5 q-14.5 13.5 -14.5 36.5 q0 35 23.5 58 q23.5 23 57.5 23 q25 0 39.5 -13.5 q14.5 -13.5 14.5 -36.5 q0 -35 -24 -58 q-24 -23 -58 -23 ZM77 -129 l-52 12 q55 70 57 108 q-36 8 -36 49 q0 36 23 58.5 q23 22.5 59 22.5 q58 0 52 -57 q-2 -42 -34.5 -98.5 q-32.5 -56.5 -68.5 -94.5 Z" /><glyph glyph-name="less" unicode="&lt;" d="M387 21 l-301 208 l14 58 l390 209 l-21 -92 l-271 -146 l0 -5 l210 -146 l-21 -86 Z" /><glyph glyph-name="equal" unicode="=" d="M134 338 l16 74 l474 0 l-17 -74 l-473 0 ZM92 142 l17 74 l474 0 l-17 -74 l-474 0 Z" /><glyph glyph-name="greater" unicode="&gt;" d="M4 21 l20 91 l272 146 l0 5 l-210 146 l21 87 l301 -209 l-14 -58 l-390 -208 Z" /><glyph glyph-name="question" unicode="?" d="M117 214 l10 43 q6 37 30.5 71.5 q24.5 34.5 54.5 60.5 q30 26 59.5 53 q29.5 27 49.5 60 q20 33 20 70 q0 67 -94 67 q-46 0 -122 -24 l-15 80 q89 32 153 32 q86 0 132.5 -36 q46.5 -36 46.5 -101 q0 -50 -21 -91.5 q-21 -41.5 -52 -71 q-31 -29.5 -63 -55.5 q-32 -26 -58.5 -57.5 q-26.5 -31.5 -33.5 -65.5 l-7 -35 l-90 0 ZM119 -11 q-24 0 -39 14.5 q-15 14.5 -15 37.5 q0 33 24.5 57 q24.5 24 57.5 24 q24 0 38.5 -15 q14.5 -15 14.5 -38 q0 -32 -25 -56 q-25 -24 -56 -24 Z" /><glyph glyph-name="at" unicode="@" d="M420 -176 q-161 0 -257.5 93.5 q-96.5 93.5 -96.5 261.5 q0 141 70.5 260 q70.5 119 196 189.5 q125.5 70.5 279.5 70.5 q151 0 243.5 -85 q92.5 -85 92.5 -234 q0 -146 -88 -248 q-88 -102 -232 -102 l-18 0 l-14 64 l-2 0 q-44 -67 -142 -67 q-57 0 -93 31.5 q-36 31.5 -36 81.5 q0 120 212 120 l50 0 l0 36 q0 96 -92 96 q-70 0 -132 -31 l-24 70 q80 41 168 41 q83 0 125.5 -44 q42.5 -44 42.5 -128 l0 -195 q78 3 138.5 83 q60.5 80 60.5 183 q0 118 -75 186.5 q-75 68.5 -196 68.5 q-96 0 -182 -36 q-86 -36 -146.5 -96 q-60.5 -60 -95.5 -139.5 q-35 -79.5 -35 -164.5 q0 -138 79.5 -215.5 q79.5 -77.5 209.5 -77.5 q111 0 200 39 l15 -65 q-38 -21 -100.5 -34 q-62.5 -13 -125.5 -13 ZM475 93 q49 0 79.5 26 q30.5 26 30.5 52 l0 35 l-45 0 q-134 0 -134 -58 q0 -25 19.5 -40 q19.5 -15 49.5 -15 Z" /><glyph glyph-name="A" unicode="a" d="M486 -10 l-21 193 l-281 0 l-99 -183 l-107 0 l384 690 l132 0 l91 -690 l-99 -10 ZM226 260 l231 0 l-27 232 q-1 3 -2.5 21.5 q-1.5 18.5 -3.5 43.5 q-2 25 -4 39 l-13 0 l-55 -105 l-126 -231 Z" /><glyph glyph-name="B" unicode="b" d="M300 -6 l-164 5 l-89 1 l145 691 l215 7 q88 0 139.5 -41.5 q51.5 -41.5 51.5 -108.5 q0 -61 -39 -115 q-39 -54 -98 -72 l-1 -5 q45 -8 77.5 -40 q32.5 -32 32.5 -81 q0 -101 -74.5 -167.5 q-74.5 -66.5 -195.5 -73.5 ZM231 384 l109 4 q62 2 107 42 q45 40 45 94 q0 43 -31 69.5 q-31 26.5 -81 24.5 l-101 -3 l-48 -231 ZM300 71 q76 7 122.5 49.5 q46.5 42.5 46.5 103.5 q0 43 -41 68 q-41 25 -98 23 l-116 -4 l-50 -235 l136 -5 Z" /><glyph glyph-name="C" unicode="c" d="M323 -10 q-131 0 -199 64 q-68 64 -68 184 q0 197 107 323.5 q107 126.5 278 138.5 q64 0 187 -25 l-19 -86 q-115 24 -177 27 q-119 -12 -194.5 -113 q-75.5 -101 -75.5 -252 q0 -84 45 -129.5 q45 -45.5 128 -45.5 q69 0 188 51 l-5 -90 q-124 -47 -195 -47 Z" /><glyph glyph-name="D" unicode="d" d="M245 -6 l-199 6 l148 691 l193 6 q131 0 208.5 -73 q77.5 -73 77.5 -195 q0 -196 -114 -312.5 q-114 -116.5 -314 -122.5 ZM262 75 q141 4 223 96 q82 92 82 242 q0 92 -55.5 149 q-55.5 57 -144.5 54 l-87 -2 l-113 -537 l95 -2 Z" /><glyph glyph-name="E" unicode="e" d="M582 610 l-303 0 l-48 -226 l252 0 l-16 -77 l-252 0 l-48 -227 l342 0 l-20 -80 l-443 0 l147 690 l406 0 l-17 -80 Z" /><glyph glyph-name="F" unicode="f" d="M584 609 l-303 0 l-48 -225 l256 0 l-17 -77 l-256 0 l-66 -307 l-103 0 l147 691 l407 0 l-17 -82 Z" /><glyph glyph-name="G" unicode="g" d="M325 -10 q-129 0 -198.5 64 q-69.5 64 -69.5 188 q0 121 47 223.5 q47 102.5 135 166 q88 63.5 200 68.5 q38 0 112.5 -10.5 q74.5 -10.5 99.5 -18.5 l-21 -87 q-23 7 -94 18 q-71 11 -106 12 q-113 -8 -191 -112 q-78 -104 -78 -251 q0 -86 45.5 -130.5 q45.5 -44.5 128.5 -44.5 q59 0 130 30 l45 201 l94 0 l-57 -260 q-127 -57 -222 -57 Z" /><glyph glyph-name="H" unicode="h" d="M615 691 l103 0 l-147 -691 l-103 0 l64 301 l-318 0 l-64 -301 l-104 0 l147 691 l104 0 l-66 -308 l318 0 l66 308 Z" /><glyph glyph-name="I" unicode="i" d="M302 690 l-147 -690 l-103 0 l146 690 l104 0 Z" /><glyph glyph-name="J" unicode="j" d="M418 690 l-114 -536 q-16 -76 -69 -120 q-53 -44 -131 -44 q-39 0 -73 9 q-34 9 -44 17 l36 78 q9 -5 35.5 -10.5 q26.5 -5.5 50.5 -5.5 q36 0 60.5 22.5 q24.5 22.5 32.5 61.5 l112 528 l104 0 Z" /><glyph glyph-name="K" unicode="k" d="M661 669 l-300 -320 l-1 -7 l207 -334 l-1 -8 l-99 -11 l-191 309 l-64 -5 l-62 -293 l-103 0 l146 690 l103 0 l-65 -308 l50 5 l281 303 l102 -10 l-3 -11 Z" /><glyph glyph-name="L" unicode="l" d="M297 690 l-128 -610 l330 0 l-24 -80 l-429 0 l147 690 l104 0 Z" /><glyph glyph-name="M" unicode="m" d="M350 -5 l-69 547 l-7 0 l-159 -542 l-100 0 l211 691 l116 0 l47 -324 l25 -241 l5 0 l127 241 l178 324 l128 0 l-90 -691 l-98 0 l73 541 l-7 0 l-294 -546 l-86 0 Z" /><glyph glyph-name="N" unicode="n" d="M44 0 l147 690 l98 0 l216 -516 l5 0 l8 35 l98 481 l104 0 l-147 -690 l-93 0 l-219 519 l-6 0 l-11 -55 l-97 -464 l-103 0 Z" /><glyph glyph-name="O" unicode="o" d="M305 -10 q-117 0 -182 67 q-65 67 -65 183 q0 123 49.5 228 q49.5 105 141.5 168.5 q92 63.5 207 63.5 q116 0 180.5 -66.5 q64.5 -66.5 64.5 -182.5 q0 -124 -49 -229 q-49 -105 -140.5 -168.5 q-91.5 -63.5 -206.5 -63.5 ZM323 72 q81 0 144.5 53.5 q63.5 53.5 95.5 136 q32 82.5 32 177.5 q0 84 -41.5 131.5 q-41.5 47.5 -115.5 47.5 q-121 0 -197.5 -109.5 q-76.5 -109.5 -76.5 -252.5 q0 -88 41.5 -136 q41.5 -48 117.5 -48 Z" /><glyph glyph-name="P" unicode="p" d="M393 696 q107 0 165.5 -49.5 q58.5 -49.5 58.5 -135.5 q0 -123 -89 -199 q-89 -76 -227 -76 l-102 0 l-50 -236 l-103 0 l147 690 l200 6 ZM309 315 q88 0 145.5 51 q57.5 51 57.5 131 q0 55 -34.5 87.5 q-34.5 32.5 -99.5 32.5 l-99 -3 l-63 -299 l93 0 Z" /><glyph glyph-name="Q" unicode="q" d="M305 -10 q-117 0 -182 67 q-65 67 -65 183 q0 123 49.5 228 q49.5 105 141.5 168.5 q92 63.5 207 63.5 q116 0 180.5 -66.5 q64.5 -66.5 64.5 -182.5 q0 -124 -49 -229 q-49 -105 -140.5 -168.5 q-91.5 -63.5 -206.5 -63.5 ZM323 72 q81 0 144.5 53.5 q63.5 53.5 95.5 136.5 q32 83 32 177 q0 84 -41.5 131.5 q-41.5 47.5 -115.5 47.5 q-81 0 -145 -53.5 q-64 -53.5 -96.5 -136 q-32.5 -82.5 -32.5 -176.5 q0 -85 41.5 -132.5 q41.5 -47.5 117.5 -47.5 ZM567 -199 q-77 0 -183 24 q-106 24 -205 24 l14 81 q99 0 205 -24.5 q106 -24.5 182 -24.5 l-13 -80 Z" /><glyph glyph-name="R" unicode="r" d="M419 278 q13 -15 18 -26 l130 -244 l-1 -8 l-104 -8 l-127 239 q-9 17 -15 21.5 q-6 4.5 -24 5.5 l-92 -5 l-54 -253 l-103 0 l146 690 l204 8 q100 0 159 -49 q59 -49 59 -130 q0 -83 -54 -144 q-54 -61 -142 -93 l0 -4 ZM280 614 l-60 -283 l94 5 q85 5 142 53.5 q57 48.5 57 120.5 q0 49 -35.5 78.5 q-35.5 29.5 -98.5 29.5 l-99 -4 Z" /><glyph glyph-name="S" unicode="s" d="M198 -9 q-88 0 -200 50 l27 89 q107 -55 180 -55 q74 0 119 35 q45 35 45 92 q0 30 -20.5 53.5 q-20.5 23.5 -51.5 37.5 q-31 14 -67.5 32 q-36.5 18 -67.5 36 q-31 18 -51.5 51 q-20.5 33 -20.5 76 q0 98 71 155 q71 57 184 57 q39 0 101.5 -11.5 q62.5 -11.5 86.5 -20.5 l-22 -85 q-25 9 -88 21.5 q-63 12.5 -84 12.5 q-61 -1 -102.5 -29.5 q-41.5 -28.5 -41.5 -79.5 q0 -36 28.5 -63 q28.5 -27 69.5 -46 q41 -19 82.5 -39.5 q41.5 -20.5 70 -55.5 q28.5 -35 28.5 -82 q0 -104 -76 -167.5 q-76 -63.5 -200 -63.5 Z" /><glyph glyph-name="T" unicode="t" d="M620 690 l-19 -80 l-208 0 l-129 -610 l-103 0 l128 610 l-210 0 l18 80 l523 0 Z" /><glyph glyph-name="U" unicode="u" d="M302 -10 q-106 0 -163.5 45.5 q-57.5 45.5 -57.5 137.5 q0 37 9 81 l92 436 l102 0 l-94 -441 q-6 -25 -6 -56 q0 -119 129 -119 q81 0 133.5 46.5 q52.5 46.5 70.5 132.5 l94 437 l101 0 l-94 -441 q-26 -128 -106 -193.5 q-80 -65.5 -210 -65.5 Z" /><glyph glyph-name="V" unicode="v" d="M184 0 l-92 679 l2 11 l98 10 l66 -534 q6 -39 6 -65 l6 0 q28 55 33 65 l287 524 l103 0 l-2 -11 l-378 -679 l-129 0 Z" /><glyph glyph-name="W" unicode="w" d="M134 0 l-39 690 l97 7 l30 -487 q0 -48 -3 -96 l6 0 q22 53 42 96 l239 483 l95 0 l36 -483 q2 -62 2 -96 l6 0 q16 46 37 95 l233 481 l99 0 l-332 -690 l-118 0 l-38 446 q-3 45 0 101 l-6 0 q-20 -52 -43 -102 l-226 -445 l-117 0 Z" /><glyph glyph-name="X" unicode="x" d="M464 -5 l-123 286 l-7 0 l-241 -281 l-109 0 l-1 8 l298 346 l-144 325 l2 11 l97 8 l120 -275 l8 0 l231 267 l106 0 l0 -11 l-286 -328 l153 -343 l-1 -8 l-103 -5 Z" /><glyph glyph-name="Y" unicode="y" d="M186 0 l59 278 l-154 401 l2 11 l95 4 l120 -331 l8 0 l243 327 l106 0 l0 -11 l-316 -401 l-59 -278 l-104 0 Z" /><glyph glyph-name="Z" unicode="z" d="M-12 -2 l0 66 l493 540 l1 4 q-40 -2 -59 -2 l-313 0 l18 82 l480 0 l0 -68 l-492 -537 l-1 -4 l46 2 l338 0 l-25 -83 l-486 0 Z" /><glyph glyph-name="bracketleft" unicode="[" d="M3 -159 l187 879 l219 0 l-15 -72 l-125 0 l-157 -735 l129 0 l-15 -72 l-223 0 Z" /><glyph glyph-name="backslash" unicode="\" d="M487 -49 l-78 -38 l-424 780 l78 42 l424 -784 Z" /><glyph glyph-name="bracketright" unicode="]" d="M360 720 l-187 -879 l-219 0 l15 72 l125 0 l157 735 l-129 0 l15 72 l223 0 Z" /><glyph glyph-name="asciicircum" unicode="^" d="M38 364 l251 326 l58 0 l110 -326 l-90 0 l-65 226 l-4 0 l-171 -226 l-89 0 Z" /><glyph glyph-name="underscore" unicode="_" d="M2 -134 l13 60 l492 0 l-14 -60 l-491 0 Z" /><glyph glyph-name="grave" unicode="`" d="M68 652 l1 8 l56 74 l171 -119 l-45 -61 l-183 98 Z" /><glyph glyph-name="a" unicode="a" d="M326 500 q31 0 82.5 -14.5 q51.5 -14.5 79.5 -26.5 l-74 -358 l-10 -101 l-85 0 l-1 81 l-7 0 q-1 -1 -18.5 -15.5 q-17.5 -14.5 -31.5 -24.5 q-14 -10 -35 -23.5 q-21 -13.5 -43.5 -20.5 q-22.5 -7 -42.5 -7 q-44 0 -75.5 49 q-31.5 49 -31.5 129 q0 145 89 238.5 q89 93.5 204 93.5 ZM328 159 l51 252 q-31 13 -72 13 q-64 0 -120 -68 q-56 -68 -56 -170 q0 -51 14 -83.5 q14 -32.5 35 -32.5 q32 0 148 89 Z" /><glyph glyph-name="b" unicode="b" d="M383 499 q63 0 97 -47 q34 -47 34 -129 q0 -137 -73 -235.5 q-73 -98.5 -187 -98.5 l-228 32 l148 692 l100 8 l1 -9 l-66 -310 l6 0 q14 14 32.5 30.5 q18.5 16.5 61.5 41.5 q43 25 74 25 ZM238 66 q69 0 123 72 q54 72 54 175 q0 47 -18.5 76.5 q-18.5 29.5 -45.5 29.5 q-27 0 -77.5 -37 q-50.5 -37 -82.5 -68 l-49 -230 l96 -18 Z" /><glyph glyph-name="c" unicode="c" d="M221 -10 q-93 0 -143.5 51.5 q-50.5 51.5 -50.5 141.5 q0 138 81 227.5 q81 89.5 211 89.5 q34 0 116 -23 l-26 -79 q-20 8 -53 16 q-33 8 -44 8 q-86 0 -136.5 -65.5 q-50.5 -65.5 -50.5 -159.5 q0 -58 29 -93.5 q29 -35.5 79 -35.5 q42 0 135 60 l26 -65 q-102 -73 -173 -73 Z" /><glyph glyph-name="d" unicode="d" d="M140 -10 q-49 0 -81.5 48 q-32.5 48 -32.5 129 q0 145 90 239 q90 94 207 94 q26 0 76 -18 l50 231 l99 8 l2 -9 l-130 -612 l-10 -100 l-89 0 l-1 81 l-8 0 q-3 -2 -19.5 -16 q-16.5 -14 -31 -24.5 q-14.5 -10.5 -35.5 -23 q-21 -12.5 -43 -20 q-22 -7.5 -43 -7.5 ZM174 70 q35 0 156 87 l53 250 q-64 16 -77 16 q-67 0 -123.5 -67.5 q-56.5 -67.5 -56.5 -170.5 q0 -115 48 -115 Z" /><glyph glyph-name="e" unicode="e" d="M142 204 l-17 0 l0 -5 q0 -58 27.5 -95.5 q27.5 -37.5 73.5 -37.5 q25 0 68.5 21.5 q43.5 21.5 70.5 39.5 l23 -62 q-1 -1 -13 -8.5 q-12 -7.5 -24 -15 q-12 -7.5 -31.5 -17 q-19.5 -9.5 -37.5 -17 q-18 -7.5 -39 -12.5 q-21 -5 -39 -5 q-82 0 -126.5 56.5 q-44.5 56.5 -44.5 144.5 q0 132 74 220.5 q74 88.5 195 88.5 q68 0 103 -32 q35 -32 35 -83 q0 -52 -30 -89.5 q-30 -37.5 -78.5 -56 q-48.5 -18.5 -95.5 -27 q-47 -8.5 -94 -8.5 ZM282 430 q-52 0 -93.5 -44 q-41.5 -44 -56.5 -118 l18 0 q33 0 65.5 5 q32.5 5 65 16 q32.5 11 53 32.5 q20.5 21.5 20.5 51.5 q0 26 -19.5 41.5 q-19.5 15.5 -52.5 15.5 Z" /><glyph glyph-name="f" unicode="f" d="M-92 -210 l-1 87 q72 12 103 46 q31 34 49 132 l76 358 l-87 0 l12 69 l90 8 l11 49 q43 191 196 191 q43 0 96 -8 l-18 -82 q-3 0 -37 4.5 q-34 4.5 -40 4.5 q-73 0 -96 -108 l-11 -51 l115 0 l-16 -77 l-115 0 l-81 -383 q-25 -129 -83 -182.5 q-58 -53.5 -163 -57.5 Z" /><glyph glyph-name="g" unicode="g" d="M374 489 l189 5 l-15 -74 l-54 0 l-40 2 q13 -29 13 -62 q0 -91 -66.5 -152 q-66.5 -61 -162.5 -61 q-32 0 -57 6 q-37 -25 -37 -53 q0 -21 41 -25 l126 -14 q133 -14 133 -107 q0 -55 -43 -98 q-43 -43 -107 -64 q-64 -21 -135 -21 q-92 0 -148 31.5 q-56 31.5 -56 86.5 q0 45 34 81.5 q34 36.5 82 56.5 l3 9 q-14 14 -14 38 q0 54 59 96 l4 9 q-52 38 -52 109 q0 91 67 151.5 q67 60.5 165 60.5 q38 0 71 -11 ZM243 219 q56 0 96 40.5 q40 40.5 40 92.5 q0 34 -22 54.5 q-22 20.5 -61 20.5 q-56 0 -96 -39 q-40 -39 -40 -92 q0 -35 21.5 -56 q21.5 -21 61.5 -21 ZM287 -12 l-121 12 q-13 1 -28 5 q-40 -17 -65.5 -42 q-25.5 -25 -25.5 -53 q0 -29 33 -44.5 q33 -15.5 92 -15.5 q69 0 126 25.5 q57 25.5 57 67.5 q0 37 -68 45 Z" /><glyph glyph-name="h" unicode="h" d="M395 500 q53 0 80.5 -30 q27.5 -30 27.5 -88 q0 -29 -10 -74 l-45 -215 l-7 -93 l-103 0 l10 103 l41 196 q7 33 7 59 q0 60 -36 60 q-10 0 -22.5 -4 q-12.5 -4 -27 -12.5 q-14.5 -8.5 -27 -16.5 q-12.5 -8 -28 -19.5 q-15.5 -11.5 -23.5 -18 q-8 -6.5 -20 -16.5 l-13 -10 l-68 -321 l-103 0 l152 713 l99 8 l3 -8 l-67 -316 l1 0 q4 3 28.5 23.5 q24.5 20.5 44.5 36 q20 15.5 50.5 29.5 q30.5 14 55.5 14 Z" /><glyph glyph-name="i" unicode="i" d="M193 591 q-23 0 -36.5 13 q-13.5 13 -13.5 35 q0 31 22 51.5 q22 20.5 54 20.5 q23 0 36.5 -13.5 q13.5 -13.5 13.5 -34.5 q0 -31 -22 -51.5 q-22 -20.5 -54 -20.5 ZM29 0 l8 102 l83 388 l101 8 l1 -9 l-82 -394 l-7 -95 l-104 0 Z" /><glyph glyph-name="j" unicode="j" d="M220 591 q-25 0 -39.5 13.5 q-14.5 13.5 -14.5 36.5 q0 30 20.5 50 q20.5 20 51.5 20 q25 0 39.5 -14 q14.5 -14 14.5 -37 q0 -30 -20.5 -49.5 q-20.5 -19.5 -51.5 -19.5 ZM-99 -230 l1 81 q68 11 98.5 54 q30.5 43 51.5 150 l92 435 l101 8 l2 -8 l-99 -460 q-26 -135 -85 -195.5 q-59 -60.5 -162 -64.5 Z" /><glyph glyph-name="k" unicode="k" d="M358 -7 l-156 229 l-44 -4 l-27 -128 l-6 -90 l-101 0 l7 95 l132 618 l101 8 l1 -10 l-90 -413 l34 3 q108 90 214 196 l106 -7 l-2 -8 q-132 -130 -241 -219 l0 -6 l171 -248 l-2 -8 l-97 -8 Z" /><glyph glyph-name="l" unicode="l" d="M31 0 l8 99 l131 614 l101 8 l2 -9 l-131 -619 l-7 -93 l-104 0 Z" /><glyph glyph-name="m" unicode="m" d="M681 500 q53 0 80.5 -30 q27.5 -30 27.5 -88 q0 -34 -9 -74 l-46 -215 l-6 -93 l-102 0 l8 103 l41 196 q7 33 7 60 q0 59 -36 59 q-43 0 -155 -96 l-3 -18 l-65 -304 l-103 0 l64 299 q7 33 7 60 q0 59 -36 59 q-46 0 -155 -95 l-70 -323 l-103 0 l83 389 l14 101 l87 8 l3 -8 l-7 -93 l4 0 q2 1 27.5 23 q25.5 22 45 36.5 q19.5 14.5 50.5 29 q31 14.5 56 14.5 q96 0 106 -103 l7 0 q2 2 27.5 23.5 q25.5 21.5 45 36 q19.5 14.5 50 29 q30.5 14.5 55.5 14.5 Z" /><glyph glyph-name="n" unicode="n" d="M395 500 q53 0 80.5 -30 q27.5 -30 27.5 -88 q0 -34 -9 -74 l-46 -215 l-7 -93 l-102 0 l9 103 l41 196 q6 38 6 60 q0 59 -36 59 q-42 0 -159 -96 l-70 -322 l-103 0 l83 389 l14 101 l87 8 l3 -8 l-8 -93 l6 0 q3 2 21 17.5 q18 15.5 34.5 27.5 q16.5 12 38.5 26.5 q22 14.5 45.5 23 q23.5 8.5 43.5 8.5 Z" /><glyph glyph-name="o" unicode="o" d="M312 500 q81 0 128 -50.5 q47 -50.5 47 -141.5 q0 -137 -77.5 -227.5 q-77.5 -90.5 -200.5 -90.5 q-81 0 -128.5 50.5 q-47.5 50.5 -47.5 141.5 q0 137 78 227.5 q78 90.5 201 90.5 ZM297 426 q-73 0 -119.5 -66 q-46.5 -66 -46.5 -169 q0 -56 26.5 -91.5 q26.5 -35.5 68.5 -35.5 q72 0 117.5 66.5 q45.5 66.5 45.5 168.5 q0 56 -25.5 91.5 q-25.5 35.5 -66.5 35.5 Z" /><glyph glyph-name="p" unicode="p" d="M84 -229 l-100 9 l128 606 l15 104 l89 8 l2 -9 l-7 -90 l6 0 q114 100 178 100 q59 0 94 -48 q35 -48 35 -128 q0 -137 -72.5 -235.5 q-72.5 -98.5 -186.5 -98.5 l-130 20 l-51 -238 ZM249 66 q68 0 121.5 71.5 q53.5 71.5 53.5 174.5 q0 47 -19 77 q-19 30 -41 30 q-41 0 -163 -103 l-49 -232 l97 -18 Z" /><glyph glyph-name="q" unicode="q" d="M347 -230 l-99 10 l62 295 l-3 0 q-116 -85 -166 -85 q-46 0 -78.5 48.5 q-32.5 48.5 -32.5 128.5 q0 145 90.5 239 q90.5 94 206.5 94 q32 0 84 -15 q52 -15 81 -27 l-145 -688 ZM179 70 q9 0 23.5 5.5 q14.5 5.5 33 17 q18.5 11.5 32 20 q13.5 8.5 34.5 23 q21 14.5 25 17.5 l52 254 q-38 16 -72 16 q-64 0 -120 -67.5 q-56 -67.5 -56 -169.5 q0 -116 48 -116 Z" /><glyph glyph-name="r" unicode="r" d="M27 0 l82 387 l14 103 l88 7 l1 -8 l-7 -94 l3 0 q98 105 168 105 q11 0 20 -3 l-22 -90 q-12 2 -22 2 q-34 0 -76 -33 q-42 -33 -78 -75 l-68 -301 l-103 0 Z" /><glyph glyph-name="s" unicode="s" d="M138 -10 q-36 0 -81 13.5 q-45 13.5 -68 26.5 l31 69 q22 -11 61 -22.5 q39 -11.5 64 -11.5 q48 0 78.5 21.5 q30.5 21.5 30.5 55.5 q0 22 -20 38.5 q-20 16.5 -48.5 29 q-28.5 12.5 -57.5 27.5 q-29 15 -49 41.5 q-20 26.5 -20 63.5 q0 71 58 114.5 q58 43.5 152 43.5 q22 0 63 -9 q41 -9 63 -17 l-27 -76 q-76 28 -107 28 q-47 0 -74 -20 q-27 -20 -27 -52 q0 -25 30.5 -46.5 q30.5 -21.5 67 -36 q36.5 -14.5 67 -44 q30.5 -29.5 30.5 -69.5 q0 -76 -59.5 -122 q-59.5 -46 -157.5 -46 Z" /><glyph glyph-name="t" unicode="t" d="M158 -10 q-42 0 -68.5 24.5 q-26.5 24.5 -26.5 65.5 q0 20 4 39 l62 294 l-83 0 l13 70 l87 7 l48 135 l81 9 l1 -8 l-30 -136 l126 0 l-16 -77 l-126 0 l-60 -285 q-3 -15 -3 -28 q0 -25 15 -25 q13 0 99 47 l27 -66 l-19 -12 q-19 -11 -31.5 -17.5 q-12.5 -6.5 -32 -16.5 q-19.5 -10 -36.5 -15 q-17 -5 -31 -5 Z" /><glyph glyph-name="u" unicode="u" d="M156 -10 q-54 0 -82.5 30 q-28.5 30 -28.5 88 q0 29 10 74 l65 308 l102 0 l-62 -301 q-7 -33 -7 -60 q0 -59 38 -59 q42 0 156 89 l70 331 l103 0 l-82 -389 l-10 -101 l-89 0 l-1 83 l-6 0 l-8 -7 q-8 -7 -14.5 -12.5 q-6.5 -5.5 -18.5 -15 q-12 -9.5 -23 -16.5 q-11 -7 -26 -15.5 q-15 -8.5 -28 -14 q-13 -5.5 -28.5 -9 q-15.5 -3.5 -29.5 -3.5 Z" /><glyph glyph-name="v" unicode="v" d="M109 -7 l-61 497 l92 8 l42 -404 l5 0 l216 396 l97 0 l-1 -8 l-280 -482 l-110 -7 Z" /><glyph glyph-name="w" unicode="w" d="M82 -8 l-29 498 l85 8 l22 -404 l6 0 l196 396 l80 0 l19 -395 l6 0 l202 395 l96 0 l-262 -490 l-110 -8 l-18 346 l-5 0 l-176 -338 l-112 -8 Z" /><glyph glyph-name="x" unicode="x" d="M56 -8 l-93 8 l3 12 l215 244 l-111 226 l2 8 l90 8 l86 -186 l3 0 l161 186 l96 -8 l-1 -8 l-212 -231 l118 -239 l-2 -12 l-90 -7 l-93 191 l-4 0 l-168 -192 Z" /><glyph glyph-name="y" unicode="y" d="M105 -231 l-77 29 l118 202 l-22 0 l-64 482 l2 8 l88 7 l47 -403 l7 0 l221 396 l99 0 l-1 -8 l-418 -713 Z" /><glyph glyph-name="z" unicode="z" d="M-7 0 l0 62 l328 349 l0 5 q-27 -3 -54 -3 l-202 1 l15 76 l362 0 l0 -65 l-328 -346 l0 -2 q2 0 5.5 0 q3.5 0 14 0.5 q10.5 0.5 19.5 0.5 l238 -1 l-23 -77 l-375 0 Z" /><glyph glyph-name="braceleft" unicode="{" d="M136 -159 q-35 0 -57.5 22.5 q-22.5 22.5 -22.5 61.5 q0 11 4 33 l39 183 q3 18 3 31 q0 74 -83 77 l17 74 q103 3 125 107 l36 173 q12 55 47 86 q35 31 80 31 l102 0 l-17 -73 l-58 0 q-51 0 -64 -70 l-36 -168 q-10 -51 -40.5 -82 q-30.5 -31 -65.5 -39 l0 -3 q25 -6 41.5 -28.5 q16.5 -22.5 16.5 -58.5 q0 -20 -4 -37 l-37 -177 q-5 -20 -5 -30 q0 -40 39 -40 l58 0 l-15 -73 l-103 0 Z" /><glyph glyph-name="bar" unicode="|" d="M46 -253 l215 1013 l91 0 l-215 -1013 l-91 0 Z" /><glyph glyph-name="braceright" unicode="}" d="M245 720 q35 0 57.5 -22.5 q22.5 -22.5 22.5 -61.5 q0 -11 -4 -33 l-39 -183 q-3 -18 -3 -31 q0 -74 83 -77 l-17 -74 q-103 -3 -125 -107 l-36 -173 q-12 -55 -47 -86 q-35 -31 -80 -31 l-102 0 l17 73 l58 0 q51 0 64 70 l36 168 q10 51 40.5 82 q30.5 31 65.5 39 l0 3 q-25 6 -41.5 28.5 q-16.5 22.5 -16.5 58.5 q0 20 4 37 l37 177 q5 20 5 30 q0 40 -39 40 l-58 0 l15 73 l103 0 Z" /><glyph glyph-name="asciitilde" unicode="~" d="M273 367 q47 0 97 -33 q50 -33 91 -33 q26 0 53.5 14 q27.5 14 44.5 33 l29 -57 q-20 -27 -61.5 -48 q-41.5 -21 -86.5 -21 q-47 0 -96.5 33 q-49.5 33 -90.5 33 q-54 0 -98 -46 l-30 57 q21 27 62.5 47.5 q41.5 20.5 85.5 20.5 Z" /><glyph glyph-name="exclamdown" unicode="¡" d="M207 372 q-24 0 -38.5 14.5 q-14.5 14.5 -14.5 37.5 q0 33 25 57 q25 24 56 24 q25 0 39.5 -14.5 q14.5 -14.5 14.5 -38.5 q0 -33 -25 -56.5 q-25 -23.5 -57 -23.5 ZM33 -220 l42 186 l80 314 l79 4 l2 -11 l-56 -307 l-41 -194 l-106 8 Z" /><glyph glyph-name="cent" unicode="¢" d="M302 576 l28 132 l89 0 l-28 -132 l-89 0 ZM241 -10 q-103 0 -158.5 55 q-55.5 55 -55.5 151 q0 147 89 242 q89 95 232 95 q39 0 134 -27 l-27 -85 q-75 25 -114 25 q-98 0 -155 -68.5 q-57 -68.5 -57 -167.5 q0 -61 33.5 -97.5 q33.5 -36.5 90.5 -36.5 q48 0 157 63 l27 -71 q-113 -78 -196 -78 ZM141 -179 l28 134 l89 0 l-28 -134 l-89 0 Z" /><glyph glyph-name="sterling" unicode="£" d="M441 457 q-75 0 -111.5 -33.5 q-36.5 -33.5 -50.5 -97.5 l-9 -42 l264 0 l-29 -68 l-249 0 l-30 -142 l366 -1 l-36 -73 l-510 0 l16 74 l75 0 l30 142 l-85 0 l28 68 l70 0 l11 47 q20 99 82 152 q62 53 184 53 q35 0 88.5 -9 q53.5 -9 86.5 -20 l-28 -79 q-103 29 -163 29 Z" /><glyph glyph-name="currency" unicode="¤" d="M481 337 q0 -83 -51 -145 l56 -70 l-60 -50 l-56 71 q-49 -27 -106 -27 q-61 0 -102 30 l-85 -74 l-44 51 l90 76 q-10 24 -10 58 q0 84 49 144 l-56 68 l60 50 l54 -69 q50 28 110 28 q63 0 102 -31 l85 72 l42 -50 l-88 -76 q10 -23 10 -56 ZM187 264 q0 -35 22 -56.5 q22 -21.5 60 -21.5 q63 0 100.5 43 q37.5 43 37.5 102 q0 35 -22 56 q-22 21 -60 21 q-64 0 -101 -42 q-37 -42 -37 -102 Z" /><glyph glyph-name="yen" unicode="¥" d="M687 536 l-1 -6 l-209 -234 l125 0 l-23 -63 l-516 0 l24 63 l123 0 l-104 234 l16 6 l86 0 l104 -240 l57 0 l208 240 l110 0 ZM42 118 l23 62 l515 0 l-23 -62 l-202 0 l-25 -118 l-102 0 l25 118 l-211 0 Z" /><glyph glyph-name="brokenbar" unicode="¦" d="M179 372 l82 388 l91 0 l-82 -388 l-91 0 ZM220 139 l-83 -392 l-91 0 l83 392 l91 0 Z" /><glyph glyph-name="section" unicode="§" d="M531 580 q-98 42 -173 42 q-57 0 -99 -15 q16 -35 58 -83.5 q42 -48.5 79.5 -87.5 q37.5 -39 67 -95.5 q29.5 -56.5 29.5 -112.5 q0 -108 -77 -172.5 q-77 -64.5 -204 -64.5 q-86 0 -214 60 l35 73 q120 -54 185 -54 q51 0 95 14 q-16 35 -56.5 83.5 q-40.5 48.5 -77 88 q-36.5 39.5 -65.5 95.5 q-29 56 -29 112 q0 108 78 173 q78 65 204 65 q99 0 194 -43 l-30 -78 ZM418 221 q0 44 -26.5 92.5 q-26.5 48.5 -60.5 85.5 q-34 37 -72.5 86.5 q-38.5 49.5 -55.5 89.5 q-42 -39 -42 -104 q0 -36 17.5 -73.5 q17.5 -37.5 44.5 -71 q27 -33.5 55.5 -66 q28.5 -32.5 56 -70.5 q27.5 -38 39.5 -72 q44 41 44 103 Z" /><glyph glyph-name="dieresis" unicode="¨" d="M114 568 q-22 0 -34 12 q-12 12 -12 33 q0 29 20.5 49 q20.5 20 50.5 20 q20 0 32.5 -12.5 q12.5 -12.5 12.5 -32.5 q0 -30 -20.5 -49.5 q-20.5 -19.5 -49.5 -19.5 ZM285 568 q-21 0 -33 12.5 q-12 12.5 -12 32.5 q0 29 20.5 49 q20.5 20 49.5 20 q21 0 33.5 -12.5 q12.5 -12.5 12.5 -32.5 q0 -30 -20.5 -49.5 q-20.5 -19.5 -50.5 -19.5 Z" /><glyph glyph-name="copyright" unicode="©" d="M399 641 q106 0 167 -63.5 q61 -63.5 61 -168.5 q0 -154 -102 -257 q-102 -103 -251 -103 q-107 0 -168 63 q-61 63 -61 169 q0 154 102 257 q102 103 252 103 ZM383 521 q-89 0 -147 -61 q-58 -61 -58 -159 q0 -57 31 -93 q31 -36 100 -36 q58 0 100 21 l-7 49 q-39 -18 -83 -18 q-36 0 -56.5 22.5 q-20.5 22.5 -20.5 65.5 q0 73 36.5 115 q36.5 42 91.5 42 q45 0 76 -17 l27 47 q-36 22 -90 22 Z" /><glyph glyph-name="ordfeminine" unicode="ª" d="M100 389 q-38 0 -60 17 q-22 17 -22 46 q0 53 50 81 q50 28 123 28 l41 0 l3 20 q2 12 2 17 q0 38 -55 38 q-48 0 -102 -22 l-6 58 q69 28 130 28 q53 0 82 -22 q29 -22 29 -64 q0 -9 -4 -29 l-40 -191 l-62 0 l0 35 l-3 0 q-40 -40 -106 -40 ZM129 442 q33 0 57 15 q24 15 28 33 l5 24 l-35 0 q-93 0 -93 -47 q0 -25 38 -25 Z" /><glyph glyph-name="guillemotleft" unicode="«" d="M200 66 l-81 185 l0 15 l163 184 l105 0 l-162 -188 l1 -8 l79 -188 l-105 0 ZM410 66 l-81 185 l0 15 l163 184 l105 0 l-162 -188 l1 -8 l79 -188 l-105 0 Z" /><glyph glyph-name="registered" unicode="®" d="M283 49 q-112 0 -175.5 60.5 q-63.5 60.5 -63.5 163.5 q0 154 105.5 261 q105.5 107 259.5 107 q111 0 174.5 -60.5 q63.5 -60.5 63.5 -163.5 q0 -153 -105.5 -260.5 q-105.5 -107.5 -258.5 -107.5 ZM206 181 l60 0 l26 128 l23 0 q13 0 23 -24 l48 -104 l64 0 l0 3 l-47 99 q-6 14 -20 38 q39 9 67.5 41.5 q28.5 32.5 28.5 72.5 q0 36 -26.5 56 q-26.5 20 -73.5 20 l-104 0 l-69 -330 ZM302 351 l24 113 l46 0 q21 0 32.5 -11 q11.5 -11 11.5 -30 q0 -31 -22 -51.5 q-22 -20.5 -51 -20.5 l-41 0 Z" /><glyph glyph-name="macron" unicode="¯" d="M362 658 l-15 -73 l-279 0 l16 73 l278 0 Z" /><glyph glyph-name="degree" unicode="°" d="M172 431 q-45 0 -70.5 28 q-25.5 28 -25.5 75 q0 71 44.5 118 q44.5 47 109.5 47 q45 0 71 -28 q26 -28 26 -75 q0 -70 -45 -117.5 q-45 -47.5 -110 -47.5 ZM185 485 q33 0 57 29 q24 29 24 70 q0 28 -13 44 q-13 16 -35 16 q-34 0 -57.5 -28.5 q-23.5 -28.5 -23.5 -70.5 q0 -28 12.5 -44 q12.5 -16 35.5 -16 Z" /><glyph glyph-name="plusminus" unicode="±" d="M76 0 l16 71 l174 0 l34 159 l-180 0 l17 75 l179 0 l41 194 l83 0 l-41 -194 l182 0 l-16 -75 l-177 0 l-33 -159 l178 0 l-15 -71 l-442 0 Z" /><glyph glyph-name="acute" unicode="´" d="M311 652 l-221 -97 l-22 60 l221 119 l23 -74 l-1 -8 Z" /><glyph glyph-name="paragraph" unicode="¶" d="M628 690 l-146 -690 l-70 0 l131 621 l-54 0 l-132 -621 l-71 0 l133 621 l-78 0 q-101 0 -161 -51 q-60 -51 -60 -137 q0 -59 40 -93.5 q40 -34.5 114 -34.5 l23 0 l-14 -67 l-15 0 q-106 0 -164 48 q-58 48 -58 133 q0 123 86.5 197 q86.5 74 231.5 74 l264 0 Z" /><glyph glyph-name="periodcentered" unicode="·" d="M122 188 q-24 0 -37.5 13.5 q-13.5 13.5 -13.5 35.5 q0 37 23.5 60 q23.5 23 57.5 23 q25 0 39 -13 q14 -13 14 -36 q0 -36 -24.5 -59.5 q-24.5 -23.5 -58.5 -23.5 Z" /><glyph glyph-name="cedilla" unicode="¸" d="M128 -235 q-36 0 -63 12 l18 55 q12 -8 45 -8 q30 0 49 12.5 q19 12.5 19 32.5 q0 15 -16 28 q-16 13 -43 19 l20 54 q45 -7 72.5 -35 q27.5 -28 27.5 -66 q0 -51 -36.5 -77.5 q-36.5 -26.5 -92.5 -26.5 Z" /><glyph glyph-name="ordmasculine" unicode="º" d="M169 389 q-57 0 -89.5 30.5 q-32.5 30.5 -32.5 87.5 q0 88 54 140.5 q54 52.5 135 52.5 q56 0 89 -30.5 q33 -30.5 33 -86.5 q0 -88 -54 -141 q-54 -53 -135 -53 ZM181 445 q45 0 75 36 q30 36 30 93 q0 32 -16.5 51 q-16.5 19 -45.5 19 q-45 0 -75 -37 q-30 -37 -30 -92 q0 -70 62 -70 Z" /><glyph glyph-name="guillemotright" unicode="»" d="M5 66 l153 188 l10 8 l-71 188 l99 0 l68 -184 l-160 -200 l-99 0 ZM197 66 l153 188 l10 8 l-71 188 l99 0 l67 -184 l-10 -15 l-149 -185 l-99 0 Z" /><glyph glyph-name="onequarter" unicode="¼" d="M741 730 l51 -40 l-643 -730 l-49 40 l641 730 ZM16 305 l15 65 l91 0 l52 251 l-89 0 l13 63 l143 5 l31 0 l-66 -319 l82 0 l-24 -65 l-248 0 ZM829 153 l54 0 l-22 -63 l-44 0 l-20 -90 l-74 0 l18 90 l-188 0 l0 58 l204 245 l82 -5 l-192 -233 l0 -2 l108 0 l19 91 l76 0 l-21 -91 Z" /><glyph glyph-name="onehalf" unicode="½" d="M741 730 l51 -40 l-643 -730 l-49 40 l641 730 ZM16 305 l15 65 l91 0 l52 251 l-89 0 l13 63 l143 5 l31 0 l-66 -319 l82 0 l-24 -65 l-248 0 ZM891 280 q-3 -24 -17 -47.5 q-14 -23.5 -29.5 -41 q-15.5 -17.5 -47 -42 q-31.5 -24.5 -53 -39.5 q-21.5 -15 -64.5 -43 l176 0 l-22 -67 l-282 0 l12 55 q154 108 187 139 q43 40 50 75 q4 23 -10.5 36 q-14.5 13 -40.5 14 q-44 1 -105 -25 l-15 65 q68 35 145 35 q61 0 93 -30.5 q32 -30.5 23 -83.5 Z" /><glyph glyph-name="threequarters" unicode="¾" d="M144 0 l641 730 l51 -40 l-643 -730 l-49 40 ZM129 301 q-61 0 -113 26 l33 64 q40 -23 94 -23 q37 0 61 16.5 q24 16.5 24 42.5 q0 22 -22 34 q-22 12 -60 12 l-34 0 l21 59 l28 0 q39 0 64.5 18.5 q25.5 18.5 25.5 44.5 q0 16 -13.5 26 q-13.5 10 -36.5 10 q-43 0 -104 -24 l-13 60 q66 32 135 32 q50 0 81.5 -21.5 q31.5 -21.5 31.5 -59.5 q0 -37 -24 -66.5 q-24 -29.5 -62 -40.5 l-1 -2 q29 -7 45.5 -26.5 q16.5 -19.5 16.5 -48.5 q0 -58 -51 -95.5 q-51 -37.5 -127 -37.5 ZM767 0 l18 90 l-188 0 l0 58 l204 245 l82 -5 l-192 -233 l0 -2 l108 0 l19 91 l76 0 l-21 -91 l54 0 l-22 -63 l-44 0 l-20 -90 l-74 0 Z" /><glyph glyph-name="questiondown" unicode="¿" d="M304 373 q-24 0 -39 15 q-15 15 -15 38 q0 32 25.5 56.5 q25.5 24.5 56.5 24.5 q24 0 39 -15 q15 -15 15 -38 q0 -33 -24.5 -57 q-24.5 -24 -57.5 -24 ZM188 -231 q-86 0 -132.5 35.5 q-46.5 35.5 -46.5 100.5 q0 50 21 92 q21 42 52.5 71.5 q31.5 29.5 63.5 55.5 q32 26 58 57.5 q26 31.5 33 64.5 l7 35 l89 0 l-9 -43 q-9 -41 -34.5 -76 q-25.5 -35 -55 -60 q-29.5 -25 -58 -49.5 q-28.5 -24.5 -47 -57 q-18.5 -32.5 -18.5 -70.5 q0 -38 25 -53.5 q25 -15.5 76 -15.5 q39 0 113 24 l16 -80 q-93 -31 -153 -31 Z" /><glyph glyph-name="Agrave" unicode="à" d="M274 812 l0 8 l50 85 l189 -96 l-38 -67 l-201 70 ZM486 -10 l-21 193 l-281 0 l-99 -183 l-107 0 l384 690 l132 0 l91 -690 l-99 -10 ZM226 260 l231 0 l-27 232 q-1 3 -2.5 21.5 q-1.5 18.5 -3.5 43.5 q-2 25 -4 39 l-13 0 l-55 -105 l-126 -231 Z" /><glyph glyph-name="Aacute" unicode="á" d="M572 812 l-201 -70 l-38 67 l190 96 l49 -85 l0 -8 ZM486 -10 l-21 193 l-281 0 l-99 -183 l-107 0 l384 690 l132 0 l91 -690 l-99 -10 ZM226 260 l231 0 l-27 232 q-1 3 -2.5 21.5 q-1.5 18.5 -3.5 43.5 q-2 25 -4 39 l-13 0 l-55 -105 l-126 -231 Z" /><glyph glyph-name="Acircumflex" unicode="â" d="M319 743 l-50 42 l1 8 l171 100 l46 0 l126 -101 l-2 -7 l-65 -43 l-96 77 l-131 -76 ZM486 -10 l-21 193 l-281 0 l-99 -183 l-107 0 l384 690 l132 0 l91 -690 l-99 -10 ZM226 260 l231 0 l-27 232 q-1 3 -2.5 21.5 q-1.5 18.5 -3.5 43.5 q-2 25 -4 39 l-13 0 l-55 -105 l-126 -231 Z" /><glyph glyph-name="Atilde" unicode="ã" d="M490 757 q-27 0 -50 19 q-23 19 -42 19 q-33 0 -80 -36 l-30 41 q62 59 129 59 q29 0 53.5 -18.5 q24.5 -18.5 41.5 -18.5 q38 0 78 35 l27 -45 q-60 -55 -127 -55 ZM486 -10 l-21 193 l-281 0 l-99 -183 l-107 0 l384 690 l132 0 l91 -690 l-99 -10 ZM226 260 l231 0 l-27 232 q-1 3 -2.5 21.5 q-1.5 18.5 -3.5 43.5 q-2 25 -4 39 l-13 0 l-55 -105 l-126 -231 Z" /><glyph glyph-name="Adieresis" unicode="ä" d="M339 758 q-19 0 -31.5 12.5 q-12.5 12.5 -12.5 32.5 q0 27 20.5 46.5 q20.5 19.5 48.5 19.5 q20 0 32 -12.5 q12 -12.5 12 -32.5 q0 -27 -20.5 -46.5 q-20.5 -19.5 -48.5 -19.5 ZM517 758 q-19 0 -31 12.5 q-12 12.5 -12 32.5 q0 27 20 46.5 q20 19.5 48 19.5 q20 0 32.5 -12.5 q12.5 -12.5 12.5 -32.5 q0 -27 -21 -46.5 q-21 -19.5 -49 -19.5 ZM486 -10 l-21 193 l-281 0 l-99 -183 l-107 0 l384 690 l132 0 l91 -690 l-99 -10 ZM226 260 l231 0 l-27 232 q-1 3 -2.5 21.5 q-1.5 18.5 -3.5 43.5 q-2 25 -4 39 l-13 0 l-55 -105 l-126 -231 Z" /><glyph glyph-name="Aring" unicode="å" d="M432 733 q-42 0 -65.5 21.5 q-23.5 21.5 -21.5 56.5 q2 46 38 76 q36 30 87 30 q42 0 65.5 -20.5 q23.5 -20.5 21.5 -54.5 q-2 -46 -38.5 -77.5 q-36.5 -31.5 -86.5 -31.5 ZM443 787 q22 0 36.5 14 q14.5 14 15.5 33 q1 14 -9 22 q-10 8 -27 8 q-21 0 -36 -12.5 q-15 -12.5 -16 -32.5 q-1 -15 9 -23.5 q10 -8.5 27 -8.5 ZM486 -10 l-21 193 l-281 0 l-99 -183 l-107 0 l384 690 l132 0 l91 -690 l-99 -10 ZM226 260 l231 0 l-27 232 q-1 3 -2.5 21.5 q-1.5 18.5 -3.5 43.5 q-2 25 -4 39 l-13 0 l-55 -105 l-126 -231 Z" /><glyph glyph-name="AE" unicode="æ" d="M1006 608 l-314 0 l-48 -223 l264 0 l-16 -77 l-264 0 l-48 -225 l319 0 l-28 -83 l-412 0 l39 182 l-273 0 l-144 -182 l-103 0 l542 690 l504 0 l-18 -82 ZM515 261 l74 347 l-26 0 l-275 -347 l227 0 Z" /><glyph glyph-name="Ccedilla" unicode="ç" d="M323 -10 q-131 0 -199 64 q-68 64 -68 184 q0 197 107 323.5 q107 126.5 278 138.5 q64 0 187 -25 l-19 -86 q-115 24 -177 27 q-119 -12 -194.5 -113 q-75.5 -101 -75.5 -252 q0 -84 45 -129.5 q45 -45.5 128 -45.5 q69 0 188 51 l-5 -90 q-124 -47 -195 -47 ZM239 -243 q-36 0 -63 12 l18 55 q12 -8 45 -8 q30 0 49 12.5 q19 12.5 19 32.5 q0 15 -16 28 q-16 13 -43 19 l20 54 q45 -7 72.5 -35 q27.5 -28 27.5 -66 q0 -51 -36.5 -77.5 q-36.5 -26.5 -92.5 -26.5 Z" /><glyph glyph-name="Egrave" unicode="è" d="M481 809 l-38 -67 l-201 70 l0 8 l50 85 l189 -96 ZM582 610 l-303 0 l-48 -226 l252 0 l-16 -77 l-252 0 l-48 -227 l342 0 l-20 -80 l-443 0 l147 690 l406 0 l-17 -80 Z" /><glyph glyph-name="Eacute" unicode="é" d="M540 812 l-201 -70 l-38 67 l190 96 l49 -85 l0 -8 ZM582 610 l-303 0 l-48 -226 l252 0 l-16 -77 l-252 0 l-48 -227 l342 0 l-20 -80 l-443 0 l147 690 l406 0 l-17 -80 Z" /><glyph glyph-name="Ecircumflex" unicode="ê" d="M418 819 l-131 -76 l-50 42 l1 8 l171 100 l46 0 l126 -101 l-2 -7 l-65 -43 l-96 77 ZM582 610 l-303 0 l-48 -226 l252 0 l-16 -77 l-252 0 l-48 -227 l342 0 l-20 -80 l-443 0 l147 690 l406 0 l-17 -80 Z" /><glyph glyph-name="Edieresis" unicode="ë" d="M307 758 q-19 0 -31.5 12.5 q-12.5 12.5 -12.5 32.5 q0 27 20.5 46.5 q20.5 19.5 48.5 19.5 q20 0 32 -12.5 q12 -12.5 12 -32.5 q0 -27 -20.5 -46.5 q-20.5 -19.5 -48.5 -19.5 ZM485 758 q-19 0 -31 12.5 q-12 12.5 -12 32.5 q0 27 20 46.5 q20 19.5 48 19.5 q20 0 32.5 -12.5 q12.5 -12.5 12.5 -32.5 q0 -27 -21 -46.5 q-21 -19.5 -49 -19.5 ZM582 610 l-303 0 l-48 -226 l252 0 l-16 -77 l-252 0 l-48 -227 l342 0 l-20 -80 l-443 0 l147 690 l406 0 l-17 -80 Z" /><glyph glyph-name="Igrave" unicode="ì" d="M101 812 l0 8 l50 85 l189 -96 l-38 -67 l-201 70 ZM302 690 l-147 -690 l-103 0 l146 690 l104 0 Z" /><glyph glyph-name="Iacute" unicode="í" d="M399 812 l-201 -70 l-38 67 l190 96 l49 -85 l0 -8 ZM302 690 l-147 -690 l-103 0 l146 690 l104 0 Z" /><glyph glyph-name="Icircumflex" unicode="î" d="M146 743 l-50 42 l1 8 l171 100 l46 0 l126 -101 l-2 -7 l-65 -43 l-96 77 l-131 -76 ZM302 690 l-147 -690 l-103 0 l146 690 l104 0 Z" /><glyph glyph-name="Idieresis" unicode="ï" d="M166 758 q-19 0 -31.5 12.5 q-12.5 12.5 -12.5 32.5 q0 27 20.5 46.5 q20.5 19.5 48.5 19.5 q20 0 32 -12.5 q12 -12.5 12 -32.5 q0 -27 -20.5 -46.5 q-20.5 -19.5 -48.5 -19.5 ZM344 758 q-19 0 -31 12.5 q-12 12.5 -12 32.5 q0 27 20 46.5 q20 19.5 48 19.5 q20 0 32.5 -12.5 q12.5 -12.5 12.5 -32.5 q0 -27 -21 -46.5 q-21 -19.5 -49 -19.5 ZM302 690 l-147 -690 l-103 0 l146 690 l104 0 Z" /><glyph glyph-name="Eth" unicode="ð" d="M391 697 q131 0 209 -73 q78 -73 78 -195 q0 -196 -114.5 -312.5 q-114.5 -116.5 -314.5 -122.5 l-199 6 l66 309 l-62 0 l16 77 l63 0 l65 305 l193 6 ZM266 77 q141 4 223 95 q82 91 82 241 q0 91 -55 146.5 q-55 55.5 -145 54.5 l-86 -2 l-48 -226 l175 0 l-17 -77 l-174 0 l-49 -230 l94 -2 Z" /><glyph glyph-name="Ntilde" unicode="ñ" d="M517 757 q-27 0 -50 19 q-23 19 -42 19 q-33 0 -80 -36 l-30 41 q62 59 129 59 q29 0 53.5 -18.5 q24.5 -18.5 41.5 -18.5 q38 0 78 35 l27 -45 q-60 -55 -127 -55 ZM44 0 l147 690 l98 0 l216 -516 l5 0 l8 35 l98 481 l104 0 l-147 -690 l-93 0 l-219 519 l-6 0 l-11 -55 l-97 -464 l-103 0 Z" /><glyph glyph-name="Ograve" unicode="ò" d="M323 812 l0 8 l50 85 l189 -96 l-38 -67 l-201 70 ZM305 -10 q-117 0 -182 67 q-65 67 -65 183 q0 123 49.5 228 q49.5 105 141.5 168.5 q92 63.5 207 63.5 q116 0 180.5 -66.5 q64.5 -66.5 64.5 -182.5 q0 -124 -49 -229 q-49 -105 -140.5 -168.5 q-91.5 -63.5 -206.5 -63.5 ZM323 72 q81 0 144.5 53.5 q63.5 53.5 95.5 136 q32 82.5 32 177.5 q0 84 -41.5 131.5 q-41.5 47.5 -115.5 47.5 q-121 0 -197.5 -109.5 q-76.5 -109.5 -76.5 -252.5 q0 -88 41.5 -136 q41.5 -48 117.5 -48 Z" /><glyph glyph-name="Oacute" unicode="ó" d="M621 812 l-201 -70 l-38 67 l190 96 l49 -85 l0 -8 ZM305 -10 q-117 0 -182 67 q-65 67 -65 183 q0 123 49.5 228 q49.5 105 141.5 168.5 q92 63.5 207 63.5 q116 0 180.5 -66.5 q64.5 -66.5 64.5 -182.5 q0 -124 -49 -229 q-49 -105 -140.5 -168.5 q-91.5 -63.5 -206.5 -63.5 ZM323 72 q81 0 144.5 53.5 q63.5 53.5 95.5 136 q32 82.5 32 177.5 q0 84 -41.5 131.5 q-41.5 47.5 -115.5 47.5 q-121 0 -197.5 -109.5 q-76.5 -109.5 -76.5 -252.5 q0 -88 41.5 -136 q41.5 -48 117.5 -48 Z" /><glyph glyph-name="Ocircumflex" unicode="ô" d="M368 743 l-50 42 l1 8 l171 100 l46 0 l126 -101 l-2 -7 l-65 -43 l-96 77 l-131 -76 ZM305 -10 q-117 0 -182 67 q-65 67 -65 183 q0 123 49.5 228 q49.5 105 141.5 168.5 q92 63.5 207 63.5 q116 0 180.5 -66.5 q64.5 -66.5 64.5 -182.5 q0 -124 -49 -229 q-49 -105 -140.5 -168.5 q-91.5 -63.5 -206.5 -63.5 ZM323 72 q81 0 144.5 53.5 q63.5 53.5 95.5 136 q32 82.5 32 177.5 q0 84 -41.5 131.5 q-41.5 47.5 -115.5 47.5 q-121 0 -197.5 -109.5 q-76.5 -109.5 -76.5 -252.5 q0 -88 41.5 -136 q41.5 -48 117.5 -48 Z" /><glyph glyph-name="Otilde" unicode="õ" d="M539 757 q-27 0 -50 19 q-23 19 -42 19 q-33 0 -80 -36 l-30 41 q62 59 129 59 q29 0 53.5 -18.5 q24.5 -18.5 41.5 -18.5 q38 0 78 35 l27 -45 q-60 -55 -127 -55 ZM305 -10 q-117 0 -182 67 q-65 67 -65 183 q0 123 49.5 228 q49.5 105 141.5 168.5 q92 63.5 207 63.5 q116 0 180.5 -66.5 q64.5 -66.5 64.5 -182.5 q0 -124 -49 -229 q-49 -105 -140.5 -168.5 q-91.5 -63.5 -206.5 -63.5 ZM323 72 q81 0 144.5 53.5 q63.5 53.5 95.5 136 q32 82.5 32 177.5 q0 84 -41.5 131.5 q-41.5 47.5 -115.5 47.5 q-121 0 -197.5 -109.5 q-76.5 -109.5 -76.5 -252.5 q0 -88 41.5 -136 q41.5 -48 117.5 -48 Z" /><glyph glyph-name="Odieresis" unicode="ö" d="M388 758 q-19 0 -31.5 12.5 q-12.5 12.5 -12.5 32.5 q0 27 20.5 46.5 q20.5 19.5 48.5 19.5 q20 0 32 -12.5 q12 -12.5 12 -32.5 q0 -27 -20.5 -46.5 q-20.5 -19.5 -48.5 -19.5 ZM566 758 q-19 0 -31 12.5 q-12 12.5 -12 32.5 q0 27 20 46.5 q20 19.5 48 19.5 q20 0 32.5 -12.5 q12.5 -12.5 12.5 -32.5 q0 -27 -21 -46.5 q-21 -19.5 -49 -19.5 ZM305 -10 q-117 0 -182 67 q-65 67 -65 183 q0 123 49.5 228 q49.5 105 141.5 168.5 q92 63.5 207 63.5 q116 0 180.5 -66.5 q64.5 -66.5 64.5 -182.5 q0 -124 -49 -229 q-49 -105 -140.5 -168.5 q-91.5 -63.5 -206.5 -63.5 ZM323 72 q81 0 144.5 53.5 q63.5 53.5 95.5 136 q32 82.5 32 177.5 q0 84 -41.5 131.5 q-41.5 47.5 -115.5 47.5 q-121 0 -197.5 -109.5 q-76.5 -109.5 -76.5 -252.5 q0 -88 41.5 -136 q41.5 -48 117.5 -48 Z" /><glyph glyph-name="multiply" unicode="×" d="M591 416 l-182 -163 l120 -166 l-69 -56 l-117 163 l-181 -163 l-45 57 l184 165 l-118 164 l68 56 l116 -161 l179 161 l45 -57 Z" /><glyph glyph-name="Oslash" unicode="ø" d="M634 637 q69 -66 69 -186 q0 -124 -49 -229 q-49 -105 -141 -168.5 q-92 -63.5 -207 -63.5 q-69 0 -120 24 l-79 -109 l-48 35 l77 107 q-76 65 -76 193 q0 123 49.5 228 q49.5 105 141 168.5 q91.5 63.5 206.5 63.5 q73 0 129 -28 l76 106 l48 -36 l-76 -105 ZM166 256 q0 -77 32 -123 l331 460 q-38 25 -90 25 q-81 0 -144.5 -53 q-63.5 -53 -96 -135 q-32.5 -82 -32.5 -174 ZM324 72 q81 0 145 53.5 q64 53.5 96 136.5 q32 83 32 177 q0 66 -26 110 l-329 -457 q34 -20 82 -20 Z" /><glyph glyph-name="Ugrave" unicode="ù" d="M290 812 l0 8 l50 85 l189 -96 l-38 -67 l-201 70 ZM302 -10 q-106 0 -163.5 45.5 q-57.5 45.5 -57.5 137.5 q0 37 9 81 l92 436 l102 0 l-94 -441 q-6 -25 -6 -56 q0 -119 129 -119 q81 0 133.5 46.5 q52.5 46.5 70.5 132.5 l94 437 l101 0 l-94 -441 q-26 -128 -106 -193.5 q-80 -65.5 -210 -65.5 Z" /><glyph glyph-name="Uacute" unicode="ú" d="M588 812 l-201 -70 l-38 67 l190 96 l49 -85 l0 -8 ZM302 -10 q-106 0 -163.5 45.5 q-57.5 45.5 -57.5 137.5 q0 37 9 81 l92 436 l102 0 l-94 -441 q-6 -25 -6 -56 q0 -119 129 -119 q81 0 133.5 46.5 q52.5 46.5 70.5 132.5 l94 437 l101 0 l-94 -441 q-26 -128 -106 -193.5 q-80 -65.5 -210 -65.5 Z" /><glyph glyph-name="Ucircumflex" unicode="û" d="M335 743 l-50 42 l1 8 l171 100 l46 0 l126 -101 l-2 -7 l-65 -43 l-96 77 l-131 -76 ZM302 -10 q-106 0 -163.5 45.5 q-57.5 45.5 -57.5 137.5 q0 37 9 81 l92 436 l102 0 l-94 -441 q-6 -25 -6 -56 q0 -119 129 -119 q81 0 133.5 46.5 q52.5 46.5 70.5 132.5 l94 437 l101 0 l-94 -441 q-26 -128 -106 -193.5 q-80 -65.5 -210 -65.5 Z" /><glyph glyph-name="Udieresis" unicode="ü" d="M355 758 q-19 0 -31.5 12.5 q-12.5 12.5 -12.5 32.5 q0 27 20.5 46.5 q20.5 19.5 48.5 19.5 q20 0 32 -12.5 q12 -12.5 12 -32.5 q0 -27 -20.5 -46.5 q-20.5 -19.5 -48.5 -19.5 ZM533 758 q-19 0 -31 12.5 q-12 12.5 -12 32.5 q0 27 20 46.5 q20 19.5 48 19.5 q20 0 32.5 -12.5 q12.5 -12.5 12.5 -32.5 q0 -27 -21 -46.5 q-21 -19.5 -49 -19.5 ZM302 -10 q-106 0 -163.5 45.5 q-57.5 45.5 -57.5 137.5 q0 37 9 81 l92 436 l102 0 l-94 -441 q-6 -25 -6 -56 q0 -119 129 -119 q81 0 133.5 46.5 q52.5 46.5 70.5 132.5 l94 437 l101 0 l-94 -441 q-26 -128 -106 -193.5 q-80 -65.5 -210 -65.5 Z" /><glyph glyph-name="Yacute" unicode="ý" d="M513 812 l-201 -70 l-38 67 l190 96 l49 -85 l0 -8 ZM186 0 l59 278 l-154 401 l2 11 l95 4 l120 -331 l8 0 l243 327 l106 0 l0 -11 l-316 -401 l-59 -278 l-104 0 Z" /><glyph glyph-name="Thorn" unicode="þ" d="M366 572 q107 0 164.5 -47 q57.5 -47 57.5 -132 q0 -123 -87.5 -198 q-87.5 -75 -230.5 -75 l-93 0 l-25 -120 l-106 0 l147 690 l105 0 l-25 -118 l93 0 ZM289 199 q87 0 139.5 50 q52.5 50 52.5 131 q0 54 -33.5 83 q-33.5 29 -96.5 29 l-95 0 l-62 -293 l95 0 Z" /><glyph glyph-name="germandbls" unicode="ß" d="M-99 -214 l0 83 q69 11 97 45 q28 34 48 133 l96 448 q52 235 245 235 q72 0 115 -38.5 q43 -38.5 43 -101.5 q0 -61 -45 -123.5 q-45 -62.5 -117 -104.5 l-2 -7 q135 -95 135 -204 q0 -72 -55.5 -116.5 q-55.5 -44.5 -146.5 -44.5 q-61 0 -120 26 l17 78 q51 -24 106 -24 q47 0 76 23 q29 23 29 60 q0 31 -20 61.5 q-20 30.5 -43.5 51 q-23.5 20.5 -67.5 54.5 q-11 9 -17 13 l12 57 q74 37 120 88.5 q46 51.5 46 99.5 q0 33 -22.5 52.5 q-22.5 19.5 -60.5 19.5 q-47 0 -80.5 -44 q-33.5 -44 -50.5 -123 l-99 -465 q-29 -126 -83 -177 q-54 -51 -155 -55 Z" /><glyph glyph-name="agrave" unicode="à" d="M412 615 l-45 -61 l-183 98 l1 8 l56 74 l171 -119 ZM326 500 q31 0 82.5 -14.5 q51.5 -14.5 79.5 -26.5 l-74 -358 l-10 -101 l-85 0 l-1 81 l-7 0 q-1 -1 -18.5 -15.5 q-17.5 -14.5 -31.5 -24.5 q-14 -10 -35 -23.5 q-21 -13.5 -43.5 -20.5 q-22.5 -7 -42.5 -7 q-44 0 -75.5 49 q-31.5 49 -31.5 129 q0 145 89 238.5 q89 93.5 204 93.5 ZM328 159 l51 252 q-31 13 -72 13 q-64 0 -120 -68 q-56 -68 -56 -170 q0 -51 14 -83.5 q14 -32.5 35 -32.5 q32 0 148 89 Z" /><glyph glyph-name="aacute" unicode="á" d="M472 734 l23 -74 l-1 -8 l-221 -97 l-22 60 l221 119 ZM33 168 q0 145 89 238.5 q89 93.5 204 93.5 q31 0 82.5 -14.5 q51.5 -14.5 79.5 -26.5 l-74 -358 l-10 -101 l-85 0 l-1 81 l-7 0 q-1 -1 -18.5 -15.5 q-17.5 -14.5 -31.5 -24.5 q-14 -10 -35 -23.5 q-21 -13.5 -43.5 -20.5 q-22.5 -7 -42.5 -7 q-44 0 -75.5 49 q-31.5 49 -31.5 129 ZM328 159 l51 252 q-31 13 -72 13 q-64 0 -120 -68 q-56 -68 -56 -170 q0 -51 14 -83.5 q14 -32.5 35 -32.5 q32 0 148 89 Z" /><glyph glyph-name="acircumflex" unicode="â" d="M387 701 l125 -101 l-1 -6 l-59 -43 l-101 78 l-135 -77 l-42 44 l0 4 l171 101 l42 0 ZM33 168 q0 145 89 238.5 q89 93.5 204 93.5 q31 0 82.5 -14.5 q51.5 -14.5 79.5 -26.5 l-74 -358 l-10 -101 l-85 0 l-1 81 l-7 0 q-1 -1 -18.5 -15.5 q-17.5 -14.5 -31.5 -24.5 q-14 -10 -35 -23.5 q-21 -13.5 -43.5 -20.5 q-22.5 -7 -42.5 -7 q-44 0 -75.5 49 q-31.5 49 -31.5 129 ZM328 159 l51 252 q-31 13 -72 13 q-64 0 -120 -68 q-56 -68 -56 -170 q0 -51 14 -83.5 q14 -32.5 35 -32.5 q32 0 148 89 Z" /><glyph glyph-name="atilde" unicode="ã" d="M332.5 600 q-32.5 19 -47.5 19 q-15 0 -31.5 -11 q-16.5 -11 -26.5 -29 l-56 20 q20 44 52.5 70.5 q32.5 26.5 67.5 26.5 q27 0 61 -19.5 q34 -19.5 48 -19.5 q31 0 56 39 l56 -22 q-19 -41 -51.5 -67 q-32.5 -26 -67.5 -26 q-28 0 -60.5 19 ZM33 168 q0 145 89 238.5 q89 93.5 204 93.5 q31 0 82.5 -14.5 q51.5 -14.5 79.5 -26.5 l-74 -358 l-10 -101 l-85 0 l-1 81 l-7 0 q-1 -1 -18.5 -15.5 q-17.5 -14.5 -31.5 -24.5 q-14 -10 -35 -23.5 q-21 -13.5 -43.5 -20.5 q-22.5 -7 -42.5 -7 q-44 0 -75.5 49 q-31.5 49 -31.5 129 ZM328 159 l51 252 q-31 13 -72 13 q-64 0 -120 -68 q-56 -68 -56 -170 q0 -51 14 -83.5 q14 -32.5 35 -32.5 q32 0 148 89 Z" /><glyph glyph-name="adieresis" unicode="ä" d="M252 567 q-22 0 -34 12.5 q-12 12.5 -12 32.5 q0 29 20.5 49 q20.5 20 50.5 20 q20 0 32.5 -12.5 q12.5 -12.5 12.5 -32.5 q0 -30 -20.5 -49.5 q-20.5 -19.5 -49.5 -19.5 ZM423 567 q-21 0 -33 12.5 q-12 12.5 -12 32.5 q0 29 20.5 49 q20.5 20 49.5 20 q21 0 33.5 -12.5 q12.5 -12.5 12.5 -32.5 q0 -30 -20.5 -49.5 q-20.5 -19.5 -50.5 -19.5 ZM33 168 q0 145 89 238.5 q89 93.5 204 93.5 q31 0 82.5 -14.5 q51.5 -14.5 79.5 -26.5 l-74 -358 l-10 -101 l-85 0 l-1 81 l-7 0 q-1 -1 -18.5 -15.5 q-17.5 -14.5 -31.5 -24.5 q-14 -10 -35 -23.5 q-21 -13.5 -43.5 -20.5 q-22.5 -7 -42.5 -7 q-44 0 -75.5 49 q-31.5 49 -31.5 129 ZM328 159 l51 252 q-31 13 -72 13 q-64 0 -120 -68 q-56 -68 -56 -170 q0 -51 14 -83.5 q14 -32.5 35 -32.5 q32 0 148 89 Z" /><glyph glyph-name="aring" unicode="å" d="M332 550 q-40 0 -63 19.5 q-23 19.5 -23 52.5 q0 49 36.5 80.5 q36.5 31.5 88.5 31.5 q40 0 63.5 -19 q23.5 -19 23.5 -51 q0 -48 -37 -81 q-37 -33 -89 -33 ZM360 682 q-21 0 -36 -13.5 q-15 -13.5 -15 -34.5 q0 -30 34 -30 q23 0 38 14.5 q15 14.5 15 33.5 q0 30 -36 30 ZM326 500 q31 0 82.5 -14.5 q51.5 -14.5 79.5 -26.5 l-74 -358 l-10 -101 l-85 0 l-1 81 l-7 0 q-1 -1 -18.5 -15.5 q-17.5 -14.5 -31.5 -24.5 q-14 -10 -35 -23.5 q-21 -13.5 -43.5 -20.5 q-22.5 -7 -42.5 -7 q-44 0 -75.5 49 q-31.5 49 -31.5 129 q0 145 89 238.5 q89 93.5 204 93.5 ZM328 159 l51 252 q-31 13 -72 13 q-64 0 -120 -68 q-56 -68 -56 -170 q0 -51 14 -83.5 q14 -32.5 35 -32.5 q32 0 148 89 Z" /><glyph glyph-name="ae" unicode="æ" d="M135 -10 q-64 0 -100 28 q-36 28 -36 76 q0 80 75.5 126 q75.5 46 188.5 46 l52 0 q11 54 13 78 q1 36 -18.5 54 q-19.5 18 -58.5 18 q-74 0 -149 -29 l-11 73 q92 40 189 40 q89 0 124 -67 q39 33 78 50 q39 17 95 17 q68 0 103 -32 q35 -32 35 -83 q0 -89 -84 -134.5 q-84 -45.5 -230 -46.5 q1 -65 27.5 -101.5 q26.5 -36.5 72.5 -36.5 q25 0 68.5 21.5 q43.5 21.5 70.5 39.5 l23 -62 q-1 -1 -16 -10.5 q-15 -9.5 -33 -19 q-18 -9.5 -40.5 -20.5 q-22.5 -11 -48 -18 q-25.5 -7 -46.5 -7 q-104 0 -148 97 q-27 -40 -84.5 -68.5 q-57.5 -28.5 -111.5 -28.5 ZM407 268 q222 0 222 104 q0 25 -17.5 42.5 q-17.5 17.5 -42.5 17.5 q-63 0 -104 -45.5 q-41 -45.5 -58 -118.5 ZM156 63 q53 0 97.5 30 q44.5 30 51.5 60 q-2 27 2 50 l-52 0 q-77 0 -120.5 -24.5 q-43.5 -24.5 -45.5 -67.5 q0 -22 17.5 -35 q17.5 -13 49.5 -13 Z" /><glyph glyph-name="ccedilla" unicode="ç" d="M221 -10 q-93 0 -143.5 51.5 q-50.5 51.5 -50.5 141.5 q0 138 81 227.5 q81 89.5 211 89.5 q34 0 116 -23 l-26 -79 q-20 8 -53 16 q-33 8 -44 8 q-86 0 -136.5 -65.5 q-50.5 -65.5 -50.5 -159.5 q0 -58 29 -93.5 q29 -35.5 79 -35.5 q42 0 135 60 l26 -65 q-102 -73 -173 -73 ZM135 -235 q-36 0 -63 12 l18 55 q12 -8 45 -8 q30 0 49 12.5 q19 12.5 19 32.5 q0 15 -16 28 q-16 13 -43 19 l20 54 q45 -7 72.5 -35 q27.5 -28 27.5 -66 q0 -51 -36.5 -77.5 q-36.5 -26.5 -92.5 -26.5 Z" /><glyph glyph-name="egrave" unicode="è" d="M380 615 l-45 -61 l-183 98 l1 8 l56 74 l171 -119 ZM142 204 l-17 0 l0 -5 q0 -58 27.5 -95.5 q27.5 -37.5 73.5 -37.5 q25 0 68.5 21.5 q43.5 21.5 70.5 39.5 l23 -62 q-1 -1 -13 -8.5 q-12 -7.5 -24 -15 q-12 -7.5 -31.5 -17 q-19.5 -9.5 -37.5 -17 q-18 -7.5 -39 -12.5 q-21 -5 -39 -5 q-82 0 -126.5 56.5 q-44.5 56.5 -44.5 144.5 q0 132 74 220.5 q74 88.5 195 88.5 q68 0 103 -32 q35 -32 35 -83 q0 -52 -30 -89.5 q-30 -37.5 -78.5 -56 q-48.5 -18.5 -95.5 -27 q-47 -8.5 -94 -8.5 ZM282 430 q-52 0 -93.5 -44 q-41.5 -44 -56.5 -118 l18 0 q33 0 65.5 5 q32.5 5 65 16 q32.5 11 53 32.5 q20.5 21.5 20.5 51.5 q0 26 -19.5 41.5 q-19.5 15.5 -52.5 15.5 Z" /><glyph glyph-name="eacute" unicode="é" d="M440 734 l23 -74 l-1 -8 l-221 -97 l-22 60 l221 119 ZM302 500 q68 0 103 -32 q35 -32 35 -83 q0 -52 -30 -89.5 q-30 -37.5 -78.5 -56 q-48.5 -18.5 -95.5 -27 q-47 -8.5 -94 -8.5 l-17 0 l0 -5 q0 -58 27.5 -95.5 q27.5 -37.5 73.5 -37.5 q25 0 68.5 21.5 q43.5 21.5 70.5 39.5 l23 -62 q-1 -1 -13 -8.5 q-12 -7.5 -24 -15 q-12 -7.5 -31.5 -17 q-19.5 -9.5 -37.5 -17 q-18 -7.5 -39 -12.5 q-21 -5 -39 -5 q-82 0 -126.5 56.5 q-44.5 56.5 -44.5 144.5 q0 132 74 220.5 q74 88.5 195 88.5 ZM150 268 q33 0 65.5 5 q32.5 5 65 16 q32.5 11 53 32.5 q20.5 21.5 20.5 51.5 q0 26 -19.5 41.5 q-19.5 15.5 -52.5 15.5 q-52 0 -93.5 -44 q-41.5 -44 -56.5 -118 l18 0 Z" /><glyph glyph-name="ecircumflex" unicode="ê" d="M355 701 l125 -101 l-1 -6 l-59 -43 l-101 78 l-135 -77 l-42 44 l0 4 l171 101 l42 0 ZM302 500 q68 0 103 -32 q35 -32 35 -83 q0 -52 -30 -89.5 q-30 -37.5 -78.5 -56 q-48.5 -18.5 -95.5 -27 q-47 -8.5 -94 -8.5 l-17 0 l0 -5 q0 -58 27.5 -95.5 q27.5 -37.5 73.5 -37.5 q25 0 68.5 21.5 q43.5 21.5 70.5 39.5 l23 -62 q-1 -1 -13 -8.5 q-12 -7.5 -24 -15 q-12 -7.5 -31.5 -17 q-19.5 -9.5 -37.5 -17 q-18 -7.5 -39 -12.5 q-21 -5 -39 -5 q-82 0 -126.5 56.5 q-44.5 56.5 -44.5 144.5 q0 132 74 220.5 q74 88.5 195 88.5 ZM150 268 q33 0 65.5 5 q32.5 5 65 16 q32.5 11 53 32.5 q20.5 21.5 20.5 51.5 q0 26 -19.5 41.5 q-19.5 15.5 -52.5 15.5 q-52 0 -93.5 -44 q-41.5 -44 -56.5 -118 l18 0 Z" /><glyph glyph-name="edieresis" unicode="ë" d="M220 567 q-22 0 -34 12.5 q-12 12.5 -12 32.5 q0 29 20.5 49 q20.5 20 50.5 20 q20 0 32.5 -12.5 q12.5 -12.5 12.5 -32.5 q0 -30 -20.5 -49.5 q-20.5 -19.5 -49.5 -19.5 ZM416 681 q21 0 33.5 -12.5 q12.5 -12.5 12.5 -32.5 q0 -30 -20.5 -49.5 q-20.5 -19.5 -50.5 -19.5 q-21 0 -33 12.5 q-12 12.5 -12 32.5 q0 29 20.5 49 q20.5 20 49.5 20 ZM302 500 q68 0 103 -32 q35 -32 35 -83 q0 -52 -30 -89.5 q-30 -37.5 -78.5 -56 q-48.5 -18.5 -95.5 -27 q-47 -8.5 -94 -8.5 l-17 0 l0 -5 q0 -58 27.5 -95.5 q27.5 -37.5 73.5 -37.5 q25 0 68.5 21.5 q43.5 21.5 70.5 39.5 l23 -62 q-1 -1 -13 -8.5 q-12 -7.5 -24 -15 q-12 -7.5 -31.5 -17 q-19.5 -9.5 -37.5 -17 q-18 -7.5 -39 -12.5 q-21 -5 -39 -5 q-82 0 -126.5 56.5 q-44.5 56.5 -44.5 144.5 q0 132 74 220.5 q74 88.5 195 88.5 ZM150 268 q33 0 65.5 5 q32.5 5 65 16 q32.5 11 53 32.5 q20.5 21.5 20.5 51.5 q0 26 -19.5 41.5 q-19.5 15.5 -52.5 15.5 q-52 0 -93.5 -44 q-41.5 -44 -56.5 -118 l18 0 Z" /><glyph glyph-name="igrave" unicode="ì" d="M36 652 l1 8 l56 74 l171 -119 l-45 -61 l-183 98 ZM27 0 l9 102 l83 388 l101 8 l1 -9 l-83 -394 l-7 -95 l-104 0 Z" /><glyph glyph-name="iacute" unicode="í" d="M346 652 l-221 -97 l-22 60 l221 119 l23 -74 l-1 -8 ZM27 0 l9 102 l83 388 l101 8 l1 -9 l-83 -394 l-7 -95 l-104 0 Z" /><glyph glyph-name="icircumflex" unicode="î" d="M197 701 l42 0 l125 -101 l-1 -6 l-59 -43 l-101 78 l-135 -77 l-42 44 l0 4 l171 101 ZM27 0 l9 102 l83 388 l101 8 l1 -9 l-83 -394 l-7 -95 l-104 0 Z" /><glyph glyph-name="idieresis" unicode="ï" d="M104 567 q-22 0 -34 12.5 q-12 12.5 -12 32.5 q0 29 20.5 49 q20.5 20 50.5 20 q20 0 32.5 -12.5 q12.5 -12.5 12.5 -32.5 q0 -30 -20.5 -49.5 q-20.5 -19.5 -49.5 -19.5 ZM275 567 q-21 0 -33 12.5 q-12 12.5 -12 32.5 q0 29 20.5 49 q20.5 20 49.5 20 q21 0 33.5 -12.5 q12.5 -12.5 12.5 -32.5 q0 -30 -20.5 -49.5 q-20.5 -19.5 -50.5 -19.5 ZM27 0 l9 102 l83 388 l101 8 l1 -9 l-83 -394 l-7 -95 l-104 0 Z" /><glyph glyph-name="eth" unicode="ð" d="M222 -10 q-87 0 -138 52 q-51 52 -51 143 q0 130 75.5 222 q75.5 92 194.5 92 q42 0 79.5 -18.5 q37.5 -18.5 57.5 -43.5 q-7 122 -77 180 l-94 -72 l-32 40 l77 58 q-53 28 -135 28 l24 61 q104 0 173 -38 l91 71 l32 -40 l-77 -61 q104 -98 104 -264 q0 -67 -19 -137 q-19 -70 -54.5 -132 q-35.5 -62 -96 -101.5 q-60.5 -39.5 -134.5 -39.5 ZM238 69 q73 0 128 81.5 q55 81.5 70 193.5 q-17 31 -56.5 54.5 q-39.5 23.5 -79.5 23.5 q-81 0 -126 -68 q-45 -68 -45 -156 q0 -61 28.5 -95 q28.5 -34 80.5 -34 Z" /><glyph glyph-name="ntilde" unicode="ñ" d="M230 579 l-56 20 q20 44 52.5 70.5 q32.5 26.5 67.5 26.5 q27 0 61 -19.5 q34 -19.5 48 -19.5 q31 0 56 39 l56 -22 q-19 -41 -51.5 -67 q-32.5 -26 -67.5 -26 q-28 0 -60.5 19 q-32.5 19 -47.5 19 q-15 0 -31.5 -11 q-16.5 -11 -26.5 -29 ZM395 500 q53 0 80.5 -30 q27.5 -30 27.5 -88 q0 -34 -9 -74 l-46 -215 l-7 -93 l-102 0 l9 103 l41 196 q6 38 6 60 q0 59 -36 59 q-42 0 -159 -96 l-70 -322 l-103 0 l83 389 l14 101 l87 8 l3 -8 l-8 -93 l6 0 q3 2 21 17.5 q18 15.5 34.5 27.5 q16.5 12 38.5 26.5 q22 14.5 45.5 23 q23.5 8.5 43.5 8.5 Z" /><glyph glyph-name="ograve" unicode="ò" d="M178 652 l1 8 l56 74 l171 -119 l-45 -61 l-183 98 ZM312 500 q81 0 128 -50.5 q47 -50.5 47 -141.5 q0 -137 -77.5 -227.5 q-77.5 -90.5 -200.5 -90.5 q-81 0 -128.5 50.5 q-47.5 50.5 -47.5 141.5 q0 137 78 227.5 q78 90.5 201 90.5 ZM297 426 q-73 0 -119.5 -66 q-46.5 -66 -46.5 -169 q0 -56 26.5 -91.5 q26.5 -35.5 68.5 -35.5 q72 0 117.5 66.5 q45.5 66.5 45.5 168.5 q0 56 -25.5 91.5 q-25.5 35.5 -66.5 35.5 Z" /><glyph glyph-name="oacute" unicode="ó" d="M488 652 l-221 -97 l-22 60 l221 119 l23 -74 l-1 -8 ZM312 500 q81 0 128 -50.5 q47 -50.5 47 -141.5 q0 -137 -77.5 -227.5 q-77.5 -90.5 -200.5 -90.5 q-81 0 -128.5 50.5 q-47.5 50.5 -47.5 141.5 q0 137 78 227.5 q78 90.5 201 90.5 ZM297 426 q-73 0 -119.5 -66 q-46.5 -66 -46.5 -169 q0 -56 26.5 -91.5 q26.5 -35.5 68.5 -35.5 q72 0 117.5 66.5 q45.5 66.5 45.5 168.5 q0 56 -25.5 91.5 q-25.5 35.5 -66.5 35.5 Z" /><glyph glyph-name="ocircumflex" unicode="ô" d="M339 701 l42 0 l125 -101 l-1 -6 l-59 -43 l-101 78 l-135 -77 l-42 44 l0 4 l171 101 ZM312 500 q81 0 128 -50.5 q47 -50.5 47 -141.5 q0 -137 -77.5 -227.5 q-77.5 -90.5 -200.5 -90.5 q-81 0 -128.5 50.5 q-47.5 50.5 -47.5 141.5 q0 137 78 227.5 q78 90.5 201 90.5 ZM297 426 q-73 0 -119.5 -66 q-46.5 -66 -46.5 -169 q0 -56 26.5 -91.5 q26.5 -35.5 68.5 -35.5 q72 0 117.5 66.5 q45.5 66.5 45.5 168.5 q0 56 -25.5 91.5 q-25.5 35.5 -66.5 35.5 Z" /><glyph glyph-name="otilde" unicode="õ" d="M221 579 l-56 20 q20 44 52.5 70.5 q32.5 26.5 67.5 26.5 q27 0 61 -19.5 q34 -19.5 48 -19.5 q31 0 56 39 l56 -22 q-19 -41 -51.5 -67 q-32.5 -26 -67.5 -26 q-28 0 -60.5 19 q-32.5 19 -47.5 19 q-15 0 -31.5 -11 q-16.5 -11 -26.5 -29 ZM312 500 q81 0 128 -50.5 q47 -50.5 47 -141.5 q0 -137 -77.5 -227.5 q-77.5 -90.5 -200.5 -90.5 q-81 0 -128.5 50.5 q-47.5 50.5 -47.5 141.5 q0 137 78 227.5 q78 90.5 201 90.5 ZM297 426 q-73 0 -119.5 -66 q-46.5 -66 -46.5 -169 q0 -56 26.5 -91.5 q26.5 -35.5 68.5 -35.5 q72 0 117.5 66.5 q45.5 66.5 45.5 168.5 q0 56 -25.5 91.5 q-25.5 35.5 -66.5 35.5 Z" /><glyph glyph-name="odieresis" unicode="ö" d="M246 567 q-22 0 -34 12.5 q-12 12.5 -12 32.5 q0 29 20.5 49 q20.5 20 50.5 20 q20 0 32.5 -12.5 q12.5 -12.5 12.5 -32.5 q0 -30 -20.5 -49.5 q-20.5 -19.5 -49.5 -19.5 ZM417 567 q-21 0 -33 12.5 q-12 12.5 -12 32.5 q0 29 20.5 49 q20.5 20 49.5 20 q21 0 33.5 -12.5 q12.5 -12.5 12.5 -32.5 q0 -30 -20.5 -49.5 q-20.5 -19.5 -50.5 -19.5 ZM312 500 q81 0 128 -50.5 q47 -50.5 47 -141.5 q0 -137 -77.5 -227.5 q-77.5 -90.5 -200.5 -90.5 q-81 0 -128.5 50.5 q-47.5 50.5 -47.5 141.5 q0 137 78 227.5 q78 90.5 201 90.5 ZM297 426 q-73 0 -119.5 -66 q-46.5 -66 -46.5 -169 q0 -56 26.5 -91.5 q26.5 -35.5 68.5 -35.5 q72 0 117.5 66.5 q45.5 66.5 45.5 168.5 q0 56 -25.5 91.5 q-25.5 35.5 -66.5 35.5 Z" /><glyph glyph-name="divide" unicode="÷" d="M331 377 q-24 0 -37.5 15.5 q-13.5 15.5 -10.5 38.5 q5 26 26.5 45 q21.5 19 46.5 19 q23 0 36 -16.5 q13 -16.5 9 -40.5 q-4 -26 -24.5 -43.5 q-20.5 -17.5 -45.5 -17.5 ZM52 227 l16 70 l478 0 l-15 -70 l-479 0 ZM256 29 q-24 0 -37 15.5 q-13 15.5 -9 38.5 q3 27 24 45 q21 18 47 18 q24 0 37 -16 q13 -16 10 -40 q-4 -26 -25 -43.5 q-21 -17.5 -47 -17.5 Z" /><glyph glyph-name="oslash" unicode="ø" d="M423 465 q64 -50 64 -157 q0 -137 -77.5 -227.5 q-77.5 -90.5 -200.5 -90.5 q-41 0 -72 12 l-61 -98 l-41 27 l60 96 q-62 50 -62 155 q0 137 78 227.5 q78 90.5 201 90.5 q38 0 70 -12 l67 108 l39 -26 l-65 -105 ZM131 191 q0 -47 18 -78 l188 302 q-19 11 -40 11 q-73 0 -119.5 -66 q-46.5 -66 -46.5 -169 ZM226 64 q72 0 117.5 66.5 q45.5 66.5 45.5 168.5 q0 46 -19 81 l-187 -304 q18 -12 43 -12 Z" /><glyph glyph-name="ugrave" unicode="ù" d="M180 652 l1 8 l56 74 l171 -119 l-45 -61 l-183 98 ZM156 -10 q-54 0 -82.5 30 q-28.5 30 -28.5 88 q0 29 10 74 l65 308 l102 0 l-62 -301 q-7 -33 -7 -60 q0 -59 38 -59 q42 0 156 89 l70 331 l103 0 l-82 -389 l-10 -101 l-89 0 l-1 83 l-6 0 l-8 -7 q-8 -7 -14.5 -12.5 q-6.5 -5.5 -18.5 -15 q-12 -9.5 -23 -16.5 q-11 -7 -26 -15.5 q-15 -8.5 -28 -14 q-13 -5.5 -28.5 -9 q-15.5 -3.5 -29.5 -3.5 Z" /><glyph glyph-name="uacute" unicode="ú" d="M490 652 l-221 -97 l-22 60 l221 119 l23 -74 l-1 -8 ZM156 -10 q-54 0 -82.5 30 q-28.5 30 -28.5 88 q0 29 10 74 l65 308 l102 0 l-62 -301 q-7 -33 -7 -60 q0 -59 38 -59 q42 0 156 89 l70 331 l103 0 l-82 -389 l-10 -101 l-89 0 l-1 83 l-6 0 l-8 -7 q-8 -7 -14.5 -12.5 q-6.5 -5.5 -18.5 -15 q-12 -9.5 -23 -16.5 q-11 -7 -26 -15.5 q-15 -8.5 -28 -14 q-13 -5.5 -28.5 -9 q-15.5 -3.5 -29.5 -3.5 Z" /><glyph glyph-name="ucircumflex" unicode="û" d="M341 701 l42 0 l125 -101 l-1 -6 l-59 -43 l-101 78 l-135 -77 l-42 44 l0 4 l171 101 ZM156 -10 q-54 0 -82.5 30 q-28.5 30 -28.5 88 q0 29 10 74 l65 308 l102 0 l-62 -301 q-7 -33 -7 -60 q0 -59 38 -59 q42 0 156 89 l70 331 l103 0 l-82 -389 l-10 -101 l-89 0 l-1 83 l-6 0 l-8 -7 q-8 -7 -14.5 -12.5 q-6.5 -5.5 -18.5 -15 q-12 -9.5 -23 -16.5 q-11 -7 -26 -15.5 q-15 -8.5 -28 -14 q-13 -5.5 -28.5 -9 q-15.5 -3.5 -29.5 -3.5 Z" /><glyph glyph-name="udieresis" unicode="ü" d="M248 567 q-22 0 -34 12.5 q-12 12.5 -12 32.5 q0 29 20.5 49 q20.5 20 50.5 20 q20 0 32.5 -12.5 q12.5 -12.5 12.5 -32.5 q0 -30 -20.5 -49.5 q-20.5 -19.5 -49.5 -19.5 ZM419 567 q-21 0 -33 12.5 q-12 12.5 -12 32.5 q0 29 20.5 49 q20.5 20 49.5 20 q21 0 33.5 -12.5 q12.5 -12.5 12.5 -32.5 q0 -30 -20.5 -49.5 q-20.5 -19.5 -50.5 -19.5 ZM156 -10 q-54 0 -82.5 30 q-28.5 30 -28.5 88 q0 29 10 74 l65 308 l102 0 l-62 -301 q-7 -33 -7 -60 q0 -59 38 -59 q42 0 156 89 l70 331 l103 0 l-82 -389 l-10 -101 l-89 0 l-1 83 l-6 0 l-8 -7 q-8 -7 -14.5 -12.5 q-6.5 -5.5 -18.5 -15 q-12 -9.5 -23 -16.5 q-11 -7 -26 -15.5 q-15 -8.5 -28 -14 q-13 -5.5 -28.5 -9 q-15.5 -3.5 -29.5 -3.5 Z" /><glyph glyph-name="yacute" unicode="ý" d="M447 652 l-221 -97 l-22 60 l221 119 l23 -74 l-1 -8 ZM105 -231 l-77 29 l118 202 l-22 0 l-64 482 l2 8 l88 7 l47 -403 l7 0 l221 396 l99 0 l-1 -8 l-418 -713 Z" /><glyph glyph-name="thorn" unicode="þ" d="M84 -229 l-100 9 l199 932 l100 8 l1 -9 l-68 -308 l6 0 q110 96 173 96 q59 0 94 -48 q35 -48 35 -128 q0 -137 -72.5 -235.5 q-72.5 -98.5 -186.5 -98.5 l-130 20 l-51 -238 ZM249 66 q68 0 121.5 71.5 q53.5 71.5 53.5 174.5 q0 47 -19 77 q-19 30 -41 30 q-41 0 -163 -103 l-49 -232 l97 -18 Z" /><glyph glyph-name="ydieresis" unicode="ÿ" d="M205 567 q-21 0 -33.5 12.5 q-12.5 12.5 -12.5 32.5 q0 29 20.5 49 q20.5 20 50.5 20 q20 0 32.5 -12.5 q12.5 -12.5 12.5 -32.5 q0 -30 -20.5 -49.5 q-20.5 -19.5 -49.5 -19.5 ZM376 567 q-21 0 -33 12.5 q-12 12.5 -12 32.5 q0 29 20.5 49 q20.5 20 49.5 20 q21 0 33.5 -12.5 q12.5 -12.5 12.5 -32.5 q0 -30 -20.5 -49.5 q-20.5 -19.5 -50.5 -19.5 ZM105 -231 l-77 29 l118 202 l-22 0 l-64 482 l2 8 l88 7 l47 -403 l7 0 l221 396 l99 0 l-1 -8 l-418 -713 Z" /><glyph glyph-name="Amacron" unicode="&#x100;" d="M592 848 l-16 -73 l-278 0 l16 73 l278 0 ZM486 -10 l-21 193 l-281 0 l-99 -183 l-107 0 l384 690 l132 0 l91 -690 l-99 -10 ZM226 260 l231 0 l-27 232 q-1 3 -2.5 21.5 q-1.5 18.5 -3.5 43.5 q-2 25 -4 39 l-13 0 l-55 -105 l-126 -231 Z" /><glyph glyph-name="amacron" unicode="&#x101;" d="M489 659 l-15 -73 l-279 0 l16 73 l278 0 ZM33 168 q0 145 89 238.5 q89 93.5 204 93.5 q31 0 82.5 -14.5 q51.5 -14.5 79.5 -26.5 l-74 -358 l-10 -101 l-85 0 l-1 81 l-7 0 q-1 -1 -18.5 -15.5 q-17.5 -14.5 -31.5 -24.5 q-14 -10 -35 -23.5 q-21 -13.5 -43.5 -20.5 q-22.5 -7 -42.5 -7 q-44 0 -75.5 49 q-31.5 49 -31.5 129 ZM328 159 l51 252 q-31 13 -72 13 q-64 0 -120 -68 q-56 -68 -56 -170 q0 -51 14 -83.5 q14 -32.5 35 -32.5 q32 0 148 89 Z" /><glyph glyph-name="Abreve" unicode="&#x102;" d="M604 887 q-14 -63 -60.5 -103.5 q-46.5 -40.5 -111.5 -40.5 q-66 0 -96 40.5 q-30 40.5 -18 103.5 l70 0 q-5 -78 58 -78 q59 0 88 78 l70 0 ZM486 -10 l-21 193 l-281 0 l-99 -183 l-107 0 l384 690 l132 0 l91 -690 l-99 -10 ZM226 260 l231 0 l-27 232 q-1 3 -2.5 21.5 q-1.5 18.5 -3.5 43.5 q-2 25 -4 39 l-13 0 l-55 -105 l-126 -231 Z" /><glyph glyph-name="abreve" unicode="&#x103;" d="M441 591 q-51 -42 -119 -42 q-68 0 -102 41.5 q-34 41.5 -21 109.5 l79 0 q-1 -36 13.5 -57.5 q14.5 -21.5 44.5 -21.5 q30 0 54 22 q24 22 37 57 l80 0 q-15 -67 -66 -109 ZM33 168 q0 145 89 238.5 q89 93.5 204 93.5 q31 0 82.5 -14.5 q51.5 -14.5 79.5 -26.5 l-74 -358 l-10 -101 l-85 0 l-1 81 l-7 0 q-1 -1 -18.5 -15.5 q-17.5 -14.5 -31.5 -24.5 q-14 -10 -35 -23.5 q-21 -13.5 -43.5 -20.5 q-22.5 -7 -42.5 -7 q-44 0 -75.5 49 q-31.5 49 -31.5 129 ZM328 159 l51 252 q-31 13 -72 13 q-64 0 -120 -68 q-56 -68 -56 -170 q0 -51 14 -83.5 q14 -32.5 35 -32.5 q32 0 148 89 Z" /><glyph glyph-name="Aogonek" unicode="&#x104;" d="M502 -121 q0 -28 27 -28 q12 0 26 2 l0 -54 q-23 -10 -52 -10 q-33 0 -52 19.5 q-19 19.5 -19 51.5 q0 35 20 71 q20 36 51 61 l-17 -2 l-21 193 l-281 0 l-99 -183 l-107 0 l384 690 l132 0 l91 -690 q-35 -23 -59 -56.5 q-24 -33.5 -24 -64.5 ZM226 260 l231 0 l-27 232 q-1 3 -2.5 21.5 q-1.5 18.5 -3.5 43.5 q-2 25 -4 39 l-13 0 l-55 -105 l-126 -231 Z" /><glyph glyph-name="aogonek" unicode="&#x105;" d="M326 500 q31 0 82.5 -14.5 q51.5 -14.5 79.5 -26.5 l-74 -358 l-10 -101 q-35 -23 -59 -56.5 q-24 -33.5 -24 -64.5 q0 -28 27 -28 q12 0 26 2 l0 -54 q-23 -10 -52 -10 q-33 0 -52 19.5 q-19 19.5 -19 51.5 q0 38 23.5 77 q23.5 39 58.5 63 l-14 0 l-1 81 l-7 0 q-1 -1 -18.5 -15.5 q-17.5 -14.5 -31.5 -24.5 q-14 -10 -35 -23.5 q-21 -13.5 -43.5 -20.5 q-22.5 -7 -42.5 -7 q-44 0 -75.5 49 q-31.5 49 -31.5 129 q0 145 89 238.5 q89 93.5 204 93.5 ZM180 70 q32 0 148 89 l51 252 q-31 13 -72 13 q-64 0 -120 -68 q-56 -68 -56 -170 q0 -51 14 -83.5 q14 -32.5 35 -32.5 Z" /><glyph glyph-name="Cacute" unicode="&#x106;" d="M606 812 l-201 -70 l-38 67 l190 96 l49 -85 l0 -8 ZM323 -10 q-131 0 -199 64 q-68 64 -68 184 q0 197 107 323.5 q107 126.5 278 138.5 q64 0 187 -25 l-19 -86 q-115 24 -177 27 q-119 -12 -194.5 -113 q-75.5 -101 -75.5 -252 q0 -84 45 -129.5 q45 -45.5 128 -45.5 q69 0 188 51 l-5 -90 q-124 -47 -195 -47 Z" /><glyph glyph-name="cacute" unicode="&#x107;" d="M485 652 l-221 -97 l-22 60 l221 119 l23 -74 l-1 -8 ZM221 -10 q-93 0 -143.5 51.5 q-50.5 51.5 -50.5 141.5 q0 138 81 227.5 q81 89.5 211 89.5 q34 0 116 -23 l-26 -79 q-20 8 -53 16 q-33 8 -44 8 q-86 0 -136.5 -65.5 q-50.5 -65.5 -50.5 -159.5 q0 -58 29 -93.5 q29 -35.5 79 -35.5 q42 0 135 60 l26 -65 q-102 -73 -173 -73 Z" /><glyph glyph-name="Cdotaccent" unicode="&#x10a;" d="M468 758 q-40 0 -40 43 q0 28 18.5 48 q18.5 20 44.5 20 q41 0 41 -43 q0 -28 -19 -48 q-19 -20 -45 -20 ZM323 -10 q-131 0 -199 64 q-68 64 -68 184 q0 197 107 323.5 q107 126.5 278 138.5 q64 0 187 -25 l-19 -86 q-115 24 -177 27 q-119 -12 -194.5 -113 q-75.5 -101 -75.5 -252 q0 -84 45 -129.5 q45 -45.5 128 -45.5 q69 0 188 51 l-5 -90 q-124 -47 -195 -47 Z" /><glyph glyph-name="cdotaccent" unicode="&#x10b;" d="M323 589 q-23 0 -36 13 q-13 13 -13 34 q0 31 22 52.5 q22 21.5 54 21.5 q24 0 37 -13 q13 -13 13 -35 q0 -32 -22 -52.5 q-22 -20.5 -55 -20.5 ZM221 -10 q-93 0 -143.5 51.5 q-50.5 51.5 -50.5 141.5 q0 138 81 227.5 q81 89.5 211 89.5 q34 0 116 -23 l-26 -79 q-20 8 -53 16 q-33 8 -44 8 q-86 0 -136.5 -65.5 q-50.5 -65.5 -50.5 -159.5 q0 -58 29 -93.5 q29 -35.5 79 -35.5 q42 0 135 60 l26 -65 q-102 -73 -173 -73 Z" /><glyph glyph-name="Ccaron" unicode="&#x10c;" d="M443 741 l-128 100 l1 7 l68 43 l97 -76 l130 77 l50 -43 l-2 -7 l-168 -101 l-48 0 ZM323 -10 q-131 0 -199 64 q-68 64 -68 184 q0 197 107 323.5 q107 126.5 278 138.5 q64 0 187 -25 l-19 -86 q-115 24 -177 27 q-119 -12 -194.5 -113 q-75.5 -101 -75.5 -252 q0 -84 45 -129.5 q45 -45.5 128 -45.5 q69 0 188 51 l-5 -90 q-124 -47 -195 -47 Z" /><glyph glyph-name="ccaron" unicode="&#x10d;" d="M291 552 l-128 100 l1 5 l61 44 l102 -77 l134 78 l41 -43 l-2 -7 l-168 -100 l-41 0 ZM221 -10 q-93 0 -143.5 51.5 q-50.5 51.5 -50.5 141.5 q0 138 81 227.5 q81 89.5 211 89.5 q34 0 116 -23 l-26 -79 q-20 8 -53 16 q-33 8 -44 8 q-86 0 -136.5 -65.5 q-50.5 -65.5 -50.5 -159.5 q0 -58 29 -93.5 q29 -35.5 79 -35.5 q42 0 135 60 l26 -65 q-102 -73 -173 -73 Z" /><glyph glyph-name="Dcaron" unicode="&#x10e;" d="M365 741 l-128 100 l1 7 l68 43 l97 -76 l130 77 l50 -43 l-2 -7 l-168 -101 l-48 0 ZM245 -6 l-199 6 l148 691 l193 6 q131 0 208.5 -73 q77.5 -73 77.5 -195 q0 -196 -114 -312.5 q-114 -116.5 -314 -122.5 ZM262 75 q141 4 223 96 q82 92 82 242 q0 92 -55.5 149 q-55.5 57 -144.5 54 l-87 -2 l-113 -537 l95 -2 Z" /><glyph glyph-name="dcaron" unicode="&#x10f;" d="M636 731 q20 0 32 -11 q12 -11 12 -30 q0 -33 -26 -76.5 q-26 -43.5 -57 -76.5 l-42 8 q2 2 11.5 15.5 q9.5 13.5 13 19 q3.5 5.5 9.5 16 q6 10.5 8.5 19 q2.5 8.5 2.5 16.5 q-29 6 -29 37 q0 26 19.5 44.5 q19.5 18.5 45.5 18.5 ZM140 -10 q-49 0 -81.5 48 q-32.5 48 -32.5 129 q0 145 90 239 q90 94 207 94 q26 0 76 -18 l50 231 l99 8 l2 -9 l-130 -612 l-10 -100 l-89 0 l-1 81 l-8 0 q-3 -2 -19.5 -16 q-16.5 -14 -31 -24.5 q-14.5 -10.5 -35.5 -23 q-21 -12.5 -43 -20 q-22 -7.5 -43 -7.5 ZM174 70 q35 0 156 87 l53 250 q-64 16 -77 16 q-67 0 -123.5 -67.5 q-56.5 -67.5 -56.5 -170.5 q0 -115 48 -115 Z" /><glyph glyph-name="Dcroat" unicode="&#x110;" d="M391 697 q131 0 209 -73 q78 -73 78 -195 q0 -196 -114.5 -312.5 q-114.5 -116.5 -314.5 -122.5 l-199 6 l66 309 l-62 0 l16 77 l63 0 l65 305 l193 6 ZM266 77 q141 4 223 95 q82 91 82 241 q0 91 -55 146.5 q-55 55.5 -145 54.5 l-86 -2 l-48 -226 l175 0 l-17 -77 l-174 0 l-49 -230 l94 -2 Z" /><glyph glyph-name="dcroat" unicode="&#x111;" d="M655 636 l-13 -68 l-123 0 l-99 -468 l-10 -100 l-89 0 l-1 81 l-8 0 q-3 -2 -19.5 -16 q-16.5 -14 -31 -24.5 q-14.5 -10.5 -35.5 -23 q-21 -12.5 -43 -20 q-22 -7.5 -43 -7.5 q-49 0 -81.5 48 q-32.5 48 -32.5 129 q0 145 90 239 q90 94 207 94 q26 0 76 -18 l19 86 l-106 0 l13 68 l107 0 l17 77 l99 8 l2 -9 l-16 -76 l121 0 ZM330 157 l53 250 q-64 16 -77 16 q-67 0 -123.5 -67.5 q-56.5 -67.5 -56.5 -170.5 q0 -115 48 -115 q35 0 156 87 Z" /><glyph glyph-name="Emacron" unicode="&#x112;" d="M560 848 l-16 -73 l-278 0 l16 73 l278 0 ZM582 610 l-303 0 l-48 -226 l252 0 l-16 -77 l-252 0 l-48 -227 l342 0 l-20 -80 l-443 0 l147 690 l406 0 l-17 -80 Z" /><glyph glyph-name="emacron" unicode="&#x113;" d="M179 659 l278 0 l-15 -73 l-279 0 l16 73 ZM302 500 q68 0 103 -32 q35 -32 35 -83 q0 -52 -30 -89.5 q-30 -37.5 -78.5 -56 q-48.5 -18.5 -95.5 -27 q-47 -8.5 -94 -8.5 l-17 0 l0 -5 q0 -58 27.5 -95.5 q27.5 -37.5 73.5 -37.5 q25 0 68.5 21.5 q43.5 21.5 70.5 39.5 l23 -62 q-1 -1 -13 -8.5 q-12 -7.5 -24 -15 q-12 -7.5 -31.5 -17 q-19.5 -9.5 -37.5 -17 q-18 -7.5 -39 -12.5 q-21 -5 -39 -5 q-82 0 -126.5 56.5 q-44.5 56.5 -44.5 144.5 q0 132 74 220.5 q74 88.5 195 88.5 ZM150 268 q33 0 65.5 5 q32.5 5 65 16 q32.5 11 53 32.5 q20.5 21.5 20.5 51.5 q0 26 -19.5 41.5 q-19.5 15.5 -52.5 15.5 q-52 0 -93.5 -44 q-41.5 -44 -56.5 -118 l18 0 Z" /><glyph glyph-name="Edotaccent" unicode="&#x116;" d="M402 758 q-40 0 -40 43 q0 28 18.5 48 q18.5 20 44.5 20 q41 0 41 -43 q0 -28 -19 -48 q-19 -20 -45 -20 ZM582 610 l-303 0 l-48 -226 l252 0 l-16 -77 l-252 0 l-48 -227 l342 0 l-20 -80 l-443 0 l147 690 l406 0 l-17 -80 Z" /><glyph glyph-name="edotaccent" unicode="&#x117;" d="M300 589 q-23 0 -36 13 q-13 13 -13 34 q0 31 22 52.5 q22 21.5 54 21.5 q24 0 37 -13 q13 -13 13 -35 q0 -32 -22 -52.5 q-22 -20.5 -55 -20.5 ZM142 204 l-17 0 l0 -5 q0 -58 27.5 -95.5 q27.5 -37.5 73.5 -37.5 q25 0 68.5 21.5 q43.5 21.5 70.5 39.5 l23 -62 q-1 -1 -13 -8.5 q-12 -7.5 -24 -15 q-12 -7.5 -31.5 -17 q-19.5 -9.5 -37.5 -17 q-18 -7.5 -39 -12.5 q-21 -5 -39 -5 q-82 0 -126.5 56.5 q-44.5 56.5 -44.5 144.5 q0 132 74 220.5 q74 88.5 195 88.5 q68 0 103 -32 q35 -32 35 -83 q0 -52 -30 -89.5 q-30 -37.5 -78.5 -56 q-48.5 -18.5 -95.5 -27 q-47 -8.5 -94 -8.5 ZM282 430 q-52 0 -93.5 -44 q-41.5 -44 -56.5 -118 l18 0 q33 0 65.5 5 q32.5 5 65 16 q32.5 11 53 32.5 q20.5 21.5 20.5 51.5 q0 26 -19.5 41.5 q-19.5 15.5 -52.5 15.5 Z" /><glyph glyph-name="Eogonek" unicode="&#x118;" d="M582 610 l-303 0 l-48 -226 l252 0 l-16 -77 l-252 0 l-48 -227 l342 0 l-20 -80 q-35 -23 -59 -56.5 q-24 -33.5 -24 -64.5 q0 -28 27 -28 q12 0 26 2 l0 -54 q-23 -10 -52 -10 q-33 0 -52 19.5 q-19 19.5 -19 51.5 q0 38 23.5 77 q23.5 39 58.5 63 l-372 0 l147 690 l406 0 l-17 -80 Z" /><glyph glyph-name="eogonek" unicode="&#x119;" d="M142 204 l-17 0 l0 -5 q0 -58 27.5 -95.5 q27.5 -37.5 73.5 -37.5 q25 0 68.5 21.5 q43.5 21.5 70.5 39.5 l23 -62 q-13 -9 -21 -13 l2 0 q-35 -26 -59 -65 q-24 -39 -24 -75 q0 -32 27 -32 q12 0 26 2 l0 -62 q-22 -11 -52 -11 q-33 0 -52 22 q-19 22 -19 59 q0 53 33 107 q-26 -7 -45 -7 q-82 0 -126.5 56.5 q-44.5 56.5 -44.5 144.5 q0 132 74 220.5 q74 88.5 195 88.5 q68 0 103 -32 q35 -32 35 -83 q0 -52 -30 -89.5 q-30 -37.5 -78.5 -56 q-48.5 -18.5 -95.5 -27 q-47 -8.5 -94 -8.5 ZM282 430 q-52 0 -93.5 -44 q-41.5 -44 -56.5 -118 l18 0 q33 0 65.5 5 q32.5 5 65 16 q32.5 11 53 32.5 q20.5 21.5 20.5 51.5 q0 26 -19.5 41.5 q-19.5 15.5 -52.5 15.5 Z" /><glyph glyph-name="Ecaron" unicode="&#x11a;" d="M425 741 l-48 0 l-128 100 l1 7 l68 43 l97 -76 l130 77 l50 -43 l-2 -7 l-168 -101 ZM582 610 l-303 0 l-48 -226 l252 0 l-16 -77 l-252 0 l-48 -227 l342 0 l-20 -80 l-443 0 l147 690 l406 0 l-17 -80 Z" /><glyph glyph-name="ecaron" unicode="&#x11b;" d="M438 702 l41 -43 l-2 -7 l-168 -100 l-41 0 l-128 100 l1 5 l61 44 l102 -77 l134 78 ZM302 500 q68 0 103 -32 q35 -32 35 -83 q0 -52 -30 -89.5 q-30 -37.5 -78.5 -56 q-48.5 -18.5 -95.5 -27 q-47 -8.5 -94 -8.5 l-17 0 l0 -5 q0 -58 27.5 -95.5 q27.5 -37.5 73.5 -37.5 q25 0 68.5 21.5 q43.5 21.5 70.5 39.5 l23 -62 q-1 -1 -13 -8.5 q-12 -7.5 -24 -15 q-12 -7.5 -31.5 -17 q-19.5 -9.5 -37.5 -17 q-18 -7.5 -39 -12.5 q-21 -5 -39 -5 q-82 0 -126.5 56.5 q-44.5 56.5 -44.5 144.5 q0 132 74 220.5 q74 88.5 195 88.5 ZM150 268 q33 0 65.5 5 q32.5 5 65 16 q32.5 11 53 32.5 q20.5 21.5 20.5 51.5 q0 26 -19.5 41.5 q-19.5 15.5 -52.5 15.5 q-52 0 -93.5 -44 q-41.5 -44 -56.5 -118 l18 0 Z" /><glyph glyph-name="Gbreve" unicode="&#x11e;" d="M630 887 q-14 -63 -60.5 -103.5 q-46.5 -40.5 -111.5 -40.5 q-66 0 -96 40.5 q-30 40.5 -18 103.5 l70 0 q-5 -78 58 -78 q59 0 88 78 l70 0 ZM325 -10 q-129 0 -198.5 64 q-69.5 64 -69.5 188 q0 121 47 223.5 q47 102.5 135 166 q88 63.5 200 68.5 q38 0 112.5 -10.5 q74.5 -10.5 99.5 -18.5 l-21 -87 q-23 7 -94 18 q-71 11 -106 12 q-113 -8 -191 -112 q-78 -104 -78 -251 q0 -86 45.5 -130.5 q45.5 -44.5 128.5 -44.5 q59 0 130 30 l45 201 l94 0 l-57 -260 q-127 -57 -222 -57 Z" /><glyph glyph-name="gbreve" unicode="&#x11f;" d="M427 591 q-51 -42 -119 -42 q-68 0 -102 41.5 q-34 41.5 -21 109.5 l79 0 q-1 -36 13.5 -57.5 q14.5 -21.5 44.5 -21.5 q30 0 54 22 q24 22 37 57 l80 0 q-15 -67 -66 -109 ZM374 489 l189 5 l-15 -74 l-54 0 l-40 2 q13 -29 13 -62 q0 -91 -66.5 -152 q-66.5 -61 -162.5 -61 q-32 0 -57 6 q-37 -25 -37 -53 q0 -21 41 -25 l126 -14 q133 -14 133 -107 q0 -55 -43 -98 q-43 -43 -107 -64 q-64 -21 -135 -21 q-92 0 -148 31.5 q-56 31.5 -56 86.5 q0 45 34 81.5 q34 36.5 82 56.5 l3 9 q-14 14 -14 38 q0 54 59 96 l4 9 q-52 38 -52 109 q0 91 67 151.5 q67 60.5 165 60.5 q38 0 71 -11 ZM243 219 q56 0 96 40.5 q40 40.5 40 92.5 q0 34 -22 54.5 q-22 20.5 -61 20.5 q-56 0 -96 -39 q-40 -39 -40 -92 q0 -35 21.5 -56 q21.5 -21 61.5 -21 ZM287 -12 l-121 12 q-13 1 -28 5 q-40 -17 -65.5 -42 q-25.5 -25 -25.5 -53 q0 -29 33 -44.5 q33 -15.5 92 -15.5 q69 0 126 25.5 q57 25.5 57 67.5 q0 37 -68 45 Z" /><glyph glyph-name="Gdotaccent" unicode="&#x120;" d="M460 758 q-40 0 -40 43 q0 28 18.5 48 q18.5 20 44.5 20 q41 0 41 -43 q0 -28 -19 -48 q-19 -20 -45 -20 ZM325 -10 q-129 0 -198.5 64 q-69.5 64 -69.5 188 q0 121 47 223.5 q47 102.5 135 166 q88 63.5 200 68.5 q38 0 112.5 -10.5 q74.5 -10.5 99.5 -18.5 l-21 -87 q-23 7 -94 18 q-71 11 -106 12 q-113 -8 -191 -112 q-78 -104 -78 -251 q0 -86 45.5 -130.5 q45.5 -44.5 128.5 -44.5 q59 0 130 30 l45 201 l94 0 l-57 -260 q-127 -57 -222 -57 Z" /><glyph glyph-name="gdotaccent" unicode="&#x121;" d="M318 589 q-23 0 -36 13 q-13 13 -13 34 q0 31 22 52.5 q22 21.5 54 21.5 q24 0 37 -13 q13 -13 13 -35 q0 -32 -22 -52.5 q-22 -20.5 -55 -20.5 ZM374 489 l189 5 l-15 -74 l-54 0 l-40 2 q13 -29 13 -62 q0 -91 -66.5 -152 q-66.5 -61 -162.5 -61 q-32 0 -57 6 q-37 -25 -37 -53 q0 -21 41 -25 l126 -14 q133 -14 133 -107 q0 -55 -43 -98 q-43 -43 -107 -64 q-64 -21 -135 -21 q-92 0 -148 31.5 q-56 31.5 -56 86.5 q0 45 34 81.5 q34 36.5 82 56.5 l3 9 q-14 14 -14 38 q0 54 59 96 l4 9 q-52 38 -52 109 q0 91 67 151.5 q67 60.5 165 60.5 q38 0 71 -11 ZM243 219 q56 0 96 40.5 q40 40.5 40 92.5 q0 34 -22 54.5 q-22 20.5 -61 20.5 q-56 0 -96 -39 q-40 -39 -40 -92 q0 -35 21.5 -56 q21.5 -21 61.5 -21 ZM287 -12 l-121 12 q-13 1 -28 5 q-40 -17 -65.5 -42 q-25.5 -25 -25.5 -53 q0 -29 33 -44.5 q33 -15.5 92 -15.5 q69 0 126 25.5 q57 25.5 57 67.5 q0 37 -68 45 Z" /><glyph glyph-name="Gcommaaccent" unicode="&#x122;" d="M325 -10 q-129 0 -198.5 64 q-69.5 64 -69.5 188 q0 121 47 223.5 q47 102.5 135 166 q88 63.5 200 68.5 q38 0 112.5 -10.5 q74.5 -10.5 99.5 -18.5 l-21 -87 q-23 7 -94 18 q-71 11 -106 12 q-113 -8 -191 -112 q-78 -104 -78 -251 q0 -86 45.5 -130.5 q45.5 -44.5 128.5 -44.5 q59 0 130 30 l45 201 l94 0 l-57 -260 q-127 -57 -222 -57 ZM307 -44 q20 0 31.5 -11 q11.5 -11 11.5 -30 q0 -33 -25.5 -76 q-25.5 -43 -56.5 -77 l-42 8 q2 2 10 13.5 q8 11.5 10.5 15 q2.5 3.5 8.5 13.5 q6 10 8 15.5 q2 5.5 4.5 13.5 q2.5 8 2.5 14 q-28 7 -28 38 q0 26 19 44.5 q19 18.5 46 18.5 Z" /><glyph glyph-name="gcommaaccent" unicode="&#x123;" d="M305 564 q-22 0 -35 11 q-13 11 -13 30 q0 33 28.5 76 q28.5 43 63.5 77 l47 -8 q-2 -3 -10.5 -13.5 q-8.5 -10.5 -12 -15 q-3.5 -4.5 -9.5 -13.5 q-6 -9 -9 -15 q-3 -6 -5.5 -14 q-2.5 -8 -2.5 -14 q31 -7 31 -38 q0 -26 -21.5 -44.5 q-21.5 -18.5 -51.5 -18.5 ZM374 489 l189 5 l-15 -74 l-54 0 l-40 2 q13 -29 13 -62 q0 -91 -66.5 -152 q-66.5 -61 -162.5 -61 q-32 0 -57 6 q-37 -25 -37 -53 q0 -21 41 -25 l126 -14 q133 -14 133 -107 q0 -55 -43 -98 q-43 -43 -107 -64 q-64 -21 -135 -21 q-92 0 -148 31.5 q-56 31.5 -56 86.5 q0 45 34 81.5 q34 36.5 82 56.5 l3 9 q-14 14 -14 38 q0 54 59 96 l4 9 q-52 38 -52 109 q0 91 67 151.5 q67 60.5 165 60.5 q38 0 71 -11 ZM243 219 q56 0 96 40.5 q40 40.5 40 92.5 q0 34 -22 54.5 q-22 20.5 -61 20.5 q-56 0 -96 -39 q-40 -39 -40 -92 q0 -35 21.5 -56 q21.5 -21 61.5 -21 ZM287 -12 l-121 12 q-13 1 -28 5 q-40 -17 -65.5 -42 q-25.5 -25 -25.5 -53 q0 -29 33 -44.5 q33 -15.5 92 -15.5 q69 0 126 25.5 q57 25.5 57 67.5 q0 37 -68 45 Z" /><glyph glyph-name="Hbar" unicode="&#x126;" d="M790 691 l-24 -111 l73 0 l-15 -68 l-73 0 l-108 -512 l-105 0 l63 299 l-320 0 l-64 -299 l-104 0 l108 512 l-72 0 l15 68 l73 0 l23 111 l104 0 l-23 -111 l321 0 l23 111 l105 0 ZM647 512 l-321 0 l-26 -128 l320 0 l27 128 Z" /><glyph glyph-name="hbar" unicode="&#x127;" d="M391 500 q53 0 80.5 -30 q27.5 -30 27.5 -88 q0 -29 -10 -74 l-45 -215 l-7 -93 l-103 0 l10 103 l41 196 q7 33 7 59 q0 60 -36 60 q-10 0 -22.5 -4 q-12.5 -4 -27 -12.5 q-14.5 -8.5 -27 -16.5 q-12.5 -8 -28 -19.5 q-15.5 -11.5 -23.5 -18 q-8 -6.5 -20 -16.5 l-13 -10 l-68 -321 l-103 0 l121 568 l-90 0 l6 68 l99 0 l16 77 l99 8 l3 -8 l-16 -77 l137 0 l-6 -68 l-146 0 l-36 -171 l1 0 q4 3 28.5 23.5 q24.5 20.5 44.5 36 q20 15.5 50.5 29.5 q30.5 14 55.5 14 Z" /><glyph glyph-name="Itilde" unicode="&#x128;" d="M317 757 q-27 0 -50 19 q-23 19 -42 19 q-33 0 -80 -36 l-30 41 q62 59 129 59 q29 0 53.5 -18.5 q24.5 -18.5 41.5 -18.5 q38 0 78 35 l27 -45 q-60 -55 -127 -55 ZM302 690 l-147 -690 l-103 0 l146 690 l104 0 Z" /><glyph glyph-name="itilde" unicode="&#x129;" d="M79 579 l-56 20 q20 44 52.5 70.5 q32.5 26.5 67.5 26.5 q27 0 61 -19.5 q34 -19.5 48 -19.5 q31 0 56 39 l56 -22 q-19 -41 -51.5 -67 q-32.5 -26 -67.5 -26 q-28 0 -60.5 19 q-32.5 19 -47.5 19 q-15 0 -31.5 -11 q-16.5 -11 -26.5 -29 ZM27 0 l9 102 l83 388 l101 8 l1 -9 l-83 -394 l-7 -95 l-104 0 Z" /><glyph glyph-name="Imacron" unicode="&#x12a;" d="M419 848 l-16 -73 l-278 0 l16 73 l278 0 ZM302 690 l-147 -690 l-103 0 l146 690 l104 0 Z" /><glyph glyph-name="imacron" unicode="&#x12b;" d="M341 659 l-15 -73 l-279 0 l16 73 l278 0 ZM27 0 l9 102 l83 388 l101 8 l1 -9 l-83 -394 l-7 -95 l-104 0 Z" /><glyph glyph-name="Iogonek" unicode="&#x12e;" d="M155 0 q-35 -23 -59 -56.5 q-24 -33.5 -24 -64.5 q0 -28 27 -28 q12 0 26 2 l0 -54 q-23 -10 -52 -10 q-33 0 -52 19.5 q-19 19.5 -19 51.5 q0 38 23.5 77 q23.5 39 58.5 63 l-32 0 l146 690 l104 0 l-147 -690 Z" /><glyph glyph-name="iogonek" unicode="&#x12f;" d="M219 711 q23 0 36.5 -13.5 q13.5 -13.5 13.5 -34.5 q0 -31 -22 -51.5 q-22 -20.5 -54 -20.5 q-23 0 -36.5 13 q-13.5 13 -13.5 35 q0 31 22 51.5 q22 20.5 54 20.5 ZM120 490 l101 8 l1 -9 l-82 -394 l-7 -95 q-35 -23 -59 -56.5 q-24 -33.5 -24 -64.5 q0 -28 27 -28 q12 0 26 2 l0 -54 q-23 -10 -52 -10 q-33 0 -52 19.5 q-19 19.5 -19 51.5 q0 38 23.5 77 q23.5 39 58.5 63 l-33 0 l8 102 l83 388 Z" /><glyph glyph-name="Idotaccent" unicode="&#x130;" d="M261 758 q-40 0 -40 43 q0 28 18.5 48 q18.5 20 44.5 20 q41 0 41 -43 q0 -28 -19 -48 q-19 -20 -45 -20 ZM302 690 l-147 -690 l-103 0 l146 690 l104 0 Z" /><glyph glyph-name="dotlessi" unicode="&#x131;" d="M27 0 l9 102 l83 388 l101 8 l1 -9 l-83 -394 l-7 -95 l-104 0 Z" /><glyph glyph-name="IJ" unicode="&#x132;" d="M302 690 l-147 -690 l-103 0 l146 690 l104 0 ZM740 690 l-114 -536 q-16 -76 -69 -120 q-53 -44 -131 -44 q-39 0 -73 9 q-34 9 -44 17 l36 78 q9 -5 35.5 -10.5 q26.5 -5.5 50.5 -5.5 q36 0 60.5 22.5 q24.5 22.5 32.5 61.5 l112 528 l104 0 Z" /><glyph glyph-name="ij" unicode="&#x133;" d="M193 591 q-23 0 -36.5 13 q-13.5 13 -13.5 35 q0 31 22 51.5 q22 20.5 54 20.5 q23 0 36.5 -13.5 q13.5 -13.5 13.5 -34.5 q0 -31 -22 -51.5 q-22 -20.5 -54 -20.5 ZM464 591 q-25 0 -39.5 13.5 q-14.5 13.5 -14.5 36.5 q0 30 20.5 50 q20.5 20 51.5 20 q25 0 39.5 -14 q14.5 -14 14.5 -37 q0 -30 -20.5 -49.5 q-20.5 -19.5 -51.5 -19.5 ZM29 0 l8 102 l83 388 l101 8 l1 -9 l-82 -394 l-7 -95 l-104 0 ZM145 -230 l1 81 q68 11 98.5 54 q30.5 43 51.5 150 l92 435 l101 8 l2 -8 l-99 -460 q-26 -135 -85 -195.5 q-59 -60.5 -162 -64.5 Z" /><glyph glyph-name="Kcommaaccent" unicode="&#x136;" d="M661 669 l-300 -320 l-1 -7 l207 -334 l-1 -8 l-99 -11 l-191 309 l-64 -5 l-62 -293 l-103 0 l146 690 l103 0 l-65 -308 l50 5 l281 303 l102 -10 l-3 -11 ZM293 -44 q20 0 31.5 -11 q11.5 -11 11.5 -30 q0 -33 -25.5 -76 q-25.5 -43 -56.5 -77 l-42 8 q2 2 10 13.5 q8 11.5 10.5 15 q2.5 3.5 8.5 13.5 q6 10 8 15.5 q2 5.5 4.5 13.5 q2.5 8 2.5 14 q-28 7 -28 38 q0 26 19 44.5 q19 18.5 46 18.5 Z" /><glyph glyph-name="kcommaaccent" unicode="&#x137;" d="M358 -7 l-156 229 l-44 -4 l-27 -128 l-6 -90 l-101 0 l7 95 l132 618 l101 8 l1 -10 l-90 -413 l34 3 q108 90 214 196 l106 -7 l-2 -8 q-132 -130 -241 -219 l0 -6 l171 -248 l-2 -8 l-97 -8 ZM229 -44 q20 0 31.5 -11 q11.5 -11 11.5 -30 q0 -33 -25.5 -76 q-25.5 -43 -56.5 -77 l-42 8 q2 2 10 13.5 q8 11.5 10.5 15 q2.5 3.5 8.5 13.5 q6 10 8 15.5 q2 5.5 4.5 13.5 q2.5 8 2.5 14 q-28 7 -28 38 q0 26 19 44.5 q19 18.5 46 18.5 Z" /><glyph glyph-name="kgreenlandic" unicode="&#x138;" d="M509 482 l-221 -227 l-1 -4 l143 -243 l-2 -8 l-108 0 l-123 212 l-25 0 l-45 -212 l-103 0 l104 490 l103 0 l-44 -205 l25 0 l195 205 l103 0 l-1 -8 Z" /><glyph glyph-name="Lacute" unicode="&#x139;" d="M407 812 l-201 -70 l-38 67 l190 96 l49 -85 l0 -8 ZM297 690 l-128 -610 l330 0 l-24 -80 l-429 0 l147 690 l104 0 Z" /><glyph glyph-name="lacute" unicode="&#x13a;" d="M395 882 l-221 -97 l-22 60 l221 119 l23 -74 l-1 -8 ZM31 0 l8 99 l131 614 l101 8 l2 -9 l-131 -619 l-7 -93 l-104 0 Z" /><glyph glyph-name="Lcommaaccent" unicode="&#x13b;" d="M297 690 l-128 -610 l330 0 l-24 -80 l-429 0 l147 690 l104 0 ZM257 -44 q20 0 31.5 -11 q11.5 -11 11.5 -30 q0 -33 -25.5 -76 q-25.5 -43 -56.5 -77 l-42 8 q2 2 10 13.5 q8 11.5 10.5 15 q2.5 3.5 8.5 13.5 q6 10 8 15.5 q2 5.5 4.5 13.5 q2.5 8 2.5 14 q-28 7 -28 38 q0 26 19 44.5 q19 18.5 46 18.5 Z" /><glyph glyph-name="lcommaaccent" unicode="&#x13c;" d="M31 0 l8 99 l131 614 l101 8 l2 -9 l-131 -619 l-7 -93 l-104 0 ZM77 -44 q20 0 31.5 -11 q11.5 -11 11.5 -30 q0 -33 -25.5 -76 q-25.5 -43 -56.5 -77 l-42 8 q2 2 10 13.5 q8 11.5 10.5 15 q2.5 3.5 8.5 13.5 q6 10 8 15.5 q2 5.5 4.5 13.5 q2.5 8 2.5 14 q-28 7 -28 38 q0 26 19 44.5 q19 18.5 46 18.5 Z" /><glyph glyph-name="Lcaron" unicode="&#x13d;" d="M508 695 q20 0 31.5 -11 q11.5 -11 11.5 -30 q0 -33 -25.5 -76 q-25.5 -43 -56.5 -77 l-42 8 q2 2 10 13.5 q8 11.5 10.5 15 q2.5 3.5 8.5 13.5 q6 10 8 15.5 q2 5.5 4.5 13.5 q2.5 8 2.5 14 q-28 7 -28 38 q0 26 19 44.5 q19 18.5 46 18.5 ZM297 690 l-128 -610 l330 0 l-24 -80 l-429 0 l147 690 l104 0 Z" /><glyph glyph-name="lcaron" unicode="&#x13e;" d="M362 731 q20 0 32 -11 q12 -11 12 -30 q0 -33 -26 -76.5 q-26 -43.5 -57 -76.5 l-42 8 q2 2 11.5 15.5 q9.5 13.5 13 19 q3.5 5.5 9.5 16 q6 10.5 8.5 19 q2.5 8.5 2.5 16.5 q-29 6 -29 37 q0 26 19.5 44.5 q19.5 18.5 45.5 18.5 ZM31 0 l8 99 l131 614 l101 8 l2 -9 l-131 -619 l-7 -93 l-104 0 Z" /><glyph glyph-name="Ldot" unicode="&#x13f;" d="M298 690 l-129 -608 l330 0 l-25 -82 l-428 0 l147 690 l105 0 ZM421 388 q29 0 45.5 -17 q16.5 -17 16.5 -45 q0 -31 -19.5 -50.5 q-19.5 -19.5 -51.5 -19.5 q-28 0 -44 16.5 q-16 16.5 -16 44.5 q0 32 19 51.5 q19 19.5 50 19.5 Z" /><glyph glyph-name="ldot" unicode="&#x140;" d="M31 0 l8 99 l131 614 l101 8 l2 -9 l-131 -619 l-7 -93 l-104 0 ZM300 254 q-23 0 -36.5 14 q-13.5 14 -13.5 37 q0 34 23 57.5 q23 23.5 55 23.5 q24 0 38 -14 q14 -14 14 -38 q0 -34 -23 -57 q-23 -23 -57 -23 Z" /><glyph glyph-name="Lslash" unicode="&#x141;" d="M292 690 l-56 -263 l110 77 l31 -56 l-161 -109 l-53 -256 l328 0 l-26 -83 l-424 0 l55 265 l-75 -55 l-31 57 l125 86 l72 337 l105 0 Z" /><glyph glyph-name="lslash" unicode="&#x142;" d="M342 407 l-131 -73 l-51 -241 l-7 -93 l-104 0 l8 99 l36 170 l-84 -47 l-29 57 l131 72 l77 362 l101 8 l2 -9 l-63 -296 l85 47 l29 -56 Z" /><glyph glyph-name="Nacute" unicode="&#x143;" d="M599 812 l-201 -70 l-38 67 l190 96 l49 -85 l0 -8 ZM44 0 l147 690 l98 0 l216 -516 l5 0 l8 35 l98 481 l104 0 l-147 -690 l-93 0 l-219 519 l-6 0 l-11 -55 l-97 -464 l-103 0 Z" /><glyph glyph-name="nacute" unicode="&#x144;" d="M497 652 l-221 -97 l-22 60 l221 119 l23 -74 l-1 -8 ZM395 500 q53 0 80.5 -30 q27.5 -30 27.5 -88 q0 -34 -9 -74 l-46 -215 l-7 -93 l-102 0 l9 103 l41 196 q6 38 6 60 q0 59 -36 59 q-42 0 -159 -96 l-70 -322 l-103 0 l83 389 l14 101 l87 8 l3 -8 l-8 -93 l6 0 q3 2 21 17.5 q18 15.5 34.5 27.5 q16.5 12 38.5 26.5 q22 14.5 45.5 23 q23.5 8.5 43.5 8.5 Z" /><glyph glyph-name="Ncommaaccent" unicode="&#x145;" d="M44 0 l147 690 l98 0 l216 -516 l5 0 l8 35 l98 481 l104 0 l-147 -690 l-93 0 l-219 519 l-6 0 l-11 -55 l-97 -464 l-103 0 ZM308 -44 q20 0 31.5 -11 q11.5 -11 11.5 -30 q0 -33 -25.5 -76 q-25.5 -43 -56.5 -77 l-42 8 q2 2 10 13.5 q8 11.5 10.5 15 q2.5 3.5 8.5 13.5 q6 10 8 15.5 q2 5.5 4.5 13.5 q2.5 8 2.5 14 q-28 7 -28 38 q0 26 19 44.5 q19 18.5 46 18.5 Z" /><glyph glyph-name="ncommaaccent" unicode="&#x146;" d="M395 500 q53 0 80.5 -30 q27.5 -30 27.5 -88 q0 -34 -9 -74 l-46 -215 l-7 -93 l-102 0 l9 103 l41 196 q6 38 6 60 q0 59 -36 59 q-42 0 -159 -96 l-70 -322 l-103 0 l83 389 l14 101 l87 8 l3 -8 l-8 -93 l6 0 q3 2 21 17.5 q18 15.5 34.5 27.5 q16.5 12 38.5 26.5 q22 14.5 45.5 23 q23.5 8.5 43.5 8.5 ZM238 -44 q20 0 31.5 -11 q11.5 -11 11.5 -30 q0 -33 -25.5 -76 q-25.5 -43 -56.5 -77 l-42 8 q2 2 10 13.5 q8 11.5 10.5 15 q2.5 3.5 8.5 13.5 q6 10 8 15.5 q2 5.5 4.5 13.5 q2.5 8 2.5 14 q-28 7 -28 38 q0 26 19 44.5 q19 18.5 46 18.5 Z" /><glyph glyph-name="Ncaron" unicode="&#x147;" d="M436 741 l-128 100 l1 7 l68 43 l97 -76 l130 77 l50 -43 l-2 -7 l-168 -101 l-48 0 ZM44 0 l147 690 l98 0 l216 -516 l5 0 l8 35 l98 481 l104 0 l-147 -690 l-93 0 l-219 519 l-6 0 l-11 -55 l-97 -464 l-103 0 Z" /><glyph glyph-name="ncaron" unicode="&#x148;" d="M303 552 l-128 100 l1 5 l61 44 l102 -77 l134 78 l41 -43 l-2 -7 l-168 -100 l-41 0 ZM395 500 q53 0 80.5 -30 q27.5 -30 27.5 -88 q0 -34 -9 -74 l-46 -215 l-7 -93 l-102 0 l9 103 l41 196 q6 38 6 60 q0 59 -36 59 q-42 0 -159 -96 l-70 -322 l-103 0 l83 389 l14 101 l87 8 l3 -8 l-8 -93 l6 0 q3 2 21 17.5 q18 15.5 34.5 27.5 q16.5 12 38.5 26.5 q22 14.5 45.5 23 q23.5 8.5 43.5 8.5 Z" /><glyph glyph-name="Eng" unicode="&#x14a;" d="M358 -228 q-40 0 -75 9 q-35 9 -48 17 l37 79 q32 -16 90 -16 q40 0 66.5 22.5 q26.5 22.5 34.5 60.5 l14 66 l-213 514 l-5 0 q0 -1 -1.5 -7 q-1.5 -6 -3 -14 q-1.5 -8 -2.5 -13 l-103 -490 l-105 0 l147 690 l103 0 l215 -508 l5 0 q0 1 1 7 q1 6 2.5 15 q1.5 9 2.5 13 l99 473 l105 0 l-160 -754 q-16 -76 -70.5 -120 q-54.5 -44 -135.5 -44 Z" /><glyph glyph-name="eng" unicode="&#x14b;" d="M191 -230 l1 81 q68 11 98.5 54 q30.5 43 51.5 150 l51 246 q6 28 6 49 q0 36 -9 51 q-9 15 -35 15 q-8 0 -65 -32 q-57 -32 -88 -51 l-71 -333 l-104 0 l104 490 l89 7 l-7 -87 l5 0 q2 1 20 12 q18 11 38.5 23 q20.5 12 44 25 q23.5 13 42.5 21.5 q19 8.5 27 8.5 q118 0 118 -118 q0 -34 -9 -74 l-60 -278 q-27 -135 -86 -195.5 q-59 -60.5 -162 -64.5 Z" /><glyph glyph-name="Omacron" unicode="&#x14c;" d="M641 848 l-16 -73 l-278 0 l16 73 l278 0 ZM305 -10 q-117 0 -182 67 q-65 67 -65 183 q0 123 49.5 228 q49.5 105 141.5 168.5 q92 63.5 207 63.5 q116 0 180.5 -66.5 q64.5 -66.5 64.5 -182.5 q0 -124 -49 -229 q-49 -105 -140.5 -168.5 q-91.5 -63.5 -206.5 -63.5 ZM323 72 q81 0 144.5 53.5 q63.5 53.5 95.5 136 q32 82.5 32 177.5 q0 84 -41.5 131.5 q-41.5 47.5 -115.5 47.5 q-121 0 -197.5 -109.5 q-76.5 -109.5 -76.5 -252.5 q0 -88 41.5 -136 q41.5 -48 117.5 -48 Z" /><glyph glyph-name="omacron" unicode="&#x14d;" d="M483 659 l-15 -73 l-279 0 l16 73 l278 0 ZM312 500 q81 0 128 -50.5 q47 -50.5 47 -141.5 q0 -137 -77.5 -227.5 q-77.5 -90.5 -200.5 -90.5 q-81 0 -128.5 50.5 q-47.5 50.5 -47.5 141.5 q0 137 78 227.5 q78 90.5 201 90.5 ZM297 426 q-73 0 -119.5 -66 q-46.5 -66 -46.5 -169 q0 -56 26.5 -91.5 q26.5 -35.5 68.5 -35.5 q72 0 117.5 66.5 q45.5 66.5 45.5 168.5 q0 56 -25.5 91.5 q-25.5 35.5 -66.5 35.5 Z" /><glyph glyph-name="Ohungarumlaut" unicode="&#x150;" d="M371 740 l-46 54 l163 156 l58 -70 l0 -7 l-175 -133 ZM550 734 l-36 60 l186 126 l45 -77 l0 -7 l-195 -102 ZM305 -10 q-117 0 -182 67 q-65 67 -65 183 q0 123 49.5 228 q49.5 105 141.5 168.5 q92 63.5 207 63.5 q116 0 180.5 -66.5 q64.5 -66.5 64.5 -182.5 q0 -124 -49 -229 q-49 -105 -140.5 -168.5 q-91.5 -63.5 -206.5 -63.5 ZM323 72 q81 0 144.5 53.5 q63.5 53.5 95.5 136 q32 82.5 32 177.5 q0 84 -41.5 131.5 q-41.5 47.5 -115.5 47.5 q-121 0 -197.5 -109.5 q-76.5 -109.5 -76.5 -252.5 q0 -88 41.5 -136 q41.5 -48 117.5 -48 Z" /><glyph glyph-name="ohungarumlaut" unicode="&#x151;" d="M432 679 l-188 -134 l-38 51 l179 151 l47 -60 l0 -8 ZM619 664 l-196 -122 l-34 55 l189 139 l41 -65 l0 -7 ZM312 500 q81 0 128 -50.5 q47 -50.5 47 -141.5 q0 -137 -77.5 -227.5 q-77.5 -90.5 -200.5 -90.5 q-81 0 -128.5 50.5 q-47.5 50.5 -47.5 141.5 q0 137 78 227.5 q78 90.5 201 90.5 ZM297 426 q-73 0 -119.5 -66 q-46.5 -66 -46.5 -169 q0 -56 26.5 -91.5 q26.5 -35.5 68.5 -35.5 q72 0 117.5 66.5 q45.5 66.5 45.5 168.5 q0 56 -25.5 91.5 q-25.5 35.5 -66.5 35.5 Z" /><glyph glyph-name="OE" unicode="&#x152;" d="M464 700 q51 0 108 -10 l417 0 l-18 -82 l-317 0 l-47 -223 l268 0 l-16 -77 l-269 0 l-47 -225 l324 0 l-29 -83 l-412 0 q-62 -10 -113 -10 q-126 0 -190.5 71.5 q-64.5 71.5 -64.5 193.5 q0 123 45.5 222.5 q45.5 99.5 139.5 161 q94 61.5 221 61.5 ZM455 617 q-139 0 -215 -98.5 q-76 -98.5 -76 -251.5 q0 -92 44.5 -143 q44.5 -51 131.5 -51 q60 0 96 13 l108 515 q-33 16 -89 16 Z" /><glyph glyph-name="oe" unicode="&#x153;" d="M493 204 l-17 0 l0 -5 q0 -58 27.5 -95.5 q27.5 -37.5 73.5 -37.5 q25 0 68.5 21.5 q43.5 21.5 70.5 39.5 l23 -62 q-1 -1 -13 -8.5 q-12 -7.5 -24 -15 q-12 -7.5 -31.5 -17 q-19.5 -9.5 -37.5 -17 q-18 -7.5 -39 -12.5 q-21 -5 -39 -5 q-103 0 -147 89 q-78 -89 -199 -89 q-81 0 -128.5 50.5 q-47.5 50.5 -47.5 141.5 q0 137 78 227.5 q78 90.5 201 90.5 q106 0 151 -83 q73 83 190 83 q68 0 103 -32 q35 -32 35 -83 q0 -52 -30 -89.5 q-30 -37.5 -78.5 -56 q-48.5 -18.5 -95.5 -27 q-47 -8.5 -94 -8.5 ZM633 430 q-49 0 -89 -39 q-40 -39 -58 -106 q0 -11 -1 -17 l16 0 q33 0 65.5 5 q32.5 5 65 16 q32.5 11 53 32.5 q20.5 21.5 20.5 51.5 q0 26 -19.5 41.5 q-19.5 15.5 -52.5 15.5 ZM226 64 q72 0 117.5 66.5 q45.5 66.5 45.5 168.5 q0 56 -25.5 91.5 q-25.5 35.5 -66.5 35.5 q-73 0 -119.5 -66 q-46.5 -66 -46.5 -169 q0 -56 26.5 -91.5 q26.5 -35.5 68.5 -35.5 Z" /><glyph glyph-name="Racute" unicode="&#x154;" d="M541 812 l-201 -70 l-38 67 l190 96 l49 -85 l0 -8 ZM419 278 q13 -15 18 -26 l130 -244 l-1 -8 l-104 -8 l-127 239 q-9 17 -15 21.5 q-6 4.5 -24 5.5 l-92 -5 l-54 -253 l-103 0 l146 690 l204 8 q100 0 159 -49 q59 -49 59 -130 q0 -83 -54 -144 q-54 -61 -142 -93 l0 -4 ZM280 614 l-60 -283 l94 5 q85 5 142 53.5 q57 48.5 57 120.5 q0 49 -35.5 78.5 q-35.5 29.5 -98.5 29.5 l-99 -4 Z" /><glyph glyph-name="racute" unicode="&#x155;" d="M440 652 l-221 -97 l-22 60 l221 119 l23 -74 l-1 -8 ZM27 0 l82 387 l14 103 l88 7 l1 -8 l-7 -94 l3 0 q98 105 168 105 q11 0 20 -3 l-22 -90 q-12 2 -22 2 q-34 0 -76 -33 q-42 -33 -78 -75 l-68 -301 l-103 0 Z" /><glyph glyph-name="Rcommaaccent" unicode="&#x156;" d="M419 278 q13 -15 18 -26 l130 -244 l-1 -8 l-104 -8 l-127 239 q-9 17 -15 21.5 q-6 4.5 -24 5.5 l-92 -5 l-54 -253 l-103 0 l146 690 l204 8 q100 0 159 -49 q59 -49 59 -130 q0 -83 -54 -144 q-54 -61 -142 -93 l0 -4 ZM280 614 l-60 -283 l94 5 q85 5 142 53.5 q57 48.5 57 120.5 q0 49 -35.5 78.5 q-35.5 29.5 -98.5 29.5 l-99 -4 ZM292 -44 q20 0 31.5 -11 q11.5 -11 11.5 -30 q0 -33 -25.5 -76 q-25.5 -43 -56.5 -77 l-42 8 q2 2 10 13.5 q8 11.5 10.5 15 q2.5 3.5 8.5 13.5 q6 10 8 15.5 q2 5.5 4.5 13.5 q2.5 8 2.5 14 q-28 7 -28 38 q0 26 19 44.5 q19 18.5 46 18.5 Z" /><glyph glyph-name="rcommaaccent" unicode="&#x157;" d="M27 0 l82 387 l14 103 l88 7 l1 -8 l-7 -94 l3 0 q98 105 168 105 q11 0 20 -3 l-22 -90 q-12 2 -22 2 q-34 0 -76 -33 q-42 -33 -78 -75 l-68 -301 l-103 0 ZM77 -44 q20 0 31.5 -11 q11.5 -11 11.5 -30 q0 -33 -25.5 -76 q-25.5 -43 -56.5 -77 l-42 8 q2 2 10 13.5 q8 11.5 10.5 15 q2.5 3.5 8.5 13.5 q6 10 8 15.5 q2 5.5 4.5 13.5 q2.5 8 2.5 14 q-28 7 -28 38 q0 26 19 44.5 q19 18.5 46 18.5 Z" /><glyph glyph-name="Rcaron" unicode="&#x158;" d="M426 741 l-48 0 l-128 100 l1 7 l68 43 l97 -76 l130 77 l50 -43 l-2 -7 l-168 -101 ZM419 278 q13 -15 18 -26 l130 -244 l-1 -8 l-104 -8 l-127 239 q-9 17 -15 21.5 q-6 4.5 -24 5.5 l-92 -5 l-54 -253 l-103 0 l146 690 l204 8 q100 0 159 -49 q59 -49 59 -130 q0 -83 -54 -144 q-54 -61 -142 -93 l0 -4 ZM280 614 l-60 -283 l94 5 q85 5 142 53.5 q57 48.5 57 120.5 q0 49 -35.5 78.5 q-35.5 29.5 -98.5 29.5 l-99 -4 Z" /><glyph glyph-name="rcaron" unicode="&#x159;" d="M246 552 l-128 100 l1 5 l61 44 l102 -77 l134 78 l41 -43 l-2 -7 l-168 -100 l-41 0 ZM27 0 l82 387 l14 103 l88 7 l1 -8 l-7 -94 l3 0 q98 105 168 105 q11 0 20 -3 l-22 -90 q-12 2 -22 2 q-34 0 -76 -33 q-42 -33 -78 -75 l-68 -301 l-103 0 Z" /><glyph glyph-name="Sacute" unicode="&#x15a;" d="M507 812 l-201 -70 l-38 67 l190 96 l49 -85 l0 -8 ZM198 -9 q-88 0 -200 50 l27 89 q107 -55 180 -55 q74 0 119 35 q45 35 45 92 q0 30 -20.5 53.5 q-20.5 23.5 -51.5 37.5 q-31 14 -67.5 32 q-36.5 18 -67.5 36 q-31 18 -51.5 51 q-20.5 33 -20.5 76 q0 98 71 155 q71 57 184 57 q39 0 101.5 -11.5 q62.5 -11.5 86.5 -20.5 l-22 -85 q-25 9 -88 21.5 q-63 12.5 -84 12.5 q-61 -1 -102.5 -29.5 q-41.5 -28.5 -41.5 -79.5 q0 -36 28.5 -63 q28.5 -27 69.5 -46 q41 -19 82.5 -39.5 q41.5 -20.5 70 -55.5 q28.5 -35 28.5 -82 q0 -104 -76 -167.5 q-76 -63.5 -200 -63.5 Z" /><glyph glyph-name="sacute" unicode="&#x15b;" d="M431 652 l-221 -97 l-22 60 l221 119 l23 -74 l-1 -8 ZM138 -10 q-36 0 -81 13.5 q-45 13.5 -68 26.5 l31 69 q22 -11 61 -22.5 q39 -11.5 64 -11.5 q48 0 78.5 21.5 q30.5 21.5 30.5 55.5 q0 22 -20 38.5 q-20 16.5 -48.5 29 q-28.5 12.5 -57.5 27.5 q-29 15 -49 41.5 q-20 26.5 -20 63.5 q0 71 58 114.5 q58 43.5 152 43.5 q22 0 63 -9 q41 -9 63 -17 l-27 -76 q-76 28 -107 28 q-47 0 -74 -20 q-27 -20 -27 -52 q0 -25 30.5 -46.5 q30.5 -21.5 67 -36 q36.5 -14.5 67 -44 q30.5 -29.5 30.5 -69.5 q0 -76 -59.5 -122 q-59.5 -46 -157.5 -46 Z" /><glyph glyph-name="Scedilla" unicode="&#x15e;" d="M198 -9 q-88 0 -200 50 l27 89 q107 -55 180 -55 q74 0 119 35 q45 35 45 92 q0 30 -20.5 53.5 q-20.5 23.5 -51.5 37.5 q-31 14 -67.5 32 q-36.5 18 -67.5 36 q-31 18 -51.5 51 q-20.5 33 -20.5 76 q0 98 71 155 q71 57 184 57 q39 0 101.5 -11.5 q62.5 -11.5 86.5 -20.5 l-22 -85 q-25 9 -88 21.5 q-63 12.5 -84 12.5 q-61 -1 -102.5 -29.5 q-41.5 -28.5 -41.5 -79.5 q0 -36 28.5 -63 q28.5 -27 69.5 -46 q41 -19 82.5 -39.5 q41.5 -20.5 70 -55.5 q28.5 -35 28.5 -82 q0 -104 -76 -167.5 q-76 -63.5 -200 -63.5 ZM127 -235 q-36 0 -63 12 l18 55 q12 -8 45 -8 q30 0 49 12.5 q19 12.5 19 32.5 q0 15 -16 28 q-16 13 -43 19 l20 54 q45 -7 72.5 -35 q27.5 -28 27.5 -66 q0 -51 -36.5 -77.5 q-36.5 -26.5 -92.5 -26.5 Z" /><glyph glyph-name="scedilla" unicode="&#x15f;" d="M138 -10 q-36 0 -81 13.5 q-45 13.5 -68 26.5 l31 69 q22 -11 61 -22.5 q39 -11.5 64 -11.5 q48 0 78.5 21.5 q30.5 21.5 30.5 55.5 q0 22 -20 38.5 q-20 16.5 -48.5 29 q-28.5 12.5 -57.5 27.5 q-29 15 -49 41.5 q-20 26.5 -20 63.5 q0 71 58 114.5 q58 43.5 152 43.5 q22 0 63 -9 q41 -9 63 -17 l-27 -76 q-76 28 -107 28 q-47 0 -74 -20 q-27 -20 -27 -52 q0 -25 30.5 -46.5 q30.5 -21.5 67 -36 q36.5 -14.5 67 -44 q30.5 -29.5 30.5 -69.5 q0 -76 -59.5 -122 q-59.5 -46 -157.5 -46 ZM74 -235 q-36 0 -63 12 l18 55 q12 -8 45 -8 q30 0 49 12.5 q19 12.5 19 32.5 q0 15 -16 28 q-16 13 -43 19 l20 54 q45 -7 72.5 -35 q27.5 -28 27.5 -66 q0 -51 -36.5 -77.5 q-36.5 -26.5 -92.5 -26.5 Z" /><glyph glyph-name="Scaron" unicode="&#x160;" d="M344 741 l-128 100 l1 7 l68 43 l97 -76 l130 77 l50 -43 l-2 -7 l-168 -101 l-48 0 ZM198 -9 q-88 0 -200 50 l27 89 q107 -55 180 -55 q74 0 119 35 q45 35 45 92 q0 30 -20.5 53.5 q-20.5 23.5 -51.5 37.5 q-31 14 -67.5 32 q-36.5 18 -67.5 36 q-31 18 -51.5 51 q-20.5 33 -20.5 76 q0 98 71 155 q71 57 184 57 q39 0 101.5 -11.5 q62.5 -11.5 86.5 -20.5 l-22 -85 q-25 9 -88 21.5 q-63 12.5 -84 12.5 q-61 -1 -102.5 -29.5 q-41.5 -28.5 -41.5 -79.5 q0 -36 28.5 -63 q28.5 -27 69.5 -46 q41 -19 82.5 -39.5 q41.5 -20.5 70 -55.5 q28.5 -35 28.5 -82 q0 -104 -76 -167.5 q-76 -63.5 -200 -63.5 Z" /><glyph glyph-name="scaron" unicode="&#x161;" d="M237 552 l-128 100 l1 5 l61 44 l102 -77 l134 78 l41 -43 l-2 -7 l-168 -100 l-41 0 ZM138 -10 q-36 0 -81 13.5 q-45 13.5 -68 26.5 l31 69 q22 -11 61 -22.5 q39 -11.5 64 -11.5 q48 0 78.5 21.5 q30.5 21.5 30.5 55.5 q0 22 -20 38.5 q-20 16.5 -48.5 29 q-28.5 12.5 -57.5 27.5 q-29 15 -49 41.5 q-20 26.5 -20 63.5 q0 71 58 114.5 q58 43.5 152 43.5 q22 0 63 -9 q41 -9 63 -17 l-27 -76 q-76 28 -107 28 q-47 0 -74 -20 q-27 -20 -27 -52 q0 -25 30.5 -46.5 q30.5 -21.5 67 -36 q36.5 -14.5 67 -44 q30.5 -29.5 30.5 -69.5 q0 -76 -59.5 -122 q-59.5 -46 -157.5 -46 Z" /><glyph glyph-name="uni0162" unicode="&#x162;" d="M620 690 l-19 -80 l-208 0 l-129 -610 l-103 0 l128 610 l-210 0 l18 80 l523 0 ZM165 -30 q45 -7 72.5 -35 q27.5 -28 27.5 -66 q0 -51 -36.5 -77.5 q-36.5 -26.5 -92.5 -26.5 q-36 0 -63 12 l18 55 q12 -8 45 -8 q30 0 49 12.5 q19 12.5 19 32.5 q0 15 -16 28 q-16 13 -43 19 l20 54 Z" /><glyph glyph-name="uni0163" unicode="&#x163;" d="M158 -10 q-42 0 -68.5 24.5 q-26.5 24.5 -26.5 65.5 q0 20 4 39 l62 294 l-83 0 l13 70 l87 7 l48 135 l81 9 l1 -8 l-30 -136 l126 0 l-16 -77 l-126 0 l-60 -285 q-3 -15 -3 -28 q0 -25 15 -25 q13 0 99 47 l27 -66 l-19 -12 q-19 -11 -31.5 -17.5 q-12.5 -6.5 -32 -16.5 q-19.5 -10 -36.5 -15 q-17 -5 -31 -5 ZM81 -235 q-36 0 -63 12 l18 55 q12 -8 45 -8 q30 0 49 12.5 q19 12.5 19 32.5 q0 15 -16 28 q-16 13 -43 19 l20 54 q45 -7 72.5 -35 q27.5 -28 27.5 -66 q0 -51 -36.5 -77.5 q-36.5 -26.5 -92.5 -26.5 Z" /><glyph glyph-name="Tcaron" unicode="&#x164;" d="M383 741 l-48 0 l-128 100 l1 7 l68 43 l97 -76 l130 77 l50 -43 l-2 -7 l-168 -101 ZM620 690 l-19 -80 l-208 0 l-129 -610 l-103 0 l128 610 l-210 0 l18 80 l523 0 Z" /><glyph glyph-name="tcaron" unicode="&#x165;" d="M397 743 q20 0 32 -11 q12 -11 12 -30 q0 -33 -26 -76.5 q-26 -43.5 -57 -76.5 l-42 8 q2 2 11.5 15.5 q9.5 13.5 13 19 q3.5 5.5 9.5 16 q6 10.5 8.5 19 q2.5 8.5 2.5 16.5 q-29 6 -29 37 q0 26 19.5 44.5 q19.5 18.5 45.5 18.5 ZM158 -10 q-42 0 -68.5 24.5 q-26.5 24.5 -26.5 65.5 q0 20 4 39 l62 294 l-83 0 l13 70 l87 7 l48 135 l81 9 l1 -8 l-30 -136 l126 0 l-16 -77 l-126 0 l-60 -285 q-3 -15 -3 -28 q0 -25 15 -25 q13 0 99 47 l27 -66 l-19 -12 q-19 -11 -31.5 -17.5 q-12.5 -6.5 -32 -16.5 q-19.5 -10 -36.5 -15 q-17 -5 -31 -5 Z" /><glyph glyph-name="Tbar" unicode="&#x166;" d="M601 608 l-207 0 l-47 -218 l115 0 l-16 -74 l-115 0 l-67 -316 l-104 0 l67 316 l-115 0 l16 74 l115 0 l46 218 l-210 0 l18 82 l523 0 l-19 -82 Z" /><glyph glyph-name="tbar" unicode="&#x167;" d="M362 413 l-126 0 l-29 -140 l120 0 l-12 -59 l-121 0 l-18 -86 q-3 -15 -3 -28 q0 -25 15 -25 q13 0 99 47 l27 -66 l-19 -12 q-19 -11 -31.5 -17.5 q-12.5 -6.5 -32 -16.5 q-19.5 -10 -36.5 -15 q-17 -5 -31 -5 q-42 0 -68.5 24.5 q-26.5 24.5 -26.5 65.5 q0 20 4 39 l20 95 l-83 0 l13 59 l82 0 l30 140 l-83 0 l13 70 l87 7 l48 135 l81 9 l1 -8 l-30 -136 l126 0 l-16 -77 Z" /><glyph glyph-name="Utilde" unicode="&#x168;" d="M506 757 q-27 0 -50 19 q-23 19 -42 19 q-33 0 -80 -36 l-30 41 q62 59 129 59 q29 0 53.5 -18.5 q24.5 -18.5 41.5 -18.5 q38 0 78 35 l27 -45 q-60 -55 -127 -55 ZM302 -10 q-106 0 -163.5 45.5 q-57.5 45.5 -57.5 137.5 q0 37 9 81 l92 436 l102 0 l-94 -441 q-6 -25 -6 -56 q0 -119 129 -119 q81 0 133.5 46.5 q52.5 46.5 70.5 132.5 l94 437 l101 0 l-94 -441 q-26 -128 -106 -193.5 q-80 -65.5 -210 -65.5 Z" /><glyph glyph-name="utilde" unicode="&#x169;" d="M223 579 l-56 20 q20 44 52.5 70.5 q32.5 26.5 67.5 26.5 q27 0 61 -19.5 q34 -19.5 48 -19.5 q31 0 56 39 l56 -22 q-19 -41 -51.5 -67 q-32.5 -26 -67.5 -26 q-28 0 -60.5 19 q-32.5 19 -47.5 19 q-15 0 -31.5 -11 q-16.5 -11 -26.5 -29 ZM156 -10 q-54 0 -82.5 30 q-28.5 30 -28.5 88 q0 29 10 74 l65 308 l102 0 l-62 -301 q-7 -33 -7 -60 q0 -59 38 -59 q42 0 156 89 l70 331 l103 0 l-82 -389 l-10 -101 l-89 0 l-1 83 l-6 0 l-8 -7 q-8 -7 -14.5 -12.5 q-6.5 -5.5 -18.5 -15 q-12 -9.5 -23 -16.5 q-11 -7 -26 -15.5 q-15 -8.5 -28 -14 q-13 -5.5 -28.5 -9 q-15.5 -3.5 -29.5 -3.5 Z" /><glyph glyph-name="Umacron" unicode="&#x16a;" d="M608 848 l-16 -73 l-278 0 l16 73 l278 0 ZM302 -10 q-106 0 -163.5 45.5 q-57.5 45.5 -57.5 137.5 q0 37 9 81 l92 436 l102 0 l-94 -441 q-6 -25 -6 -56 q0 -119 129 -119 q81 0 133.5 46.5 q52.5 46.5 70.5 132.5 l94 437 l101 0 l-94 -441 q-26 -128 -106 -193.5 q-80 -65.5 -210 -65.5 Z" /><glyph glyph-name="umacron" unicode="&#x16b;" d="M485 659 l-15 -73 l-279 0 l16 73 l278 0 ZM156 -10 q-54 0 -82.5 30 q-28.5 30 -28.5 88 q0 29 10 74 l65 308 l102 0 l-62 -301 q-7 -33 -7 -60 q0 -59 38 -59 q42 0 156 89 l70 331 l103 0 l-82 -389 l-10 -101 l-89 0 l-1 83 l-6 0 l-8 -7 q-8 -7 -14.5 -12.5 q-6.5 -5.5 -18.5 -15 q-12 -9.5 -23 -16.5 q-11 -7 -26 -15.5 q-15 -8.5 -28 -14 q-13 -5.5 -28.5 -9 q-15.5 -3.5 -29.5 -3.5 Z" /><glyph glyph-name="Uring" unicode="&#x16e;" d="M448 733 q-42 0 -65.5 21.5 q-23.5 21.5 -21.5 56.5 q2 46 38 76 q36 30 87 30 q42 0 65.5 -20.5 q23.5 -20.5 21.5 -54.5 q-2 -46 -38.5 -77.5 q-36.5 -31.5 -86.5 -31.5 ZM459 787 q22 0 36.5 14 q14.5 14 15.5 33 q1 14 -9 22 q-10 8 -27 8 q-21 0 -36 -12.5 q-15 -12.5 -16 -32.5 q-1 -15 9 -23.5 q10 -8.5 27 -8.5 ZM302 -10 q-106 0 -163.5 45.5 q-57.5 45.5 -57.5 137.5 q0 37 9 81 l92 436 l102 0 l-94 -441 q-6 -25 -6 -56 q0 -119 129 -119 q81 0 133.5 46.5 q52.5 46.5 70.5 132.5 l94 437 l101 0 l-94 -441 q-26 -128 -106 -193.5 q-80 -65.5 -210 -65.5 Z" /><glyph glyph-name="uring" unicode="&#x16f;" d="M328 550 q-40 0 -63 19.5 q-23 19.5 -23 52.5 q0 49 36.5 80.5 q36.5 31.5 88.5 31.5 q40 0 63.5 -19 q23.5 -19 23.5 -51 q0 -48 -37 -81 q-37 -33 -89 -33 ZM339 604 q23 0 38 14.5 q15 14.5 15 33.5 q0 30 -36 30 q-21 0 -36 -13.5 q-15 -13.5 -15 -34.5 q0 -30 34 -30 ZM156 -10 q-54 0 -82.5 30 q-28.5 30 -28.5 88 q0 29 10 74 l65 308 l102 0 l-62 -301 q-7 -33 -7 -60 q0 -59 38 -59 q42 0 156 89 l70 331 l103 0 l-82 -389 l-10 -101 l-89 0 l-1 83 l-6 0 l-8 -7 q-8 -7 -14.5 -12.5 q-6.5 -5.5 -18.5 -15 q-12 -9.5 -23 -16.5 q-11 -7 -26 -15.5 q-15 -8.5 -28 -14 q-13 -5.5 -28.5 -9 q-15.5 -3.5 -29.5 -3.5 Z" /><glyph glyph-name="Uhungarumlaut" unicode="&#x170;" d="M338 740 l-46 54 l163 156 l58 -70 l0 -7 l-175 -133 ZM517 734 l-36 60 l186 126 l45 -77 l0 -7 l-195 -102 ZM302 -10 q-106 0 -163.5 45.5 q-57.5 45.5 -57.5 137.5 q0 37 9 81 l92 436 l102 0 l-94 -441 q-6 -25 -6 -56 q0 -119 129 -119 q81 0 133.5 46.5 q52.5 46.5 70.5 132.5 l94 437 l101 0 l-94 -441 q-26 -128 -106 -193.5 q-80 -65.5 -210 -65.5 Z" /><glyph glyph-name="uhungarumlaut" unicode="&#x171;" d="M434 679 l-188 -134 l-38 51 l179 151 l47 -60 l0 -8 ZM621 664 l-196 -122 l-34 55 l189 139 l41 -65 l0 -7 ZM156 -10 q-54 0 -82.5 30 q-28.5 30 -28.5 88 q0 29 10 74 l65 308 l102 0 l-62 -301 q-7 -33 -7 -60 q0 -59 38 -59 q42 0 156 89 l70 331 l103 0 l-82 -389 l-10 -101 l-89 0 l-1 83 l-6 0 l-8 -7 q-8 -7 -14.5 -12.5 q-6.5 -5.5 -18.5 -15 q-12 -9.5 -23 -16.5 q-11 -7 -26 -15.5 q-15 -8.5 -28 -14 q-13 -5.5 -28.5 -9 q-15.5 -3.5 -29.5 -3.5 Z" /><glyph glyph-name="Uogonek" unicode="&#x172;" d="M611 690 l101 0 l-94 -441 q-52 -248 -295 -259 q-31 -23 -50.5 -53 q-19.5 -30 -19.5 -58 q0 -28 27 -28 q12 0 26 2 l0 -54 q-23 -10 -52 -10 q-33 0 -52 19.5 q-19 19.5 -19 51.5 q0 35 20.5 71 q20.5 36 51.5 61 q-174 21 -174 181 q0 37 9 81 l92 436 l102 0 l-94 -441 q-6 -25 -6 -56 q0 -119 129 -119 q81 0 133.5 46.5 q52.5 46.5 70.5 132.5 l94 437 Z" /><glyph glyph-name="uogonek" unicode="&#x173;" d="M417 490 l103 0 l-82 -389 l-10 -101 q-35 -23 -59 -56.5 q-24 -33.5 -24 -64.5 q0 -28 27 -28 q12 0 26 2 l0 -54 q-23 -10 -52 -10 q-33 0 -52 19.5 q-19 19.5 -19 51.5 q0 38 23.5 77 q23.5 39 58.5 63 l-18 0 l-1 83 l-6 0 l-8 -7 q-8 -7 -14.5 -12.5 q-6.5 -5.5 -18.5 -15 q-12 -9.5 -23 -16.5 q-11 -7 -26 -15.5 q-15 -8.5 -28 -14 q-13 -5.5 -28.5 -9 q-15.5 -3.5 -29.5 -3.5 q-54 0 -82.5 30 q-28.5 30 -28.5 88 q0 29 10 74 l65 308 l102 0 l-62 -301 q-7 -33 -7 -60 q0 -59 38 -59 q42 0 156 89 l70 331 Z" /><glyph glyph-name="Wcircumflex" unicode="&#x174;" d="M448 743 l-50 42 l1 8 l171 100 l46 0 l126 -101 l-2 -7 l-65 -43 l-96 77 l-131 -76 ZM134 0 l-39 690 l97 7 l30 -487 q0 -48 -3 -96 l6 0 q22 53 42 96 l239 483 l95 0 l36 -483 q2 -62 2 -96 l6 0 q16 46 37 95 l233 481 l99 0 l-332 -690 l-118 0 l-38 446 q-3 45 0 101 l-6 0 q-20 -52 -43 -102 l-226 -445 l-117 0 Z" /><glyph glyph-name="wcircumflex" unicode="&#x175;" d="M425 701 l42 0 l125 -101 l-1 -6 l-59 -43 l-101 78 l-135 -77 l-42 44 l0 4 l171 101 ZM82 -8 l-29 498 l85 8 l22 -404 l6 0 l196 396 l80 0 l19 -395 l6 0 l202 395 l96 0 l-262 -490 l-110 -8 l-18 346 l-5 0 l-176 -338 l-112 -8 Z" /><glyph glyph-name="Ycircumflex" unicode="&#x176;" d="M260 743 l-50 42 l1 8 l171 100 l46 0 l126 -101 l-2 -7 l-65 -43 l-96 77 l-131 -76 ZM186 0 l59 278 l-154 401 l2 11 l95 4 l120 -331 l8 0 l243 327 l106 0 l0 -11 l-316 -401 l-59 -278 l-104 0 Z" /><glyph glyph-name="ycircumflex" unicode="&#x177;" d="M298 701 l42 0 l125 -101 l-1 -6 l-59 -43 l-101 78 l-135 -77 l-42 44 l0 4 l171 101 ZM105 -231 l-77 29 l118 202 l-22 0 l-64 482 l2 8 l88 7 l47 -403 l7 0 l221 396 l99 0 l-1 -8 l-418 -713 Z" /><glyph glyph-name="Ydieresis" unicode="&#x178;" d="M280 758 q-19 0 -31.5 12.5 q-12.5 12.5 -12.5 32.5 q0 27 20.5 46.5 q20.5 19.5 48.5 19.5 q20 0 32 -12.5 q12 -12.5 12 -32.5 q0 -27 -20.5 -46.5 q-20.5 -19.5 -48.5 -19.5 ZM458 758 q-19 0 -31 12.5 q-12 12.5 -12 32.5 q0 27 20 46.5 q20 19.5 48 19.5 q20 0 32.5 -12.5 q12.5 -12.5 12.5 -32.5 q0 -27 -21 -46.5 q-21 -19.5 -49 -19.5 ZM186 0 l59 278 l-154 401 l2 11 l95 4 l120 -331 l8 0 l243 327 l106 0 l0 -11 l-316 -401 l-59 -278 l-104 0 Z" /><glyph glyph-name="Zacute" unicode="&#x179;" d="M503 812 l-201 -70 l-38 67 l190 96 l49 -85 l0 -8 ZM-12 -2 l0 66 l493 540 l1 4 q-40 -2 -59 -2 l-313 0 l18 82 l480 0 l0 -68 l-492 -537 l-1 -4 l46 2 l338 0 l-25 -83 l-486 0 Z" /><glyph glyph-name="zacute" unicode="&#x17a;" d="M423 652 l-221 -97 l-22 60 l221 119 l23 -74 l-1 -8 ZM-7 0 l0 62 l328 349 l0 5 q-27 -3 -54 -3 l-202 1 l15 76 l362 0 l0 -65 l-328 -346 l0 -2 q2 0 5.5 0 q3.5 0 14 0.5 q10.5 0.5 19.5 0.5 l238 -1 l-23 -77 l-375 0 Z" /><glyph glyph-name="Zdotaccent" unicode="&#x17b;" d="M365 758 q-40 0 -40 43 q0 28 18.5 48 q18.5 20 44.5 20 q41 0 41 -43 q0 -28 -19 -48 q-19 -20 -45 -20 ZM-12 -2 l0 66 l493 540 l1 4 q-40 -2 -59 -2 l-313 0 l18 82 l480 0 l0 -68 l-492 -537 l-1 -4 l46 2 l338 0 l-25 -83 l-486 0 Z" /><glyph glyph-name="zdotaccent" unicode="&#x17c;" d="M261 589 q-23 0 -36 13 q-13 13 -13 34 q0 31 22 52.5 q22 21.5 54 21.5 q24 0 37 -13 q13 -13 13 -35 q0 -32 -22 -52.5 q-22 -20.5 -55 -20.5 ZM-7 0 l0 62 l328 349 l0 5 q-27 -3 -54 -3 l-202 1 l15 76 l362 0 l0 -65 l-328 -346 l0 -2 q2 0 5.5 0 q3.5 0 14 0.5 q10.5 0.5 19.5 0.5 l238 -1 l-23 -77 l-375 0 Z" /><glyph glyph-name="Zcaron" unicode="&#x17d;" d="M340 741 l-128 100 l1 7 l68 43 l97 -76 l130 77 l50 -43 l-2 -7 l-168 -101 l-48 0 ZM-12 -2 l0 66 l493 540 l1 4 q-40 -2 -59 -2 l-313 0 l18 82 l480 0 l0 -68 l-492 -537 l-1 -4 l46 2 l338 0 l-25 -83 l-486 0 Z" /><glyph glyph-name="zcaron" unicode="&#x17e;" d="M229 552 l-128 100 l1 5 l61 44 l102 -77 l134 78 l41 -43 l-2 -7 l-168 -100 l-41 0 ZM-7 0 l0 62 l328 349 l0 5 q-27 -3 -54 -3 l-202 1 l15 76 l362 0 l0 -65 l-328 -346 l0 -2 q2 0 5.5 0 q3.5 0 14 0.5 q10.5 0.5 19.5 0.5 l238 -1 l-23 -77 l-375 0 Z" /><glyph glyph-name="uni01EA" unicode="&#x1ea;" d="M332 -9 q-70 -55 -70 -112 q0 -28 27 -28 q12 0 26 2 l0 -54 q-23 -10 -52 -10 q-33 0 -52 19.5 q-19 19.5 -19 51.5 q0 35 20.5 71 q20.5 36 51.5 61 q-98 12 -152 77.5 q-54 65.5 -54 170.5 q0 123 49.5 228 q49.5 105 141.5 168.5 q92 63.5 207 63.5 q116 0 180.5 -66.5 q64.5 -66.5 64.5 -182.5 q0 -182 -103 -315 q-103 -133 -266 -145 ZM164 256 q0 -88 41.5 -136 q41.5 -48 117.5 -48 q81 0 144.5 53.5 q63.5 53.5 95.5 136 q32 82.5 32 177.5 q0 84 -41.5 131.5 q-41.5 47.5 -115.5 47.5 q-121 0 -197.5 -109.5 q-76.5 -109.5 -76.5 -252.5 Z" /><glyph glyph-name="uni01EB" unicode="&#x1eb;" d="M252 -7 q-31 -23 -52 -54 q-21 -31 -21 -60 q0 -28 27 -28 q12 0 26 2 l0 -54 q-23 -10 -52 -10 q-33 0 -52 19.5 q-19 19.5 -19 51.5 q0 35 20 71.5 q20 36.5 51 60.5 q-68 8 -107.5 58 q-39.5 50 -39.5 132 q0 137 78 227.5 q78 90.5 201 90.5 q81 0 128 -50.5 q47 -50.5 47 -141.5 q0 -124 -65 -211.5 q-65 -87.5 -170 -103.5 ZM131 191 q0 -56 26.5 -91.5 q26.5 -35.5 68.5 -35.5 q72 0 117.5 66.5 q45.5 66.5 45.5 168.5 q0 56 -25.5 91.5 q-25.5 35.5 -66.5 35.5 q-73 0 -119.5 -66 q-46.5 -66 -46.5 -169 Z" /><glyph glyph-name="AEacute" unicode="&#x1fc;" d="M914 812 l-201 -70 l-38 67 l190 96 l49 -85 l0 -8 ZM1006 608 l-314 0 l-48 -223 l264 0 l-16 -77 l-264 0 l-48 -225 l319 0 l-28 -83 l-412 0 l39 182 l-273 0 l-144 -182 l-103 0 l542 690 l504 0 l-18 -82 ZM515 261 l74 347 l-26 0 l-275 -347 l227 0 Z" /><glyph glyph-name="aeacute" unicode="&#x1fd;" d="M597 652 l-221 -97 l-22 60 l221 119 l23 -74 l-1 -8 ZM135 -10 q-64 0 -100 28 q-36 28 -36 76 q0 80 75.5 126 q75.5 46 188.5 46 l52 0 q11 54 13 78 q1 36 -18.5 54 q-19.5 18 -58.5 18 q-74 0 -149 -29 l-11 73 q92 40 189 40 q89 0 124 -67 q39 33 78 50 q39 17 95 17 q68 0 103 -32 q35 -32 35 -83 q0 -89 -84 -134.5 q-84 -45.5 -230 -46.5 q1 -65 27.5 -101.5 q26.5 -36.5 72.5 -36.5 q25 0 68.5 21.5 q43.5 21.5 70.5 39.5 l23 -62 q-1 -1 -16 -10.5 q-15 -9.5 -33 -19 q-18 -9.5 -40.5 -20.5 q-22.5 -11 -48 -18 q-25.5 -7 -46.5 -7 q-104 0 -148 97 q-27 -40 -84.5 -68.5 q-57.5 -28.5 -111.5 -28.5 ZM407 268 q222 0 222 104 q0 25 -17.5 42.5 q-17.5 17.5 -42.5 17.5 q-63 0 -104 -45.5 q-41 -45.5 -58 -118.5 ZM156 63 q53 0 97.5 30 q44.5 30 51.5 60 q-2 27 2 50 l-52 0 q-77 0 -120.5 -24.5 q-43.5 -24.5 -45.5 -67.5 q0 -22 17.5 -35 q17.5 -13 49.5 -13 Z" /><glyph glyph-name="Oslashacute" unicode="&#x1fe;" d="M623 812 l-201 -70 l-38 67 l190 96 l49 -85 l0 -8 ZM634 637 q69 -66 69 -186 q0 -124 -49 -229 q-49 -105 -141 -168.5 q-92 -63.5 -207 -63.5 q-69 0 -120 24 l-79 -109 l-48 35 l77 107 q-76 65 -76 193 q0 123 49.5 228 q49.5 105 141 168.5 q91.5 63.5 206.5 63.5 q73 0 129 -28 l76 106 l48 -36 l-76 -105 ZM166 256 q0 -77 32 -123 l331 460 q-38 25 -90 25 q-81 0 -144.5 -53 q-63.5 -53 -96 -135 q-32.5 -82 -32.5 -174 ZM324 72 q81 0 145 53.5 q64 53.5 96 136.5 q32 83 32 177 q0 66 -26 110 l-329 -457 q34 -20 82 -20 Z" /><glyph glyph-name="oslashacute" unicode="&#x1ff;" d="M479 652 l-221 -97 l-22 60 l221 119 l23 -74 l-1 -8 ZM423 465 q64 -50 64 -157 q0 -137 -77.5 -227.5 q-77.5 -90.5 -200.5 -90.5 q-41 0 -72 12 l-61 -98 l-41 27 l60 96 q-62 50 -62 155 q0 137 78 227.5 q78 90.5 201 90.5 q38 0 70 -12 l67 108 l39 -26 l-65 -105 ZM131 191 q0 -47 18 -78 l188 302 q-19 11 -40 11 q-73 0 -119.5 -66 q-46.5 -66 -46.5 -169 ZM226 64 q72 0 117.5 66.5 q45.5 66.5 45.5 168.5 q0 46 -19 81 l-187 -304 q18 -12 43 -12 Z" /><glyph glyph-name="Scommaaccent" unicode="&#x218;" d="M198 -9 q-88 0 -200 50 l27 89 q107 -55 180 -55 q74 0 119 35 q45 35 45 92 q0 30 -20.5 53.5 q-20.5 23.5 -51.5 37.5 q-31 14 -67.5 32 q-36.5 18 -67.5 36 q-31 18 -51.5 51 q-20.5 33 -20.5 76 q0 98 71 155 q71 57 184 57 q39 0 101.5 -11.5 q62.5 -11.5 86.5 -20.5 l-22 -85 q-25 9 -88 21.5 q-63 12.5 -84 12.5 q-61 -1 -102.5 -29.5 q-41.5 -28.5 -41.5 -79.5 q0 -36 28.5 -63 q28.5 -27 69.5 -46 q41 -19 82.5 -39.5 q41.5 -20.5 70 -55.5 q28.5 -35 28.5 -82 q0 -104 -76 -167.5 q-76 -63.5 -200 -63.5 ZM198 -44 q20 0 31.5 -11 q11.5 -11 11.5 -30 q0 -33 -25.5 -76 q-25.5 -43 -56.5 -77 l-42 8 q2 2 10 13.5 q8 11.5 10.5 15 q2.5 3.5 8.5 13.5 q6 10 8 15.5 q2 5.5 4.5 13.5 q2.5 8 2.5 14 q-28 7 -28 38 q0 26 19 44.5 q19 18.5 46 18.5 Z" /><glyph glyph-name="scommaaccent" unicode="&#x219;" d="M138 -10 q-36 0 -81 13.5 q-45 13.5 -68 26.5 l31 69 q22 -11 61 -22.5 q39 -11.5 64 -11.5 q48 0 78.5 21.5 q30.5 21.5 30.5 55.5 q0 22 -20 38.5 q-20 16.5 -48.5 29 q-28.5 12.5 -57.5 27.5 q-29 15 -49 41.5 q-20 26.5 -20 63.5 q0 71 58 114.5 q58 43.5 152 43.5 q22 0 63 -9 q41 -9 63 -17 l-27 -76 q-76 28 -107 28 q-47 0 -74 -20 q-27 -20 -27 -52 q0 -25 30.5 -46.5 q30.5 -21.5 67 -36 q36.5 -14.5 67 -44 q30.5 -29.5 30.5 -69.5 q0 -76 -59.5 -122 q-59.5 -46 -157.5 -46 ZM145 -44 q20 0 31.5 -11 q11.5 -11 11.5 -30 q0 -33 -25.5 -76 q-25.5 -43 -56.5 -77 l-42 8 q2 2 10 13.5 q8 11.5 10.5 15 q2.5 3.5 8.5 13.5 q6 10 8 15.5 q2 5.5 4.5 13.5 q2.5 8 2.5 14 q-28 7 -28 38 q0 26 19 44.5 q19 18.5 46 18.5 Z" /><glyph glyph-name="uni021A" unicode="&#x21a;" d="M620 690 l-19 -80 l-208 0 l-129 -610 l-103 0 l128 610 l-210 0 l18 80 l523 0 ZM207 -44 q20 0 31.5 -11 q11.5 -11 11.5 -30 q0 -33 -25.5 -76 q-25.5 -43 -56.5 -77 l-42 8 q2 2 10 13.5 q8 11.5 10.5 15 q2.5 3.5 8.5 13.5 q6 10 8 15.5 q2 5.5 4.5 13.5 q2.5 8 2.5 14 q-28 7 -28 38 q0 26 19 44.5 q19 18.5 46 18.5 Z" /><glyph glyph-name="uni021B" unicode="&#x21b;" d="M158 -10 q-42 0 -68.5 24.5 q-26.5 24.5 -26.5 65.5 q0 20 4 39 l62 294 l-83 0 l13 70 l87 7 l48 135 l81 9 l1 -8 l-30 -136 l126 0 l-16 -77 l-126 0 l-60 -285 q-3 -15 -3 -28 q0 -25 15 -25 q13 0 99 47 l27 -66 l-19 -12 q-19 -11 -31.5 -17.5 q-12.5 -6.5 -32 -16.5 q-19.5 -10 -36.5 -15 q-17 -5 -31 -5 ZM152 -44 q20 0 31.5 -11 q11.5 -11 11.5 -30 q0 -33 -25.5 -76 q-25.5 -43 -56.5 -77 l-42 8 q2 2 10 13.5 q8 11.5 10.5 15 q2.5 3.5 8.5 13.5 q6 10 8 15.5 q2 5.5 4.5 13.5 q2.5 8 2.5 14 q-28 7 -28 38 q0 26 19 44.5 q19 18.5 46 18.5 Z" /><glyph glyph-name="uni0237" unicode="&#x237;" d="M301 490 l-101 -476 q-27 -125 -83 -182.5 q-56 -57.5 -150 -61.5 l6 79 q55 10 80.5 48 q25.5 38 46.5 135 l97 458 l104 0 Z" /><glyph glyph-name="circumflex" unicode="&#x2c6;" d="M239 701 l42 0 l125 -101 l-1 -6 l-59 -43 l-101 78 l-135 -77 l-42 44 l0 4 l171 101 Z" /><glyph glyph-name="caron" unicode="&#x2c7;" d="M196 552 l-128 100 l1 5 l61 44 l102 -77 l134 78 l41 -43 l-2 -7 l-168 -100 l-41 0 Z" /><glyph glyph-name="breve" unicode="&#x2d8;" d="M314 591 q-51 -42 -119 -42 q-68 0 -102 41.5 q-34 41.5 -21 109.5 l79 0 q-1 -36 13.5 -57.5 q14.5 -21.5 44.5 -21.5 q30 0 54 22 q24 22 37 57 l80 0 q-15 -67 -66 -109 Z" /><glyph glyph-name="dotaccent" unicode="&#x2d9;" d="M117 589 q-23 0 -36 13 q-13 13 -13 34 q0 31 22 52.5 q22 21.5 54 21.5 q24 0 37 -13 q13 -13 13 -35 q0 -32 -22 -52.5 q-22 -20.5 -55 -20.5 Z" /><glyph glyph-name="ring" unicode="&#x2da;" d="M152 550 q-40 0 -63 19.5 q-23 19.5 -23 52.5 q0 49 36.5 80.5 q36.5 31.5 88.5 31.5 q40 0 63.5 -19 q23.5 -19 23.5 -51 q0 -48 -37 -81 q-37 -33 -89 -33 ZM163 604 q23 0 38 14.5 q15 14.5 15 33.5 q0 30 -36 30 q-21 0 -36 -13.5 q-15 -13.5 -15 -34.5 q0 -30 34 -30 Z" /><glyph glyph-name="ogonek" unicode="&#x2db;" d="M135 -211 q-33 0 -52 19.5 q-19 19.5 -19 51.5 q0 38 23.5 77 q23.5 39 58.5 63 l71 0 q-35 -23 -59 -56.5 q-24 -33.5 -24 -64.5 q0 -28 27 -28 q12 0 26 2 l0 -54 q-23 -10 -52 -10 Z" /><glyph glyph-name="tilde" unicode="&#x2dc;" d="M117 579 l-56 20 q20 44 52.5 70.5 q32.5 26.5 67.5 26.5 q27 0 61 -19.5 q34 -19.5 48 -19.5 q31 0 56 39 l56 -22 q-19 -41 -51.5 -67 q-32.5 -26 -67.5 -26 q-28 0 -60.5 19 q-32.5 19 -47.5 19 q-15 0 -31.5 -11 q-16.5 -11 -26.5 -29 Z" /><glyph glyph-name="hungarumlaut" unicode="&#x2dd;" d="M293 679 l-188 -134 l-38 51 l179 151 l47 -60 l0 -8 ZM480 664 l-196 -122 l-34 55 l189 139 l41 -65 l0 -7 Z" /><glyph glyph-name="uni0326" unicode="&#x326;" d="M-105 -44 q20 0 31.5 -11 q11.5 -11 11.5 -30 q0 -33 -25.5 -76 q-25.5 -43 -56.5 -77 l-42 8 q2 2 10 13.5 q8 11.5 10.5 15 q2.5 3.5 8.5 13.5 q6 10 8 15.5 q2 5.5 4.5 13.5 q2.5 8 2.5 14 q-28 7 -28 38 q0 26 19 44.5 q19 18.5 46 18.5 Z" /><glyph glyph-name="Wgrave" unicode="&#x1e80;" d="M403 812 l0 8 l50 85 l189 -96 l-38 -67 l-201 70 ZM134 0 l-39 690 l97 7 l30 -487 q0 -48 -3 -96 l6 0 q22 53 42 96 l239 483 l95 0 l36 -483 q2 -62 2 -96 l6 0 q16 46 37 95 l233 481 l99 0 l-332 -690 l-118 0 l-38 446 q-3 45 0 101 l-6 0 q-20 -52 -43 -102 l-226 -445 l-117 0 Z" /><glyph glyph-name="wgrave" unicode="&#x1e81;" d="M264 652 l1 8 l56 74 l171 -119 l-45 -61 l-183 98 ZM82 -8 l-29 498 l85 8 l22 -404 l6 0 l196 396 l80 0 l19 -395 l6 0 l202 395 l96 0 l-262 -490 l-110 -8 l-18 346 l-5 0 l-176 -338 l-112 -8 Z" /><glyph glyph-name="Wacute" unicode="&#x1e82;" d="M701 812 l-201 -70 l-38 67 l190 96 l49 -85 l0 -8 ZM134 0 l-39 690 l97 7 l30 -487 q0 -48 -3 -96 l6 0 q22 53 42 96 l239 483 l95 0 l36 -483 q2 -62 2 -96 l6 0 q16 46 37 95 l233 481 l99 0 l-332 -690 l-118 0 l-38 446 q-3 45 0 101 l-6 0 q-20 -52 -43 -102 l-226 -445 l-117 0 Z" /><glyph glyph-name="wacute" unicode="&#x1e83;" d="M574 652 l-221 -97 l-22 60 l221 119 l23 -74 l-1 -8 ZM82 -8 l-29 498 l85 8 l22 -404 l6 0 l196 396 l80 0 l19 -395 l6 0 l202 395 l96 0 l-262 -490 l-110 -8 l-18 346 l-5 0 l-176 -338 l-112 -8 Z" /><glyph glyph-name="Wdieresis" unicode="&#x1e84;" d="M468 758 q-19 0 -31.5 12.5 q-12.5 12.5 -12.5 32.5 q0 27 20.5 46.5 q20.5 19.5 48.5 19.5 q20 0 32 -12.5 q12 -12.5 12 -32.5 q0 -27 -20.5 -46.5 q-20.5 -19.5 -48.5 -19.5 ZM646 758 q-19 0 -31 12.5 q-12 12.5 -12 32.5 q0 27 20 46.5 q20 19.5 48 19.5 q20 0 32.5 -12.5 q12.5 -12.5 12.5 -32.5 q0 -27 -21 -46.5 q-21 -19.5 -49 -19.5 ZM134 0 l-39 690 l97 7 l30 -487 q0 -48 -3 -96 l6 0 q22 53 42 96 l239 483 l95 0 l36 -483 q2 -62 2 -96 l6 0 q16 46 37 95 l233 481 l99 0 l-332 -690 l-118 0 l-38 446 q-3 45 0 101 l-6 0 q-20 -52 -43 -102 l-226 -445 l-117 0 Z" /><glyph glyph-name="wdieresis" unicode="&#x1e85;" d="M332 567 q-22 0 -34 12.5 q-12 12.5 -12 32.5 q0 29 20.5 49 q20.5 20 50.5 20 q20 0 32.5 -12.5 q12.5 -12.5 12.5 -32.5 q0 -30 -20.5 -49.5 q-20.5 -19.5 -49.5 -19.5 ZM503 567 q-21 0 -33 12.5 q-12 12.5 -12 32.5 q0 29 20.5 49 q20.5 20 49.5 20 q21 0 33.5 -12.5 q12.5 -12.5 12.5 -32.5 q0 -30 -20.5 -49.5 q-20.5 -19.5 -50.5 -19.5 ZM82 -8 l-29 498 l85 8 l22 -404 l6 0 l196 396 l80 0 l19 -395 l6 0 l202 395 l96 0 l-262 -490 l-110 -8 l-18 346 l-5 0 l-176 -338 l-112 -8 Z" /><glyph glyph-name="Ygrave" unicode="&#x1ef2;" d="M215 812 l0 8 l50 85 l189 -96 l-38 -67 l-201 70 ZM186 0 l59 278 l-154 401 l2 11 l95 4 l120 -331 l8 0 l243 327 l106 0 l0 -11 l-316 -401 l-59 -278 l-104 0 Z" /><glyph glyph-name="ygrave" unicode="&#x1ef3;" d="M137 652 l1 8 l56 74 l171 -119 l-45 -61 l-183 98 ZM105 -231 l-77 29 l118 202 l-22 0 l-64 482 l2 8 l88 7 l47 -403 l7 0 l221 396 l99 0 l-1 -8 l-418 -713 Z" /><glyph glyph-name="uni1EF8" unicode="&#x1ef8;" d="M431 757 q-27 0 -50 19 q-23 19 -42 19 q-33 0 -80 -36 l-30 41 q62 59 129 59 q29 0 53.5 -18.5 q24.5 -18.5 41.5 -18.5 q38 0 78 35 l27 -45 q-60 -55 -127 -55 ZM186 0 l59 278 l-154 401 l2 11 l95 4 l120 -331 l8 0 l243 327 l106 0 l0 -11 l-316 -401 l-59 -278 l-104 0 Z" /><glyph glyph-name="uni1EF9" unicode="&#x1ef9;" d="M180 579 l-56 20 q20 44 52.5 70.5 q32.5 26.5 67.5 26.5 q27 0 61 -19.5 q34 -19.5 48 -19.5 q31 0 56 39 l56 -22 q-19 -41 -51.5 -67 q-32.5 -26 -67.5 -26 q-28 0 -60.5 19 q-32.5 19 -47.5 19 q-15 0 -31.5 -11 q-16.5 -11 -26.5 -29 ZM105 -231 l-77 29 l118 202 l-22 0 l-64 482 l2 8 l88 7 l47 -403 l7 0 l221 396 l99 0 l-1 -8 l-418 -713 Z" /><glyph glyph-name="endash" unicode="&#x2013;" d="M89 244 l17 73 l426 0 l-17 -73 l-426 0 Z" /><glyph glyph-name="emdash" unicode="&#x2014;" d="M75 244 l16 74 l876 0 l-17 -74 l-875 0 Z" /><glyph glyph-name="quoteleft" unicode="&#x2018;" d="M123 486 q-47 0 -47 50 q0 36 30 88.5 q30 52.5 64 89.5 l46 -11 q-50 -63 -51 -99 q32 -8 32 -43 q0 -33 -21 -54 q-21 -21 -53 -21 Z" /><glyph glyph-name="quoteright" unicode="&#x2019;" d="M132 482 l-46 11 q49 64 50 99 q-32 8 -32 43 q0 33 21 54 q21 21 53 21 q48 0 48 -50 q0 -36 -29.5 -87.5 q-29.5 -51.5 -64.5 -90.5 Z" /><glyph glyph-name="quotesinglbase" unicode="&#x201a;" d="M86 -124 l-46 11 q49 65 51 99 q-32 6 -32 43 q0 31 21.5 53.5 q21.5 22.5 53.5 22.5 q47 0 47 -45 q0 -38 -30 -92 q-30 -54 -65 -92 Z" /><glyph glyph-name="quotedblleft" unicode="&#x201c;" d="M123 486 q-47 0 -47 46 q0 39 29.5 92 q29.5 53 64.5 90 l46 -11 q-50 -63 -51 -99 q32 -8 32 -43 q0 -33 -21 -54 q-21 -21 -53 -21 ZM296 486 q-49 0 -49 46 q0 72 94 182 l47 -11 q-27 -36 -38.5 -57 q-11.5 -21 -12.5 -42 q32 -8 32 -43 q0 -33 -21.5 -54 q-21.5 -21 -51.5 -21 Z" /><glyph glyph-name="quotedblright" unicode="&#x201d;" d="M132 482 l-46 11 q49 64 50 99 q-32 8 -32 43 q0 33 21 54 q21 21 53 21 q48 0 48 -47 q0 -38 -29.5 -89.5 q-29.5 -51.5 -64.5 -91.5 ZM304 482 l-47 11 q50 63 51 99 q-33 9 -33 43 q0 33 21.5 54 q21.5 21 52.5 21 q49 0 49 -47 q0 -38 -29.5 -89.5 q-29.5 -51.5 -64.5 -91.5 Z" /><glyph glyph-name="quotedblbase" unicode="&#x201e;" d="M86 -121 l-46 11 q49 64 50 99 q-32 8 -32 43 q0 33 21 54 q21 21 53 21 q48 0 48 -47 q0 -38 -29.5 -89.5 q-29.5 -51.5 -64.5 -91.5 ZM258 -121 l-47 11 q50 63 51 99 q-33 9 -33 43 q0 33 21.5 54 q21.5 21 52.5 21 q49 0 49 -47 q0 -38 -29.5 -89.5 q-29.5 -51.5 -64.5 -91.5 Z" /><glyph glyph-name="dagger" unicode="&#x2020;" d="M199 -171 l121 573 l-171 1 l19 88 l163 -6 l42 218 l97 0 l-50 -218 l173 6 l-19 -88 l-166 0 l-122 -574 l-87 0 Z" /><glyph glyph-name="daggerdbl" unicode="&#x2021;" d="M195 -171 l51 217 l-173 -4 l19 88 l166 0 l58 273 l-167 0 l19 88 l165 -4 l42 216 l94 0 l-50 -216 l174 4 l-19 -88 l-168 0 l-57 -273 l167 0 l-19 -88 l-166 4 l-41 -217 l-95 0 Z" /><glyph glyph-name="bullet" unicode="&#x2022;" d="M79 235 q0 61 38 101.5 q38 40.5 94 40.5 q39 0 61.5 -24.5 q22.5 -24.5 22.5 -64.5 q0 -60 -38.5 -100.5 q-38.5 -40.5 -95.5 -40.5 q-39 0 -60.5 23.5 q-21.5 23.5 -21.5 64.5 Z" /><glyph glyph-name="ellipsis" unicode="&#x2026;" d="M130 -10 q-24 0 -37.5 14 q-13.5 14 -13.5 37 q0 35 22.5 57.5 q22.5 22.5 57.5 22.5 q25 0 38.5 -13.5 q13.5 -13.5 13.5 -37.5 q0 -34 -23 -57 q-23 -23 -58 -23 ZM380 -10 q-25 0 -39 14 q-14 14 -14 38 q0 34 23.5 56.5 q23.5 22.5 57.5 22.5 q25 0 39 -14 q14 -14 14 -37 q0 -34 -23.5 -57 q-23.5 -23 -57.5 -23 ZM655 -10 q-25 0 -38.5 14 q-13.5 14 -13.5 37 q0 35 23 57.5 q23 22.5 57 22.5 q25 0 38.5 -13.5 q13.5 -13.5 13.5 -37.5 q0 -34 -22.5 -57 q-22.5 -23 -57.5 -23 Z" /><glyph glyph-name="perthousand" unicode="&#x2030;" d="M209 -34 l-57 41 l407 539 l56 -44 l-406 -536 ZM154 225 q-56 0 -88.5 30.5 q-32.5 30.5 -32.5 82.5 q0 79 55 135.5 q55 56.5 135 56.5 q57 0 89.5 -30.5 q32.5 -30.5 32.5 -82.5 q0 -79 -55.5 -135.5 q-55.5 -56.5 -135.5 -56.5 ZM171 289 q41 0 68 35.5 q27 35.5 27 78.5 q0 29 -15 46 q-15 17 -43 17 q-42 0 -70 -35.5 q-28 -35.5 -28 -79.5 q0 -29 16 -45.5 q16 -16.5 45 -16.5 ZM558 -10 q-57 0 -89.5 30.5 q-32.5 30.5 -32.5 81.5 q0 81 55 137 q55 56 135 56 q57 0 89 -30.5 q32 -30.5 32 -81.5 q0 -79 -54.5 -136 q-54.5 -57 -134.5 -57 ZM903 -10 q-57 0 -89 30 q-32 30 -32 82 q0 81 54.5 137 q54.5 56 134.5 56 q57 0 89.5 -30.5 q32.5 -30.5 32.5 -81.5 q0 -79 -55 -136 q-55 -57 -135 -57 ZM575 54 q40 0 67 36 q27 36 27 79 q0 29 -15.5 45.5 q-15.5 16.5 -42.5 16.5 q-42 0 -69 -35.5 q-27 -35.5 -27 -79.5 q0 -29 15.5 -45.5 q15.5 -16.5 44.5 -16.5 ZM920 54 q40 0 67 36 q27 36 27 79 q0 29 -15.5 45.5 q-15.5 16.5 -42.5 16.5 q-42 0 -69 -35.5 q-27 -35.5 -27 -79.5 q0 -29 16 -45.5 q16 -16.5 44 -16.5 Z" /><glyph glyph-name="guilsinglleft" unicode="&#x2039;" d="M188 66 l-68 185 l-2 15 l144 184 l100 0 l-142 -188 l3 -10 l64 -186 l-99 0 Z" /><glyph glyph-name="guilsinglright" unicode="&#x203a;" d="M5 66 l153 188 l6 11 l-67 185 l99 0 l64 -182 l-8 -17 l-148 -185 l-99 0 Z" /><glyph glyph-name="fraction" unicode="&#x2044;" d="M-226 0 l641 730 l51 -40 l-643 -730 l-49 40 Z" /><glyph glyph-name="Euro" unicode="&#x20ac;" d="M455 537 q83 0 171 -28 l-27 -78 q-79 28 -157 28 q-134 0 -186 -108 l237 0 l-29 -62 l-386 0 l29 62 l60 0 q76 186 288 186 ZM350 69 q14 0 28.5 2 q14.5 2 25.5 3.5 q11 1.5 27.5 7 q16.5 5.5 24 7.5 q7.5 2 26.5 10.5 q19 8.5 23 10.5 q4 2 26 12.5 q22 10.5 25 11.5 l28 -69 q-142 -75 -240 -75 q-94 0 -147.5 49 q-53.5 49 -55.5 135 l-85 0 l30 63 l366 0 l-29 -63 l-195 0 q7 -50 38.5 -77.5 q31.5 -27.5 83.5 -27.5 Z" /><glyph glyph-name="trademark" unicode="&#x2122;" d="M262 394 l82 297 l73 0 l18 -130 l9 -96 l2 0 l47 94 l70 132 l79 0 l-50 -297 l-55 0 l37 213 l-3 0 l-113 -212 l-60 0 l-20 212 l-2 0 l-57 -213 l-57 0 ZM92 394 l53 243 l-93 0 l11 53 l240 0 l-10 -53 l-86 0 l-55 -243 l-60 0 Z" /><glyph glyph-name="minus" unicode="&#x2212;" d="M158 237 l17 72 l472 0 l-17 -72 l-472 0 Z" /><glyph glyph-name="approxequal" unicode="&#x2248;" d="M315 442 q47 0 97 -33.5 q50 -33.5 91 -33.5 q51 0 100 45 l30 -59 q-69 -65 -150 -65 q-48 0 -98 33 q-50 33 -91 33 q-47 0 -101 -45 l-30 60 q72 65 152 65 ZM273 246 q47 0 97 -33 q50 -33 92 -33 q50 0 100 44 l29 -59 q-27 -26 -67 -45.5 q-40 -19.5 -83 -19.5 q-47 0 -97 33 q-50 33 -92 33 q-50 0 -100 -44 l-30 59 q69 65 151 65 Z" /><glyph glyph-name="notequal" unicode="&#x2260;" d="M572 332 l-166 0 l-88 -126 l227 0 l-15 -73 l-263 0 l-123 -176 l-58 34 l99 142 l-124 0 l16 73 l159 0 l87 126 l-220 0 l16 74 l256 0 l116 167 l59 -34 l-93 -133 l131 0 l-16 -74 Z" /><glyph glyph-name="uniF8FF" unicode="&#xf8ff;" d="M836 539.5 q-18 -17.5 -44 -17.5 q-26 0 -43.5 18 q-17.5 18 -17.5 43 q0 26 17.5 44 q17.5 18 43.5 18 q26 0 44 -18 q18 -18 18 -44 q0 -26 -18 -43.5 ZM140 270 q0 78 2 156.5 q2 78.5 4 117.5 l3 40 l100 0 q9 -139 10 -314 l-119 0 ZM646 264 q-84 0 -84 66 q0 15 2 50 q2 35 2 37 l-22 0 l0 79 l119 30 l1 -17 l178 0 q10 -64 10 -239 l-118 0 q0 92 3 147 l-61 0 l3 -65 q4 -4 15 -4 q6 0 10.5 1 q4.5 1 5.5 3 l2 1 l0 -74 q-10 -15 -66 -15 ZM368 265 q-92 0 -92 113 q0 136 137 136 q119 0 121 -117 l0 -127 l-83 0 l-8 61 q-6 -33 -23.5 -49.5 q-17.5 -16.5 -51.5 -16.5 ZM874 270 q0 78 2.5 137.5 q2.5 59.5 5.5 80.5 l2 21 l80 0 q6 -45 6 -76 q0 9 4.5 25 q4.5 16 24.5 36 q20 20 52 20 q41 0 57.5 -24.5 q16.5 -24.5 18.5 -81.5 l3 -138 l-114 0 q0 26 1 56 q1 30 1 40 q0 26 -15 26 q-18 0 -18 -26 q0 -10 1.5 -40 q1.5 -30 1.5 -56 l-114 0 ZM1267 265 q-60 0 -90.5 33 q-30.5 33 -30.5 86 q0 130 122 130 q70 0 96.5 -34.5 q26.5 -34.5 26.5 -95.5 q0 -55 -31 -87 q-31 -32 -93 -32 ZM384 375 q0 -30 23 -30 q23 0 23 30 q0 26 -23 26 q-23 0 -23 -26 ZM1268 345 q23 0 23 30 q0 26 -23 26 q-21 0 -21 -26 q0 -30 21 -30 ZM433 -50 q-32 0 -54.5 4 q-22.5 4 -29.5 8 l-7 5 l0 83 q20 -16 69 -16 q24 0 37.5 7 q13.5 7 15.5 14 l2 7 q-13 -11 -49 -11 q-90 0 -90 83 l0 13 l-55 0 l3 -65 q4 -4 15 -4 q6 0 10.5 1 q4.5 1 5.5 3 l2 1 l0 -73 q-10 -15 -67 -15 q-82 0 -82 64 q0 46 3 88 l-18 0 l0 80 l117 29 l-1 -17 l177 -1 l0 -119 q0 -27 14 -27 q17 0 17 27 l0 119 l104 0 q10 -60 10 -147 q0 -73 -35 -107 q-35 -34 -114 -34 ZM598 -44 q0 76 2.5 146.5 q2.5 70.5 5.5 103.5 l2 32 l78 0 q7 -52 7 -76 q2 11 6.5 25.5 q4.5 14.5 24 35 q19.5 20.5 49.5 20.5 q37 0 58.5 -29 q21.5 -29 21.5 -83 q0 -136 -137 -136 q1 -13 1 -39 l-119 0 ZM1010 -5 q-69 0 -105 31 q-36 31 -36 86 q0 64 32.5 97.5 q32.5 33.5 93.5 33.5 q54 0 84.5 -30 q30.5 -30 30.5 -84 l-3 -37 l-124 0 q9 -18 49 -18 q16 0 30 3 q14 3 20 6 l6 3 l0 -75 q-20 -16 -78 -16 ZM978 109 l40 0 q3 27 -17 27 q-23 0 -23 -27 ZM710 72 q4 0 10 1.5 q6 1.5 16.5 11 q10.5 9.5 10.5 25.5 q0 22 -20 22 q-22 0 -22 -32 l5 -28 ZM1138 -10 q-10 0 -16.5 6.5 q-6.5 6.5 -6.5 16.5 q0 10 6.5 16 q6.5 6 16.5 6 q9 0 15.5 -6 q6.5 -6 6.5 -16 q0 -10 -6.5 -16.5 q-6.5 -6.5 -15.5 -6.5 ZM1138 -5 q7 0 12 5.5 q5 5.5 5 12.5 q0 7 -5 12.5 q-5 5.5 -12 5.5 q-8 0 -13 -5.5 q-5 -5.5 -5 -12.5 q0 -7 5 -12.5 q5 -5.5 13 -5.5 ZM1128 2 l0 23 l11 0 q10 0 10 -7 q0 -7 -7 -7 l6 -9 l-6 0 l-4 9 l-5 0 l0 -9 l-5 0 ZM1133 15 l6 0 q5 0 5 4 q0 2 -6 2 l-5 0 l0 -6 Z" /><glyph glyph-name="fi" unicode="&#xfb01;" d="M572 490 l-103 -490 l-103 0 l88 413 l-219 0 l-81 -383 q-26 -132 -83.5 -186 q-57.5 -54 -162.5 -58 l1 83 q71 12 101 47.5 q30 35.5 49 138.5 l76 358 l-87 0 l12 69 l90 8 l11 49 q43 191 196 191 q36 0 96 -9 l-18 -80 q-49 9 -77 9 q-73 0 -96 -108 l-11 -52 l321 0 ZM569 711 q23 0 36.5 -13.5 q13.5 -13.5 13.5 -34.5 q0 -31 -22 -51.5 q-22 -20.5 -54 -20.5 q-23 0 -36.5 13 q-13.5 13 -13.5 35 q0 31 22 51.5 q22 20.5 54 20.5 Z" /><glyph glyph-name="fl" unicode="&#xfb02;" d="M645 721 l1 -9 l-151 -712 l-104 0 l88 413 l-244 0 l-81 -383 q-26 -132 -83.5 -186 q-57.5 -54 -162.5 -58 l1 83 q71 12 101 47.5 q30 35.5 49 138.5 l76 358 l-87 0 l12 69 l90 8 l11 49 q43 191 196 191 q36 0 96 -9 l-18 -80 q-49 9 -77 9 q-73 0 -96 -108 l-11 -52 l244 0 l48 223 l102 8 Z" /></font>
</defs>
</svg>
