<?xml version="1.0" standalone="no"?><!DOCTYPE svg PUBLIC "-//W3C//DTD SVG 1.1//EN" "http://www.w3.org/Graphics/SVG/1.1/DTD/svg11.dtd" ><svg xmlns="http://www.w3.org/2000/svg"><metadata></metadata><defs><font id="com.myfonts.latinotype.sana-sans.italic.wfkit2.hCyN" horiz-adv-x="1500"><font-face font-family="" font-weight="400" font-stretch="normal" units-per-em="1000" panose-1="0 0 5 0 0 0 0 0 0 0" ascent="760" descent="-240" x-height="0" bbox="-228 -263 1391 953" underline-thickness="50" underline-position="-75" unicode-range="U+0020-fb02" /><missing-glyph horiz-adv-x="666" d="M205 720 l440 0 l-153 -720 l-440 0 l153 720 ZM432 71 l122 578 l-288 0 l-123 -578 l289 0 Z" /><glyph glyph-name="space" unicode=" " d="" /><glyph glyph-name="exclam" unicode="!" d="M83 204 l57 299 l46 211 l73 8 l2 -9 l-45 -211 l-73 -298 l-60 0 ZM78 -6 q-20 0 -31.5 11.5 q-11.5 11.5 -11.5 30.5 q0 28 20 48 q20 20 47 20 q19 0 30.5 -12 q11.5 -12 11.5 -30 q0 -28 -20 -48 q-20 -20 -46 -20 Z" /><glyph glyph-name="quotedbl" unicode="&quot;" d="M71 469 l36 221 l60 0 l-58 -221 l-38 0 ZM207 469 l36 221 l61 0 l-57 -221 l-40 0 Z" /><glyph glyph-name="numbersign" unicode="#" d="M618 324 l-113 0 l-36 -122 l119 0 l-17 -57 l-119 0 l-43 -145 l-67 0 l43 145 l-153 0 l-43 -145 l-67 0 l43 145 l-125 0 l15 57 l127 0 l36 122 l-131 0 l15 58 l134 0 l41 139 l67 0 l-41 -139 l153 0 l41 139 l67 0 l-41 -139 l112 0 l-17 -58 ZM402 202 l36 122 l-153 0 l-36 -122 l153 0 Z" /><glyph glyph-name="dollar" unicode="$" d="M259 571 l27 128 l70 0 l-27 -128 l-70 0 ZM181 -10 q-74 0 -186 64 l26 56 q107 -60 160 -60 q48 0 90 28.5 q42 28.5 42 71.5 q0 27 -24.5 46.5 q-24.5 19.5 -59.5 33.5 q-35 14 -70 30 q-35 16 -59.5 44 q-24.5 28 -24.5 67 q0 73 61 117 q61 44 163 44 q23 0 66.5 -9.5 q43.5 -9.5 68.5 -19.5 l-23 -57 q-19 7 -61.5 17 q-42.5 10 -59.5 10 q-61 0 -102 -27 q-41 -27 -41 -66 q0 -25 24.5 -45 q24.5 -20 59.5 -36 q35 -16 70.5 -34 q35.5 -18 60 -47 q24.5 -29 24.5 -66 q0 -63 -62 -112.5 q-62 -49.5 -143 -49.5 ZM101 -173 l27 129 l70 0 l-28 -129 l-69 0 Z" /><glyph glyph-name="percent" unicode="%" d="M181 -33 l-46 36 l397 533 l47 -37 l-398 -532 ZM150 238 q-53 0 -82.5 29 q-29.5 29 -29.5 78 q0 76 51 130 q51 54 126 54 q53 0 83 -29 q30 -29 30 -78 q0 -75 -51.5 -129.5 q-51.5 -54.5 -126.5 -54.5 ZM164 289 q45 0 74.5 37 q29.5 37 29.5 84 q0 32 -17 50 q-17 18 -48 18 q-46 0 -76 -37 q-30 -37 -30 -84 q0 -32 17.5 -50 q17.5 -18 49.5 -18 ZM515 -10 q-53 0 -82.5 29 q-29.5 29 -29.5 78 q0 77 51 131 q51 54 126 54 q53 0 82.5 -29 q29.5 -29 29.5 -78 q0 -76 -51 -130.5 q-51 -54.5 -126 -54.5 ZM529 41 q44 0 73.5 37.5 q29.5 37.5 29.5 84.5 q0 31 -17 49.5 q-17 18.5 -47 18.5 q-46 0 -75.5 -37.5 q-29.5 -37.5 -29.5 -85.5 q0 -30 17.5 -48.5 q17.5 -18.5 48.5 -18.5 Z" /><glyph glyph-name="ampersand" unicode="&amp;" d="M563 -50 q31 0 73 23 l23 -47 q-66 -30 -98 -30 q-59 -1 -116 62 l-71 78 q-92 -46 -177 -46 q-76 0 -118 57 q-42 57 -42 143 q0 131 71 220.5 q71 89.5 187 89.5 q64 0 97 -29.5 q33 -29.5 33 -78.5 q0 -110 -168 -145 l127 -140 q94 59 158.5 154 q64.5 95 65.5 201 q0 161 -213 212 l13 58 q261 -55 261 -269 q0 -111 -70 -220 q-70 -109 -177 -179 l63 -69 q43 -45 78 -45 ZM212 48 q57 0 123 32 l-142 157 l16 41 q64 10 109 37 q45 27 45 70 q0 30 -21.5 47.5 q-21.5 17.5 -60.5 17.5 q-72 0 -127 -73.5 q-55 -73.5 -55 -184.5 q0 -63 32 -103.5 q32 -40.5 81 -40.5 Z" /><glyph glyph-name="quotesingle" unicode="&#39;" d="M71 469 l33 221 l69 0 l-53 -221 l-49 0 Z" /><glyph glyph-name="parenleft" unicode="(" d="M120 -219 q-78 127 -78 315 q0 176 78 353.5 q78 177.5 206 298.5 l44 -28 q-119 -134 -186 -300 q-67 -166 -67 -332 q0 -156 59 -279 l-56 -28 Z" /><glyph glyph-name="parenright" unicode=")" d="M209 749 q78 -127 78 -315 q0 -176 -78 -353.5 q-78 -177.5 -206 -298.5 l-44 28 q119 134 186 300 q67 166 67 332 q0 156 -59 279 l56 28 Z" /><glyph glyph-name="asterisk" unicode="*" d="M136 355 l34 127 l-121 -69 l-19 52 l125 57 l-102 58 l42 52 l92 -69 l21 127 l59 0 l-34 -127 l122 70 l18 -52 l-124 -59 l101 -56 l-41 -52 l-93 68 l-20 -127 l-60 0 Z" /><glyph glyph-name="plus" unicode="+" d="M183 35 l44 206 l-193 0 l13 57 l186 0 l43 203 l63 0 l-43 -203 l189 0 l-13 -57 l-182 0 l-44 -206 l-63 0 Z" /><glyph glyph-name="comma" unicode="," d="M76 -131 l-36 10 q43 67 45 112 q-24 5 -24 40 q0 29 17 48 q17 19 43 19 q37 0 37 -39 q0 -44 -25.5 -97 q-25.5 -53 -56.5 -93 Z" /><glyph glyph-name="hyphen" unicode="-" d="M81 262 l12 56 l291 0 l-11 -56 l-292 0 Z" /><glyph glyph-name="period" unicode="." d="M77 -10 q-17 0 -27 11.5 q-10 11.5 -10 29.5 q0 28 17 47.5 q17 19.5 43 19.5 q37 0 37 -42 q0 -28 -17 -47 q-17 -19 -43 -19 Z" /><glyph glyph-name="slash" unicode="/" d="M-8 -68 l409 800 l59 -28 l-409 -796 l-59 24 Z" /><glyph glyph-name="zero" unicode="0" d="M246 -10 q-87 0 -138.5 56.5 q-51.5 56.5 -51.5 149.5 q0 141 93 237.5 q93 96.5 221 96.5 q88 0 139 -56.5 q51 -56.5 51 -149.5 q0 -140 -92.5 -237 q-92.5 -97 -221.5 -97 ZM264 53 q89 0 156.5 74.5 q67.5 74.5 67.5 180.5 q0 71 -36.5 115 q-36.5 44 -98.5 44 q-90 0 -158 -74.5 q-68 -74.5 -68 -179.5 q0 -71 37.5 -115.5 q37.5 -44.5 99.5 -44.5 Z" /><glyph glyph-name="one" unicode="1" d="M257 65 l134 0 l-22 -65 l-329 0 l15 65 l128 0 l82 382 l-140 1 l13 64 l191 9 l25 0 l-97 -456 Z" /><glyph glyph-name="two" unicode="2" d="M20 0 l11 57 q26 17 76.5 47.5 q50.5 30.5 76.5 47 q26 16.5 65 43 q39 26.5 60 45.5 q21 19 43 43.5 q22 24.5 31.5 48.5 q9.5 24 9.5 49 q0 39 -23 61.5 q-23 22.5 -71 22.5 q-76 -6 -159 -30 l-15 59 q35 12 93 24 q58 12 92 12 q74 0 114.5 -35.5 q40.5 -35.5 40.5 -98.5 q0 -172 -319 -331 l0 -1 l284 0 l-21 -64 l-389 0 Z" /><glyph glyph-name="three" unicode="3" d="M124 -144 q-38 0 -131 28 l18 63 q84 -29 122 -29 q79 0 132 47 q53 47 53 116 q0 48 -36.5 78 q-36.5 30 -96.5 31 l-43 0 l18 57 l41 0 q61 0 109.5 42.5 q48.5 42.5 48.5 99.5 q0 36 -24.5 57 q-24.5 21 -65.5 21 q-8 -1 -147 -27 l-15 55 q108 35 180 35 q65 0 103.5 -34 q38.5 -34 38.5 -89 q0 -65 -40 -112 q-40 -47 -105 -72 l-1 -2 q48 -12 77 -46.5 q29 -34.5 29 -85.5 q0 -100 -74 -166.5 q-74 -66.5 -191 -66.5 Z" /><glyph glyph-name="four" unicode="4" d="M330 -143 l-69 8 l28 136 l-288 0 l3 64 l391 465 l72 -10 l-379 -453 l-1 -3 l216 0 l46 214 l70 0 l-45 -214 l97 0 l-21 -63 l-90 0 l-30 -144 Z" /><glyph glyph-name="five" unicode="5" d="M171 265 q32 2 42 2 q87 0 136 -40.5 q49 -40.5 49 -111.5 q0 -115 -75.5 -186.5 q-75.5 -71.5 -191.5 -71.5 q-52 0 -148 34 l20 62 q102 -32 141 -32 q75 0 127.5 50 q52.5 50 52.5 129 q0 108 -153 108 q-37 0 -85 -2 l-1 3 l95 311 l291 0 l-15 -71 l-231 0 l-54 -184 Z" /><glyph glyph-name="six" unicode="6" d="M511 605 q-116 0 -212.5 -73 q-96.5 -73 -137.5 -188 q114 60 168 60 q66 0 106.5 -43.5 q40.5 -43.5 40.5 -112.5 q0 -107 -71 -182.5 q-71 -75.5 -176 -75.5 q-76 0 -118 54.5 q-42 54.5 -42 146.5 q0 87 33 172 q33 85 90 153 q57 68 142.5 109.5 q85.5 41.5 183.5 41.5 l-7 -62 ZM309 340 q-19 0 -75 -20 q-56 -20 -90 -37 q-7 -44 -7 -77 q0 -69 28.5 -109.5 q28.5 -40.5 80.5 -40.5 q67 0 112 52 q45 52 45 127 q0 105 -94 105 Z" /><glyph glyph-name="seven" unicode="7" d="M71 -138 l-67 29 l400 557 l0 1 l-51 -1 l-258 0 l17 72 l400 0 l-8 -53 l-433 -605 Z" /><glyph glyph-name="eight" unicode="8" d="M207 -10 q-76 0 -120 39 q-44 39 -44 103 q0 132 165 210 l1 2 q-32 14 -50 46.5 q-18 32.5 -18 72.5 q0 83 61 139 q61 56 153 56 q65 0 101.5 -34 q36.5 -34 36.5 -92 q0 -57 -35 -107.5 q-35 -50.5 -100 -78.5 l0 -2 q44 -20 68.5 -57 q24.5 -37 24.5 -83 q0 -93 -72.5 -153.5 q-72.5 -60.5 -171.5 -60.5 ZM303 369 q51 15 85.5 60 q34.5 45 34.5 94 q0 33 -21.5 52 q-21.5 19 -59.5 19 q-57 0 -93.5 -33.5 q-36.5 -33.5 -36.5 -87.5 q0 -81 91 -104 ZM222 56 q67 0 111.5 38 q44.5 38 44.5 100 q0 44 -28 72.5 q-28 28.5 -87 46.5 q-147 -57 -147 -167 q0 -41 27 -65.5 q27 -24.5 79 -24.5 Z" /><glyph glyph-name="nine" unicode="9" d="M295 531 q75 0 117 -55 q42 -55 42 -147 q0 -117 -55 -225.5 q-55 -108.5 -160 -180 q-105 -71.5 -235 -71.5 l7 65 q117 0 213 72 q96 72 138 186 q-110 -58 -168 -58 q-66 0 -106.5 43.5 q-40.5 43.5 -40.5 112.5 q0 107 71.5 182.5 q71.5 75.5 176.5 75.5 ZM214 181 q13 0 30.5 4 q17.5 4 38 12.5 q20.5 8.5 35 15 q14.5 6.5 36 17 q21.5 10.5 26.5 12.5 q6 36 6 73 q0 69 -29 109.5 q-29 40.5 -80 40.5 q-66 0 -112 -52 q-46 -52 -46 -127 q0 -105 95 -105 Z" /><glyph glyph-name="colon" unicode=":" d="M157 391 q-43 0 -43 40 q0 30 18.5 49 q18.5 19 46.5 19 q20 0 32 -11 q12 -11 12 -30 q0 -30 -19.5 -48.5 q-19.5 -18.5 -46.5 -18.5 ZM74 -10 q-20 0 -31.5 11 q-11.5 11 -11.5 29 q0 30 19 49 q19 19 46 19 q44 0 44 -42 q0 -29 -19.5 -47.5 q-19.5 -18.5 -46.5 -18.5 Z" /><glyph glyph-name="semicolon" unicode=";" d="M171 390 q-20 0 -31.5 10.5 q-11.5 10.5 -11.5 29.5 q0 30 19.5 49 q19.5 19 46.5 19 q20 0 31.5 -11 q11.5 -11 11.5 -30 q0 -29 -19.5 -48 q-19.5 -19 -46.5 -19 ZM59 -122 l-38 11 q50 66 52 102 q-31 5 -31 39 q0 30 19 49 q19 19 47 19 q44 0 44 -41 q0 -38 -30 -90.5 q-30 -52.5 -63 -88.5 Z" /><glyph glyph-name="less" unicode="&lt;" d="M370 26 l-268 206 l10 46 l356 207 l-14 -68 l-276 -162 l-1 -4 l208 -162 l-15 -63 Z" /><glyph glyph-name="equal" unicode="=" d="M145 344 l12 56 l443 0 l-11 -56 l-444 0 ZM105 154 l12 55 l443 0 l-11 -55 l-444 0 Z" /><glyph glyph-name="greater" unicode="&gt;" d="M17 25 l13 68 l277 162 l1 3 l-208 162 l14 65 l268 -207 l-9 -46 l-356 -207 Z" /><glyph glyph-name="question" unicode="?" d="M115 199 l10 47 q6 39 32 75 q26 36 58 64 q32 28 63.5 56.5 q31.5 28.5 52.5 65 q21 36.5 21 77.5 q0 75 -103 75 q-43 0 -126 -27 l-12 62 q25 10 71.5 20.5 q46.5 10.5 73.5 10.5 q80 0 124 -33.5 q44 -33.5 44 -95.5 q0 -51 -21.5 -94 q-21.5 -43 -53.5 -73.5 q-32 -30.5 -64.5 -58 q-32.5 -27.5 -60 -61 q-27.5 -33.5 -35.5 -68.5 l-8 -42 l-66 0 ZM108 -11 q-19 0 -31.5 12 q-12.5 12 -12.5 30 q0 28 20 48 q20 20 47 20 q20 0 32 -12 q12 -12 12 -31 q0 -27 -20.5 -47 q-20.5 -20 -46.5 -20 Z" /><glyph glyph-name="at" unicode="@" d="M421 -174 q-159 0 -253.5 94 q-94.5 94 -94.5 262 q0 140 69.5 259 q69.5 119 192.5 188.5 q123 69.5 271 69.5 q151 0 242 -84.5 q91 -84.5 91 -229.5 q0 -146 -88.5 -250 q-88.5 -104 -229.5 -104 l-6 0 l-11 67 l-1 0 q-45 -69 -146 -69 q-58 0 -92.5 31 q-34.5 31 -34.5 81 q0 118 215 118 l52 0 l0 40 q0 113 -101 113 q-74 0 -135 -33 l-18 52 q72 41 160 41 q158 0 158 -169 l0 -206 q83 3 148.5 87.5 q65.5 84.5 65.5 191.5 q0 119 -76.5 190 q-76.5 71 -199.5 71 q-126 0 -233.5 -62 q-107.5 -62 -168.5 -164.5 q-61 -102.5 -61 -219.5 q0 -142 80 -222.5 q80 -80.5 211 -80.5 q110 0 197 39 l13 -55 q-81 -46 -216 -46 ZM470 82 q56 0 91.5 30.5 q35.5 30.5 35.5 57.5 l0 43 l-50 0 q-157 0 -157 -67 q0 -29 22 -46.5 q22 -17.5 58 -17.5 Z" /><glyph glyph-name="A" unicode="a" d="M493 -10 l-24 204 l-301 0 l-108 -194 l-78 0 l390 690 l95 0 l97 -690 l-71 -10 ZM201 252 l260 0 l-33 263 q-1 1 -3 19.5 q-2 18.5 -4 45 q-2 26.5 -4 39.5 l-13 0 l-57 -105 l-146 -262 Z" /><glyph glyph-name="B" unicode="b" d="M288 -5 l-236 5 l145 691 l200 6 q84 0 134.5 -40.5 q50.5 -40.5 50.5 -106.5 q0 -63 -41.5 -118 q-41.5 -55 -103.5 -73 l-1 -4 q48 -8 83.5 -40 q35.5 -32 35.5 -84 q0 -99 -73.5 -163.5 q-73.5 -64.5 -193.5 -72.5 ZM204 374 l131 5 q70 2 120.5 47.5 q50.5 45.5 50.5 105.5 q0 47 -35.5 78 q-35.5 31 -92.5 29 l-120 -5 l-54 -260 ZM295 50 q84 8 136.5 55.5 q52.5 47.5 52.5 114.5 q0 49 -47 77.5 q-47 28.5 -110 26.5 l-136 -5 l-56 -263 l160 -6 Z" /><glyph glyph-name="C" unicode="c" d="M316 -10 q-255 0 -255 249 q0 193 103 319.5 q103 126.5 265 141.5 q82 0 197 -27 l-16 -64 q-116 26 -183 29 q-128 -15 -209.5 -124 q-81.5 -109 -81.5 -269 q0 -94 48 -142.5 q48 -48.5 138 -48.5 q67 0 191 56 l-2 -69 q-126 -51 -195 -51 Z" /><glyph glyph-name="D" unicode="d" d="M231 -5 l-179 5 l148 691 l180 5 q128 0 206.5 -74 q78.5 -74 78.5 -195 q0 -193 -117 -309 q-117 -116 -317 -123 ZM250 53 q157 7 247.5 104 q90.5 97 90.5 257 q0 100 -62.5 163 q-62.5 63 -162.5 61 l-102 -4 l-122 -577 l111 -4 Z" /><glyph glyph-name="E" unicode="e" d="M582 632 l-322 0 l-54 -256 l270 0 l-12 -57 l-270 0 l-55 -261 l359 0 l-11 -58 l-435 0 l146 690 l396 0 l-12 -58 Z" /><glyph glyph-name="F" unicode="f" d="M587 630 l-325 0 l-54 -254 l274 0 l-13 -58 l-274 0 l-68 -318 l-75 0 l147 691 l400 0 l-12 -61 Z" /><glyph glyph-name="G" unicode="g" d="M319 -10 q-124 0 -190.5 63.5 q-66.5 63.5 -66.5 185.5 q0 193 106 323 q106 130 262 138 q41 0 113.5 -10.5 q72.5 -10.5 100.5 -19.5 l-17 -65 q-25 8 -94.5 19 q-69.5 11 -104.5 12 q-122 -8 -207.5 -120 q-85.5 -112 -85.5 -271 q0 -94 49 -142.5 q49 -48.5 139 -48.5 q73 0 157 39 l47 211 l69 0 l-57 -254 q-48 -22 -111 -41 q-63 -19 -109 -19 Z" /><glyph glyph-name="H" unicode="h" d="M634 691 l74 0 l-147 -691 l-74 0 l67 314 l-360 0 l-67 -314 l-75 0 l147 691 l75 0 l-67 -317 l360 0 l67 317 Z" /><glyph glyph-name="I" unicode="i" d="M278 690 l-147 -690 l-73 0 l146 690 l74 0 Z" /><glyph glyph-name="J" unicode="j" d="M398 690 l-117 -545 q-15 -72 -62.5 -113.5 q-47.5 -41.5 -116.5 -41.5 q-72 0 -110 25 l27 57 q34 -18 87 -18 q39 0 66 25 q27 25 36 69 l115 542 l75 0 Z" /><glyph glyph-name="K" unicode="k" d="M632 672 l-311 -323 l-1 -5 l214 -337 l-1 -7 l-67 -11 l-204 322 l-70 -5 l-65 -306 l-75 0 l146 690 l75 0 l-67 -315 l58 5 l296 310 l73 -9 l-1 -9 Z" /><glyph glyph-name="L" unicode="l" d="M274 690 l-134 -632 l351 0 l-19 -58 l-420 0 l147 690 l75 0 Z" /><glyph glyph-name="M" unicode="m" d="M358 -5 l-83 591 l-7 0 l-173 -586 l-73 0 l213 691 l83 0 l57 -371 l27 -228 l4 0 l122 228 l207 371 l97 0 l-89 -691 l-72 0 l79 585 l-6 0 l-326 -590 l-60 0 Z" /><glyph glyph-name="N" unicode="n" d="M49 0 l147 690 l71 0 l244 -568 l5 0 l6 28 l111 540 l76 0 l-147 -690 l-68 0 l-245 570 l-6 0 l-10 -54 l-109 -516 l-75 0 Z" /><glyph glyph-name="O" unicode="o" d="M303 -10 q-115 0 -177.5 66.5 q-62.5 66.5 -62.5 182.5 q0 120 48.5 225 q48.5 105 139.5 170.5 q91 65.5 203 65.5 q115 0 177.5 -66 q62.5 -66 62.5 -182 q0 -120 -48.5 -225.5 q-48.5 -105.5 -139 -171 q-90.5 -65.5 -203.5 -65.5 ZM317 50 q89 0 159 58.5 q70 58.5 105.5 147.5 q35.5 89 35.5 187 q0 93 -46 145 q-46 52 -130 52 q-89 0 -159.5 -58.5 q-70.5 -58.5 -106.5 -147.5 q-36 -89 -36 -186 q0 -94 46.5 -146 q46.5 -52 131.5 -52 Z" /><glyph glyph-name="P" unicode="p" d="M383 697 q105 0 162.5 -49 q57.5 -49 57.5 -134 q0 -123 -86 -196.5 q-86 -73.5 -229 -73.5 l-110 0 l-52 -244 l-74 0 l146 690 l185 7 ZM301 302 q102 1 164 56 q62 55 62 146 q0 62 -40 98.5 q-40 36.5 -116 36.5 l-111 -5 l-70 -332 l111 0 Z" /><glyph glyph-name="Q" unicode="q" d="M303 -10 q-115 0 -177.5 66.5 q-62.5 66.5 -62.5 182.5 q0 120 48.5 225 q48.5 105 139.5 170.5 q91 65.5 203 65.5 q115 0 177.5 -66 q62.5 -66 62.5 -182 q0 -120 -48.5 -225.5 q-48.5 -105.5 -139 -171 q-90.5 -65.5 -203.5 -65.5 ZM317 50 q89 0 159 58.5 q70 58.5 105.5 147.5 q35.5 89 35.5 187 q0 93 -46 145 q-46 52 -130 52 q-89 0 -159.5 -58.5 q-70.5 -58.5 -106.5 -147.5 q-36 -89 -36 -186 q0 -94 46.5 -146 q46.5 -52 131.5 -52 ZM569 -187 q-74 0 -177.5 24.5 q-103.5 24.5 -202.5 24.5 l11 64 q99 0 202 -25 q103 -25 176 -25 l-9 -63 Z" /><glyph glyph-name="R" unicode="r" d="M396 277 q6 -7 16 -25 l137 -245 l0 -7 l-73 -8 l-138 249 q-9 17 -16.5 21.5 q-7.5 4.5 -30.5 4.5 l-109 -5 l-55 -262 l-75 0 l146 690 l193 7 q98 0 155 -48 q57 -48 57 -127 q0 -86 -57.5 -148 q-57.5 -62 -149.5 -90 l0 -7 ZM261 634 l-66 -314 l111 4 q94 4 159.5 58.5 q65.5 54.5 65.5 135.5 q0 55 -40.5 88 q-40.5 33 -113.5 33 l-116 -5 Z" /><glyph glyph-name="S" unicode="s" d="M187 -9 q-82 0 -192 50 l21 67 q110 -55 175 -55 q84 0 135.5 41.5 q51.5 41.5 51.5 107.5 q0 40 -29.5 68.5 q-29.5 28.5 -71.5 47 q-42 18.5 -84 38.5 q-42 20 -71.5 55.5 q-29.5 35.5 -29.5 85.5 q0 94 68 148.5 q68 54.5 175 54.5 q39 0 98 -11 q59 -11 83 -20 l-16 -64 q-25 8 -86.5 20.5 q-61.5 12.5 -81.5 12.5 q-69 -1 -116.5 -34 q-47.5 -33 -47.5 -92 q0 -39 29.5 -68.5 q29.5 -29.5 71 -49.5 q41.5 -20 83.5 -41 q42 -21 71.5 -55.5 q29.5 -34.5 29.5 -81.5 q0 -100 -74 -162.5 q-74 -62.5 -192 -62.5 Z" /><glyph glyph-name="T" unicode="t" d="M607 690 l-13 -58 l-216 0 l-134 -632 l-74 0 l133 632 l-218 0 l13 58 l509 0 Z" /><glyph glyph-name="U" unicode="u" d="M299 -10 q-214 0 -214 178 q0 36 9 79 l93 443 l73 0 l-95 -448 q-6 -26 -6 -61 q0 -129 145 -129 q91 0 150.5 51.5 q59.5 51.5 79.5 144.5 l94 442 l71 0 l-95 -449 q-25 -124 -102.5 -187.5 q-77.5 -63.5 -202.5 -63.5 Z" /><glyph glyph-name="V" unicode="v" d="M193 0 l-98 681 l2 9 l71 10 l77 -570 q6 -36 6 -54 l5 0 q5 8 28 54 l315 560 l77 0 l-2 -9 l-387 -681 l-94 0 Z" /><glyph glyph-name="W" unicode="w" d="M150 0 l-53 690 l68 7 l43 -532 q0 -13 0.5 -40 q0.5 -27 0.5 -41 l5 0 q13 30 37 83 l266 526 l71 0 l44 -526 l3 -83 l5 0 q12 31 35 81 l263 525 l71 0 l-345 -690 l-85 0 l-44 503 q-3 42 -2 83 l-6 0 q-7 -17 -20 -47 q-13 -30 -16 -37 l-257 -502 l-84 0 Z" /><glyph glyph-name="X" unicode="x" d="M460 -4 l-131 302 l-7 0 l-257 -298 l-78 0 l-1 7 l297 347 l-146 327 l2 9 l67 7 l130 -292 l9 0 l248 285 l77 0 l0 -9 l-288 -331 l151 -343 l-1 -7 l-72 -4 Z" /><glyph glyph-name="Y" unicode="y" d="M184 0 l62 291 l-153 390 l2 9 l63 5 l132 -342 l7 0 l257 337 l75 0 l0 -9 l-308 -390 l-61 -291 l-76 0 Z" /><glyph glyph-name="Z" unicode="z" d="M-13 -2 l0 50 l525 577 l1 4 q-36 -2 -58 -2 l-334 0 l12 61 l472 0 l-1 -52 l-524 -575 l-1 -4 l46 2 l359 0 l-19 -61 l-478 0 Z" /><glyph glyph-name="bracketleft" unicode="[" d="M10 -159 l187 879 l192 0 l-11 -54 l-123 0 l-164 -771 l123 0 l-12 -54 l-192 0 Z" /><glyph glyph-name="backslash" unicode="\" d="M460 -68 l-59 -24 l-409 796 l59 28 l409 -800 Z" /><glyph glyph-name="bracketright" unicode="]" d="M333 720 l-187 -879 l-192 0 l11 54 l123 0 l164 771 l-123 0 l12 54 l192 0 Z" /><glyph glyph-name="asciicircum" unicode="^" d="M41 375 l243 315 l46 0 l108 -315 l-67 0 l-74 244 l-4 0 l-186 -244 l-66 0 Z" /><glyph glyph-name="underscore" unicode="_" d="M2 -125 l10 46 l457 0 l-10 -46 l-457 0 Z" /><glyph glyph-name="grave" unicode="`" d="M69 657 l1 6 l49 60 l153 -117 l-37 -49 l-166 100 Z" /><glyph glyph-name="a" unicode="a" d="M316 500 q29 0 75 -14 q46 -14 72 -26 l-74 -355 l-10 -105 l-60 0 l2 88 l-7 0 q-3 -2 -26 -21 q-23 -19 -44 -34 q-21 -15 -51.5 -29 q-30.5 -14 -56.5 -14 q-39 0 -69 49.5 q-30 49.5 -30 128.5 q0 145 85 238.5 q85 93.5 194 93.5 ZM332 156 l55 272 q-11 5 -39.5 10.5 q-28.5 5.5 -47.5 5.5 q-72 0 -134.5 -75.5 q-62.5 -75.5 -62.5 -188.5 q0 -57 16.5 -94 q16.5 -37 39.5 -37 q11 0 28.5 8 q17.5 8 39 22.5 q21.5 14.5 39 27 q17.5 12.5 39 29 q21.5 16.5 27.5 20.5 Z" /><glyph glyph-name="b" unicode="b" d="M363 499 q63 0 97 -46.5 q34 -46.5 34 -127.5 q0 -135 -71.5 -235.5 q-71.5 -100.5 -180.5 -100.5 l-209 31 l149 694 l70 7 l1 -8 l-67 -317 l5 0 q10 11 32.5 31.5 q22.5 20.5 65 46 q42.5 25.5 74.5 25.5 ZM227 46 q75 0 137 78 q62 78 62 197 q0 52 -21.5 86.5 q-21.5 34.5 -52.5 34.5 q-21 0 -62 -27 q-41 -27 -69 -50.5 q-28 -23.5 -51 -44.5 l-54 -254 l111 -20 Z" /><glyph glyph-name="c" unicode="c" d="M214 -10 q-91 0 -137.5 51 q-46.5 51 -46.5 140 q0 137 78 228 q78 91 205 91 q31 0 110 -24 l-17 -59 q-66 26 -100 26 q-94 0 -150 -74 q-56 -74 -56 -179 q0 -64 32 -103.5 q32 -39.5 87 -39.5 q41 0 137 63 l22 -46 q-102 -74 -164 -74 Z" /><glyph glyph-name="d" unicode="d" d="M136 -10 q-45 0 -76.5 48.5 q-31.5 48.5 -31.5 128.5 q0 145 87.5 239 q87.5 94 200.5 94 q30 0 89 -22 l51 236 l70 7 l1 -8 l-130 -609 l-10 -104 l-65 0 l2 90 l-9 0 q-2 -2 -26 -22 q-24 -20 -44 -35 q-20 -15 -51.5 -29 q-31.5 -14 -57.5 -14 ZM152 49 q44 0 183 107 l57 268 q-67 20 -92 20 q-75 0 -138.5 -75.5 q-63.5 -75.5 -63.5 -190.5 q0 -129 54 -129 Z" /><glyph glyph-name="e" unicode="e" d="M125 210 q-5 0 -13 0.5 q-8 0.5 -13 0.5 l0 -19 q0 -63 32 -103.5 q32 -40.5 81 -40.5 q48 0 140 65 l19 -45 q-1 0 -15.5 -11 q-14.5 -11 -30 -20.5 q-15.5 -9.5 -36.5 -21 q-21 -11.5 -45.5 -18.5 q-24.5 -7 -46.5 -7 q-76 0 -118 57 q-42 57 -42 143 q0 131 71 220.5 q71 89.5 188 89.5 q63 0 96 -30.5 q33 -30.5 33 -79.5 q0 -51 -30.5 -88.5 q-30.5 -37.5 -79 -56 q-48.5 -18.5 -96 -27 q-47.5 -8.5 -94.5 -8.5 ZM281 447 q-59 0 -108.5 -50.5 q-49.5 -50.5 -66.5 -132.5 l28 0 q35 0 71 5.5 q36 5.5 73.5 17.5 q37.5 12 61.5 36.5 q24 24.5 24 58.5 q0 30 -22 47.5 q-22 17.5 -61 17.5 Z" /><glyph glyph-name="f" unicode="f" d="M-88 -209 l-2 64 q69 14 99 50.5 q30 36.5 50 140.5 l81 387 l-85 0 l8 50 l88 7 l12 55 q21 93 64 139 q43 46 116 46 q36 0 84 -8 l-13 -63 q-45 9 -76 9 q-76 0 -103 -122 l-12 -56 l116 0 l-11 -57 l-117 0 l-87 -410 q-23 -123 -72.5 -174.5 q-49.5 -51.5 -139.5 -57.5 Z" /><glyph glyph-name="g" unicode="g" d="M365 489 l181 5 l-11 -57 l-59 0 l-45 2 q21 -32 21 -77 q0 -89 -63 -149 q-63 -60 -154 -60 q-32 0 -59 8 q-44 -32 -44 -62 q0 -24 46 -29 l124 -17 q126 -16 126 -104 q0 -79 -84 -128.5 q-84 -49.5 -190 -49.5 q-87 0 -139.5 32.5 q-52.5 32.5 -52.5 87.5 q0 46 35 83.5 q35 37.5 84 60.5 l3 9 q-13 14 -13 37 q0 50 55 92 l4 9 l1 0 q-52 38 -52 109 q0 89 63 149 q63 60 156 60 q37 0 67 -11 ZM235 209 q65 0 110 45.5 q45 45.5 45 103.5 q0 38 -25 61 q-25 23 -69 24 q-64 0 -109.5 -44.5 q-45.5 -44.5 -45.5 -104.5 q0 -39 25 -62 q25 -23 69 -23 ZM282 -4 l-109 13 q-11 1 -29 5 q-48 -18 -81.5 -48 q-33.5 -30 -33.5 -64 q0 -33 35.5 -51 q35.5 -18 96.5 -18 q76 0 138 31 q62 31 62 79 q0 41 -79 53 Z" /><glyph glyph-name="h" unicode="h" d="M374 500 q50 0 76.5 -30 q26.5 -30 26.5 -87 q0 -33 -9 -74 l-46 -216 l-7 -93 l-74 0 l11 105 l42 198 q7 39 7 66 q0 72 -42 72 q-15 0 -36.5 -9.5 q-21.5 -9.5 -45.5 -26 q-24 -16.5 -41 -29.5 q-17 -13 -38 -30.5 q-21 -17.5 -22 -18.5 l-69 -327 l-73 0 l152 714 l70 7 l2 -7 l-68 -322 l4 0 l14 13 q13 13 30.5 27.5 q17.5 14.5 40 30.5 q22.5 16 48 26.5 q25.5 10.5 47.5 10.5 Z" /><glyph glyph-name="i" unicode="i" d="M188 600 q-17 0 -27 10.5 q-10 10.5 -10 27.5 q0 24 16.5 40.5 q16.5 16.5 41.5 16.5 q17 0 27 -10.5 q10 -10.5 10 -27.5 q0 -24 -16.5 -40.5 q-16.5 -16.5 -41.5 -16.5 ZM36 0 l10 104 l83 386 l71 7 l1 -7 l-83 -396 l-8 -94 l-74 0 Z" /><glyph glyph-name="j" unicode="j" d="M214 600 q-19 0 -30.5 11.5 q-11.5 11.5 -11.5 29.5 q0 23 15 38.5 q15 15.5 38 15.5 q19 0 31 -11 q12 -11 12 -29 q0 -24 -15.5 -39.5 q-15.5 -15.5 -38.5 -15.5 ZM-91 -230 l-2 59 q65 13 96 59 q31 46 52 155 l95 447 l73 7 l1 -7 l-101 -470 q-24 -126 -75.5 -185.5 q-51.5 -59.5 -138.5 -64.5 Z" /><glyph glyph-name="k" unicode="k" d="M359 -7 l-172 242 l-49 -4 l-30 -142 l-6 -89 l-72 0 l8 96 l132 618 l72 7 l1 -9 l-91 -419 l38 3 q108 83 233 201 l75 -7 l-1 -7 q-150 -139 -253 -215 l0 -6 l184 -255 l-2 -7 l-67 -7 Z" /><glyph glyph-name="l" unicode="l" d="M36 0 l9 101 l131 613 l72 7 l1 -8 l-131 -621 l-8 -92 l-74 0 Z" /><glyph glyph-name="m" unicode="m" d="M660 500 q50 0 77 -30 q27 -30 27 -87 q0 -33 -9 -74 l-46 -216 l-7 -93 l-74 0 l10 105 l42 198 q7 39 7 68 q0 70 -42 70 q-15 0 -35 -9 q-20 -9 -42.5 -25 q-22.5 -16 -38.5 -28.5 q-16 -12.5 -36.5 -29.5 q-20.5 -17 -22.5 -19 q-1 -4 -2.5 -12.5 q-1.5 -8.5 -2.5 -12.5 l-65 -305 l-74 0 l65 303 q7 31 7 68 q0 70 -42 70 q-47 0 -177 -111 l-70 -330 l-73 0 l81 384 l15 106 l61 7 l1 -7 l-8 -98 l4 0 l14 14 q15 14 32 28 q17 14 39.5 30 q22.5 16 48 26 q25.5 10 47.5 10 q46 0 72.5 -28.5 q26.5 -28.5 30.5 -79.5 l7 0 l14 14 q14 14 31 28 q17 14 39.5 30 q22.5 16 47.5 26 q25 10 47 10 Z" /><glyph glyph-name="n" unicode="n" d="M376 500 q50 0 77 -30 q27 -30 27 -87 q0 -33 -9 -74 l-46 -216 l-7 -93 l-74 0 l10 105 l42 198 q7 39 7 68 q0 70 -42 70 q-18 0 -47.5 -15.5 q-29.5 -15.5 -51.5 -32 q-22 -16.5 -51.5 -39.5 q-29.5 -23 -31.5 -25 l-70 -329 l-73 0 l81 384 l15 106 l61 7 l1 -7 l-8 -98 l5 0 q1 1 12 11 q11 10 23.5 21 q12.5 11 31.5 25 q19 14 37.5 25 q18.5 11 40.5 18.5 q22 7.5 40 7.5 Z" /><glyph glyph-name="o" unicode="o" d="M302 500 q75 0 119.5 -51 q44.5 -51 44.5 -143 q0 -138 -73.5 -227 q-73.5 -89 -190.5 -89 q-75 0 -119.5 51 q-44.5 51 -44.5 143 q0 138 73.5 227 q73.5 89 190.5 89 ZM292 445 q-83 0 -135.5 -72 q-52.5 -72 -52.5 -186 q0 -63 30.5 -102.5 q30.5 -39.5 78.5 -39.5 q82 0 134 72 q52 72 52 186 q0 63 -30 102.5 q-30 39.5 -77 39.5 Z" /><glyph glyph-name="p" unicode="p" d="M62 -228 l-70 8 l127 602 l15 108 l63 7 l1 -7 l-10 -96 l6 0 q118 105 182 105 q60 0 94 -47 q34 -47 34 -127 q0 -135 -71.5 -235.5 q-71.5 -100.5 -180.5 -100.5 l-138 21 l-52 -238 ZM238 46 q75 0 136 78 q61 78 61 197 q0 52 -22 86.5 q-22 34.5 -48 34.5 q-47 0 -184 -121 l-55 -255 l112 -20 Z" /><glyph glyph-name="q" unicode="q" d="M323 -230 l-70 10 l64 305 l-4 0 l-15 -11 q-14 -11 -22.5 -16.5 q-8.5 -5.5 -25.5 -17.5 q-17 -12 -30 -19 q-13 -7 -29 -15 q-16 -8 -30.5 -12 q-14.5 -4 -25.5 -4 q-40 0 -70.5 49 q-30.5 49 -30.5 128 q0 145 87.5 239 q87.5 94 197.5 94 q29 0 76.5 -14.5 q47.5 -14.5 73.5 -26.5 l-146 -689 ZM159 49 q11 0 28.5 7.5 q17.5 7.5 38.5 21 q21 13.5 38 25 q17 11.5 39 27.5 q22 16 28 20 l57 274 q-47 20 -86 20 q-72 0 -135.5 -75.5 q-63.5 -75.5 -63.5 -188.5 q0 -131 56 -131 Z" /><glyph glyph-name="r" unicode="r" d="M36 0 l80 382 l16 108 l63 7 l1 -7 l-11 -100 l4 0 q99 109 175 110 q6 0 14 -2 l-15 -65 q-8 2 -17 2 q-66 -1 -168 -125 l-70 -310 l-72 0 Z" /><glyph glyph-name="s" unicode="s" d="M137 -10 q-32 0 -74.5 14 q-42.5 14 -65.5 27 l24 52 q75 -36 122 -36 q55 0 90 26 q35 26 35 67 q0 26 -20.5 45 q-20.5 19 -50 32 q-29.5 13 -59 28 q-29.5 15 -50 41.5 q-20.5 26.5 -20.5 62.5 q0 68 53.5 109.5 q53.5 41.5 143.5 41.5 q46 0 116 -26 l-19 -60 q-17 8 -54 18.5 q-37 10.5 -52 10.5 q-52 0 -84 -24 q-32 -24 -32 -62 q0 -23 20.5 -42.5 q20.5 -19.5 50 -34 q29.5 -14.5 59 -30 q29.5 -15.5 50 -40.5 q20.5 -25 20.5 -57 q0 -73 -55.5 -118 q-55.5 -45 -147.5 -45 Z" /><glyph glyph-name="t" unicode="t" d="M139 -10 q-37 0 -57 21 q-20 21 -20 58 q0 17 4 32 l70 332 l-86 0 l11 50 l88 7 l43 132 l56 9 l1 -6 l-30 -135 l134 0 l-11 -57 l-134 0 l-71 -335 q-2 -6 -2 -21 q0 -26 16 -26 q15 0 102 51 l23 -47 q-2 -1 -14.5 -9 q-12.5 -8 -21.5 -14 q-9 -6 -24.5 -14.5 q-15.5 -8.5 -27.5 -14 q-12 -5.5 -25.5 -9.5 q-13.5 -4 -23.5 -4 Z" /><glyph glyph-name="u" unicode="u" d="M157 -10 q-50 0 -77.5 30 q-27.5 30 -27.5 87 q0 33 9 74 l66 309 l74 0 l-64 -303 q-7 -39 -7 -68 q0 -70 42 -70 q12 0 30 7 q18 7 33.5 15.5 q15.5 8.5 36.5 23.5 q21 15 32 23.5 q11 8.5 30 23.5 l18 14 l72 334 l73 0 l-82 -384 l-11 -106 l-63 0 l1 90 l-5 0 q-1 -1 -14.5 -13 q-13.5 -12 -31.5 -25.5 q-18 -13.5 -40 -28 q-22 -14.5 -47 -24 q-25 -9.5 -47 -9.5 Z" /><glyph glyph-name="v" unicode="v" d="M109 -7 l-59 497 l63 7 l49 -428 l5 0 l238 421 l68 0 l0 -7 l-282 -483 l-82 -7 Z" /><glyph glyph-name="w" unicode="w" d="M90 -7 l-34 497 l60 7 l29 -429 l6 0 l217 422 l59 0 l28 -421 l5 0 l224 421 l71 0 l-270 -490 l-83 -7 l-25 376 l-4 0 l-198 -369 l-85 -7 Z" /><glyph glyph-name="x" unicode="x" d="M36 -7 l-70 7 l2 9 l218 247 l-112 227 l2 7 l64 7 l93 -197 l3 0 l172 197 l72 -7 l-1 -7 l-215 -233 l120 -241 l-2 -9 l-65 -6 l-100 206 l-2 0 l-179 -207 Z" /><glyph glyph-name="y" unicode="y" d="M82 -231 l-52 25 l120 206 l-15 0 l-64 483 l1 7 l62 7 l52 -428 l8 0 l242 421 l72 0 l-1 -7 l-425 -714 Z" /><glyph glyph-name="z" unicode="z" d="M-6 0 l0 46 l350 384 l0 5 q-26 -3 -55 -3 l-218 1 l12 57 l350 0 l0 -49 l-350 -383 l0 -1 l36 0 l257 0 l-19 -57 l-363 0 Z" /><glyph glyph-name="braceleft" unicode="{" d="M135 -159 q-33 0 -53.5 21.5 q-20.5 21.5 -20.5 57.5 q0 10 4 32 l41 195 q4 24 4 32 q0 76 -81 79 l13 56 q46 2 79.5 30.5 q33.5 28.5 44.5 80.5 l38 184 q11 51 44 81 q33 30 75 30 l86 0 l-12 -56 l-59 0 q-25 0 -43 -19.5 q-18 -19.5 -25 -52.5 l-38 -182 q-11 -51 -42.5 -83 q-31.5 -32 -65.5 -39 l-1 -3 q25 -6 42.5 -29 q17.5 -23 17.5 -59 q0 -19 -4 -36 l-41 -192 q-4 -22 -4 -29 q0 -43 41 -43 l59 0 l-12 -56 l-87 0 Z" /><glyph glyph-name="bar" unicode="|" d="M52 -263 l217 1023 l66 0 l-217 -1023 l-66 0 Z" /><glyph glyph-name="braceright" unicode="}" d="M229 720 q33 0 53.5 -21.5 q20.5 -21.5 20.5 -57.5 q0 -10 -4 -32 l-41 -195 q-4 -24 -4 -32 q0 -76 81 -79 l-13 -56 q-46 -2 -79.5 -30.5 q-33.5 -28.5 -44.5 -80.5 l-38 -184 q-11 -51 -44 -81 q-33 -30 -75 -30 l-86 0 l12 56 l59 0 q25 0 43 19.5 q18 19.5 25 52.5 l38 182 q11 51 42.5 83 q31.5 32 65.5 39 l1 3 q-25 6 -42.5 29 q-17.5 23 -17.5 59 q0 19 4 36 l41 192 q4 22 4 29 q0 43 -41 43 l-59 0 l12 56 l87 0 Z" /><glyph glyph-name="asciitilde" unicode="~" d="M293 354 q48 0 100.5 -35 q52.5 -35 94.5 -35 q52 0 101 49 l24 -41 q-26 -29 -64 -48 q-38 -19 -76 -19 q-32 0 -58.5 11 q-26.5 11 -42.5 24.5 q-16 13.5 -40.5 24.5 q-24.5 11 -52.5 11 q-52 0 -101 -49 l-26 41 q62 66 141 66 Z" /><glyph glyph-name="exclamdown" unicode="¡" d="M204 394 q-19 0 -31 11.5 q-12 11.5 -12 30.5 q0 28 20 48 q20 20 46 20 q20 0 31.5 -12 q11.5 -12 11.5 -31 q0 -28 -19.5 -47.5 q-19.5 -19.5 -46.5 -19.5 ZM40 -220 l49 216 l73 298 l57 5 l2 -10 l-56 -294 l-48 -222 l-77 7 Z" /><glyph glyph-name="cent" unicode="¢" d="M308 571 l28 128 l70 0 l-28 -128 l-70 0 ZM233 -10 q-100 0 -151.5 53.5 q-51.5 53.5 -51.5 147.5 q0 144 86 240 q86 96 226 96 q21 0 122 -28 l-19 -63 q-23 9 -60 18.5 q-37 9.5 -50 9.5 q-105 0 -169 -76.5 q-64 -76.5 -64 -186.5 q0 -68 37.5 -108.5 q37.5 -40.5 99.5 -40.5 q41 0 152 66 l24 -50 q-114 -78 -182 -78 ZM150 -173 l27 129 l70 0 l-27 -129 l-70 0 Z" /><glyph glyph-name="sterling" unicode="£" d="M428 469 q-79 0 -116.5 -35.5 q-37.5 -35.5 -53.5 -106.5 l-11 -52 l261 0 l-25 -58 l-248 0 l-33 -159 l370 0 l-30 -58 l-492 0 l13 58 l74 0 l33 159 l-83 0 l24 58 l71 0 l13 58 q20 97 76.5 147.5 q56.5 50.5 170.5 50.5 q31 0 83.5 -9.5 q52.5 -9.5 87.5 -21.5 l-22 -61 q-106 30 -163 30 Z" /><glyph glyph-name="currency" unicode="¤" d="M447 391 q12 -25 12 -59 q0 -85 -55 -145 l54 -68 l-51 -42 l-54 69 q-47 -26 -102 -26 q-58 0 -95 28 l-82 -70 l-36 42 l84 72 q-12 25 -12 61 q0 85 53 144 l-53 66 l50 41 l53 -67 q48 27 104 27 q60 0 97 -29 l81 69 l35 -42 l-83 -71 ZM169 257 q0 -36 23 -58.5 q23 -22.5 62 -22.5 q66 0 105.5 45 q39.5 45 39.5 107 q0 38 -23 59.5 q-23 21.5 -63 21.5 q-67 0 -105.5 -45 q-38.5 -45 -38.5 -107 Z" /><glyph glyph-name="yen" unicode="¥" d="M646 532 l-1 -5 l-212 -239 l132 0 l-21 -55 l-495 0 l21 55 l137 0 l-107 239 l20 5 l51 0 l109 -244 l71 0 l214 244 l81 0 ZM30 125 l20 56 l495 0 l-21 -56 l-206 0 l-26 -125 l-74 0 l26 125 l-214 0 Z" /><glyph glyph-name="brokenbar" unicode="¦" d="M188 373 l81 387 l66 0 l-82 -387 l-65 0 ZM200 123 l-82 -386 l-66 0 l82 386 l66 0 Z" /><glyph glyph-name="section" unicode="§" d="M516 599 q-90 42 -168 42 q-70 0 -117 -21 q15 -39 57 -89.5 q42 -50.5 80 -91 q38 -40.5 68.5 -98.5 q30.5 -58 30.5 -115 q0 -106 -73 -170.5 q-73 -64.5 -198 -64.5 q-77 0 -201 61 l27 54 q118 -55 183 -55 q64 0 112 21 q-11 33 -40 71 q-29 38 -60.5 73 q-31.5 35 -62 73 q-30.5 38 -50 84.5 q-19.5 46.5 -19.5 93.5 q0 105 74.5 169.5 q74.5 64.5 198.5 64.5 q92 0 181 -43 l-23 -59 ZM364 104 q44 42 44 112 q0 49 -28 100.5 q-28 51.5 -63.5 89.5 q-35.5 38 -75 89 q-39.5 51 -56.5 93 q-40 -42 -40 -111 q0 -49 29 -101 q29 -52 65 -90 q36 -38 74 -88.5 q38 -50.5 51 -93.5 Z" /><glyph glyph-name="dieresis" unicode="¨" d="M108 574 q-18 0 -28.5 10.5 q-10.5 10.5 -10.5 28.5 q0 24 17.5 41 q17.5 17 42.5 17 q17 0 27.5 -11 q10.5 -11 10.5 -28 q0 -25 -17 -41.5 q-17 -16.5 -42 -16.5 ZM266 574 q-38 0 -38 39 q0 23 17 40.5 q17 17.5 41 17.5 q18 0 29 -11 q11 -11 11 -28 q0 -25 -17.5 -41.5 q-17.5 -16.5 -42.5 -16.5 Z" /><glyph glyph-name="copyright" unicode="©" d="M377 624 q99 0 156 -59.5 q57 -59.5 57 -158.5 q0 -145 -95.5 -242 q-95.5 -97 -235.5 -97 q-100 0 -157 59.5 q-57 59.5 -57 158.5 q0 146 95 242.5 q95 96.5 237 96.5 ZM361 514 q-84 0 -137.5 -59 q-53.5 -59 -53.5 -152 q0 -56 29 -90 q29 -34 91 -34 q54 0 96 22 l-7 38 q-35 -18 -81 -18 q-38 0 -59 23.5 q-21 23.5 -21 67.5 q0 72 37.5 116 q37.5 44 94.5 44 q47 0 75 -17 l21 37 q-30 22 -85 22 Z" /><glyph glyph-name="ordfeminine" unicode="ª" d="M100 389 q-38 0 -60 17 q-22 17 -22 46 q0 52 50.5 80 q50.5 28 123.5 28 l43 0 l4 23 q2 16 2 21 q0 43 -60 43 q-46 0 -101 -23 l-5 48 q63 28 121 28 q51 0 78.5 -21 q27.5 -21 27.5 -61 q0 -9 -4 -31 l-41 -193 l-49 0 l3 36 l-3 0 q-42 -41 -108 -41 ZM119 434 q37 0 64.5 17 q27.5 17 32.5 36 l7 31 l-39 0 q-46 0 -77 -13 q-31 -13 -31 -41 q0 -30 43 -30 Z" /><glyph glyph-name="guillemotleft" unicode="«" d="M221 67 l-79 185 l2 13 l158 184 l75 0 l-158 -187 l-2 -8 l79 -187 l-75 0 ZM401 67 l-79 185 l2 13 l158 184 l74 0 l-157 -187 l-2 -8 l78 -187 l-74 0 Z" /><glyph glyph-name="registered" unicode="®" d="M268 67 q-104 0 -163.5 56 q-59.5 56 -59.5 151 q0 145 99 247.5 q99 102.5 243 102.5 q104 0 163.5 -56 q59.5 -56 59.5 -152 q0 -144 -99 -246.5 q-99 -102.5 -243 -102.5 ZM198 189 l45 0 l26 126 l28 0 q13 0 24 -24 l51 -102 l47 0 l0 3 l-50 98 q-5 10 -18 32 q40 7 70 39 q30 32 30 73 q0 33 -24.5 51 q-24.5 18 -66.5 18 l-95 0 l-67 -314 ZM277 349 l25 118 l52 0 q23 0 36 -11.5 q13 -11.5 13 -31.5 q0 -32 -24 -53.5 q-24 -21.5 -56 -21.5 l-46 0 Z" /><glyph glyph-name="macron" unicode="¯" d="M350 650 l-13 -63 l-268 0 l14 63 l267 0 Z" /><glyph glyph-name="degree" unicode="°" d="M170 440 q-42 0 -66.5 27.5 q-24.5 27.5 -24.5 72.5 q0 68 42.5 113.5 q42.5 45.5 104.5 45.5 q43 0 67 -26.5 q24 -26.5 24 -71.5 q0 -69 -42.5 -115 q-42.5 -46 -104.5 -46 ZM180 483 q38 0 64.5 31.5 q26.5 31.5 26.5 76.5 q0 30 -14.5 48 q-14.5 18 -40.5 18 q-38 0 -64 -31.5 q-26 -31.5 -26 -77.5 q0 -30 14 -47.5 q14 -17.5 40 -17.5 Z" /><glyph glyph-name="plusminus" unicode="±" d="M84 0 l11 52 l180 0 l41 189 l-187 0 l13 57 l185 0 l43 203 l64 0 l-44 -203 l189 0 l-12 -57 l-183 0 l-39 -189 l182 0 l-10 -52 l-433 0 Z" /><glyph glyph-name="acute" unicode="´" d="M293 657 l-204 -99 l-20 48 l203 117 l22 -60 l-1 -6 Z" /><glyph glyph-name="paragraph" unicode="¶" d="M612 690 l-146 -690 l-55 0 l134 635 l-58 0 l-135 -635 l-56 0 l135 635 l-81 0 q-110 0 -174.5 -54 q-64.5 -54 -64.5 -146 q0 -63 43.5 -100 q43.5 -37 123.5 -37 l23 0 l-12 -54 l-16 0 q-106 0 -163.5 47 q-57.5 47 -57.5 131 q0 122 86 195 q86 73 230 73 l244 0 Z" /><glyph glyph-name="periodcentered" unicode="·" d="M112 202 q-42 0 -42 40 q0 30 19 49.5 q19 19.5 47 19.5 q20 0 31.5 -11 q11.5 -11 11.5 -30 q0 -30 -19.5 -49 q-19.5 -19 -47.5 -19 Z" /><glyph glyph-name="cedilla" unicode="¸" d="M130 -221 q-36 0 -60 12 l17 47 q13 -8 45 -8 q30 0 50.5 13 q20.5 13 20.5 34 q0 15 -17.5 28.5 q-17.5 13.5 -45.5 19.5 l19 47 q41 -8 68 -34 q27 -26 27 -61 q0 -48 -35.5 -73 q-35.5 -25 -88.5 -25 Z" /><glyph glyph-name="ordmasculine" unicode="º" d="M168 389 q-52 0 -83 31.5 q-31 31.5 -31 88.5 q0 86 53 138.5 q53 52.5 129 52.5 q52 0 83 -31 q31 -31 31 -88 q0 -86 -53 -139 q-53 -53 -129 -53 ZM178 435 q49 0 83 38 q34 38 34 101 q0 37 -19 58.5 q-19 21.5 -51 21.5 q-49 0 -83 -38.5 q-34 -38.5 -34 -100.5 q0 -39 18.5 -59.5 q18.5 -20.5 51.5 -20.5 Z" /><glyph glyph-name="guillemotright" unicode="»" d="M16 67 l146 187 l7 8 l-65 187 l68 0 l66 -184 l-9 -13 l-145 -185 l-68 0 ZM190 67 l144 187 l9 8 l-66 187 l68 0 l66 -184 l-9 -13 l-144 -185 l-68 0 Z" /><glyph glyph-name="onequarter" unicode="¼" d="M723 724 l43 -34 l-648 -725 l-40 35 l645 724 ZM12 304 l12 55 l91 0 l59 273 l-91 1 l12 51 l133 5 l26 0 l-69 -330 l82 0 l-20 -55 l-235 0 ZM781 146 l56 0 l-18 -52 l-48 0 l-21 -94 l-62 0 l19 94 l-189 0 l1 48 l217 252 l67 -5 l-205 -241 l-1 -2 l122 0 l21 103 l65 0 l-24 -103 Z" /><glyph glyph-name="onehalf" unicode="½" d="M723 724 l43 -34 l-648 -725 l-40 35 l645 724 ZM12 304 l12 55 l91 0 l59 273 l-91 1 l12 51 l133 5 l26 0 l-69 -330 l82 0 l-20 -55 l-235 0 ZM850 282 q-5 -30 -20.5 -56.5 q-15.5 -26.5 -51.5 -57.5 q-36 -31 -63.5 -51 q-27.5 -20 -88.5 -61 l186 0 l-19 -56 l-274 0 l9 45 q160 114 199 151 q43 42 51 79 q4 27 -12 42 q-16 15 -44 16 q-43 1 -109 -26 l-13 53 q67 35 141 35 q59 0 89 -30 q30 -30 20 -83 Z" /><glyph glyph-name="threequarters" unicode="¾" d="M132 0 l645 724 l43 -34 l-648 -725 l-40 35 ZM120 300 q-60 0 -108 25 l28 53 q38 -20 93 -20 q42 0 69 19 q27 19 27 48 q0 26 -24 39.5 q-24 13.5 -64 13.5 l-34 0 l19 51 l28 0 q42 0 70.5 21 q28.5 21 28.5 51 q0 18 -15 29 q-15 11 -41 11 q-38 0 -103 -24 l-12 52 q62 30 132 30 q47 0 77 -21.5 q30 -21.5 30 -57.5 q0 -36 -25.5 -66.5 q-25.5 -30.5 -65.5 -42.5 l-1 -3 q31 -7 48.5 -27.5 q17.5 -20.5 17.5 -49.5 q0 -57 -50 -94 q-50 -37 -125 -37 ZM742 0 l19 94 l-189 0 l1 48 l217 252 l67 -5 l-205 -241 l-1 -2 l122 0 l21 103 l65 0 l-24 -103 l56 0 l-18 -52 l-48 0 l-21 -94 l-62 0 Z" /><glyph glyph-name="questiondown" unicode="¿" d="M309 395 q-20 0 -32 11.5 q-12 11.5 -12 31.5 q0 27 20.5 47 q20.5 20 46.5 20 q19 0 31.5 -12 q12.5 -12 12.5 -30 q0 -28 -20 -48 q-20 -20 -47 -20 ZM184 -231 q-80 0 -124.5 33.5 q-44.5 33.5 -44.5 96.5 q0 51 21.5 93.5 q21.5 42.5 53.5 73 q32 30.5 65.5 58 q33.5 27.5 60.5 61 q27 33.5 35 68.5 l8 42 l66 0 l-10 -47 q-10 -44 -37 -81 q-27 -37 -58 -63 q-31 -26 -61 -52.5 q-30 -26.5 -50 -62 q-20 -35.5 -20 -78.5 q0 -41 27.5 -58 q27.5 -17 83.5 -17 q37 0 117 26 l12 -61 q-27 -10 -72.5 -21 q-45.5 -11 -72.5 -11 Z" /><glyph glyph-name="Agrave" unicode="à" d="M269 816 l0 6 l44 71 l172 -95 l-31 -54 l-185 72 ZM493 -10 l-24 204 l-301 0 l-108 -194 l-78 0 l390 690 l95 0 l97 -690 l-71 -10 ZM201 252 l260 0 l-33 263 q-1 1 -3 19.5 q-2 18.5 -4 45 q-2 26.5 -4 39.5 l-13 0 l-57 -105 l-146 -262 Z" /><glyph glyph-name="Aacute" unicode="á" d="M552 816 l-187 -72 l-31 54 l176 95 l42 -71 l0 -6 ZM493 -10 l-24 204 l-301 0 l-108 -194 l-78 0 l390 690 l95 0 l97 -690 l-71 -10 ZM201 252 l260 0 l-33 263 q-1 1 -3 19.5 q-2 18.5 -4 45 q-2 26.5 -4 39.5 l-13 0 l-57 -105 l-146 -262 Z" /><glyph glyph-name="Acircumflex" unicode="â" d="M300 743 l-24 46 l2 7 l171 86 l13 0 l131 -87 l-2 -7 l-41 -46 l-108 74 l-142 -73 ZM493 -10 l-24 204 l-301 0 l-108 -194 l-78 0 l390 690 l95 0 l97 -690 l-71 -10 ZM201 252 l260 0 l-33 263 q-1 1 -3 19.5 q-2 18.5 -4 45 q-2 26.5 -4 39.5 l-13 0 l-57 -105 l-146 -262 Z" /><glyph glyph-name="Atilde" unicode="ã" d="M478 760 q-24 0 -44.5 17.5 q-20.5 17.5 -37.5 17.5 q-31 0 -79 -33 l-18 37 q60 48 117 48 q26 0 47 -17.5 q21 -17.5 37 -17.5 q33 0 76 33 l17 -39 q-56 -46 -115 -46 ZM493 -10 l-24 204 l-301 0 l-108 -194 l-78 0 l390 690 l95 0 l97 -690 l-71 -10 ZM201 252 l260 0 l-33 263 q-1 1 -3 19.5 q-2 18.5 -4 45 q-2 26.5 -4 39.5 l-13 0 l-57 -105 l-146 -262 Z" /><glyph glyph-name="Adieresis" unicode="ä" d="M334 761 q-17 0 -28 10.5 q-11 10.5 -11 28.5 q0 24 17.5 41 q17.5 17 42.5 17 q18 0 28.5 -11 q10.5 -11 10.5 -28 q0 -25 -17 -41.5 q-17 -16.5 -43 -16.5 ZM505 761 q-17 0 -27 10.5 q-10 10.5 -10 28.5 q0 24 17 41 q17 17 41 17 q18 0 29 -11 q11 -11 11 -28 q0 -25 -17.5 -41.5 q-17.5 -16.5 -43.5 -16.5 ZM493 -10 l-24 204 l-301 0 l-108 -194 l-78 0 l390 690 l95 0 l97 -690 l-71 -10 ZM201 252 l260 0 l-33 263 q-1 1 -3 19.5 q-2 18.5 -4 45 q-2 26.5 -4 39.5 l-13 0 l-57 -105 l-146 -262 Z" /><glyph glyph-name="Aring" unicode="å" d="M423 734 q-37 0 -59 19 q-22 19 -22 51 q0 46 34.5 76.5 q34.5 30.5 83.5 30.5 q38 0 59.5 -18.5 q21.5 -18.5 21.5 -49.5 q0 -46 -34.5 -77.5 q-34.5 -31.5 -83.5 -31.5 ZM433 782 q23 0 39 15.5 q16 15.5 16 35.5 q0 30 -38 30 q-22 0 -38.5 -14 q-16.5 -14 -16.5 -35 q0 -32 38 -32 ZM493 -10 l-24 204 l-301 0 l-108 -194 l-78 0 l390 690 l95 0 l97 -690 l-71 -10 ZM201 252 l260 0 l-33 263 q-1 1 -3 19.5 q-2 18.5 -4 45 q-2 26.5 -4 39.5 l-13 0 l-57 -105 l-146 -262 Z" /><glyph glyph-name="AE" unicode="æ" d="M1002 630 l-336 0 l-54 -253 l284 0 l-12 -58 l-284 0 l-55 -258 l340 0 l-21 -61 l-406 0 l41 194 l-285 0 l-157 -194 l-75 0 l554 690 l480 0 l-14 -60 ZM512 253 l80 377 l-25 0 l-305 -377 l250 0 Z" /><glyph glyph-name="Ccedilla" unicode="ç" d="M316 -10 q-255 0 -255 249 q0 193 103 319.5 q103 126.5 265 141.5 q82 0 197 -27 l-16 -64 q-116 26 -183 29 q-128 -15 -209.5 -124 q-81.5 -109 -81.5 -269 q0 -94 48 -142.5 q48 -48.5 138 -48.5 q67 0 191 56 l-2 -69 q-126 -51 -195 -51 ZM246 -231 q-36 0 -60 12 l17 47 q13 -8 45 -8 q30 0 50.5 13 q20.5 13 20.5 34 q0 15 -17.5 28.5 q-17.5 13.5 -45.5 19.5 l19 47 q41 -8 68 -34 q27 -26 27 -61 q0 -48 -35.5 -73 q-35.5 -25 -88.5 -25 Z" /><glyph glyph-name="Egrave" unicode="è" d="M463 798 l-31 -54 l-185 72 l0 6 l44 71 l172 -95 ZM582 632 l-322 0 l-54 -256 l270 0 l-12 -57 l-270 0 l-55 -261 l359 0 l-11 -58 l-435 0 l146 690 l396 0 l-12 -58 Z" /><glyph glyph-name="Eacute" unicode="é" d="M530 816 l-187 -72 l-31 54 l176 95 l42 -71 l0 -6 ZM582 632 l-322 0 l-54 -256 l270 0 l-12 -57 l-270 0 l-55 -261 l359 0 l-11 -58 l-435 0 l146 690 l396 0 l-12 -58 Z" /><glyph glyph-name="Ecircumflex" unicode="ê" d="M420 816 l-142 -73 l-24 46 l2 7 l171 86 l13 0 l131 -87 l-2 -7 l-41 -46 l-108 74 ZM582 632 l-322 0 l-54 -256 l270 0 l-12 -57 l-270 0 l-55 -261 l359 0 l-11 -58 l-435 0 l146 690 l396 0 l-12 -58 Z" /><glyph glyph-name="Edieresis" unicode="ë" d="M312 761 q-17 0 -28 10.5 q-11 10.5 -11 28.5 q0 24 17.5 41 q17.5 17 42.5 17 q18 0 28.5 -11 q10.5 -11 10.5 -28 q0 -25 -17 -41.5 q-17 -16.5 -43 -16.5 ZM483 761 q-17 0 -27 10.5 q-10 10.5 -10 28.5 q0 24 17 41 q17 17 41 17 q18 0 29 -11 q11 -11 11 -28 q0 -25 -17.5 -41.5 q-17.5 -16.5 -43.5 -16.5 ZM582 632 l-322 0 l-54 -256 l270 0 l-12 -57 l-270 0 l-55 -261 l359 0 l-11 -58 l-435 0 l146 690 l396 0 l-12 -58 Z" /><glyph glyph-name="Igrave" unicode="ì" d="M96 816 l0 6 l44 71 l172 -95 l-31 -54 l-185 72 ZM278 690 l-147 -690 l-73 0 l146 690 l74 0 Z" /><glyph glyph-name="Iacute" unicode="í" d="M379 816 l-187 -72 l-31 54 l176 95 l42 -71 l0 -6 ZM278 690 l-147 -690 l-73 0 l146 690 l74 0 Z" /><glyph glyph-name="Icircumflex" unicode="î" d="M127 743 l-24 46 l2 7 l171 86 l13 0 l131 -87 l-2 -7 l-41 -46 l-108 74 l-142 -73 ZM278 690 l-147 -690 l-73 0 l146 690 l74 0 Z" /><glyph glyph-name="Idieresis" unicode="ï" d="M161 761 q-17 0 -28 10.5 q-11 10.5 -11 28.5 q0 24 17.5 41 q17.5 17 42.5 17 q18 0 28.5 -11 q10.5 -11 10.5 -28 q0 -25 -17 -41.5 q-17 -16.5 -43 -16.5 ZM332 761 q-17 0 -27 10.5 q-10 10.5 -10 28.5 q0 24 17 41 q17 17 41 17 q18 0 29 -11 q11 -11 11 -28 q0 -25 -17.5 -41.5 q-17.5 -16.5 -43.5 -16.5 ZM278 690 l-147 -690 l-73 0 l146 690 l74 0 Z" /><glyph glyph-name="Eth" unicode="ð" d="M381 696 q128 0 206.5 -74 q78.5 -74 78.5 -195 q0 -193 -116.5 -309 q-116.5 -116 -316.5 -123 l-179 5 l69 320 l-65 0 l12 57 l65 0 l67 314 l179 5 ZM252 55 q157 7 247 103 q90 96 90 256 q0 100 -62 161 q-62 61 -163 61 l-100 -3 l-54 -256 l195 0 l-12 -57 l-195 0 l-56 -262 l110 -3 Z" /><glyph glyph-name="Ntilde" unicode="ñ" d="M509 760 q-24 0 -44.5 17.5 q-20.5 17.5 -37.5 17.5 q-31 0 -79 -33 l-18 37 q60 48 117 48 q25 0 46 -17.5 q21 -17.5 38 -17.5 q33 0 76 33 l17 -39 q-56 -46 -115 -46 ZM49 0 l147 690 l71 0 l244 -568 l5 0 l6 28 l111 540 l76 0 l-147 -690 l-68 0 l-245 570 l-6 0 l-10 -54 l-109 -516 l-75 0 Z" /><glyph glyph-name="Ograve" unicode="ò" d="M330 816 l0 6 l44 71 l172 -95 l-31 -54 l-185 72 ZM303 -10 q-115 0 -177.5 66.5 q-62.5 66.5 -62.5 182.5 q0 120 48.5 225 q48.5 105 139.5 170.5 q91 65.5 203 65.5 q115 0 177.5 -66 q62.5 -66 62.5 -182 q0 -120 -48.5 -225.5 q-48.5 -105.5 -139 -171 q-90.5 -65.5 -203.5 -65.5 ZM317 50 q89 0 159 58.5 q70 58.5 105.5 147.5 q35.5 89 35.5 187 q0 93 -46 145 q-46 52 -130 52 q-89 0 -159.5 -58.5 q-70.5 -58.5 -106.5 -147.5 q-36 -89 -36 -186 q0 -94 46.5 -146 q46.5 -52 131.5 -52 Z" /><glyph glyph-name="Oacute" unicode="ó" d="M613 816 l-187 -72 l-31 54 l176 95 l42 -71 l0 -6 ZM303 -10 q-115 0 -177.5 66.5 q-62.5 66.5 -62.5 182.5 q0 120 48.5 225 q48.5 105 139.5 170.5 q91 65.5 203 65.5 q115 0 177.5 -66 q62.5 -66 62.5 -182 q0 -120 -48.5 -225.5 q-48.5 -105.5 -139 -171 q-90.5 -65.5 -203.5 -65.5 ZM317 50 q89 0 159 58.5 q70 58.5 105.5 147.5 q35.5 89 35.5 187 q0 93 -46 145 q-46 52 -130 52 q-89 0 -159.5 -58.5 q-70.5 -58.5 -106.5 -147.5 q-36 -89 -36 -186 q0 -94 46.5 -146 q46.5 -52 131.5 -52 Z" /><glyph glyph-name="Ocircumflex" unicode="ô" d="M361 743 l-24 46 l2 7 l171 86 l13 0 l131 -87 l-2 -7 l-41 -46 l-108 74 l-142 -73 ZM303 -10 q-115 0 -177.5 66.5 q-62.5 66.5 -62.5 182.5 q0 120 48.5 225 q48.5 105 139.5 170.5 q91 65.5 203 65.5 q115 0 177.5 -66 q62.5 -66 62.5 -182 q0 -120 -48.5 -225.5 q-48.5 -105.5 -139 -171 q-90.5 -65.5 -203.5 -65.5 ZM317 50 q89 0 159 58.5 q70 58.5 105.5 147.5 q35.5 89 35.5 187 q0 93 -46 145 q-46 52 -130 52 q-89 0 -159.5 -58.5 q-70.5 -58.5 -106.5 -147.5 q-36 -89 -36 -186 q0 -94 46.5 -146 q46.5 -52 131.5 -52 Z" /><glyph glyph-name="Otilde" unicode="õ" d="M539 760 q-24 0 -44.5 17.5 q-20.5 17.5 -37.5 17.5 q-31 0 -79 -33 l-18 37 q60 48 117 48 q25 0 46 -17.5 q21 -17.5 38 -17.5 q33 0 76 33 l17 -39 q-56 -46 -115 -46 ZM303 -10 q-115 0 -177.5 66.5 q-62.5 66.5 -62.5 182.5 q0 120 48.5 225 q48.5 105 139.5 170.5 q91 65.5 203 65.5 q115 0 177.5 -66 q62.5 -66 62.5 -182 q0 -120 -48.5 -225.5 q-48.5 -105.5 -139 -171 q-90.5 -65.5 -203.5 -65.5 ZM317 50 q89 0 159 58.5 q70 58.5 105.5 147.5 q35.5 89 35.5 187 q0 93 -46 145 q-46 52 -130 52 q-89 0 -159.5 -58.5 q-70.5 -58.5 -106.5 -147.5 q-36 -89 -36 -186 q0 -94 46.5 -146 q46.5 -52 131.5 -52 Z" /><glyph glyph-name="Odieresis" unicode="ö" d="M395 761 q-17 0 -28 10.5 q-11 10.5 -11 28.5 q0 24 17.5 41 q17.5 17 42.5 17 q18 0 28.5 -11 q10.5 -11 10.5 -28 q0 -25 -17 -41.5 q-17 -16.5 -43 -16.5 ZM566 761 q-17 0 -27 10.5 q-10 10.5 -10 28.5 q0 24 17 41 q17 17 41 17 q18 0 29 -11 q11 -11 11 -28 q0 -25 -17.5 -41.5 q-17.5 -16.5 -43.5 -16.5 ZM303 -10 q-115 0 -177.5 66.5 q-62.5 66.5 -62.5 182.5 q0 120 48.5 225 q48.5 105 139.5 170.5 q91 65.5 203 65.5 q115 0 177.5 -66 q62.5 -66 62.5 -182 q0 -120 -48.5 -225.5 q-48.5 -105.5 -139 -171 q-90.5 -65.5 -203.5 -65.5 ZM317 50 q89 0 159 58.5 q70 58.5 105.5 147.5 q35.5 89 35.5 187 q0 93 -46 145 q-46 52 -130 52 q-89 0 -159.5 -58.5 q-70.5 -58.5 -106.5 -147.5 q-36 -89 -36 -186 q0 -94 46.5 -146 q46.5 -52 131.5 -52 Z" /><glyph glyph-name="multiply" unicode="×" d="M594 425 l-190 -172 l124 -174 l-52 -42 l-121 171 l-187 -170 l-35 42 l190 172 l-123 174 l51 41 l121 -170 l188 170 l34 -42 Z" /><glyph glyph-name="Oslash" unicode="ø" d="M628 640 q68 -66 68 -188 q0 -120 -48.5 -225.5 q-48.5 -105.5 -139 -171 q-90.5 -65.5 -203.5 -65.5 q-68 0 -121 25 l-79 -112 l-42 30 l78 110 q-76 67 -76 196 q0 120 48.5 225 q48.5 105 139.5 170.5 q91 65.5 203 65.5 q76 0 129 -29 l75 106 l42 -32 l-74 -105 ZM141 248 q0 -91 44 -143 l359 508 q-41 27 -101 27 q-89 0 -159.5 -58.5 q-70.5 -58.5 -106.5 -147.5 q-36 -89 -36 -186 ZM319 50 q89 0 159 58.5 q70 58.5 105.5 147.5 q35.5 89 35.5 187 q0 82 -37 133 l-357 -504 q41 -22 94 -22 Z" /><glyph glyph-name="Ugrave" unicode="ù" d="M288 816 l0 6 l44 71 l172 -95 l-31 -54 l-185 72 ZM299 -10 q-214 0 -214 178 q0 36 9 79 l93 443 l73 0 l-95 -448 q-6 -26 -6 -61 q0 -129 145 -129 q91 0 150.5 51.5 q59.5 51.5 79.5 144.5 l94 442 l71 0 l-95 -449 q-25 -124 -102.5 -187.5 q-77.5 -63.5 -202.5 -63.5 Z" /><glyph glyph-name="Uacute" unicode="ú" d="M571 816 l-187 -72 l-31 54 l176 95 l42 -71 l0 -6 ZM299 -10 q-214 0 -214 178 q0 36 9 79 l93 443 l73 0 l-95 -448 q-6 -26 -6 -61 q0 -129 145 -129 q91 0 150.5 51.5 q59.5 51.5 79.5 144.5 l94 442 l71 0 l-95 -449 q-25 -124 -102.5 -187.5 q-77.5 -63.5 -202.5 -63.5 Z" /><glyph glyph-name="Ucircumflex" unicode="û" d="M319 743 l-24 46 l2 7 l171 86 l13 0 l131 -87 l-2 -7 l-41 -46 l-108 74 l-142 -73 ZM299 -10 q-214 0 -214 178 q0 36 9 79 l93 443 l73 0 l-95 -448 q-6 -26 -6 -61 q0 -129 145 -129 q91 0 150.5 51.5 q59.5 51.5 79.5 144.5 l94 442 l71 0 l-95 -449 q-25 -124 -102.5 -187.5 q-77.5 -63.5 -202.5 -63.5 Z" /><glyph glyph-name="Udieresis" unicode="ü" d="M353 761 q-17 0 -28 10.5 q-11 10.5 -11 28.5 q0 24 17.5 41 q17.5 17 42.5 17 q18 0 28.5 -11 q10.5 -11 10.5 -28 q0 -25 -17 -41.5 q-17 -16.5 -43 -16.5 ZM524 761 q-17 0 -27 10.5 q-10 10.5 -10 28.5 q0 24 17 41 q17 17 41 17 q18 0 29 -11 q11 -11 11 -28 q0 -25 -17.5 -41.5 q-17.5 -16.5 -43.5 -16.5 ZM299 -10 q-214 0 -214 178 q0 36 9 79 l93 443 l73 0 l-95 -448 q-6 -26 -6 -61 q0 -129 145 -129 q91 0 150.5 51.5 q59.5 51.5 79.5 144.5 l94 442 l71 0 l-95 -449 q-25 -124 -102.5 -187.5 q-77.5 -63.5 -202.5 -63.5 Z" /><glyph glyph-name="Yacute" unicode="ý" d="M479 816 l-187 -72 l-31 54 l176 95 l42 -71 l0 -6 ZM184 0 l62 291 l-153 390 l2 9 l63 5 l132 -342 l7 0 l257 337 l75 0 l0 -9 l-308 -390 l-61 -291 l-76 0 Z" /><glyph glyph-name="Thorn" unicode="þ" d="M360 570 q107 0 163.5 -45.5 q56.5 -45.5 56.5 -130.5 q0 -123 -86 -197 q-86 -74 -229 -74 l-111 0 l-26 -123 l-76 0 l146 690 l76 0 l-25 -120 l111 0 ZM278 182 q102 0 163.5 55.5 q61.5 55.5 61.5 145.5 q0 62 -39.5 94.5 q-39.5 32.5 -115.5 32.5 l-111 0 l-70 -328 l111 0 Z" /><glyph glyph-name="germandbls" unicode="ß" d="M-91 -209 l-2 63 q67 14 94.5 49 q27.5 35 47.5 135 l96 451 q53 239 228 239 q66 0 104.5 -36 q38.5 -36 38.5 -96 q0 -61 -47 -126 q-47 -65 -123 -108 l-2 -7 q141 -105 141 -214 q0 -68 -51 -109.5 q-51 -41.5 -135 -41.5 q-61 0 -121 29 l13 59 q56 -27 113 -27 q52 0 83 25 q31 25 31 66 q0 28 -11.5 53 q-11.5 25 -41.5 54.5 q-30 29.5 -46.5 43 q-16.5 13.5 -61.5 48.5 l10 43 q82 41 132 98.5 q50 57.5 50 108.5 q0 35 -24.5 56 q-24.5 21 -66.5 21 q-52 0 -89 -50 q-37 -50 -56 -142 l-96 -453 q-26 -124 -73 -175 q-47 -51 -135 -57 Z" /><glyph glyph-name="agrave" unicode="à" d="M383 606 l-37 -49 l-166 100 l1 6 l49 60 l153 -117 ZM316 500 q29 0 75 -14 q46 -14 72 -26 l-74 -355 l-10 -105 l-60 0 l2 88 l-7 0 q-3 -2 -26 -21 q-23 -19 -44 -34 q-21 -15 -51.5 -29 q-30.5 -14 -56.5 -14 q-39 0 -69 49.5 q-30 49.5 -30 128.5 q0 145 85 238.5 q85 93.5 194 93.5 ZM332 156 l55 272 q-11 5 -39.5 10.5 q-28.5 5.5 -47.5 5.5 q-72 0 -134.5 -75.5 q-62.5 -75.5 -62.5 -188.5 q0 -57 16.5 -94 q16.5 -37 39.5 -37 q11 0 28.5 8 q17.5 8 39 22.5 q21.5 14.5 39 27 q17.5 12.5 39 29 q21.5 16.5 27.5 20.5 Z" /><glyph glyph-name="aacute" unicode="á" d="M461 723 l22 -60 l-1 -6 l-204 -99 l-20 48 l203 117 ZM37 168 q0 145 85 238.5 q85 93.5 194 93.5 q29 0 75 -14 q46 -14 72 -26 l-74 -355 l-10 -105 l-60 0 l2 88 l-7 0 q-3 -2 -26 -21 q-23 -19 -44 -34 q-21 -15 -51.5 -29 q-30.5 -14 -56.5 -14 q-39 0 -69 49.5 q-30 49.5 -30 128.5 ZM332 156 l55 272 q-11 5 -39.5 10.5 q-28.5 5.5 -47.5 5.5 q-72 0 -134.5 -75.5 q-62.5 -75.5 -62.5 -188.5 q0 -57 16.5 -94 q16.5 -37 39.5 -37 q11 0 28.5 8 q17.5 8 39 22.5 q21.5 14.5 39 27 q17.5 12.5 39 29 q21.5 16.5 27.5 20.5 Z" /><glyph glyph-name="acircumflex" unicode="â" d="M364 699 l129 -90 l-1 -6 l-37 -46 l-111 76 l-144 -75 l-21 47 l0 4 l172 90 l13 0 ZM37 168 q0 145 85 238.5 q85 93.5 194 93.5 q29 0 75 -14 q46 -14 72 -26 l-74 -355 l-10 -105 l-60 0 l2 88 l-7 0 q-3 -2 -26 -21 q-23 -19 -44 -34 q-21 -15 -51.5 -29 q-30.5 -14 -56.5 -14 q-39 0 -69 49.5 q-30 49.5 -30 128.5 ZM332 156 l55 272 q-11 5 -39.5 10.5 q-28.5 5.5 -47.5 5.5 q-72 0 -134.5 -75.5 q-62.5 -75.5 -62.5 -188.5 q0 -57 16.5 -94 q16.5 -37 39.5 -37 q11 0 28.5 8 q17.5 8 39 22.5 q21.5 14.5 39 27 q17.5 12.5 39 29 q21.5 16.5 27.5 20.5 Z" /><glyph glyph-name="atilde" unicode="ã" d="M275 624 q-14 0 -30 -10.5 q-16 -10.5 -26 -28.5 l-46 16 q17 38 48.5 63.5 q31.5 25.5 62.5 25.5 q25 0 58.5 -20 q33.5 -20 49.5 -20 q28 0 56 37 l45 -16 q-16 -36 -47.5 -61 q-31.5 -25 -63.5 -25 q-25 0 -58.5 19.5 q-33.5 19.5 -48.5 19.5 ZM37 168 q0 145 85 238.5 q85 93.5 194 93.5 q29 0 75 -14 q46 -14 72 -26 l-74 -355 l-10 -105 l-60 0 l2 88 l-7 0 q-3 -2 -26 -21 q-23 -19 -44 -34 q-21 -15 -51.5 -29 q-30.5 -14 -56.5 -14 q-39 0 -69 49.5 q-30 49.5 -30 128.5 ZM332 156 l55 272 q-11 5 -39.5 10.5 q-28.5 5.5 -47.5 5.5 q-72 0 -134.5 -75.5 q-62.5 -75.5 -62.5 -188.5 q0 -57 16.5 -94 q16.5 -37 39.5 -37 q11 0 28.5 8 q17.5 8 39 22.5 q21.5 14.5 39 27 q17.5 12.5 39 29 q21.5 16.5 27.5 20.5 Z" /><glyph glyph-name="adieresis" unicode="ä" d="M247 574 q-18 0 -28.5 10.5 q-10.5 10.5 -10.5 28.5 q0 24 17.5 41 q17.5 17 42.5 17 q17 0 27.5 -11 q10.5 -11 10.5 -28 q0 -25 -17 -41.5 q-17 -16.5 -42 -16.5 ZM405 574 q-38 0 -38 39 q0 23 17 40.5 q17 17.5 41 17.5 q18 0 29 -11 q11 -11 11 -28 q0 -25 -17.5 -41.5 q-17.5 -16.5 -42.5 -16.5 ZM37 168 q0 145 85 238.5 q85 93.5 194 93.5 q29 0 75 -14 q46 -14 72 -26 l-74 -355 l-10 -105 l-60 0 l2 88 l-7 0 q-3 -2 -26 -21 q-23 -19 -44 -34 q-21 -15 -51.5 -29 q-30.5 -14 -56.5 -14 q-39 0 -69 49.5 q-30 49.5 -30 128.5 ZM332 156 l55 272 q-11 5 -39.5 10.5 q-28.5 5.5 -47.5 5.5 q-72 0 -134.5 -75.5 q-62.5 -75.5 -62.5 -188.5 q0 -57 16.5 -94 q16.5 -37 39.5 -37 q11 0 28.5 8 q17.5 8 39 22.5 q21.5 14.5 39 27 q17.5 12.5 39 29 q21.5 16.5 27.5 20.5 Z" /><glyph glyph-name="aring" unicode="å" d="M324 554 q-37 0 -58.5 18.5 q-21.5 18.5 -21.5 50.5 q0 47 34 77.5 q34 30.5 83 30.5 q37 0 58.5 -18 q21.5 -18 21.5 -49 q0 -47 -34 -78.5 q-34 -31.5 -83 -31.5 ZM352 684 q-23 0 -39 -14.5 q-16 -14.5 -16 -35.5 q0 -32 37 -32 q23 0 38.5 15.5 q15.5 15.5 15.5 35.5 q0 31 -36 31 ZM316 500 q29 0 75 -14 q46 -14 72 -26 l-74 -355 l-10 -105 l-60 0 l2 88 l-7 0 q-3 -2 -26 -21 q-23 -19 -44 -34 q-21 -15 -51.5 -29 q-30.5 -14 -56.5 -14 q-39 0 -69 49.5 q-30 49.5 -30 128.5 q0 145 85 238.5 q85 93.5 194 93.5 ZM332 156 l55 272 q-11 5 -39.5 10.5 q-28.5 5.5 -47.5 5.5 q-72 0 -134.5 -75.5 q-62.5 -75.5 -62.5 -188.5 q0 -57 16.5 -94 q16.5 -37 39.5 -37 q11 0 28.5 8 q17.5 8 39 22.5 q21.5 14.5 39 27 q17.5 12.5 39 29 q21.5 16.5 27.5 20.5 Z" /><glyph glyph-name="ae" unicode="æ" d="M131 -10 q-62 0 -96 27.5 q-34 27.5 -34 74.5 q0 80 76 126 q76 46 188 46 l54 0 q15 73 15 90 q0 80 -81 80 q-76 0 -148 -30 l-10 57 q85 39 178 39 q90 0 119 -78 q38 38 78.5 58 q40.5 20 100.5 20 q63 0 96 -30.5 q33 -30.5 33 -79.5 q0 -88 -84 -134 q-84 -46 -241 -46 q-1 -76 29.5 -119 q30.5 -43 82.5 -43 q48 0 140 65 l20 -45 q-1 0 -15.5 -11 q-14.5 -11 -30 -20.5 q-15.5 -9.5 -37 -21 q-21.5 -11.5 -45.5 -18.5 q-24 -7 -46 -7 q-105 0 -144 104 q-25 -44 -85 -74 q-60 -30 -113 -30 ZM382 264 q257 0 257 118 q0 29 -20 48.5 q-20 19.5 -48 19.5 q-73 0 -121 -52.5 q-48 -52.5 -68 -133.5 ZM146 50 q59 0 108 34 q49 34 58 67 q-1 24 1 59 l-56 0 q-90 0 -138 -28 q-48 -28 -50 -78 q0 -25 20 -39.5 q20 -14.5 57 -14.5 Z" /><glyph glyph-name="ccedilla" unicode="ç" d="M214 -10 q-91 0 -137.5 51 q-46.5 51 -46.5 140 q0 137 78 228 q78 91 205 91 q31 0 110 -24 l-17 -59 q-66 26 -100 26 q-94 0 -150 -74 q-56 -74 -56 -179 q0 -64 32 -103.5 q32 -39.5 87 -39.5 q41 0 137 63 l22 -46 q-102 -74 -164 -74 ZM137 -222 q-36 0 -60 12 l17 47 q13 -8 45 -8 q30 0 50.5 13 q20.5 13 20.5 34 q0 15 -17.5 28.5 q-17.5 13.5 -45.5 19.5 l19 47 q41 -8 68 -34 q27 -26 27 -61 q0 -48 -35.5 -73 q-35.5 -25 -88.5 -25 Z" /><glyph glyph-name="egrave" unicode="è" d="M357 606 l-37 -49 l-166 100 l1 6 l49 60 l153 -117 ZM125 210 q-5 0 -13 0.5 q-8 0.5 -13 0.5 l0 -19 q0 -63 32 -103.5 q32 -40.5 81 -40.5 q48 0 140 65 l19 -45 q-1 0 -15.5 -11 q-14.5 -11 -30 -20.5 q-15.5 -9.5 -36.5 -21 q-21 -11.5 -45.5 -18.5 q-24.5 -7 -46.5 -7 q-76 0 -118 57 q-42 57 -42 143 q0 131 71 220.5 q71 89.5 188 89.5 q63 0 96 -30.5 q33 -30.5 33 -79.5 q0 -51 -30.5 -88.5 q-30.5 -37.5 -79 -56 q-48.5 -18.5 -96 -27 q-47.5 -8.5 -94.5 -8.5 ZM281 447 q-59 0 -108.5 -50.5 q-49.5 -50.5 -66.5 -132.5 l28 0 q35 0 71 5.5 q36 5.5 73.5 17.5 q37.5 12 61.5 36.5 q24 24.5 24 58.5 q0 30 -22 47.5 q-22 17.5 -61 17.5 Z" /><glyph glyph-name="eacute" unicode="é" d="M435 723 l22 -60 l-1 -6 l-204 -99 l-20 48 l203 117 ZM296 500 q63 0 96 -30.5 q33 -30.5 33 -79.5 q0 -51 -30.5 -88.5 q-30.5 -37.5 -79 -56 q-48.5 -18.5 -96 -27 q-47.5 -8.5 -94.5 -8.5 q-5 0 -13 0.5 q-8 0.5 -13 0.5 l0 -19 q0 -63 32 -103.5 q32 -40.5 81 -40.5 q48 0 140 65 l19 -45 q-1 0 -15.5 -11 q-14.5 -11 -30 -20.5 q-15.5 -9.5 -36.5 -21 q-21 -11.5 -45.5 -18.5 q-24.5 -7 -46.5 -7 q-76 0 -118 57 q-42 57 -42 143 q0 131 71 220.5 q71 89.5 188 89.5 ZM134 264 q35 0 71 5.5 q36 5.5 73.5 17.5 q37.5 12 61.5 36.5 q24 24.5 24 58.5 q0 30 -22 47.5 q-22 17.5 -61 17.5 q-59 0 -108.5 -50.5 q-49.5 -50.5 -66.5 -132.5 l28 0 Z" /><glyph glyph-name="ecircumflex" unicode="ê" d="M338 699 l129 -90 l-1 -6 l-37 -46 l-111 76 l-144 -75 l-21 47 l0 4 l172 90 l13 0 ZM296 500 q63 0 96 -30.5 q33 -30.5 33 -79.5 q0 -51 -30.5 -88.5 q-30.5 -37.5 -79 -56 q-48.5 -18.5 -96 -27 q-47.5 -8.5 -94.5 -8.5 q-5 0 -13 0.5 q-8 0.5 -13 0.5 l0 -19 q0 -63 32 -103.5 q32 -40.5 81 -40.5 q48 0 140 65 l19 -45 q-1 0 -15.5 -11 q-14.5 -11 -30 -20.5 q-15.5 -9.5 -36.5 -21 q-21 -11.5 -45.5 -18.5 q-24.5 -7 -46.5 -7 q-76 0 -118 57 q-42 57 -42 143 q0 131 71 220.5 q71 89.5 188 89.5 ZM134 264 q35 0 71 5.5 q36 5.5 73.5 17.5 q37.5 12 61.5 36.5 q24 24.5 24 58.5 q0 30 -22 47.5 q-22 17.5 -61 17.5 q-59 0 -108.5 -50.5 q-49.5 -50.5 -66.5 -132.5 l28 0 Z" /><glyph glyph-name="edieresis" unicode="ë" d="M221 574 q-18 0 -28.5 10.5 q-10.5 10.5 -10.5 28.5 q0 24 17.5 41 q17.5 17 42.5 17 q17 0 27.5 -11 q10.5 -11 10.5 -28 q0 -25 -17 -41.5 q-17 -16.5 -42 -16.5 ZM379 574 q-38 0 -38 39 q0 23 17 40.5 q17 17.5 41 17.5 q18 0 29 -11 q11 -11 11 -28 q0 -25 -17.5 -41.5 q-17.5 -16.5 -42.5 -16.5 ZM296 500 q63 0 96 -30.5 q33 -30.5 33 -79.5 q0 -51 -30.5 -88.5 q-30.5 -37.5 -79 -56 q-48.5 -18.5 -96 -27 q-47.5 -8.5 -94.5 -8.5 q-5 0 -13 0.5 q-8 0.5 -13 0.5 l0 -19 q0 -63 32 -103.5 q32 -40.5 81 -40.5 q48 0 140 65 l19 -45 q-1 0 -15.5 -11 q-14.5 -11 -30 -20.5 q-15.5 -9.5 -36.5 -21 q-21 -11.5 -45.5 -18.5 q-24.5 -7 -46.5 -7 q-76 0 -118 57 q-42 57 -42 143 q0 131 71 220.5 q71 89.5 188 89.5 ZM134 264 q35 0 71 5.5 q36 5.5 73.5 17.5 q37.5 12 61.5 36.5 q24 24.5 24 58.5 q0 30 -22 47.5 q-22 17.5 -61 17.5 q-59 0 -108.5 -50.5 q-49.5 -50.5 -66.5 -132.5 l28 0 Z" /><glyph glyph-name="igrave" unicode="ì" d="M36 657 l1 6 l49 60 l153 -117 l-37 -49 l-166 100 ZM36 0 l10 104 l83 386 l71 7 l1 -7 l-83 -396 l-8 -94 l-74 0 Z" /><glyph glyph-name="iacute" unicode="í" d="M338 657 l-204 -99 l-20 48 l203 117 l22 -60 l-1 -6 ZM36 0 l10 104 l83 386 l71 7 l1 -7 l-83 -396 l-8 -94 l-74 0 Z" /><glyph glyph-name="icircumflex" unicode="î" d="M207 699 l13 0 l129 -90 l-1 -6 l-37 -46 l-111 76 l-144 -75 l-21 47 l0 4 l172 90 ZM36 0 l10 104 l83 386 l71 7 l1 -7 l-83 -396 l-8 -94 l-74 0 Z" /><glyph glyph-name="idieresis" unicode="ï" d="M103 574 q-18 0 -28.5 10.5 q-10.5 10.5 -10.5 28.5 q0 24 17.5 41 q17.5 17 42.5 17 q17 0 27.5 -11 q10.5 -11 10.5 -28 q0 -25 -17 -41.5 q-17 -16.5 -42 -16.5 ZM261 574 q-38 0 -38 39 q0 23 17 40.5 q17 17.5 41 17.5 q18 0 29 -11 q11 -11 11 -28 q0 -25 -17.5 -41.5 q-17.5 -16.5 -42.5 -16.5 ZM36 0 l10 104 l83 386 l71 7 l1 -7 l-83 -396 l-8 -94 l-74 0 Z" /><glyph glyph-name="eth" unicode="ð" d="M215 -10 q-82 0 -129.5 52 q-47.5 52 -47.5 142 q0 129 72.5 222.5 q72.5 93.5 191.5 93.5 q47 0 87.5 -23 q40.5 -23 60.5 -54 q-3 139 -81 204 l-96 -73 l-25 34 l84 62 q-60 33 -148 33 l19 45 q105 0 173 -43 l90 68 l25 -33 l-80 -60 q97 -97 97 -255 q0 -66 -18 -136 q-18 -70 -52 -133.5 q-34 -63.5 -92.5 -104.5 q-58.5 -41 -130.5 -41 ZM228 49 q79 0 140 89.5 q61 89.5 77 210.5 q-18 37 -62.5 64.5 q-44.5 27.5 -92.5 27.5 q-87 0 -137.5 -74.5 q-50.5 -74.5 -50.5 -172.5 q0 -68 33.5 -106.5 q33.5 -38.5 92.5 -38.5 Z" /><glyph glyph-name="ntilde" unicode="ñ" d="M224 585 l-46 16 q17 38 48.5 63.5 q31.5 25.5 62.5 25.5 q25 0 58.5 -20 q33.5 -20 49.5 -20 q28 0 56 37 l45 -16 q-16 -36 -47.5 -61 q-31.5 -25 -63.5 -25 q-25 0 -58.5 19.5 q-33.5 19.5 -48.5 19.5 q-14 0 -30 -10.5 q-16 -10.5 -26 -28.5 ZM376 500 q50 0 77 -30 q27 -30 27 -87 q0 -33 -9 -74 l-46 -216 l-7 -93 l-74 0 l10 105 l42 198 q7 39 7 68 q0 70 -42 70 q-18 0 -47.5 -15.5 q-29.5 -15.5 -51.5 -32 q-22 -16.5 -51.5 -39.5 q-29.5 -23 -31.5 -25 l-70 -329 l-73 0 l81 384 l15 106 l61 7 l1 -7 l-8 -98 l5 0 q1 1 12 11 q11 10 23.5 21 q12.5 11 31.5 25 q19 14 37.5 25 q18.5 11 40.5 18.5 q22 7.5 40 7.5 Z" /><glyph glyph-name="ograve" unicode="ò" d="M170 657 l1 6 l49 60 l153 -117 l-37 -49 l-166 100 ZM302 500 q75 0 119.5 -51 q44.5 -51 44.5 -143 q0 -138 -73.5 -227 q-73.5 -89 -190.5 -89 q-75 0 -119.5 51 q-44.5 51 -44.5 143 q0 138 73.5 227 q73.5 89 190.5 89 ZM292 445 q-83 0 -135.5 -72 q-52.5 -72 -52.5 -186 q0 -63 30.5 -102.5 q30.5 -39.5 78.5 -39.5 q82 0 134 72 q52 72 52 186 q0 63 -30 102.5 q-30 39.5 -77 39.5 Z" /><glyph glyph-name="oacute" unicode="ó" d="M472 657 l-204 -99 l-20 48 l203 117 l22 -60 l-1 -6 ZM302 500 q75 0 119.5 -51 q44.5 -51 44.5 -143 q0 -138 -73.5 -227 q-73.5 -89 -190.5 -89 q-75 0 -119.5 51 q-44.5 51 -44.5 143 q0 138 73.5 227 q73.5 89 190.5 89 ZM292 445 q-83 0 -135.5 -72 q-52.5 -72 -52.5 -186 q0 -63 30.5 -102.5 q30.5 -39.5 78.5 -39.5 q82 0 134 72 q52 72 52 186 q0 63 -30 102.5 q-30 39.5 -77 39.5 Z" /><glyph glyph-name="ocircumflex" unicode="ô" d="M341 699 l13 0 l129 -90 l-1 -6 l-37 -46 l-111 76 l-144 -75 l-21 47 l0 4 l172 90 ZM302 500 q75 0 119.5 -51 q44.5 -51 44.5 -143 q0 -138 -73.5 -227 q-73.5 -89 -190.5 -89 q-75 0 -119.5 51 q-44.5 51 -44.5 143 q0 138 73.5 227 q73.5 89 190.5 89 ZM292 445 q-83 0 -135.5 -72 q-52.5 -72 -52.5 -186 q0 -63 30.5 -102.5 q30.5 -39.5 78.5 -39.5 q82 0 134 72 q52 72 52 186 q0 63 -30 102.5 q-30 39.5 -77 39.5 Z" /><glyph glyph-name="otilde" unicode="õ" d="M209 585 l-46 16 q17 38 48.5 63.5 q31.5 25.5 62.5 25.5 q25 0 58.5 -20 q33.5 -20 49.5 -20 q28 0 56 37 l45 -16 q-16 -36 -47.5 -61 q-31.5 -25 -63.5 -25 q-25 0 -58.5 19.5 q-33.5 19.5 -48.5 19.5 q-14 0 -30 -10.5 q-16 -10.5 -26 -28.5 ZM302 500 q75 0 119.5 -51 q44.5 -51 44.5 -143 q0 -138 -73.5 -227 q-73.5 -89 -190.5 -89 q-75 0 -119.5 51 q-44.5 51 -44.5 143 q0 138 73.5 227 q73.5 89 190.5 89 ZM292 445 q-83 0 -135.5 -72 q-52.5 -72 -52.5 -186 q0 -63 30.5 -102.5 q30.5 -39.5 78.5 -39.5 q82 0 134 72 q52 72 52 186 q0 63 -30 102.5 q-30 39.5 -77 39.5 Z" /><glyph glyph-name="odieresis" unicode="ö" d="M237 574 q-18 0 -28.5 10.5 q-10.5 10.5 -10.5 28.5 q0 24 17.5 41 q17.5 17 42.5 17 q17 0 27.5 -11 q10.5 -11 10.5 -28 q0 -25 -17 -41.5 q-17 -16.5 -42 -16.5 ZM395 574 q-38 0 -38 39 q0 23 17 40.5 q17 17.5 41 17.5 q18 0 29 -11 q11 -11 11 -28 q0 -25 -17.5 -41.5 q-17.5 -16.5 -42.5 -16.5 ZM302 500 q75 0 119.5 -51 q44.5 -51 44.5 -143 q0 -138 -73.5 -227 q-73.5 -89 -190.5 -89 q-75 0 -119.5 51 q-44.5 51 -44.5 143 q0 138 73.5 227 q73.5 89 190.5 89 ZM292 445 q-83 0 -135.5 -72 q-52.5 -72 -52.5 -186 q0 -63 30.5 -102.5 q30.5 -39.5 78.5 -39.5 q82 0 134 72 q52 72 52 186 q0 63 -30 102.5 q-30 39.5 -77 39.5 Z" /><glyph glyph-name="divide" unicode="÷" d="M374.5 400 q-17.5 -14 -38.5 -14 q-21 0 -32.5 13.5 q-11.5 13.5 -7.5 35.5 q5 22 22.5 37 q17.5 15 39.5 15 q20 0 31 -14.5 q11 -14.5 7 -36.5 q-4 -22 -21.5 -36 ZM60 238 l12 53 l469 0 l-11 -53 l-470 0 ZM262 42 q-21 0 -32 13.5 q-11 13.5 -7 34.5 q4 22 21.5 36.5 q17.5 14.5 39.5 14.5 q21 0 32 -14 q11 -14 7 -36 q-4 -22 -21.5 -35.5 q-17.5 -13.5 -39.5 -13.5 Z" /><glyph glyph-name="oslash" unicode="ø" d="M401 468 q65 -51 65 -162 q0 -138 -73.5 -227 q-73.5 -89 -190.5 -89 q-38 0 -67 13 l-57 -99 l-37 23 l57 99 q-60 51 -60 158 q0 138 73.5 227 q73.5 89 190.5 89 q33 0 64 -11 l64 111 l35 -21 l-64 -111 ZM104 187 q0 -61 29 -100 l202 348 q-22 10 -43 10 q-83 0 -135.5 -72 q-52.5 -72 -52.5 -186 ZM213 45 q82 0 134 72 q52 72 52 186 q0 65 -32 105 l-201 -351 q21 -12 47 -12 Z" /><glyph glyph-name="ugrave" unicode="ù" d="M174 657 l1 6 l49 60 l153 -117 l-37 -49 l-166 100 ZM157 -10 q-50 0 -77.5 30 q-27.5 30 -27.5 87 q0 33 9 74 l66 309 l74 0 l-64 -303 q-7 -39 -7 -68 q0 -70 42 -70 q12 0 30 7 q18 7 33.5 15.5 q15.5 8.5 36.5 23.5 q21 15 32 23.5 q11 8.5 30 23.5 l18 14 l72 334 l73 0 l-82 -384 l-11 -106 l-63 0 l1 90 l-5 0 q-1 -1 -14.5 -13 q-13.5 -12 -31.5 -25.5 q-18 -13.5 -40 -28 q-22 -14.5 -47 -24 q-25 -9.5 -47 -9.5 Z" /><glyph glyph-name="uacute" unicode="ú" d="M476 657 l-204 -99 l-20 48 l203 117 l22 -60 l-1 -6 ZM157 -10 q-50 0 -77.5 30 q-27.5 30 -27.5 87 q0 33 9 74 l66 309 l74 0 l-64 -303 q-7 -39 -7 -68 q0 -70 42 -70 q12 0 30 7 q18 7 33.5 15.5 q15.5 8.5 36.5 23.5 q21 15 32 23.5 q11 8.5 30 23.5 l18 14 l72 334 l73 0 l-82 -384 l-11 -106 l-63 0 l1 90 l-5 0 q-1 -1 -14.5 -13 q-13.5 -12 -31.5 -25.5 q-18 -13.5 -40 -28 q-22 -14.5 -47 -24 q-25 -9.5 -47 -9.5 Z" /><glyph glyph-name="ucircumflex" unicode="û" d="M345 699 l13 0 l129 -90 l-1 -6 l-37 -46 l-111 76 l-144 -75 l-21 47 l0 4 l172 90 ZM157 -10 q-50 0 -77.5 30 q-27.5 30 -27.5 87 q0 33 9 74 l66 309 l74 0 l-64 -303 q-7 -39 -7 -68 q0 -70 42 -70 q12 0 30 7 q18 7 33.5 15.5 q15.5 8.5 36.5 23.5 q21 15 32 23.5 q11 8.5 30 23.5 l18 14 l72 334 l73 0 l-82 -384 l-11 -106 l-63 0 l1 90 l-5 0 q-1 -1 -14.5 -13 q-13.5 -12 -31.5 -25.5 q-18 -13.5 -40 -28 q-22 -14.5 -47 -24 q-25 -9.5 -47 -9.5 Z" /><glyph glyph-name="udieresis" unicode="ü" d="M241 574 q-18 0 -28.5 10.5 q-10.5 10.5 -10.5 28.5 q0 24 17.5 41 q17.5 17 42.5 17 q17 0 27.5 -11 q10.5 -11 10.5 -28 q0 -25 -17 -41.5 q-17 -16.5 -42 -16.5 ZM399 574 q-38 0 -38 39 q0 23 17 40.5 q17 17.5 41 17.5 q18 0 29 -11 q11 -11 11 -28 q0 -25 -17.5 -41.5 q-17.5 -16.5 -42.5 -16.5 ZM157 -10 q-50 0 -77.5 30 q-27.5 30 -27.5 87 q0 33 9 74 l66 309 l74 0 l-64 -303 q-7 -39 -7 -68 q0 -70 42 -70 q12 0 30 7 q18 7 33.5 15.5 q15.5 8.5 36.5 23.5 q21 15 32 23.5 q11 8.5 30 23.5 l18 14 l72 334 l73 0 l-82 -384 l-11 -106 l-63 0 l1 90 l-5 0 q-1 -1 -14.5 -13 q-13.5 -12 -31.5 -25.5 q-18 -13.5 -40 -28 q-22 -14.5 -47 -24 q-25 -9.5 -47 -9.5 Z" /><glyph glyph-name="yacute" unicode="ý" d="M440 657 l-204 -99 l-20 48 l203 117 l22 -60 l-1 -6 ZM82 -231 l-52 25 l120 206 l-15 0 l-64 483 l1 7 l62 7 l52 -428 l8 0 l242 421 l72 0 l-1 -7 l-425 -714 Z" /><glyph glyph-name="thorn" unicode="þ" d="M62 -228 l-70 8 l200 933 l71 7 l1 -7 l-70 -317 l6 0 q12 12 35 31.5 q23 19.5 67 45.5 q44 26 74 26 q60 0 94 -47 q34 -47 34 -127 q0 -135 -71.5 -235.5 q-71.5 -100.5 -180.5 -100.5 l-138 21 l-52 -238 ZM238 46 q75 0 136 78 q61 78 61 197 q0 52 -22 86.5 q-22 34.5 -48 34.5 q-47 0 -184 -121 l-55 -255 l112 -20 Z" /><glyph glyph-name="ydieresis" unicode="ÿ" d="M205 574 q-18 0 -28.5 10.5 q-10.5 10.5 -10.5 28.5 q0 24 17.5 41 q17.5 17 42.5 17 q17 0 27.5 -11 q10.5 -11 10.5 -28 q0 -25 -17 -41.5 q-17 -16.5 -42 -16.5 ZM363 574 q-38 0 -38 39 q0 23 17 40.5 q17 17.5 41 17.5 q18 0 29 -11 q11 -11 11 -28 q0 -25 -17.5 -41.5 q-17.5 -16.5 -42.5 -16.5 ZM82 -231 l-52 25 l120 206 l-15 0 l-64 483 l1 7 l62 7 l52 -428 l8 0 l242 421 l72 0 l-1 -7 l-425 -714 Z" /><glyph glyph-name="Amacron" unicode="&#x100;" d="M578 839 l-13 -62 l-268 0 l14 62 l267 0 ZM493 -10 l-24 204 l-301 0 l-108 -194 l-78 0 l390 690 l95 0 l97 -690 l-71 -10 ZM201 252 l260 0 l-33 263 q-1 1 -3 19.5 q-2 18.5 -4 45 q-2 26.5 -4 39.5 l-13 0 l-57 -105 l-146 -262 Z" /><glyph glyph-name="amacron" unicode="&#x101;" d="M472 650 l-13 -63 l-268 0 l14 63 l267 0 ZM37 168 q0 145 85 238.5 q85 93.5 194 93.5 q29 0 75 -14 q46 -14 72 -26 l-74 -355 l-10 -105 l-60 0 l2 88 l-7 0 q-3 -2 -26 -21 q-23 -19 -44 -34 q-21 -15 -51.5 -29 q-30.5 -14 -56.5 -14 q-39 0 -69 49.5 q-30 49.5 -30 128.5 ZM332 156 l55 272 q-11 5 -39.5 10.5 q-28.5 5.5 -47.5 5.5 q-72 0 -134.5 -75.5 q-62.5 -75.5 -62.5 -188.5 q0 -57 16.5 -94 q16.5 -37 39.5 -37 q11 0 28.5 8 q17.5 8 39 22.5 q21.5 14.5 39 27 q17.5 12.5 39 29 q21.5 16.5 27.5 20.5 Z" /><glyph glyph-name="Abreve" unicode="&#x102;" d="M586 882 q-13 -59 -57 -98 q-44 -39 -105 -39 q-63 0 -91.5 39 q-28.5 39 -16.5 98 l57 0 q-3 -35 11.5 -57.5 q14.5 -22.5 50.5 -22.5 q63 0 94 80 l57 0 ZM493 -10 l-24 204 l-301 0 l-108 -194 l-78 0 l390 690 l95 0 l97 -690 l-71 -10 ZM201 252 l260 0 l-33 263 q-1 1 -3 19.5 q-2 18.5 -4 45 q-2 26.5 -4 39.5 l-13 0 l-57 -105 l-146 -262 Z" /><glyph glyph-name="abreve" unicode="&#x103;" d="M313 551 q-62 0 -95 39.5 q-33 39.5 -20 103.5 l65 0 q0 -35 15 -57.5 q15 -22.5 46 -22.5 q31 0 56.5 23 q25.5 23 39.5 57 l66 0 q-15 -64 -63.5 -103.5 q-48.5 -39.5 -109.5 -39.5 ZM37 168 q0 145 85 238.5 q85 93.5 194 93.5 q29 0 75 -14 q46 -14 72 -26 l-74 -355 l-10 -105 l-60 0 l2 88 l-7 0 q-3 -2 -26 -21 q-23 -19 -44 -34 q-21 -15 -51.5 -29 q-30.5 -14 -56.5 -14 q-39 0 -69 49.5 q-30 49.5 -30 128.5 ZM332 156 l55 272 q-11 5 -39.5 10.5 q-28.5 5.5 -47.5 5.5 q-72 0 -134.5 -75.5 q-62.5 -75.5 -62.5 -188.5 q0 -57 16.5 -94 q16.5 -37 39.5 -37 q11 0 28.5 8 q17.5 8 39 22.5 q21.5 14.5 39 27 q17.5 12.5 39 29 q21.5 16.5 27.5 20.5 Z" /><glyph glyph-name="Aogonek" unicode="&#x104;" d="M477 -128 q0 -30 25 -30 q18 0 31 3 l-2 -45 q-22 -11 -48 -11 q-30 0 -47 18 q-17 18 -17 49 q0 35 21 73 q21 38 53 63 l-24 202 l-301 0 l-108 -194 l-78 0 l390 690 l95 0 l97 -690 q-87 -61 -87 -128 ZM201 252 l260 0 l-33 263 q-1 1 -3 19.5 q-2 18.5 -4 45 q-2 26.5 -4 39.5 l-13 0 l-57 -105 l-146 -262 Z" /><glyph glyph-name="aogonek" unicode="&#x105;" d="M316 500 q29 0 75 -14 q46 -14 72 -26 l-74 -355 l-10 -105 q-87 -61 -87 -128 q0 -30 25 -30 q17 0 31 3 l-2 -45 q-22 -11 -48 -11 q-30 0 -47 18 q-17 18 -17 49 q0 38 24.5 79 q24.5 41 60.5 65 l2 88 l-7 0 q-3 -2 -26 -21 q-23 -19 -44 -34 q-21 -15 -51.5 -29 q-30.5 -14 -56.5 -14 q-39 0 -69 49.5 q-30 49.5 -30 128.5 q0 145 85 238.5 q85 93.5 194 93.5 ZM332 156 l55 272 q-11 5 -39.5 10.5 q-28.5 5.5 -47.5 5.5 q-72 0 -134.5 -75.5 q-62.5 -75.5 -62.5 -188.5 q0 -57 16.5 -94 q16.5 -37 39.5 -37 q11 0 28.5 8 q17.5 8 39 22.5 q21.5 14.5 39 27 q17.5 12.5 39 29 q21.5 16.5 27.5 20.5 Z" /><glyph glyph-name="Cacute" unicode="&#x106;" d="M593 817 l-187 -72 l-31 54 l176 95 l42 -71 l0 -6 ZM316 -10 q-255 0 -255 249 q0 193 103 319.5 q103 126.5 265 141.5 q82 0 197 -27 l-16 -64 q-116 26 -183 29 q-128 -15 -209.5 -124 q-81.5 -109 -81.5 -269 q0 -94 48 -142.5 q48 -48.5 138 -48.5 q67 0 191 56 l-2 -69 q-126 -51 -195 -51 Z" /><glyph glyph-name="cacute" unicode="&#x107;" d="M475 658 l-204 -99 l-20 48 l203 117 l22 -60 l-1 -6 ZM214 -10 q-91 0 -137.5 51 q-46.5 51 -46.5 140 q0 137 78 228 q78 91 205 91 q31 0 110 -24 l-17 -59 q-66 26 -100 26 q-94 0 -150 -74 q-56 -74 -56 -179 q0 -64 32 -103.5 q32 -39.5 87 -39.5 q41 0 137 63 l22 -46 q-102 -74 -164 -74 Z" /><glyph glyph-name="Cdotaccent" unicode="&#x10a;" d="M467 762 q-34 0 -34 38 q0 24 16 41.5 q16 17.5 37 17.5 q35 0 35 -38 q0 -25 -16 -42 q-16 -17 -38 -17 ZM316 -10 q-255 0 -255 249 q0 193 103 319.5 q103 126.5 265 141.5 q82 0 197 -27 l-16 -64 q-116 26 -183 29 q-128 -15 -209.5 -124 q-81.5 -109 -81.5 -269 q0 -94 48 -142.5 q48 -48.5 138 -48.5 q67 0 191 56 l-2 -69 q-126 -51 -195 -51 Z" /><glyph glyph-name="cdotaccent" unicode="&#x10b;" d="M316 597 q-39 0 -39 39 q0 23 17 40.5 q17 17.5 41 17.5 q18 0 28.5 -10.5 q10.5 -10.5 10.5 -28.5 q0 -25 -17 -41.5 q-17 -16.5 -41 -16.5 ZM214 -10 q-91 0 -137.5 51 q-46.5 51 -46.5 140 q0 137 78 228 q78 91 205 91 q31 0 110 -24 l-17 -59 q-66 26 -100 26 q-94 0 -150 -74 q-56 -74 -56 -179 q0 -64 32 -103.5 q32 -39.5 87 -39.5 q41 0 137 63 l22 -46 q-102 -74 -164 -74 Z" /><glyph glyph-name="Ccaron" unicode="&#x10c;" d="M460 743 l-134 86 l2 7 l43 46 l109 -74 l141 75 l22 -46 l-2 -7 l-167 -87 l-14 0 ZM316 -10 q-255 0 -255 249 q0 193 103 319.5 q103 126.5 265 141.5 q82 0 197 -27 l-16 -64 q-116 26 -183 29 q-128 -15 -209.5 -124 q-81.5 -109 -81.5 -269 q0 -94 48 -142.5 q48 -48.5 138 -48.5 q67 0 191 56 l-2 -69 q-126 -51 -195 -51 Z" /><glyph glyph-name="ccaron" unicode="&#x10d;" d="M298 551 l-133 90 l1 4 l40 47 l113 -75 l143 75 l18 -45 l-1 -6 l-167 -90 l-14 0 ZM214 -10 q-91 0 -137.5 51 q-46.5 51 -46.5 140 q0 137 78 228 q78 91 205 91 q31 0 110 -24 l-17 -59 q-66 26 -100 26 q-94 0 -150 -74 q-56 -74 -56 -179 q0 -64 32 -103.5 q32 -39.5 87 -39.5 q41 0 137 63 l22 -46 q-102 -74 -164 -74 Z" /><glyph glyph-name="Dcaron" unicode="&#x10e;" d="M375 742 l-134 86 l2 7 l43 46 l109 -74 l141 75 l22 -46 l-2 -7 l-167 -87 l-14 0 ZM231 -5 l-179 5 l148 691 l180 5 q128 0 206.5 -74 q78.5 -74 78.5 -195 q0 -193 -117 -309 q-117 -116 -317 -123 ZM250 53 q157 7 247.5 104 q90.5 97 90.5 257 q0 100 -62.5 163 q-62.5 63 -162.5 61 l-102 -4 l-122 -577 l111 -4 Z" /><glyph glyph-name="dcaron" unicode="&#x10f;" d="M608 731 q17 0 27 -9.5 q10 -9.5 10 -25.5 q0 -30 -24 -70 q-24 -40 -52 -70 l-34 7 q43 60 43 83 q-26 5 -26 32 q0 22 16.5 37.5 q16.5 15.5 39.5 15.5 ZM136 -10 q-45 0 -76.5 48.5 q-31.5 48.5 -31.5 128.5 q0 145 87.5 239 q87.5 94 200.5 94 q30 0 89 -22 l51 236 l70 7 l1 -8 l-130 -609 l-10 -104 l-65 0 l2 90 l-9 0 q-2 -2 -26 -22 q-24 -20 -44 -35 q-20 -15 -51.5 -29 q-31.5 -14 -57.5 -14 ZM152 49 q44 0 183 107 l57 268 q-67 20 -92 20 q-75 0 -138.5 -75.5 q-63.5 -75.5 -63.5 -190.5 q0 -129 54 -129 Z" /><glyph glyph-name="Dcroat" unicode="&#x110;" d="M381 696 q128 0 206.5 -74 q78.5 -74 78.5 -195 q0 -193 -116.5 -309 q-116.5 -116 -316.5 -123 l-179 5 l69 320 l-65 0 l12 57 l65 0 l67 314 l179 5 ZM252 55 q157 7 247 103 q90 96 90 256 q0 100 -62 161 q-62 61 -163 61 l-100 -3 l-54 -256 l195 0 l-12 -57 l-195 0 l-56 -262 l110 -3 Z" /><glyph glyph-name="dcroat" unicode="&#x111;" d="M633 627 l-10 -51 l-125 0 l-101 -472 l-10 -104 l-65 0 l2 90 l-9 0 q-2 -2 -26 -22 q-24 -20 -44 -35 q-20 -15 -51.5 -29 q-31.5 -14 -57.5 -14 q-45 0 -76.5 48.5 q-31.5 48.5 -31.5 128.5 q0 145 87.5 239 q87.5 94 200.5 94 q30 0 89 -22 l21 98 l-107 0 l10 51 l108 0 l19 87 l70 7 l1 -8 l-18 -86 l124 0 ZM335 156 l57 268 q-67 20 -92 20 q-75 0 -138.5 -75.5 q-63.5 -75.5 -63.5 -190.5 q0 -129 54 -129 q44 0 183 107 Z" /><glyph glyph-name="Emacron" unicode="&#x112;" d="M556 839 l-13 -62 l-268 0 l14 62 l267 0 ZM582 632 l-322 0 l-54 -256 l270 0 l-12 -57 l-270 0 l-55 -261 l359 0 l-11 -58 l-435 0 l146 690 l396 0 l-12 -58 Z" /><glyph glyph-name="emacron" unicode="&#x113;" d="M179 650 l267 0 l-13 -63 l-268 0 l14 63 ZM296 500 q63 0 96 -30.5 q33 -30.5 33 -79.5 q0 -51 -30.5 -88.5 q-30.5 -37.5 -79 -56 q-48.5 -18.5 -96 -27 q-47.5 -8.5 -94.5 -8.5 q-5 0 -13 0.5 q-8 0.5 -13 0.5 l0 -19 q0 -63 32 -103.5 q32 -40.5 81 -40.5 q48 0 140 65 l19 -45 q-1 0 -15.5 -11 q-14.5 -11 -30 -20.5 q-15.5 -9.5 -36.5 -21 q-21 -11.5 -45.5 -18.5 q-24.5 -7 -46.5 -7 q-76 0 -118 57 q-42 57 -42 143 q0 131 71 220.5 q71 89.5 188 89.5 ZM134 264 q35 0 71 5.5 q36 5.5 73.5 17.5 q37.5 12 61.5 36.5 q24 24.5 24 58.5 q0 30 -22 47.5 q-22 17.5 -61 17.5 q-59 0 -108.5 -50.5 q-49.5 -50.5 -66.5 -132.5 l28 0 Z" /><glyph glyph-name="Edotaccent" unicode="&#x116;" d="M404 761 q-34 0 -34 38 q0 24 16 41.5 q16 17.5 37 17.5 q35 0 35 -38 q0 -25 -16 -42 q-16 -17 -38 -17 ZM582 632 l-322 0 l-54 -256 l270 0 l-12 -57 l-270 0 l-55 -261 l359 0 l-11 -58 l-435 0 l146 690 l396 0 l-12 -58 Z" /><glyph glyph-name="edotaccent" unicode="&#x117;" d="M297 596 q-39 0 -39 39 q0 23 17 40.5 q17 17.5 41 17.5 q18 0 28.5 -10.5 q10.5 -10.5 10.5 -28.5 q0 -25 -17 -41.5 q-17 -16.5 -41 -16.5 ZM125 210 q-5 0 -13 0.5 q-8 0.5 -13 0.5 l0 -19 q0 -63 32 -103.5 q32 -40.5 81 -40.5 q48 0 140 65 l19 -45 q-1 0 -15.5 -11 q-14.5 -11 -30 -20.5 q-15.5 -9.5 -36.5 -21 q-21 -11.5 -45.5 -18.5 q-24.5 -7 -46.5 -7 q-76 0 -118 57 q-42 57 -42 143 q0 131 71 220.5 q71 89.5 188 89.5 q63 0 96 -30.5 q33 -30.5 33 -79.5 q0 -51 -30.5 -88.5 q-30.5 -37.5 -79 -56 q-48.5 -18.5 -96 -27 q-47.5 -8.5 -94.5 -8.5 ZM281 447 q-59 0 -108.5 -50.5 q-49.5 -50.5 -66.5 -132.5 l28 0 q35 0 71 5.5 q36 5.5 73.5 17.5 q37.5 12 61.5 36.5 q24 24.5 24 58.5 q0 30 -22 47.5 q-22 17.5 -61 17.5 Z" /><glyph glyph-name="Eogonek" unicode="&#x118;" d="M582 632 l-322 0 l-54 -256 l270 0 l-12 -57 l-270 0 l-55 -261 l359 0 l-11 -58 q-87 -61 -87 -128 q0 -30 25 -30 q17 0 31 3 l-2 -45 q-22 -11 -48 -11 q-30 0 -47 18 q-17 18 -17 49 q0 38 24.5 79 q24.5 41 60.5 65 l-375 0 l146 690 l396 0 l-12 -58 Z" /><glyph glyph-name="eogonek" unicode="&#x119;" d="M125 210 q-5 0 -13 0.5 q-8 0.5 -13 0.5 l0 -19 q0 -63 32 -103.5 q32 -40.5 81 -40.5 q48 0 140 65 l19 -45 q-2 -1 -13 -9.5 q-11 -8.5 -21 -14.5 q-76 -69 -76 -140 q0 -35 25 -35 q13 0 31 4 l-2 -52 q-22 -13 -48 -13 q-30 0 -47 21 q-17 21 -17 57 q0 53 34 109 q-22 -5 -40 -5 q-76 0 -118 57 q-42 57 -42 143 q0 131 71 220.5 q71 89.5 188 89.5 q63 0 96 -30.5 q33 -30.5 33 -79.5 q0 -51 -30.5 -88.5 q-30.5 -37.5 -79 -56 q-48.5 -18.5 -96 -27 q-47.5 -8.5 -94.5 -8.5 ZM281 447 q-59 0 -108.5 -50.5 q-49.5 -50.5 -66.5 -132.5 l28 0 q35 0 71 5.5 q36 5.5 73.5 17.5 q37.5 12 61.5 36.5 q24 24.5 24 58.5 q0 30 -22 47.5 q-22 17.5 -61 17.5 Z" /><glyph glyph-name="Ecaron" unicode="&#x11a;" d="M411 742 l-14 0 l-134 86 l2 7 l43 46 l109 -74 l141 75 l22 -46 l-2 -7 l-167 -87 ZM582 632 l-322 0 l-54 -256 l270 0 l-12 -57 l-270 0 l-55 -261 l359 0 l-11 -58 l-435 0 l146 690 l396 0 l-12 -58 Z" /><glyph glyph-name="ecaron" unicode="&#x11b;" d="M443 691 l18 -45 l-1 -6 l-167 -90 l-14 0 l-133 90 l1 4 l40 47 l113 -75 l143 75 ZM296 500 q63 0 96 -30.5 q33 -30.5 33 -79.5 q0 -51 -30.5 -88.5 q-30.5 -37.5 -79 -56 q-48.5 -18.5 -96 -27 q-47.5 -8.5 -94.5 -8.5 q-5 0 -13 0.5 q-8 0.5 -13 0.5 l0 -19 q0 -63 32 -103.5 q32 -40.5 81 -40.5 q48 0 140 65 l19 -45 q-1 0 -15.5 -11 q-14.5 -11 -30 -20.5 q-15.5 -9.5 -36.5 -21 q-21 -11.5 -45.5 -18.5 q-24.5 -7 -46.5 -7 q-76 0 -118 57 q-42 57 -42 143 q0 131 71 220.5 q71 89.5 188 89.5 ZM134 264 q35 0 71 5.5 q36 5.5 73.5 17.5 q37.5 12 61.5 36.5 q24 24.5 24 58.5 q0 30 -22 47.5 q-22 17.5 -61 17.5 q-59 0 -108.5 -50.5 q-49.5 -50.5 -66.5 -132.5 l28 0 Z" /><glyph glyph-name="Gbreve" unicode="&#x11e;" d="M615 882 q-13 -59 -57 -98 q-44 -39 -105 -39 q-63 0 -91.5 39 q-28.5 39 -16.5 98 l57 0 q-3 -35 11.5 -57.5 q14.5 -22.5 50.5 -22.5 q63 0 94 80 l57 0 ZM319 -10 q-124 0 -190.5 63.5 q-66.5 63.5 -66.5 185.5 q0 193 106 323 q106 130 262 138 q41 0 113.5 -10.5 q72.5 -10.5 100.5 -19.5 l-17 -65 q-25 8 -94.5 19 q-69.5 11 -104.5 12 q-122 -8 -207.5 -120 q-85.5 -112 -85.5 -271 q0 -94 49 -142.5 q49 -48.5 139 -48.5 q73 0 157 39 l47 211 l69 0 l-57 -254 q-48 -22 -111 -41 q-63 -19 -109 -19 Z" /><glyph glyph-name="gbreve" unicode="&#x11f;" d="M310 551 q-62 0 -95 39.5 q-33 39.5 -20 103.5 l65 0 q0 -35 15 -57.5 q15 -22.5 46 -22.5 q31 0 56.5 23 q25.5 23 39.5 57 l66 0 q-15 -64 -63.5 -103.5 q-48.5 -39.5 -109.5 -39.5 ZM365 489 l181 5 l-11 -57 l-59 0 l-45 2 q21 -32 21 -77 q0 -89 -63 -149 q-63 -60 -154 -60 q-32 0 -59 8 q-44 -32 -44 -62 q0 -24 46 -29 l124 -17 q126 -16 126 -104 q0 -79 -84 -128.5 q-84 -49.5 -190 -49.5 q-87 0 -139.5 32.5 q-52.5 32.5 -52.5 87.5 q0 46 35 83.5 q35 37.5 84 60.5 l3 9 q-13 14 -13 37 q0 50 55 92 l4 9 l1 0 q-52 38 -52 109 q0 89 63 149 q63 60 156 60 q37 0 67 -11 ZM235 209 q65 0 110 45.5 q45 45.5 45 103.5 q0 38 -25 61 q-25 23 -69 24 q-64 0 -109.5 -44.5 q-45.5 -44.5 -45.5 -104.5 q0 -39 25 -62 q25 -23 69 -23 ZM282 -4 l-109 13 q-11 1 -29 5 q-48 -18 -81.5 -48 q-33.5 -30 -33.5 -64 q0 -33 35.5 -51 q35.5 -18 96.5 -18 q76 0 138 31 q62 31 62 79 q0 41 -79 53 Z" /><glyph glyph-name="Gdotaccent" unicode="&#x120;" d="M455 761 q-34 0 -34 38 q0 24 16 41.5 q16 17.5 37 17.5 q35 0 35 -38 q0 -25 -16 -42 q-16 -17 -38 -17 ZM319 -10 q-124 0 -190.5 63.5 q-66.5 63.5 -66.5 185.5 q0 193 106 323 q106 130 262 138 q41 0 113.5 -10.5 q72.5 -10.5 100.5 -19.5 l-17 -65 q-25 8 -94.5 19 q-69.5 11 -104.5 12 q-122 -8 -207.5 -120 q-85.5 -112 -85.5 -271 q0 -94 49 -142.5 q49 -48.5 139 -48.5 q73 0 157 39 l47 211 l69 0 l-57 -254 q-48 -22 -111 -41 q-63 -19 -109 -19 Z" /><glyph glyph-name="gdotaccent" unicode="&#x121;" d="M320 596 q-39 0 -39 39 q0 23 17 40.5 q17 17.5 41 17.5 q18 0 28.5 -10.5 q10.5 -10.5 10.5 -28.5 q0 -25 -17 -41.5 q-17 -16.5 -41 -16.5 ZM365 489 l181 5 l-11 -57 l-59 0 l-45 2 q21 -32 21 -77 q0 -89 -63 -149 q-63 -60 -154 -60 q-32 0 -59 8 q-44 -32 -44 -62 q0 -24 46 -29 l124 -17 q126 -16 126 -104 q0 -79 -84 -128.5 q-84 -49.5 -190 -49.5 q-87 0 -139.5 32.5 q-52.5 32.5 -52.5 87.5 q0 46 35 83.5 q35 37.5 84 60.5 l3 9 q-13 14 -13 37 q0 50 55 92 l4 9 l1 0 q-52 38 -52 109 q0 89 63 149 q63 60 156 60 q37 0 67 -11 ZM235 209 q65 0 110 45.5 q45 45.5 45 103.5 q0 38 -25 61 q-25 23 -69 24 q-64 0 -109.5 -44.5 q-45.5 -44.5 -45.5 -104.5 q0 -39 25 -62 q25 -23 69 -23 ZM282 -4 l-109 13 q-11 1 -29 5 q-48 -18 -81.5 -48 q-33.5 -30 -33.5 -64 q0 -33 35.5 -51 q35.5 -18 96.5 -18 q76 0 138 31 q62 31 62 79 q0 41 -79 53 Z" /><glyph glyph-name="Gcommaaccent" unicode="&#x122;" d="M319 -10 q-124 0 -190.5 63.5 q-66.5 63.5 -66.5 185.5 q0 193 106 323 q106 130 262 138 q41 0 113.5 -10.5 q72.5 -10.5 100.5 -19.5 l-17 -65 q-25 8 -94.5 19 q-69.5 11 -104.5 12 q-122 -8 -207.5 -120 q-85.5 -112 -85.5 -271 q0 -94 49 -142.5 q49 -48.5 139 -48.5 q73 0 157 39 l47 211 l69 0 l-57 -254 q-48 -22 -111 -41 q-63 -19 -109 -19 ZM301 -44 q37 0 37 -35 q0 -30 -23.5 -69 q-23.5 -39 -52.5 -71 l-34 7 q43 57 43 83 q-25 5 -25 32 q0 22 16 37.5 q16 15.5 39 15.5 Z" /><glyph glyph-name="gcommaaccent" unicode="&#x123;" d="M298 567 q-43 0 -43 35 q0 55 87 140 l39 -7 q-49 -57 -49 -83 q28 -5 28 -32 q0 -22 -18 -37.5 q-18 -15.5 -44 -15.5 ZM365 489 l181 5 l-11 -57 l-59 0 l-45 2 q21 -32 21 -77 q0 -89 -63 -149 q-63 -60 -154 -60 q-32 0 -59 8 q-44 -32 -44 -62 q0 -24 46 -29 l124 -17 q126 -16 126 -104 q0 -79 -84 -128.5 q-84 -49.5 -190 -49.5 q-87 0 -139.5 32.5 q-52.5 32.5 -52.5 87.5 q0 46 35 83.5 q35 37.5 84 60.5 l3 9 q-13 14 -13 37 q0 50 55 92 l4 9 l1 0 q-52 38 -52 109 q0 89 63 149 q63 60 156 60 q37 0 67 -11 ZM235 209 q65 0 110 45.5 q45 45.5 45 103.5 q0 38 -25 61 q-25 23 -69 24 q-64 0 -109.5 -44.5 q-45.5 -44.5 -45.5 -104.5 q0 -39 25 -62 q25 -23 69 -23 ZM282 -4 l-109 13 q-11 1 -29 5 q-48 -18 -81.5 -48 q-33.5 -30 -33.5 -64 q0 -33 35.5 -51 q35.5 -18 96.5 -18 q76 0 138 31 q62 31 62 79 q0 41 -79 53 Z" /><glyph glyph-name="Hbar" unicode="&#x126;" d="M803 691 l-28 -125 l76 0 l-12 -52 l-74 0 l-109 -514 l-76 0 l66 310 l-364 0 l-66 -310 l-75 0 l109 514 l-75 0 l12 52 l74 0 l27 125 l75 0 l-26 -125 l364 0 l26 125 l76 0 ZM689 514 l-364 0 l-29 -141 l363 0 l30 141 Z" /><glyph glyph-name="hbar" unicode="&#x127;" d="M372 500 q50 0 76.5 -30 q26.5 -30 26.5 -87 q0 -33 -9 -74 l-46 -216 l-7 -93 l-74 0 l11 105 l42 198 q7 39 7 66 q0 72 -42 72 q-15 0 -36.5 -9.5 q-21.5 -9.5 -45.5 -26 q-24 -16.5 -41 -29.5 q-17 -13 -38 -30.5 q-21 -17.5 -22 -18.5 l-69 -327 l-73 0 l123 576 l-92 0 l0 51 l102 0 l19 87 l70 7 l2 -7 l-18 -87 l139 0 l-1 -51 l-149 0 l-39 -184 l4 0 l14 13 q13 13 30.5 27.5 q17.5 14.5 40 30.5 q22.5 16 48 26.5 q25.5 10.5 47.5 10.5 Z" /><glyph glyph-name="Itilde" unicode="&#x128;" d="M305 760 q-24 0 -44.5 17.5 q-20.5 17.5 -37.5 17.5 q-31 0 -79 -33 l-18 37 q60 48 117 48 q25 0 46 -17.5 q21 -17.5 38 -17.5 q33 0 76 33 l17 -39 q-56 -46 -115 -46 ZM278 690 l-147 -690 l-73 0 l146 690 l74 0 Z" /><glyph glyph-name="itilde" unicode="&#x129;" d="M75 585 l-46 16 q17 38 48.5 63.5 q31.5 25.5 62.5 25.5 q25 0 58.5 -20 q33.5 -20 49.5 -20 q28 0 56 37 l45 -16 q-16 -36 -47.5 -61 q-31.5 -25 -63.5 -25 q-25 0 -58.5 19.5 q-33.5 19.5 -48.5 19.5 q-14 0 -30 -10.5 q-16 -10.5 -26 -28.5 ZM36 0 l10 104 l83 386 l71 7 l1 -7 l-83 -396 l-8 -94 l-74 0 Z" /><glyph glyph-name="Imacron" unicode="&#x12a;" d="M405 839 l-13 -62 l-268 0 l14 62 l267 0 ZM278 690 l-147 -690 l-73 0 l146 690 l74 0 Z" /><glyph glyph-name="imacron" unicode="&#x12b;" d="M328 650 l-13 -63 l-268 0 l14 63 l267 0 ZM36 0 l10 104 l83 386 l71 7 l1 -7 l-83 -396 l-8 -94 l-74 0 Z" /><glyph glyph-name="Iogonek" unicode="&#x12e;" d="M131 0 q-87 -61 -87 -128 q0 -30 25 -30 q17 0 31 3 l-2 -45 q-22 -11 -48 -11 q-30 0 -47 18 q-17 18 -17 49 q0 38 24.5 79 q24.5 41 60.5 65 l-13 0 l146 690 l74 0 l-147 -690 Z" /><glyph glyph-name="iogonek" unicode="&#x12f;" d="M209 695 q17 0 27 -10.5 q10 -10.5 10 -27.5 q0 -24 -16.5 -40.5 q-16.5 -16.5 -41.5 -16.5 q-17 0 -27 10.5 q-10 10.5 -10 27.5 q0 24 16.5 40.5 q16.5 16.5 41.5 16.5 ZM129 490 l71 7 l1 -7 l-83 -396 l-8 -94 q-87 -61 -87 -128 q0 -30 25 -30 q18 0 31 3 l-2 -45 q-22 -11 -48 -11 q-30 0 -47 18 q-17 18 -17 49 q0 38 24.5 79 q24.5 41 60.5 65 l-14 0 l10 104 l83 386 Z" /><glyph glyph-name="Idotaccent" unicode="&#x130;" d="M253 761 q-34 0 -34 38 q0 24 16 41.5 q16 17.5 37 17.5 q35 0 35 -38 q0 -25 -16 -42 q-16 -17 -38 -17 ZM278 690 l-147 -690 l-73 0 l146 690 l74 0 Z" /><glyph glyph-name="dotlessi" unicode="&#x131;" d="M36 0 l10 104 l83 386 l71 7 l1 -7 l-83 -396 l-8 -94 l-74 0 Z" /><glyph glyph-name="IJ" unicode="&#x132;" d="M278 690 l-147 -690 l-73 0 l146 690 l74 0 ZM703 690 l-117 -545 q-15 -72 -62.5 -113.5 q-47.5 -41.5 -116.5 -41.5 q-73 0 -110 25 l27 57 q34 -18 87 -18 q39 0 66 25 q27 25 36 69 l115 542 l75 0 Z" /><glyph glyph-name="ij" unicode="&#x133;" d="M188 600 q-17 0 -27 10.5 q-10 10.5 -10 27.5 q0 24 16.5 40.5 q16.5 16.5 41.5 16.5 q17 0 27 -10.5 q10 -10.5 10 -27.5 q0 -24 -16.5 -40.5 q-16.5 -16.5 -41.5 -16.5 ZM441 600 q-19 0 -30.5 11.5 q-11.5 11.5 -11.5 29.5 q0 23 15 38.5 q15 15.5 38 15.5 q19 0 31 -11 q12 -11 12 -29 q0 -24 -15.5 -39.5 q-15.5 -15.5 -38.5 -15.5 ZM36 0 l10 104 l83 386 l71 7 l1 -7 l-83 -396 l-8 -94 l-74 0 ZM136 -230 l-2 59 q65 13 96 59 q31 46 52 155 l95 447 l73 7 l1 -7 l-101 -470 q-24 -126 -75.5 -185.5 q-51.5 -59.5 -138.5 -64.5 Z" /><glyph glyph-name="Kcommaaccent" unicode="&#x136;" d="M632 672 l-311 -323 l-1 -5 l214 -337 l-1 -7 l-67 -11 l-204 322 l-70 -5 l-65 -306 l-75 0 l146 690 l75 0 l-67 -315 l58 5 l296 310 l73 -9 l-1 -9 ZM276 -44 q37 0 37 -35 q0 -30 -23.5 -69 q-23.5 -39 -52.5 -71 l-34 7 q43 57 43 83 q-25 5 -25 32 q0 22 16 37.5 q16 15.5 39 15.5 Z" /><glyph glyph-name="kcommaaccent" unicode="&#x137;" d="M359 -7 l-172 242 l-49 -4 l-30 -142 l-6 -89 l-72 0 l8 96 l132 618 l72 7 l1 -9 l-91 -419 l38 3 q108 83 233 201 l75 -7 l-1 -7 q-150 -139 -253 -215 l0 -6 l184 -255 l-2 -7 l-67 -7 ZM216 -44 q37 0 37 -35 q0 -30 -23.5 -69 q-23.5 -39 -52.5 -71 l-34 7 q43 57 43 83 q-25 5 -25 32 q0 22 16 37.5 q16 15.5 39 15.5 Z" /><glyph glyph-name="kgreenlandic" unicode="&#x138;" d="M475 483 l-230 -228 l0 -4 l153 -244 l-1 -7 l-78 0 l-139 222 l-29 0 l-47 -222 l-74 0 l104 490 l74 0 l-45 -212 l28 0 l210 212 l75 0 l-1 -7 Z" /><glyph glyph-name="Lacute" unicode="&#x139;" d="M392 816 l-187 -72 l-31 54 l176 95 l42 -71 l0 -6 ZM274 690 l-134 -632 l351 0 l-19 -58 l-420 0 l147 690 l75 0 Z" /><glyph glyph-name="lacute" unicode="&#x13a;" d="M383 887 l-204 -99 l-20 48 l203 117 l22 -60 l-1 -6 ZM36 0 l9 101 l131 613 l72 7 l1 -8 l-131 -621 l-8 -92 l-74 0 Z" /><glyph glyph-name="Lcommaaccent" unicode="&#x13b;" d="M274 690 l-134 -632 l351 0 l-19 -58 l-420 0 l147 690 l75 0 ZM256 -44 q37 0 37 -35 q0 -30 -23.5 -69 q-23.5 -39 -52.5 -71 l-34 7 q43 57 43 83 q-25 5 -25 32 q0 22 16 37.5 q16 15.5 39 15.5 Z" /><glyph glyph-name="lcommaaccent" unicode="&#x13c;" d="M36 0 l9 101 l131 613 l72 7 l1 -8 l-131 -621 l-8 -92 l-74 0 ZM66 -44 q37 0 37 -35 q0 -30 -23.5 -69 q-23.5 -39 -52.5 -71 l-34 7 q43 57 43 83 q-25 5 -25 32 q0 22 16 37.5 q16 15.5 39 15.5 Z" /><glyph glyph-name="Lcaron" unicode="&#x13d;" d="M496 696 q37 0 37 -35 q0 -30 -23.5 -69 q-23.5 -39 -52.5 -71 l-34 7 q43 57 43 83 q-25 5 -25 32 q0 22 16 37.5 q16 15.5 39 15.5 ZM274 690 l-134 -632 l351 0 l-19 -58 l-420 0 l147 690 l75 0 Z" /><glyph glyph-name="lcaron" unicode="&#x13e;" d="M334 731 q17 0 27 -9.5 q10 -9.5 10 -25.5 q0 -30 -24 -70 q-24 -40 -52 -70 l-34 7 q43 60 43 83 q-26 5 -26 32 q0 22 16.5 37.5 q16.5 15.5 39.5 15.5 ZM36 0 l9 101 l131 613 l72 7 l1 -8 l-131 -621 l-8 -92 l-74 0 Z" /><glyph glyph-name="Ldot" unicode="&#x13f;" d="M274 690 l-133 -630 l350 0 l-19 -60 l-420 0 l147 690 l75 0 ZM366.5 362 q14.5 15 38.5 15 q24 0 38.5 -14.5 q14.5 -14.5 14.5 -39.5 q0 -25 -15 -40 q-15 -15 -39 -15 q-24 0 -38 14.5 q-14 14.5 -14 39.5 q0 25 14.5 40 Z" /><glyph glyph-name="ldot" unicode="&#x140;" d="M36 0 l9 101 l131 613 l72 7 l1 -8 l-131 -621 l-8 -92 l-74 0 ZM272 267 q-19 0 -30 11 q-11 11 -11 30 q0 28 18.5 47.5 q18.5 19.5 44.5 19.5 q20 0 31.5 -11.5 q11.5 -11.5 11.5 -31.5 q0 -28 -19 -46.5 q-19 -18.5 -46 -18.5 Z" /><glyph glyph-name="Lslash" unicode="&#x141;" d="M265 690 l-60 -279 l116 83 l24 -43 l-154 -107 l-60 -283 l349 0 l-20 -61 l-417 0 l61 289 l-84 -63 l-25 42 l124 87 l70 335 l76 0 Z" /><glyph glyph-name="lslash" unicode="&#x142;" d="M302 411 l-123 -73 l-52 -246 l-8 -92 l-74 0 l9 101 l40 187 l-92 -54 l-21 43 l126 74 l78 363 l72 7 l1 -8 l-66 -312 l89 52 l21 -42 Z" /><glyph glyph-name="Nacute" unicode="&#x143;" d="M583 816 l-187 -72 l-31 54 l176 95 l42 -71 l0 -6 ZM49 0 l147 690 l71 0 l244 -568 l5 0 l6 28 l111 540 l76 0 l-147 -690 l-68 0 l-245 570 l-6 0 l-10 -54 l-109 -516 l-75 0 Z" /><glyph glyph-name="nacute" unicode="&#x144;" d="M487 657 l-204 -99 l-20 48 l203 117 l22 -60 l-1 -6 ZM376 500 q50 0 77 -30 q27 -30 27 -87 q0 -33 -9 -74 l-46 -216 l-7 -93 l-74 0 l10 105 l42 198 q7 39 7 68 q0 70 -42 70 q-18 0 -47.5 -15.5 q-29.5 -15.5 -51.5 -32 q-22 -16.5 -51.5 -39.5 q-29.5 -23 -31.5 -25 l-70 -329 l-73 0 l81 384 l15 106 l61 7 l1 -7 l-8 -98 l5 0 q1 1 12 11 q11 10 23.5 21 q12.5 11 31.5 25 q19 14 37.5 25 q18.5 11 40.5 18.5 q22 7.5 40 7.5 Z" /><glyph glyph-name="Ncommaaccent" unicode="&#x145;" d="M49 0 l147 690 l71 0 l244 -568 l5 0 l6 28 l111 540 l76 0 l-147 -690 l-68 0 l-245 570 l-6 0 l-10 -54 l-109 -516 l-75 0 ZM299 -44 q37 0 37 -35 q0 -30 -23.5 -69 q-23.5 -39 -52.5 -71 l-34 7 q43 57 43 83 q-25 5 -25 32 q0 22 16 37.5 q16 15.5 39 15.5 Z" /><glyph glyph-name="ncommaaccent" unicode="&#x146;" d="M376 500 q50 0 77 -30 q27 -30 27 -87 q0 -33 -9 -74 l-46 -216 l-7 -93 l-74 0 l10 105 l42 198 q7 39 7 68 q0 70 -42 70 q-18 0 -47.5 -15.5 q-29.5 -15.5 -51.5 -32 q-22 -16.5 -51.5 -39.5 q-29.5 -23 -31.5 -25 l-70 -329 l-73 0 l81 384 l15 106 l61 7 l1 -7 l-8 -98 l5 0 q1 1 12 11 q11 10 23.5 21 q12.5 11 31.5 25 q19 14 37.5 25 q18.5 11 40.5 18.5 q22 7.5 40 7.5 ZM230 -44 q37 0 37 -35 q0 -30 -23.5 -69 q-23.5 -39 -52.5 -71 l-34 7 q43 57 43 83 q-25 5 -25 32 q0 22 16 37.5 q16 15.5 39 15.5 Z" /><glyph glyph-name="Ncaron" unicode="&#x147;" d="M450 742 l-134 86 l2 7 l43 46 l109 -74 l141 75 l22 -46 l-2 -7 l-167 -87 l-14 0 ZM49 0 l147 690 l71 0 l244 -568 l5 0 l6 28 l111 540 l76 0 l-147 -690 l-68 0 l-245 570 l-6 0 l-10 -54 l-109 -516 l-75 0 Z" /><glyph glyph-name="ncaron" unicode="&#x148;" d="M310 550 l-133 90 l1 4 l40 47 l113 -75 l143 75 l18 -45 l-1 -6 l-167 -90 l-14 0 ZM376 500 q50 0 77 -30 q27 -30 27 -87 q0 -33 -9 -74 l-46 -216 l-7 -93 l-74 0 l10 105 l42 198 q7 39 7 68 q0 70 -42 70 q-18 0 -47.5 -15.5 q-29.5 -15.5 -51.5 -32 q-22 -16.5 -51.5 -39.5 q-29.5 -23 -31.5 -25 l-70 -329 l-73 0 l81 384 l15 106 l61 7 l1 -7 l-8 -98 l5 0 q1 1 12 11 q11 10 23.5 21 q12.5 11 31.5 25 q19 14 37.5 25 q18.5 11 40.5 18.5 q22 7.5 40 7.5 Z" /><glyph glyph-name="Eng" unicode="&#x14a;" d="M359 -228 q-75 0 -115 25 l28 58 q34 -18 91 -18 q42 0 71 24.5 q29 24.5 38 68.5 l16 77 l-237 563 l-6 0 q0 -2 -2 -12 q-2 -10 -3 -15 l-115 -543 l-76 0 l147 690 l76 0 l238 -558 l5 0 q0 1 1 5.5 q1 4.5 2 11 q1 6.5 2 10.5 l113 531 l75 0 l-162 -763 q-15 -72 -64.5 -113.5 q-49.5 -41.5 -122.5 -41.5 Z" /><glyph glyph-name="eng" unicode="&#x14b;" d="M200 -230 l-2 59 q66 13 97 59 q31 46 52 155 l54 260 q7 31 7 56 q0 43 -11.5 61 q-11.5 18 -43.5 18 q-9 0 -171 -96 l-72 -342 l-74 0 l104 490 l65 7 l-11 -89 l5 0 l17 11 q18 11 39 23.5 q21 12.5 44.5 26 q23.5 13.5 43 22.5 q19.5 9 27.5 9 q116 0 116 -117 q0 -33 -9 -74 l-63 -289 q-23 -125 -75 -185 q-52 -60 -139 -65 Z" /><glyph glyph-name="Omacron" unicode="&#x14c;" d="M639 839 l-13 -62 l-268 0 l14 62 l267 0 ZM303 -10 q-115 0 -177.5 66.5 q-62.5 66.5 -62.5 182.5 q0 120 48.5 225 q48.5 105 139.5 170.5 q91 65.5 203 65.5 q115 0 177.5 -66 q62.5 -66 62.5 -182 q0 -120 -48.5 -225.5 q-48.5 -105.5 -139 -171 q-90.5 -65.5 -203.5 -65.5 ZM317 50 q89 0 159 58.5 q70 58.5 105.5 147.5 q35.5 89 35.5 187 q0 93 -46 145 q-46 52 -130 52 q-89 0 -159.5 -58.5 q-70.5 -58.5 -106.5 -147.5 q-36 -89 -36 -186 q0 -94 46.5 -146 q46.5 -52 131.5 -52 Z" /><glyph glyph-name="omacron" unicode="&#x14d;" d="M462 650 l-13 -63 l-268 0 l14 63 l267 0 ZM302 500 q75 0 119.5 -51 q44.5 -51 44.5 -143 q0 -138 -73.5 -227 q-73.5 -89 -190.5 -89 q-75 0 -119.5 51 q-44.5 51 -44.5 143 q0 138 73.5 227 q73.5 89 190.5 89 ZM292 445 q-83 0 -135.5 -72 q-52.5 -72 -52.5 -186 q0 -63 30.5 -102.5 q30.5 -39.5 78.5 -39.5 q82 0 134 72 q52 72 52 186 q0 63 -30 102.5 q-30 39.5 -77 39.5 Z" /><glyph glyph-name="Ohungarumlaut" unicode="&#x150;" d="M379 741 l-35 46 l160 147 l47 -60 l0 -6 l-172 -127 ZM536 735 l-24 51 l183 115 l35 -67 l0 -6 l-194 -93 ZM303 -10 q-115 0 -177.5 66.5 q-62.5 66.5 -62.5 182.5 q0 120 48.5 225 q48.5 105 139.5 170.5 q91 65.5 203 65.5 q115 0 177.5 -66 q62.5 -66 62.5 -182 q0 -120 -48.5 -225.5 q-48.5 -105.5 -139 -171 q-90.5 -65.5 -203.5 -65.5 ZM317 50 q89 0 159 58.5 q70 58.5 105.5 147.5 q35.5 89 35.5 187 q0 93 -46 145 q-46 52 -130 52 q-89 0 -159.5 -58.5 q-70.5 -58.5 -106.5 -147.5 q-36 -89 -36 -186 q0 -94 46.5 -146 q46.5 -52 131.5 -52 Z" /><glyph glyph-name="ohungarumlaut" unicode="&#x151;" d="M423 675 l-180 -126 l-29 43 l171 139 l38 -50 l0 -6 ZM592 662 l-186 -116 l-26 46 l178 129 l33 -53 l1 -6 ZM302 500 q75 0 119.5 -51 q44.5 -51 44.5 -143 q0 -138 -73.5 -227 q-73.5 -89 -190.5 -89 q-75 0 -119.5 51 q-44.5 51 -44.5 143 q0 138 73.5 227 q73.5 89 190.5 89 ZM292 445 q-83 0 -135.5 -72 q-52.5 -72 -52.5 -186 q0 -63 30.5 -102.5 q30.5 -39.5 78.5 -39.5 q82 0 134 72 q52 72 52 186 q0 63 -30 102.5 q-30 39.5 -77 39.5 Z" /><glyph glyph-name="OE" unicode="&#x152;" d="M468 700 q50 0 102 -10 l410 0 l-14 -60 l-335 0 l-53 -253 l282 0 l-12 -58 l-283 0 l-55 -258 l339 0 l-21 -61 l-404 0 q-57 -10 -107 -10 q-126 0 -190 70.5 q-64 70.5 -64 193.5 q0 193 107.5 319.5 q107.5 126.5 297.5 126.5 ZM460 639 q-151 0 -236 -105 q-85 -105 -85 -270 q0 -101 50 -157 q50 -56 147 -56 q59 0 96 12 l119 562 q-35 14 -91 14 Z" /><glyph glyph-name="oe" unicode="&#x153;" d="M456 211 l-3 -10 l0 -9 q0 -63 32 -103.5 q32 -40.5 81 -40.5 q48 0 140 65 l19 -45 q-1 0 -15.5 -11 q-14.5 -11 -30 -20.5 q-15.5 -9.5 -36.5 -21 q-21 -11.5 -45.5 -18.5 q-24.5 -7 -46.5 -7 q-53 0 -90 29 q-37 29 -55 78 q-73 -107 -204 -107 q-75 0 -119.5 51 q-44.5 51 -44.5 143 q0 138 73.5 227 q73.5 89 190.5 89 q53 0 92 -27 q39 -27 57 -77 q73 104 199 104 q63 0 96 -30.5 q33 -30.5 33 -79.5 q0 -51 -30.5 -88.5 q-30.5 -37.5 -79 -56 q-48.5 -18.5 -96 -27 q-47.5 -8.5 -94.5 -8.5 q-16 0 -23 1 ZM635 447 q-54 0 -101.5 -43.5 q-47.5 -43.5 -67.5 -116.5 q0 -4 -1 -11.5 q-1 -7.5 -1 -11.5 l24 0 q35 0 71 5.5 q36 5.5 73.5 17.5 q37.5 12 61.5 36.5 q24 24.5 24 58.5 q0 30 -22 47.5 q-22 17.5 -61 17.5 ZM213 45 q68 0 116.5 51 q48.5 51 63.5 137 q2 18 4 27 q2 28 2 43 q0 63 -30 102.5 q-30 39.5 -77 39.5 q-83 0 -135.5 -72 q-52.5 -72 -52.5 -186 q0 -63 30.5 -102.5 q30.5 -39.5 78.5 -39.5 Z" /><glyph glyph-name="Racute" unicode="&#x154;" d="M527 816 l-187 -72 l-31 54 l176 95 l42 -71 l0 -6 ZM396 277 q6 -7 16 -25 l137 -245 l0 -7 l-73 -8 l-138 249 q-9 17 -16.5 21.5 q-7.5 4.5 -30.5 4.5 l-109 -5 l-55 -262 l-75 0 l146 690 l193 7 q98 0 155 -48 q57 -48 57 -127 q0 -86 -57.5 -148 q-57.5 -62 -149.5 -90 l0 -7 ZM261 634 l-66 -314 l111 4 q94 4 159.5 58.5 q65.5 54.5 65.5 135.5 q0 55 -40.5 88 q-40.5 33 -113.5 33 l-116 -5 Z" /><glyph glyph-name="racute" unicode="&#x155;" d="M431 657 l-204 -99 l-20 48 l203 117 l22 -60 l-1 -6 ZM36 0 l80 382 l16 108 l63 7 l1 -7 l-11 -100 l4 0 q99 109 175 110 q6 0 14 -2 l-15 -65 q-8 2 -17 2 q-66 -1 -168 -125 l-70 -310 l-72 0 Z" /><glyph glyph-name="Rcommaaccent" unicode="&#x156;" d="M396 277 q6 -7 16 -25 l137 -245 l0 -7 l-73 -8 l-138 249 q-9 17 -16.5 21.5 q-7.5 4.5 -30.5 4.5 l-109 -5 l-55 -262 l-75 0 l146 690 l193 7 q98 0 155 -48 q57 -48 57 -127 q0 -86 -57.5 -148 q-57.5 -62 -149.5 -90 l0 -7 ZM261 634 l-66 -314 l111 4 q94 4 159.5 58.5 q65.5 54.5 65.5 135.5 q0 55 -40.5 88 q-40.5 33 -113.5 33 l-116 -5 ZM286 -44 q37 0 37 -35 q0 -30 -23.5 -69 q-23.5 -39 -52.5 -71 l-34 7 q43 57 43 83 q-25 5 -25 32 q0 22 16 37.5 q16 15.5 39 15.5 Z" /><glyph glyph-name="rcommaaccent" unicode="&#x157;" d="M36 0 l80 382 l16 108 l63 7 l1 -7 l-11 -100 l4 0 q99 109 175 110 q6 0 14 -2 l-15 -65 q-8 2 -17 2 q-66 -1 -168 -125 l-70 -310 l-72 0 ZM69 -44 q37 0 37 -35 q0 -30 -23.5 -69 q-23.5 -39 -52.5 -71 l-34 7 q43 57 43 83 q-25 5 -25 32 q0 22 16 37.5 q16 15.5 39 15.5 Z" /><glyph glyph-name="Rcaron" unicode="&#x158;" d="M408 742 l-14 0 l-134 86 l2 7 l43 46 l109 -74 l141 75 l22 -46 l-2 -7 l-167 -87 ZM396 277 q6 -7 16 -25 l137 -245 l0 -7 l-73 -8 l-138 249 q-9 17 -16.5 21.5 q-7.5 4.5 -30.5 4.5 l-109 -5 l-55 -262 l-75 0 l146 690 l193 7 q98 0 155 -48 q57 -48 57 -127 q0 -86 -57.5 -148 q-57.5 -62 -149.5 -90 l0 -7 ZM261 634 l-66 -314 l111 4 q94 4 159.5 58.5 q65.5 54.5 65.5 135.5 q0 55 -40.5 88 q-40.5 33 -113.5 33 l-116 -5 Z" /><glyph glyph-name="rcaron" unicode="&#x159;" d="M254 550 l-133 90 l1 4 l40 47 l113 -75 l143 75 l18 -45 l-1 -6 l-167 -90 l-14 0 ZM36 0 l80 382 l16 108 l63 7 l1 -7 l-11 -100 l4 0 q99 109 175 110 q6 0 14 -2 l-15 -65 q-8 2 -17 2 q-66 -1 -168 -125 l-70 -310 l-72 0 Z" /><glyph glyph-name="Sacute" unicode="&#x15a;" d="M484 816 l-187 -72 l-31 54 l176 95 l42 -71 l0 -6 ZM187 -9 q-82 0 -192 50 l21 67 q110 -55 175 -55 q84 0 135.5 41.5 q51.5 41.5 51.5 107.5 q0 40 -29.5 68.5 q-29.5 28.5 -71.5 47 q-42 18.5 -84 38.5 q-42 20 -71.5 55.5 q-29.5 35.5 -29.5 85.5 q0 94 68 148.5 q68 54.5 175 54.5 q39 0 98 -11 q59 -11 83 -20 l-16 -64 q-25 8 -86.5 20.5 q-61.5 12.5 -81.5 12.5 q-69 -1 -116.5 -34 q-47.5 -33 -47.5 -92 q0 -39 29.5 -68.5 q29.5 -29.5 71 -49.5 q41.5 -20 83.5 -41 q42 -21 71.5 -55.5 q29.5 -34.5 29.5 -81.5 q0 -100 -74 -162.5 q-74 -62.5 -192 -62.5 Z" /><glyph glyph-name="sacute" unicode="&#x15b;" d="M419 657 l-204 -99 l-20 48 l203 117 l22 -60 l-1 -6 ZM137 -10 q-32 0 -74.5 14 q-42.5 14 -65.5 27 l24 52 q75 -36 122 -36 q55 0 90 26 q35 26 35 67 q0 26 -20.5 45 q-20.5 19 -50 32 q-29.5 13 -59 28 q-29.5 15 -50 41.5 q-20.5 26.5 -20.5 62.5 q0 68 53.5 109.5 q53.5 41.5 143.5 41.5 q46 0 116 -26 l-19 -60 q-17 8 -54 18.5 q-37 10.5 -52 10.5 q-52 0 -84 -24 q-32 -24 -32 -62 q0 -23 20.5 -42.5 q20.5 -19.5 50 -34 q29.5 -14.5 59 -30 q29.5 -15.5 50 -40.5 q20.5 -25 20.5 -57 q0 -73 -55.5 -118 q-55.5 -45 -147.5 -45 Z" /><glyph glyph-name="Scedilla" unicode="&#x15e;" d="M187 -9 q-82 0 -192 50 l21 67 q110 -55 175 -55 q84 0 135.5 41.5 q51.5 41.5 51.5 107.5 q0 40 -29.5 68.5 q-29.5 28.5 -71.5 47 q-42 18.5 -84 38.5 q-42 20 -71.5 55.5 q-29.5 35.5 -29.5 85.5 q0 94 68 148.5 q68 54.5 175 54.5 q39 0 98 -11 q59 -11 83 -20 l-16 -64 q-25 8 -86.5 20.5 q-61.5 12.5 -81.5 12.5 q-69 -1 -116.5 -34 q-47.5 -33 -47.5 -92 q0 -39 29.5 -68.5 q29.5 -29.5 71 -49.5 q41.5 -20 83.5 -41 q42 -21 71.5 -55.5 q29.5 -34.5 29.5 -81.5 q0 -100 -74 -162.5 q-74 -62.5 -192 -62.5 ZM120 -221 q-36 0 -60 12 l17 47 q13 -8 45 -8 q30 0 50.5 13 q20.5 13 20.5 34 q0 15 -17.5 28.5 q-17.5 13.5 -45.5 19.5 l19 47 q41 -8 68 -34 q27 -26 27 -61 q0 -48 -35.5 -73 q-35.5 -25 -88.5 -25 Z" /><glyph glyph-name="scedilla" unicode="&#x15f;" d="M137 -10 q-32 0 -74.5 14 q-42.5 14 -65.5 27 l24 52 q75 -36 122 -36 q55 0 90 26 q35 26 35 67 q0 26 -20.5 45 q-20.5 19 -50 32 q-29.5 13 -59 28 q-29.5 15 -50 41.5 q-20.5 26.5 -20.5 62.5 q0 68 53.5 109.5 q53.5 41.5 143.5 41.5 q46 0 116 -26 l-19 -60 q-17 8 -54 18.5 q-37 10.5 -52 10.5 q-52 0 -84 -24 q-32 -24 -32 -62 q0 -23 20.5 -42.5 q20.5 -19.5 50 -34 q29.5 -14.5 59 -30 q29.5 -15.5 50 -40.5 q20.5 -25 20.5 -57 q0 -73 -55.5 -118 q-55.5 -45 -147.5 -45 ZM76 -221 q-36 0 -60 12 l17 47 q13 -8 45 -8 q30 0 50.5 13 q20.5 13 20.5 34 q0 15 -17.5 28.5 q-17.5 13.5 -45.5 19.5 l19 47 q41 -8 68 -34 q27 -26 27 -61 q0 -48 -35.5 -73 q-35.5 -25 -88.5 -25 Z" /><glyph glyph-name="Scaron" unicode="&#x160;" d="M351 742 l-134 86 l2 7 l43 46 l109 -74 l141 75 l22 -46 l-2 -7 l-167 -87 l-14 0 ZM187 -9 q-82 0 -192 50 l21 67 q110 -55 175 -55 q84 0 135.5 41.5 q51.5 41.5 51.5 107.5 q0 40 -29.5 68.5 q-29.5 28.5 -71.5 47 q-42 18.5 -84 38.5 q-42 20 -71.5 55.5 q-29.5 35.5 -29.5 85.5 q0 94 68 148.5 q68 54.5 175 54.5 q39 0 98 -11 q59 -11 83 -20 l-16 -64 q-25 8 -86.5 20.5 q-61.5 12.5 -81.5 12.5 q-69 -1 -116.5 -34 q-47.5 -33 -47.5 -92 q0 -39 29.5 -68.5 q29.5 -29.5 71 -49.5 q41.5 -20 83.5 -41 q42 -21 71.5 -55.5 q29.5 -34.5 29.5 -81.5 q0 -100 -74 -162.5 q-74 -62.5 -192 -62.5 Z" /><glyph glyph-name="scaron" unicode="&#x161;" d="M242 550 l-133 90 l1 4 l40 47 l113 -75 l143 75 l18 -45 l-1 -6 l-167 -90 l-14 0 ZM137 -10 q-32 0 -74.5 14 q-42.5 14 -65.5 27 l24 52 q75 -36 122 -36 q55 0 90 26 q35 26 35 67 q0 26 -20.5 45 q-20.5 19 -50 32 q-29.5 13 -59 28 q-29.5 15 -50 41.5 q-20.5 26.5 -20.5 62.5 q0 68 53.5 109.5 q53.5 41.5 143.5 41.5 q46 0 116 -26 l-19 -60 q-17 8 -54 18.5 q-37 10.5 -52 10.5 q-52 0 -84 -24 q-32 -24 -32 -62 q0 -23 20.5 -42.5 q20.5 -19.5 50 -34 q29.5 -14.5 59 -30 q29.5 -15.5 50 -40.5 q20.5 -25 20.5 -57 q0 -73 -55.5 -118 q-55.5 -45 -147.5 -45 Z" /><glyph glyph-name="uni0162" unicode="&#x162;" d="M607 690 l-13 -58 l-216 0 l-134 -632 l-74 0 l133 632 l-218 0 l13 58 l509 0 ZM165 -28 q41 -8 68 -34 q27 -26 27 -61 q0 -48 -35.5 -73 q-35.5 -25 -88.5 -25 q-36 0 -60 12 l17 47 q13 -8 45 -8 q30 0 50.5 13 q20.5 13 20.5 34 q0 15 -17.5 28.5 q-17.5 13.5 -45.5 19.5 l19 47 Z" /><glyph glyph-name="uni0163" unicode="&#x163;" d="M139 -10 q-37 0 -57 21 q-20 21 -20 58 q0 17 4 32 l70 332 l-86 0 l11 50 l88 7 l43 132 l56 9 l1 -6 l-30 -135 l134 0 l-11 -57 l-134 0 l-71 -335 q-2 -6 -2 -21 q0 -26 16 -26 q15 0 102 51 l23 -47 q-2 -1 -14.5 -9 q-12.5 -8 -21.5 -14 q-9 -6 -24.5 -14.5 q-15.5 -8.5 -27.5 -14 q-12 -5.5 -25.5 -9.5 q-13.5 -4 -23.5 -4 ZM69 -221 q-36 0 -60 12 l17 47 q13 -8 45 -8 q30 0 50.5 13 q20.5 13 20.5 34 q0 15 -17.5 28.5 q-17.5 13.5 -45.5 19.5 l19 47 q41 -8 68 -34 q27 -26 27 -61 q0 -48 -35.5 -73 q-35.5 -25 -88.5 -25 Z" /><glyph glyph-name="Tcaron" unicode="&#x164;" d="M367 742 l-14 0 l-134 86 l2 7 l43 46 l109 -74 l141 75 l22 -46 l-2 -7 l-167 -87 ZM607 690 l-13 -58 l-216 0 l-134 -632 l-74 0 l133 632 l-218 0 l13 58 l509 0 Z" /><glyph glyph-name="tcaron" unicode="&#x165;" d="M371 731 q17 0 27 -9.5 q10 -9.5 10 -25.5 q0 -30 -24 -70 q-24 -40 -52 -70 l-34 7 q43 60 43 83 q-26 5 -26 32 q0 22 16.5 37.5 q16.5 15.5 39.5 15.5 ZM139 -10 q-37 0 -57 21 q-20 21 -20 58 q0 17 4 32 l70 332 l-86 0 l11 50 l88 7 l43 132 l56 9 l1 -6 l-30 -135 l134 0 l-11 -57 l-134 0 l-71 -335 q-2 -6 -2 -21 q0 -26 16 -26 q15 0 102 51 l23 -47 q-2 -1 -14.5 -9 q-12.5 -8 -21.5 -14 q-9 -6 -24.5 -14.5 q-15.5 -8.5 -27.5 -14 q-12 -5.5 -25.5 -9.5 q-13.5 -4 -23.5 -4 Z" /><glyph glyph-name="Tbar" unicode="&#x166;" d="M594 630 l-215 0 l-53 -245 l116 0 l-11 -55 l-117 0 l-70 -330 l-75 0 l70 330 l-117 0 l12 55 l117 0 l52 245 l-218 0 l13 60 l509 0 l-13 -60 Z" /><glyph glyph-name="tbar" unicode="&#x167;" d="M349 433 l-134 0 l-37 -173 l128 0 l-9 -45 l-128 0 l-25 -117 q-2 -6 -2 -21 q0 -26 16 -26 q15 0 102 51 l23 -47 q-2 -1 -14.5 -9 q-12.5 -8 -21.5 -14 q-9 -6 -24.5 -14.5 q-15.5 -8.5 -27.5 -14 q-12 -5.5 -25.5 -9.5 q-13.5 -4 -23.5 -4 q-37 0 -57 21 q-20 21 -20 58 q0 17 4 32 l24 114 l-87 0 l10 45 l87 0 l36 173 l-86 0 l11 50 l88 7 l43 132 l56 9 l1 -6 l-30 -135 l134 0 l-11 -57 Z" /><glyph glyph-name="Utilde" unicode="&#x168;" d="M497 760 q-24 0 -44.5 17.5 q-20.5 17.5 -37.5 17.5 q-31 0 -79 -33 l-18 37 q60 48 117 48 q25 0 46 -17.5 q21 -17.5 38 -17.5 q33 0 76 33 l17 -39 q-56 -46 -115 -46 ZM299 -10 q-214 0 -214 178 q0 36 9 79 l93 443 l73 0 l-95 -448 q-6 -26 -6 -61 q0 -129 145 -129 q91 0 150.5 51.5 q59.5 51.5 79.5 144.5 l94 442 l71 0 l-95 -449 q-25 -124 -102.5 -187.5 q-77.5 -63.5 -202.5 -63.5 Z" /><glyph glyph-name="utilde" unicode="&#x169;" d="M213 585 l-46 16 q17 38 48.5 63.5 q31.5 25.5 62.5 25.5 q25 0 58.5 -20 q33.5 -20 49.5 -20 q28 0 56 37 l45 -16 q-16 -36 -47.5 -61 q-31.5 -25 -63.5 -25 q-25 0 -58.5 19.5 q-33.5 19.5 -48.5 19.5 q-14 0 -30 -10.5 q-16 -10.5 -26 -28.5 ZM157 -10 q-50 0 -77.5 30 q-27.5 30 -27.5 87 q0 33 9 74 l66 309 l74 0 l-64 -303 q-7 -39 -7 -68 q0 -70 42 -70 q12 0 30 7 q18 7 33.5 15.5 q15.5 8.5 36.5 23.5 q21 15 32 23.5 q11 8.5 30 23.5 l18 14 l72 334 l73 0 l-82 -384 l-11 -106 l-63 0 l1 90 l-5 0 q-1 -1 -14.5 -13 q-13.5 -12 -31.5 -25.5 q-18 -13.5 -40 -28 q-22 -14.5 -47 -24 q-25 -9.5 -47 -9.5 Z" /><glyph glyph-name="Umacron" unicode="&#x16a;" d="M597 839 l-13 -62 l-268 0 l14 62 l267 0 ZM299 -10 q-214 0 -214 178 q0 36 9 79 l93 443 l73 0 l-95 -448 q-6 -26 -6 -61 q0 -129 145 -129 q91 0 150.5 51.5 q59.5 51.5 79.5 144.5 l94 442 l71 0 l-95 -449 q-25 -124 -102.5 -187.5 q-77.5 -63.5 -202.5 -63.5 Z" /><glyph glyph-name="umacron" unicode="&#x16b;" d="M466 650 l-13 -63 l-268 0 l14 63 l267 0 ZM157 -10 q-50 0 -77.5 30 q-27.5 30 -27.5 87 q0 33 9 74 l66 309 l74 0 l-64 -303 q-7 -39 -7 -68 q0 -70 42 -70 q12 0 30 7 q18 7 33.5 15.5 q15.5 8.5 36.5 23.5 q21 15 32 23.5 q11 8.5 30 23.5 l18 14 l72 334 l73 0 l-82 -384 l-11 -106 l-63 0 l1 90 l-5 0 q-1 -1 -14.5 -13 q-13.5 -12 -31.5 -25.5 q-18 -13.5 -40 -28 q-22 -14.5 -47 -24 q-25 -9.5 -47 -9.5 Z" /><glyph glyph-name="Uring" unicode="&#x16e;" d="M442 734 q-37 0 -59 19 q-22 19 -22 51 q0 46 34.5 76.5 q34.5 30.5 83.5 30.5 q38 0 59.5 -18.5 q21.5 -18.5 21.5 -49.5 q0 -46 -34.5 -77.5 q-34.5 -31.5 -83.5 -31.5 ZM452 782 q23 0 39 15.5 q16 15.5 16 35.5 q0 30 -38 30 q-22 0 -38.5 -14 q-16.5 -14 -16.5 -35 q0 -32 38 -32 ZM299 -10 q-214 0 -214 178 q0 36 9 79 l93 443 l73 0 l-95 -448 q-6 -26 -6 -61 q0 -129 145 -129 q91 0 150.5 51.5 q59.5 51.5 79.5 144.5 l94 442 l71 0 l-95 -449 q-25 -124 -102.5 -187.5 q-77.5 -63.5 -202.5 -63.5 Z" /><glyph glyph-name="uring" unicode="&#x16f;" d="M318 554 q-37 0 -58.5 18.5 q-21.5 18.5 -21.5 50.5 q0 47 34 77.5 q34 30.5 83 30.5 q37 0 58.5 -18 q21.5 -18 21.5 -49 q0 -47 -34 -78.5 q-34 -31.5 -83 -31.5 ZM328 602 q23 0 38.5 15.5 q15.5 15.5 15.5 35.5 q0 31 -36 31 q-23 0 -39 -14.5 q-16 -14.5 -16 -35.5 q0 -32 37 -32 ZM157 -10 q-50 0 -77.5 30 q-27.5 30 -27.5 87 q0 33 9 74 l66 309 l74 0 l-64 -303 q-7 -39 -7 -68 q0 -70 42 -70 q12 0 30 7 q18 7 33.5 15.5 q15.5 8.5 36.5 23.5 q21 15 32 23.5 q11 8.5 30 23.5 l18 14 l72 334 l73 0 l-82 -384 l-11 -106 l-63 0 l1 90 l-5 0 q-1 -1 -14.5 -13 q-13.5 -12 -31.5 -25.5 q-18 -13.5 -40 -28 q-22 -14.5 -47 -24 q-25 -9.5 -47 -9.5 Z" /><glyph glyph-name="Uhungarumlaut" unicode="&#x170;" d="M337 741 l-35 46 l160 147 l47 -60 l0 -6 l-172 -127 ZM494 735 l-24 51 l183 115 l35 -67 l0 -6 l-194 -93 ZM299 -10 q-214 0 -214 178 q0 36 9 79 l93 443 l73 0 l-95 -448 q-6 -26 -6 -61 q0 -129 145 -129 q91 0 150.5 51.5 q59.5 51.5 79.5 144.5 l94 442 l71 0 l-95 -449 q-25 -124 -102.5 -187.5 q-77.5 -63.5 -202.5 -63.5 Z" /><glyph glyph-name="uhungarumlaut" unicode="&#x171;" d="M427 675 l-180 -126 l-29 43 l171 139 l38 -50 l0 -6 ZM596 662 l-186 -116 l-26 46 l178 129 l33 -53 l1 -6 ZM157 -10 q-50 0 -77.5 30 q-27.5 30 -27.5 87 q0 33 9 74 l66 309 l74 0 l-64 -303 q-7 -39 -7 -68 q0 -70 42 -70 q12 0 30 7 q18 7 33.5 15.5 q15.5 8.5 36.5 23.5 q21 15 32 23.5 q11 8.5 30 23.5 l18 14 l72 334 l73 0 l-82 -384 l-11 -106 l-63 0 l1 90 l-5 0 q-1 -1 -14.5 -13 q-13.5 -12 -31.5 -25.5 q-18 -13.5 -40 -28 q-22 -14.5 -47 -24 q-25 -9.5 -47 -9.5 Z" /><glyph glyph-name="Uogonek" unicode="&#x172;" d="M628 690 l71 0 l-95 -449 q-50 -242 -288 -251 q-74 -58 -74 -118 q0 -30 25 -30 q17 0 31 3 l-2 -45 q-22 -11 -48 -11 q-30 0 -47 18 q-17 18 -17 49 q0 35 21 73 q21 38 53 63 q-173 16 -173 176 q0 36 9 79 l93 443 l73 0 l-95 -448 q-6 -26 -6 -61 q0 -129 145 -129 q91 0 150.5 51.5 q59.5 51.5 79.5 144.5 l94 442 Z" /><glyph glyph-name="uogonek" unicode="&#x173;" d="M424 490 l73 0 l-82 -384 l-11 -106 q-87 -61 -87 -128 q0 -30 25 -30 q18 0 31 3 l-2 -45 q-22 -11 -48 -11 q-30 0 -47 18 q-17 18 -17 49 q0 38 24.5 79 q24.5 41 60.5 65 l-3 0 l1 90 l-5 0 q-1 -1 -14.5 -13 q-13.5 -12 -31.5 -25.5 q-18 -13.5 -40 -28 q-22 -14.5 -47 -24 q-25 -9.5 -47 -9.5 q-50 0 -77.5 30 q-27.5 30 -27.5 87 q0 33 9 74 l66 309 l74 0 l-64 -303 q-7 -39 -7 -68 q0 -70 42 -70 q12 0 30 7 q18 7 33.5 15.5 q15.5 8.5 36.5 23.5 q21 15 32 23.5 q11 8.5 30 23.5 l18 14 l72 334 Z" /><glyph glyph-name="Wcircumflex" unicode="&#x174;" d="M437 743 l-24 46 l2 7 l171 86 l13 0 l131 -87 l-2 -7 l-41 -46 l-108 74 l-142 -73 ZM150 0 l-53 690 l68 7 l43 -532 q0 -13 0.5 -40 q0.5 -27 0.5 -41 l5 0 q13 30 37 83 l266 526 l71 0 l44 -526 l3 -83 l5 0 q12 31 35 81 l263 525 l71 0 l-345 -690 l-85 0 l-44 503 q-3 42 -2 83 l-6 0 q-7 -17 -20 -47 q-13 -30 -16 -37 l-257 -502 l-84 0 Z" /><glyph glyph-name="wcircumflex" unicode="&#x175;" d="M441 699 l13 0 l129 -90 l-1 -6 l-37 -46 l-111 76 l-144 -75 l-21 47 l0 4 l172 90 ZM90 -7 l-34 497 l60 7 l29 -429 l6 0 l217 422 l59 0 l28 -421 l5 0 l224 421 l71 0 l-270 -490 l-83 -7 l-25 376 l-4 0 l-198 -369 l-85 -7 Z" /><glyph glyph-name="Ycircumflex" unicode="&#x176;" d="M227 743 l-24 46 l2 7 l171 86 l13 0 l131 -87 l-2 -7 l-41 -46 l-108 74 l-142 -73 ZM184 0 l62 291 l-153 390 l2 9 l63 5 l132 -342 l7 0 l257 337 l75 0 l0 -9 l-308 -390 l-61 -291 l-76 0 Z" /><glyph glyph-name="ycircumflex" unicode="&#x177;" d="M309 699 l13 0 l129 -90 l-1 -6 l-37 -46 l-111 76 l-144 -75 l-21 47 l0 4 l172 90 ZM82 -231 l-52 25 l120 206 l-15 0 l-64 483 l1 7 l62 7 l52 -428 l8 0 l242 421 l72 0 l-1 -7 l-425 -714 Z" /><glyph glyph-name="Ydieresis" unicode="&#x178;" d="M261 761 q-17 0 -28 10.5 q-11 10.5 -11 28.5 q0 24 17.5 41 q17.5 17 42.5 17 q18 0 28.5 -11 q10.5 -11 10.5 -28 q0 -25 -17 -41.5 q-17 -16.5 -43 -16.5 ZM432 761 q-17 0 -27 10.5 q-10 10.5 -10 28.5 q0 24 17 41 q17 17 41 17 q18 0 29 -11 q11 -11 11 -28 q0 -25 -17.5 -41.5 q-17.5 -16.5 -43.5 -16.5 ZM184 0 l62 291 l-153 390 l2 9 l63 5 l132 -342 l7 0 l257 337 l75 0 l0 -9 l-308 -390 l-61 -291 l-76 0 Z" /><glyph glyph-name="Zacute" unicode="&#x179;" d="M493 816 l-187 -72 l-31 54 l176 95 l42 -71 l0 -6 ZM-13 -2 l0 50 l525 577 l1 4 q-36 -2 -58 -2 l-334 0 l12 61 l472 0 l-1 -52 l-524 -575 l-1 -4 l46 2 l359 0 l-19 -61 l-478 0 Z" /><glyph glyph-name="zacute" unicode="&#x17a;" d="M419 657 l-204 -99 l-20 48 l203 117 l22 -60 l-1 -6 ZM-6 0 l0 46 l350 384 l0 5 q-26 -3 -55 -3 l-218 1 l12 57 l350 0 l0 -49 l-350 -383 l0 -1 l36 0 l257 0 l-19 -57 l-363 0 Z" /><glyph glyph-name="Zdotaccent" unicode="&#x17b;" d="M367 761 q-34 0 -34 38 q0 24 16 41.5 q16 17.5 37 17.5 q35 0 35 -38 q0 -25 -16 -42 q-16 -17 -38 -17 ZM-13 -2 l0 50 l525 577 l1 4 q-36 -2 -58 -2 l-334 0 l12 61 l472 0 l-1 -52 l-524 -575 l-1 -4 l46 2 l359 0 l-19 -61 l-478 0 Z" /><glyph glyph-name="zdotaccent" unicode="&#x17c;" d="M260 596 q-39 0 -39 39 q0 23 17 40.5 q17 17.5 41 17.5 q18 0 28.5 -10.5 q10.5 -10.5 10.5 -28.5 q0 -25 -17 -41.5 q-17 -16.5 -41 -16.5 ZM-6 0 l0 46 l350 384 l0 5 q-26 -3 -55 -3 l-218 1 l12 57 l350 0 l0 -49 l-350 -383 l0 -1 l36 0 l257 0 l-19 -57 l-363 0 Z" /><glyph glyph-name="Zcaron" unicode="&#x17d;" d="M360 742 l-134 86 l2 7 l43 46 l109 -74 l141 75 l22 -46 l-2 -7 l-167 -87 l-14 0 ZM-13 -2 l0 50 l525 577 l1 4 q-36 -2 -58 -2 l-334 0 l12 61 l472 0 l-1 -52 l-524 -575 l-1 -4 l46 2 l359 0 l-19 -61 l-478 0 Z" /><glyph glyph-name="zcaron" unicode="&#x17e;" d="M242 550 l-133 90 l1 4 l40 47 l113 -75 l143 75 l18 -45 l-1 -6 l-167 -90 l-14 0 ZM-6 0 l0 46 l350 384 l0 5 q-26 -3 -55 -3 l-218 1 l12 57 l350 0 l0 -49 l-350 -383 l0 -1 l36 0 l257 0 l-19 -57 l-363 0 Z" /><glyph glyph-name="uni01EA" unicode="&#x1ea;" d="M323 -9 q-74 -60 -74 -119 q0 -30 25 -30 q18 0 31 3 l-2 -45 q-22 -11 -48 -11 q-30 0 -47 18 q-17 18 -17 49 q0 35 21 73 q21 38 53 63 q-97 11 -149.5 76 q-52.5 65 -52.5 171 q0 120 48.5 225 q48.5 105 139.5 170.5 q91 65.5 203 65.5 q115 0 177.5 -66 q62.5 -66 62.5 -182 q0 -180 -104.5 -316 q-104.5 -136 -266.5 -145 ZM139 248 q0 -94 46.5 -146 q46.5 -52 131.5 -52 q89 0 159 58.5 q70 58.5 105.5 147.5 q35.5 89 35.5 187 q0 93 -46 145 q-46 52 -130 52 q-89 0 -159.5 -58.5 q-70.5 -58.5 -106.5 -147.5 q-36 -89 -36 -186 Z" /><glyph glyph-name="uni01EB" unicode="&#x1eb;" d="M240 -7 q-77 -59 -77 -121 q0 -30 25 -30 q18 0 31 3 l-2 -45 q-22 -11 -48 -11 q-30 0 -47 18 q-17 18 -17 49 q0 35 21 72.5 q21 37.5 52 62.5 q-65 8 -102.5 58.5 q-37.5 50.5 -37.5 134.5 q0 138 73.5 227 q73.5 89 190.5 89 q75 0 119.5 -51 q44.5 -51 44.5 -143 q0 -126 -62 -212.5 q-62 -86.5 -164 -100.5 ZM104 187 q0 -63 30.5 -102.5 q30.5 -39.5 78.5 -39.5 q82 0 134 72 q52 72 52 186 q0 63 -30 102.5 q-30 39.5 -77 39.5 q-83 0 -135.5 -72 q-52.5 -72 -52.5 -186 Z" /><glyph glyph-name="AEacute" unicode="&#x1fc;" d="M897 816 l-187 -72 l-31 54 l176 95 l42 -71 l0 -6 ZM1002 630 l-336 0 l-54 -253 l284 0 l-12 -58 l-284 0 l-55 -258 l340 0 l-21 -61 l-406 0 l41 194 l-285 0 l-157 -194 l-75 0 l554 690 l480 0 l-14 -60 ZM512 253 l80 377 l-25 0 l-305 -377 l250 0 Z" /><glyph glyph-name="aeacute" unicode="&#x1fd;" d="M585 658 l-204 -99 l-20 48 l203 117 l22 -60 l-1 -6 ZM131 -10 q-62 0 -96 27.5 q-34 27.5 -34 74.5 q0 80 76 126 q76 46 188 46 l54 0 q15 73 15 90 q0 80 -81 80 q-76 0 -148 -30 l-10 57 q85 39 178 39 q90 0 119 -78 q38 38 78.5 58 q40.5 20 100.5 20 q63 0 96 -30.5 q33 -30.5 33 -79.5 q0 -88 -84 -134 q-84 -46 -241 -46 q-1 -76 29.5 -119 q30.5 -43 82.5 -43 q48 0 140 65 l20 -45 q-1 0 -15.5 -11 q-14.5 -11 -30 -20.5 q-15.5 -9.5 -37 -21 q-21.5 -11.5 -45.5 -18.5 q-24 -7 -46 -7 q-105 0 -144 104 q-25 -44 -85 -74 q-60 -30 -113 -30 ZM382 264 q257 0 257 118 q0 29 -20 48.5 q-20 19.5 -48 19.5 q-73 0 -121 -52.5 q-48 -52.5 -68 -133.5 ZM146 50 q59 0 108 34 q49 34 58 67 q-1 24 1 59 l-56 0 q-90 0 -138 -28 q-48 -28 -50 -78 q0 -25 20 -39.5 q20 -14.5 57 -14.5 Z" /><glyph glyph-name="Oslashacute" unicode="&#x1fe;" d="M615 816 l-187 -72 l-31 54 l176 95 l42 -71 l0 -6 ZM628 640 q68 -66 68 -188 q0 -120 -48.5 -225.5 q-48.5 -105.5 -139 -171 q-90.5 -65.5 -203.5 -65.5 q-68 0 -121 25 l-79 -112 l-42 30 l78 110 q-76 67 -76 196 q0 120 48.5 225 q48.5 105 139.5 170.5 q91 65.5 203 65.5 q76 0 129 -29 l75 106 l42 -32 l-74 -105 ZM141 248 q0 -91 44 -143 l359 508 q-41 27 -101 27 q-89 0 -159.5 -58.5 q-70.5 -58.5 -106.5 -147.5 q-36 -89 -36 -186 ZM319 50 q89 0 159 58.5 q70 58.5 105.5 147.5 q35.5 89 35.5 187 q0 82 -37 133 l-357 -504 q41 -22 94 -22 Z" /><glyph glyph-name="oslashacute" unicode="&#x1ff;" d="M451 723 l22 -60 l-1 -6 l-204 -99 l-20 48 l203 117 ZM401 468 q65 -51 65 -162 q0 -138 -73.5 -227 q-73.5 -89 -190.5 -89 q-38 0 -67 13 l-57 -99 l-37 23 l57 99 q-60 51 -60 158 q0 138 73.5 227 q73.5 89 190.5 89 q33 0 64 -11 l64 111 l35 -21 l-64 -111 ZM104 187 q0 -61 29 -100 l202 348 q-22 10 -43 10 q-83 0 -135.5 -72 q-52.5 -72 -52.5 -186 ZM213 45 q82 0 134 72 q52 72 52 186 q0 65 -32 105 l-201 -351 q21 -12 47 -12 Z" /><glyph glyph-name="Scommaaccent" unicode="&#x218;" d="M187 -9 q-82 0 -192 50 l21 67 q110 -55 175 -55 q84 0 135.5 41.5 q51.5 41.5 51.5 107.5 q0 40 -29.5 68.5 q-29.5 28.5 -71.5 47 q-42 18.5 -84 38.5 q-42 20 -71.5 55.5 q-29.5 35.5 -29.5 85.5 q0 94 68 148.5 q68 54.5 175 54.5 q39 0 98 -11 q59 -11 83 -20 l-16 -64 q-25 8 -86.5 20.5 q-61.5 12.5 -81.5 12.5 q-69 -1 -116.5 -34 q-47.5 -33 -47.5 -92 q0 -39 29.5 -68.5 q29.5 -29.5 71 -49.5 q41.5 -20 83.5 -41 q42 -21 71.5 -55.5 q29.5 -34.5 29.5 -81.5 q0 -100 -74 -162.5 q-74 -62.5 -192 -62.5 ZM182 -44 q37 0 37 -35 q0 -30 -23.5 -69 q-23.5 -39 -52.5 -71 l-34 7 q43 57 43 83 q-25 5 -25 32 q0 22 16 37.5 q16 15.5 39 15.5 Z" /><glyph glyph-name="scommaaccent" unicode="&#x219;" d="M137 -10 q-32 0 -74.5 14 q-42.5 14 -65.5 27 l24 52 q75 -36 122 -36 q55 0 90 26 q35 26 35 67 q0 26 -20.5 45 q-20.5 19 -50 32 q-29.5 13 -59 28 q-29.5 15 -50 41.5 q-20.5 26.5 -20.5 62.5 q0 68 53.5 109.5 q53.5 41.5 143.5 41.5 q46 0 116 -26 l-19 -60 q-17 8 -54 18.5 q-37 10.5 -52 10.5 q-52 0 -84 -24 q-32 -24 -32 -62 q0 -23 20.5 -42.5 q20.5 -19.5 50 -34 q29.5 -14.5 59 -30 q29.5 -15.5 50 -40.5 q20.5 -25 20.5 -57 q0 -73 -55.5 -118 q-55.5 -45 -147.5 -45 ZM138 -44 q37 0 37 -35 q0 -30 -23.5 -69 q-23.5 -39 -52.5 -71 l-34 7 q43 57 43 83 q-25 5 -25 32 q0 22 16 37.5 q16 15.5 39 15.5 Z" /><glyph glyph-name="uni021A" unicode="&#x21a;" d="M607 690 l-13 -58 l-216 0 l-134 -632 l-74 0 l133 632 l-218 0 l13 58 l509 0 ZM198 -44 q37 0 37 -35 q0 -30 -23.5 -69 q-23.5 -39 -52.5 -71 l-34 7 q43 57 43 83 q-25 5 -25 32 q0 22 16 37.5 q16 15.5 39 15.5 Z" /><glyph glyph-name="uni021B" unicode="&#x21b;" d="M139 -10 q-37 0 -57 21 q-20 21 -20 58 q0 17 4 32 l70 332 l-86 0 l11 50 l88 7 l43 132 l56 9 l1 -6 l-30 -135 l134 0 l-11 -57 l-134 0 l-71 -335 q-2 -6 -2 -21 q0 -26 16 -26 q15 0 102 51 l23 -47 q-2 -1 -14.5 -9 q-12.5 -8 -21.5 -14 q-9 -6 -24.5 -14.5 q-15.5 -8.5 -27.5 -14 q-12 -5.5 -25.5 -9.5 q-13.5 -4 -23.5 -4 ZM131 -44 q37 0 37 -35 q0 -30 -23.5 -69 q-23.5 -39 -52.5 -71 l-34 7 q43 57 43 83 q-25 5 -25 32 q0 22 16 37.5 q16 15.5 39 15.5 Z" /><glyph glyph-name="uni0237" unicode="&#x237;" d="M273 490 l-104 -489 q-25 -115 -73 -170.5 q-48 -55.5 -125 -60.5 l3 57 q52 13 77.5 53.5 q25.5 40.5 46.5 135.5 l100 474 l75 0 Z" /><glyph glyph-name="circumflex" unicode="&#x2c6;" d="M241 699 l13 0 l129 -90 l-1 -6 l-37 -46 l-111 76 l-144 -75 l-21 47 l0 4 l172 90 Z" /><glyph glyph-name="caron" unicode="&#x2c7;" d="M202 550 l-133 90 l1 4 l40 47 l113 -75 l143 75 l18 -45 l-1 -6 l-167 -90 l-14 0 Z" /><glyph glyph-name="breve" unicode="&#x2d8;" d="M188 551 q-62 0 -95 39.5 q-33 39.5 -20 103.5 l65 0 q0 -35 15 -57.5 q15 -22.5 46 -22.5 q31 0 56.5 23 q25.5 23 39.5 57 l66 0 q-15 -64 -63.5 -103.5 q-48.5 -39.5 -109.5 -39.5 Z" /><glyph glyph-name="dotaccent" unicode="&#x2d9;" d="M108 596 q-39 0 -39 39 q0 23 17 40.5 q17 17.5 41 17.5 q18 0 28.5 -10.5 q10.5 -10.5 10.5 -28.5 q0 -25 -17 -41.5 q-17 -16.5 -41 -16.5 Z" /><glyph glyph-name="ring" unicode="&#x2da;" d="M147 554 q-37 0 -58.5 18.5 q-21.5 18.5 -21.5 50.5 q0 47 34 77.5 q34 30.5 83 30.5 q37 0 58.5 -18 q21.5 -18 21.5 -49 q0 -47 -34 -78.5 q-34 -31.5 -83 -31.5 ZM157 602 q23 0 38.5 15.5 q15.5 15.5 15.5 35.5 q0 31 -36 31 q-23 0 -39 -14.5 q-16 -14.5 -16 -35.5 q0 -32 37 -32 Z" /><glyph glyph-name="ogonek" unicode="&#x2db;" d="M129 -211 q-30 0 -47 18 q-17 18 -17 49 q0 38 24.5 79 q24.5 41 60.5 65 l60 0 q-87 -61 -87 -128 q0 -30 25 -30 q18 0 31 3 l-2 -45 q-22 -11 -48 -11 Z" /><glyph glyph-name="tilde" unicode="&#x2dc;" d="M106 585 l-46 16 q17 38 48.5 63.5 q31.5 25.5 62.5 25.5 q25 0 58.5 -20 q33.5 -20 49.5 -20 q28 0 56 37 l45 -16 q-16 -36 -47.5 -61 q-31.5 -25 -63.5 -25 q-25 0 -58.5 19.5 q-33.5 19.5 -48.5 19.5 q-14 0 -30 -10.5 q-16 -10.5 -26 -28.5 Z" /><glyph glyph-name="hungarumlaut" unicode="&#x2dd;" d="M277 675 l-180 -126 l-29 43 l171 139 l38 -50 l0 -6 ZM446 662 l-186 -116 l-26 46 l178 129 l33 -53 l1 -6 Z" /><glyph glyph-name="uni0326" unicode="&#x326;" d="M-98 -44 q37 0 37 -35 q0 -30 -23.5 -69 q-23.5 -39 -52.5 -71 l-34 7 q43 57 43 83 q-25 5 -25 32 q0 22 16 37.5 q16 15.5 39 15.5 Z" /><glyph glyph-name="Wgrave" unicode="&#x1e80;" d="M406 816 l0 6 l44 71 l172 -95 l-31 -54 l-185 72 ZM150 0 l-53 690 l68 7 l43 -532 q0 -13 0.5 -40 q0.5 -27 0.5 -41 l5 0 q13 30 37 83 l266 526 l71 0 l44 -526 l3 -83 l5 0 q12 31 35 81 l263 525 l71 0 l-345 -690 l-85 0 l-44 503 q-3 42 -2 83 l-6 0 q-7 -17 -20 -47 q-13 -30 -16 -37 l-257 -502 l-84 0 Z" /><glyph glyph-name="wgrave" unicode="&#x1e81;" d="M270 657 l1 6 l49 60 l153 -117 l-37 -49 l-166 100 ZM90 -7 l-34 497 l60 7 l29 -429 l6 0 l217 422 l59 0 l28 -421 l5 0 l224 421 l71 0 l-270 -490 l-83 -7 l-25 376 l-4 0 l-198 -369 l-85 -7 Z" /><glyph glyph-name="Wacute" unicode="&#x1e82;" d="M689 816 l-187 -72 l-31 54 l176 95 l42 -71 l0 -6 ZM150 0 l-53 690 l68 7 l43 -532 q0 -13 0.5 -40 q0.5 -27 0.5 -41 l5 0 q13 30 37 83 l266 526 l71 0 l44 -526 l3 -83 l5 0 q12 31 35 81 l263 525 l71 0 l-345 -690 l-85 0 l-44 503 q-3 42 -2 83 l-6 0 q-7 -17 -20 -47 q-13 -30 -16 -37 l-257 -502 l-84 0 Z" /><glyph glyph-name="wacute" unicode="&#x1e83;" d="M572 657 l-204 -99 l-20 48 l203 117 l22 -60 l-1 -6 ZM90 -7 l-34 497 l60 7 l29 -429 l6 0 l217 422 l59 0 l28 -421 l5 0 l224 421 l71 0 l-270 -490 l-83 -7 l-25 376 l-4 0 l-198 -369 l-85 -7 Z" /><glyph glyph-name="Wdieresis" unicode="&#x1e84;" d="M471 761 q-17 0 -28 10.5 q-11 10.5 -11 28.5 q0 24 17.5 41 q17.5 17 42.5 17 q18 0 28.5 -11 q10.5 -11 10.5 -28 q0 -25 -17 -41.5 q-17 -16.5 -43 -16.5 ZM642 761 q-17 0 -27 10.5 q-10 10.5 -10 28.5 q0 24 17 41 q17 17 41 17 q18 0 29 -11 q11 -11 11 -28 q0 -25 -17.5 -41.5 q-17.5 -16.5 -43.5 -16.5 ZM150 0 l-53 690 l68 7 l43 -532 q0 -13 0.5 -40 q0.5 -27 0.5 -41 l5 0 q13 30 37 83 l266 526 l71 0 l44 -526 l3 -83 l5 0 q12 31 35 81 l263 525 l71 0 l-345 -690 l-85 0 l-44 503 q-3 42 -2 83 l-6 0 q-7 -17 -20 -47 q-13 -30 -16 -37 l-257 -502 l-84 0 Z" /><glyph glyph-name="wdieresis" unicode="&#x1e85;" d="M337 574 q-18 0 -28.5 10.5 q-10.5 10.5 -10.5 28.5 q0 24 17.5 41 q17.5 17 42.5 17 q17 0 27.5 -11 q10.5 -11 10.5 -28 q0 -25 -17 -41.5 q-17 -16.5 -42 -16.5 ZM495 574 q-38 0 -38 39 q0 23 17 40.5 q17 17.5 41 17.5 q18 0 29 -11 q11 -11 11 -28 q0 -25 -17.5 -41.5 q-17.5 -16.5 -42.5 -16.5 ZM90 -7 l-34 497 l60 7 l29 -429 l6 0 l217 422 l59 0 l28 -421 l5 0 l224 421 l71 0 l-270 -490 l-83 -7 l-25 376 l-4 0 l-198 -369 l-85 -7 Z" /><glyph glyph-name="Ygrave" unicode="&#x1ef2;" d="M196 816 l0 6 l44 71 l172 -95 l-31 -54 l-185 72 ZM184 0 l62 291 l-153 390 l2 9 l63 5 l132 -342 l7 0 l257 337 l75 0 l0 -9 l-308 -390 l-61 -291 l-76 0 Z" /><glyph glyph-name="ygrave" unicode="&#x1ef3;" d="M138 657 l1 6 l49 60 l153 -117 l-37 -49 l-166 100 ZM82 -231 l-52 25 l120 206 l-15 0 l-64 483 l1 7 l62 7 l52 -428 l8 0 l242 421 l72 0 l-1 -7 l-425 -714 Z" /><glyph glyph-name="uni1EF8" unicode="&#x1ef8;" d="M405 760 q-24 0 -44.5 17.5 q-20.5 17.5 -37.5 17.5 q-31 0 -79 -33 l-18 37 q60 48 117 48 q26 0 46.5 -17.5 q20.5 -17.5 37.5 -17.5 q33 0 76 33 l17 -39 q-56 -46 -115 -46 ZM184 0 l62 291 l-153 390 l2 9 l63 5 l132 -342 l7 0 l257 337 l75 0 l0 -9 l-308 -390 l-61 -291 l-76 0 Z" /><glyph glyph-name="uni1EF9" unicode="&#x1ef9;" d="M177 585 l-46 16 q17 38 48.5 63.5 q31.5 25.5 62.5 25.5 q25 0 58.5 -20 q33.5 -20 49.5 -20 q28 0 56 37 l45 -16 q-16 -36 -47.5 -61 q-31.5 -25 -63.5 -25 q-25 0 -58.5 19.5 q-33.5 19.5 -48.5 19.5 q-14 0 -30 -10.5 q-16 -10.5 -26 -28.5 ZM82 -231 l-52 25 l120 206 l-15 0 l-64 483 l1 7 l62 7 l52 -428 l8 0 l242 421 l72 0 l-1 -7 l-425 -714 Z" /><glyph glyph-name="endash" unicode="&#x2013;" d="M98 258 l12 54 l390 0 l-12 -54 l-390 0 Z" /><glyph glyph-name="emdash" unicode="&#x2014;" d="M81 258 l12 55 l840 0 l-11 -55 l-841 0 Z" /><glyph glyph-name="quoteleft" unicode="&#x2018;" d="M117 505 q-39 0 -39 42 q0 31 27 79.5 q27 48.5 57 81.5 l35 -10 q-45 -56 -48 -94 q29 -5 29 -35 q0 -28 -17.5 -46 q-17.5 -18 -43.5 -18 Z" /><glyph glyph-name="quoteright" unicode="&#x2019;" d="M123 504 l-34 10 q45 59 46 94 q-12 2 -20 12 q-8 10 -8 23 q0 28 17.5 46 q17.5 18 43.5 18 q40 0 40 -42 q0 -32 -27 -79.5 q-27 -47.5 -58 -81.5 Z" /><glyph glyph-name="quotesinglbase" unicode="&#x201a;" d="M74 -117 l-34 10 q45 61 47 94 q-29 5 -29 36 q0 26 18 45.5 q18 19.5 44 19.5 q39 0 39 -39 q0 -35 -27.5 -84 q-27.5 -49 -57.5 -82 Z" /><glyph glyph-name="quotedblleft" unicode="&#x201c;" d="M117 505 q-39 0 -39 38 q0 34 26.5 83 q26.5 49 57.5 82 l35 -10 q-45 -56 -48 -94 q29 -5 29 -35 q0 -28 -17.5 -46 q-17.5 -18 -43.5 -18 ZM270 505 q-39 0 -39 38 q0 35 26.5 82 q26.5 47 57.5 83 l34 -10 q-46 -60 -47 -94 q28 -5 28 -35 q0 -27 -17.5 -45.5 q-17.5 -18.5 -42.5 -18.5 Z" /><glyph glyph-name="quotedblright" unicode="&#x201d;" d="M123 504 l-34 10 q45 59 46 94 q-12 2 -20 12 q-8 10 -8 23 q0 28 17.5 46 q17.5 18 43.5 18 q40 0 40 -39 q0 -34 -27 -81.5 q-27 -47.5 -58 -82.5 ZM276 504 l-34 10 q45 59 46 94 q-28 5 -28 35 q0 28 17.5 46 q17.5 18 43.5 18 q39 0 39 -39 q0 -33 -26.5 -81 q-26.5 -48 -57.5 -83 Z" /><glyph glyph-name="quotedblbase" unicode="&#x201e;" d="M74 -114 l-34 10 q45 59 46 94 q-12 2 -20 12 q-8 10 -8 23 q0 28 17.5 46 q17.5 18 43.5 18 q40 0 40 -39 q0 -34 -27 -81.5 q-27 -47.5 -58 -82.5 ZM227 -114 l-34 10 q45 59 46 94 q-28 5 -28 35 q0 28 17.5 46 q17.5 18 43.5 18 q39 0 39 -39 q0 -33 -26.5 -81 q-26.5 -48 -57.5 -83 Z" /><glyph glyph-name="dagger" unicode="&#x2020;" d="M220 -148 l121 570 l-171 1 l14 67 l163 -5 l41 213 l74 0 l-49 -213 l173 5 l-14 -67 l-165 0 l-121 -571 l-66 0 Z" /><glyph glyph-name="daggerdbl" unicode="&#x2021;" d="M217 -148 l50 213 l-174 -4 l15 68 l165 0 l62 294 l-165 0 l14 67 l165 -3 l41 211 l71 0 l-49 -211 l174 3 l-14 -67 l-167 0 l-62 -294 l166 0 l-14 -68 l-165 4 l-41 -213 l-72 0 Z" /><glyph glyph-name="bullet" unicode="&#x2022;" d="M89 241 q0 54 33.5 89.5 q33.5 35.5 81.5 35.5 q33 0 53 -21.5 q20 -21.5 20 -57.5 q0 -54 -33.5 -89.5 q-33.5 -35.5 -82.5 -35.5 q-34 0 -53 21 q-19 21 -19 58 Z" /><glyph glyph-name="ellipsis" unicode="&#x2026;" d="M137 -10 q-19 0 -30.5 11.5 q-11.5 11.5 -11.5 30.5 q0 29 18.5 47.5 q18.5 18.5 46.5 18.5 q43 0 43 -43 q0 -28 -18.5 -46.5 q-18.5 -18.5 -47.5 -18.5 ZM374 -10 q-21 0 -32.5 11.5 q-11.5 11.5 -11.5 31.5 q0 28 19 46.5 q19 18.5 47 18.5 q20 0 32 -11.5 q12 -11.5 12 -31.5 q0 -28 -19.5 -46.5 q-19.5 -18.5 -46.5 -18.5 ZM620 -10 q-20 0 -31 11.5 q-11 11.5 -11 30.5 q0 29 19 47.5 q19 18.5 46 18.5 q43 0 43 -43 q0 -28 -18.5 -46.5 q-18.5 -18.5 -47.5 -18.5 Z" /><glyph glyph-name="perthousand" unicode="&#x2030;" d="M181 -33 l-47 36 l399 535 l46 -39 l-398 -532 ZM150 238 q-53 0 -82.5 29 q-29.5 29 -29.5 78 q0 76 51 130 q51 54 126 54 q53 0 83 -29 q30 -29 30 -78 q0 -75 -51.5 -129.5 q-51.5 -54.5 -126.5 -54.5 ZM164 289 q45 0 74.5 37 q29.5 37 29.5 84 q0 32 -17 50 q-17 18 -48 18 q-46 0 -76 -37 q-30 -37 -30 -84 q0 -32 17.5 -50 q17.5 -18 49.5 -18 ZM515 -10 q-53 0 -82.5 29 q-29.5 29 -29.5 78 q0 77 51 131 q51 54 126 54 q53 0 82.5 -29 q29.5 -29 29.5 -78 q0 -76 -51 -130.5 q-51 -54.5 -126 -54.5 ZM842 -10 q-53 0 -82.5 29 q-29.5 29 -29.5 78 q0 77 51 131 q51 54 126 54 q53 0 83 -29 q30 -29 30 -78 q0 -76 -51.5 -130.5 q-51.5 -54.5 -126.5 -54.5 ZM529 41 q44 0 73.5 37.5 q29.5 37.5 29.5 84.5 q0 31 -17 49.5 q-17 18.5 -47 18.5 q-46 0 -75.5 -37.5 q-29.5 -37.5 -29.5 -85.5 q0 -30 17.5 -48.5 q17.5 -18.5 48.5 -18.5 ZM856 41 q44 0 73.5 37.5 q29.5 37.5 29.5 84.5 q0 31 -17 49.5 q-17 18.5 -47 18.5 q-45 0 -75 -38 q-30 -38 -30 -85 q0 -30 17.5 -48.5 q17.5 -18.5 48.5 -18.5 Z" /><glyph glyph-name="guilsinglleft" unicode="&#x2039;" d="M202 67 l-60 185 l1 13 l131 184 l67 0 l-131 -187 l0 -10 l58 -185 l-66 0 Z" /><glyph glyph-name="guilsinglright" unicode="&#x203a;" d="M16 67 l145 187 l5 11 l-62 184 l68 0 l62 -181 l-5 -16 l-145 -185 l-68 0 Z" /><glyph glyph-name="fraction" unicode="&#x2044;" d="M-228 0 l645 724 l43 -34 l-648 -725 l-40 35 Z" /><glyph glyph-name="Euro" unicode="&#x20ac;" d="M451 532 q71 0 166 -31 l-22 -60 q-83 30 -157 30 q-76 0 -124.5 -30 q-48.5 -30 -78.5 -98 l252 0 l-27 -55 l-379 0 l26 55 l62 0 q39 97 108 143 q69 46 174 46 ZM346 52 q14 0 27 1.5 q13 1.5 29.5 6 q16.5 4.5 25.5 7 q9 2.5 29.5 11 q20.5 8.5 26 11 q5.5 2.5 31.5 14.5 q26 12 30 14 l24 -53 q-74 -37 -124.5 -55.5 q-50.5 -18.5 -100.5 -18.5 q-94 0 -147 50.5 q-53 50.5 -51 138.5 l-85 0 l26 56 l360 0 l-26 -56 l-209 0 q4 -59 39.5 -93 q35.5 -34 94.5 -34 Z" /><glyph glyph-name="trademark" unicode="&#x2122;" d="M261 393 l81 298 l63 0 l22 -149 l10 -89 l2 0 l46 89 l82 149 l68 0 l-47 -298 l-46 0 l36 227 l-2 0 l-125 -225 l-50 0 l-31 225 l-2 0 l-60 -227 l-47 0 ZM98 393 l54 252 l-88 0 l10 45 l227 0 l-9 -45 l-88 0 l-53 -252 l-53 0 Z" /><glyph glyph-name="minus" unicode="&#x2212;" d="M175 245 l11 54 l440 0 l-12 -54 l-439 0 Z" /><glyph glyph-name="approxequal" unicode="&#x2248;" d="M320 424 q39 0 70 -18 q31 -18 60 -36 q29 -18 64 -18 q51 0 102 45 l22 -43 q-64 -60 -138 -60 q-40 0 -71 17.5 q-31 17.5 -60 35 q-29 17.5 -64 17.5 q-51 0 -102 -45 l-23 44 q67 61 140 61 ZM280 237 q49 0 101 -35.5 q52 -35.5 94 -35.5 q49 0 102 45 l22 -44 q-65 -59 -139 -59 q-48 0 -100.5 35.5 q-52.5 35.5 -94.5 35.5 q-50 0 -102 -46 l-22 45 q65 59 139 59 Z" /><glyph glyph-name="notequal" unicode="&#x2260;" d="M566 339 l-173 0 l-96 -140 l239 0 l-11 -55 l-265 0 l-119 -174 l-44 24 l102 150 l-137 0 l11 55 l163 0 l95 140 l-228 0 l12 56 l254 0 l115 169 l45 -25 l-98 -144 l147 0 l-12 -56 Z" /><glyph glyph-name="uniF8FF" unicode="&#xf8ff;" d="M836 539.5 q-18 -17.5 -44 -17.5 q-26 0 -43.5 18 q-17.5 18 -17.5 43 q0 26 17.5 44 q17.5 18 43.5 18 q26 0 44 -18 q18 -18 18 -44 q0 -26 -18 -43.5 ZM140 270 q0 78 2 156.5 q2 78.5 4 117.5 l3 40 l100 0 q9 -139 10 -314 l-119 0 ZM646 264 q-84 0 -84 66 q0 15 2 50 q2 35 2 37 l-22 0 l0 79 l119 30 l1 -17 l178 0 q10 -64 10 -239 l-118 0 q0 92 3 147 l-61 0 l3 -65 q4 -4 15 -4 q6 0 10.5 1 q4.5 1 5.5 3 l2 1 l0 -74 q-10 -15 -66 -15 ZM368 265 q-92 0 -92 113 q0 136 137 136 q119 0 121 -117 l0 -127 l-83 0 l-8 61 q-6 -33 -23.5 -49.5 q-17.5 -16.5 -51.5 -16.5 ZM874 270 q0 78 2.5 137.5 q2.5 59.5 5.5 80.5 l2 21 l80 0 q6 -45 6 -76 q0 9 4.5 25 q4.5 16 24.5 36 q20 20 52 20 q41 0 57.5 -24.5 q16.5 -24.5 18.5 -81.5 l3 -138 l-114 0 q0 26 1 56 q1 30 1 40 q0 26 -15 26 q-18 0 -18 -26 q0 -10 1.5 -40 q1.5 -30 1.5 -56 l-114 0 ZM1267 265 q-60 0 -90.5 33 q-30.5 33 -30.5 86 q0 130 122 130 q70 0 96.5 -34.5 q26.5 -34.5 26.5 -95.5 q0 -55 -31 -87 q-31 -32 -93 -32 ZM384 375 q0 -30 23 -30 q23 0 23 30 q0 26 -23 26 q-23 0 -23 -26 ZM1268 345 q23 0 23 30 q0 26 -23 26 q-21 0 -21 -26 q0 -30 21 -30 ZM433 -50 q-32 0 -54.5 4 q-22.5 4 -29.5 8 l-7 5 l0 83 q20 -16 69 -16 q24 0 37.5 7 q13.5 7 15.5 14 l2 7 q-13 -11 -49 -11 q-90 0 -90 83 l0 13 l-55 0 l3 -65 q4 -4 15 -4 q6 0 10.5 1 q4.5 1 5.5 3 l2 1 l0 -73 q-10 -15 -67 -15 q-82 0 -82 64 q0 46 3 88 l-18 0 l0 80 l117 29 l-1 -17 l177 -1 l0 -119 q0 -27 14 -27 q17 0 17 27 l0 119 l104 0 q10 -60 10 -147 q0 -73 -35 -107 q-35 -34 -114 -34 ZM598 -44 q0 76 2.5 146.5 q2.5 70.5 5.5 103.5 l2 32 l78 0 q7 -52 7 -76 q2 11 6.5 25.5 q4.5 14.5 24 35 q19.5 20.5 49.5 20.5 q37 0 58.5 -29 q21.5 -29 21.5 -83 q0 -136 -137 -136 q1 -13 1 -39 l-119 0 ZM1010 -5 q-69 0 -105 31 q-36 31 -36 86 q0 64 32.5 97.5 q32.5 33.5 93.5 33.5 q54 0 84.5 -30 q30.5 -30 30.5 -84 l-3 -37 l-124 0 q9 -18 49 -18 q16 0 30 3 q14 3 20 6 l6 3 l0 -75 q-20 -16 -78 -16 ZM978 109 l40 0 q3 27 -17 27 q-23 0 -23 -27 ZM710 72 q4 0 10 1.5 q6 1.5 16.5 11 q10.5 9.5 10.5 25.5 q0 22 -20 22 q-22 0 -22 -32 l5 -28 ZM1138 -10 q-10 0 -16.5 6.5 q-6.5 6.5 -6.5 16.5 q0 10 6.5 16 q6.5 6 16.5 6 q9 0 15.5 -6 q6.5 -6 6.5 -16 q0 -10 -6.5 -16.5 q-6.5 -6.5 -15.5 -6.5 ZM1138 -5 q7 0 12 5.5 q5 5.5 5 12.5 q0 7 -5 12.5 q-5 5.5 -12 5.5 q-8 0 -13 -5.5 q-5 -5.5 -5 -12.5 q0 -7 5 -12.5 q5 -5.5 13 -5.5 ZM1128 2 l0 23 l11 0 q10 0 10 -7 q0 -7 -7 -7 l6 -9 l-6 0 l-4 9 l-5 0 l0 -9 l-5 0 ZM1133 15 l6 0 q5 0 5 4 q0 2 -6 2 l-5 0 l0 -6 Z" /><glyph glyph-name="fi" unicode="&#xfb01;" d="M518 490 l-103 -490 l-75 0 l93 433 l-222 0 l-87 -410 q-23 -123 -72.5 -174.5 q-49.5 -51.5 -139.5 -57.5 l-2 62 q69 15 99 52 q30 37 50 141 l81 387 l-85 0 l8 50 l88 7 l12 55 q21 93 64 139 q43 46 116 46 q36 0 84 -8 l-13 -62 q-3 0 -21 2.5 q-18 2.5 -34.5 4 q-16.5 1.5 -20.5 1.5 q-76 0 -103 -122 l-12 -56 l295 0 ZM525 695 q17 0 27.5 -10.5 q10.5 -10.5 10.5 -27.5 q0 -24 -16.5 -40.5 q-16.5 -16.5 -41.5 -16.5 q-17 0 -27.5 10.5 q-10.5 10.5 -10.5 27.5 q0 24 17 40.5 q17 16.5 41 16.5 Z" /><glyph glyph-name="fl" unicode="&#xfb02;" d="M594 721 l1 -8 l-151 -713 l-74 0 l92 433 l-251 0 l-87 -410 q-23 -123 -72.5 -174.5 q-49.5 -51.5 -139.5 -57.5 l-2 62 q69 15 99 52 q30 37 50 141 l81 387 l-85 0 l8 50 l88 7 l12 55 q21 93 64 139 q43 46 116 46 q36 0 84 -8 l-13 -62 q-3 0 -21 2.5 q-18 2.5 -34.5 4 q-16.5 1.5 -20.5 1.5 q-76 0 -103 -122 l-12 -56 l251 0 l48 224 l72 7 Z" /></font>
</defs>
</svg>
