<svg id="Layer_1" xmlns="http://www.w3.org/2000/svg" width="485.4" height="120"><style>.st0{fill:#5468ff}</style><path class="st0" d="M15.8 0h88.4c8.7 0 15.8 7 15.8 15.8v88.4c0 8.7-7 15.8-15.8 15.8H15.8C7.1 120 0 113 0 104.2V15.8C0 7.1 7 0 15.8 0"/><path d="M72.5 26.8v-4.1c0-2.9-2.3-5.2-5.2-5.2H55a5.2 5.2 0 0 0-5.2 5.2v4.2c0 .5.5.8 1 .7a37 37 0 0 1 20.7-.1c.5 0 1-.2 1-.7m-33.4 5.4l-2-2.1c-2-2-5.3-2.1-7.4 0l-2.5 2.5c-2 2-2 5.3 0 7.3l2 2c.4.4.8.3 1.1 0a35.5 35.5 0 0 1 8.7-8.7c.4-.2.4-.7.1-1m22.2 13V63c0 .5.5 1 1 .7l15.8-8.2c.4-.2.5-.7.3-1-3.4-6-9.6-9.7-16.4-10-.4 0-.7.3-.7.7m0 43a24 24 0 1 1 0-48 24 24 0 1 1 0 48m0-57.9a34 34 0 1 0-3.7 68 34 34 0 0 0 3.7-68" fill="#fff"/><path class="st0" d="M239.2 95.2c-23.4 0-23.4-18.9-23.4-21.9v-71L230.1 0v70.6c0 1.7 0 12.6 9.1 12.6v12zm-57.8-11.6a56 56 0 0 0 10-.7V68.4a43.3 43.3 0 0 0-8.5-1.1 25.6 25.6 0 0 0-9.1 1.7 8.3 8.3 0 0 0-3 2.6 5 5 0 0 0-1.3 3.5c0 3.3 1.2 5.3 3.3 6.5 2.1 1.3 5 2 8.6 2zm-1.2-51.7c4.7 0 8.7.6 11.9 1.7 2.9 1 5.6 2.7 7.7 5 1.9 2 3.2 4.8 4 7.8.9 3 1.3 6.3 1.3 9.9v36.6c-2.2.5-5.6 1-10 1.7-4.4.6-9.4 1-15 1-3.7 0-7-.4-10-1.1-3.1-.7-5.7-1.8-8-3.4a17.1 17.1 0 0 1-5-6c-1.3-3-1.9-6.3-1.8-9.6 0-3.5.7-5.8 2-8.2 1.4-2.4 3.3-4.3 5.6-5.9 2.5-1.6 5.3-2.6 8.2-3.2a45.9 45.9 0 0 1 20.2.3V56a17 17 0 0 0-.6-4.6 10 10 0 0 0-2-4c-1-1-2.3-2-4-2.5-1.5-.7-3.6-1.1-6-1.1-5.3 0-10.6.9-15.7 2.5l-1.7-11.7c6.1-2 12.6-2.9 19-2.8l-.1.1zm281.5 51.3c4.4 0 7.6-.3 9.9-.7V68l-3.4-.7a28.1 28.1 0 0 0-14.1 1.3 8.6 8.6 0 0 0-3.1 2.6 5 5 0 0 0-1.2 3.5c0 3.3 1.2 5.3 3.3 6.5 2.1 1.3 5 2 8.6 2zm-1.2-51.7c4.7 0 8.7.6 11.9 1.8 2.9 1 5.6 2.6 7.7 4.8 1.9 2.1 3.2 5 4 8 .9 3 1.3 6.2 1.3 9.8v36.6c-2.2.5-5.5 1-10 1.7-4.4.7-9.4 1-15 1-3.7 0-7-.4-10-1-3.1-.8-5.7-1.9-8-3.5a17.1 17.1 0 0 1-5-6c-1.3-3-1.9-6.3-1.8-9.6 0-3.5.7-5.7 2-8.1a18.9 18.9 0 0 1 13.8-9.2 45.9 45.9 0 0 1 20.2.3v-2.3c0-1.7-.2-3.2-.6-4.7-.4-1.4-1.1-2.8-2-3.9-1-1.1-2.3-2-4-2.6-1.5-.6-3.6-1.1-6-1.1-5.3 0-10.6.9-15.7 2.5l-1.7-11.7a61.2 61.2 0 0 1 19-2.8h-.1zm-42.8-6.7c4.8 0 8.7-4 8.7-8.7a8.7 8.7 0 0 0-17.4 0c0 4.8 3.9 8.7 8.7 8.7zm7.2 70.4h-14.3V33.7l14.3-2.2v63.7zm-25.1 0c-23.4 0-23.4-18.9-23.4-21.9v-71L390.6 0v70.6c0 1.7 0 12.6 9.2 12.6v12zm-46.4-31.5a25 25 0 0 0-4-14.8 12.7 12.7 0 0 0-11-5.4 13 13 0 0 0-11 5.4 25 25 0 0 0-3.9 14.8c0 6.3 1.3 10.4 4 14 2.6 3.7 6.3 5.5 11 5.5s8.4-1.9 11-5.5c2.6-3.6 4-7.7 4-14h-.1zm14.6 0c.1 8.3-2.8 16.3-8.1 22.6a26 26 0 0 1-9.4 6.5 37.7 37.7 0 0 1-12 2.4 38 38 0 0 1-12-2.4A27 27 0 0 1 311 76a39.3 39.3 0 0 1 0-25.8 27.4 27.4 0 0 1 15.5-16.6 31.7 31.7 0 0 1 23.8.1 27.4 27.4 0 0 1 15.3 16.5c1.5 4 2.3 8.6 2.3 13.4l.1.1zm-107.3 0c0 6 1.3 12.6 4 15.4 2.6 2.7 6 4.1 10.1 4.1 4 0 7.9-1.1 11.3-3.2V44.7c-1-.2-5.3-1.1-9.4-1.2-5.2-.2-9 2-11.9 5.3a25.3 25.3 0 0 0-4.1 14.9zm39.6 28c0 9.8-2.4 17-7.4 21.4-5 4.5-12.6 6.8-23 6.8-3.7 0-11.5-.7-17.7-2.1l2.3-11.3c5.2 1 12 1.4 15.7 1.4 5.7 0 9.8-1.2 12.2-3.5 2.5-2.3 3.7-5.8 3.7-10.4v-2.3a27.7 27.7 0 0 1-13.5 3.2c-4 0-7.5-.7-10.8-2a22.3 22.3 0 0 1-13.7-14.4 53 53 0 0 1 0-28.5 26.4 26.4 0 0 1 15.7-15.8c3.7-1.4 8.1-2.4 13-2.4 8 .3 15.9 1.4 23.6 3.5v56.5l-.1-.1z"/></svg>
