<svg xmlns="http://www.w3.org/2000/svg" width="21" height="20" viewBox="-175 171 21 20"><path fill="#61C192" d="M-167 189.5c-.8 0-1.5-.4-2-1l-4-5c-.5-.6-.6-1.4-.5-2.1.1-.6.5-1.2 1-1.5.4-.3.9-.5 1.5-.5.8 0 1.5.4 2 1l1.9 2.4 7-9.4c.5-.6 1.2-1 2-1 .5 0 1.1.2 1.5.5.5.4.9 1 .9 1.6.1.7-.1 1.3-.4 1.8l-9.1 12.1-.1.1c-.2.5-.8 1-1.7 1z"/><path fill="#FFF" d="M-158 174c.2 0 .4.1.6.2.4.3.5 1 .2 1.4l-9 12c-.2.2-.5.4-.8.4-.3 0-.6-.1-.8-.4l-4-5c-.3-.4-.3-1.1.2-1.4.2-.1.4-.2.6-.2.3 0 .6.1.8.4l3.2 4 8.2-11c.2-.2.5-.4.8-.4m0-3c-1.3 0-2.5.6-3.2 1.6l-5.9 7.9-.7-.9c-.7-1-1.9-1.6-3.2-1.6-.8 0-1.6.3-2.3.7-.9.6-1.5 1.5-1.7 2.5-.2 1.1 0 2.3.7 3.2l3.9 4.9c.7 1 1.9 1.6 3.2 1.6 1.1 0 2.1-.5 2.9-1.3l.2-.2.1-.2 9-12c1.3-1.7.9-4.3-.8-5.6-.5-.3-1.3-.6-2.2-.6z"/></svg>
