<svg xmlns="http://www.w3.org/2000/svg" width="60" height="60"><path fill="#61c192" d="M1.579 45.789c-.474 0-.789-.158-1.105-.474C0 44.841-.158 44.052.158 43.42l3.789-7.737C1.421 32.051 0 27.472 0 22.894 0 10.262 10.263-.001 22.895-.001S45.79 10.262 45.79 22.894 35.527 45.789 22.895 45.789c-4.579 0-9.158-1.421-12.947-3.947l-7.737 3.789c-.158.158-.316.158-.632.158zm8.526-7.421c.316 0 .632.158.947.316 3.474 2.526 7.579 3.947 11.842 3.947 10.895 0 19.737-8.842 19.737-19.737S33.789 3.157 22.894 3.157 3.157 11.999 3.157 22.894c0 4.263 1.421 8.368 3.947 11.842.316.474.474 1.105.158 1.579l-2.211 4.263 4.421-2.053c.158-.158.474-.158.632-.158z"/><path fill="#61c192" d="M37.105 60C24.473 60 14.21 49.737 14.21 37.105S24.473 14.21 37.105 14.21c4.579 0 9.158 1.421 12.947 3.947l7.737-3.789c.632-.316 1.421-.158 1.895.316s.632 1.263.316 1.895l-3.789 7.737c2.684 3.789 3.947 8.211 3.947 12.947C60 49.737 49.737 60 37.105 60zm0-42.632c-10.895 0-19.737 8.842-19.737 19.737s8.842 19.737 19.737 19.737S56.842 48 56.842 37.105c0-4.263-1.421-8.368-3.947-11.842-.316-.474-.474-1.105-.158-1.579l2.211-4.263-4.421 2.053c-.474.316-1.105.158-1.579-.158-3.474-2.526-7.579-3.947-11.842-3.947z"/></svg>
