<svg xmlns="http://www.w3.org/2000/svg" width="20" height="20"><path fill="#61C192" d="M20 9.4c0-1.2-1-2.2-2.2-2.2-.6 0-1.1.2-1.5.6-1.5-1-3.5-1.6-5.8-1.7l1.2-3.9L15 3c0 1 .8 1.8 1.8 1.8S18.6 4 18.6 3s-.8-1.8-1.8-1.8c-.8 0-1.4.5-1.7 1.1l-3.6-.8c-.2 0-.3.1-.4.2L9.8 6.1c-2.4 0-4.5.7-6.1 1.7-.4-.4-.9-.6-1.5-.6C1 7.2 0 8.2 0 9.4c0 .8.4 1.5 1.1 1.9 0 .2-.1.5-.1.7 0 3.3 4 5.9 8.9 5.9s8.9-2.7 8.9-5.9c0-.2 0-.5-.1-.7.8-.3 1.3-1.1 1.3-1.9zM5.6 10.9c0-.7.6-1.3 1.3-1.3s1.3.6 1.3 1.3-.5 1.3-1.2 1.3-1.4-.6-1.4-1.3zm7.6 3.9c-.7.7-1.7 1-3.2 1-1.5 0-2.5-.3-3.2-1-.1-.1-.1-.3 0-.4.1-.1.3-.1.4 0 .5.5 1.4.8 2.7.8 1.3 0 2.2-.3 2.7-.8.1-.1.3-.1.4 0 .3.1.3.3.2.4zm-.2-2.6c-.7 0-1.3-.6-1.3-1.3s.6-1.3 1.3-1.3c.7 0 1.3.6 1.3 1.3s-.5 1.3-1.3 1.3z"/></svg>
