<svg xmlns="http://www.w3.org/2000/svg" width="20" height="20"><g fill="#61C192"><path d="M16.8 3.2c-2.7-2.7-5.4 0-5.4 0L8.7 5.9l-.2.2c1.7-.5 2.5.2 2.5.2l1.7-1.7s1.4-1.4 2.7 0c1.4 1.4 0 2.7 0 2.7l-3.6 3.6c-1.4 1.4-2.7 0-2.7 0-.7-.7-.7-1.3-.7-1.3L7 11.1s.3.7.8 1.2c2.7 2.7 5.4 0 5.4 0l3.6-3.6c0-.1 2.7-2.8 0-5.5z"/><path d="M8.9 13.7l-1.7 1.7s-1.4 1.4-2.7 0c-1.4-1.4 0-2.7 0-2.7l3.6-3.6c1.4-1.4 2.7 0 2.7 0 .7.7.7 1.3.7 1.3L13 8.9s-.3-.7-.8-1.2c-2.7-2.7-5.4 0-5.4 0l-3.6 3.6s-2.7 2.7 0 5.4 5.4 0 5.4 0l2.7-2.7.2-.2c-1.7.6-2.6-.1-2.6-.1z"/></g></svg>
