<svg xmlns="http://www.w3.org/2000/svg" viewBox="0 0 74 74"><style>.st1{display:inline}</style><g id="Layer_2"><linearGradient id="SVGID_9_" gradientUnits="userSpaceOnUse" x1="-115.8531" y1="89.9325" x2="-53.9929" y2="89.9325" gradientTransform="matrix(0 1 1 0 -52.8383 116.8781)"><stop offset="0" stop-color="#61c192"/><stop offset="1" stop-color="#61c192" stop-opacity="0"/></linearGradient><path d="M61.4 62.9c-.4 0-.7-.1-1-.4-.6-.6-.6-1.5 0-2 6.5-6.5 10-15.4 9.7-24.6-.3-9.3-4.4-17.8-11.4-23.9-12.4-10.8-31-10.8-43.4 0-7 6.1-11.1 14.6-11.4 23.9C3.6 45 7.1 54 13.6 60.5c.6.6.6 1.5 0 2-.6.6-1.5.6-2 0-7-7-10.9-16.8-10.5-26.7.3-10.1 4.7-19.3 12.4-26 13.4-11.7 33.7-11.7 47.2 0 7.6 6.7 12 15.9 12.4 26 .3 9.9-3.5 19.7-10.5 26.7-.4.2-.8.4-1.2.4z" fill="url(#SVGID_9_)"/><linearGradient id="SVGID_10_" gradientUnits="userSpaceOnUse" x1="49.4" y1="19.7" x2="72.3237" y2="19.7" gradientTransform="matrix(1 0 0 -1 0 76)"><stop offset="0" stop-color="#8fcfac"/><stop offset="1" stop-color="#61c192"/></linearGradient><path d="M50.9 70.1c-.3 0-.6-.1-.8-.2-.4-.3-.7-.7-.7-1.2V43.9c0-.8.6-1.4 1.4-1.4h20c.4 0 .8.2 1.1.5.3.3.4.8.3 1.2C70 55.7 62.2 65.3 51.4 70c-.2.1-.4.1-.5.1zm1.4-24.8v21c8.3-4.3 14.4-12 16.8-21H52.3z" fill="url(#SVGID_10_)"/><linearGradient id="SVGID_11_" gradientUnits="userSpaceOnUse" x1="1.7209" y1="19.7" x2="24.6445" y2="19.7" gradientTransform="matrix(1 0 0 -1 0 76)"><stop offset="0" stop-color="#8fcfac"/><stop offset="1" stop-color="#61c192"/></linearGradient><path d="M23.2 70.1c-.2 0-.4 0-.6-.1C11.9 65.3 4 55.7 1.7 44.2c-.1-.4 0-.9.3-1.2s.7-.5 1.1-.5h20c.8 0 1.4.6 1.4 1.4v24.8c0 .5-.2.9-.7 1.2 0 .1-.3.2-.6.2zM5 45.3c2.4 9.1 8.5 16.7 16.8 21v-21H5z" fill="url(#SVGID_11_)"/><linearGradient id="SVGID_12_" gradientUnits="userSpaceOnUse" x1="12.5197" y1="50.5" x2="61.5197" y2="50.5" gradientTransform="matrix(1 0 0 -1 0 76)"><stop offset="0" stop-color="#8fcfac"/><stop offset="1" stop-color="#61c192"/></linearGradient><path d="M60 38.5c-.8 0-1.4-.6-1.4-1.4 0-11.9-9.7-21.6-21.6-21.6S15.4 25.1 15.4 37c0 .8-.6 1.4-1.4 1.4-.8 0-1.4-.6-1.4-1.4 0-13.5 11-24.5 24.5-24.5s24.5 11 24.5 24.5c-.1.8-.8 1.5-1.6 1.5z" fill="url(#SVGID_12_)"/></g></svg>
