<svg xmlns="http://www.w3.org/2000/svg" width="20" height="20"><g fill="#FFF"><path d="M10 0C4.5 0 0 4.5 0 10c0 .6.4 1 1 1s1-.4 1-1c0-4.4 3.6-8 8-8s8 3.6 8 8c0 .6.4 1 1 1s1-.4 1-1c0-5.5-4.5-10-10-10z"/><path d="M15.5 10c0-3-2.5-5.5-5.5-5.5S4.5 7 4.5 10 7 15.5 10 15.5s5.5-2.5 5.5-5.5zm-4.3-2.5c.7 0 1.2.6 1.2 1.2s-.5 1.3-1.2 1.3S10 9.4 10 8.8s.6-1.3 1.2-1.3zM6.5 10c0-1.5.9-2.7 2.2-3.2-.4.5-.7 1.2-.7 2 0 1.8 1.5 3.2 3.2 3.2.8 0 1.4-.3 2-.7-.5 1.3-1.8 2.2-3.2 2.2-1.9 0-3.5-1.6-3.5-3.5z"/><path d="M15.7 15.7C14.1 17.2 12.1 18 10 18s-4.1-.8-5.7-2.3c-.4-.4-1-.4-1.4 0-.4.4-.4 1 0 1.4C4.8 19 7.3 20 10 20s5.2-1 7.1-2.9c.4-.4.4-1 0-1.4-.4-.4-1.1-.4-1.4 0z"/></g></svg>
