<?xml version="1.0" encoding="UTF-8"?>
<!-- Generated by Pixelmator Pro 3.4.3 -->
<svg width="17" height="20" viewBox="0 0 17 20" xmlns="http://www.w3.org/2000/svg">
    <path id="Path" fill="#000000" stroke="none" d="M 8.927608 0.019333 C 9.99467 0.002666 11.05391 0.011333 12.112499 0.002666 C 12.1477 1.356667 12.684816 2.575335 13.539379 3.477999 L 13.538074 3.476667 C 14.457822 4.324 15.654602 4.873333 16.973927 4.966666 L 16.992178 4.967999 L 16.992178 8.325334 C 15.745858 8.293333 14.57385 7.999332 13.517216 7.493999 L 13.570666 7.516666 C 13.059625 7.265333 12.627456 7.007333 12.216794 6.719335 L 12.25069 6.742001 C 12.242867 9.174666 12.258512 11.607333 12.234393 14.031334 C 12.167253 15.266666 11.765721 16.393333 11.121702 17.334 L 11.134739 17.313334 C 10.057899 18.890667 8.313574 19.926001 6.330023 19.987333 L 6.320897 19.987333 C 6.240721 19.991333 6.146204 19.993334 6.051035 19.993334 C 4.923351 19.993334 3.869325 19.671999 2.971089 19.114 L 2.997163 19.129333 C 1.362347 18.123333 0.234663 16.402 0.026074 14.400001 L 0.023466 14.372667 C 0.00717 13.956 -0.000652 13.539333 0.015644 13.131334 C 0.335046 9.945333 2.945015 7.480666 6.117523 7.480666 C 6.47408 7.480666 6.823467 7.511999 7.163075 7.571334 L 7.126572 7.566 C 7.142869 8.798667 7.09398 10.032001 7.09398 11.264667 C 6.818252 11.162666 6.500154 11.103334 6.168367 11.103334 C 4.950728 11.103334 3.914954 11.899334 3.531672 13.010668 L 3.525805 13.030666 C 3.43911 13.315332 3.388919 13.642667 3.388919 13.981333 C 3.388919 14.118666 3.397393 14.254667 3.413037 14.388 L 3.411733 14.372 C 3.628144 15.736 4.771472 16.765333 6.150115 16.765333 C 6.189877 16.765333 6.228988 16.764666 6.268098 16.762667 L 6.262232 16.762667 C 7.215874 16.733334 8.043712 16.208666 8.511733 15.433332 L 8.518251 15.421333 C 8.692293 15.173333 8.81158 14.873333 8.851341 14.547333 L 8.851995 14.538 C 8.933475 13.046667 8.900882 11.564001 8.908705 10.072666 C 8.916526 6.715334 8.900882 3.365999 8.925 0.017334 Z"/>
</svg>
