<svg xmlns="http://www.w3.org/2000/svg" width="40.5" height="40.5" viewBox="-379 180.5 40.5 40.5"><linearGradient id="a" gradientUnits="userSpaceOnUse" x1="-372.1253" y1="202.3" x2="-349.2533" y2="202.3" gradientTransform="matrix(1 0 0 -1 0 403)"><stop offset="0" stop-color="#fff"/><stop offset="1" stop-color="#fff" stop-opacity="0"/></linearGradient><path fill="url(#a)" d="M-358.8 214.1c-7.4 0-13.4-6-13.4-13.4s6-13.4 13.4-13.4c3.4 0 6.6 1.3 9.1 3.6.4.4.4 1 .1 1.4-.4.4-1 .4-1.4.1-2.1-2-4.9-3-7.7-3-6.3 0-11.4 5.1-11.4 11.4s5.1 11.3 11.3 11.3c2.9 0 5.7-1.1 7.8-3.1.4-.4 1-.4 1.4 0s.4 1 0 1.4c-2.5 2.4-5.7 3.7-9.2 3.7z"/></svg>
