<svg xmlns="http://www.w3.org/2000/svg" width="1641.75" height="1223.8" viewBox="0 0 1641.75 1223.8"><title>Untitled-3</title><path d="M1173.07,1179.37a4.5,4.5,0,0,0-2.71.92,28.51,28.51,0,0,0-36.92,43.23,1,1,0,0,0,1.38,0,1,1,0,0,0,0-1.38,26.56,26.56,0,0,1,34.28-40.35,4.4,4.4,0,0,0-.54,2.1,4.52,4.52,0,1,0,4.51-4.52Z" transform="translate(0 0)" fill="#3b3a3a"/><path d="M1553.05,702.25q10-30.82,17.35-62.39a16.66,16.66,0,0,0,2.12.15,16.9,16.9,0,0,0,4.72-33.13A747.82,747.82,0,0,0,1569,298.73a737.25,737.25,0,0,0-58.22-158.94,1,1,0,1,0-1.74.88,735.71,735.71,0,0,1,78.47,331.7,743,743,0,0,1-12.14,134.09,16.4,16.4,0,0,0-2.81-.25,16.89,16.89,0,0,0-4,33.3q-7.26,31.41-17.29,62.14c-.15,0-.29,0-.44,0a4.52,4.52,0,0,0,0,9,4.5,4.5,0,0,0,2.3-8.4Zm30-89.71A14.94,14.94,0,0,1,1570.83,638q3.32-14.52,6.05-29.16A14.76,14.76,0,0,1,1583.09,612.54Zm-21.15,21.15a15,15,0,0,1,10.58-25.53,15.28,15.28,0,0,1,2.45.21q-2.73,14.68-6.06,29.24A14.87,14.87,0,0,1,1561.94,633.69Z" transform="translate(0 0)" fill="#3b3a3a"/><path d="M182.48,151.88a1,1,0,0,0,.42.09,1,1,0,0,0,.88-.55A739.41,739.41,0,0,1,280.12,1.6,1,1,0,0,0,280,.22a1,1,0,0,0-1.37.13A741.51,741.51,0,0,0,182,150.57,1,1,0,0,0,182.48,151.88Z" transform="translate(0 0)" fill="#3b3a3a"/><path d="M487.1,1116.06A740.68,740.68,0,0,1,207.72,838.67a73.88,73.88,0,0,0,18-13.23,1,1,0,0,0,0-1.38,1,1,0,0,0-1.37,0A71.8,71.8,0,0,1,206.76,837q-6.72-11.79-13-23.82A45,45,0,0,0,173.42,728h-1.1a1,1,0,0,0-.95,1,1,1,0,0,0,1,1h1a43,43,0,0,1,19.45,81.43q-6-11.64-11.65-23.47a16.88,16.88,0,0,0-13.71-30.78A734.48,734.48,0,0,1,122,602.33a1,1,0,0,0-1.92.34,735.84,735.84,0,0,0,45.69,155.27,16.89,16.89,0,0,0,13.73,30.82q5.61,11.85,11.66,23.51a42.86,42.86,0,0,1-27.84,2.6c0-.1,0-.2,0-.3a4.57,4.57,0,1,0-.58,2.18A45.06,45.06,0,0,0,192,814q6.27,12,13,23.84A72.15,72.15,0,0,1,122.26,722a1,1,0,1,0-1.38-1.38A74.11,74.11,0,0,0,206,839.53a743.31,743.31,0,0,0,280.17,278.23,1,1,0,0,0,.48.12,1,1,0,0,0,.85-.49A1,1,0,0,0,487.1,1116.06Zm-313.81-358a15,15,0,0,1,7.11,28.11q-5.94-12.62-11.39-25.42c-.26-.6-.5-1.2-.75-1.8A14.7,14.7,0,0,1,173.29,758.08Zm0,29.91a14.94,14.94,0,0,1-6.82-28.25c.25.6.49,1.2.74,1.79q5.46,12.83,11.41,25.46A14.76,14.76,0,0,1,173.29,788Z" transform="translate(0 0)" fill="#3b3a3a"/><path d="M685.42,1073.09a1,1,0,0,0-1-1,9,9,0,1,1,9-9,1,1,0,0,0,1.95,0,11,11,0,1,0-11,11A1,1,0,0,0,685.42,1073.09Z" transform="translate(0 0)" fill="#3b3a3a"/><path d="M684.45,1017.18a46,46,0,0,1,29.2,10.48,1,1,0,0,0,1.38-.13,1,1,0,0,0-.13-1.37,47.86,47.86,0,0,0-78.1,32.49,4.53,4.53,0,1,0,2,.1A46,46,0,0,1,684.45,1017.18Z" transform="translate(0 0)" fill="#3b3a3a"/><path d="M731.34,1062.12a1,1,0,0,0-1,1A46,46,0,0,1,684.45,1109a1,1,0,1,0,0,2,47.91,47.91,0,0,0,47.86-47.86A1,1,0,0,0,731.34,1062.12Z" transform="translate(0 0)" fill="#3b3a3a"/><path d="M1374.72,77.46a10.88,10.88,0,0,0,8.4.13,1,1,0,0,0,.55-1.26,1,1,0,0,0-1.27-.55,9,9,0,0,1-11.71-5.07A9,9,0,0,1,1375.76,59a1,1,0,0,0-.71-1.81,11,11,0,0,0-.33,20.28Z" transform="translate(0 0)" fill="#3b3a3a"/><path d="M1398.55,23.68a4.51,4.51,0,1,0-4.44,3.81,4.56,4.56,0,0,0,1.65-.32,4.47,4.47,0,0,0,2.08-1.68A45.91,45.91,0,0,1,1365,111.08a1,1,0,0,0-1.22.62,1,1,0,0,0,.62,1.23,47.85,47.85,0,0,0,34.19-89.25Z" transform="translate(0 0)" fill="#3b3a3a"/><path d="M1361.48,22.88a47.65,47.65,0,0,0-30.27,44.33,1,1,0,0,0,1,1h0a1,1,0,0,0,1-1,45.71,45.71,0,0,1,29-42.53,1,1,0,0,0-.71-1.81Z" transform="translate(0 0)" fill="#3b3a3a"/><path d="M1641.75,876.14a23.12,23.12,0,1,0-46.24,0,1,1,0,1,0,2,0,21.18,21.18,0,1,1,25,20.81,4,4,0,0,0-1-1.56,4.14,4.14,0,1,0,1.14,3.51A23.15,23.15,0,0,0,1641.75,876.14Z" transform="translate(0 0)" fill="#3b3a3a"/><path d="M1618.63,927.26a51.12,51.12,0,0,1,0-102.23,1,1,0,1,0,0-1.95,53.07,53.07,0,0,0,0,106.13,1,1,0,1,0,0-2Z" transform="translate(0 0)" fill="#3b3a3a"/><path d="M1145.84,1195.59a11,11,0,1,0,15.53,0A11,11,0,0,0,1145.84,1195.59Zm14.15,14.16a9,9,0,1,1,0-12.78A9.05,9.05,0,0,1,1160,1209.75Z" transform="translate(0 0)" fill="#3b3a3a"/><path d="M68.9,91.64a4.16,4.16,0,1,0-1.2,1.53,68.19,68.19,0,0,1,5.21,4.7,69,69,0,0,1,0,97.47,70.11,70.11,0,0,1-10.11,8.37,1,1,0,0,0-.26,1.35,1,1,0,0,0,.81.43,1,1,0,0,0,.54-.17,70.5,70.5,0,0,0,10.4-8.6,70.87,70.87,0,0,0,0-100.23A70.64,70.64,0,0,0,68.9,91.64Z" transform="translate(0 0)" fill="#3b3a3a"/><path d="M55.33,157a1,1,0,0,0-1.25.58A31.85,31.85,0,0,1,1.66,169.12a1,1,0,0,0-1.37,0,1,1,0,0,0,0,1.37,33.81,33.81,0,0,0,47.77,0,33.33,33.33,0,0,0,7.85-12.28A1,1,0,0,0,55.33,157Z" transform="translate(0 0)" fill="#3b3a3a"/><path d="M48.06,122.72a33.76,33.76,0,0,0-47.77,0,1,1,0,0,0,0,1.38,1,1,0,0,0,1.37,0,31.82,31.82,0,0,1,45,0,31.41,31.41,0,0,1,7.4,11.58,1,1,0,0,0,.92.64,1,1,0,0,0,.91-1.31A33.45,33.45,0,0,0,48.06,122.72Z" transform="translate(0 0)" fill="#3b3a3a"/><path d="M34.8,157.23a15,15,0,1,0-10.63,4.41A15,15,0,0,0,34.8,157.23ZM14.92,137.36a13.08,13.08,0,1,1,0,18.5A13,13,0,0,1,14.92,137.36Z" transform="translate(0 0)" fill="#3b3a3a"/></svg>