<svg xmlns="http://www.w3.org/2000/svg" width="1563.7" height="1099.44" viewBox="0 0 1563.7 1099.44"><title>ten-year-footer-background</title><path d="M943.25,1008.15a4.44,4.44,0,0,0-2.71.93,28.51,28.51,0,0,0-36.92,43.22,1,1,0,1,0,1.38-1.38,26.56,26.56,0,0,1,34.28-40.35,4.4,4.4,0,0,0-.54,2.1,4.52,4.52,0,1,0,4.51-4.52Z" transform="translate(0 -66.09)" fill="#3b3a3a"/><path d="M1475,749.9q10-30.82,17.35-62.39a16.89,16.89,0,0,0,6.84-33,747.36,747.36,0,0,0-8.28-308.15,736.72,736.72,0,0,0-58.22-158.94,1,1,0,1,0-1.74.88A735,735,0,0,1,1489,346.84a745.65,745.65,0,0,1,8.27,307.27,16.52,16.52,0,0,0-2.82-.25,16.88,16.88,0,0,0-4,33.29q-7.26,31.43-17.28,62.15a3.27,3.27,0,0,0-.44,0,4.72,4.72,0,1,0,2.29.64Zm30-89.71a14.94,14.94,0,0,1-12.26,25.42q3.32-14.52,6-29.16A14.85,14.85,0,0,1,1505,660.19Zm-21.15,21.15a15,15,0,0,1,0-21.15,14.82,14.82,0,0,1,10.57-4.38,15.51,15.51,0,0,1,2.46.21q-2.73,14.68-6.06,29.24A14.82,14.82,0,0,1,1483.89,681.34Z" transform="translate(0 -66.09)" fill="#3b3a3a"/><path d="M153.17,658.36a1,1,0,0,0,.37-.22,1,1,0,0,0,.27-1A739.39,739.39,0,0,1,121.87,481.9a1,1,0,0,0-2,.12,741.16,741.16,0,0,0,32,175.7A1,1,0,0,0,153.17,658.36Z" transform="translate(0 -66.09)" fill="#3b3a3a"/><path d="M409,1163.71A740.62,740.62,0,0,1,129.67,886.32a73.88,73.88,0,0,0,18-13.23,1,1,0,0,0-1.38-1.38,71.8,71.8,0,0,1-17.56,12.91q-6.72-11.79-13-23.82a45,45,0,0,0-20.35-85.11H94.27a1,1,0,0,0-1,1,1,1,0,0,0,1,.95h1a43,43,0,0,1,19.46,81.43q-6-11.64-11.65-23.47a16.89,16.89,0,0,0-13.72-30.78A734.48,734.48,0,0,1,43.89,650a1,1,0,0,0-1.13-.79,1,1,0,0,0-.79,1.13A736.61,736.61,0,0,0,87.66,805.59a16.89,16.89,0,0,0,13.73,30.82q5.63,11.85,11.67,23.5a43,43,0,0,1-27.84,2.61c0-.1,0-.2,0-.3a4.61,4.61,0,1,0-.59,2.17A44.94,44.94,0,0,0,114,861.65q6.28,12,13,23.84A72.15,72.15,0,0,1,44.21,769.66a1,1,0,0,0-1.38-1.38,74.11,74.11,0,0,0,85.09,118.9,743.31,743.31,0,0,0,280.17,278.23,1,1,0,0,0,.48.12,1,1,0,0,0,.47-1.82Zm-313.81-358a15,15,0,0,1,7.11,28.11Q96.42,821.22,91,808.41c-.25-.59-.49-1.19-.75-1.79A14.79,14.79,0,0,1,95.23,805.73Zm0,29.91a14.95,14.95,0,0,1-6.82-28.25c.25.6.49,1.19.75,1.79q5.45,12.83,11.41,25.46A14.82,14.82,0,0,1,95.23,835.64Z" transform="translate(0 -66.09)" fill="#3b3a3a"/><path d="M607.37,1120.74a1,1,0,0,0-1-1,9,9,0,1,1,9-9,1,1,0,0,0,2,0,11,11,0,1,0-11,11A1,1,0,0,0,607.37,1120.74Z" transform="translate(0 -66.09)" fill="#3b3a3a"/><path d="M606.39,1064.82a46,46,0,0,1,29.21,10.49,1,1,0,0,0,1.24-1.51,47.87,47.87,0,0,0-78.1,32.5,4.54,4.54,0,1,0,2,.1A46,46,0,0,1,606.39,1064.82Z" transform="translate(0 -66.09)" fill="#3b3a3a"/><path d="M653.28,1109.76a1,1,0,0,0-1,1,46,46,0,0,1-45.92,45.91,1,1,0,0,0,0,1.95,47.92,47.92,0,0,0,47.87-47.86A1,1,0,0,0,653.28,1109.76Z" transform="translate(0 -66.09)" fill="#3b3a3a"/><path d="M1296.67,125.11a10.88,10.88,0,0,0,8.4.13,1,1,0,0,0-.72-1.81,9,9,0,0,1-11.72-5.07,9,9,0,0,1,5.08-11.72,1,1,0,0,0,.54-1.27,1,1,0,0,0-1.26-.54,11,11,0,0,0-.32,20.28Z" transform="translate(0 -66.09)" fill="#3b3a3a"/><path d="M1320.49,71.32a4.51,4.51,0,1,0-8.65,1,4.53,4.53,0,0,0,4.21,2.85,4.64,4.64,0,0,0,1.66-.31,4.52,4.52,0,0,0,2.08-1.68,45.91,45.91,0,0,1-32.88,85.58,1,1,0,0,0-1.23.63,1,1,0,0,0,.63,1.23,47.86,47.86,0,0,0,34.18-89.26Z" transform="translate(0 -66.09)" fill="#3b3a3a"/><path d="M1283.42,70.53a47.65,47.65,0,0,0-30.27,44.33,1,1,0,0,0,1,1h0a1,1,0,0,0,1-1,45.72,45.72,0,0,1,29-42.53,1,1,0,1,0-.72-1.81Z" transform="translate(0 -66.09)" fill="#3b3a3a"/><path d="M1563.7,923.79a23.12,23.12,0,0,0-46.24,0,1,1,0,1,0,2,0,21.17,21.17,0,1,1,25,20.8,4.15,4.15,0,0,0-1-1.55,4.1,4.1,0,1,0-2.9,7,4.11,4.11,0,0,0,2.9-1.2,4.07,4.07,0,0,0,1.14-2.29A23.15,23.15,0,0,0,1563.7,923.79Z" transform="translate(0 -66.09)" fill="#3b3a3a"/><path d="M1540.58,974.91a51.12,51.12,0,1,1,0-102.23,1,1,0,0,0,0-1.95,53.07,53.07,0,1,0,0,106.13,1,1,0,0,0,0-2Z" transform="translate(0 -66.09)" fill="#3b3a3a"/><path d="M916,1024.37a11,11,0,1,0,15.53,0A11,11,0,0,0,916,1024.37Zm14.15,14.16a9,9,0,1,1,0-12.78A9.05,9.05,0,0,1,930.17,1038.53Z" transform="translate(0 -66.09)" fill="#3b3a3a"/><path d="M68.9,270.05a4.15,4.15,0,1,0-1.2,1.54c1.81,1.48,3.56,3,5.21,4.69a69,69,0,0,1,0,97.48,70,70,0,0,1-10.11,8.36,1,1,0,0,0-.26,1.36,1,1,0,0,0,.81.42,1,1,0,0,0,.54-.16,71.77,71.77,0,0,0,10.4-8.6,70.87,70.87,0,0,0,0-100.23C72.58,273.2,70.77,271.58,68.9,270.05Z" transform="translate(0 -66.09)" fill="#3b3a3a"/><path d="M55.33,335.38a1,1,0,0,0-1.25.58A31.86,31.86,0,0,1,1.66,347.53a1,1,0,0,0-1.37,0,1,1,0,0,0,0,1.38,33.81,33.81,0,0,0,47.77,0,33.49,33.49,0,0,0,7.85-12.28A1,1,0,0,0,55.33,335.38Z" transform="translate(0 -66.09)" fill="#3b3a3a"/><path d="M48.06,301.13a33.79,33.79,0,0,0-47.77,0,1,1,0,0,0,0,1.38,1,1,0,0,0,1.37,0,31.84,31.84,0,0,1,45,0,31.53,31.53,0,0,1,7.4,11.59,1,1,0,0,0,.92.64,1,1,0,0,0,.33-.06,1,1,0,0,0,.58-1.25A33.49,33.49,0,0,0,48.06,301.13Z" transform="translate(0 -66.09)" fill="#3b3a3a"/><path d="M34.8,335.65a15,15,0,1,0-10.63,4.4A15.05,15.05,0,0,0,34.8,335.65ZM14.93,315.77a13.08,13.08,0,1,1,0,18.5A13,13,0,0,1,14.93,315.77Z" transform="translate(0 -66.09)" fill="#3b3a3a"/><circle cx="1137.9" cy="857.13" r="3.13" fill="#3b3a3a" stroke="#3b3a3a" stroke-linecap="round" stroke-linejoin="round" stroke-width="1.95"/><circle cx="1248.98" cy="790.05" r="3.13" fill="#3b3a3a" stroke="#3b3a3a" stroke-linecap="round" stroke-linejoin="round" stroke-width="1.95"/><polyline points="1208.82 748.46 1179.7 759.92 1167.23 788.62 1178.69 817.73 1207.39 830.21 1236.5 818.74 1248.98 790.05" fill="none" stroke="#3b3a3a" stroke-linecap="round" stroke-linejoin="round" stroke-width="1.95"/><polyline points="1206.4 886.91 1275.9 859.54 1305.68 791.04 1278.31 721.54 1209.81 691.75 1140.31 719.13 1110.52 787.63 1137.9 857.13" fill="none" stroke="#3b3a3a" stroke-linecap="round" stroke-linejoin="round" stroke-width="1.95"/><polyline points="1234.33 855.91 1273.73 817.87 1274.68 763.11 1236.64 723.71 1181.88 722.75" fill="none" stroke="#3b3a3a" stroke-linecap="round" stroke-linejoin="round" stroke-width="1.95"/><circle cx="387.93" cy="353.37" r="3.54" fill="#3b3a3a" stroke="#3b3a3a" stroke-linecap="round" stroke-linejoin="round" stroke-width="1.95"/><circle cx="345.2" cy="273.19" r="3.54" fill="#3b3a3a" stroke="#3b3a3a" stroke-linecap="round" stroke-linejoin="round" stroke-width="1.95"/><circle cx="333.2" cy="273.19" r="3.54" fill="#3b3a3a" stroke="#3b3a3a" stroke-linecap="round" stroke-linejoin="round" stroke-width="1.95"/><line x1="345.2" y1="273.19" x2="345.2" y2="250.58" fill="none" stroke="#3b3a3a" stroke-linecap="round" stroke-linejoin="round" stroke-width="1.95"/><line x1="333.2" y1="273.19" x2="333.2" y2="234.5" fill="none" stroke="#3b3a3a" stroke-linecap="round" stroke-linejoin="round" stroke-width="1.95"/><polyline points="321.2 218.43 321.2 286.65 387.93 353.37" fill="none" stroke="#3b3a3a" stroke-linecap="round" stroke-linejoin="round" stroke-width="1.95"/><line x1="321.04" y1="248.21" x2="253.82" y2="180.98" fill="none" stroke="#3b3a3a" stroke-linecap="round" stroke-linejoin="round" stroke-width="1.95"/><circle cx="304.85" cy="212.88" r="3.54" fill="#3b3a3a" stroke="#3b3a3a" stroke-linecap="round" stroke-linejoin="round" stroke-width="1.95"/><polyline points="304.85 212.88 267.84 175.86 267.84 155.71" fill="none" stroke="#3b3a3a" stroke-linecap="round" stroke-linejoin="round" stroke-width="1.95"/><circle cx="1040.84" cy="376.4" r="3.54" fill="#3b3a3a" stroke="#3b3a3a" stroke-linecap="round" stroke-linejoin="round" stroke-width="1.95"/><circle cx="1121.02" cy="321.68" r="3.54" fill="#3b3a3a" stroke="#3b3a3a" stroke-linecap="round" stroke-linejoin="round" stroke-width="1.95"/><line x1="1121.02" y1="321.68" x2="1159.7" y2="321.68" fill="none" stroke="#3b3a3a" stroke-linecap="round" stroke-linejoin="round" stroke-width="1.95"/><polyline points="1175.78 309.68 1107.56 309.68 1040.84 376.4" fill="none" stroke="#3b3a3a" stroke-linecap="round" stroke-linejoin="round" stroke-width="1.95"/><polyline points="1186.91 230.33 1131.56 285.68 1049.12 285.68" fill="none" stroke="#3b3a3a" stroke-linecap="round" stroke-linejoin="round" stroke-width="1.95"/><circle cx="1181.33" cy="293.33" r="3.54" fill="#3b3a3a" stroke="#3b3a3a" stroke-linecap="round" stroke-linejoin="round" stroke-width="1.95"/><polyline points="1181.33 293.33 1218.35 256.31 1238.5 256.31" fill="none" stroke="#3b3a3a" stroke-linecap="round" stroke-linejoin="round" stroke-width="1.95"/></svg>