<?xml version="1.0" encoding="utf-8"?>
<!-- Generator: Adobe Illustrator 18.1.1, SVG Export Plug-In . SVG Version: 6.00 Build 0)  -->
<svg version="1.1" id="Layer_1" xmlns="http://www.w3.org/2000/svg" xmlns:xlink="http://www.w3.org/1999/xlink" x="0px" y="0px"
	 width="21px" height="20px" viewBox="-175 171 21 20" enable-background="new -175 171 21 20" xml:space="preserve">
<g>
	<g>
		<path fill="#61C192" d="M-167,189.5c-0.8,0-1.5-0.4-2-1l-4-5c-0.5-0.6-0.6-1.4-0.5-2.1c0.1-0.6,0.5-1.2,1-1.5
			c0.4-0.3,0.9-0.5,1.5-0.5c0.8,0,1.5,0.4,2,1l1.9,2.4l7-9.4c0.5-0.6,1.2-1,2-1c0.5,0,1.1,0.2,1.5,0.5c0.5,0.4,0.9,1,0.9,1.6
			c0.1,0.7-0.1,1.3-0.4,1.8l-9.1,12.1l-0.1,0.1C-165.5,189-166.1,189.5-167,189.5z"/>
		<path fill="#FFFFFF" d="M-158,174c0.2,0,0.4,0.1,0.6,0.2c0.4,0.3,0.5,1,0.2,1.4l-9,12c-0.2,0.2-0.5,0.4-0.8,0.4
			c-0.3,0-0.6-0.1-0.8-0.4l-4-5c-0.3-0.4-0.3-1.1,0.2-1.4c0.2-0.1,0.4-0.2,0.6-0.2c0.3,0,0.6,0.1,0.8,0.4l3.2,4l8.2-11
			C-158.6,174.2-158.3,174-158,174 M-158,171L-158,171c-1.3,0-2.5,0.6-3.2,1.6l-5.9,7.9l-0.7-0.9c-0.7-1-1.9-1.6-3.2-1.6
			c-0.8,0-1.6,0.3-2.3,0.7c-0.9,0.6-1.5,1.5-1.7,2.5c-0.2,1.1,0,2.3,0.7,3.2l0,0l0,0l3.9,4.9c0.7,1,1.9,1.6,3.2,1.6
			c1.1,0,2.1-0.5,2.9-1.3l0.2-0.2l0.1-0.2l9-12c1.3-1.7,0.9-4.3-0.8-5.6C-156.3,171.3-157.1,171-158,171L-158,171z"/>
	</g>
</g>
</svg>
