<svg xmlns="http://www.w3.org/2000/svg" width="20" height="20"><g><path fill="#61C192" d="M10 20C4.5 20 0 15.5 0 10S4.5 0 10 0c.6 0 1 .4 1 1s-.4 1-1 1c-4.4 0-8 3.6-8 8s3.6 8 8 8 8-3.6 8-8c0-.6.4-1 1-1s1 .4 1 1c0 5.5-4.5 10-10 10z"/><animateTransform attributeName="transform" attributeType="XML" type="rotate" from="0 10 10" to="360 10 10" dur="1s" repeatCount="indefinite"/></g><g><path fill="#61C192" d="M10 15.5c-1.5 0-2.9-.6-3.9-1.6-.4-.4-.4-1 0-1.4s1-.4 1.4 0c1.3 1.3 3.6 1.3 4.9 0 .7-.7 1-1.5 1-2.5 0-.9-.4-1.8-1-2.5-1.3-1.3-3.6-1.3-4.9 0-.4.4-1 .4-1.4 0s-.4-1 0-1.4c1-1 2.4-1.6 3.9-1.6s2.9.6 3.9 1.6 1.6 2.4 1.6 3.9-.6 2.9-1.6 3.9-2.4 1.6-3.9 1.6z"/><animateTransform attributeName="transform" attributeType="XML" type="rotate" from="360 10 10" to="0 10 10" dur="1s" repeatCount="indefinite"/></g></svg>
