<?xml version="1.0" encoding="utf-8"?>
<!-- Generator: Adobe Illustrator 18.1.1, SVG Export Plug-In . SVG Version: 6.00 Build 0)  -->
<svg version="1.1" id="Layer_1" xmlns="http://www.w3.org/2000/svg" xmlns:xlink="http://www.w3.org/1999/xlink" x="0px" y="0px"
	 width="20px" height="20px" viewBox="0 0 20 20" enable-background="new 0 0 20 20" xml:space="preserve">
<g>
	<g>
		<path fill="#61C192" d="M10,14c-0.3,0-0.6-0.1-0.8-0.4l-4-5C4.9,8.2,4.9,7.6,5.4,7.2c0.4-0.3,1.1-0.3,1.4,0.2l3.2,4l8.2-11
			c0.3-0.4,1-0.5,1.4-0.2c0.4,0.3,0.5,1,0.2,1.4l-9,12C10.6,13.8,10.3,14,10,14C10,14,10,14,10,14z"/>
	</g>
	<g>
		<path fill="#61C192" d="M10,20C4.5,20,0,15.5,0,10C0,4.5,4.5,0,10,0c0.6,0,1,0.4,1,1s-0.4,1-1,1c-4.4,0-8,3.6-8,8s3.6,8,8,8
			s8-3.6,8-8c0-0.6,0.4-1,1-1s1,0.4,1,1C20,15.5,15.5,20,10,20z"/>
	</g>
</g>
</svg>
