<?xml version="1.0" encoding="utf-8"?>
<!-- Generator: Adobe Illustrator 23.0.1, SVG Export Plug-In . SVG Version: 6.00 Build 0)  -->
<svg version="1.1" id="Layer_1" xmlns="http://www.w3.org/2000/svg" xmlns:xlink="http://www.w3.org/1999/xlink" x="0px" y="0px"
	 viewBox="0 0 20 20" style="enable-background:new 0 0 20 20;" xml:space="preserve">
<style type="text/css">
	.st0{fill:#61C192;}
</style>
<g>
	<g>
		<path class="st0" d="M8.2,20c-0.2,0-0.5-0.1-0.7-0.3c-0.4-0.4-0.4-1,0-1.4l3.8-4c0.2-0.2,0.5-0.3,0.7-0.3h5.7
			c0.1,0,0.3-0.1,0.3-0.3V2.3C18,2.1,17.9,2,17.7,2H2.3C2.1,2,2,2.1,2,2.3v11.5C2,13.9,2.1,14,2.3,14H6c0.6,0,1,0.4,1,1s-0.4,1-1,1
			H1c-0.6,0-1-0.4-1-1V1c0-0.6,0.4-1,1-1h18c0.6,0,1,0.4,1,1v14c0,0.6-0.4,1-1,1h-6.6l-3.5,3.7C8.7,19.9,8.5,20,8.2,20z"/>
	</g>
</g>
<g id="Layer_3">
</g>
<g id="Layer_4">
</g>
</svg>
