<svg xmlns="http://www.w3.org/2000/svg" width="25" height="25"><path class="st0" fill="#FFF" d="M6.1 15.4c0 1.3-1 2.3-2.3 2.3s-2.3-1-2.3-2.3c0-1.3 1-2.3 2.3-2.3h2.3v2.3zM7.3 15.4c0-1.3 1-2.3 2.3-2.3s2.3 1 2.3 2.3v5.8c0 1.3-1 2.3-2.3 2.3s-2.3-1-2.3-2.3v-5.8zM9.6 6.1c-1.3 0-2.3-1-2.3-2.3s1-2.3 2.3-2.3 2.3 1 2.3 2.3v2.3H9.6zM9.6 7.3c1.3 0 2.3 1 2.3 2.3s-1 2.3-2.3 2.3H3.8c-1.3 0-2.3-1-2.3-2.3s1-2.3 2.3-2.3h5.8z"/><g><path class="st0" fill="#FFF" d="M18.9 9.6c0-1.3 1-2.3 2.3-2.3s2.3 1 2.3 2.3-1 2.3-2.3 2.3h-2.3V9.6zM17.7 9.6c0 1.3-1 2.3-2.3 2.3-1.3 0-2.3-1-2.3-2.3V3.8c0-1.3 1-2.3 2.3-2.3 1.3 0 2.3 1 2.3 2.3v5.8z"/></g><g><path class="st0" fill="#FFF" d="M15.4 18.9c1.3 0 2.3 1 2.3 2.3s-1 2.3-2.3 2.3c-1.3 0-2.3-1-2.3-2.3v-2.3h2.3zM15.4 17.7c-1.3 0-2.3-1-2.3-2.3 0-1.3 1-2.3 2.3-2.3h5.8c1.3 0 2.3 1 2.3 2.3 0 1.3-1 2.3-2.3 2.3h-5.8z"/></g></svg>
