<?xml version="1.0" encoding="utf-8"?>
<!-- Generated by IcoMoon.io -->
<!DOCTYPE svg PUBLIC "-//W3C//DTD SVG 1.1//EN" "http://www.w3.org/Graphics/SVG/1.1/DTD/svg11.dtd">
<svg version="1.1" xmlns="http://www.w3.org/2000/svg" xmlns:xlink="http://www.w3.org/1999/xlink" width="60" height="60" viewBox="0 0 60 60">
<path fill="#61c192" d="M15.789 60c-0.474 0-0.789-0.158-1.105-0.474-0.632-0.632-0.632-1.579 0-2.211l25.737-25.737h-24.632c-0.632 0-1.263-0.316-1.421-0.947-0.316-0.632-0.158-1.263 0.316-1.737l28.421-28.421c0.632-0.632 1.579-0.632 2.211 0s0.632 1.579 0 2.211l-25.737 25.737h24.632c0.632 0 1.263 0.316 1.421 0.947 0.316 0.632 0.158 1.263-0.316 1.737l-28.421 28.421c-0.316 0.316-0.632 0.474-1.105 0.474z"></path>
<path fill="#61c192" d="M30 60c-16.579 0-30-13.421-30-30s13.421-30 30-30 30 13.421 30 30-13.421 30-30 30zM30 3.158c-14.842 0-26.842 12-26.842 26.842s12 26.842 26.842 26.842 26.842-12 26.842-26.842-12-26.842-26.842-26.842z"></path>
</svg>
