<?xml version="1.0" encoding="utf-8"?>
<!-- Generator: Adobe Illustrator 18.1.1, SVG Export Plug-In . SVG Version: 6.00 Build 0)  -->
<svg version="1.1" id="Layer_1" xmlns="http://www.w3.org/2000/svg" xmlns:xlink="http://www.w3.org/1999/xlink" x="0px" y="0px"
	 width="20px" height="20px" viewBox="0 0 20 20" enable-background="new 0 0 20 20" xml:space="preserve">
<g>
	<path fill="#61C192" d="M19,0H1C0.4,0,0,0.4,0,1v18c0,0.6,0.4,1,1,1h18c0.6,0,1-0.4,1-1V1C20,0.4,19.6,0,19,0z M2,2h16v3H2V2z
		 M18,18H2V7h16V18z"/>
	<polygon fill="#61C192" points="9,16 11,16 11,9 9,9 8,9 8,11 9,11 	"/>
</g>
</svg>
