<svg xmlns="http://www.w3.org/2000/svg" viewBox="0 0 74 74"><linearGradient id="e" gradientUnits="userSpaceOnUse" x1="-227.1234" y1="401.9099" x2="-165.2863" y2="401.9099" gradientTransform="rotate(-45 -517.4842 -56.006)"><stop offset="0" stop-color="#61c192"/><stop offset="1" stop-color="#61c192" stop-opacity="0"/></linearGradient><path d="M37.1 73c-.9 0-1.7 0-2.6-.1C16.7 71.7 2.4 57.4 1.2 39.6c-.7-10.1 2.7-19.7 9.6-27.1C17.6 5.2 27.1 1.1 37.1 1.1c.8 0 1.4.6 1.4 1.4s-.6 1.4-1.4 1.4c-9.1 0-18 3.8-24.2 10.5-6.4 6.8-9.5 15.7-8.8 25C5.2 55.7 18.4 68.9 34.7 70c9.3.6 18.1-2.5 24.9-8.8 6.7-6.2 10.6-15 10.6-24.2 0-.8.6-1.4 1.4-1.4s1.4.6 1.4 1.4c0 9.9-4.2 19.5-11.4 26.3-6.7 6.3-15.3 9.7-24.5 9.7z" fill="url(#e)"/><linearGradient id="f" gradientUnits="userSpaceOnUse" x1="35.7" y1="221.3827" x2="50.1" y2="221.3827" gradientTransform="translate(0 -190.1333)"><stop offset="0" stop-color="#8fcfac"/><stop offset="1" stop-color="#61c192"/></linearGradient><path d="M48.6 38.4H37.1c-.8 0-1.4-.6-1.4-1.4V25.5c0-.8.6-1.4 1.4-1.4 7.2-.1 13 5.7 13 12.9 0 .8-.7 1.4-1.5 1.4zm-10-2.9h8.5c-.6-4.4-4.1-7.9-8.5-8.5v8.5z" fill="url(#f)"/><linearGradient id="g" gradientUnits="userSpaceOnUse" x1="35.6937" y1="215.6333" x2="61.5937" y2="215.6333" gradientTransform="translate(0 -190.1333)"><stop offset="0" stop-color="#8fcfac"/><stop offset="1" stop-color="#61c192"/></linearGradient><path d="M60.2 38.4c-.8 0-1.4-.6-1.4-1.4 0-11.9-9.7-21.6-21.6-21.6-.8 0-1.4-.6-1.4-1.4s.6-1.4 1.4-1.4c13.5 0 24.5 11 24.5 24.5-.1.7-.8 1.3-1.5 1.3z" fill="url(#g)"/><linearGradient id="h" gradientUnits="userSpaceOnUse" x1="35.7" y1="209.8333" x2="73.1" y2="209.8333" gradientTransform="translate(0 -190.1333)"><stop offset="0" stop-color="#8fcfac"/><stop offset="1" stop-color="#61c192"/></linearGradient><path d="M71.7 38.4c-.8 0-1.4-.6-1.4-1.4-.1-18.3-14.9-33.1-33.2-33.1-.8 0-1.4-.6-1.4-1.4S36.3 1 37.1 1c19.8 0 36 16.1 36 36 0 .8-.6 1.4-1.4 1.4z" fill="url(#h)"/></svg>
