<?xml version="1.0" encoding="utf-8"?>
<!-- Generator: Adobe Illustrator 22.0.1, SVG Export Plug-In . SVG Version: 6.00 Build 0)  -->
<svg version="1.1" id="Layer_1" xmlns="http://www.w3.org/2000/svg" xmlns:xlink="http://www.w3.org/1999/xlink" x="0px" y="0px"
	 width="20px" height="20px" viewBox="0 0 20 20" style="enable-background:new 0 0 20 20;" xml:space="preserve">
<path d="M10,2.6c2.4,0,2.7,0,3.6,0.1c2.4,0.1,3.6,1.3,3.7,3.7c0,0.9,0.1,1.2,0.1,3.6c0,2.4,0,2.7-0.1,3.6c-0.1,2.4-1.2,3.6-3.7,3.7
	c-0.9,0-1.2,0.1-3.6,0.1c-2.4,0-2.7,0-3.6-0.1c-2.4-0.1-3.6-1.3-3.7-3.7c0-0.9-0.1-1.2-0.1-3.6c0-2.4,0-2.7,0.1-3.6
	c0.1-2.4,1.2-3.6,3.7-3.7C7.3,2.6,7.6,2.6,10,2.6z M10,1C7.6,1,7.2,1,6.3,1.1C3,1.2,1.2,3,1.1,6.3C1,7.2,1,7.6,1,10s0,2.8,0.1,3.7
	c0.1,3.3,2,5.1,5.2,5.2c1,0,1.3,0.1,3.7,0.1s2.8,0,3.7-0.1c3.3-0.1,5.1-2,5.2-5.2c0-1,0.1-1.3,0.1-3.7s0-2.8-0.1-3.7
	c-0.1-3.3-2-5.1-5.2-5.2C12.8,1,12.4,1,10,1z M10,5.4c-2.6,0-4.6,2.1-4.6,4.6s2.1,4.6,4.6,4.6s4.6-2.1,4.6-4.6
	C14.6,7.4,12.6,5.4,10,5.4z M10,13c-1.7,0-3-1.3-3-3c0-1.7,1.3-3,3-3s3,1.3,3,3C13,11.7,11.7,13,10,13z M14.8,4.1
	c-0.6,0-1.1,0.5-1.1,1.1s0.5,1.1,1.1,1.1c0.6,0,1.1-0.5,1.1-1.1S15.4,4.1,14.8,4.1z"/>
</svg>
