<svg xmlns="http://www.w3.org/2000/svg" width="20" height="20"><path fill="#61C192" d="M10 2.6c2.4 0 2.7 0 3.6.1 2.4.1 3.6 1.3 3.7 3.7 0 .9.1 1.2.1 3.6 0 2.4 0 2.7-.1 3.6-.1 2.4-1.2 3.6-3.7 3.7-.9 0-1.2.1-3.6.1-2.4 0-2.7 0-3.6-.1-2.4-.1-3.6-1.3-3.7-3.7 0-.9-.1-1.2-.1-3.6 0-2.4 0-2.7.1-3.6.1-2.4 1.2-3.6 3.7-3.7.9-.1 1.2-.1 3.6-.1zM10 1c-2.4 0-2.8 0-3.7.1C3 1.2 1.2 3 1.1 6.3 1 7.2 1 7.6 1 10s0 2.8.1 3.7c.1 3.3 2 5.1 5.2 5.2 1 0 1.3.1 3.7.1s2.8 0 3.7-.1c3.3-.1 5.1-2 5.2-5.2 0-1 .1-1.3.1-3.7s0-2.8-.1-3.7c-.1-3.3-2-5.1-5.2-5.2C12.8 1 12.4 1 10 1zm0 4.4c-2.6 0-4.6 2.1-4.6 4.6s2.1 4.6 4.6 4.6 4.6-2.1 4.6-4.6c0-2.6-2-4.6-4.6-4.6zm0 7.6c-1.7 0-3-1.3-3-3s1.3-3 3-3 3 1.3 3 3-1.3 3-3 3zm4.8-8.9c-.6 0-1.1.5-1.1 1.1s.5 1.1 1.1 1.1c.6 0 1.1-.5 1.1-1.1s-.5-1.1-1.1-1.1z"/></svg>
