<?xml version="1.0" encoding="utf-8"?>
<!-- Generator: Adobe Illustrator 22.0.1, SVG Export Plug-In . SVG Version: 6.00 Build 0)  -->
<svg version="1.1" xmlns="http://www.w3.org/2000/svg" xmlns:xlink="http://www.w3.org/1999/xlink" x="0px" y="0px"
	 viewBox="0 0 74 74" style="enable-background:new 0 0 74 74;" xml:space="preserve">
<style type="text/css">
	.st0{display:none;}
	.st1{display:inline;}
	.st2{fill:url(#SVGID_1_);}
	.st3{fill:url(#SVGID_2_);}
	.st4{fill:url(#SVGID_3_);}
	.st5{display:inline;fill:url(#SVGID_4_);}
	.st6{fill:url(#SVGID_5_);}
	.st7{fill:url(#SVGID_6_);}
	.st8{fill:url(#SVGID_7_);}
	.st9{fill:url(#SVGID_8_);}
	.st10{fill:url(#SVGID_9_);}
	.st11{fill:url(#SVGID_10_);}
	.st12{fill:url(#SVGID_11_);}
	.st13{fill:url(#SVGID_12_);}
</style>
<g id="Layer_1" class="st0">
	<g id="podcasts">
		<g class="st1">
			
				<linearGradient id="SVGID_1_" gradientUnits="userSpaceOnUse" x1="-182.8557" y1="-80.8351" x2="-120.9955" y2="-80.8351" gradientTransform="matrix(4.489700e-11 1 -1 4.489700e-11 -43.7409 183.7807)">
				<stop  offset="0" style="stop-color:#61C192"/>
				<stop  offset="1" style="stop-color:#61C192;stop-opacity:0"/>
			</linearGradient>
			<path class="st2" d="M61.4,62.8c-0.4,0-0.7-0.1-1-0.4c-0.6-0.6-0.6-1.5,0-2c6.5-6.5,10-15.4,9.7-24.6
				c-0.3-9.3-4.4-17.8-11.4-23.9c-12.4-10.8-31-10.8-43.4,0C8.3,18,4.2,26.5,3.9,35.8c-0.3,9.1,3.2,18.1,9.7,24.6
				c0.6,0.6,0.6,1.5,0,2c-0.6,0.6-1.5,0.6-2,0c-7-7-10.9-16.8-10.5-26.7c0.3-10.1,4.7-19.3,12.4-26C26.9-2,47.2-2,60.7,9.7
				c7.6,6.7,12,15.9,12.4,26c0.3,9.9-3.5,19.7-10.5,26.7C62.2,62.6,61.8,62.8,61.4,62.8z"/>
			
				<linearGradient id="SVGID_2_" gradientUnits="userSpaceOnUse" x1="49.4308" y1="246.3333" x2="72.3545" y2="246.3333" gradientTransform="matrix(1 0 0 1 0 -190.1333)">
				<stop  offset="0" style="stop-color:#8FCFAC"/>
				<stop  offset="1" style="stop-color:#61C192"/>
			</linearGradient>
			<path class="st3" d="M50.9,70c-0.3,0-0.6-0.1-0.8-0.2c-0.4-0.3-0.7-0.7-0.7-1.2V43.8c0-0.8,0.6-1.4,1.4-1.4h20
				c0.4,0,0.8,0.2,1.1,0.5c0.3,0.3,0.4,0.8,0.3,1.2c-2.2,11.5-10,21.1-20.8,25.8C51.2,70,51,70,50.9,70z M52.3,45.2v21
				c8.3-4.3,14.4-12,16.8-21C69.1,45.2,52.3,45.2,52.3,45.2z"/>
			
				<linearGradient id="SVGID_3_" gradientUnits="userSpaceOnUse" x1="1.7517" y1="246.3333" x2="24.6753" y2="246.3333" gradientTransform="matrix(1 0 0 1 0 -190.1333)">
				<stop  offset="0" style="stop-color:#8FCFAC"/>
				<stop  offset="1" style="stop-color:#61C192"/>
			</linearGradient>
			<path class="st4" d="M23.2,70c-0.2,0-0.4,0-0.6-0.1C11.9,65.2,4,55.6,1.7,44.1c-0.1-0.4,0-0.9,0.3-1.2s0.7-0.5,1.1-0.5h20
				c0.8,0,1.4,0.6,1.4,1.4v24.8c0,0.5-0.2,0.9-0.7,1.2C23.8,69.9,23.5,70,23.2,70z M5,45.2c2.4,9.1,8.5,16.7,16.8,21v-21
				C21.8,45.2,5,45.2,5,45.2z"/>
		</g>
		
			<linearGradient id="SVGID_4_" gradientUnits="userSpaceOnUse" x1="12.5505" y1="215.5333" x2="61.5505" y2="215.5333" gradientTransform="matrix(1 0 0 1 0 -190.1333)">
			<stop  offset="0" style="stop-color:#8FCFAC"/>
			<stop  offset="1" style="stop-color:#61C192"/>
		</linearGradient>
		<path class="st5" d="M60,38.4c-0.8,0-1.4-0.6-1.4-1.4c0-11.9-9.7-21.6-21.6-21.6S15.4,25,15.4,36.9c0,0.8-0.6,1.4-1.4,1.4
			c-0.8,0-1.4-0.6-1.4-1.4c0-13.5,11-24.5,24.5-24.5s24.5,11,24.5,24.5C61.5,37.7,60.8,38.4,60,38.4z"/>
	</g>
	<g id="news" class="st1">
		<g>
			
				<linearGradient id="SVGID_5_" gradientUnits="userSpaceOnUse" x1="-227.1234" y1="401.9099" x2="-165.2863" y2="401.9099" gradientTransform="matrix(0.7071 -0.7071 0.7071 0.7071 -111.9693 -382.3172)">
				<stop  offset="0" style="stop-color:#61C192"/>
				<stop  offset="1" style="stop-color:#61C192;stop-opacity:0"/>
			</linearGradient>
			<path class="st6" d="M37.1,73c-0.9,0-1.7,0-2.6-0.1C16.7,71.7,2.4,57.4,1.2,39.6c-0.7-10.1,2.7-19.7,9.6-27.1
				C17.6,5.2,27.1,1.1,37.1,1.1c0.8,0,1.4,0.6,1.4,1.4s-0.6,1.4-1.4,1.4c-9.1,0-18,3.8-24.2,10.5c-6.4,6.8-9.5,15.7-8.8,25
				C5.2,55.7,18.4,68.9,34.7,70c9.3,0.6,18.1-2.5,24.9-8.8c6.7-6.2,10.6-15,10.6-24.2c0-0.8,0.6-1.4,1.4-1.4S73,36.2,73,37
				c0,9.9-4.2,19.5-11.4,26.3C54.9,69.6,46.3,73,37.1,73z"/>
			<g>
				
					<linearGradient id="SVGID_6_" gradientUnits="userSpaceOnUse" x1="35.7" y1="221.3827" x2="50.1" y2="221.3827" gradientTransform="matrix(1 0 0 1 0 -190.1333)">
					<stop  offset="0" style="stop-color:#8FCFAC"/>
					<stop  offset="1" style="stop-color:#61C192"/>
				</linearGradient>
				<path class="st7" d="M48.6,38.4H37.1c-0.8,0-1.4-0.6-1.4-1.4V25.5c0-0.8,0.6-1.4,1.4-1.4c7.2-0.1,13,5.7,13,12.9
					C50.1,37.8,49.4,38.4,48.6,38.4z M38.6,35.5h8.5c-0.6-4.4-4.1-7.9-8.5-8.5V35.5z"/>
				
					<linearGradient id="SVGID_7_" gradientUnits="userSpaceOnUse" x1="35.6937" y1="215.6333" x2="61.5937" y2="215.6333" gradientTransform="matrix(1 0 0 1 0 -190.1333)">
					<stop  offset="0" style="stop-color:#8FCFAC"/>
					<stop  offset="1" style="stop-color:#61C192"/>
				</linearGradient>
				<path class="st8" d="M60.2,38.4c-0.8,0-1.4-0.6-1.4-1.4c0-11.9-9.7-21.6-21.6-21.6c-0.8,0-1.4-0.6-1.4-1.4s0.6-1.4,1.4-1.4
					c13.5,0,24.5,11,24.5,24.5C61.6,37.8,60.9,38.4,60.2,38.4z"/>
				
					<linearGradient id="SVGID_8_" gradientUnits="userSpaceOnUse" x1="35.7" y1="209.8333" x2="73.1" y2="209.8333" gradientTransform="matrix(1 0 0 1 0 -190.1333)">
					<stop  offset="0" style="stop-color:#8FCFAC"/>
					<stop  offset="1" style="stop-color:#61C192"/>
				</linearGradient>
				<path class="st9" d="M71.7,38.4c-0.8,0-1.4-0.6-1.4-1.4C70.2,18.7,55.4,3.9,37.1,3.9c-0.8,0-1.4-0.6-1.4-1.4S36.3,1,37.1,1
					c19.8,0,36,16.1,36,36C73.1,37.8,72.5,38.4,71.7,38.4z"/>
			</g>
		</g>
	</g>
</g>
<g id="Layer_2">
	<g>
		
			<linearGradient id="SVGID_9_" gradientUnits="userSpaceOnUse" x1="-115.8531" y1="89.9325" x2="-53.9929" y2="89.9325" gradientTransform="matrix(4.489700e-11 1 1 -4.489700e-11 -52.8383 116.8781)">
			<stop  offset="0" style="stop-color:#61C192"/>
			<stop  offset="1" style="stop-color:#61C192;stop-opacity:0"/>
		</linearGradient>
		<path class="st10" d="M61.4,62.9c-0.4,0-0.7-0.1-1-0.4c-0.6-0.6-0.6-1.5,0-2c6.5-6.5,10-15.4,9.7-24.6
			c-0.3-9.3-4.4-17.8-11.4-23.9c-12.4-10.8-31-10.8-43.4,0c-7,6.1-11.1,14.6-11.4,23.9C3.6,45,7.1,54,13.6,60.5c0.6,0.6,0.6,1.5,0,2
			c-0.6,0.6-1.5,0.6-2,0c-7-7-10.9-16.8-10.5-26.7c0.3-10.1,4.7-19.3,12.4-26c13.4-11.7,33.7-11.7,47.2,0c7.6,6.7,12,15.9,12.4,26
			c0.3,9.9-3.5,19.7-10.5,26.7C62.2,62.7,61.8,62.9,61.4,62.9z"/>
		
			<linearGradient id="SVGID_10_" gradientUnits="userSpaceOnUse" x1="49.4" y1="19.7" x2="72.3237" y2="19.7" gradientTransform="matrix(1 0 0 -1 0 76)">
			<stop  offset="0" style="stop-color:#8FCFAC"/>
			<stop  offset="1" style="stop-color:#61C192"/>
		</linearGradient>
		<path class="st11" d="M50.9,70.1c-0.3,0-0.6-0.1-0.8-0.2c-0.4-0.3-0.7-0.7-0.7-1.2V43.9c0-0.8,0.6-1.4,1.4-1.4h20
			c0.4,0,0.8,0.2,1.1,0.5c0.3,0.3,0.4,0.8,0.3,1.2C70,55.7,62.2,65.3,51.4,70C51.2,70.1,51,70.1,50.9,70.1z M52.3,45.3v21
			c8.3-4.3,14.4-12,16.8-21C69.1,45.3,52.3,45.3,52.3,45.3z"/>
		
			<linearGradient id="SVGID_11_" gradientUnits="userSpaceOnUse" x1="1.7209" y1="19.7" x2="24.6445" y2="19.7" gradientTransform="matrix(1 0 0 -1 0 76)">
			<stop  offset="0" style="stop-color:#8FCFAC"/>
			<stop  offset="1" style="stop-color:#61C192"/>
		</linearGradient>
		<path class="st12" d="M23.2,70.1c-0.2,0-0.4,0-0.6-0.1C11.9,65.3,4,55.7,1.7,44.2c-0.1-0.4,0-0.9,0.3-1.2s0.7-0.5,1.1-0.5h20
			c0.8,0,1.4,0.6,1.4,1.4v24.8c0,0.5-0.2,0.9-0.7,1.2C23.8,70,23.5,70.1,23.2,70.1z M5,45.3c2.4,9.1,8.5,16.7,16.8,21v-21
			C21.8,45.3,5,45.3,5,45.3z"/>
	</g>
	
		<linearGradient id="SVGID_12_" gradientUnits="userSpaceOnUse" x1="12.5197" y1="50.5" x2="61.5197" y2="50.5" gradientTransform="matrix(1 0 0 -1 0 76)">
		<stop  offset="0" style="stop-color:#8FCFAC"/>
		<stop  offset="1" style="stop-color:#61C192"/>
	</linearGradient>
	<path class="st13" d="M60,38.5c-0.8,0-1.4-0.6-1.4-1.4c0-11.9-9.7-21.6-21.6-21.6S15.4,25.1,15.4,37c0,0.8-0.6,1.4-1.4,1.4
		c-0.8,0-1.4-0.6-1.4-1.4c0-13.5,11-24.5,24.5-24.5s24.5,11,24.5,24.5C61.5,37.8,60.8,38.5,60,38.5z"/>
</g>
</svg>
