<svg xmlns="http://www.w3.org/2000/svg" width="20" height="20"><path fill-rule="evenodd" clip-rule="evenodd" fill="#61C192" d="M10 1C4.9 1 .8 5.1.8 10.2c0 4.1 2.6 7.5 6.3 8.8.5.1.6-.2.6-.4v-1.7c-2.6.6-3.1-1.1-3.1-1.1-.4-1.1-1-1.3-1-1.3-.8-.6.1-.6.1-.6.8 0 1.3.9 1.3.9.8 1.4 2.2 1 2.7.8.1-.6.3-1 .6-1.2-2-.2-4.2-1-4.2-4.6 0-1 .4-1.8.9-2.5 0-.3-.4-1.2.1-2.5 0 0 .8-.2 2.5.9.8-.1 1.6-.3 2.4-.3.8 0 1.6.1 2.3.3 1.8-1.2 2.5-.9 2.5-.9.5 1.3.2 2.2.1 2.4.6.6.9 1.5.9 2.5 0 3.5-2.2 4.3-4.2 4.6.3.3.6.8.6 1.7v2.5c0 .2.2.5.6.4 3.7-1.2 6.3-4.7 6.3-8.8.1-5-4-9.1-9.1-9.1z"/></svg>
