<svg xmlns="http://www.w3.org/2000/svg" width="60" height="60"><path fill="#61c192" d="M30 0C13.421 0 0 13.421 0 30s13.421 30 30 30 30-13.421 30-30S46.579 0 30 0zM6.316 17.368h31.737c.632 2.211 2.368 3.947 4.579 4.579V38.21c-2.211.632-3.947 2.368-4.579 4.579H6.316C4.263 39 3.158 34.736 3.158 30.157s1.105-9 3.158-12.789zM30 56.842c-8.842 0-16.737-4.421-21.632-11.053h31.105c.947 0 1.579-.632 1.579-1.579 0-1.737 1.421-3.158 3.158-3.158.947 0 1.579-.632 1.579-1.579V20.526c0-.947-.632-1.579-1.579-1.579-1.737 0-3.158-1.421-3.158-3.158 0-.947-.632-1.579-1.579-1.579H8.368C13.263 7.578 21.157 3.157 30 3.157c14.842 0 26.842 12 26.842 26.842S44.842 56.841 30 56.841z"/><path fill="#61c192" d="M13.895 28.737l3.158 3L16.264 36c-.158.632.158 1.263.632 1.579s1.105.474 1.737.158l3.947-2.053 3.947 2.053c.158.158.316.158.632.158s.632-.158.947-.316c.474-.316.789-.947.632-1.579l-.789-4.263 3.158-3c.474-.474.632-1.105.474-1.579-.158-.632-.632-.947-1.263-1.105l-4.421-.789-1.895-3.947c-.316-.474-.947-.789-1.421-.789-.632 0-1.105.316-1.421.947l-2.053 3.789-4.263.632c-.632.158-1.105.474-1.263 1.105s0 1.263.316 1.737zm6.473-.316c.474 0 .947-.474 1.263-.789l.947-1.737.947 1.737c.158.474.632.789 1.263.789l2.053.316L25.104 30c-.316.316-.474.947-.474 1.421l.316 2.053-1.737-.947c-.158-.158-.474-.158-.789-.158s-.474 0-.789.158l-1.737.947.316-2.053c.158-.474-.158-1.105-.474-1.421l-1.421-1.421 2.053-.158z"/></svg>
