<svg xmlns="http://www.w3.org/2000/svg" width="20" height="20"><path fill="#61C192" d="M-410.8 6.6v.5c0 4.9-3.7 10.5-10.5 10.5-2.1 0-4-.6-5.7-1.7.3 0 .6.1.9.1 1.7 0 3.3-.6 4.6-1.6-1.6 0-3-1.1-3.4-2.6.2 0 .5.1.7.1.3 0 .7 0 1-.1-1.7-.3-3-1.8-3-3.6.5.3 1.1.4 1.7.5-1-.7-1.6-1.8-1.6-3.1 0-.7.2-1.3.5-1.9 1.8 2.2 4.5 3.7 7.6 3.9-.1-.3-.1-.6-.1-.8 0-2 1.7-3.7 3.7-3.7 1.1 0 2 .4 2.7 1.2.8-.2 1.6-.5 2.3-.9-.3.9-.9 1.6-1.6 2 .7-.1 1.5-.3 2.1-.6-.6.7-1.2 1.3-1.9 1.8zM-390.1 19.1v-8.2h2.8l.4-3.2h-3.2v-2c0-.9.3-1.6 1.6-1.6h1.7V1.2c-.3 0-1.3-.1-2.5-.1-2.4 0-4.1 1.5-4.1 4.2v2.4h-2.8v3.2h2.8v8.2h3.3z"/><path fill-rule="evenodd" clip-rule="evenodd" fill="#61C192" d="M-366 1c-5.1 0-9.2 4.1-9.2 9.2 0 4.1 2.6 7.5 6.3 8.8.5.1.6-.2.6-.4v-1.7c-2.6.6-3.1-1.1-3.1-1.1-.4-1.1-1-1.3-1-1.3-.8-.6.1-.6.1-.6.9.1 1.4.9 1.4.9.8 1.4 2.2 1 2.7.8.1-.6.3-1 .6-1.2-2-.2-4.2-1-4.2-4.6 0-1 .4-1.8.9-2.5-.1-.2-.4-1.2.1-2.4 0 0 .8-.2 2.5.9.7-.2 1.5-.3 2.3-.3s1.6.1 2.3.3c1.8-1.2 2.5-.9 2.5-.9.5 1.3.2 2.2.1 2.4.6.6.9 1.5.9 2.5 0 3.5-2.2 4.3-4.2 4.6.3.3.6.8.6 1.7v2.5c0 .2.2.5.6.4 3.7-1.2 6.3-4.7 6.3-8.8.1-5-4-9.2-9.1-9.2z"/><g fill="#61C192"><path d="M-335.9 3c-2.7-2.7-5.4 0-5.4 0l-2.7 2.7-.2.2c1.7-.5 2.5.2 2.5.2l1.7-1.7s1.4-1.4 2.7 0c1.4 1.4 0 2.7 0 2.7l-3.6 3.6c-1.4 1.4-2.7 0-2.7 0-.7-.7-.7-1.3-.7-1.3l-1.5 1.5s.3.7.8 1.2c2.7 2.7 5.4 0 5.4 0l3.6-3.6c.1 0 2.8-2.7.1-5.5z"/><path d="M-343.8 13.5l-1.7 1.7s-1.4 1.4-2.7 0c-1.4-1.4 0-2.7 0-2.7l3.6-3.6c1.4-1.4 2.7 0 2.7 0 .7.7.7 1.3.7 1.3l1.5-1.5s-.3-.7-.8-1.2c-2.7-2.7-5.4 0-5.4 0l-3.6 3.6s-2.7 2.7 0 5.4 5.4 0 5.4 0l2.7-2.7.2-.2c-1.8.6-2.6-.1-2.6-.1z"/></g><path fill="#61C192" d="M-309 13h-4V7h4c.6 0 1-.4 1-1s-.4-1-1-1h-4V1c0-.6-.4-1-1-1s-1 .4-1 1v4h-6V1c0-.6-.4-1-1-1s-1 .4-1 1v4h-4c-.6 0-1 .4-1 1s.4 1 1 1h4v6h-4c-.6 0-1 .4-1 1s.4 1 1 1h4v4c0 .6.4 1 1 1s1-.4 1-1v-4h6v4c0 .6.4 1 1 1s1-.4 1-1v-4h4c.6 0 1-.4 1-1s-.4-1-1-1zm-12 0V7h6v6h-6zM-293.6 9.8l8.3-8.3c.4-.4.4-1 0-1.4s-1-.4-1.4 0l-8.7 8.7h-8.6c-.6 0-1 .4-1 1s.4 1 1 1h8.6l8.7 8.7c.2.2.5.3.7.3s.5-.1.7-.3c.4-.4.4-1 0-1.4l-8.3-8.3zM-261.3 8.9l-18-9c-.5-.2-1.1 0-1.3.4s0 1.1.4 1.3l16.2 8.1-14.8 7.4V9.8c0-.6-.4-1-1-1s-1 .4-1 1v9c0 .3.2.7.5.9.2.1.3.1.5.1s.3 0 .4-.1l18-9c.3-.2.6-.5.6-.9s-.2-.7-.5-.9zM-447.5-9.2h11.5V2.3h-11.5z"/><path fill="#878B8F" d="M-447.5 4.5h11.5V16h-11.5z"/><path fill="#FFF" d="M-447.5 18.2h11.5v11.5h-11.5z"/><g fill="#61C192"><path d="M-221.8 19.3c-.6 0-1-.4-1-1 0-9.4-7.6-17-17-17-.6 0-1-.4-1-1s.4-1 1-1c10.5 0 19 8.5 19 19 0 .6-.4 1-1 1zM-230.8 19.3h-9c-.6 0-1-.4-1-1v-9c0-.6.4-1 1-1 5.5 0 10 4.5 10 10 0 .6-.4 1-1 1zm-8-2h6.9c-.5-3.6-3.3-6.5-6.9-6.9v6.9z"/></g><g fill="#61C192"><path d="M-181.8 19.3c-.6 0-1-.4-1-1v-17h-17c-.6 0-1-.4-1-1s.4-1 1-1h18c.6 0 1 .4 1 1v18c0 .6-.4 1-1 1z"/><path d="M-199.8 19.3c-.3 0-.5-.1-.7-.3-.4-.4-.4-1 0-1.4l9-9c.4-.4 1-.4 1.4 0s.4 1 0 1.4l-9 9c-.1.2-.4.3-.7.3z"/></g><g fill="#61C192"><path d="M-150.8-.7c-5.5 0-10 4.5-10 10 0 .6.4 1 1 1s1-.4 1-1c0-4.4 3.6-8 8-8s8 3.6 8 8c0 .6.4 1 1 1s1-.4 1-1c0-5.5-4.4-10-10-10z"/><path d="M-145.2 9.3c0-3-2.5-5.5-5.5-5.5s-5.5 2.5-5.5 5.5 2.5 5.5 5.5 5.5 5.5-2.5 5.5-5.5zm-4.3-2.5c.7 0 1.2.6 1.2 1.3s-.6 1.2-1.2 1.2-1.2-.6-1.2-1.2.5-1.3 1.2-1.3zm-4.7 2.5c0-1.5.9-2.7 2.2-3.2-.4.6-.7 1.2-.7 2 0 1.8 1.5 3.2 3.2 3.2.8 0 1.4-.3 2-.7-.5 1.3-1.8 2.2-3.2 2.2-2 0-3.5-1.6-3.5-3.5z"/><path d="M-145.1 15c-1.5 1.5-3.5 2.3-5.7 2.3s-4.1-.8-5.7-2.3c-.4-.4-1-.4-1.4 0-.4.4-.4 1 0 1.4 1.9 1.9 4.4 2.9 7.1 2.9s5.2-1 7.1-2.9c.4-.4.4-1 0-1.4-.4-.4-1-.4-1.4 0z"/></g><g fill="#61C192"><path d="M-111.5 10c.2.2.5.3.7.3s.5-.1.7-.3l9-9c.4-.4.4-1 0-1.4s-1-.4-1.4 0l-8.3 8.3-8.3-8.3c-.4-.4-1-.4-1.4 0s-.4 1 0 1.4l9 9zM-101.8 17.3h-18c-.6 0-1 .4-1 1s.4 1 1 1h18c.6 0 1-.4 1-1s-.4-1-1-1z"/></g><path fill="#61C192" d="M-70 15.5c-.3 0-.5-.1-.7-.3l-9-9c-.4-.4-.4-1 0-1.4s1-.4 1.4 0l8.3 8.3 8.3-8.3c.4-.4 1-.4 1.4 0s.4 1 0 1.4l-9 9c-.2.2-.4.3-.7.3zM10 4.5c.3 0 .5.1.7.3l9 9c.4.4.4 1 0 1.4s-1 .4-1.4 0L10 6.9l-8.3 8.3c-.4.4-1 .4-1.4 0s-.4-1 0-1.4l9-9c.2-.2.4-.3.7-.3zM-28.6 10l8.3-8.3c.4-.4.4-1 0-1.4s-1-.4-1.4 0L-30 8.6-38.3.3c-.4-.4-1-.4-1.4 0s-.4 1 0 1.4l8.3 8.3-8.3 8.3c-.4.4-.4 1 0 1.4.2.2.5.3.7.3s.5-.1.7-.3l8.3-8.3 8.3 8.3c.2.2.5.3.7.3s.5-.1.7-.3c.4-.4.4-1 0-1.4l-8.3-8.3z"/></svg>
