<svg width="13" height="13" xmlns="http://www.w3.org/2000/svg"><g fill-rule="nonzero" fill="#000"><path d="M2.44705882 12.6367647h6.88235294c1.26176474 0 2.29411764-1.0323529 2.29411764-2.2941176V6.13676471c0-.21029412-.1720588-.38235295-.3823529-.38235295-.2102941 0-.382353.17205883-.382353.38235295v4.20588239c0 .8411764-.6882353 1.5294117-1.52941174 1.5294117H2.44705882c-.84117647 0-1.52941176-.6882353-1.52941176-1.5294117V3.46029412c0-.84117647.68823529-1.52941177 1.52941176-1.52941177h4.20588236c.21029411 0 .38235294-.17205882.38235294-.38235294 0-.21029412-.17205883-.38235294-.38235294-.38235294H2.44705882c-1.2617647 0-2.29411764 1.03235294-2.29411764 2.29411765v6.88235298c0 1.2617647 1.03235294 2.2941176 2.29411764 2.2941176z"/><path d="M12.8470588 3.86176471V.36323529.28676471c0-.0382353 0-.05735294-.0191176-.0764706l-.0191177-.01911764c0-.01911765-.0191176-.0382353-.0191176-.0382353C12.7705882.11470589 12.7323529.0764706 12.675.0382353c-.0191176-.01911764-.0382353-.01911764-.0573529-.01911764L12.5602941 0H8.96617647c-.21029412 0-.38235294.17205882-.38235294.38235294 0 .21029412.17205882.38235294.38235294.38235294h2.58088233l-5.60147056 5.5632353c-.15294118.15294117-.15294118.38235294 0 .53529411.15294117.15294118.38235294.15294118.53529411 0l5.60147055-5.58235294v2.58088236c0 .21029411.1720589.38235294.382353.38235294s.3823529-.17205883.3823529-.38235294z"/></g></svg>
