<svg width="13" height="13" xmlns="http://www.w3.org/2000/svg" xmlns:xlink="http://www.w3.org/1999/xlink"><g transform="translate(-266 234)"><mask id="a"><use xlink:href="#path0_fill" fill="#fff" transform="translate(266 -234)"/></mask><g mask="url(#a)"><use xlink:href="#path1_stroke_2x" transform="translate(266 -234)" fill="gray"/></g></g><use xlink:href="#path2_stroke" transform="rotate(-90 7 0)" fill="gray"/><use xlink:href="#path3_stroke" transform="translate(7 7)" fill="gray"/><defs><path id="path0_fill" d="M13 6.5c0 3.5899-2.9101 6.5-6.5 6.5S0 10.0899 0 6.5 2.9101 0 6.5 0 13 2.9101 13 6.5z"/><path id="path1_stroke_2x" d="M12 6.5C12 9.5376 9.5376 12 6.5 12v2c4.1421 0 7.5-3.3579 7.5-7.5h-2zM6.5 12C3.4624 12 1 9.5376 1 6.5h-2c0 4.1421 3.3579 7.5 7.5 7.5v-2zM1 6.5C1 3.4624 3.4624 1 6.5 1v-2C2.3579-1-1 2.3579-1 6.5h2zM6.5 1C9.5376 1 12 3.4624 12 6.5h2C14 2.3579 10.6421-1 6.5-1v2z"/><path id="path2_stroke" d="M0 0h4v-1H0v1z"/><path id="path3_stroke" d="M0 0h3v-1H0v1z"/></defs></svg>
