<svg width="25" height="25" xmlns="http://www.w3.org/2000/svg"><g fill="#FFF"><path d="M10.4073 11.3874l3.3187-1.1116 1.08 3.224-3.3189 1.1116z"/><path d="M10.4073 11.3874l3.3187-1.1116 1.08 3.224-3.3189 1.1116z"/><path d="M23.9 9C21.4.5 17.7-1.5 9.1 1.1.6 3.6-1.4 7.3 1.2 15.9c2.6 8.5 6.2 10.5 14.8 7.9 8.5-2.5 10.5-6.2 7.9-14.8zm-4.3 5.6l-1.6.5.6 1.7c.2.6-.2 1.4-.8 1.6-.2 0-.3.1-.5.1-.5-.1-1-.4-1.2-.9l-.5-1.7-3.3 1.1.5 1.7c.2.7-.1 1.4-.8 1.6-.1.1-.3.1-.4.1-.5 0-1-.4-1.2-.9l-.6-1.7-1.6.6c-.1 0-.3.1-.4 0-.5 0-1-.3-1.2-.8-.2-.7.1-1.4.8-1.7l1.6-.5-1.1-3.2-1.6.5c-.1.1-.3.1-.4.1-.5 0-1-.4-1.2-.9-.2-.6.1-1.4.8-1.6l1.6-.5-.5-1.7c-.3-.7.1-1.4.8-1.6.7-.2 1.4.1 1.6.8l.6 1.6 3.3-1.1-.6-1.6c-.2-.7.2-1.4.8-1.7.7-.2 1.4.2 1.7.9l.5 1.6 1.6-.5c.7-.2 1.4.1 1.7.8.2.7-.2 1.4-.9 1.6l-1.6.6 1.1 3.2 1.6-.6c.7-.2 1.4.2 1.6.8.3.7-.1 1.4-.8 1.7z"/></g></svg>
