<svg xmlns="http://www.w3.org/2000/svg" width="60" height="60"><path fill="#61c192" d="M30 0C13.421 0 0 13.421 0 30s13.421 30 30 30 30-13.421 30-30S46.579 0 30 0zm0 56.842c-14.842 0-26.842-12-26.842-26.842S15.158 3.158 30 3.158s26.842 12 26.842 26.842-12 26.842-26.842 26.842z"/><path fill="#61c192" d="M20.526 26.842c3.474 0 6.316-2.842 6.316-6.316S24 14.21 20.526 14.21s-6.316 2.842-6.316 6.316 2.842 6.316 6.316 6.316zm0-9.474c1.737 0 3.158 1.421 3.158 3.158s-1.421 3.158-3.158 3.158-3.158-1.421-3.158-3.158 1.421-3.158 3.158-3.158zM39.474 33.158c-3.474 0-6.316 2.842-6.316 6.316S36 45.79 39.474 45.79s6.316-2.842 6.316-6.316-2.842-6.316-6.316-6.316zm0 9.474c-1.737 0-3.158-1.421-3.158-3.158s1.421-3.158 3.158-3.158 3.158 1.421 3.158 3.158-1.421 3.158-3.158 3.158zM43.105 14.684L14.684 43.105c-.632.632-.632 1.579 0 2.211.316.316.632.474 1.105.474s.789-.158 1.105-.474l28.421-28.421c.632-.632.632-1.579 0-2.211s-1.579-.632-2.211 0z"/></svg>
