<svg xmlns="http://www.w3.org/2000/svg" width="40.5" height="40.5" viewBox="-379 180.5 40.5 40.5"><linearGradient id="a" gradientUnits="userSpaceOnUse" x1="-379" y1="202.25" x2="-342.5554" y2="202.25" gradientTransform="matrix(1 0 0 -1 0 403)"><stop offset="0" stop-color="#61c192" stop-opacity="0"/><stop offset="1" stop-color="#61c192"/></linearGradient><path fill="url(#a)" d="M-358.8 221c-11.1 0-20.2-9.1-20.2-20.2s9.1-20.3 20.2-20.3c6.3 0 12.1 2.8 16 7.8.3.4.3 1.1-.2 1.4-.4.4-1 .3-1.3-.2-3.5-4.5-8.7-7-14.4-7-10.1 0-18.3 8.2-18.3 18.3 0 10.1 8.2 18.2 18.2 18.2 5.5 0 10.7-2.5 14.2-6.8.3-.4 1-.5 1.4-.1.4.3.5 1 .1 1.4-3.8 4.8-9.5 7.5-15.7 7.5z"/><g><linearGradient id="b" gradientUnits="userSpaceOnUse" x1="-379" y1="202.25" x2="-342.5554" y2="202.25" gradientTransform="matrix(1 0 0 -1 0 403)"><stop offset="0" stop-color="#61c192" stop-opacity="0"/><stop offset="1" stop-color="#61c192"/></linearGradient><path fill="url(#b)" d="M-358.8 221c-11.1 0-20.2-9.1-20.2-20.2s9.1-20.3 20.2-20.3c6.3 0 12.1 2.8 16 7.8.3.4.3 1.1-.2 1.4-.4.4-1 .3-1.3-.2-3.5-4.5-8.7-7-14.4-7-10.1 0-18.3 8.2-18.3 18.3 0 10.1 8.2 18.2 18.2 18.2 5.5 0 10.7-2.5 14.2-6.8.3-.4 1-.5 1.4-.1.4.3.5 1 .1 1.4-3.8 4.8-9.5 7.5-15.7 7.5z"/></g></svg>
