<svg xmlns="http://www.w3.org/2000/svg" width="40.5" height="40.5"><linearGradient id="a" gradientUnits="userSpaceOnUse" x1="6.8747" y1="20.2503" x2="29.7467" y2="20.2503"><stop offset="0" stop-color="#61c192"/><stop offset="1" stop-color="#61c192" stop-opacity="0"/></linearGradient><path fill="url(#a)" d="M20.2 33.6c-7.4 0-13.4-6-13.4-13.4s6-13.4 13.4-13.4c3.4 0 6.6 1.3 9.1 3.6.4.4.4 1 .1 1.4-.4.4-1 .4-1.4.1-2.1-2-4.9-3-7.7-3C14 8.9 8.9 14 8.9 20.3S14 31.6 20.2 31.6c2.9 0 5.7-1.1 7.8-3.1.4-.4 1-.4 1.4 0 .4.4.4 1 0 1.4-2.5 2.4-5.7 3.7-9.2 3.7z"/></svg>
