<svg xmlns="http://www.w3.org/2000/svg" viewBox="0 0 22 4"><defs><style>.cls-1{fill:#61c192}</style></defs><title>more</title><g id="Layer_2" data-name="Layer 2"><path class="cls-1" d="M2 4a2 2 0 0 1-.77-.15 1.88 1.88 0 0 1-.64-.44 1.46 1.46 0 0 1-.25-.3A1.71 1.71 0 0 1 0 2.39 1.65 1.65 0 0 1 0 2 2 2 0 0 1 .59.59a1.46 1.46 0 0 1 .3-.25 2.32 2.32 0 0 1 .34-.19A1.64 1.64 0 0 1 1.61 0a2 2 0 0 1 1.8.55A2 2 0 0 1 4 2a1.65 1.65 0 0 1 0 .39 1.7 1.7 0 0 1-.11.38 1.6 1.6 0 0 1-.19.34 1.46 1.46 0 0 1-.25.3 1.46 1.46 0 0 1-.3.25 1.6 1.6 0 0 1-.34.19 1.7 1.7 0 0 1-.42.15A1.7 1.7 0 0 1 2 4zm9 0a1.72 1.72 0 0 1-.39 0 1.7 1.7 0 0 1-.38-.11 1.62 1.62 0 0 1-.34-.19 1.46 1.46 0 0 1-.3-.25 2 2 0 0 1 0-2.82 2 2 0 0 1 2.82 0A2 2 0 0 1 13 2a2 2 0 0 1-.15.77 1.89 1.89 0 0 1-.44.64A2 2 0 0 1 11 4zm9 0a2 2 0 0 1-1.41-.59 1.89 1.89 0 0 1-.44-.64A2 2 0 0 1 18 2a2 2 0 0 1 .59-1.41 2 2 0 0 1 2.82 0 1.46 1.46 0 0 1 .25.3 2.32 2.32 0 0 1 .19.34 1.86 1.86 0 0 1 .11.38A1.72 1.72 0 0 1 22 2a2 2 0 0 1-.15.77 1.89 1.89 0 0 1-.44.64 1.46 1.46 0 0 1-.3.25 1.67 1.67 0 0 1-.35.19 1.48 1.48 0 0 1-.37.11A1.7 1.7 0 0 1 20 4z" id="Layer_1-2" data-name="Layer 1"/></g></svg>