<svg xmlns="http://www.w3.org/2000/svg" width="20" height="20"><g fill="#61C192"><path d="M8.5 13V6.1h-.8l-.8.8v.9l.8-.7V13zM12.3 8.3c-.4 0-.7.2-.8.4V7h2v-.9h-2.8v3.6h.8c.1-.3.3-.5.7-.5.6 0 .8.6.8 1.7s-.3 1.4-.7 1.4c-.4 0-.7-.3-.8-.9h-.8c.1 1 .7 1.7 1.6 1.7 1.1 0 1.6-.8 1.6-2.2-.2-1.7-.7-2.6-1.6-2.6z"/><path d="M10.1 18H10c-4.4 0-8-3.6-8-8s3.6-8 8-8c.6 0 1-.4 1-1s-.4-1-1-1C4.5 0 0 4.5 0 10s4.5 10 10 10h.1c.6 0 1-.5 1-1s-.4-1-1-1zM18.3 13.5c-.5-.3-1.1-.1-1.4.4l-.1.2c-.3.5-.1 1.1.4 1.4.2.1.3.1.5.1.3 0 .7-.2.9-.5l.1-.2c.3-.5.1-1.1-.4-1.4zM14.1 16.9l-.2.1c-.5.3-.6.9-.4 1.4.2.3.5.5.9.5.2 0 .3 0 .5-.1l.2-.1c.5-.3.6-.9.3-1.4-.2-.6-.8-.7-1.3-.4zM19 9c-.6 0-1 .4-1 1v.1c0 .6.4 1 1 1 .5 0 1-.4 1-1V10c0-.6-.4-1-1-1z"/></g></svg>
