<?xml version="1.0" encoding="utf-8"?>
<!-- Generator: Adobe Illustrator 21.1.0, SVG Export Plug-In . SVG Version: 6.00 Build 0)  -->
<svg version="1.1" id="Layer_1" xmlns="http://www.w3.org/2000/svg" xmlns:xlink="http://www.w3.org/1999/xlink" x="0px" y="0px"
	 viewBox="0 0 30 30" style="enable-background:new 0 0 30 30;" xml:space="preserve">
<style type="text/css">
	.st0{fill:#61C192;}
</style>
<path class="st0" d="M24,5h-9c-0.6,0-1,0.4-1,1s0.4,1,1,1h8v7h-7v-3.5c0-0.6-0.4-1-1-1s-1,0.4-1,1V14H6c-0.6,0-1,0.4-1,1v9
	c0,0.6,0.4,1,1,1h9c0.6,0,1-0.4,1-1s-0.4-1-1-1H7v-7h7v3.5c0,0.6,0.4,1,1,1s1-0.4,1-1V16h8c0.6,0,1-0.4,1-1V6C25,5.4,24.6,5,24,5z"
	/>
</svg>
