<svg xmlns="http://www.w3.org/2000/svg" viewBox="0 0 101.05 117.93"><defs><style>.cls-1{fill:#fff}.cls-2{fill:url(#linear-gradient)}.cls-3{fill:url(#New_Gradient_Swatch_8)}</style><linearGradient id="linear-gradient" y1="58.96" x2="101.05" y2="58.96" gradientUnits="userSpaceOnUse"><stop offset="0" stop-color="#fff" stop-opacity="0"/><stop offset="1" stop-color="#fff"/></linearGradient><linearGradient id="New_Gradient_Swatch_8" x1="19.07" y1="58.96" x2="87.53" y2="58.96" gradientUnits="userSpaceOnUse"><stop offset="0" stop-color="#fff"/><stop offset="1" stop-color="#fff" stop-opacity="0"/></linearGradient></defs><title>changelog-mark-only</title><g id="Layer_2" data-name="Layer 2"><g id="menu"><path class="cls-1" d="M68.33 52.33c-3.22-3.66-5.67-5-9.17-5a11.6 11.6 0 0 0 .05 23.19c3.49 0 6-1.36 9.28-5l5.73 5.35c-4.75 5.07-9.17 7.2-14.89 7.2a19.13 19.13 0 1 1 0-38.25c5.67 0 10 2.07 14.73 7.09z"/><path class="cls-2" d="M58.92 117.93h-1.15A58.53 58.53 0 0 1 15.61 99a59.16 59.16 0 0 1 0-80.08 59 59 0 0 1 85-1.65 1.59 1.59 0 0 1-2.25 2.25 55.78 55.78 0 0 0-80.39 1.57 56 56 0 0 0 0 75.74 55.78 55.78 0 0 0 80.36 1.57 1.59 1.59 0 1 1 2.25 2.25 58.45 58.45 0 0 1-41.66 17.28z"/><path class="cls-3" d="M58.87 98.8h-1.36A39.84 39.84 0 0 1 28.8 32.86a39.53 39.53 0 0 1 28.71-13.71 40 40 0 0 1 29.55 11.64A1.59 1.59 0 1 1 84.81 33a36.76 36.76 0 0 0-27.19-10.67 36.65 36.65 0 0 0 0 73.26 36.81 36.81 0 0 0 27.19-10.71 1.59 1.59 0 1 1 2.25 2.25A40 40 0 0 1 58.87 98.8z"/></g></g></svg>
