<?xml version="1.0" encoding="utf-8"?>
<!-- Generator: Adobe Illustrator 18.1.1, SVG Export Plug-In . SVG Version: 6.00 Build 0)  -->
<svg version="1.1" id="Layer_1" xmlns="http://www.w3.org/2000/svg" xmlns:xlink="http://www.w3.org/1999/xlink" x="0px" y="0px"
	 width="72.1px" height="108px" viewBox="0 0 72.1 108" enable-background="new 0 0 72.1 108" xml:space="preserve">
<g>
	
		<linearGradient id="SVGID_1_" gradientUnits="userSpaceOnUse" x1="-313.4462" y1="24.8947" x2="-251.5879" y2="24.8947" gradientTransform="matrix(-0.7071 -0.7071 0.7071 -0.7071 -177.727 -142.5948)">
		<stop  offset="0" style="stop-color:#61C192"/>
		<stop  offset="1" style="stop-color:#61C192;stop-opacity:0"/>
	</linearGradient>
	<path fill="url(#SVGID_1_)" d="M36,72c-9.2,0-17.8-3.4-24.5-9.7C4.2,55.5,0.1,45.9,0.1,36c0-0.8,0.6-1.4,1.4-1.4S3,35.2,3,36
		c0,9.1,3.8,18,10.5,24.2c6.8,6.3,15.7,9.5,24.9,8.8C54.8,67.9,68,54.7,69.1,38.4c0.6-9.3-2.5-18.2-8.8-24.9
		C54,6.7,45.2,2.9,36.1,2.9c-0.8,0-1.4-0.6-1.4-1.4S35.3,0,36.1,0C46,0,55.6,4.2,62.4,11.4c6.9,7.4,10.3,17,9.6,27.1
		c-1.2,17.8-15.6,32.1-33.4,33.4C37.8,72,36.9,72,36,72z"/>
	<linearGradient id="SVGID_2_" gradientUnits="userSpaceOnUse" x1="7.421875e-02" y1="18.7197" x2="37.5136" y2="18.7197">
		<stop  offset="0" style="stop-color:#8FCFAC"/>
		<stop  offset="1" style="stop-color:#61C192"/>
	</linearGradient>
	<path fill="url(#SVGID_2_)" d="M1.5,37.4c-0.8,0-1.4-0.6-1.4-1.4c0-19.9,16.1-36,36-36c0.8,0,1.4,0.6,1.4,1.4s-0.6,1.4-1.4,1.4
		C17.8,2.9,3,17.7,3,36C3,36.8,2.3,37.4,1.5,37.4z"/>
	<linearGradient id="SVGID_3_" gradientUnits="userSpaceOnUse" x1="11.594" y1="24.4796" x2="37.5136" y2="24.4796">
		<stop  offset="0" style="stop-color:#8FCFAC"/>
		<stop  offset="1" style="stop-color:#61C192"/>
	</linearGradient>
	<path fill="url(#SVGID_3_)" d="M13,37.4c-0.8,0-1.4-0.6-1.4-1.4c0-13.5,11-24.5,24.5-24.5c0.8,0,1.4,0.6,1.4,1.4
		c0,0.8-0.6,1.4-1.4,1.4c-11.9,0-21.6,9.7-21.6,21.6C14.5,36.8,13.8,37.4,13,37.4z"/>
	<linearGradient id="SVGID_4_" gradientUnits="userSpaceOnUse" x1="34.6337" y1="47.5192" x2="60.5532" y2="47.5192">
		<stop  offset="0" style="stop-color:#8FCFAC"/>
		<stop  offset="1" style="stop-color:#61C192"/>
	</linearGradient>
	<path fill="url(#SVGID_4_)" d="M36.1,60.5c-0.8,0-1.4-0.6-1.4-1.4s0.6-1.4,1.4-1.4c11.9,0,21.6-9.7,21.6-21.6
		c0-0.8,0.6-1.4,1.4-1.4s1.4,0.6,1.4,1.4C60.6,49.5,49.6,60.5,36.1,60.5z"/>
	<linearGradient id="SVGID_5_" gradientUnits="userSpaceOnUse" x1="28.8737" y1="35.9994" x2="49.0334" y2="35.9994">
		<stop  offset="0" style="stop-color:#8FCFAC"/>
		<stop  offset="1" style="stop-color:#61C192"/>
	</linearGradient>
	<path fill="url(#SVGID_5_)" d="M30.3,49c-0.2,0-0.5-0.1-0.7-0.2c-0.5-0.3-0.8-0.7-0.8-1.3v-23c0-0.5,0.3-1,0.8-1.3
		c0.5-0.3,1-0.2,1.5,0.1l17.3,11.5c0.4,0.3,0.6,0.7,0.6,1.2c0,0.5-0.2,0.9-0.6,1.2L31.1,48.7C30.9,48.9,30.6,49,30.3,49z M31.8,27.2
		v17.7L45,36L31.8,27.2z"/>
</g>
<path fill="#FFFFFF" d="M9.6,93.8H3.8V97h5.3v3.6H3.8v7H0V90.2h9.6V93.8z"/>
<path fill="#FFFFFF" d="M18.4,107.6h-3.8V90.2h3.8V107.6z"/>
<path fill="#FFFFFF" d="M27.9,90.2V104H34v3.6H24V90.2H27.9z"/>
<path fill="#FFFFFF" d="M38.3,90.2h3.5l5.2,9l5.2-9h3.5v17.3h-3.8v-9.6l-3.5,6.2h-2.8l-3.5-6.2v9.6h-3.8V90.2z"/>
<path fill="#FFFFFF" d="M68.6,95.3c-1-1.6-1.5-2-2.5-2c-1,0-1.8,0.8-1.8,1.7c0,0.6,0.6,1.1,1.7,1.5l1.6,0.6c3,1.1,4.4,2.7,4.4,5.1
	c0,3.2-2.7,5.7-6.2,5.7c-1.9,0-3.7-0.8-4.7-2.1c-0.7-0.9-1.1-1.7-1.4-3.3l3.8-1l0.1,0.2l0.1,0.4c0.4,1.5,1.1,2.2,2.3,2.2
	c1.2,0,2.2-0.9,2.2-2.1c0-0.8-0.5-1.2-2.2-1.9l-1.5-0.6c-2.7-1-4-2.6-4-4.8c0-3,2.5-5.3,5.8-5.3c2.4,0,4.1,1,5.6,3.5L68.6,95.3z"/>
</svg>
