<?xml version="1.0" encoding="utf-8"?>
<!-- Generator: Adobe Illustrator 18.1.1, SVG Export Plug-In . SVG Version: 6.00 Build 0)  -->
<svg version="1.1" id="Layer_1" xmlns="http://www.w3.org/2000/svg" xmlns:xlink="http://www.w3.org/1999/xlink" x="0px" y="0px"
	 width="149.7px" height="150px" viewBox="0 0 149.7 150" enable-background="new 0 0 149.7 150" xml:space="preserve">
<g>
	<path fill="#121921" d="M84,51.2c-3.2-3.6-5.6-4.9-9-4.9c-6.1,0-10.9,5-10.9,11.4c0,6.2,4.9,11.3,11,11.3c3.4,0,5.9-1.3,9.1-4.9
		l5.6,5.2c-4.6,5-9,7-14.6,7c-10.6,0-19.1-8.4-19.1-18.7c0-10.4,8.5-18.7,19.1-18.7c5.6,0,9.8,2,14.4,6.9L84,51.2z"/>
	<linearGradient id="SVGID_1_" gradientUnits="userSpaceOnUse" x1="17.1371" y1="57.7079" x2="116.0372" y2="57.7079">
		<stop  offset="0" style="stop-color:#61C192;stop-opacity:0"/>
		<stop  offset="1" style="stop-color:#61C192"/>
	</linearGradient>
	<path fill="url(#SVGID_1_)" d="M74.8,115.4c-0.4,0-0.8,0-1.1,0c-15.8-0.3-30.5-6.9-41.3-18.5c-20.4-22-20.4-56.4,0-78.4
		C43.2,6.9,57.9,0.3,73.7,0c15.9-0.3,30.7,5.7,41.9,16.9c0.6,0.6,0.6,1.6,0,2.2c-0.6,0.6-1.6,0.6-2.2,0C102.8,8.5,88.7,2.9,73.7,3.1
		c-15,0.3-28.8,6.5-39,17.5c-19.3,20.8-19.3,53.3,0,74.1c10.2,11,24.1,17.2,39,17.5c15,0.3,29.1-5.4,39.6-16c0.6-0.6,1.6-0.6,2.2,0
		c0.6,0.6,0.6,1.6,0,2.2C104.7,109.4,90.2,115.4,74.8,115.4z"/>
	<linearGradient id="SVGID_2_" gradientUnits="userSpaceOnUse" x1="35.8036" y1="57.7081" x2="102.8026" y2="57.7081">
		<stop  offset="0" style="stop-color:#61C192"/>
		<stop  offset="1" style="stop-color:#61C192;stop-opacity:0"/>
	</linearGradient>
	<path fill="url(#SVGID_2_)" d="M74.8,96.7c-0.4,0-0.9,0-1.3,0c-10.9-0.4-20.9-5.1-28.1-13.4c-12.7-14.6-12.7-36.5,0-51.1
		c7.2-8.3,17.2-13,28.1-13.4c10.8-0.4,21.3,3.8,28.9,11.4c0.6,0.6,0.6,1.6,0,2.2c-0.6,0.6-1.6,0.6-2.2,0c-7-7-16.7-10.8-26.6-10.5
		c-10,0.3-19.2,4.7-25.9,12.3c-11.7,13.4-11.7,33.6,0,47c6.6,7.6,15.8,12,25.9,12.3c9.9,0.3,19.6-3.5,26.6-10.5
		c0.6-0.6,1.6-0.6,2.2,0c0.6,0.6,0.6,1.6,0,2.2C95,92.6,85.1,96.7,74.8,96.7z"/>
</g>
<g>
	<path fill="#121921" d="M99.2,136.4h-6.1v3.1h5.4v3.4h-5.4v3.3h6.3v3.4h-10V133h9.7V136.4z"/>
	<path fill="#121921" d="M13,138.3c-1.5-1.7-2.6-2.3-4.2-2.3c-2.9,0-5.1,2.3-5.1,5.3c0,2.9,2.3,5.3,5.1,5.3c1.6,0,2.7-0.6,4.2-2.3
		l2.6,2.4c-2.2,2.3-4.2,3.3-6.8,3.3C4,150,0,146.1,0,141.3c0-4.8,4-8.7,8.9-8.7c2.6,0,4.6,0.9,6.7,3.2L13,138.3z"/>
	<path fill="#121921" d="M21.8,139.5h6.2V133h3.7v16.6h-3.7v-6.7h-6.2v6.7h-3.7V133h3.7V139.5z"/>
	<path fill="#121921" d="M39,145.9l-1.3,3.7h-3.9L40,133h4.2l6.2,16.6h-3.9l-1.3-3.7H39z M42.1,136.9l-1.9,5.6h3.9L42.1,136.9z"/>
	<path fill="#121921" d="M52.7,133h3.1l7.7,10.1V133h3.7v16.6H64l-7.7-10.1v10.1h-3.7V133z"/>
	<path fill="#121921" d="M86.6,140.1v1.7c0,1.7-0.4,3.3-1.1,4.5c-1.3,2.3-3.8,3.7-6.8,3.7c-5,0-9-3.9-9-8.7s4-8.7,8.9-8.7
		c2.6,0,4.5,0.9,6.8,3.1l-2.6,2.4c-1.6-1.5-2.6-2.1-4.2-2.1c-2.9,0-5.2,2.3-5.2,5.3c0,3,2.3,5.3,5.2,5.3c2.1,0,3.5-1.1,4-3.1h-4.4
		v-3.4H86.6z"/>
	<path fill="#121921" d="M106.2,133v13.2h6.3v3.4h-10V133H106.2z"/>
	<path fill="#121921" d="M131,141.3c0,4.8-4,8.7-8.9,8.7c-4.8,0-8.8-4-8.8-8.9c0-4.6,4.1-8.6,8.8-8.6C127,132.6,131,136.5,131,141.3
		z M117,141.4c0,2.8,2.4,5.2,5.1,5.2c2.8,0,5.1-2.4,5.1-5.3c0-3-2.3-5.3-5.2-5.3C119.2,136,117,138.4,117,141.4z"/>
	<path fill="#121921" d="M149.7,140.1v1.7c0,1.7-0.4,3.3-1.1,4.5c-1.3,2.3-3.8,3.7-6.8,3.7c-5,0-9-3.9-9-8.7s4-8.7,8.9-8.7
		c2.6,0,4.5,0.9,6.8,3.1l-2.6,2.4c-1.6-1.5-2.6-2.1-4.2-2.1c-2.9,0-5.2,2.3-5.2,5.3c0,3,2.3,5.3,5.2,5.3c2.1,0,3.5-1.1,4-3.1h-4.4
		v-3.4H149.7z"/>
</g>
</svg>
