<?xml version="1.0" encoding="utf-8"?>
<!-- Generator: Adobe Illustrator 21.1.0, SVG Export Plug-In . SVG Version: 6.00 Build 0)  -->
<svg version="1.1" id="Layer_1" xmlns="http://www.w3.org/2000/svg" xmlns:xlink="http://www.w3.org/1999/xlink" x="0px" y="0px"
	 viewBox="0 0 171 171" style="enable-background:new 0 0 171 171;" xml:space="preserve">
<style type="text/css">
	.st0{clip-path:url(#SVGID_2_);}
	.st1{fill:url(#SVGID_3_);}
	.st2{fill:url(#SVGID_4_);}
	.st3{clip-path:url(#SVGID_6_);}
	.st4{fill:url(#SVGID_7_);}
	.st5{fill:url(#SVGID_8_);}
	.st6{fill:#FFFFFF;}
</style>
<title>backstage-cover-art</title>
<g id="Layer_2">
	<g id="Layer_1-2">
		<g>
			<defs>
				<rect id="SVGID_1_" width="171" height="64.1"/>
			</defs>
			<clipPath id="SVGID_2_">
				<use xlink:href="#SVGID_1_"  style="overflow:visible;"/>
			</clipPath>
			<g class="st0">
				<linearGradient id="SVGID_3_" gradientUnits="userSpaceOnUse" x1="67.5625" y1="103.4425" x2="103.4375" y2="67.5675">
					<stop  offset="0" style="stop-color:#F8A27B"/>
					<stop  offset="1" style="stop-color:#F05225"/>
				</linearGradient>
				<path class="st1" d="M65,94v6.9h5v5h7l4.9,4.9l3.6-3.6l3.6,3.6l5-4.9h6.9v-5h5v-7l4.9-4.9l-3.6-3.6l3.6-3.6l-4.9-5v-6.9h-5v-5
					h-7l-4.9-4.9l-3.6,3.5l-3.6-3.6L77,65h-6.9v5h-5v7l-4.9,4.9l3.6,3.6L60.2,89L65,94z M70.7,105.3v-4.4H72l4.4,4.4H70.7z
					 M70.7,100.3v-0.7l0.7,0.7H70.7z M72.8,100.9h6.3l4.4,4.4h-6.3L72.8,100.9z M80,100.9h11l-4.4,4.4h-2.2L80,100.9z M82,110
					l-4.1-4.1h6.3l0.9,0.9L82,110z M85,105.9h1l-0.5,0.5L85,105.9z M89.1,110l-3.1-3.1l0.9-0.9h6.3L89.1,110z M93.7,105.3h-6.3
					l4.4-4.4h6.3L93.7,105.3z M100.3,105.3h-5.8l4.4-4.4h1.3V105.3z M100.3,100.3h-0.7l0.7-0.7L100.3,100.3z M100.3,98.8l-1.6,1.6
					h-6.3l7.8-7.8L100.3,98.8z M105.3,86.6l-4.4,4.4V80l4.4,4.4L105.3,86.6z M110,89l-4.1,4.1v-6.3l0.9-0.9L110,89z M105.9,77.9
					l4.1,4.1l-3.1,3.1l-0.9-0.9V77.9z M105.9,85.1l0.5,0.5l-0.5,0.5V85.1z M100.9,70.7h4.4l0,5.8l-4.4-4.5V70.7z M100.9,72.8
					l4.4,4.4v6.4l-4.4-4.4V72.8z M100.9,91.9l4.4-4.4v6.3l-4.4,4.4V91.9z M100.9,99l4.4-4.4v5.8h-4.4V99z M100.3,72.3l0,6.3
					l-7.8-7.8h6.3L100.3,72.3z M99.6,70.7h0.7v0.7L99.6,70.7z M100.3,65.7v4.4H99l-4.4-4.4H100.3z M98.1,70.1h-6.2l-4.4-4.4h6.3
					L98.1,70.1z M91,70.1H80l4.4-4.4h2.2L91,70.1z M89,60.9l4.1,4.1h-6.2l-0.9-0.9L89,60.9z M85.5,64.5L86,65h-1L85.5,64.5z
					 M81.9,61l3.1,3.1l-0.9,0.9h-6.3L81.9,61z M77.3,65.6h6.3l-4.4,4.4h-6.3L77.3,65.6z M72.2,70.6h6.3l-7.8,7.8l0-6.3L72.2,70.6z
					 M70.7,71.4v-0.7h0.7L70.7,71.4z M70.7,65.6h5.8L72,70.1h-1.3L70.7,65.6z M70.7,79.3l8.7-8.7h12.3l8.7,8.7l0,12.3l-8.7,8.7H79.4
					l-8.7-8.7V79.3z M70.7,92.5l7.8,7.8h-6.3l-1.6-1.6L70.7,92.5z M70,100.3h-4.4v-5.7l4.5,4.4L70,100.3z M70,91l-4.4-4.4v-2.2
					l4.5-4.4L70,91z M65.6,70.7H70V72l-4.4,4.4V70.7z M65.6,77.3l4.4-4.4v6.2l-4.4,4.4V77.3z M65.6,87.4l4.4,4.4v6.3l-4.4-4.4V87.4z
					 M61,81.9l4.1-4.1l0,6.3L64.1,85L61,81.9z M65,84.9v1l-0.5-0.5L65,84.9z M64.1,85.9l0.9,0.9l0,6.2l-4-4L64.1,85.9z"/>
				<linearGradient id="SVGID_4_" gradientUnits="userSpaceOnUse" x1="32.305" y1="138.685" x2="138.695" y2="32.295">
					<stop  offset="0" style="stop-color:#F8A27B"/>
					<stop  offset="1" style="stop-color:#F05225"/>
				</linearGradient>
				<path class="st2" d="M160.7,74.8l-14.5-14.5V39.8h-15.1V24.7h-20.5L96.2,10.3L85.5,21L74.8,10.3L60.3,24.7H39.9v15.1H24.8v20.5
					L10.3,74.8L21,85.5L10.3,96.2l14.5,14.5v20.5h15.1v15.1h20.5l14.5,14.5L85.5,150l10.7,10.7l14.5-14.5h20.5v-15.1h15.1v-20.5
					l14.5-14.5L150,85.5L160.7,74.8z M24.7,109.8L11.1,96.2l10.3-10.3l3.4,3.4L24.7,109.8z M21.7,85.4l3-3v6L21.7,85.4z M24.7,81.7
					l-3.4,3.4L11.1,74.8l13.6-13.6L24.7,81.7z M39.8,130.5H25.3v-19.3l14.5,14.5L39.8,130.5z M39.8,124.9l-14.5-14.5V89.9l14.5,14.5
					L39.8,124.9z M35.2,78.3l4.7,4.6v5l-4.6,4.7l4.6,4.6v6.3L25.3,89v-7l14.5-14.6l0,6.3L35.2,78.3z M39.8,82.2L36,78.4l3.8-3.8
					L39.8,82.2z M39.8,96.4L36,92.6l3.8-3.8L39.8,96.4z M39.8,66.6L25.3,81.1V60.6L39.9,46L39.8,66.6z M39.8,45.2L25.3,59.7V40.4
					h14.5L39.8,45.2z M159.9,74.8l-10.2,10.2l-3.4-3.4l0-20.5L159.9,74.8z M146.2,82.6l3,3l-3,3V82.6z M135,92.6l-3.8,3.8l-0.1-7.6
					L135,92.6z M124.9,39.8h-20.5L89.9,25.3h20.5L124.9,39.8z M130.5,45.4l0,20.6l-4.4-4.4V55h-6.6l-3.5-3.5v-6.6h-6.6l-4.4-4.5
					h20.5L130.5,45.4z M126.4,40.5h4.2v4.2L126.4,40.5z M130.5,66.8v6.3l-4.4-4.4v-6.3L130.5,66.8z M119.2,115.5H116v-3l9.5-9.5v6.3
					L119.2,115.5z M125.5,110v5.4h-5.4L125.5,110z M118.7,116l-2.7,2.6V116L118.7,116z M116,111.5V98.1l9.5-9.5v13.4L116,111.5z
					 M116,97.3V73.7l9.5,9.5v4.6L116,97.3z M116,72.8V59.4l9.5,9.5v13.4L116,72.8z M116,58.6v-3l3.3,0l6.2,6.2v6.3L116,58.6z
					 M116,55v-2.7l2.7,2.7H116z M120.1,55.6h5.4V61L120.1,55.6z M40.5,125.5l0-20.5l4.4,4.4v6.6h6.6l3.5,3.5v6.6h6.6l4.4,4.5H45.5
					L40.5,125.5z M44.6,130.5h-4.2v-4.2L44.6,130.5z M42.8,85.9l2.2,2.2v13.4L40.5,97v-8.8L42.8,85.9z M40.5,87.4v-3.8l1.9,1.9
					L40.5,87.4z M43.2,85.5l1.7-1.7v3.5L43.2,85.5z M44.9,102.3v6.3l-4.4-4.4v-6.3L44.9,102.3z M51.8,55.5H55v3l-9.5,9.5v-6.3
					L51.8,55.5z M45.5,60.9v-5.4h5.4L45.5,60.9z M52.3,54.9l2.7-2.6V55L52.3,54.9z M55,59.4v13.4l-9.5,9.5V68.9L55,59.4z M55,73.7
					v23.6l-9.5-9.5v-4.6L55,73.7z M55,98.1v13.4l-9.5-9.5V88.6L55,98.1z M55,112.4v3l-3.3,0.1l-6.2-6.2v-6.3L55,112.4z M55,116v2.7
					l-2.7-2.7H55z M50.9,115.4h-5.4V110L50.9,115.4z M115.4,51.7V55h-3l-9.5-9.5h6.3L115.4,51.7z M110,45.5h5.4v5.4L110,45.5z
					 M82.8,40.4l2.3,2.3l-2.2,2.2H69.5l4.5-4.5H82.8z M74.6,39.8l3.8-3.9l3.8,3.8L74.6,39.8z M97,40.4l4.4,4.4l-13.4,0l-2.2-2.2
					l2.3-2.3H97z M88.8,39.9l3.8-3.9l3.8,3.8L88.8,39.9z M87.2,44.9h-3.4l1.7-1.7L87.2,44.9z M85.5,42.3l-1.9-1.9h3.8L85.5,42.3z
					 M82.3,45.5L72.9,55H59.5l9.5-9.5L82.3,45.5z M83.2,45.5h4.6l9.5,9.5H73.7L83.2,45.5z M88.7,45.5h13.4l9.5,9.5H98.1L88.7,45.5z
					 M112.1,55.6l3.3,3.3v13.4L98.7,55.6H112.1z M113,55.6h2.4V58L113,55.6z M102.3,44.9l-4.4-4.4h6.3l4.4,4.4H102.3z M97.3,39.8
					l-4.7-4.6L88,39.8h-5l-4.7-4.6l-4.6,4.6h-6.3L82,25.3h7l14.5,14.5H97.3z M73.1,40.5l-4.4,4.4h-6.3l4.4-4.4L73.1,40.5z
					 M68.1,45.5L58.6,55h-3v-3.3l6.2-6.2H68.1z M55.6,50.9v-5.4H61L55.6,50.9z M58,55.6L55.6,58v-2.4H58z M58.8,55.6h13.4L55.6,72.3
					V58.8L58.8,55.6z M73.1,55.6h24.8l17.5,17.5v24.8l-17.5,17.5H73.1L55.6,97.9V73.1L73.1,55.6z M88.2,130.5l-2.3-2.3L88,126h13.4
					l-4.4,4.5L88.2,130.5z M96.4,131.1l-3.8,3.9l-3.8-3.8L96.4,131.1z M74,130.5l-4.4-4.4h13.4l2.2,2.2l-2.3,2.3L74,130.5z
					 M82.2,131.1l-3.8,3.9l-3.8-3.8L82.2,131.1z M83.2,125.5l-9.5-9.5h23.6l-9.4,9.5H83.2z M87.3,126.1l-1.7,1.7l-1.7-1.7H87.3z
					 M82.4,125.5H68.9l-9.5-9.5h13.4L82.4,125.5z M85.5,128.7l1.9,1.9h-3.8L85.5,128.7z M88.7,125.5l9.5-9.5h13.4l-9.5,9.5
					L88.7,125.5z M98.7,115.4l16.7-16.7v13.4l-3.3,3.3H98.7z M72.3,115.4H58.8l-3.3-3.3V98.7L72.3,115.4z M58,115.4h-2.4V113
					L58,115.4z M58.5,116l9.5,9.5h-6.2l-6.3-6.2V116H58.5z M60.9,125.5h-5.4v-5.4L60.9,125.5z M62.4,126.1h6.3l4.4,4.4h-6.3
					L62.4,126.1z M73.7,131.1l4.7,4.7l4.7-4.6h5l4.7,4.6l4.6-4.6h6.3L89,145.6h-7l-14.6-14.5L73.7,131.1z M97.8,130.5l4.4-4.4h6.3
					l-4.4,4.4H97.8z M102.9,125.5l9.5-9.5h3v3.2l-6.2,6.2H102.9z M115.4,120.1v5.4H110L115.4,120.1z M113,115.4l2.4-2.4v2.4H113z
					 M96.2,11.1l13.6,13.6H89.3l-3.4-3.4L96.2,11.1z M85.5,21.7l2.9,3h-5.9L85.5,21.7z M74.8,11.1l10.3,10.3l-3.4,3.4H61.2
					L74.8,11.1z M60.6,25.3h20.5L66.6,39.8H46.1L60.6,25.3z M40.5,25.3h19.3L45.2,39.8h-4.8V25.3z M40.5,40.4h4.2l-4.2,4.2V40.4z
					 M40.5,45.4l5-5H66l-4.4,4.5H55v6.6L51.5,55h-6.6v6.6L40.5,66V45.4z M44.9,62.4v6.3l-4.4,4.4l0-6.3L44.9,62.4z M40.5,74l4.4-4.4
					v13.4l-2.2,2.2l-2.3-2.3L40.5,74z M40.5,145.7v-14.5h4.8l14.5,14.5L40.5,145.7z M46.1,131.1h20.5l14.5,14.5H60.6L46.1,131.1z
					 M74.8,159.9l-13.6-13.6h20.5l3.4,3.4L74.8,159.9z M85.5,149.2l-2.9-3h5.9L85.5,149.2z M96.2,159.9l-10.3-10.3l3.4-3.4h20.5
					L96.2,159.9z M110.4,145.7H89.9l14.5-14.5h20.5L110.4,145.7z M130.5,145.7h-19.3l14.5-14.5h4.8V145.7z M130.5,130.5h-4.2
					l4.2-4.2V130.5z M125.5,130.5H105l4.4-4.4h6.6v-6.6l3.5-3.5h6.6v-6.6l4.4-4.4l0,20.5L125.5,130.5z M128.2,85.9l2.3,2.3l0,8.9
					l-4.4,4.4V88.1L128.2,85.9z M126.1,87.3v-3.5l1.7,1.7L126.1,87.3z M128.7,85.5l1.9-1.9v3.8L128.7,85.5z M130.5,97.9v6.3
					l-4.4,4.4v-6.3L130.5,97.9z M130.5,82.8l-2.3,2.3l-2.1-2.2V69.5l4.5,4.5L130.5,82.8z M130.5,39.9h-4.8l-14.5-14.6h19.3
					L130.5,39.9z M131.1,125v-20.6l14.5-14.5v20.6L131.1,125z M145.6,130.6h-14.5v-4.8l14.5-14.5L145.6,130.6z M145.6,89.1
					l-14.5,14.5v-6.3l4.7-4.6l-4.6-4.6v-5l4.6-4.7l-4.6-4.6v-6.3L145.7,82L145.6,89.1z M131.1,74.6l3.9,3.8l-3.8,3.8L131.1,74.6z
					 M145.6,81.1l-14.5-14.6V46l14.5,14.5L145.6,81.1z M145.6,59.8l-14.5-14.6v-4.8h14.5L145.6,59.8z M159.9,96.2l-13.6,13.6V89.3
					l3.4-3.4L159.9,96.2z"/>
			</g>
		</g>
		<g>
			<defs>
				<rect id="SVGID_5_" y="106.9" width="171" height="64.1"/>
			</defs>
			<clipPath id="SVGID_6_">
				<use xlink:href="#SVGID_5_"  style="overflow:visible;"/>
			</clipPath>
			<g class="st3">
				<linearGradient id="SVGID_7_" gradientUnits="userSpaceOnUse" x1="67.5625" y1="103.4525" x2="103.4375" y2="67.5775">
					<stop  offset="0" style="stop-color:#F8A27B"/>
					<stop  offset="1" style="stop-color:#F05225"/>
				</linearGradient>
				<path class="st4" d="M65,94v6.9h5v5h7l4.9,4.9l3.6-3.6l3.6,3.6l5-4.9h6.9v-5h5v-7l4.9-4.9l-3.6-3.6l3.6-3.6l-4.9-5v-6.9h-5v-5
					h-7l-4.9-4.9l-3.6,3.5l-3.6-3.6L77,65h-6.9v5h-5v7l-4.9,4.9l3.6,3.6L60.2,89L65,94z M70.7,105.3v-4.4H72l4.4,4.4H70.7z
					 M70.7,100.3v-0.7l0.7,0.7H70.7z M72.8,100.9h6.3l4.4,4.4h-6.3L72.8,100.9z M80,100.9h11l-4.4,4.4h-2.2L80,100.9z M82,110
					l-4.1-4.1h6.3l0.9,0.9L82,110z M85,106h1l-0.5,0.5L85,106z M89.1,110l-3.1-3.1l0.9-0.9h6.3L89.1,110z M93.7,105.3h-6.3l4.4-4.4
					h6.3L93.7,105.3z M100.3,105.3h-5.8l4.4-4.4h1.3V105.3z M100.3,100.3h-0.7l0.7-0.7L100.3,100.3z M100.3,98.8l-1.6,1.6h-6.3
					l7.8-7.8L100.3,98.8z M105.3,86.6l-4.4,4.4V80l4.4,4.4L105.3,86.6z M110,89.1l-4.1,4.1v-6.3l0.9-0.9L110,89.1z M105.9,77.9
					l4.1,4.1l-3.1,3.1l-0.9-0.9V77.9z M105.9,85.1l0.5,0.5l-0.5,0.5V85.1z M100.9,70.7h4.4l0,5.8l-4.4-4.5V70.7z M100.9,72.8
					l4.4,4.4v6.4l-4.4-4.4V72.8z M100.9,91.9l4.4-4.4v6.3l-4.4,4.4V91.9z M100.9,99l4.4-4.4v5.8h-4.4V99z M100.3,72.3l0,6.3
					l-7.8-7.8h6.3L100.3,72.3z M99.6,70.7h0.7v0.7L99.6,70.7z M100.3,65.7v4.4H99l-4.4-4.4H100.3z M98.1,70.1h-6.2l-4.4-4.4h6.3
					L98.1,70.1z M91,70.1H80l4.4-4.4h2.2L91,70.1z M89,61l4.1,4.1h-6.2l-0.9-0.9L89,61z M85.5,64.5L86,65h-1L85.5,64.5z M81.9,61
					l3.1,3.1l-0.9,0.9h-6.3L81.9,61z M77.3,65.7h6.3l-4.4,4.4h-6.3L77.3,65.7z M72.2,70.7h6.3l-7.8,7.8l0-6.3L72.2,70.7z M70.7,71.4
					v-0.7h0.7L70.7,71.4z M70.7,65.7h5.8L72,70.1h-1.3L70.7,65.7z M70.7,79.4l8.7-8.7h12.3l8.7,8.7l0,12.3l-8.7,8.7H79.4l-8.7-8.7
					V79.4z M70.7,92.5l7.8,7.8h-6.3l-1.6-1.6L70.7,92.5z M70,100.3h-4.4v-5.7l4.5,4.4L70,100.3z M70,91l-4.4-4.4v-2.2l4.5-4.4L70,91
					z M65.6,70.7H70V72l-4.4,4.4V70.7z M65.6,77.3l4.4-4.4v6.2l-4.4,4.4V77.3z M65.6,87.4l4.4,4.4v6.3l-4.4-4.4V87.4z M61,81.9
					l4.1-4.1l0,6.3l-0.9,0.9L61,81.9z M65,85v1l-0.5-0.5L65,85z M64.1,85.9l0.9,0.9l0,6.2l-4-4L64.1,85.9z"/>
				<linearGradient id="SVGID_8_" gradientUnits="userSpaceOnUse" x1="32.305" y1="138.695" x2="138.695" y2="32.305">
					<stop  offset="0" style="stop-color:#F8A27B"/>
					<stop  offset="1" style="stop-color:#F05225"/>
				</linearGradient>
				<path class="st5" d="M160.7,74.8l-14.5-14.5V39.9h-15.1V24.8h-20.5L96.2,10.3L85.5,21L74.8,10.3L60.3,24.8H39.9v15.1H24.8v20.5
					L10.3,74.8L21,85.5L10.3,96.2l14.5,14.5v20.5h15.1v15.1h20.5l14.5,14.5L85.5,150l10.7,10.7l14.5-14.5h20.5v-15.1h15.1v-20.5
					l14.5-14.5L150,85.5L160.7,74.8z M24.7,109.8L11.1,96.2l10.3-10.3l3.4,3.4L24.7,109.8z M21.7,85.4l3-3v6L21.7,85.4z M24.7,81.7
					l-3.4,3.4L11.1,74.8l13.6-13.6L24.7,81.7z M39.8,130.5H25.3v-19.3l14.5,14.5L39.8,130.5z M39.8,124.9l-14.5-14.5V89.9l14.5,14.5
					L39.8,124.9z M35.2,78.4l4.7,4.6v5l-4.6,4.7l4.6,4.6v6.3L25.3,89v-7l14.5-14.6l0,6.3L35.2,78.4z M39.8,82.2L36,78.4l3.8-3.8
					L39.8,82.2z M39.8,96.4L36,92.6l3.8-3.8L39.8,96.4z M39.8,66.6L25.3,81.1V60.6l14.5-14.5L39.8,66.6z M39.8,45.2L25.3,59.7V40.5
					h14.5L39.8,45.2z M159.9,74.9l-10.2,10.2l-3.4-3.4l0-20.5L159.9,74.9z M146.2,82.6l3,3l-3,3V82.6z M135,92.6l-3.8,3.8l-0.1-7.6
					L135,92.6z M124.9,39.9h-20.5L89.9,25.3h20.5L124.9,39.9z M130.5,45.5l0,20.6l-4.4-4.4V55h-6.6l-3.5-3.5v-6.6h-6.6l-4.4-4.5
					h20.5L130.5,45.5z M126.4,40.5h4.2v4.2L126.4,40.5z M130.5,66.8v6.3l-4.4-4.4v-6.3L130.5,66.8z M119.2,115.5H116v-3l9.5-9.5v6.3
					L119.2,115.5z M125.5,110.1v5.4h-5.4L125.5,110.1z M118.7,116.1l-2.7,2.6V116L118.7,116.1z M116,111.5V98.1l9.5-9.5v13.4
					L116,111.5z M116,97.3V73.7l9.5,9.5v4.6L116,97.3z M116,72.9V59.5l9.5,9.5v13.4L116,72.9z M116,58.6v-3l3.3,0l6.2,6.2v6.3
					L116,58.6z M116,55v-2.7l2.7,2.7H116z M120.1,55.6h5.4V61L120.1,55.6z M40.5,125.5l0-20.5l4.4,4.4v6.6h6.6l3.5,3.5v6.6h6.6
					l4.4,4.5H45.5L40.5,125.5z M44.6,130.5h-4.2v-4.2L44.6,130.5z M42.8,85.9l2.2,2.2v13.4L40.5,97v-8.8L42.8,85.9z M40.5,87.4v-3.8
					l1.9,1.9L40.5,87.4z M43.2,85.5l1.7-1.7v3.5L43.2,85.5z M44.9,102.3v6.3l-4.4-4.4v-6.3L44.9,102.3z M51.8,55.6H55v3l-9.5,9.5
					v-6.3L51.8,55.6z M45.5,61v-5.4h5.4L45.5,61z M52.3,55l2.7-2.6V55L52.3,55z M55,59.5v13.4l-9.5,9.5V68.9L55,59.5z M55,73.7v23.6
					l-9.5-9.5v-4.6L55,73.7z M55,98.1v13.4l-9.5-9.5V88.7L55,98.1z M55,112.4v3l-3.3,0.1l-6.2-6.2v-6.3L55,112.4z M55,116v2.7
					l-2.7-2.7H55z M50.9,115.4h-5.4V110L50.9,115.4z M115.4,51.7V55h-3l-9.5-9.5h6.3L115.4,51.7z M110,45.5h5.4v5.4L110,45.5z
					 M82.8,40.5l2.3,2.3l-2.2,2.2H69.5l4.5-4.5H82.8z M74.6,39.9l3.8-3.9l3.8,3.8L74.6,39.9z M97,40.4l4.4,4.4l-13.4,0l-2.2-2.2
					l2.3-2.3H97z M88.8,39.9l3.8-3.9l3.8,3.8L88.8,39.9z M87.2,44.9h-3.4l1.7-1.7L87.2,44.9z M85.5,42.3l-1.9-1.9h3.8L85.5,42.3z
					 M82.3,45.5L72.9,55H59.5l9.5-9.5L82.3,45.5z M83.2,45.5h4.6l9.5,9.5H73.7L83.2,45.5z M88.7,45.5h13.4l9.5,9.5H98.1L88.7,45.5z
					 M112.1,55.6l3.3,3.3v13.4L98.7,55.6H112.1z M113,55.6h2.4V58L113,55.6z M102.3,44.9l-4.4-4.4h6.3l4.4,4.4H102.3z M97.3,39.9
					l-4.7-4.6L88,39.9h-5l-4.7-4.6l-4.6,4.6h-6.3L82,25.3h7l14.5,14.5H97.3z M73.1,40.5l-4.4,4.4h-6.3l4.4-4.4L73.1,40.5z
					 M68.1,45.5L58.6,55h-3v-3.3l6.2-6.2H68.1z M55.6,50.9v-5.4H61L55.6,50.9z M58,55.6L55.6,58v-2.4H58z M58.8,55.6h13.4L55.6,72.3
					V58.8L58.8,55.6z M73.1,55.6h24.8l17.5,17.5v24.8l-17.5,17.5H73.1L55.6,97.9V73.1L73.1,55.6z M88.2,130.5l-2.3-2.3L88,126h13.4
					l-4.4,4.5L88.2,130.5z M96.4,131.1l-3.8,3.9l-3.8-3.8L96.4,131.1z M74,130.5l-4.4-4.4h13.4l2.2,2.2l-2.3,2.3L74,130.5z
					 M82.2,131.1l-3.8,3.9l-3.8-3.8L82.2,131.1z M83.2,125.5l-9.5-9.5h23.6l-9.4,9.5H83.2z M87.3,126.1l-1.7,1.7l-1.7-1.7H87.3z
					 M82.4,125.5H68.9l-9.5-9.5h13.4L82.4,125.5z M85.5,128.7l1.9,1.9h-3.8L85.5,128.7z M88.7,125.5l9.5-9.5h13.4l-9.5,9.5
					L88.7,125.5z M98.7,115.4l16.7-16.7v13.4l-3.3,3.3H98.7z M72.3,115.4H58.8l-3.3-3.3V98.7L72.3,115.4z M58,115.4h-2.4V113
					L58,115.4z M58.5,116l9.5,9.5h-6.2l-6.3-6.2V116H58.5z M60.9,125.5h-5.4v-5.4L60.9,125.5z M62.4,126.1h6.3l4.4,4.4h-6.3
					L62.4,126.1z M73.7,131.1l4.7,4.7l4.7-4.6h5l4.7,4.6l4.6-4.6h6.3L89,145.7h-7l-14.6-14.5L73.7,131.1z M97.8,130.5l4.4-4.4h6.3
					l-4.4,4.4H97.8z M102.9,125.5l9.5-9.5h3v3.2l-6.2,6.2H102.9z M115.4,120.1v5.4H110L115.4,120.1z M113,115.4l2.4-2.4v2.4H113z
					 M96.2,11.1l13.6,13.6H89.3l-3.4-3.4L96.2,11.1z M85.5,21.8l2.9,3h-5.9L85.5,21.8z M74.8,11.1l10.3,10.3l-3.4,3.4H61.2
					L74.8,11.1z M60.6,25.3h20.5L66.6,39.9H46.1L60.6,25.3z M40.5,25.3h19.3L45.2,39.9h-4.8V25.3z M40.5,40.5h4.2l-4.2,4.2V40.5z
					 M40.5,45.5l5-5H66l-4.4,4.5H55v6.6L51.5,55h-6.6v6.6L40.5,66V45.5z M44.9,62.4v6.3l-4.4,4.4l0-6.3L44.9,62.4z M40.5,74l4.4-4.4
					v13.4l-2.2,2.2l-2.3-2.3L40.5,74z M40.5,145.7v-14.5h4.8l14.5,14.5L40.5,145.7z M46.1,131.1h20.5l14.5,14.5H60.6L46.1,131.1z
					 M74.8,159.9l-13.6-13.6h20.5l3.4,3.4L74.8,159.9z M85.5,149.3l-2.9-3h5.9L85.5,149.3z M96.2,159.9l-10.3-10.3l3.4-3.4h20.5
					L96.2,159.9z M110.4,145.7H89.9l14.5-14.5h20.5L110.4,145.7z M130.5,145.7h-19.3l14.5-14.5h4.8V145.7z M130.5,130.6h-4.2
					l4.2-4.2V130.6z M125.5,130.6H105l4.4-4.4h6.6v-6.6l3.5-3.5h6.6v-6.6l4.4-4.4l0,20.5L125.5,130.6z M128.2,85.9l2.3,2.3l0,8.9
					l-4.4,4.4V88.1L128.2,85.9z M126.1,87.3v-3.5l1.7,1.7L126.1,87.3z M128.7,85.5l1.9-1.9v3.8L128.7,85.5z M130.5,97.9v6.3
					l-4.4,4.4v-6.3L130.5,97.9z M130.5,82.8l-2.3,2.3l-2.1-2.2V69.5l4.5,4.5L130.5,82.8z M130.5,39.9h-4.8l-14.5-14.6h19.3
					L130.5,39.9z M131.1,125v-20.6l14.5-14.5v20.6L131.1,125z M145.6,130.6h-14.5v-4.8l14.5-14.5L145.6,130.6z M145.6,89.1
					l-14.5,14.5v-6.3l4.7-4.6l-4.6-4.6v-5l4.6-4.7l-4.6-4.6v-6.3L145.7,82L145.6,89.1z M131.1,74.6l3.9,3.8l-3.8,3.8L131.1,74.6z
					 M145.6,81.2l-14.5-14.6V46.1l14.5,14.5L145.6,81.2z M145.6,59.8l-14.5-14.6v-4.8h14.5L145.6,59.8z M159.9,96.2l-13.6,13.6V89.3
					l3.4-3.4L159.9,96.2z"/>
			</g>
		</g>
		<path class="st6" d="M33.2,77.8c3,0,4.7,1.3,4.7,4c0.1,1.4-0.5,2.7-1.7,3.4c1.3,0.5,2.1,1.7,2.1,3.7c0,2.3-1.3,4.5-4.7,4.5H29
			V77.8H33.2z M31.6,84.1h1.7c1.4,0,2-0.9,2-2.2S34.9,80,33,80h-1.4L31.6,84.1z M31.6,91.1h1.8c1.6,0,2.2-0.9,2.2-2.3
			c0-1.7-0.7-2.3-2.5-2.3h-1.6L31.6,91.1z"/>
		<path class="st6" d="M41.3,93.3l4.3-15.6h2.6l4.4,15.6h-2.8L49,90.1h-4.2L44,93.3H41.3z M45.4,87.8h3L47,81.7L45.4,87.8z"/>
		<path class="st6" d="M62.7,82.6c-0.2-1.9-0.9-2.8-2.2-2.8c-1.5,0-2.3,1.3-2.3,4.7v2c0,3.3,0.7,4.7,2.3,4.7c1.3,0,1.9-0.9,2.2-2.8
			h2.5c-0.4,3.5-2,5-4.7,5c-2.9,0-4.9-2.1-4.9-7v-2c0-4.9,2-7,4.9-7c2.5,0,4.2,1.7,4.7,5L62.7,82.6z"/>
		<path class="st6" d="M77,93.3l-3.2-6.9l-1.7,2.9v4h-2.7V77.8h2.6v7.3l4.1-7.3h2.9L75.5,84l4.4,9.3L77,93.3z"/>
		<path class="st6" d="M90,81.5c-0.4-1-1.4-1.7-2.5-1.7c-1.3,0-1.8,0.7-1.8,2c0,1.5,0.8,2.1,2.5,2.6c2.7,0.7,3.9,2,3.9,4.7
			c0.2,2.3-1.6,4.3-3.9,4.5c-0.2,0-0.4,0-0.5,0c-2,0.1-3.8-0.8-4.9-2.5l2-1.4c0.5,1,1.6,1.7,2.7,1.7c1.5,0,2-0.9,2-2.1
			s-0.5-2-2.6-2.6c-2.5-0.7-3.8-2.1-3.8-4.7c-0.2-2.2,1.5-4.1,3.7-4.3c0.2,0,0.5,0,0.7,0c1.9-0.1,3.6,0.9,4.5,2.5L90,81.5z"/>
		<path class="st6" d="M104.7,77.8V80h-3.5v13.3h-2.6V80h-3.5v-2.2H104.7z"/>
		<path class="st6" d="M106.4,93.3l4.3-15.6h2.6l4.4,15.6h-2.8l-0.8-3.2h-4.2l-0.8,3.2H106.4z M110.5,87.8h3l-1.5-6.1L110.5,87.8z"
			/>
		<path class="st6" d="M130.3,85.3v1.2c0,5-1.8,7-4.7,7s-4.9-2.1-4.9-7v-1.9c0-5,2-7.1,4.9-7.1c2.6,0,4.3,1.8,4.6,5h-2.5
			c-0.2-1.8-0.9-2.8-2.2-2.8c-1.5,0-2.3,1.3-2.3,4.7v2c0,3.4,0.7,4.7,2.3,4.7s2.1-1.1,2.2-3.6h-2.1v-2.2H130.3z"/>
		<path class="st6" d="M142.8,77.8V80h-5.3v4.1h4.7v2.3h-4.7V91h5.3v2.3h-7.9V77.8H142.8z"/>
	</g>
</g>
</svg>
