<svg xmlns="http://www.w3.org/2000/svg" xmlns:xlink="http://www.w3.org/1999/xlink" viewBox="0 0 316.77 316.77"><defs><style>.cls-1{fill:url(#New_Gradient_Swatch_16);}</style><linearGradient id="New_Gradient_Swatch_16" x1="46.39" y1="46.39" x2="270.38" y2="270.38" gradientUnits="userSpaceOnUse"><stop offset="0" stop-color="#f8a27b"/><stop offset="1" stop-color="#f05225"/></linearGradient></defs><title>backstage-abstract</title><g id="Layer_2" data-name="Layer 2"><g id="Layer_1-2" data-name="Layer 1"><path class="cls-1" d="M316.77,135.88,286.29,105.4V62.3H254.47V30.48h-43.1L180.88,0l-22.5,22.5L135.88,0,105.4,30.48H62.3V62.3H30.48v43.1L0,135.88l22.5,22.5L0,180.88l30.48,30.48v43.1H62.3v31.82h43.1l30.48,30.48,22.5-22.5,22.5,22.5,30.48-30.48h43.1V254.47h31.82v-43.1l30.48-30.48-22.5-22.5ZM30.48,209.6,1.77,180.88l21.62-21.62,7.1,7.1Zm0-45-6.21-6.21,6.21-6.21Zm0-14.19-7.1,7.1L1.77,135.88l28.71-28.71ZM62.3,253.22H31.73v-40.6L62.3,243.18Zm0-11.8L31.73,210.85V167.61L62.3,198.18Zm0-60-8-8,8-8Zm0-30-8-8,8-8Zm0-17.83-9.8,9.8,9.8,9.8v10.4l-9.8,9.8,9.8,9.8v13.23L31.73,165.85V150.92L62.3,120.35Zm0-15L31.73,149.15V105.92L62.3,75.35Zm0-45L31.73,104.15V63.55H62.3ZM241.42,62.3H198.18L167.61,31.73h43.23Zm-20,25v6.84H215l-20-20h13.23ZM210,74.16H221.4V85.51Zm-1.77,168.45H195l20-20h6.4v6.84Zm13.13-11.36v11.36H210Zm-126-1.77v-6.84h6.4l20,20H108.49Zm11.36,13.13H95.37V231.25Zm57.37,10.61-4.83-4.83,4.52-4.52H192l-9.36,9.36Zm17.31,1.25-8,8-8-8Zm-47.31-1.25-9.36-9.36H153l4.52,4.52-4.83,4.83Zm17.31,1.25-8,8-8-8Zm3.33-10.61H162l-3.64,3.64Zm3.64,5.41,4,4h-7.9Zm6.66-6.66,20-20h28.23l-20,20Zm-1.77,0h-9.78l-20-20h49.7Zm-11.55,0H123.49l-20-20h28.23ZM102.28,221.4l-6.91-6.91V186.25l35.15,35.15Zm-1.77,0H95.37v-5.15ZM123,243.86l9.36,9.36H119.1l-9.36-9.36Zm10.61,10.61,9.8,9.8,9.8-9.8h10.4l9.8,9.8,9.8-9.8h13.23L165.85,285H150.92l-30.57-30.57Zm50.85-1.25,9.36-9.36H207l-9.36,9.36Zm31.82-31.82,5.15-5.15v5.15Zm-1.77,0H186.25l35.15-35.15v28.23Zm-30,0h-52.2L95.37,184.49v-52.2l36.91-36.91h52.2l36.91,36.91v52.2Zm-76-147.24h13.23l-20,20h-6.4V87.28ZM95.37,85.51V74.16h11.36Zm57.3-22,4.83,4.83L153,72.91H124.74l9.36-9.36ZM135.35,62.3l8-8,8,8Zm19.08,1.25h7.9l-4,4ZM162,72.91h-7.28l3.64-3.64Zm-10.3,1.25-20,20H103.53l20-20Zm1.77,0h9.78l20,20h-49.7Zm11.55,0h28.23l20,20H185Zm-1.25-1.25-4.52-4.52,4.83-4.83h18.56L192,72.91Zm1.56-10.61,8-8,8,8Zm8-9.8-9.8,9.8h-10.4l-9.8-9.8-9.8,9.8H120.35l30.57-30.57h14.92L196.42,62.3H183.18Zm-41,11L123,72.91H109.74l9.36-9.36ZM100.52,95.37l-5.15,5.15V95.37Zm1.77,0h28.23L95.37,130.51V102.28Zm84,0h28.23l6.91,6.91v28.23Zm30,0h5.15v5.15ZM193.79,72.91l-9.36-9.36h13.23L207,72.91ZM180.88,1.77,209.6,30.48H166.36l-7.1-7.1ZM164.6,30.48H152.17l6.21-6.21ZM135.88,1.77,157.5,23.38l-7.1,7.1H107.17Zm-30,30h43.23L118.58,62.3H75.35Zm-42.37,0h40.6L73.58,62.3h-10Zm0,31.82h8.78l-8.78,8.78Zm0,10.55L74.1,63.55h43.23L108,72.91H94.12V86.76l-7.35,7.35H72.91V108l-9.36,9.36ZM87.28,221.4,74.16,208.27V195l20,20v6.4Zm6.84,1.25v5.59l-5.59-5.59Zm-8.6-1.25H74.16V210ZM74.16,193.27V165l20,20v28.23Zm0-30V153.5l20-20v49.7Zm0-11.54V123.5l20-20v28.23Zm0-30V108.5L87.28,95.37h6.84v6.4Zm0-15V95.37H85.52ZM88.53,94.12l5.59-5.59v5.59Zm-25,25,9.36-9.36V123l-9.36,9.36Zm0,15,9.36-9.36V153l-4.52,4.52-4.83-4.83Zm9.36,20.64V162l-3.64-3.64Zm-9.36-.31,4,4-4,4Zm0,9.67,4.83-4.83,4.52,4.52V192l-9.36-9.36Zm0,20.33,9.36,9.36V207l-9.36-9.36Zm0,15,9.36,9.36v13.86H86.77L94.12,230v13.86H108l9.36,9.36H74.1L63.55,242.67Zm0,45,8.78,8.78H63.55Zm0,40.6V254.47h10L104.15,285Zm11.8-30.57h43.23L149.15,285H105.92ZM135.88,315l-28.71-28.71H150.4l7.1,7.1Zm16.29-28.71H164.6l-6.21,6.21ZM180.88,315l-21.62-21.62,7.1-7.1H209.6Zm30-30H167.61l30.57-30.57h43.23Zm42.37,0h-40.6l30.57-30.57h10Zm0-31.82h-8.78l8.78-8.78Zm0-10.55-10.55,10.55H199.43l9.36-9.36h13.86V230l7.35-7.35h13.86V208.79l9.36-9.36ZM229.48,95.37l13.13,13.13v13.23l-20-20v-6.4Zm-6.84-1.25V88.53l5.59,5.59Zm8.6,1.25h11.36v11.36Zm11.36,28.13v28.23l-20-20V103.53Zm0,30v9.78l-20,20v-49.7Zm0,11.54v28.23l-20,20V185Zm0,30v13.23L229.48,221.4h-6.84V215Zm0,15V221.4H231.25Zm-14.38,12.61-5.59,5.59v-5.59Zm25-25L243.86,207V193.79l9.36-9.36Zm0-15L243.86,192V163.79l4.52-4.52,4.83,4.83ZM243.86,162v-7.28l3.64,3.64Zm9.36.31-4-4,4-4Zm0-9.67-4.83,4.83L243.86,153V124.75l9.36,9.36Zm0-20.33L243.86,123V109.75l9.36,9.36Zm0-15L243.86,108V94.12H230l-7.35-7.35V72.91H208.79l-9.36-9.36h43.23L253.22,74.1Zm0-45-8.78-8.78h8.78Zm0-10h-10L212.61,31.73h40.6Zm1.25,73.05,8,8-8,8Zm0,30,8,8-8,8ZM285,253.22H254.47v-10L285,212.61Zm0-42.37-30.57,30.57V198.18L285,167.61Zm0-45-30.57,30.57V183.18l9.8-9.8-9.8-9.8v-10.4l9.8-9.8-9.8-9.8V120.35L285,150.92Zm0-16.69-30.57-30.57V75.35L285,105.92Zm0-45L254.47,73.58v-10H285Zm1.25,3L315,135.88,293.38,157.5l-7.1-7.1Zm0,45,6.21,6.21-6.21,6.21ZM315,180.88,286.29,209.6V166.36l7.1-7.1ZM201.43,140.55V125.94H190.83V115.33H176.22L165.88,105l-7.5,7.5-7.5-7.5-10.33,10.33H125.94v10.61H115.33v14.61L105,150.88l7.5,7.5-7.5,7.5,10.33,10.33v14.61h10.61v10.61h14.61l10.33,10.33,7.5-7.5,7.5,7.5,10.33-10.33h14.61V190.83h10.61V176.22l10.33-10.33-7.5-7.5,7.5-7.5Zm-86.1,33.9-8.57-8.57,6.62-6.62,1.95,1.95Zm0-15-1.07-1.07,1.07-1.07Zm0-3.9-1.95,1.95-6.62-6.62,8.57-8.57Zm10.61,34h-9.36V177.47l9.36,9.36Zm0-4.52-9.36-9.36V162.47l9.36,9.36Zm0-15-9.36-9.36v-4.63l9.36-9.36Zm0-25.11-9.36,9.36V141.07l9.36-9.36Zm0-15-9.36,9.36V127.19h9.36Zm59.12-4H171.82l-9.36-9.36H175.7Zm-15,0H146.71l9.36-9.36h4.63Zm-4.17-19.17,8.56,8.56H161.22l-1.95-1.95Zm-6.44,8.56h-2.13l1.06-1.06Zm-8.56-8.56,6.62,6.62-1.95,1.95H142.32Zm-9.81,9.81H154.3l-9.36,9.36H131.71Zm-13.88,0H139.3l-9.36,9.36h-2.76Zm0,10.61h1.51l-1.51,1.51Zm0,3.27,3.27-3.27H143.7L127.19,143.7Zm0,42.61,16.51,16.51H130.46l-3.27-3.27Zm0,15,1.51,1.51h-1.51Zm0,12.11v-9.36h2.76l9.36,9.36Zm4.52-9.36h13.23l9.36,9.36H141.07Zm15,0h23.34l-9.36,9.36h-4.63ZM150.88,210l-8.56-8.56h13.23l1.95,1.95Zm6.44-8.56h2.13l-1.06,1.06Zm8.56,8.56-6.62-6.62,1.95-1.95h13.23Zm9.81-9.81H162.47l9.36-9.36h13.23Zm13.88,0H177.47l9.36-9.36h2.76Zm0-10.61h-1.51l1.51-1.51Zm0-3.27-3.27,3.27H173.07l16.51-16.51Zm0-15L171.3,189.58H145.46L127.19,171.3V145.46l18.27-18.27H171.3l18.27,18.27Zm0-27.61-16.51-16.51H186.3l3.27,3.27Zm0-15-1.51-1.51h1.51Zm0-2.76h-2.76l-9.36-9.36h12.11Zm10.61,63.64h-9.36v-2.76l9.36-9.36Zm0-13.88-9.36,9.36V171.82l9.36-9.36Zm0-15-9.36,9.36V146.71l9.36,9.36Zm0-6.4-9.36-9.36V131.71l9.36,9.36Zm0-15-9.36-9.36v-2.76h9.36Zm1.25,18,1.07,1.07-1.07,1.07Zm8.57,8.57-8.57,8.57V161.22l1.95-1.95Zm-6.62-8.38-1.95-1.95V142.32l8.57,8.57Z"/></g></g></svg>