<?xml version="1.0" encoding="utf-8"?>
<!-- Generator: Adobe Illustrator 21.1.0, SVG Export Plug-In . SVG Version: 6.00 Build 0)  -->
<svg version="1.1" id="Layer_1" xmlns="http://www.w3.org/2000/svg" xmlns:xlink="http://www.w3.org/1999/xlink" x="0px" y="0px"
	 viewBox="0 0 360 360" style="enable-background:new 0 0 360 360;" xml:space="preserve">
<style type="text/css">
	.st0{fill:url(#SVGID_1_);}
	.st1{fill:#121921;}
	.st2{fill:#FFFFFF;}
</style>
<title>founders-talk-cover-art</title>
<g id="Layer_2">
	<g id="Layer_1-2">
		
			<linearGradient id="SVGID_1_" gradientUnits="userSpaceOnUse" x1="68.325" y1="293.965" x2="291.975" y2="70.315" gradientTransform="matrix(1 0 0 -1 0 362)">
			<stop  offset="0" style="stop-color:#B0DED5"/>
			<stop  offset="1" style="stop-color:#61C4B4"/>
		</linearGradient>
		<path class="st0" d="M180.1,21.9L68.2,68.2L22,179.8l-0.1,0.2l45.9,110.7l0.1,0.2L180,338.1l111.6-46.2l0.2-0.1L338,180.2l0.1-0.2
			L291.9,68.4l-0.1-0.2L180.3,22L180.1,21.9z M336.7,180l-45.9,110.8L180,336.7L68.9,290L23.3,180L69.2,69.2l110.9-45.9l110.7,45.9
			L336.7,180z M63.3,131.5v96.1l68.3,69.2h96.8l68.4-68.4v-96.8l-68.4-68.4h-96.8L63.3,131.5z M227.8,64.5l67.6,67.6v95.7
			l-67.6,67.6h-95.6l-67.5-68.4v-95l67.5-67.6L227.8,64.5z M179.7,275.3l0.2,0.1l67.6-28l27.7-67.2l0.1-0.2l-27.9-67.5L180,84.6
			l-67.4,27.9l-28,67.5l27.9,67.5L179.7,275.3z M113.5,113.6L180,86.1l66.5,27.5L274,180l-27.4,66.4L180,274l-66.4-27.6L86,180
			L113.5,113.6z M207.5,246.6l39.2-39.1v-54.9l-39.2-39.1h-55.1l-39.2,39.1v54.9l39.2,39.1L207.5,246.6z M114.5,153.1l38.5-38.3h54
			l38.4,38.4v53.8L207,245.2h-54l-38.4-38.4L114.5,153.1z M220.8,220.8l16.9-40.8l-16.9-40.8L180,122.3l-40.8,16.9L122.3,180
			l16.9,40.8l40.8,16.9L220.8,220.8z M123.7,180l16.5-39.8l39.8-16.5l39.8,16.5l16.5,39.8l-16.5,39.8L180,236.3l-39.8-16.5
			L123.7,180z"/>
		<rect y="135" class="st1" width="360" height="90"/>
		<path class="st2" d="M37.6,163.7v4.8H26.4v9.4h10v4.8h-10v13.8h-5.5v-32.8H37.6z"/>
		<path class="st2" d="M43.4,182.1V178c0-10.3,4.2-14.7,10.3-14.7S64,167.7,64,178v4.2c0,10.3-4.2,14.7-10.3,14.7
			S43.4,192.4,43.4,182.1z M48.9,178v4.2c0,7.1,1.6,10,4.8,10s4.8-2.9,4.8-10V178c0-7.1-1.6-10-4.8-10S48.9,170.9,48.9,178z"/>
		<path class="st2" d="M92.4,163.7v19.5c0,9.7-4.3,13.7-10.3,13.7s-10.3-4-10.3-13.7v-19.5h5.5v19.5c0,6.3,1.4,8.9,4.8,8.9
			s4.8-2.6,4.8-8.9v-19.5H92.4z"/>
		<path class="st2" d="M121.5,163.7v32.8h-5l-9.6-19.4v19.4h-5.5v-32.8h4.9l9.7,19.7v-19.7H121.5z"/>
		<path class="st2" d="M130.5,196.4v-32.8h9.4c6,0,10.3,3.9,10.3,14.4v3.9c0,10.5-4.3,14.4-10.3,14.4H130.5z M144.7,182v-3.9
			c0-6.7-1.2-9.7-4.8-9.7H136v23.3h3.9C143.5,191.7,144.7,188.8,144.7,182z"/>
		<path class="st2" d="M174.8,163.7v4.8h-11.2v8.6h10v4.8h-10v9.8h11.2v4.8h-16.7v-32.8H174.8z"/>
		<path class="st2" d="M196.6,196.4l-4.8-13.3h-4.1v13.3h-5.5v-32.8h9.6c6.2,0,10,3.3,10,9.8c0,4.5-1.7,7.4-4.7,8.7l5.6,14.2
			L196.6,196.4z M191.1,178.4c3.3,0,5-1.2,5-4.9s-1.7-5-5-5h-3.5v10L191.1,178.4z"/>
		<path class="st2" d="M223.1,171.6c-1.1-2.2-2.6-3.6-5.1-3.6s-3.9,1.5-3.9,4.3c0,3.1,1.7,4.4,5.3,5.4c5.6,1.6,8.2,4.1,8.2,9.8
			c0,4.9-2.9,9.4-9.3,9.4c-4.7,0-8-1.7-10.3-5.4l4.2-2.9c1.6,2.3,2.9,3.5,5.8,3.5c3.2,0,4.1-2,4.1-4.4c0-2.6-1-4.2-5.4-5.5
			c-5.2-1.5-8-4.4-8-9.9c0-4.9,2.9-9.1,9.3-9.1c4.3,0,7.4,1.7,9.4,5.4L223.1,171.6z"/>
		<path class="st2" d="M265.5,163.7v4.8h-7.4v28h-5.5v-28h-7.4v-4.8H265.5z"/>
		<path class="st2" d="M267.2,196.4l9.2-32.8h5.4l9.2,32.8h-5.8l-1.7-6.8h-8.8l-1.7,6.8H267.2z M275.9,184.9h6.4l-3.1-12.9
			L275.9,184.9z"/>
		<path class="st2" d="M302.6,191.7h11.2v4.8h-16.7v-32.8h5.5V191.7z"/>
		<path class="st2" d="M335.7,196.4l-6.8-14.6l-3.5,6.1v8.4h-5.5v-32.7h5.5v15.4l8.6-15.4h6.2l-7.5,13.1l9.2,19.7L335.7,196.4z"/>
	</g>
</g>
</svg>
