<?xml version="1.0" encoding="utf-8"?>
<!-- Generator: Adobe Illustrator 21.1.0, SVG Export Plug-In . SVG Version: 6.00 Build 0)  -->
<svg version="1.1" id="Layer_1" xmlns="http://www.w3.org/2000/svg" xmlns:xlink="http://www.w3.org/1999/xlink" x="0px" y="0px"
	 viewBox="0 0 360 360" style="enable-background:new 0 0 360 360;" xml:space="preserve">
<style type="text/css">
	.st0{fill:url(#SVGID_1_);}
	.st1{fill:#121921;}
	.st2{fill:#FFFFFF;}
</style>
<title>go-time-cover-art</title>
<g id="Layer_2">
	<g id="Layer_1-2">
		
			<linearGradient id="SVGID_1_" gradientUnits="userSpaceOnUse" x1="68.8224" y1="293.8226" x2="292.4426" y2="70.2125" gradientTransform="matrix(1 0 0 -1 0 362)">
			<stop  offset="0" style="stop-color:#B0E2FA"/>
			<stop  offset="1" style="stop-color:#5ACBF5"/>
		</linearGradient>
		<path class="st0" d="M338.8,180c0-10.1-2.2-20.1-6.5-29.3c0.5-10.4-1.2-20.7-5.1-30.3c-3.9-9.7-10-18.4-17.8-25.4
			c-3.5-10.1-9.2-19.3-16.8-26.9c-7.2-7.1-15.8-12.6-25.3-16.1c-7-7.7-15.5-13.8-25.1-17.8c-9.6-4-20.1-5.8-30.5-5.3
			c-9.6-4.7-20.2-7.1-30.8-7.1l0,0c-10.4,0-20.6,2.3-30,6.7c-10.1-0.5-20.2,1.2-29.6,5c-9.9,4-18.8,10.2-26,18.2
			c-9.9,3.4-18.8,9-26.2,16.4c-7.4,7.3-13,16.2-16.5,26c-7.5,6.8-13.4,15.1-17.4,24.4c-4.2,9.9-6,20.5-5.5,31.2
			c-4.6,9.4-6.9,19.7-7,30.2c0,10.4,2.3,20.6,6.7,30c-0.5,10.1,1.2,20.2,5,29.6c4,9.9,10.2,18.8,18.2,25.9c3.4,9.9,9,18.9,16.4,26.3
			c7.3,7.4,16.2,13,26,16.5c6.8,7.5,15.1,13.4,24.4,17.4c8.7,3.7,18,5.6,27.4,5.6c1.2,0,2.3,0,3.5-0.1c9.5,4.6,19.9,6.9,30.5,6.9
			l0,0c10.2,0,20.3-2.2,29.6-6.5c1.1,0,2.2,0.1,3.4,0.1c9.1,0,18.2-1.8,26.6-5.3c9.7-4,18.3-10,25.3-17.8
			c10.1-3.5,19.3-9.2,26.9-16.8c7.1-7.2,12.6-15.8,16.1-25.3c7.7-7,13.8-15.5,17.8-25.1c4-9.6,5.9-20.1,5.3-30.5
			C336.3,201.3,338.8,190.7,338.8,180z M337.5,180c0,9.8-2,19.4-6,28.3c-0.8-9.5-3.6-18.7-8-27.2c1.2-2.2,2.3-4.4,3.2-6.7
			c2.8-6.7,4.6-13.8,5.2-21.1C335.6,161.8,337.5,170.8,337.5,180z M307.5,265.8c-5.9,5.3-12.7,9.5-20,12.5c-2,0.8-4,1.5-6.1,2.2
			c3-10.2,3.6-20.9,1.8-31.4c10.3-2.2,19.9-6.7,28.2-13.2C312.2,246,310.9,256.2,307.5,265.8L307.5,265.8z M49.9,235.8
			c8,6.3,17.3,10.7,27.2,13c-1.7,10.1-1.1,20.5,1.7,30.4c-2-0.6-4.1-1.4-6.1-2.2c-7-3-13.5-7-19.2-12.1
			C50.3,255.5,49,245.7,49.9,235.8z M49.4,118.1c0-7.9,1.3-15.8,4-23.3C61,88.1,69.9,83,79.6,80c-2.9,10.1-3.4,20.7-1.6,31
			c-10.4,2.3-20,7-28.4,13.6C49.5,122.4,49.4,120.3,49.4,118.1z M311.6,124.6c-8-6.4-17.4-10.9-27.4-13.3c1.7-10,1.3-20.3-1.4-30.1
			c9.4,3,18,8,25.4,14.6c2.5,7.2,3.7,14.8,3.7,22.4C311.9,120.3,311.8,122.4,311.6,124.6L311.6,124.6z M243,290.2
			c0,8-3.7,15.5-10.1,20.3c-9.9-1.4-19.4-4.9-27.8-10.3c1.1-1.6,2.1-3.2,3-4.9c5.8,2.1,12.1-0.8,14.3-6.5c2.1-5.8-0.8-12.1-6.5-14.3
			l0,0c0.4-1.9,0.7-3.8,0.9-5.7c5.2,4.2,10.9,7.6,17,10.2c2.5,1.1,5.1,2,7.7,2.7C242.5,284.5,243,287.4,243,290.2z M118.2,69.8
			c0-7.9,3.6-15.3,9.9-20.2c10,1.3,19.6,4.8,28.1,10.2c-1.1,1.6-2.1,3.2-3,4.9c-5.7-2.1-12.1,0.8-14.3,6.5
			c-2.1,5.7,0.8,12.1,6.5,14.3c-0.4,1.9-0.7,3.8-0.9,5.7c-5.9-4.8-12.5-8.6-19.7-11.3c-1.7-0.6-3.4-1.2-5.1-1.7
			C118.8,75.5,118.3,72.6,118.2,69.8z M278.5,126.3c-2.6,6.3-6.2,12.1-10.5,17.4c-1.2-0.1-2.3-0.2-3.5-0.2c-6.6-0.3-13-2.8-18.1-7
			c-1.9-6.4-1.7-13.2,0.6-19.4c0.4-1.1,0.8-2.2,1.1-3.3c7.4-2.2,15.1-3.2,22.8-2.9c4,0.2,8,0.7,11.9,1.6
			C281.9,117.1,280.4,121.8,278.5,126.3z M245.1,223.4c-0.5,0.4-1,0.8-1.5,1.3c-2.7,2.4-5.5,4.6-8.5,6.6c1.4-2.5,2.7-5.1,3.8-7.7
			c0.5-1.1,0.9-2.3,1.3-3.4c0.9-0.8,1.8-1.7,2.7-2.5c2-2,3.9-4.2,5.7-6.5c-0.7,3.5-1.7,7-2.9,10.4
			C245.5,222.1,245.3,222.8,245.1,223.4z M223.5,244.7c-0.5,0.1-1,0.3-1.4,0.5c-3.4,1.2-6.9,2.2-10.4,2.9c2.3-1.8,4.4-3.7,6.5-5.7
			c0.8-0.8,1.5-1.6,2.2-2.4c1-0.4,2-0.7,3-1.1c2.7-1.1,5.3-2.3,7.8-3.7c-2,3-4.3,5.8-6.7,8.4C224.2,243.9,223.9,244.3,223.5,244.7
			L223.5,244.7z M212.9,263.8c-3.5-3-7.5-5.2-11.9-6.5c0.6-0.9,1.1-1.9,1.2-3c2.5-1.4,5-2.9,7.3-4.6c4.3-0.7,8.5-1.8,12.6-3.3
			c-3.6,5-5.8,10.9-6.1,17C214.9,263.5,213.9,263.6,212.9,263.8L212.9,263.8z M215.9,264.7c0,0.5-0.1,1.1-0.1,1.7
			c-0.6-0.5-1.1-1-1.7-1.5C214.7,264.8,215.3,264.7,215.9,264.7L215.9,264.7z M144.3,264.7c0.5,0,1,0,1.4,0.1
			c-0.5,0.4-0.9,0.8-1.4,1.2C144.4,265.5,144.4,265.1,144.3,264.7L144.3,264.7z M144.2,263.4L144.2,263.4
			c-0.2-6.2-2.2-12.1-5.8-17.1l0.2,0.1c4.2,1.6,8.6,2.7,13.1,3.4c2.3,1.7,4.8,3.2,7.3,4.6c0.1,0.9,0.4,1.8,0.9,2.6
			c-4.8,1.2-9.2,3.5-12.9,6.7C146.2,263.5,145.2,263.4,144.2,263.4L144.2,263.4z M136,243c-2.4-2.7-4.6-5.5-6.6-8.5
			c2.5,1.4,5.1,2.7,7.7,3.8c1.1,0.5,2.3,0.9,3.4,1.3c0.8,0.9,1.7,1.8,2.5,2.7c2,2,4.2,3.9,6.5,5.7c-3.5-0.7-7-1.7-10.4-2.9
			c-0.6-0.2-1.2-0.4-1.9-0.6C136.8,244,136.4,243.5,136,243z M115.6,221.5c-1.2-3.4-2.2-6.9-2.9-10.4c1.8,2.3,3.7,4.4,5.7,6.5
			c0.8,0.8,1.6,1.5,2.3,2.2c0.4,1,0.7,2,1.2,3c1.1,2.7,2.3,5.3,3.7,7.8c-3-2-5.8-4.3-8.4-6.7c-0.4-0.3-0.8-0.6-1.1-1
			C115.8,222.4,115.7,222,115.6,221.5L115.6,221.5z M116.2,136.6c0.5-0.4,1-0.8,1.5-1.3c2.7-2.4,5.5-4.7,8.5-6.6
			c-1.9,3.3-3.5,6.8-4.9,10.3c-0.1,0.3-0.2,0.6-0.3,0.9s-0.4,0.4-0.7,0.6c-2.8,2.6-5.4,5.4-7.7,8.4c0.7-3.5,1.7-7,2.9-10.4
			C115.8,137.9,115.9,137.3,116.2,136.6L116.2,136.6z M137.7,115.4c0.5-0.2,1-0.3,1.4-0.5c3.4-1.2,6.9-2.2,10.4-2.9
			c-3,2.3-5.8,4.9-8.4,7.7l-0.3,0.3l-0.4,0.1c-3.6,1.3-7.1,2.9-10.4,4.8c2-3,4.3-5.8,6.7-8.4C137.1,116.1,137.4,115.7,137.7,115.4
			L137.7,115.4z M148.4,96.2c3.5,3,7.5,5.2,11.9,6.4c-0.6,0.9-1.1,1.9-1.2,3c-2.5,1.4-5,2.9-7.3,4.6c-4.3,0.7-8.5,1.8-12.6,3.3
			c3.7-5,5.8-10.9,6.1-17C146.3,96.5,147.4,96.4,148.4,96.2L148.4,96.2z M145.4,95.3c0-0.6,0-1.1,0.1-1.7c0.6,0.5,1.1,1,1.7,1.5
			C146.6,95.2,146,95.3,145.4,95.3L145.4,95.3z M216.9,95.4c-0.5,0-1,0-1.4-0.1c0.5-0.4,0.9-0.8,1.4-1.2
			C216.9,94.5,216.9,94.9,216.9,95.4L216.9,95.4z M217,96.6L217,96.6c0.2,6.2,2.2,12.1,5.8,17.2l-0.2-0.1c-4.2-1.6-8.6-2.7-13.1-3.4
			c-2.3-1.7-4.8-3.2-7.3-4.6c-0.1-0.9-0.4-1.8-0.9-2.6c4.8-1.2,9.2-3.5,12.9-6.7C215.1,96.5,216.1,96.6,217,96.6z M225.3,117
			c2.4,2.7,4.7,5.5,6.6,8.5c-3.3-1.9-6.8-3.5-10.3-4.9l-0.9-0.3c-0.2-0.2-0.4-0.4-0.6-0.7c-2.6-2.8-5.4-5.4-8.4-7.7
			c3.5,0.7,7,1.7,10.4,2.9c0.6,0.2,1.2,0.4,1.9,0.6C224.4,116,224.8,116.5,225.3,117L225.3,117z M245.8,138.5
			c1.2,3.4,2.2,6.9,2.9,10.4c-2.3-3-4.9-5.8-7.7-8.4l-0.3-0.3c-0.1-0.1-0.1-0.3-0.1-0.4c-1.3-3.6-2.9-7.1-4.8-10.4
			c3,2,5.8,4.3,8.4,6.7c0.4,0.3,0.8,0.6,1.1,1C245.4,137.6,245.6,138,245.8,138.5L245.8,138.5z M202.2,252.9
			c-0.1-0.8-0.3-1.6-0.7-2.3c1.8-0.1,3.5-0.2,5.2-0.4C205.2,251.1,203.7,252,202.2,252.9z M195.6,256.3c-0.7-0.1-1.3-0.1-2-0.2
			c-1.1,0-2.1-0.1-3.2-0.2c-1.2-1-2.5-1.8-4-2.2c1.6-0.5,3.1-1.1,4.7-1.7c1.1-0.5,2.3-1,3.4-1.5c1.2,0.1,2.5,0.1,3.7,0.1
			c0.7,0,1.3,0,2,0c0.6,0.9,0.9,1.9,0.9,2.9l0,0c-1.2,0.6-2.4,1.3-3.7,1.9C196.7,255.6,196.1,256,195.6,256.3z M191.8,258.7
			c0-0.5-0.1-1-0.4-1.5c0.7,0,1.4,0.1,2.2,0.1h0.2C193,257.8,192.4,258.2,191.8,258.7L191.8,258.7z M167.2,257.2
			c0.9,0,1.8-0.1,2.8-0.1c-0.3,0.5-0.5,1.1-0.5,1.7C168.8,258.2,168,257.6,167.2,257.2L167.2,257.2z M166.8,256
			c-0.5,0-1,0.1-1.5,0.1c-0.4-0.2-0.9-0.5-1.3-0.7c-1.2-0.6-2.5-1.2-3.7-1.8l0,0c0-1,0.3-2.1,0.9-2.9c0.6,0,1.3,0,2,0
			c1.1,0,2.2,0,3.2-0.1c1,0.5,2,0.9,3,1.3c1.7,0.7,3.4,1.4,5.2,1.9c-1.2,0.4-2.4,1-3.4,1.8C169.7,255.8,168.2,255.9,166.8,256
			L166.8,256z M154.5,250.1c1.7,0.2,3.5,0.4,5.2,0.4c-0.4,0.7-0.6,1.5-0.7,2.3C157.5,252,156,251.1,154.5,250.1L154.5,250.1z
			 M122.1,140.6c2.8-2.5,5.8-4.7,8.9-6.7c-1.7,3.2-3.1,6.5-4.3,9.8c-2.7,2.4-5.2,5-7.5,7.7C119.9,147.8,120.8,144.1,122.1,140.6z
			 M141.6,121.1c3.7-1.3,7.4-2.3,11.3-2.9c-2.9,2.3-5.6,4.9-8.1,7.7c-3.5,1.2-6.9,2.7-10.2,4.5C136.6,127.1,138.9,124,141.6,121.1
			L141.6,121.1z M159.1,107.1c0.1,0.8,0.3,1.6,0.7,2.3c-1.8,0.1-3.5,0.2-5.3,0.4C156,108.9,157.5,108,159.1,107.1L159.1,107.1z
			 M165.7,103.7c0.7,0.1,1.3,0.2,2,0.2c1.1,0,2.1,0.1,3.2,0.2c1.2,1,2.5,1.8,4,2.2c-2.5,0.8-4.9,1.7-7.2,2.8l-0.8,0.4l-0.9-0.1
			c-1.6-0.1-3.2-0.1-4.8,0c-0.6-0.9-0.9-1.9-0.9-2.9l0,0c1.2-0.7,2.4-1.3,3.7-1.8C164.5,104.3,165.1,104,165.7,103.7L165.7,103.7z
			 M169.5,101.3c0,0.5,0.1,1,0.4,1.5c-0.7-0.1-1.4-0.1-2.2-0.2h-0.2C168.2,102.2,168.9,101.8,169.5,101.3L169.5,101.3z M194,102.8
			c-0.9,0-1.8,0.1-2.8,0.2c0.3-0.5,0.5-1.1,0.5-1.7C192.5,101.8,193.2,102.4,194,102.8z M194.5,104.1c0.5,0,1-0.1,1.5-0.1
			c0.4,0.2,0.9,0.5,1.3,0.7c1.2,0.6,2.5,1.2,3.7,1.8l0,0c0,1-0.3,2.1-0.9,2.9c-1.6,0-3.2-0.1-4.8,0h-0.4l-0.4-0.2
			c-2.5-1.2-5.1-2.2-7.8-3.1c1.2-0.4,2.4-1,3.4-1.8C191.6,104.2,193,104.1,194.5,104.1L194.5,104.1z M206.7,109.9
			c-1.7-0.2-3.5-0.4-5.3-0.4c0.4-0.7,0.6-1.5,0.7-2.3C203.7,108,205.3,108.9,206.7,109.9L206.7,109.9z M226.7,130.4
			c-3.2-1.7-6.4-3.1-9.8-4.3c-2.4-2.7-5-5.2-7.7-7.5c3.7,0.7,7.3,1.6,10.8,2.9C222.5,124.2,224.7,127.2,226.7,130.4L226.7,130.4z
			 M239.5,140.9c1.3,3.7,2.2,7.4,2.9,11.3c-2.3-2.9-4.9-5.6-7.7-8.1c-1.2-3.5-2.7-6.9-4.5-10.2C233.5,136,236.6,138.3,239.5,140.9
			L239.5,140.9z M199.1,249.4h-1c-0.4,0-0.9,0-1.3,0l1.4-0.8C198.5,248.8,198.8,249.1,199.1,249.4z M194.2,249.2
			c-3.7-0.2-7.4-0.7-11-1.5c2.6-0.8,5.2-1.7,7.7-2.8c2.2,0.6,4.4,1.5,6.3,2.8C196.2,248.3,195.2,248.8,194.2,249.2L194.2,249.2z
			 M180.6,252.9c-1.3,0-2.6,0.1-3.8,0.4c-2.4-0.7-4.7-1.5-7-2.5l-0.8-0.4c3.9-0.3,7.8-1,11.6-1.9c3.7,0.9,7.4,1.6,11.1,1.9
			c-0.4,0.2-0.8,0.4-1.2,0.5c-2.2,0.9-4.4,1.6-6.6,2.3C182.9,253,181.8,252.9,180.6,252.9L180.6,252.9z M162.8,248.7l1.2,0.6h-0.9
			h-1C162.4,249.1,162.6,248.9,162.8,248.7L162.8,248.7z M163.9,247.9c2-1.3,4.2-2.3,6.5-2.9c2.5,1.1,5.1,2,7.7,2.8
			c-3.8,0.8-7.6,1.3-11.5,1.5C165.7,248.8,164.8,248.4,163.9,247.9L163.9,247.9z M162.1,110.6c0.8,0,1.5,0,2.3,0
			c-0.5,0.2-0.9,0.5-1.4,0.8C162.7,111.2,162.4,110.9,162.1,110.6L162.1,110.6z M167.1,110.8c3.7,0.2,7.4,0.7,11.1,1.6
			c-2.6,0.8-5.1,1.7-7.6,2.8c-2.3-0.6-4.5-1.5-6.5-2.8C165.1,111.7,166.1,111.2,167.1,110.8L167.1,110.8z M180.6,107.1
			c1.3,0,2.6-0.1,3.9-0.4c2.6,0.8,5.2,1.8,7.7,2.9c-3.9,0.3-7.8,1-11.6,2c-3.6-1-7.4-1.6-11.1-2c2.5-1.1,5.1-2,7.7-2.8
			C178.4,107,179.5,107.1,180.6,107.1L180.6,107.1z M198.4,111.3l-1.2-0.6c0.6,0,1.2,0,1.8,0C198.9,110.9,198.7,111.1,198.4,111.3
			L198.4,111.3z M197.4,112.1c-2.1,1.4-4.3,2.4-6.7,3c-2.5-1.1-5-2-7.6-2.8c3.8-0.9,7.6-1.4,11.5-1.6
			C195.6,111.2,196.5,111.6,197.4,112.1L197.4,112.1z M228.8,212.4c-1.8,1.8-3.7,3.4-5.7,5c1.4-2.3,2.8-4.7,3.9-7.1
			c1.6-1.8,3.1-3.7,4.4-5.7C230.7,207.3,229.8,209.9,228.8,212.4z M212.8,228.4c-2.5,1-5,1.8-7.6,2.5c2.1-1.5,4.1-3.1,6-4.8
			c2.3-1.1,4.6-2.4,6.7-3.7C216.4,224.5,214.6,226.5,212.8,228.4L212.8,228.4z M143.3,222.4c2.1,1.3,4.2,2.5,6.4,3.6
			c1.8,1.6,3.7,3.2,5.7,4.6c-2.4-0.7-4.8-1.5-7.2-2.4C146.5,226.3,144.8,224.4,143.3,222.4L143.3,222.4z M132.2,212.1
			c-1-2.7-1.9-5.4-2.6-8.2c1.4,2.1,3,4.1,4.6,6c1.2,2.5,2.6,5,4.1,7.4C136.1,215.7,134.1,214,132.2,212.1L132.2,212.1z M123.9,168
			c1.1-2.5,2.3-4.8,3.7-7.1c-0.5,2.5-0.8,5-1,7.5c-0.9,2.4-1.6,4.9-2.2,7.5C124,173.2,123.9,170.6,123.9,168z M132.9,147.2
			c1.9-1.8,3.8-3.4,5.9-5c-1.3,2-2.5,4.1-3.6,6.2c-1.7,1.8-3.3,3.8-4.7,5.8C131.1,151.9,131.9,149.5,132.9,147.2L132.9,147.2z
			 M148.6,131.8c2.5-1,5-1.8,7.5-2.5c-1.9,1.3-3.7,2.7-5.5,4.2c-2.4,1.1-4.6,2.3-6.9,3.7C145.3,135.3,146.9,133.5,148.6,131.8
			L148.6,131.8z M217.5,137.2c-2.1-1.3-4.3-2.5-6.6-3.6c-1.7-1.4-3.4-2.8-5.1-4.1c2.4,0.7,4.8,1.5,7.2,2.4
			C214.5,133.7,216,135.4,217.5,137.2L217.5,137.2z M231.2,154.9c-1.5-2.1-3.1-4.1-4.9-6.1c-1.1-2.3-2.4-4.4-3.7-6.6
			c2.1,1.6,4.2,3.4,6.1,5.2C229.6,149.9,230.5,152.4,231.2,154.9L231.2,154.9z M236.9,175.8c-0.6-2.4-1.3-4.8-2.1-7.2
			c-0.2-2.4-0.5-4.8-0.9-7.1c1.3,2.2,2.4,4.5,3.4,6.9C237.4,170.8,237.2,173.3,236.9,175.8L236.9,175.8z M235.1,185.7
			c0-2-0.1-4-0.3-5.9c0.2-2.1,0.3-4.2,0.3-6.3c0.6,2,1,4,1.4,6C236.1,181.5,235.6,183.6,235.1,185.7L235.1,185.7z M210.6,225.1
			c-1.2,0.6-2.4,1.1-3.6,1.6c1.2-0.8,2.4-1.6,3.6-2.5c1.1-0.7,2.2-1.4,3.2-2.1C212.7,223.2,211.6,224.2,210.6,225.1L210.6,225.1z
			 M191.8,237c-2.5,0-5.1-0.2-7.6-0.5c2.4-0.5,4.7-1.2,7.1-2c2.5-0.1,4.9-0.4,7.3-0.8C196.4,234.9,194.1,236,191.8,237z M162,233.4
			c2.5,0.4,5.1,0.7,7.6,0.9c2.4,0.8,4.9,1.6,7.4,2.1c-2.6,0.3-5.3,0.5-7.9,0.6C166.7,235.9,164.3,234.7,162,233.4z M147,221.8
			c1.2,0.8,2.4,1.6,3.6,2.4c1.2,0.9,2.4,1.8,3.7,2.6c-1.3-0.5-2.6-1.1-3.9-1.8C149.2,223.9,148.1,222.9,147,221.8L147,221.8z
			 M127.3,185.8c0.2,1.4,0.5,2.8,0.9,4.2c0.2,1.2,0.4,2.4,0.6,3.6c-0.5-1.3-1-2.6-1.4-3.9C127.3,188.4,127.3,187.1,127.3,185.8
			L127.3,185.8z M169.4,123.2c2.5,0,5,0.2,7.6,0.5c-2.4,0.5-4.7,1.2-7,2c-2.4,0.1-4.8,0.4-7.2,0.8
			C164.9,125.4,167.2,124.2,169.4,123.2L169.4,123.2z M199.1,126.8c-2.5-0.4-5-0.8-7.6-0.9c-2.4-0.8-4.9-1.5-7.3-2.1
			c2.6-0.3,5.2-0.5,7.9-0.6C194.5,124.3,196.9,125.5,199.1,126.8L199.1,126.8z M225.2,149.5c0.6,1.1,1.1,2.3,1.6,3.4
			c-0.7-0.9-1.3-1.9-2-2.8c-0.7-1.1-1.4-2.2-2.1-3.2C223.6,147.8,224.5,148.6,225.2,149.5L225.2,149.5z M228.4,200.1
			c-1.3,3-2.8,5.9-4.4,8.8c-2,2.8-4.3,5.4-6.7,7.8c-2.4,2.4-4.9,4.5-7.6,6.6c-3,1.9-6.2,3.5-9.5,4.8c-3.1,1.3-6.3,2.3-9.6,3.1
			c-6.7,1-13.6,1-20.4,0c-3.4-0.9-6.6-2-9.8-3.3c-3.2-1.3-6.2-2.9-9.1-4.7c-2.6-2-5.1-4.1-7.4-6.4c-2.5-2.5-4.8-5.3-6.9-8.2
			c-1.7-2.9-3.2-5.9-4.4-9c-1.3-3.2-2.3-6.4-3.1-9.8c-0.5-3.2-0.7-6.5-0.7-9.8c0-3.6,0.3-7.1,0.9-10.7c0.8-3.2,1.9-6.4,3.2-9.5
			c1.3-3.2,2.9-6.2,4.7-9.1c2-2.6,4.1-5.1,6.4-7.4c2.5-2.5,5.2-4.8,8.1-6.9c2.9-1.7,5.9-3.2,9-4.4c3.2-1.3,6.5-2.3,9.8-3.1
			c6.5-0.9,13.2-0.9,19.7,0c3.5,0.8,6.9,2,10.1,3.4c3,1.3,5.9,2.7,8.7,4.4c2.8,2,5.4,4.3,7.8,6.7c2.4,2.4,4.6,4.9,6.6,7.6
			c1.8,3,3.4,6.2,4.8,9.5c1.2,3,2.3,6.2,3.1,9.3c0.5,3.4,0.8,6.9,0.8,10.3c0,3.3-0.2,6.7-0.7,10
			C230.9,193.5,229.8,196.8,228.4,200.1L228.4,200.1z M170,232.3c1.3,0.3,2.5,0.6,3.8,0.9c-1.3,0-2.7,0-4-0.1
			c-1.3-0.4-2.5-0.9-3.7-1.4C167.5,231.9,168.8,232.1,170,232.3z M180.2,234.2c2.1,0.2,4.3,0.3,6.4,0.4c-2,0.5-4,1-6.1,1.4
			c-2.1-0.4-4.2-0.9-6.3-1.4C176.3,234.4,178.3,234.3,180.2,234.2L180.2,234.2z M186.7,233.3c1.4-0.3,2.8-0.6,4.2-0.9
			s2.8-0.4,4.1-0.7c-1.3,0.6-2.7,1.1-4,1.5C189.6,233.2,188.2,233.3,186.7,233.3L186.7,233.3z M190.8,127.6
			c-0.9-0.2-1.9-0.4-2.8-0.6c1.1,0,2.2,0.1,3.4,0.1c1,0.3,1.9,0.7,2.9,1.1C193.1,128,191.9,127.8,190.8,127.6z M181,125.9
			c-2-0.2-4.1-0.3-6.1-0.3c1.9-0.5,3.9-0.9,5.8-1.3c2.1,0.4,4.1,0.8,6.1,1.4C184.8,125.7,182.9,125.8,181,125.9z M174,126.9
			c-1.1,0.2-2.2,0.4-3.3,0.7c-1.2,0.2-2.4,0.4-3.6,0.6c1.1-0.4,2.1-0.8,3.2-1.2C171.5,126.9,172.7,126.9,174,126.9L174,126.9z
			 M233,169.5c-0.2-1.4-0.5-2.8-0.8-4.2c0.5,1.2,1,2.4,1.4,3.6c0.1,1.3,0.1,2.7,0.2,4.1C233.5,171.8,233.2,170.6,233,169.5
			L233,169.5z M210.2,135.6c-1.2-0.9-2.3-1.6-3.5-2.4c1.2,0.5,2.4,1,3.6,1.6c1,0.9,2,1.8,3,2.8C212.3,136.8,211.2,136.2,210.2,135.6
			L210.2,135.6z M200.8,129.8c-1.6-0.8-3.1-1.5-4.7-2.2c2.1,0.3,4.2,0.7,6.2,1.1c1.5,1,3,2,4.5,3.1
			C204.8,131.1,202.8,130.4,200.8,129.8L200.8,129.8z M180.7,123.1c-2.7-0.5-5.5-0.8-8.3-1c2.8-1.1,5.7-2,8.7-2.7
			c2.8,0.7,5.6,1.6,8.3,2.7C186.4,122.2,183.5,122.6,180.7,123.1L180.7,123.1z M165.6,127.4c-1.7,0.7-3.4,1.5-5,2.3
			c-1.9,0.6-3.8,1.2-5.6,1.9c1.6-1.2,3.1-2.3,4.8-3.3C161.6,128,163.6,127.7,165.6,127.4L165.6,127.4z M154.7,133.2
			c-1.1,0.7-2.1,1.4-3.2,2.1c-1,0.6-2,1.2-2.9,1.8c0.9-0.9,1.8-1.7,2.8-2.5C152.5,134.1,153.5,133.6,154.7,133.2L154.7,133.2z
			 M136.5,150c-0.7,1-1.4,1.9-2.1,2.9c0.5-1.3,1.1-2.5,1.8-3.7c0.9-1,1.8-1.9,2.7-2.8C138,147.6,137.2,148.8,136.5,150z M128.4,169
			c-0.3,1.1-0.6,2.2-0.8,3.3c0-1.3,0.1-2.5,0.2-3.8c0.4-1.1,0.8-2.2,1.3-3.3C128.8,166.5,128.6,167.8,128.4,169z M135.9,209.1
			c0.6,1,1.2,2,1.8,2.9c-0.9-0.9-1.7-1.8-2.5-2.8c-0.5-1.1-1-2.2-1.4-3.3C134.5,207.1,135.2,208.1,135.9,209.1L135.9,209.1z
			 M159.9,230c1.8,0.9,3.6,1.8,5.4,2.6c-2.1-0.3-4.3-0.6-6.4-1.1c-1.7-1.1-3.4-2.3-5-3.6C155.9,228.7,157.9,229.4,159.9,230
			L159.9,230z M180.6,237.1c2.7,0.5,5.5,0.8,8.3,1c-2.8,1.1-5.7,2-8.6,2.6c-2.8-0.7-5.6-1.6-8.3-2.6
			C174.9,238,177.8,237.7,180.6,237.1L180.6,237.1z M195.6,232.7c2-0.8,3.9-1.7,5.8-2.7c1.9-0.6,3.8-1.3,5.7-2
			c-1.7,1.3-3.5,2.6-5.3,3.7C199.7,232.2,197.6,232.5,195.6,232.7L195.6,232.7z M225.1,209.5c0.9-1.2,1.6-2.3,2.4-3.5
			c-0.5,1.2-1,2.4-1.6,3.6c-0.9,1-1.8,2-2.8,3C223.8,211.6,224.4,210.6,225.1,209.5L225.1,209.5z M233.1,190.1
			c0.3-1.2,0.6-2.5,0.8-3.7c0,1.2,0,2.4-0.1,3.6c-0.4,1.2-0.8,2.4-1.3,3.5c0.2-1.1,0.3-2.2,0.5-3.3L233.1,190.1z M233.2,164.4
			c-0.8-1.9-1.8-3.8-2.8-5.7c-0.6-1.9-1.3-3.7-2.1-5.6c1.3,1.7,2.6,3.4,3.7,5.2C232.5,160.4,232.9,162.4,233.2,164.4L233.2,164.4z
			 M223.2,145.5c-1.4-1.4-2.9-2.7-4.4-4c-1.3-1.6-2.8-3.2-4.3-4.6c1.8,1,3.5,2.1,5.2,3.2c1.2,1.8,2.3,3.6,3.4,5.4L223.2,145.5z
			 M202.8,127.5c-2.4-1.6-5-3-7.6-4.3c2.9,0.1,5.8,0.3,8.7,0.8c2.5,1.8,4.8,3.7,7,5.8c-2.7-0.9-5.4-1.7-8.2-2.3L202.8,127.5z
			 M192.3,122c-2.8-1.2-5.7-2.3-8.7-3.1c3.2-0.6,6.3-1,9.6-1.2c2.9,1.4,5.7,3,8.3,4.8C198.5,122.1,195.4,122,192.3,122z
			 M189.2,116.7c0.5-0.1,0.9-0.2,1.3-0.3l0.3,0.2L189.2,116.7z M181,118.2c-0.9-0.2-1.8-0.4-2.7-0.6c0.8,0,1.5,0.1,2.3,0.1
			c1.3,0,2.5-0.1,3.8-0.2C183.2,117.7,182.1,117.9,181,118.2z M180.6,116.4c-2.7,0-5.4-0.3-8-0.8c2.6-1.1,5.3-1.9,8-2.7
			c2.7,0.7,5.4,1.6,8,2.7C186,116.1,183.3,116.4,180.6,116.4z M178.3,118.8c-3.1,0.9-6.1,1.9-9.1,3.2c-3.2-0.1-6.4,0.1-9.6,0.5
			c2.8-1.9,5.7-3.5,8.7-5C171.7,117.7,175.1,118.1,178.3,118.8L178.3,118.8z M166.5,123.3c-2.5,1.2-4.9,2.5-7.3,4
			c-2.9,0.6-5.7,1.4-8.4,2.4c2.1-2,4.4-3.9,6.7-5.6C160.4,123.6,163.4,123.3,166.5,123.3L166.5,123.3z M147.1,136.8
			c-1.4,1.4-2.8,2.8-4,4.3c-1.6,1.3-3.2,2.7-4.8,4.2c1-1.8,2.2-3.5,3.4-5.1C143.4,138.9,145.2,137.8,147.1,136.8z M133.1,152.8
			c-0.8,1.9-1.6,3.9-2.2,5.9c-0.9,1.7-1.8,3.5-2.6,5.3c0.3-2.1,0.7-4.2,1.2-6.3C130.6,156,131.8,154.4,133.1,152.8L133.1,152.8z
			 M126.3,173.1c0,2,0.1,3.9,0.2,5.9c-0.2,2.1-0.4,4.2-0.4,6.3c-0.5-2-0.9-4-1.3-6C125.3,177.2,125.7,175.2,126.3,173.1L126.3,173.1
			z M126.2,189.9c0.1,2.5,0.4,5,0.7,7.4c-1.2-2.2-2.3-4.4-3.2-6.7c0.1-2.6,0.3-5.1,0.6-7.7C124.8,185.3,125.4,187.6,126.2,189.9
			L126.2,189.9z M127.8,194.3c0.8,2,1.7,3.9,2.6,5.8c0.6,1.9,1.2,3.8,1.9,5.6c-1.3-1.7-2.5-3.5-3.6-5.3
			C128.3,198.4,128,196.4,127.8,194.3L127.8,194.3z M137.4,213.5c1.4,1.4,2.8,2.8,4.3,4c1.5,1.8,3,3.6,4.6,5.2
			c-1.8-1-3.5-2.1-5.2-3.3C139.8,217.5,138.5,215.6,137.4,213.5L137.4,213.5z M158.4,232.6c2.4,1.6,5,3,7.6,4.3
			c-2.9-0.1-5.8-0.4-8.6-0.8c-2.4-1.8-4.8-3.7-6.9-5.8C153.1,231.3,155.7,232,158.4,232.6L158.4,232.6z M168.3,238.2h0.6l0.6,0.2
			c2.7,1.1,5.4,2.1,8.2,2.9c-3.2,0.6-6.4,1-9.6,1.2c-2.9-1.4-5.7-3-8.4-4.8C162.5,238,165.4,238.2,168.3,238.2L168.3,238.2z
			 M170.7,243.5l-0.3,0.1h-0.1L170.7,243.5z M180.3,242l1.5,0.4h-1.2c-0.7,0-1.4,0-2.1,0.1L180.3,242z M180.6,243.6
			c2.8,0,5.5,0.3,8.2,0.8c-2.7,1.1-5.4,2-8.2,2.7c-2.8-0.7-5.5-1.6-8.2-2.7C175.1,243.9,177.9,243.6,180.6,243.6L180.6,243.6z
			 M182.9,241.3c2.8-0.8,5.6-1.7,8.2-2.8l0.9-0.4h1l0,0c2.9,0,5.8-0.2,8.7-0.5c-2.8,1.9-5.7,3.6-8.8,5
			C189.6,242.5,186.2,242,182.9,241.3L182.9,241.3z M194.9,236.9c2.5-1.2,4.9-2.5,7.3-4c2.8-0.6,5.6-1.4,8.4-2.3
			c-2.1,2-4.3,3.8-6.7,5.6C200.9,236.6,197.9,236.9,194.9,236.9L194.9,236.9z M214.7,222.9c1.6-1.6,3-3.2,4.4-4.9
			c1.6-1.3,3.2-2.8,4.6-4.3c-1.1,2-2.3,3.9-3.6,5.8C218.4,220.7,216.5,221.9,214.7,222.9L214.7,222.9z M228.8,206c0.8-2,1.5-4,2.1-6
			c0.9-1.8,1.7-3.6,2.5-5.4c-0.3,2.1-0.6,4.2-1.1,6.3C231.2,202.8,230,204.5,228.8,206L228.8,206z M235,190.2c0.8-2.4,1.5-4.8,2-7.3
			c0.4,2.7,0.6,5.3,0.6,8c-1,2.4-2.2,4.7-3.5,7C234.6,195.4,234.9,192.8,235,190.2z M237.7,179.4c0.4-2.7,0.7-5.4,0.9-8.2
			c1.1,2.9,2,5.8,2.8,8.8c-0.7,2.8-1.5,5.5-2.6,8.2C238.6,185.2,238.2,182.3,237.7,179.4L237.7,179.4z M239.3,169.5
			c-0.2-0.5-0.4-0.9-0.6-1.4c0-3.2-0.2-6.3-0.6-9.5c1.9,2.8,3.6,5.8,5.1,8.9c-0.2,3.3-0.6,6.6-1.3,9.8
			C241.2,174.6,240.3,172,239.3,169.5L239.3,169.5z M237.4,165.3c-1.2-2.5-2.6-5-4.1-7.4c-0.6-2.8-1.4-5.6-2.4-8.3
			c2,2.1,3.9,4.4,5.7,6.7C237,159.3,237.3,162.3,237.4,165.3L237.4,165.3z M230.6,147.6c-0.3-0.3-0.6-0.5-0.9-0.8
			c-1.1-2.7-2.3-5.3-3.7-7.8c2.7,1.8,5.2,3.8,7.6,5.9c1,2.9,1.8,5.9,2.4,8.9C234.3,151.6,232.5,149.5,230.6,147.6L230.6,147.6z
			 M227.5,144.6c-2.2-2-4.6-3.8-7-5.4c-1.5-2.1-3.1-4.1-4.8-6c2.8,1.2,5.4,2.7,8,4.2C225.1,139.8,226.3,142.2,227.5,144.6
			L227.5,144.6z M213.6,131c-2.2-2.3-4.6-4.4-7.1-6.4c3.3,0.6,6.5,1.5,9.7,2.6c2.2,2.5,4.2,5.2,6.1,8
			C219.5,133.6,216.6,132.2,213.6,131z M204.3,122.9c-2.7-2-5.6-3.8-8.5-5.3c3.6-0.1,7.3,0.1,10.9,0.6c2.8,2.1,5.4,4.5,7.8,7
			C211.1,124.2,207.7,123.4,204.3,122.9L204.3,122.9z M193.5,116.4l-1.1-0.5c2.2-0.7,4.3-1.7,6.1-3.1c2.1,1.2,4.1,2.5,6.1,3.9
			C200.9,116.3,197.2,116.2,193.5,116.4L193.5,116.4z M168.8,115.9l-0.7,0.3c-3.6-0.2-7.2-0.2-10.7,0.2c1.8-1.2,3.6-2.4,5.5-3.4
			C164.7,114.2,166.7,115.2,168.8,115.9L168.8,115.9z M163.9,117.3c0.6,0,1.3,0,1.9,0c-3.1,1.6-6.1,3.5-8.9,5.5
			c-3.3,0.5-6.6,1.3-9.8,2.2c2.5-2.6,5.3-5.1,8.2-7.3C158.2,117.5,161.1,117.3,163.9,117.3L163.9,117.3z M154.8,124.6
			c-2.4,1.9-4.7,4-6.9,6.2c-2.9,1.1-5.7,2.4-8.4,3.9c1.8-2.7,3.8-5.2,5.9-7.6C148.5,126,151.6,125.1,154.8,124.6L154.8,124.6z
			 M145.8,132.9c-1.8,2-3.5,4.1-5.1,6.3c-2.3,1.6-4.6,3.3-6.7,5.2c1.2-2.6,2.5-5.1,4-7.5C140.6,135.4,143.2,134.1,145.8,132.9
			L145.8,132.9z M131.8,146.5c-0.4,0.4-0.8,0.7-1.1,1.1c-1.9,1.9-3.8,4-5.4,6.1c0.6-3.1,1.5-6.2,2.5-9.3c2.5-2.2,5.2-4.2,8-6.1
			C134.3,141,133,143.7,131.8,146.5L131.8,146.5z M130.7,149.4c-0.9,2.6-1.7,5.2-2.4,7.9c-1.6,2.5-3.1,5-4.4,7.7
			c0.1-2.9,0.4-5.7,0.8-8.6C126.6,153.9,128.6,151.6,130.7,149.4L130.7,149.4z M122.7,167.7c-0.2,0.4-0.3,0.7-0.5,1.1
			c-1.1,2.5-2,5.1-2.7,7.7c-0.6-3.1-1-6.3-1.2-9.4c1.4-2.9,3.1-5.8,4.9-8.5C122.8,161.6,122.6,164.7,122.7,167.7L122.7,167.7z
			 M122.7,170.8c0.1,2.9,0.4,5.7,0.9,8.6c-0.5,2.8-0.8,5.6-1,8.4c-1-2.8-1.9-5.7-2.6-8.6C120.7,176.3,121.6,173.5,122.7,170.8
			L122.7,170.8z M122.4,190.8c0,0.5,0,1,0,1.5c0,2.9,0.2,5.8,0.5,8.7c-1.9-2.8-3.6-5.7-5-8.8c0.2-3.5,0.7-7,1.4-10.4
			C120.2,184.9,121.2,187.9,122.4,190.8L122.4,190.8z M123.7,193.6c1.2,2.5,2.5,4.9,3.9,7.3c0.6,3.1,1.5,6.1,2.5,9
			c-2-2.1-3.8-4.3-5.6-6.7C124,200,123.7,196.8,123.7,193.6L123.7,193.6z M130.7,212.4l0.4,0.4c0.1,0.2,0.1,0.4,0.2,0.6
			c1.1,2.7,2.4,5.3,3.8,7.8c-2.7-1.8-5.2-3.8-7.6-6c-1.1-3.1-1.9-6.2-2.6-9.4C126.7,208.2,128.6,210.4,130.7,212.4L130.7,212.4z
			 M133.4,215c2.2,1.9,4.4,3.7,6.8,5.4c1.6,2.3,3.3,4.5,5.2,6.5c-2.8-1.2-5.4-2.7-8-4.2C135.9,220.2,134.6,217.6,133.4,215
			L133.4,215z M146.6,228.9l0.9,0.4c0.2,0.2,0.4,0.5,0.7,0.7c2.1,2,4.2,4,6.5,5.8c-3.3-0.7-6.5-1.5-9.7-2.7c-2.2-2.5-4.3-5.2-6.1-8
			C141.4,226.4,144,227.7,146.6,228.9L146.6,228.9z M156.9,237.3c2.7,2,5.5,3.7,8.5,5.3c-3.6,0-7.2-0.2-10.8-0.7
			c-2.8-2.1-5.4-4.5-7.8-7C150.1,235.9,153.4,236.8,156.9,237.3L156.9,237.3z M164.5,243.9c1.1,0,2.2,0,3.2-0.1l0.9,0.4
			c-2.1,0.7-4.1,1.7-5.9,3c-2.1-1.2-4.1-2.4-6-3.8C159.3,243.7,161.9,243.9,164.5,243.9L164.5,243.9z M192.6,244.2l0.5-0.2
			c1.2,0.1,2.4,0.1,3.7,0.1c2.3,0,4.7-0.1,7-0.4c-1.8,1.2-3.6,2.3-5.4,3.4C196.6,245.8,194.7,244.9,192.6,244.2L192.6,244.2z
			 M195.5,242.8c3.1-1.6,6-3.4,8.9-5.4c3.3-0.5,6.5-1.3,9.7-2.3c-2.5,2.6-5.2,5-8.1,7.1C202.5,242.7,199,242.8,195.5,242.8
			L195.5,242.8z M206.5,235.7c2.3-1.8,4.5-3.7,6.5-5.8l0.4-0.4l0.6-0.2c2.7-1.1,5.3-2.4,7.8-3.8c-1.8,2.7-3.8,5.2-6,7.6
			C212.8,234.2,209.7,235,206.5,235.7L206.5,235.7z M215.6,227.2c1.9-2.2,3.7-4.4,5.4-6.8c2.3-1.6,4.5-3.3,6.5-5.2
			c-1.2,2.8-2.7,5.4-4.2,8C220.8,224.7,218.3,226.1,215.6,227.2L215.6,227.2z M229.5,214c0.1-0.3,0.2-0.6,0.4-0.9s0.5-0.4,0.7-0.7
			c2-2.1,4-4.2,5.8-6.5c-0.7,3.3-1.5,6.6-2.7,9.7c-2.5,2.2-5.2,4.3-8,6.1C227.1,219.3,228.4,216.7,229.5,214z M231,210.2
			c1-2.8,1.8-5.7,2.5-8.6c1.5-2.4,2.9-5,4.1-7.6c-0.1,3.1-0.3,6.2-0.8,9.3C235,205.7,233.1,208,231,210.2z M238.9,191.2
			c1.2-2.8,2.2-5.7,3-8.6c0.7,3.3,1.1,6.7,1.3,10.1c-1.4,2.9-3,5.7-4.8,8.4c0.4-2.9,0.5-5.8,0.5-8.7
			C238.9,192,238.9,191.6,238.9,191.2L238.9,191.2z M242.6,179.9c0.8-3.3,1.4-6.7,1.7-10.1c1.4,3.3,2.6,6.7,3.5,10.2
			c-0.9,3.5-2.1,6.9-3.5,10.2C243.9,186.8,243.4,183.3,242.6,179.9L242.6,179.9z M244.5,167.2c0.2-3.5,0.1-7-0.2-10.4
			c2.1,3.1,4,6.3,5.6,9.7c-0.2,3.7-0.7,7.4-1.5,11C247.4,173.9,246,170.5,244.5,167.2L244.5,167.2z M243.3,164.9
			c-1.6-3.1-3.5-6.1-5.6-9c-0.5-3.2-1.3-6.3-2.2-9.3c2.6,2.5,5.1,5.2,7.2,8.1C243.2,158,243.4,161.5,243.3,164.9L243.3,164.9z
			 M232.8,142.4c-2.6-2.1-5.3-4.1-8.1-5.9c-1.8-3-3.8-5.8-6-8.5c3.3,1.3,6.4,2.8,9.5,4.6C229.9,135.7,231.5,139,232.8,142.4
			L232.8,142.4z M207.2,117c-2.4-1.9-5-3.5-7.6-5.1c0.4-0.4,0.8-0.8,1.1-1.2c2.8,0.1,5.6,0.4,8.3,0.8c3.3,2.4,6.4,5.1,9.2,8
			C214.6,118.4,210.9,117.5,207.2,117z M184.5,105.5l-0.8-0.2c1.1-0.2,2.2-0.4,3.3-0.6C186.2,105.1,185.4,105.3,184.5,105.5
			L184.5,105.5z M181.2,105.9h-0.3h0.1H181.2z M177.2,105.6c-1.3-0.2-2.5-0.6-3.6-1.1c1.6,0.2,3.2,0.5,4.9,0.8L177.2,105.6z
			 M160.6,110.7c0.4,0.5,0.8,1,1.3,1.4c-2.4,1.4-4.8,2.9-7,4.6c-3.9,0.5-7.7,1.4-11.5,2.5c2.7-2.8,5.7-5.4,8.9-7.7
			C155,111.1,157.8,110.8,160.6,110.7L160.6,110.7z M143.1,127.9c-2.2,2.6-4.1,5.3-5.9,8.2c-3,1.8-5.8,3.8-8.5,6
			c1.3-3.3,2.8-6.4,4.6-9.5C136.4,130.7,139.6,129.2,143.1,127.9L143.1,127.9z M125.9,146.2c-1,3.2-1.8,6.4-2.3,9.7
			c-2,2.7-3.8,5.6-5.4,8.6c-0.1-3.5,0.2-7.1,0.7-10.6C121,151.2,123.3,148.6,125.9,146.2L125.9,146.2z M117,166.8
			c-1.7,3.4-3,7-4.1,10.6c-0.8-3.8-1.4-7.6-1.6-11.5c1.7-3.5,3.7-6.8,5.9-10C116.9,159.6,116.8,163.2,117,166.8z M117.2,169.4
			c0.3,3.3,0.8,6.5,1.5,9.7c-0.9,3.5-1.5,7.1-1.8,10.7c-1.4-3.2-2.5-6.5-3.4-9.9C114.4,176.4,115.7,172.9,117.2,169.4L117.2,169.4z
			 M116.7,192.5c-0.2,3.6-0.1,7.1,0.3,10.7c-2.1-3.1-4-6.3-5.6-9.6c0.2-3.7,0.7-7.4,1.5-11C113.9,186,115.2,189.3,116.7,192.5
			L116.7,192.5z M117.9,194.9c1.6,3.1,3.4,6,5.4,8.9c0.5,3.3,1.3,6.5,2.3,9.7c-2.6-2.5-5-5.2-7.1-8.1
			C118,201.9,117.8,198.4,117.9,194.9L117.9,194.9z M126.4,216c1.2,3.5,2.7,6.9,4.5,10.1c-3.3-2.1-6.3-4.4-9.2-7
			c-1.3-3.6-2.2-7.4-2.9-11.2C121.1,210.8,123.7,213.5,126.4,216z M128.4,217.8c2.6,2.1,5.3,4.1,8.1,5.9c1.8,3,3.8,5.8,6.1,8.5
			c-3.2-1.3-6.4-2.8-9.4-4.6C131.3,224.4,129.7,221.1,128.4,217.8L128.4,217.8z M144.2,234.1c2.4,2.6,5,5.1,7.7,7.4
			c-3.7-0.7-7.2-1.6-10.8-2.9c-2.5-2.8-4.7-5.7-6.7-8.9C137.6,231.4,140.9,232.9,144.2,234.1L144.2,234.1z M154.1,243.1
			c2.4,1.8,5,3.5,7.6,5c-0.4,0.4-0.8,0.8-1.1,1.2c-2.8-0.1-5.5-0.4-8.3-0.8c-2.9-2.1-5.7-4.5-8.3-7.1c-0.3-0.3-0.6-0.6-0.9-0.9
			C146.7,241.7,150.3,242.5,154.1,243.1L154.1,243.1z M176.7,254.5l0.7,0.2c-1.1,0.2-2.2,0.4-3.3,0.5
			C175,254.9,175.9,254.7,176.7,254.5L176.7,254.5z M180.1,254.1h0.1H180.1L180.1,254.1z M184,254.4c1.3,0.2,2.5,0.6,3.7,1.2
			c-1.6-0.2-3.2-0.5-4.9-0.8L184,254.4z M200.7,249.3c-0.4-0.5-0.8-1-1.3-1.4c2.4-1.4,4.8-2.9,7-4.6c3.9-0.5,7.7-1.4,11.5-2.6
			c-0.2,0.2-0.4,0.4-0.6,0.6c-2.6,2.6-5.4,4.9-8.3,7.1C206.2,249,203.5,249.2,200.7,249.3L200.7,249.3z M208.5,241.8
			c2.9-2.3,5.6-4.8,8.1-7.6c3.5-1.2,6.9-2.7,10.1-4.5c-2.1,3.3-4.4,6.3-7,9.2C216.1,240.2,212.3,241.1,208.5,241.8L208.5,241.8z
			 M218.4,232.2c2.1-2.6,4.1-5.3,5.9-8.1c3-1.8,5.8-3.8,8.5-6.1c-1.3,3.2-2.8,6.4-4.6,9.4C225,229.3,221.7,230.9,218.4,232.2
			L218.4,232.2z M234.7,216.4c2.6-2.4,5.1-5,7.4-7.7c-0.7,3.7-1.6,7.2-2.9,10.8c-2.8,2.5-5.7,4.7-8.9,6.7
			C232,223,233.5,219.7,234.7,216.4L234.7,216.4z M235.5,213.9c1.1-3.3,1.9-6.7,2.5-10.1c2-2.7,3.7-5.5,5.3-8.5
			c0,3.6-0.2,7.2-0.7,10.8C240.4,208.8,238.1,211.5,235.5,213.9L235.5,213.9z M244.4,192.9c1.6-3.3,2.9-6.8,4-10.4
			c0.8,3.8,1.3,7.6,1.5,11.5c-1.7,3.5-3.7,6.8-5.9,10C244.4,200.3,244.6,196.6,244.4,192.9L244.4,192.9z M249.1,180
			c0.9-3.7,1.6-7.4,1.9-11.1c1.6,3.7,2.9,7.6,3.8,11.6c-0.9,3.6-2,7-3.4,10.4c-0.1,0.3-0.2,0.5-0.4,0.8
			C250.7,187.7,250,183.8,249.1,180z M251.5,167c-0.1-0.3-0.3-0.5-0.4-0.8c0.1-1.2,0.1-2.5,0.1-3.7c0-2.9-0.2-5.8-0.5-8.6
			c2,3,3.8,6.1,5.3,9.4c0.3,0.6,0.6,1.2,0.9,1.8c-0.1,0.7-0.1,1.3-0.2,2c-0.2,3.6-0.6,7.2-1.3,10.7
			C254.4,174.1,253.1,170.5,251.5,167L251.5,167z M250,162.5c0,0.4,0,0.9,0,1.3c-1.7-3.3-3.7-6.6-6-9.6c-0.5-3.9-1.4-7.7-2.5-11.5
			c2.8,2.7,5.4,5.7,7.7,8.9C249.7,155.2,250,158.8,250,162.5z M238.6,138.4c-3-2.5-6.2-4.8-9.6-6.8c-1.9-3.3-4.1-6.4-6.5-9.3
			c3.8,1.5,7.4,3.3,10.9,5.5C235.4,131.2,237.1,134.8,238.6,138.4z M200.7,104.9c-0.8-0.4-1.6-0.8-2.5-1.2c0.6-0.1,1.1-0.2,1.7-0.3
			C200.3,103.9,200.5,104.4,200.7,104.9z M196.2,102.7c-1.8-1-3.6-2.1-5.2-3.4c-0.5-0.6-1-1.2-1.7-1.6c4.2,1,7.6,2.6,9.6,4.7
			C198.1,102.5,197.2,102.6,196.2,102.7z M188.3,98.4c0.6,0.6,1.2,1.2,1.8,1.7c0.2,0.4,0.3,0.8,0.4,1.2c0,0.7-0.4,1.4-0.9,1.9
			c-2.9,0.3-5.7,0.8-8.5,1.4c-3.2-0.8-6.4-1.3-9.6-1.6c-0.4-0.5-0.7-1-0.7-1.7c0-0.4,0.1-0.8,0.4-1.2c0.6-0.5,1.2-1.1,1.8-1.7
			C177.8,96,183.5,96,188.3,98.4L188.3,98.4z M170.2,99.2c-1.5,1.2-3.1,2.3-4.7,3.2c-1-0.1-1.9-0.3-2.9-0.5c2.7-2.2,5.9-3.7,9.3-4.4
			C171.2,98,170.6,98.6,170.2,99.2L170.2,99.2z M163.6,103.4l-0.1,0.1c-1,0.4-1.9,0.9-2.9,1.4c0.2-0.7,0.6-1.3,1-1.9
			C162.2,103.2,162.9,103.3,163.6,103.4L163.6,103.4z M139.1,122c-2.5,3-4.8,6.2-6.8,9.6c-3.3,1.9-6.4,4.1-9.3,6.5
			c1.5-3.8,3.3-7.4,5.5-10.9C131.9,125.2,135.4,123.4,139.1,122z M120.1,142.4c-1.1,3.6-2,7.3-2.5,11c-2.4,3.1-4.5,6.4-6.3,9.9
			c0-0.3,0-0.6,0-0.9c0-3.7,0.3-7.3,0.9-10.9C114.5,148.3,117.2,145.2,120.1,142.4L120.1,142.4z M110.1,165.7l-0.2,0.4
			c-1.6,3.5-3,7-4,10.7c-0.7-3.5-1.1-7.1-1.2-10.7c0-0.5-0.1-1-0.1-1.5c0.2-0.4,0.5-0.9,0.7-1.3c1.5-3.3,3.3-6.4,5.3-9.4
			c-0.4,2.9-0.5,5.7-0.5,8.6C110,163.6,110,164.7,110.1,165.7L110.1,165.7z M110.3,168.4c0.3,3.9,1,7.8,1.9,11.6
			c-0.9,3.7-1.6,7.4-1.9,11.1c-0.2-0.4-0.4-0.8-0.5-1.2c-1.4-3.4-2.5-6.9-3.3-10.4C107.4,175.7,108.7,172,110.3,168.4L110.3,168.4z
			 M108.7,190.4c0.5,1.1,1,2.3,1.5,3.4c-0.1,1.2-0.1,2.5-0.1,3.7c0,2.9,0.2,5.7,0.5,8.6c-2-3-3.8-6.1-5.3-9.4
			c-0.3-0.6-0.6-1.2-0.9-1.8c0.1-0.7,0.2-1.3,0.2-2c0.2-3.6,0.6-7.2,1.3-10.7C106.6,184.9,107.5,187.7,108.7,190.4L108.7,190.4z
			 M111.3,197.4c0-0.4,0-0.9,0-1.3c1.7,3.4,3.7,6.6,6,9.6c0.5,3.9,1.4,7.7,2.6,11.5l-0.6-0.6c-2.6-2.6-4.9-5.4-7.1-8.3
			C111.6,204.7,111.3,201.1,111.3,197.4L111.3,197.4z M123,222.4c-0.1-0.3-0.2-0.6-0.3-0.8c3,2.5,6.2,4.8,9.6,6.9
			c1.9,3.2,4.1,6.3,6.6,9.2c-0.4-0.2-0.8-0.3-1.2-0.5c-3.4-1.4-6.6-3.1-9.7-5C126,229,124.4,225.8,123,222.4z M160.6,255.1
			c0.8,0.4,1.6,0.8,2.5,1.2c-0.6,0.1-1.1,0.2-1.7,0.3C161,256.1,160.7,255.6,160.6,255.1L160.6,255.1z M165,257.3
			c1.8,1,3.6,2.1,5.2,3.5c0.5,0.6,1,1.2,1.7,1.6c-4.2-1-7.6-2.6-9.6-4.7C163.2,257.5,164.1,257.4,165,257.3L165,257.3z M173,261.6
			c-0.6-0.6-1.2-1.1-1.8-1.7c-0.2-0.4-0.3-0.8-0.4-1.2c0-0.7,0.4-1.4,0.9-1.9c2.9-0.3,5.7-0.8,8.5-1.4c3.2,0.8,6.4,1.3,9.6,1.6
			c0.4,0.5,0.7,1.1,0.7,1.7c0,0.4-0.1,0.8-0.4,1.2c-0.6,0.5-1.2,1.1-1.8,1.7C183.5,264,177.8,264,173,261.6z M191.1,260.8
			c1.5-1.2,3.1-2.3,4.7-3.2c1,0.1,1.9,0.3,2.9,0.5c-2.7,2.2-5.9,3.7-9.3,4.4C190.1,262,190.6,261.4,191.1,260.8L191.1,260.8z
			 M197.7,256.6l0.1-0.1c1-0.4,1.9-0.9,2.9-1.4c-0.2,0.7-0.6,1.3-1,1.9C199,256.8,198.4,256.7,197.7,256.6L197.7,256.6z M223,237.6
			l-0.8,0.3c2.5-3,4.8-6.2,6.8-9.6c3.2-1.9,6.3-4.1,9.2-6.6c-0.2,0.4-0.3,0.8-0.5,1.2c-1.4,3.4-3.1,6.6-5,9.7
			C229.6,234.6,226.4,236.3,223,237.6z M242.1,216.6c-0.3,0.3-0.6,0.6-0.9,0.9c1.2-3.6,2-7.3,2.6-11c2.4-3.2,4.5-6.5,6.3-10
			c0,0.3,0,0.6,0,0.9c0,3.6-0.3,7.3-0.9,10.9C247,211.3,244.6,214.1,242.1,216.6L242.1,216.6z M251.2,194.2c0.5-1,0.9-2,1.3-3
			c1.1-2.7,2.1-5.4,2.9-8.1c0.7,3.5,1.1,7.1,1.2,10.7c0,0.5,0.1,1,0.1,1.5c-0.2,0.4-0.5,0.9-0.7,1.3c-1.5,3.3-3.3,6.4-5.3,9.4
			c0.4-2.9,0.5-5.7,0.5-8.6C251.2,196.4,251.2,195.3,251.2,194.2L251.2,194.2z M257.8,193.4c-0.2-4.4-0.7-8.7-1.7-13
			c1.1-4.4,1.7-8.8,1.9-13.3c0-0.1,0-0.1,0-0.2c3.3,5.2,8,9.4,13.6,12c0.8,0.4,1.5,0.7,2.3,1.1c-0.8,0.4-1.5,0.8-2.3,1.1
			C265.9,183.8,261.1,188.1,257.8,193.4L257.8,193.4z M272.1,177.7c-5.9-2.7-10.8-7.2-13.9-12.9c0.8-6.4,3.6-12.5,8-17.2
			c0.8-0.9,1.6-1.7,2.3-2.6c7.7,0.8,15.2,2.9,22.2,6.2c3.3,1.6,6.5,3.4,9.5,5.5c-2.5,3.8-5.5,7.3-8.7,10.6
			c-4.8,4.8-10.3,8.9-16.3,12.1C274.2,178.7,273.1,178.2,272.1,177.7L272.1,177.7z M265.3,146.7c-4.2,4.5-7,10.1-8.1,16.2l-0.1-0.1
			c-1.9-4.1-4.2-8-6.8-11.7c-0.7-4.3-1.8-8.5-3.3-12.6c5.1,3.7,11.1,5.9,17.4,6.2c0.9,0,1.7,0.1,2.6,0.2
			C266.4,145.5,265.9,146.1,265.3,146.7L265.3,146.7z M245.7,116.4c-2.2,5.9-2.5,12.3-1.1,18.4c-3.2-2.9-6.7-5.6-10.4-7.9
			c-2.3-3.8-5.1-7.5-8.1-10.8l-0.1-0.1c6,1.4,12.3,1,18.1-1.2c0.8-0.3,1.6-0.6,2.4-0.8C246.3,114.9,246,115.7,245.7,116.4
			L245.7,116.4z M243.7,113.7c-6.1,2.3-12.8,2.5-19,0.7c-4-5.1-6.3-11.3-6.5-17.8l0,0c10.4-0.3,19.6-6.6,23.8-16.1
			c2.2-0.6,4.4-1.2,6.6-1.6c2.2,11.2,1.7,22.8-1.6,33.7C245.9,112.9,244.8,113.3,243.7,113.7L243.7,113.7z M218.1,95.3
			c0-0.8-0.1-1.5-0.1-2.2c6-4.9,12.8-8.7,20.1-11.3c0.8-0.3,1.5-0.5,2.3-0.8C236.2,89.5,227.6,95,218.1,95.3z M237.6,80.6
			c-7.1,2.6-13.8,6.3-19.8,11c-0.2-2.2-0.6-4.4-1-6.6c5.6-2.6,8-9.2,5.4-14.8c-2.3-4.9-7.9-7.5-13.1-6c-1-1.8-2.1-3.5-3.2-5.1
			c8.3-5.1,17.6-8.3,27.2-9.6c9,7,12.3,19.2,7.9,29.9C239.9,79.8,238.8,80.2,237.6,80.6z M211.9,69.8c-0.7-1.5-1.4-2.9-2.2-4.3
			c5.3-1.3,10.6,1.9,12,7.1c1.1,4.5-1,9.1-5.1,11.2C215.5,79,214,74.3,211.9,69.8z M215.4,84.3c-5.1,1.9-10.8-0.7-12.7-5.8
			c-1.9-5.1,0.7-10.8,5.8-12.7c0.8,1.5,1.6,2.9,2.2,4.5C212.8,74.8,214.4,79.5,215.4,84.3L215.4,84.3z M205.2,58.2
			c-1.7-2.4-3.6-4.7-5.6-6.9c8.7-8.4,22.1-9.6,32.1-2.8C222.4,49.9,213.3,53.2,205.2,58.2z M204.2,58.8c-3.4,2.2-6.6,4.7-9.6,7.4
			c-1,0.9-1.9,1.8-2.8,2.7c0.2-6.3,2.7-12.2,7-16.8C200.7,54.3,202.5,56.5,204.2,58.8L204.2,58.8z M195.4,67.2
			c2.9-2.7,6.1-5.2,9.5-7.3c1.1,1.6,2.1,3.2,3,4.8c-5.7,2.4-8.4,8.9-6,14.5c2.2,5.4,8.2,8.1,13.8,6.3c0.5,2.3,0.8,4.7,1,7
			c-0.9,0.7-1.8,1.5-2.6,2.3l-0.3,0.2c-12.2-1.8-21.4-12-21.9-24.3C193,69.6,194.2,68.3,195.4,67.2L195.4,67.2z M212.4,96.2
			c-3.5,2.8-7.6,4.8-12,5.8c-2.4-2.8-6.9-5-12.7-6c-2-2.2-3.6-4.7-4.9-7.4c-0.5-1.1-1-2.1-1.6-3.2c2.6-4.8,5.7-9.3,9.3-13.3
			C191.7,84.1,200.6,93.9,212.4,96.2L212.4,96.2z M181.7,89.1c1.1,2.4,2.5,4.6,4.1,6.7c-3.5-0.4-7-0.4-10.6,0c1.7-2,3-4.3,4.1-6.7
			c0.4-0.8,0.7-1.5,1.1-2.3C181,87.5,181.4,88.3,181.7,89.1L181.7,89.1z M178.3,88.6c-1.2,2.7-2.9,5.2-4.8,7.4
			c-5.5,1-9.9,3-12.3,5.6c-4.1-1.1-7.9-3-11.2-5.7c11.3-2.6,19.7-12.3,20.7-23.8c3.6,4.1,6.7,8.5,9.3,13.3
			C179.4,86.4,178.9,87.5,178.3,88.6L178.3,88.6z M148.8,94.9c-0.2-0.2-0.4-0.3-0.5-0.5c-0.9-0.8-1.7-1.6-2.6-2.3
			c0.2-2.1,0.5-4.2,0.9-6.3c6,1.4,12-2.2,13.4-8.2c1.2-5-1.2-10.1-5.7-12.5c0.9-1.6,1.9-3.2,3-4.7c3.1,2,5.9,4.3,8.6,6.8
			c1.3,1.2,2.5,2.4,3.6,3.6C169,82.7,160.4,92.6,148.8,94.9z M151.8,69.9c0.6-1.3,1.2-2.5,1.9-3.7c4.9,2.5,6.8,8.4,4.3,13.3
			c-2.1,4.1-6.7,6.2-11.1,5.1C147.9,79.5,149.6,74.6,151.8,69.9L151.8,69.9z M145.6,84.2c-5.1-1.9-7.7-7.6-5.8-12.7
			c1.9-5.1,7.6-7.7,12.7-5.8c-0.6,1.2-1.3,2.4-1.9,3.7C148.4,74.1,146.7,79.1,145.6,84.2L145.6,84.2z M166.7,66.2
			c-2.7-2.5-5.7-4.8-8.8-6.9c1.6-2.3,3.4-4.4,5.2-6.5c3.9,4.5,6.2,10.2,6.3,16.1C168.6,68.1,167.6,67.1,166.7,66.2L166.7,66.2z
			 M156.9,58.7c-8.3-5.3-17.6-8.7-27.4-10.1c10.3-7,24.2-5.6,32.8,3.5C160.4,54.1,158.5,56.4,156.9,58.7L156.9,58.7z M124.4,81.1
			c7.2,2.7,14,6.6,19.9,11.6c-0.1,0.9-0.1,1.8-0.2,2.7h-0.2c-10.3,0-19.6-6.2-23.6-15.7C121.6,80.1,123,80.6,124.4,81.1z
			 M143.9,96.6h0.1c-0.4,6.5-2.8,12.7-7,17.7c-6.4,1.9-13.2,1.7-19.4-0.6c-1.1-0.4-2.2-0.8-3.3-1.1c-3.4-11.3-3.9-23.2-1.4-34.7
			c2,0.4,4,0.8,6,1.4C122.8,89.7,132.7,96.6,143.9,96.6L143.9,96.6z M117.1,114.9c5.9,2.2,12.3,2.6,18.4,1.1
			c-3,3.2-5.6,6.7-7.9,10.4c-3.8,2.3-7.5,5.1-10.8,8.1l-0.1,0.1c1.4-6,1-12.3-1.2-18.1c-0.3-0.8-0.6-1.6-0.8-2.4
			C115.5,114.3,116.3,114.6,117.1,114.9z M114.4,116.9c2.3,6.1,2.5,12.8,0.7,19c-5.1,4-11.3,6.3-17.8,6.5c-1.2,0-2.3,0.1-3.5,0.2
			c-4.3-5.3-7.8-11.2-10.3-17.5c-1.7-4.2-3-8.6-3.9-13.1c3.6-0.7,7.2-1.2,10.9-1.3c7.7-0.3,15.5,0.7,22.8,2.9
			C113.6,114.7,113.9,115.8,114.4,116.9L114.4,116.9z M97.3,143.6c6.2-0.2,12.1-2.2,17.2-5.8l-0.1,0.2c-1.6,4.2-2.7,8.6-3.4,13
			c-2.6,3.5-4.8,7.3-6.6,11.3c-0.9-6.2-3.7-12-7.9-16.7c-0.6-0.6-1.1-1.3-1.7-1.9C95.6,143.8,96.4,143.7,97.3,143.6L97.3,143.6z
			 M95.5,146.6c4.5,4.9,7.2,11.2,7.8,17.8c-3.1,5.9-8.1,10.6-14.1,13.4c-1.1,0.5-2.1,1-3.2,1.6c-6-3.2-11.5-7.3-16.3-12.1
			c-3.5-3.5-6.6-7.3-9.2-11.4c3.3-2.3,6.8-4.3,10.4-5.9c7-3.2,14.6-5.2,22.3-5.9C93.9,144.8,94.7,145.7,95.5,146.6L95.5,146.6z
			 M89.7,178.9c5.7-2.6,10.5-6.9,13.8-12.3c0.2,4.4,0.7,8.7,1.7,12.9c-1.1,4.4-1.7,8.9-1.9,13.4c0,0.1,0,0.1,0,0.2
			c-3.3-5.2-8-9.4-13.6-12c-0.8-0.4-1.5-0.7-2.3-1.1C88.2,179.6,88.9,179.2,89.7,178.9L89.7,178.9z M89.2,182.2
			c5.9,2.7,10.8,7.2,13.9,12.9c-0.8,6.4-3.6,12.5-8,17.2c-0.8,0.9-1.6,1.7-2.3,2.6c-6.8-0.7-13.4-2.4-19.7-5c-4.2-1.8-8.2-4-12-6.5
			c2-3.1,4.3-6,6.8-8.7c5.2-5.7,11.4-10.5,18.2-14.1C87.1,181.2,88.1,181.8,89.2,182.2L89.2,182.2z M96,213.2c4.2-4.5,7-10.1,8-16.2
			l0.1,0.1c1.9,4.1,4.2,8,6.8,11.6c0.7,4.3,1.8,8.5,3.3,12.6c-5.1-3.7-11.1-5.9-17.4-6.2c-0.8,0-1.7-0.1-2.6-0.2
			C94.8,214.5,95.4,213.9,96,213.2L96,213.2z M96.8,216.6c6.6,0.3,13,2.8,18.1,7c1.9,6.4,1.7,13.2-0.6,19.4
			c-0.4,1.1-0.8,2.2-1.1,3.3c-6.5,2-13.3,3-20.1,3c-4.9,0-9.8-0.5-14.6-1.6c0.7-3.9,1.8-7.8,3.2-11.6c2.7-7.2,6.6-14,11.6-19.9
			C94.4,216.4,95.6,216.5,96.8,216.6L96.8,216.6z M115.5,243.5c2.2-5.9,2.5-12.3,1.1-18.4c3.2,3,6.7,5.6,10.4,7.9
			c2.3,3.9,5.1,7.5,8.1,10.8l0.1,0.1c-6-1.4-12.3-1-18.1,1.1c-0.8,0.3-1.6,0.6-2.4,0.8C115,245.1,115.2,244.3,115.5,243.5
			L115.5,243.5z M117.5,246.2c6.1-2.3,12.8-2.5,19-0.7c4,5.1,6.3,11.4,6.5,17.9l0,0c-10.4,0.3-19.6,6.6-23.8,16.1
			c-2.2,0.7-4.4,1.2-6.6,1.6c-2.3-11.2-1.7-22.8,1.6-33.8C115.3,247,116.4,246.7,117.5,246.2L117.5,246.2z M143.1,264.6
			c0,0.8,0.1,1.5,0.1,2.2c-5.3,4.3-11.2,7.8-17.5,10.4c-1.6,0.6-3.2,1.2-4.9,1.8C125.1,270.5,133.6,264.9,143.1,264.6L143.1,264.6z
			 M126.2,278.4c6.2-2.5,11.9-5.9,17.2-10c0.2,2.2,0.6,4.4,1,6.6c-5.6,2.6-8,9.2-5.4,14.8c2.3,4.9,7.9,7.5,13.1,6
			c1,1.8,2.1,3.5,3.2,5.1c-8.2,5.1-17.4,8.4-26.9,9.7c-9.2-7-12.6-19.3-8.2-30C122.2,279.9,124.2,279.2,126.2,278.4L126.2,278.4z
			 M148.2,287.6c1,2.4,2.1,4.7,3.3,6.9c-5.3,1.3-10.6-1.9-12-7.2c-1.1-4.5,1-9.1,5.1-11.2C145.5,280.1,146.7,284,148.2,287.6
			L148.2,287.6z M145.8,275.6c5.1-1.9,10.8,0.7,12.7,5.8s-0.7,10.8-5.8,12.7l0,0c-1.2-2.3-2.3-4.6-3.3-7
			C147.9,283.4,146.7,279.6,145.8,275.6L145.8,275.6z M156,301.9c1.7,2.4,3.6,4.7,5.5,6.9c-8.6,8.3-21.8,9.5-31.8,2.9
			C139.1,310.2,148,306.9,156,301.9z M157.1,301.2c4.2-2.7,8.1-5.9,11.6-9.4c0.3-0.3,0.5-0.5,0.8-0.8c-0.2,6.3-2.7,12.3-7,16.9
			C160.5,305.8,158.7,303.6,157.1,301.2z M167.8,290.9c-3.5,3.5-7.3,6.6-11.5,9.3c-1.1-1.6-2.1-3.2-3-4.9c5.7-2.4,8.3-8.9,6-14.6
			c-2.2-5.3-8.2-8.1-13.7-6.3c-0.5-2.3-0.8-4.7-1-7c0.9-0.7,1.8-1.5,2.6-2.3l0.3-0.2c12.2,1.8,21.4,12,21.9,24.3
			C168.9,289.8,168.4,290.4,167.8,290.9z M148.8,263.9c3.5-2.8,7.6-4.8,12-5.8c2.4,2.8,6.9,5,12.7,6c2,2.2,3.6,4.7,4.9,7.5
			c0.5,1.1,1,2.1,1.6,3.1c-2.6,4.8-5.7,9.3-9.3,13.3C169.6,275.9,160.6,266.1,148.8,263.9L148.8,263.9z M179.5,270.9
			c-1.1-2.4-2.5-4.6-4.1-6.6c3.5,0.4,7,0.4,10.6,0c-1.7,2-3,4.3-4.1,6.6c-0.4,0.8-0.7,1.5-1.1,2.3
			C180.2,272.5,179.9,271.7,179.5,270.9L179.5,270.9z M182.9,271.5c1.3-2.7,2.9-5.2,4.9-7.5c5.5-1,9.9-3,12.3-5.6
			c4.1,1.1,7.9,3,11.2,5.7c-11.3,2.6-19.7,12.2-20.7,23.8c-3.6-4.1-6.7-8.5-9.3-13.3C181.9,273.6,182.4,272.5,182.9,271.5
			L182.9,271.5z M212.5,265.1c0.2,0.2,0.4,0.3,0.5,0.5c0.9,0.8,1.7,1.6,2.6,2.3c-0.2,2.1-0.6,4.2-1,6.3c-6-1.4-12,2.2-13.4,8.2
			c-1.2,5,1.2,10.1,5.7,12.5c-0.9,1.6-1.9,3.2-2.9,4.8c-3.8-2.6-7.4-5.5-10.6-8.7c-0.6-0.6-1.1-1.1-1.6-1.7
			C192.3,277.3,200.8,267.4,212.5,265.1L212.5,265.1z M210.6,287.6c-0.9,2.1-1.9,4.2-3,6.2c-4.9-2.5-6.8-8.4-4.3-13.3
			c2.1-4.1,6.7-6.2,11.1-5.1C213.5,279.6,212.3,283.6,210.6,287.6L210.6,287.6z M215.6,275.8c5.1,1.9,7.7,7.6,5.8,12.7
			s-7.6,7.7-12.7,5.8c1.1-2,2.1-4.1,3-6.2C213.4,284.1,214.7,280,215.6,275.8L215.6,275.8z M192.6,291.8c3.3,3.3,6.9,6.3,10.8,8.9
			c-1.6,2.3-3.3,4.4-5.2,6.5c-3.9-4.5-6.2-10.2-6.4-16.1C192,291.3,192.3,291.5,192.6,291.8L192.6,291.8z M204.4,301.3
			c8.2,5.3,17.4,8.8,27.1,10.3c-10.2,6.8-23.9,5.3-32.4-3.5C200.9,305.9,202.7,303.7,204.4,301.3L204.4,301.3z M234.3,277.9
			c-6.3-2.6-12.1-6.2-17.3-10.5c0.1-0.9,0.1-1.8,0.2-2.7h0.2c10.3,0,19.6,6.2,23.6,15.7C238.7,279.6,236.5,278.8,234.3,277.9
			L234.3,277.9z M217.3,263.3h-0.1c0.4-6.5,2.8-12.7,7-17.7c6.4-1.9,13.2-1.7,19.4,0.6c1.1,0.4,2.2,0.8,3.3,1.1
			c3.4,11.3,3.9,23.2,1.4,34.8c-2-0.4-4-0.9-6-1.4C238.4,270.3,228.5,263.4,217.3,263.3L217.3,263.3z M244.1,245
			c-5.9-2.2-12.3-2.5-18.4-1c3-3.2,5.6-6.7,7.9-10.4c3.9-2.3,7.5-5.1,10.8-8.1l0.1-0.1c-1.4,6-1,12.3,1.1,18.1
			c0.3,0.8,0.6,1.6,0.8,2.4C245.8,245.7,244.9,245.4,244.1,245L244.1,245z M246.8,243c-2.3-6.1-2.5-12.8-0.7-19
			c5.1-4,11.4-6.3,17.9-6.5c1.2,0,2.3-0.1,3.5-0.2c4.9,6,8.7,12.8,11.3,20.1c1.3,3.4,2.2,7,2.9,10.6c-4.5,0.9-9,1.3-13.6,1.3
			c-6.8,0-13.6-1-20.1-3C247.7,245.3,247.3,244.2,246.8,243L246.8,243z M264,216.3c-6.2,0.2-12.1,2.2-17.1,5.8l0.1-0.2
			c1.6-4.2,2.7-8.6,3.4-13.1c2.6-3.5,4.8-7.3,6.6-11.3c0.9,6.2,3.7,12,7.9,16.7c0.6,0.6,1.1,1.3,1.7,1.9
			C265.7,216.3,264.9,216.3,264,216.3z M265.8,213.4c-4.5-4.9-7.2-11.2-7.8-17.8c3.1-5.9,8.1-10.6,14.1-13.4c1.1-0.5,2.1-1,3.1-1.6
			c6.8,3.6,13,8.4,18.2,14.1c2.7,2.9,5.2,6.1,7.3,9.5c-4.1,2.8-8.4,5.1-13,6.9c-6.3,2.6-13,4.2-19.7,4.8
			C267.4,215.2,266.6,214.3,265.8,213.4L265.8,213.4z M294.4,193.9c-5.2-5.6-11.2-10.3-17.8-13.9c5.8-3.2,11.2-7.2,15.9-11.9
			c3.3-3.3,6.2-6.9,8.8-10.7c8.7,6.2,15.8,14.3,20.8,23.7c-5,8.9-11.9,16.6-20.3,22.5C299.6,200.2,297.1,196.9,294.4,193.9
			L294.4,193.9z M301.9,156.3c5.7-8.8,9.3-18.8,10.6-29.3c7.8,6.6,14.1,14.7,18.5,23.9c-0.5,7.9-2.3,15.7-5.4,23
			c-0.8,2-1.8,3.9-2.8,5.8C317.7,170.5,310.6,162.4,301.9,156.3L301.9,156.3z M300.9,155.6c-3.1-2.1-6.3-4-9.7-5.5
			c-6.9-3.2-14.2-5.3-21.8-6.2c4.2-5.2,7.6-10.9,10.2-17.1c1.9-4.6,3.4-9.4,4.3-14.3c10,2.4,19.4,7.1,27.4,13.6
			C310.2,136.6,306.6,146.7,300.9,155.6L300.9,155.6z M283,111c-4-0.9-8-1.4-12.1-1.6c-7.6-0.3-15.2,0.6-22.5,2.8
			c3.2-10.9,3.7-22.4,1.4-33.5c3.7-0.6,7.5-0.9,11.3-0.9c6.9,0,13.7,1,20.2,3C284.2,90.6,284.7,100.9,283,111z M249.6,77.4
			c-0.9-4.3-2.3-8.5-4-12.5c6-1.1,10-6.9,8.9-12.9c-0.1-0.7-0.3-1.4-0.6-2.1c4.2,0.7,8.4,1.8,12.4,3.2c5.3,5.9,9.5,12.7,12.5,20
			c0.8,2,1.5,4.1,2.2,6.1C270.8,76.3,260.1,75.7,249.6,77.4z M253.5,54c0,5-3.8,9.3-8.8,9.8l-0.9,0.1l0.3,0.8
			c1.8,4.2,3.2,8.5,4.2,13c-2,0.4-3.9,0.8-5.8,1.4c3.9-10.5,0.9-22.4-7.7-29.6c5.9-0.6,11.8-0.5,17.6,0.3
			C253.2,51.1,253.5,52.5,253.5,54z M235.8,48.1c3.2-4.4,9.4-5.3,13.8-2c0.9,0.6,1.6,1.4,2.2,2.3C246.5,47.7,241.1,47.6,235.8,48.1z
			 M233.5,48.3c-10.5-8-25.2-7.1-34.7,2.1c-4.7-4.9-10.1-9.1-16-12.4c8.8-4.5,18.5-7.2,28.4-7.7c8.8,4.3,16.6,10.5,22.8,18
			L233.5,48.3z M197.9,51.3c-4.7,5-7.4,11.6-7.4,18.5c0,0.2,0,0.4,0,0.6c-3.8,4.2-7.2,8.8-9.9,13.8c-2.7-5-6.1-9.6-9.9-13.8
			c0-0.2,0-0.4,0-0.6c0-6.5-2.4-12.9-6.7-17.8c5.1-5.3,11-9.8,17.5-13.3C187.5,42,193.1,46.3,197.9,51.3L197.9,51.3z M163.2,51.1
			c-9.4-9.8-24.6-11-35.4-2.8l-0.5-0.1c6.4-7.8,14.5-14.1,23.7-18.5c10.2,0.6,20.2,3.4,29.3,8.2C173.9,41.5,168.1,45.9,163.2,51.1
			L163.2,51.1z M118.8,49c2.5,0,5,0.1,7.6,0.4c-8.2,7-11.4,18.2-8.1,28.4c-1.7-0.4-3.4-0.8-5.2-1.1c1-4.1,2.3-8.1,4-12l0.3-0.8
			l-0.8-0.1c-5.4-0.6-9.3-5.4-8.8-10.8c0.1-1.1,0.4-2.3,0.9-3.3C112.1,49.2,115.4,49,118.8,49z M109.5,48.4
			c3.1-4.5,9.2-5.6,13.7-2.5c0.9,0.6,1.7,1.4,2.3,2.2C120.2,47.6,114.8,47.7,109.5,48.4L109.5,48.4z M115.6,65
			c-1.6,3.7-2.8,7.6-3.7,11.5c-10.1-1.7-20.5-1.1-30.4,1.7c0.7-2,1.4-4.1,2.2-6.1c3-7,7.1-13.5,12.1-19.2c3.7-1.3,7.6-2.2,11.5-2.9
			c-2.3,5.7,0.5,12.1,6.2,14.4C114.2,64.6,114.9,64.8,115.6,65L115.6,65z M111.6,77.7c-2.5,11.4-2,23.3,1.2,34.5
			c-7.3-2.1-14.9-3.1-22.5-2.8c-3.7,0.1-7.4,0.6-11.1,1.3C77.4,100.4,78,89.7,81,79.5C90.9,76.6,101.4,76,111.6,77.7L111.6,77.7z
			 M78.2,112.3c0.9,4.6,2.2,9,4,13.3c2.5,6.2,5.9,11.9,10,17.2c-7.6,0.8-14.9,2.8-21.9,5.9c-3.7,1.7-7.2,3.7-10.6,6
			c-5.4-8.7-8.8-18.5-10-28.6C58.1,119.3,67.8,114.6,78.2,112.3z M58.8,155.4c-8.3,6-15.3,13.7-20.3,22.7c-1-1.9-1.9-3.9-2.7-5.9
			c-2.9-7-4.6-14.5-5-22.1c4.3-8.9,10.4-16.7,18-23.1C49.9,137.1,53.4,146.8,58.8,155.4z M59.4,156.5c2.7,4.2,5.9,8.1,9.4,11.6
			c4.7,4.7,10.1,8.7,15.9,11.9c-6.7,3.7-12.7,8.4-17.8,13.9c-2.5,2.7-4.8,5.7-6.9,8.8c-8.7-6.1-15.8-14.1-20.8-23.4
			C44.1,170.3,51.1,162.5,59.4,156.5L59.4,156.5z M59.3,203.8c-5.7,9-9.3,19.1-10.5,29.6c-1.7-1.4-3.2-2.8-4.8-4.4
			c-5.6-5.6-10.2-12.1-13.6-19.3c0.6-10.2,3.3-20.1,8-29.1C43.6,189.9,50.7,197.8,59.3,203.8L59.3,203.8z M60.3,204.5
			c3.8,2.6,7.9,4.8,12.2,6.6c6.1,2.6,12.6,4.3,19.2,5.1c-4.8,5.9-8.6,12.5-11.3,19.6c-1.4,3.8-2.5,7.7-3.2,11.7
			c-10-2.3-19.3-6.8-27.3-13.2C51.1,223.7,54.6,213.5,60.3,204.5L60.3,204.5z M78.3,249.1c4.9,1,9.9,1.6,14.8,1.6
			c6.7,0,13.3-0.9,19.7-2.8c-3.2,10.9-3.7,22.4-1.4,33.6c-10.4,1.8-21.1,1.2-31.2-1.8C77.3,269.7,76.6,259.2,78.3,249.1L78.3,249.1z
			 M99.6,283.7c4,0,8.1-0.4,12.1-1.1c0.9,4.3,2.3,8.4,4,12.5c-6,1.1-10,6.9-8.9,13c0.1,0.8,0.4,1.5,0.7,2.3c-4-0.6-8-1.6-11.9-3
			c-6.8-7.6-11.9-16.6-14.9-26.3C86.8,282.8,93.2,283.6,99.6,283.7L99.6,283.7z M107.8,306c0-5,3.8-9.3,8.8-9.8l0.8-0.1l-0.3-0.8
			c-1.8-4.2-3.2-8.5-4.2-12.9c1.9-0.4,3.9-0.9,5.8-1.4c-4,10.6-0.8,22.6,7.9,29.8h-0.2l-0.1-0.1l-0.1,0.1c-2.5,0.3-5,0.4-7.5,0.4
			l0,0c-3.3,0-6.6-0.2-9.9-0.7C108.1,309.1,107.8,307.6,107.8,306z M118.8,312.5L118.8,312.5c2.2,0,4.4-0.1,6.5-0.3
			c-3.4,4.2-9.6,4.9-13.8,1.5c-0.7-0.5-1.2-1.1-1.7-1.8C112.7,312.3,115.7,312.5,118.8,312.5z M128,311.9c10.5,7.8,25,6.8,34.4-2.2
			c4.7,5,10.1,9.2,16.1,12.6c-1.8,0.9-3.7,1.8-5.6,2.6c-7.2,2.9-14.7,4.6-22.4,5c-8.9-4.3-16.7-10.4-23-18L128,311.9z M163.3,308.8
			c4.8-5,7.5-11.6,7.5-18.5c0-0.2,0-0.4,0-0.6c3.8-4.2,7.2-8.8,9.9-13.8c2.7,5,6.1,9.6,9.9,13.8c0,0.2,0,0.4,0,0.6
			c0,6.6,2.4,12.9,6.8,17.8c-5.1,5.4-11,10-17.5,13.5C173.7,318.2,168.1,313.9,163.3,308.8L163.3,308.8z M198.2,309
			c9.3,9.6,24.3,10.8,35.1,2.9l0.6,0.1c-6.5,7.8-14.7,14.1-23.9,18.4c-8-0.4-15.9-2.2-23.3-5.4c-1.9-0.8-3.8-1.7-5.6-2.7
			C187.4,318.8,193.2,314.3,198.2,309L198.2,309z M242.5,311.2L242.5,311.2c-2.5,0-5-0.1-7.5-0.4l-0.1-0.1l-0.1,0.1h-0.1
			c8.3-7,11.6-18.3,8.4-28.6c1.7,0.5,3.4,0.9,5.1,1.2c-1,4.1-2.3,8.1-4,11.9l-0.3,0.8l0.9,0.1c5.4,0.6,9.3,5.4,8.7,10.9
			c-0.1,1.2-0.5,2.4-1.1,3.5C249.1,311,245.8,311.3,242.5,311.2L242.5,311.2z M251.5,311.9c-3.2,4.4-9.4,5.3-13.8,2
			c-0.7-0.5-1.3-1.1-1.8-1.7c2.2,0.2,4.3,0.3,6.5,0.3l0,0C245.5,312.5,248.5,312.3,251.5,311.9L251.5,311.9z M245.6,295.1
			c1.6-3.7,2.8-7.5,3.7-11.5c10,1.8,20.3,1.3,30.1-1.4c-3,9.4-8,18-14.6,25.4c-3.6,1.2-7.3,2.1-11,2.8c2.4-5.7-0.3-12.2-5.9-14.6
			C247.2,295.4,246.4,295.2,245.6,295.1L245.6,295.1z M249.6,282.4c2.5-11.4,2.1-23.3-1.2-34.6c6.4,1.9,13,2.8,19.7,2.8
			c4.7,0,9.3-0.4,13.9-1.3c1.7,10.5,1,21.3-2.1,31.5C270.1,283.6,259.7,284.1,249.6,282.4L249.6,282.4z M282.9,247.8
			c-0.7-3.7-1.7-7.3-2.9-10.8c-2.6-7.1-6.3-13.8-11-19.8c6.6-0.7,13.1-2.3,19.3-4.8c4.6-1.9,9-4.2,13.1-7.1c5.4,8.8,8.7,18.7,9.8,29
			C303,240.9,293.3,245.5,282.9,247.8L282.9,247.8z M302.5,204.6c8.3-5.9,15.2-13.4,20.3-22.2c4.5,8.8,7.1,18.4,7.6,28.2
			c-3.4,6.8-7.8,13.1-13.2,18.4c-1.5,1.5-3.1,3-4.8,4.4C311.2,223.2,307.8,213.4,302.5,204.6L302.5,204.6z M325.9,120.8
			c3.6,8.7,5.3,18.1,5.1,27.5c-4.5-8.8-10.7-16.5-18.3-22.8c0.3-2.5,0.4-4.9,0.4-7.4c0-7-1-13.9-3-20.6
			C316.9,104.1,322.3,112,325.9,120.8L325.9,120.8z M291.5,69.1c6.9,6.9,12.3,15.1,15.8,24.2c-7.3-6.1-15.8-10.7-24.9-13.6
			c-0.7-2.4-1.5-4.7-2.4-7c-2.7-6.8-6.5-13.1-11.2-18.7C277.3,57.5,285.1,62.6,291.5,69.1z M215.1,30.1c9.1,0,18.1,1.8,26.4,5.3
			c8.7,3.6,16.5,9,23.1,15.8c-3.7-1.2-7.4-2.1-11.3-2.7c-3-5.4-9.8-7.3-15.1-4.3c-1.3,0.7-2.5,1.7-3.4,2.9c-5.8-7-13-12.8-21-17.1
			L215.1,30.1z M180.6,23.1L180.6,23.1c9.7,0,19.4,2,28.2,6c-9.6,0.9-18.9,3.6-27.4,8.1c-8.7-4.7-18.3-7.6-28.2-8.5
			C161.9,25,171.2,23.1,180.6,23.1L180.6,23.1z M121.5,34.7c8.5-3.5,17.6-5.2,26.8-5c-8.4,4.3-15.8,10.3-21.8,17.5
			c-3.7-4.9-10.7-5.8-15.6-2c-1.2,0.9-2.2,2.1-2.9,3.4c-3.5,0.5-7,1.3-10.4,2.4C104.3,43.9,112.4,38.4,121.5,34.7z M69.7,69.1
			c6.7-6.7,14.8-11.9,23.7-15.3c-4.5,5.4-8.1,11.4-10.8,17.8c-1,2.3-1.8,4.6-2.5,7c-9.4,2.8-18.2,7.5-25.7,13.9
			C57.8,83.7,63,75.7,69.7,69.1z M36,119.1c3.6-8.4,8.8-16.1,15.4-22.5c-2.2,6.9-3.3,14.2-3.3,21.5c0,2.5,0.1,5,0.4,7.4
			c-7.4,6.1-13.4,13.5-17.9,22C30.4,137.8,32.3,128.1,36,119.1L36,119.1z M23.8,180c0-9.5,2-18.9,5.9-27.6c0.7,7,2.3,13.8,5,20.2
			c0.9,2.3,2,4.5,3.2,6.7c-4.7,8.7-7.5,18.2-8.4,28C25.7,198.7,23.7,189.4,23.8,180z M35.3,239.2c-3.5-8.5-5.2-17.6-5-26.8
			c3.4,6.5,7.7,12.4,12.8,17.6c1.8,1.8,3.6,3.4,5.5,5c-0.9,9.5,0.1,19.1,2.9,28.2C44.5,256.4,39,248.2,35.3,239.2L35.3,239.2z
			 M69.7,290.9c-6.7-6.7-11.9-14.8-15.3-23.6c5.4,4.5,11.4,8.1,17.8,10.8c2.3,1,4.6,1.8,7,2.5c2.8,9.4,7.5,18.2,13.8,25.7
			C84.3,302.8,76.3,297.6,69.7,290.9L69.7,290.9z M119.7,324.6c-8.4-3.6-16.1-8.8-22.4-15.4c3.5,1.1,7.2,2,10.8,2.5
			c3.1,5.3,9.9,7,15.2,3.9c1.2-0.7,2.3-1.7,3.1-2.8c5.9,7.1,13.2,12.9,21.3,17.2C138.1,330.2,128.6,328.3,119.7,324.6L119.7,324.6z
			 M180.6,336.9L180.6,336.9c-9.6,0-19.1-2-27.9-5.9c7.1-0.6,14-2.3,20.5-5c2.2-0.9,4.4-1.9,6.5-3c2.1,1.1,4.2,2.2,6.4,3.1
			c6.8,2.9,14,4.7,21.4,5.3C199.1,335,189.9,336.9,180.6,336.9L180.6,336.9z M239.8,325.3c-8.6,3.5-17.8,5.3-27.1,5.1
			c8.5-4.3,16-10.3,22.1-17.6c3.7,4.9,10.7,5.8,15.6,2c1.1-0.9,2.1-1.9,2.8-3.1c3.4-0.5,6.7-1.3,9.9-2.2
			C256.5,316.3,248.6,321.7,239.8,325.3L239.8,325.3z M291.5,290.9c-6.9,6.9-15.2,12.3-24.3,15.8c6.1-7.3,10.7-15.8,13.6-24.9
			c2.4-0.7,4.7-1.5,7-2.4c6.8-2.7,13-6.5,18.6-11.2C303.1,276.7,298,284.4,291.5,290.9L291.5,290.9z M325.2,240.9
			c-3.6,8.7-9,16.5-15.8,23.1c3-9.4,4.1-19.2,3.1-29c1.9-1.6,3.8-3.2,5.5-5c4.9-4.9,9.1-10.6,12.4-16.7
			C330.7,222.8,328.9,232.2,325.2,240.9L325.2,240.9z"/>
		<rect y="135" class="st1" width="360" height="90"/>
		<path class="st2" d="M115.6,179.6v2.5c0,10.6-3.8,14.7-9.8,14.7s-10.3-4.4-10.3-14.7v-4c0-10.5,4.2-15,10.3-15
			c5.6,0,9,3.7,9.8,10.6h-5.2c-0.5-3.8-1.8-5.8-4.6-5.8c-3.2,0-4.8,2.9-4.8,9.9v4.2c0,7.1,1.6,9.9,4.8,9.9c3,0,4.4-2.4,4.6-7.6h-4.5
			v-4.8L115.6,179.6z"/>
		<path class="st2" d="M124.2,182.1V178c0-10.3,4.2-14.7,10.3-14.7s10.3,4.4,10.3,14.7v4.2c0,10.3-4.2,14.7-10.3,14.7
			S124.2,192.4,124.2,182.1z M129.7,178v4.2c0,7.1,1.6,10,4.8,10s4.8-2.9,4.8-10V178c0-7.1-1.6-10-4.8-10S129.7,170.9,129.7,178z"/>
		<path class="st2" d="M186.8,163.7v4.8h-7.4v28H174v-28h-7.4v-4.8H186.8z"/>
		<path class="st2" d="M200.8,196.4h-5.5v-32.8h5.5V196.4z"/>
		<path class="st2" d="M224.8,182.2l7.3-18.5h5.4v32.8H232v-19.2l-5.4,12.9H223l-5.4-12.8v19.1h-5.5v-32.8h5.4L224.8,182.2z"/>
		<path class="st2" d="M265.1,163.7v4.8h-11.2v8.6h10v4.8h-10v9.8h11.2v4.8h-16.7v-32.8H265.1z"/>
	</g>
</g>
</svg>
