<svg xmlns="http://www.w3.org/2000/svg" xmlns:xlink="http://www.w3.org/1999/xlink" viewBox="0 0 360 360"><defs><style>.cls-1{fill:#121921;}.cls-2{fill:url(#New_Gradient_Swatch_2);}.cls-3{fill:#fff;}.cls-4{fill:url(#linear-gradient);}.cls-5{fill:url(#linear-gradient-2);}</style><linearGradient id="New_Gradient_Swatch_2" x1="68.81" y1="68.19" x2="292.44" y2="291.81" gradientUnits="userSpaceOnUse"><stop offset="0" stop-color="#b0e2fa"/><stop offset="1" stop-color="#5acbf5"/></linearGradient><linearGradient id="linear-gradient" x1="303.75" y1="39.38" x2="332.67" y2="39.38" gradientUnits="userSpaceOnUse"><stop offset="0" stop-color="#5acbf5" stop-opacity="0"/><stop offset="1" stop-color="#5acbf5"/></linearGradient><linearGradient id="linear-gradient-2" x1="309.21" y1="39.38" x2="328.8" y2="39.38" gradientUnits="userSpaceOnUse"><stop offset="0" stop-color="#5acbf5"/><stop offset="1" stop-color="#5acbf5" stop-opacity="0"/></linearGradient></defs><title>go-time-cover-art</title><g id="Layer_2" data-name="Layer 2"><g id="Layer_1-2" data-name="Layer 1"><rect class="cls-1" width="360" height="360"/><path class="cls-2" d="M338.75,180a69.29,69.29,0,0,0-6.52-29.28,70.38,70.38,0,0,0-5.15-30.35A69.32,69.32,0,0,0,309.26,95a70.34,70.34,0,0,0-16.83-26.86,69.29,69.29,0,0,0-25.32-16.09A70.38,70.38,0,0,0,242,34.27,69.33,69.33,0,0,0,211.47,29a70.46,70.46,0,0,0-30.84-7.09h0a70.51,70.51,0,0,0-30,6.67,69.29,69.29,0,0,0-29.62,5A70.34,70.34,0,0,0,95.06,51.76,69.32,69.32,0,0,0,68.82,68.18a70.38,70.38,0,0,0-16.53,26A69.29,69.29,0,0,0,34.91,118.6a70.34,70.34,0,0,0-5.46,31.22A69.33,69.33,0,0,0,22.5,180,70.39,70.39,0,0,0,29.17,210a69.29,69.29,0,0,0,5,29.58,70.33,70.33,0,0,0,18.21,25.94A69.33,69.33,0,0,0,68.81,291.8a70.38,70.38,0,0,0,26,16.53,69.29,69.29,0,0,0,24.45,17.38,70.49,70.49,0,0,0,27.42,5.58q1.74,0,3.48-.09a70.47,70.47,0,0,0,30.48,6.91h0a70.51,70.51,0,0,0,29.63-6.51c1.12.05,2.24.08,3.35.08a70.54,70.54,0,0,0,26.65-5.26,69.33,69.33,0,0,0,25.32-17.81,70.34,70.34,0,0,0,26.86-16.83,69.29,69.29,0,0,0,16.09-25.32,70.39,70.39,0,0,0,17.81-25.1,69.33,69.33,0,0,0,5.31-30.49A70.34,70.34,0,0,0,338.75,180Zm-1.25,0a69.17,69.17,0,0,1-6,28.3,72.35,72.35,0,0,0-8-27.18,71.85,71.85,0,0,0,3.25-6.69A70.79,70.79,0,0,0,332,153.32,68,68,0,0,1,337.5,180Zm-30,85.76a69.43,69.43,0,0,1-20.05,12.47c-2,.82-4.05,1.53-6.1,2.16A70.46,70.46,0,0,0,283.18,249a69.84,69.84,0,0,0,28.2-13.19A71,71,0,0,1,307.48,265.75ZM49.88,235.82a69.85,69.85,0,0,0,27.19,13,70.52,70.52,0,0,0,1.66,30.38c-2-.65-4.08-1.39-6.08-2.23a69.47,69.47,0,0,1-19.19-12.09A71,71,0,0,1,49.88,235.82Zm-.5-117.7a69.43,69.43,0,0,1,4-23.28A71,71,0,0,1,79.62,80,69.84,69.84,0,0,0,78,111a70.46,70.46,0,0,0-28.36,13.55C49.49,122.45,49.38,120.3,49.38,118.12Zm262.19,6.47a70.52,70.52,0,0,0-27.35-13.33,69.84,69.84,0,0,0-1.39-30.09,71,71,0,0,1,25.35,14.56,69.47,69.47,0,0,1,3.7,22.39C311.87,120.3,311.76,122.45,311.57,124.59ZM243,290.25a25.57,25.57,0,0,1-10.09,20.33,68.6,68.6,0,0,1-27.8-10.27c1.08-1.6,2.08-3.25,3-4.94a11.11,11.11,0,1,0,7.75-20.83q.57-2.84.91-5.72a70.37,70.37,0,0,0,17,10.23,71.79,71.79,0,0,0,7.69,2.72A25.46,25.46,0,0,1,243,290.25ZM118.25,69.75A25.57,25.57,0,0,1,128.1,49.6a69.15,69.15,0,0,1,28.06,10.15q-1.61,2.36-3,4.89a11.11,11.11,0,1,0-7.77,20.82c-.38,1.89-.67,3.8-.89,5.73a70.38,70.38,0,0,0-19.65-11.27c-1.68-.63-3.38-1.17-5.08-1.67A25.45,25.45,0,0,1,118.25,69.75ZM278.53,126.3A69.08,69.08,0,0,1,268,143.66q-1.74-.16-3.5-.24a30.51,30.51,0,0,1-18.13-7,30.51,30.51,0,0,1,.55-19.44c.41-1.1.78-2.2,1.12-3.32a69.12,69.12,0,0,1,22.85-2.93,67.42,67.42,0,0,1,11.9,1.55A70,70,0,0,1,278.53,126.3Zm-33.41,97.08c-.51.41-1,.82-1.52,1.27a68.76,68.76,0,0,1-8.52,6.62,71.11,71.11,0,0,0,3.83-7.72q.72-1.71,1.34-3.44,1.37-1.23,2.68-2.54a71.05,71.05,0,0,0,5.71-6.46,68.81,68.81,0,0,1-2.92,10.39C245.49,222.11,245.31,222.75,245.12,223.38Zm-21.58,21.27c-.47.15-1,.28-1.42.46A68.82,68.82,0,0,1,211.73,248a71.07,71.07,0,0,0,6.46-5.71c.77-.77,1.51-1.55,2.24-2.35,1-.36,2-.74,3-1.15a71.08,71.08,0,0,0,7.77-3.74,68.8,68.8,0,0,1-6.72,8.44C224.17,243.87,223.86,244.27,223.54,244.64Zm-10.67,19.14a31.74,31.74,0,0,0-11.92-6.45,6.91,6.91,0,0,0,1.22-3,69.92,69.92,0,0,0,7.32-4.61,70,70,0,0,0,12.64-3.28,31.76,31.76,0,0,0-6.14,17A26.83,26.83,0,0,0,212.87,263.78Zm3,.92c0,.55-.07,1.11-.11,1.66q-.85-.74-1.68-1.51C214.7,264.78,215.3,264.73,215.9,264.7Zm-71.55-.05c.49,0,1,0,1.45.07-.46.41-.92.81-1.38,1.21C144.39,265.51,144.38,265.08,144.35,264.65Zm-.07-1.25v0a31.76,31.76,0,0,0-5.75-17.15l.16.05a70,70,0,0,0,13.05,3.42,69.91,69.91,0,0,0,7.32,4.61,6.71,6.71,0,0,0,.93,2.61,31.74,31.74,0,0,0-12.88,6.67A27,27,0,0,0,144.28,263.4ZM136,243a68.76,68.76,0,0,1-6.62-8.52,71.11,71.11,0,0,0,7.72,3.83q1.71.72,3.44,1.34,1.23,1.37,2.54,2.68a71.07,71.07,0,0,0,6.46,5.71,68.8,68.8,0,0,1-10.38-2.92c-.62-.23-1.25-.41-1.89-.6C136.83,244,136.43,243.47,136,243Zm-20.45-21.49a68.82,68.82,0,0,1-2.92-10.39,71.07,71.07,0,0,0,5.71,6.46c.77.77,1.56,1.51,2.35,2.24.36,1,.74,2,1.15,3a71.08,71.08,0,0,0,3.74,7.77,68.8,68.8,0,0,1-8.44-6.72c-.36-.34-.76-.65-1.13-1C115.83,222.44,115.7,222,115.53,221.49Zm.6-84.87c.51-.41,1-.82,1.52-1.27a68.8,68.8,0,0,1,8.53-6.64,71.29,71.29,0,0,0-4.88,10.33c-.11.28-.19.57-.3.85s-.45.39-.67.59a71.3,71.3,0,0,0-7.72,8.4,68.82,68.82,0,0,1,2.92-10.39C115.76,137.89,115.94,137.26,116.13,136.62Zm21.58-21.27c.47-.15,1-.28,1.42-.46a68.86,68.86,0,0,1,10.4-2.93,71.28,71.28,0,0,0-8.42,7.73l-.3.34-.43.14A71.29,71.29,0,0,0,130,124.94a68.88,68.88,0,0,1,6.74-8.45C137.08,116.12,137.39,115.73,137.71,115.36Zm10.67-19.14a31.74,31.74,0,0,0,11.92,6.45,6.9,6.9,0,0,0-1.23,3,69.85,69.85,0,0,0-7.33,4.6,70,70,0,0,0-12.63,3.29,31.75,31.75,0,0,0,6.14-17A26.84,26.84,0,0,0,148.38,96.22Zm-3-.92q0-.83.11-1.65c.56.49,1.12,1,1.67,1.49C146.55,95.22,146,95.27,145.35,95.3Zm71.54.05c-.49,0-1,0-1.45-.07q.68-.61,1.38-1.2C216.85,94.5,216.87,94.93,216.89,95.35ZM217,96.6v0a31.77,31.77,0,0,0,5.75,17.15l-.16-.05a70,70,0,0,0-13.05-3.44,69.81,69.81,0,0,0-7.32-4.6,6.71,6.71,0,0,0-.93-2.62,31.74,31.74,0,0,0,12.88-6.67A27,27,0,0,0,217,96.6Zm8.3,20.42a68.8,68.8,0,0,1,6.64,8.53,71.29,71.29,0,0,0-10.33-4.88l-.85-.3c-.2-.22-.39-.45-.59-.67a71.3,71.3,0,0,0-8.42-7.73,68.82,68.82,0,0,1,10.4,2.93c.62.23,1.25.41,1.88.6C224.41,116,224.82,116.53,225.27,117Zm20.45,21.49a68.81,68.81,0,0,1,2.92,10.39,71.28,71.28,0,0,0-7.72-8.4l-.34-.3c-.05-.14-.09-.29-.14-.43a71.29,71.29,0,0,0-4.75-10.39,68.88,68.88,0,0,1,8.45,6.74c.36.34.76.65,1.13,1C245.42,137.56,245.55,138,245.72,138.51ZM202.19,252.88a6.5,6.5,0,0,0-.71-2.33c1.76-.08,3.51-.24,5.25-.45Q204.51,251.57,202.19,252.88Zm-6.63,3.4c-.66-.07-1.31-.15-2-.18-1.08,0-2.15-.12-3.22-.22a10.15,10.15,0,0,0-4-2.17c1.57-.51,3.13-1.07,4.67-1.7q1.72-.7,3.38-1.48c1.23.06,2.46.1,3.69.1.66,0,1.31,0,2,0a5.38,5.38,0,0,1,.91,2.92v0c-1.21.65-2.43,1.27-3.68,1.85C196.72,255.65,196.14,256,195.56,256.28Zm-3.81,2.42a3.45,3.45,0,0,0-.38-1.49c.72.05,1.44.11,2.17.15l.17,0C193,257.79,192.38,258.23,191.74,258.7Zm-24.52-1.53c.92,0,1.84-.08,2.75-.15a3.5,3.5,0,0,0-.47,1.69Q168.4,257.88,167.23,257.16Zm-.48-1.22c-.5,0-1,.08-1.49.12-.44-.23-.87-.48-1.33-.68-1.25-.57-2.47-1.2-3.68-1.84v0a5.38,5.38,0,0,1,.91-2.92c.65,0,1.31,0,2,0,1.09,0,2.17,0,3.25-.08,1,.46,2,.91,3,1.33,1.71.72,3.44,1.36,5.18,1.94a10.24,10.24,0,0,0-3.36,1.82C169.69,255.78,168.22,255.89,166.75,255.94Zm-12.23-5.85c1.74.21,3.49.37,5.25.45a6.5,6.5,0,0,0-.71,2.34Q156.73,251.57,154.52,250.09ZM122.08,140.62a67.47,67.47,0,0,1,8.94-6.74,69.76,69.76,0,0,0-4.33,9.84,69.76,69.76,0,0,0-7.48,7.72A67.45,67.45,0,0,1,122.08,140.62Zm19.47-19.51a67.45,67.45,0,0,1,11.28-2.89,69.78,69.78,0,0,0-8.09,7.7,69.78,69.78,0,0,0-10.22,4.46A67.45,67.45,0,0,1,141.54,121.12Zm17.52-14a6.51,6.51,0,0,0,.71,2.34q-2.65.12-5.27.45Q156.72,108.43,159.06,107.13Zm6.63-3.41c.66.07,1.31.15,2,.18,1.08,0,2.15.13,3.22.22a10.15,10.15,0,0,0,4,2.17,71.8,71.8,0,0,0-7.23,2.8l-.81.39-.9-.06c-1.59-.06-3.18-.05-4.76,0a5.38,5.38,0,0,1-.91-2.92v0c1.21-.65,2.43-1.27,3.68-1.84C164.53,104.35,165.11,104,165.69,103.72Zm3.81-2.42a3.45,3.45,0,0,0,.38,1.5c-.72-.05-1.45-.12-2.17-.15l-.17,0C168.22,102.21,168.87,101.77,169.51,101.3ZM194,102.84c-.92,0-1.84.09-2.75.16a3.5,3.5,0,0,0,.48-1.69Q192.85,102.12,194,102.84Zm.48,1.22c.5,0,1-.08,1.49-.12.44.23.87.48,1.33.68,1.25.58,2.47,1.2,3.68,1.84v0a5.38,5.38,0,0,1-.91,2.92c-1.58,0-3.17-.05-4.76,0l-.45,0-.41-.2a71.69,71.69,0,0,0-7.75-3.07,10.25,10.25,0,0,0,3.37-1.82C191.56,104.22,193,104.11,194.5,104.06Zm12.24,5.85q-2.62-.32-5.27-.44a6.51,6.51,0,0,0,.71-2.33Q204.52,108.44,206.74,109.91Zm20,20.47a69.76,69.76,0,0,0-9.83-4.33,69.76,69.76,0,0,0-7.72-7.48A67.45,67.45,0,0,1,220,121.45,67.45,67.45,0,0,1,226.74,130.38Zm12.77,10.53a67.46,67.46,0,0,1,2.88,11.27,69.79,69.79,0,0,0-7.69-8.08,69.78,69.78,0,0,0-4.46-10.22A67.46,67.46,0,0,1,239.5,140.91ZM199.09,249.35l-1,0c-.44,0-.87,0-1.3,0l1.44-.77A10.49,10.49,0,0,1,199.09,249.35Zm-4.91-.1a69.64,69.64,0,0,1-11-1.51,69.72,69.72,0,0,0,7.7-2.77,22.14,22.14,0,0,1,6.31,2.78Q195.7,248.54,194.19,249.26Zm-13.56,3.62a20.73,20.73,0,0,0-3.82.35,69.9,69.9,0,0,1-7-2.5l-.8-.36a70.65,70.65,0,0,0,11.61-1.92,70.62,70.62,0,0,0,11.15,1.89c-.4.17-.79.36-1.19.52-2.16.88-4.36,1.63-6.57,2.29A21.06,21.06,0,0,0,180.63,252.87Zm-17.82-4.15,1.2.63-.88,0-1,0C162.36,249.14,162.57,248.93,162.8,248.73Zm1.08-.84a21.86,21.86,0,0,1,6.51-2.91,69.72,69.72,0,0,0,7.7,2.77,69.67,69.67,0,0,1-11.46,1.54C165.7,248.84,164.79,248.37,163.88,247.89Zm-1.73-137.25c.75,0,1.51,0,2.26,0-.48.25-.94.52-1.41.77A10.48,10.48,0,0,1,162.15,110.64Zm4.92.12a67.46,67.46,0,0,1,11.08,1.55,69.59,69.59,0,0,0-7.55,2.78,22.37,22.37,0,0,1-6.5-2.83Q165.56,111.47,167.07,110.75Zm13.56-3.63a20.71,20.71,0,0,0,3.86-.36,70,70,0,0,1,7.73,2.86,68.67,68.67,0,0,0-11.59,2,68.66,68.66,0,0,0-11.13-2,70.09,70.09,0,0,1,7.74-2.81A21.05,21.05,0,0,0,180.63,107.13Zm17.81,4.16-1.17-.64c.61,0,1.22,0,1.83,0C198.89,110.86,198.68,111.08,198.43,111.29Zm-1.07.83a22.07,22.07,0,0,1-6.71,3,69.58,69.58,0,0,0-7.55-2.78,67.45,67.45,0,0,1,11.52-1.58C195.55,111.17,196.46,111.63,197.36,112.12ZM228.8,212.4a70.35,70.35,0,0,1-5.74,5,69.91,69.91,0,0,0,3.92-7.11,71.52,71.52,0,0,0,4.44-5.68A70.32,70.32,0,0,1,228.8,212.4Zm-16,16a70.35,70.35,0,0,1-7.56,2.48,69.92,69.92,0,0,0,6-4.76,69.91,69.91,0,0,0,6.73-3.73A70.37,70.37,0,0,1,212.78,228.43Zm-69.52-6a69.87,69.87,0,0,0,6.43,3.58,69.91,69.91,0,0,0,5.73,4.61,70.36,70.36,0,0,1-7.19-2.44A70.33,70.33,0,0,1,143.25,222.43Zm-11.06-10.28a70.33,70.33,0,0,1-2.65-8.18,71.52,71.52,0,0,0,4.59,6,69.89,69.89,0,0,0,4.06,7.41A70.37,70.37,0,0,1,132.19,212.15ZM123.87,168a70.3,70.3,0,0,1,3.68-7.15,71.52,71.52,0,0,0-1,7.49,69.86,69.86,0,0,0-2.23,7.47A71.26,71.26,0,0,1,123.87,168Zm9-20.75a70.29,70.29,0,0,1,5.85-5,71.54,71.54,0,0,0-3.58,6.25,69.87,69.87,0,0,0-4.73,5.78A71.26,71.26,0,0,1,132.85,147.23Zm15.76-15.47a71.26,71.26,0,0,1,7.51-2.47q-2.83,2-5.46,4.22a69.87,69.87,0,0,0-6.85,3.7A71.27,71.27,0,0,1,148.61,131.76Zm68.84,5.46a69.87,69.87,0,0,0-6.56-3.57q-2.49-2.15-5.15-4.06a71.26,71.26,0,0,1,7.17,2.43Q215.3,134.5,217.44,137.21Zm13.72,17.65a69.85,69.85,0,0,0-4.88-6.07,71.51,71.51,0,0,0-3.74-6.56,70.3,70.3,0,0,1,6.11,5.24A71.26,71.26,0,0,1,231.17,154.86Zm5.75,20.91a69.88,69.88,0,0,0-2.11-7.16,71.55,71.55,0,0,0-.87-7.15,70.25,70.25,0,0,1,3.45,6.88A71.27,71.27,0,0,1,236.91,175.78Zm-1.86,9.85c0-2-.13-4-.33-5.93q.27-3.16.26-6.31c.56,2,1,4,1.41,6Q235.87,182.51,235.05,185.63Zm-24.48,39.49q-1.79.86-3.63,1.62,1.81-1.19,3.55-2.49,1.64-1,3.21-2.08Q212.18,223.68,210.57,225.11ZM191.78,237a70.36,70.36,0,0,1-7.57-.54,69.9,69.9,0,0,0,7.05-2,69.91,69.91,0,0,0,7.33-.8A70.34,70.34,0,0,1,191.78,237ZM162,233.39a69.89,69.89,0,0,0,7.62.91,69.92,69.92,0,0,0,7.42,2.13,70.37,70.37,0,0,1-7.93.55A70.39,70.39,0,0,1,162,233.39Zm-15-11.64c1.16.82,2.35,1.62,3.57,2.37q1.81,1.36,3.69,2.6c-1.33-.54-2.64-1.14-3.93-1.76Q148.66,223.42,147.05,221.76Zm-19.69-36c.24,1.4.52,2.8.85,4.2q.25,1.79.59,3.55-.76-1.91-1.39-3.86C127.35,188.38,127.34,187.08,127.36,185.79Zm42.12-62.53a71.24,71.24,0,0,1,7.55.54,71.46,71.46,0,0,0-7,2,71.45,71.45,0,0,0-7.25.82A71.25,71.25,0,0,1,169.48,123.26Zm29.67,3.55a71.43,71.43,0,0,0-7.59-.93,71.41,71.41,0,0,0-7.34-2.08,71.24,71.24,0,0,1,7.88-.55A71.25,71.25,0,0,1,199.15,126.81Zm26.11,22.71q.84,1.68,1.59,3.4-1-1.41-2-2.79-1-1.64-2.08-3.21Q224.05,148.2,225.26,149.52Zm3.18,50.61a70.37,70.37,0,0,1-4.44,8.76,67.67,67.67,0,0,1-6.68,7.78,70.38,70.38,0,0,1-7.55,6.55A67.63,67.63,0,0,1,200.2,228a70.36,70.36,0,0,1-9.55,3.11,70.35,70.35,0,0,1-20.35,0,70.34,70.34,0,0,1-9.82-3.31,67.67,67.67,0,0,1-9.13-4.69,70.37,70.37,0,0,1-7.41-6.44,67.62,67.62,0,0,1-6.94-8.16,70.37,70.37,0,0,1-4.42-9,67.66,67.66,0,0,1-3.13-9.76,70.37,70.37,0,0,1-.69-9.8,67.62,67.62,0,0,1,.86-10.67,70.37,70.37,0,0,1,3.21-9.47,67.66,67.66,0,0,1,4.69-9.13,70.37,70.37,0,0,1,6.44-7.41,67.65,67.65,0,0,1,8.11-6.92,70.38,70.38,0,0,1,9-4.44,67.66,67.66,0,0,1,9.81-3.14,69.8,69.8,0,0,1,19.72,0,67.62,67.62,0,0,1,10.15,3.35,70.36,70.36,0,0,1,8.73,4.42,67.66,67.66,0,0,1,7.81,6.7,70.36,70.36,0,0,1,6.6,7.62,67.67,67.67,0,0,1,4.77,9.49,70.38,70.38,0,0,1,3.05,9.33A67.67,67.67,0,0,1,232.5,180a70.36,70.36,0,0,1-.71,10A67.63,67.63,0,0,1,228.43,200.13ZM170,232.34c1.27.32,2.54.61,3.82.86q-2,0-4-.13-1.88-.66-3.71-1.43C167.47,231.91,168.75,232.15,170,232.34Zm10.23,1.82c2.13.22,4.27.33,6.42.35q-3,.82-6.06,1.37-3.2-.57-6.31-1.44Q177.29,234.44,180.27,234.16Zm6.45-.89c1.4-.26,2.8-.55,4.19-.89s2.78-.45,4.15-.74c-1.32.55-2.67,1.06-4,1.53C189.6,233.25,188.16,233.29,186.72,233.28ZM190.8,127.6c-.94-.23-1.88-.45-2.82-.64,1.12,0,2.24.06,3.35.14,1,.34,1.93.7,2.89,1.08Q192.52,127.85,190.8,127.6ZM181,125.94q-3.07-.29-6.13-.32,2.88-.77,5.81-1.29,3.08.55,6.11,1.37Q183.85,125.71,181,125.94Zm-7,.93q-1.66.31-3.32.7-1.81.26-3.6.6,1.59-.63,3.21-1.18C171.47,126.93,172.71,126.89,173.95,126.88Zm59,42.6c-.22-1.42-.49-2.82-.8-4.21.51,1.19,1,2.4,1.43,3.62q.14,2,.17,4.1Q233.38,171.23,232.94,169.48Zm-22.76-33.91c-1.16-.85-2.34-1.64-3.54-2.41,1.21.49,2.42,1,3.6,1.56q1.54,1.34,3,2.78Q211.74,136.5,210.18,135.57Zm-9.43-5.79c-1.55-.79-3.12-1.53-4.71-2.2q3.13.42,6.21,1.12,2.3,1.49,4.49,3.15C204.77,131.08,202.78,130.38,200.75,129.78Zm-20.12-6.7a72.41,72.41,0,0,0-8.31-1,71.06,71.06,0,0,1,8.69-2.66,71,71,0,0,1,8.31,2.65A72.41,72.41,0,0,0,180.62,123.08Zm-15.09,4.36c-1.71.71-3.38,1.5-5,2.34-1.9.56-3.77,1.21-5.61,1.93q2.33-1.75,4.79-3.29C161.61,128,163.57,127.69,165.53,127.44Zm-10.92,5.72c-1.07.69-2.13,1.4-3.17,2.15q-1.48.86-2.91,1.8,1.36-1.3,2.78-2.52Q153,133.83,154.61,133.16ZM136.5,150q-1.09,1.44-2.09,2.93.82-1.89,1.75-3.72c.88-1,1.79-1.88,2.72-2.78C138,147.59,137.25,148.78,136.5,150Zm-8.11,19q-.43,1.66-.79,3.33,0-1.88.19-3.75.61-1.69,1.32-3.33C128.84,166.51,128.59,167.77,128.39,169Zm7.54,40.15q.86,1.48,1.8,2.91-1.3-1.36-2.52-2.78-.76-1.62-1.43-3.29C134.47,207.08,135.18,208.14,135.93,209.18Zm24,20.87c1.77.94,3.58,1.8,5.43,2.58q-3.21-.41-6.4-1.13-2.6-1.69-5-3.6Q156.85,229.11,159.9,230Zm20.72,7.11a71.09,71.09,0,0,0,8.28,1,70.13,70.13,0,0,1-8.65,2.65,70.11,70.11,0,0,1-8.28-2.62A71.1,71.1,0,0,0,180.63,237.16Zm15-4.38q2.94-1.23,5.76-2.73c1.92-.59,3.81-1.26,5.67-2q-2.56,2-5.32,3.73Q198.66,232.41,195.6,232.77Zm29.46-23.22c.85-1.16,1.64-2.34,2.41-3.54-.49,1.2-1,2.4-1.55,3.57q-1.35,1.55-2.79,3Q224.13,211.1,225.06,209.55Zm8-19.38c.3-1.24.56-2.49.8-3.74,0,1.19,0,2.39-.08,3.58q-.59,1.78-1.28,3.53Q232.78,191.86,233,190.17Zm.1-25.76q-1.25-2.9-2.76-5.69c-.61-1.89-1.29-3.74-2.05-5.56q2,2.51,3.72,5.21C232.48,160.36,232.85,162.38,233.13,164.41Zm-10-18.91c-1.42-1.38-2.89-2.71-4.42-4q-2-2.43-4.28-4.65,2.67,1.49,5.22,3.22Q221.47,142.72,223.09,145.49Zm-20.37-18a72.41,72.41,0,0,0-7.6-4.26,71,71,0,0,1,8.68.79,71,71,0,0,1,7,5.82A72.41,72.41,0,0,0,202.72,127.54ZM192.34,122a72.47,72.47,0,0,0-8.68-3.13,69.89,69.89,0,0,1,9.56-1.22,69.87,69.87,0,0,1,8.33,4.84A72.47,72.47,0,0,0,192.34,122Zm-3.11-5.26c.46-.1.9-.21,1.34-.33l.34.15ZM181,118.17c-.89-.22-1.78-.42-2.67-.6.76,0,1.52.06,2.3.06,1.29,0,2.54-.07,3.76-.17Q182.68,117.77,181,118.17Zm-.37-1.79a39.52,39.52,0,0,1-8-.8,68.21,68.21,0,0,1,8-2.66,68.21,68.21,0,0,1,8,2.66A39.52,39.52,0,0,1,180.63,116.38Zm-2.29,2.46a72.47,72.47,0,0,0-9.07,3.17,72.48,72.48,0,0,0-9.58.48,69.85,69.85,0,0,1,8.71-5A69.88,69.88,0,0,1,178.34,118.83Zm-11.88,4.44a72.41,72.41,0,0,0-7.3,4,72.42,72.42,0,0,0-8.42,2.37,71,71,0,0,1,6.71-5.59A71,71,0,0,1,166.46,123.27ZM147.1,136.75c-1.41,1.38-2.75,2.83-4,4.33q-2.47,2-4.75,4.17c1-1.77,2.16-3.48,3.35-5.15Q144.3,138.29,147.1,136.75Zm-14,16q-1.24,2.9-2.21,5.92c-.95,1.74-1.81,3.53-2.6,5.34q.45-3.18,1.2-6.31Q131.18,155.18,133.1,152.8Zm-6.76,20.33c0,2,.05,3.95.2,5.92-.23,2.1-.37,4.2-.41,6.31-.51-2-.93-4-1.27-6Q125.45,176.2,126.33,173.13Zm-.17,16.77a69.87,69.87,0,0,0,.74,7.42,71.26,71.26,0,0,1-3.23-6.71,70.28,70.28,0,0,1,.61-7.67A71.52,71.52,0,0,0,126.16,189.89Zm1.62,4.48q1.18,2.93,2.62,5.75c.56,1.9,1.21,3.77,1.93,5.61q-1.93-2.57-3.61-5.3C128.32,198.42,128,196.4,127.78,194.37Zm9.59,19.15c1.38,1.41,2.83,2.75,4.33,4a69.74,69.74,0,0,0,4.63,5.24q-2.68-1.53-5.23-3.3A68.92,68.92,0,0,1,137.37,213.53Zm21.06,19.14a71.1,71.1,0,0,0,7.59,4.28,70.12,70.12,0,0,1-8.65-.8,70.15,70.15,0,0,1-6.94-5.79A71.08,71.08,0,0,0,158.43,232.67Zm9.82,5.58h.61l.55.25a71.69,71.69,0,0,0,8.21,2.87,68.73,68.73,0,0,1-9.62,1.17,68.74,68.74,0,0,1-8.41-4.81A71.71,71.71,0,0,0,168.25,238.25Zm2.48,5.33-.26.06-.09,0Zm9.52-1.53,1.54.35-1.16,0c-.7,0-1.39,0-2.08.05Zm.38,1.57a39.36,39.36,0,0,1,8.19.84,68.55,68.55,0,0,1-8.19,2.68,68.54,68.54,0,0,1-8.19-2.68A39.37,39.37,0,0,1,180.63,243.62Zm2.27-2.24a71.7,71.7,0,0,0,8.24-2.77l.89-.39,1,0h0a71.69,71.69,0,0,0,8.67-.54,68.74,68.74,0,0,1-8.77,5A68.75,68.75,0,0,1,182.9,241.38Zm12-4.43a71.08,71.08,0,0,0,7.3-4,71.11,71.11,0,0,0,8.39-2.34,70.12,70.12,0,0,1-6.69,5.55A70.14,70.14,0,0,1,194.87,237Zm19.77-14q2.34-2.36,4.45-4.93,2.43-2,4.65-4.28-1.65,3-3.6,5.76Q217.47,221.38,214.64,223Zm14.13-16.88c.78-2,1.47-4,2.07-6,.9-1.76,1.74-3.56,2.48-5.38q-.38,3.17-1.05,6.32Q230.63,203.65,228.77,206.1ZM235,190.22a71.51,71.51,0,0,0,2-7.28,70.32,70.32,0,0,1,.61,8,71.28,71.28,0,0,1-3.46,7A69.86,69.86,0,0,0,235,190.22Zm2.69-10.87a72.43,72.43,0,0,0,.87-8.19,70.27,70.27,0,0,1,2.76,8.75,71,71,0,0,1-2.56,8.22A71.05,71.05,0,0,0,237.67,179.35Zm1.57-9.86c-.2-.48-.41-.94-.62-1.42a72.44,72.44,0,0,0-.55-9.48,68.76,68.76,0,0,1,5.1,8.85,69.83,69.83,0,0,1-1.3,9.83A71.76,71.76,0,0,0,239.24,169.49Zm-1.89-4.21a71,71,0,0,0-4.14-7.4,72.44,72.44,0,0,0-2.42-8.27,70.23,70.23,0,0,1,5.7,6.74A71,71,0,0,1,237.35,165.28Zm-6.79-17.73c-.28-.28-.58-.54-.86-.82A72.45,72.45,0,0,0,226,138.9a69.9,69.9,0,0,1,7.63,5.9,69.86,69.86,0,0,1,2.4,8.9A71.75,71.75,0,0,0,230.56,147.56Zm-3.1-2.91a71.06,71.06,0,0,0-7-5.45,72.45,72.45,0,0,0-4.82-6,71.06,71.06,0,0,1,8,4.24A71,71,0,0,1,227.46,144.65ZM213.61,131a72.48,72.48,0,0,0-7.12-6.43,69.87,69.87,0,0,1,9.7,2.6,69.86,69.86,0,0,1,6.06,8A72.47,72.47,0,0,0,213.61,131Zm-9.32-8.09a71.41,71.41,0,0,0-8.51-5.33,68.3,68.3,0,0,1,10.89.64,68.29,68.29,0,0,1,7.78,7A71.42,71.42,0,0,0,204.29,122.87Zm-10.81-6.49-1.05-.52a21,21,0,0,0,6.13-3.07,67.45,67.45,0,0,1,6.06,3.86A69.78,69.78,0,0,0,193.48,116.38Zm-24.66-.52-.69.34a69.76,69.76,0,0,0-10.74.17q2.64-1.84,5.49-3.45A21.25,21.25,0,0,0,168.82,115.86Zm-4.89,1.44c.63,0,1.27,0,1.9,0a71.41,71.41,0,0,0-8.87,5.53,71.44,71.44,0,0,0-9.79,2.25,68.3,68.3,0,0,1,8.18-7.27A68.21,68.21,0,0,1,163.93,117.31Zm-9.17,7.21a72.47,72.47,0,0,0-6.86,6.18,72.48,72.48,0,0,0-8.35,3.92,69.88,69.88,0,0,1,5.9-7.63A69.88,69.88,0,0,1,154.77,124.52Zm-8.93,8.38a72.41,72.41,0,0,0-5.09,6.3,71,71,0,0,0-6.69,5.21,71,71,0,0,1,4-7.5A71,71,0,0,1,145.84,132.9Zm-14,13.59c-.37.36-.75.7-1.12,1.07a71.77,71.77,0,0,0-5.45,6.14,69.83,69.83,0,0,1,2.52-9.28,69.86,69.86,0,0,1,8-6.06A72.46,72.46,0,0,0,131.81,146.49Zm-1.11,2.87a72.44,72.44,0,0,0-2.38,7.89,71,71,0,0,0-4.39,7.67,71,71,0,0,1,.83-8.57A70.28,70.28,0,0,1,130.69,149.36Zm-8.07,18.34c-.16.36-.33.72-.49,1.08a71.76,71.76,0,0,0-2.73,7.74,69.85,69.85,0,0,1-1.16-9.44,68.75,68.75,0,0,1,4.92-8.49A72.42,72.42,0,0,0,122.63,167.7Zm.07,3.08a72.42,72.42,0,0,0,.88,8.57,71,71,0,0,0-1,8.42,71,71,0,0,1-2.58-8.59A70.24,70.24,0,0,1,122.7,170.78Zm-.29,20c0,.52,0,1,0,1.54a71.72,71.72,0,0,0,.54,8.67,68.74,68.74,0,0,1-5-8.77,68.76,68.76,0,0,1,1.42-10.44A72.43,72.43,0,0,0,122.41,190.83Zm1.24,2.82a72.44,72.44,0,0,0,3.89,7.26,71.07,71.07,0,0,0,2.48,9,70.11,70.11,0,0,1-5.55-6.68A70.21,70.21,0,0,1,123.66,193.64Zm7,18.8.44.42c.07.19.14.38.21.56a71.71,71.71,0,0,0,3.78,7.83,68.75,68.75,0,0,1-7.63-6,68.74,68.74,0,0,1-2.55-9.35A71.72,71.72,0,0,0,130.69,212.44Zm2.7,2.56a71.1,71.1,0,0,0,6.82,5.41,71.1,71.1,0,0,0,5.17,6.54,70.16,70.16,0,0,1-8-4.24A70.1,70.1,0,0,1,133.39,215Zm13.22,13.88.9.35c.23.23.44.47.67.7a71.72,71.72,0,0,0,6.52,5.75A68.74,68.74,0,0,1,145,233a68.72,68.72,0,0,1-6.14-8A71.71,71.71,0,0,0,146.61,228.88Zm10.27,8.45a70.17,70.17,0,0,0,8.49,5.26,68.49,68.49,0,0,1-10.81-.71,68.53,68.53,0,0,1-7.8-7A70.13,70.13,0,0,0,156.88,237.33Zm7.61,6.54c1.08,0,2.17,0,3.25-.08l.89.41a20.81,20.81,0,0,0-5.95,3,69.37,69.37,0,0,1-6-3.8A69.73,69.73,0,0,0,164.49,243.87Zm28.13.33.53-.23c1.23.06,2.45.1,3.68.1a69.73,69.73,0,0,0,7-.36q-2.63,1.81-5.44,3.38A21,21,0,0,0,192.62,244.2Zm2.89-1.41a70.14,70.14,0,0,0,8.86-5.45,70.16,70.16,0,0,0,9.72-2.28,68.51,68.51,0,0,1-8.15,7.14A68.53,68.53,0,0,1,195.51,242.78Zm11-7.1a71.7,71.7,0,0,0,6.52-5.75l.42-.44.56-.21a71.72,71.72,0,0,0,7.83-3.78,68.75,68.75,0,0,1-6,7.63A68.73,68.73,0,0,1,206.55,235.68Zm9.08-8.45a71.1,71.1,0,0,0,5.41-6.82,71.08,71.08,0,0,0,6.54-5.17,70.16,70.16,0,0,1-4.24,8A70.1,70.1,0,0,1,215.63,227.23ZM229.5,214c.13-.3.23-.6.35-.9s.47-.44.7-.67a71.7,71.7,0,0,0,5.75-6.52,68.74,68.74,0,0,1-2.67,9.73,68.73,68.73,0,0,1-8,6.14A71.71,71.71,0,0,0,229.5,214ZM231,210.2a71.05,71.05,0,0,0,2.47-8.65,72.43,72.43,0,0,0,4.14-7.55,70.16,70.16,0,0,1-.82,9.27A70.15,70.15,0,0,1,231,210.2Zm7.87-19a72.43,72.43,0,0,0,3-8.61,68.75,68.75,0,0,1,1.26,10.06,68.73,68.73,0,0,1-4.81,8.41,71.7,71.7,0,0,0,.54-8.67C238.88,192,238.85,191.58,238.85,191.18Zm3.73-11.26a71.38,71.38,0,0,0,1.68-10.1A68.51,68.51,0,0,1,247.77,180a68.5,68.5,0,0,1-3.54,10.24A70.17,70.17,0,0,0,242.58,179.92Zm1.87-12.75a69.75,69.75,0,0,0-.2-10.43,67.48,67.48,0,0,1,5.63,9.71,69.64,69.64,0,0,1-1.51,11A69.7,69.7,0,0,0,244.45,167.18Zm-1.17-2.32a70.17,70.17,0,0,0-5.59-9,71.43,71.43,0,0,0-2.19-9.34,68.3,68.3,0,0,1,7.25,8.14A68.26,68.26,0,0,1,243.28,164.86Zm-10.52-22.45a71.43,71.43,0,0,0-8.15-5.87,71.42,71.42,0,0,0-6-8.53,68.29,68.29,0,0,1,9.47,4.56A68.31,68.31,0,0,1,232.76,142.41ZM207.17,117a68.72,68.72,0,0,0-7.59-5.06,10.36,10.36,0,0,0,1.13-1.24,69.23,69.23,0,0,1,8.31.78,69.66,69.66,0,0,1,9.19,8A68.66,68.66,0,0,0,207.17,117Zm-22.64-11.51-.77-.21q1.64-.32,3.3-.55A14.53,14.53,0,0,1,184.53,105.48Zm-3.35.38h-.27l.15,0Zm-4-.3a14.12,14.12,0,0,1-3.63-1.14q2.44.32,4.85.81Zm-16.62,5.13a10.59,10.59,0,0,0,1.29,1.38,68.72,68.72,0,0,0-7,4.61,68.66,68.66,0,0,0-11.48,2.52,69.62,69.62,0,0,1,8.89-7.72A69.24,69.24,0,0,1,160.55,110.69Zm-17.5,17.16a71.43,71.43,0,0,0-5.89,8.16,71.41,71.41,0,0,0-8.52,6,68.28,68.28,0,0,1,4.55-9.46A68.32,68.32,0,0,1,143.05,127.85Zm-17.19,18.3a71.4,71.4,0,0,0-2.3,9.73,70.2,70.2,0,0,0-5.4,8.61,68.27,68.27,0,0,1,.65-10.56A68.29,68.29,0,0,1,125.86,146.15ZM117,166.81a69.69,69.69,0,0,0-4.11,10.65A69.66,69.66,0,0,1,111.34,166a67.49,67.49,0,0,1,5.95-10A69.76,69.76,0,0,0,117,166.81Zm.17,2.64a71.4,71.4,0,0,0,1.52,9.73,70.15,70.15,0,0,0-1.81,10.72,68.52,68.52,0,0,1-3.39-9.89A68.51,68.51,0,0,1,117.16,169.45Zm-.49,23.07a69.7,69.7,0,0,0,.26,10.68,69.64,69.64,0,0,1-5.56-9.64,69.64,69.64,0,0,1,1.51-11A69.7,69.7,0,0,0,116.66,192.52Zm1.18,2.36a70.12,70.12,0,0,0,5.45,8.86,70.16,70.16,0,0,0,2.28,9.72,68.5,68.5,0,0,1-7.14-8.15A68.52,68.52,0,0,1,117.84,194.88ZM126.41,216a69.7,69.7,0,0,0,4.52,10.12,69.66,69.66,0,0,1-9.2-7,69.67,69.67,0,0,1-2.9-11.2A69.7,69.7,0,0,0,126.41,216Zm2,1.75a70.16,70.16,0,0,0,8.08,5.88,70.16,70.16,0,0,0,6.05,8.47,68.52,68.52,0,0,1-9.39-4.6A68.5,68.5,0,0,1,128.41,217.74Zm15.84,16.35a69.71,69.71,0,0,0,7.74,7.36,69.64,69.64,0,0,1-10.75-2.89,69.64,69.64,0,0,1-6.73-8.86A69.7,69.7,0,0,0,144.25,234.08Zm9.81,9a70.51,70.51,0,0,0,7.61,5,10.33,10.33,0,0,0-1.12,1.24,69.37,69.37,0,0,1-8.29-.81,69.6,69.6,0,0,1-8.3-7.08c-.31-.31-.6-.63-.9-.95A70.65,70.65,0,0,0,154.06,243.08Zm22.68,11.43.72.21q-1.62.31-3.26.54A14.58,14.58,0,0,1,176.74,254.51Zm3.38-.38h.13l-.07,0Zm3.93.29a14.1,14.1,0,0,1,3.69,1.16c-1.63-.21-3.25-.5-4.86-.82Zm16.66-5.11a10.57,10.57,0,0,0-1.29-1.39,70.45,70.45,0,0,0,7-4.55,70.65,70.65,0,0,0,11.47-2.59c-.2.21-.4.43-.61.64a69.59,69.59,0,0,1-8.3,7.08A69.38,69.38,0,0,1,200.71,249.32Zm7.81-7.53a69.71,69.71,0,0,0,8.1-7.57,69.7,69.7,0,0,0,10.12-4.52,69.66,69.66,0,0,1-7,9.2A69.67,69.67,0,0,1,208.52,241.79Zm9.84-9.57a70.17,70.17,0,0,0,5.87-8.08,70.14,70.14,0,0,0,8.47-6.05,68.52,68.52,0,0,1-4.6,9.39A68.5,68.5,0,0,1,218.36,232.22Zm16.35-15.84a69.71,69.71,0,0,0,7.36-7.74,69.64,69.64,0,0,1-2.89,10.75,69.65,69.65,0,0,1-8.86,6.73A69.71,69.71,0,0,0,234.71,216.37Zm.83-2.5A70.14,70.14,0,0,0,238,203.75a70.16,70.16,0,0,0,5.26-8.49,68.5,68.5,0,0,1-.71,10.81A68.51,68.51,0,0,1,235.54,213.87Zm8.87-21a69.7,69.7,0,0,0,4-10.35A69.67,69.67,0,0,1,249.91,194,69.65,69.65,0,0,1,244,204,69.7,69.7,0,0,0,244.41,192.89ZM249.07,180A70.62,70.62,0,0,0,251,168.85a69.67,69.67,0,0,1,3.83,11.55,69.56,69.56,0,0,1-3.43,10.4c-.11.27-.24.53-.36.8A70.67,70.67,0,0,0,249.07,180Zm2.46-13c-.12-.27-.26-.52-.38-.79.06-1.23.1-2.47.1-3.72a71.06,71.06,0,0,0-.53-8.62,68.85,68.85,0,0,1,5.28,9.42c.28.6.59,1.18.91,1.76-.07.66-.15,1.31-.18,2a68.81,68.81,0,0,1-1.34,10.71A71.32,71.32,0,0,0,251.53,167ZM250,162.5c0,.43,0,.86,0,1.29a68.67,68.67,0,0,0-6-9.57,68.67,68.67,0,0,0-2.52-11.48,69.62,69.62,0,0,1,7.7,8.85A69.6,69.6,0,0,1,250,162.5Zm-11.42-24.07a68.67,68.67,0,0,0-9.61-6.78,68.66,68.66,0,0,0-6.49-9.26,69.65,69.65,0,0,1,10.9,5.48A69.61,69.61,0,0,1,238.58,138.43ZM200.71,104.9q-1.22-.63-2.47-1.21c.57-.09,1.15-.17,1.72-.29A6.12,6.12,0,0,1,200.71,104.9Zm-4.46-2.23a30.49,30.49,0,0,1-5.17-3.45,6.18,6.18,0,0,0-1.69-1.62c4.22,1,7.63,2.64,9.64,4.69Q197.65,102.55,196.25,102.67Zm-7.94-4.29c.59.58,1.21,1.15,1.84,1.69a2.33,2.33,0,0,1,.35,1.18,2.74,2.74,0,0,1-.93,1.91,69.85,69.85,0,0,0-8.49,1.39,69.87,69.87,0,0,0-9.62-1.63,2.58,2.58,0,0,1-.7-1.67,2.33,2.33,0,0,1,.35-1.18c.64-.54,1.25-1.1,1.84-1.69a17.63,17.63,0,0,1,15.36,0Zm-18.13.83a30.5,30.5,0,0,1-4.73,3.23c-1-.12-1.94-.27-2.89-.48a20.73,20.73,0,0,1,9.31-4.36A6.18,6.18,0,0,0,170.17,99.22Zm-6.61,4.19-.15.08c-1,.45-1.92.92-2.87,1.41a6.4,6.4,0,0,1,1-1.89C162.24,103.17,162.9,103.3,163.56,103.42ZM139.06,122a68.67,68.67,0,0,0-6.78,9.61,68.65,68.65,0,0,0-9.26,6.49,69.64,69.64,0,0,1,5.48-10.9A69.61,69.61,0,0,1,139.06,122Zm-18.93,20.38a68.66,68.66,0,0,0-2.51,11,68.68,68.68,0,0,0-6.34,9.91c0-.29,0-.58,0-.87a69.59,69.59,0,0,1,.87-10.92A69.66,69.66,0,0,1,120.13,142.43Zm-10,23.32-.2.4a71.3,71.3,0,0,0-4,10.7,68.82,68.82,0,0,1-1.21-10.73c0-.5-.08-1-.12-1.49.23-.44.48-.87.68-1.33a68.87,68.87,0,0,1,5.28-9.42,71.06,71.06,0,0,0-.53,8.62C110,163.59,110,164.67,110.08,165.76Zm.18,2.65a70.66,70.66,0,0,0,1.92,11.6,70.62,70.62,0,0,0-1.89,11.15c-.17-.4-.36-.79-.52-1.19a69.61,69.61,0,0,1-3.31-10.44A69.6,69.6,0,0,1,110.26,168.4Zm-1.64,22q.7,1.72,1.48,3.38c-.06,1.23-.1,2.46-.1,3.69a71.06,71.06,0,0,0,.53,8.6,68.84,68.84,0,0,1-5.28-9.41c-.28-.6-.59-1.18-.91-1.76.07-.66.15-1.31.18-2a68.87,68.87,0,0,1,1.34-10.72A71.07,71.07,0,0,0,108.62,190.43Zm2.63,7.07c0-.44,0-.87,0-1.3a70.64,70.64,0,0,0,6,9.62,70.67,70.67,0,0,0,2.6,11.48l-.64-.61a69.59,69.59,0,0,1-7.08-8.3A69.59,69.59,0,0,1,111.25,197.5ZM123,222.37c-.11-.27-.2-.55-.31-.82a70.66,70.66,0,0,0,9.57,6.85,70.63,70.63,0,0,0,6.55,9.22c-.4-.16-.81-.31-1.21-.48a69.62,69.62,0,0,1-9.69-5A69.63,69.63,0,0,1,123,222.37Zm37.57,32.74c.81.42,1.64.82,2.47,1.21-.57.09-1.15.17-1.72.29A6.11,6.11,0,0,1,160.54,255.11Zm4.46,2.22a30.5,30.5,0,0,1,5.17,3.45,6.18,6.18,0,0,0,1.69,1.62c-4.22-1-7.63-2.64-9.64-4.69Q163.6,257.45,165,257.33Zm7.94,4.29c-.59-.58-1.2-1.15-1.84-1.69a2.33,2.33,0,0,1-.35-1.18,2.74,2.74,0,0,1,.92-1.91,69.91,69.91,0,0,0,8.5-1.4,69.94,69.94,0,0,0,9.62,1.63,2.59,2.59,0,0,1,.71,1.68,2.33,2.33,0,0,1-.35,1.18c-.64.54-1.25,1.1-1.84,1.69a17.63,17.63,0,0,1-15.37,0Zm18.14-.83a30.48,30.48,0,0,1,4.73-3.23c1,.12,1.94.27,2.89.48a20.73,20.73,0,0,1-9.31,4.36A6.18,6.18,0,0,0,191.08,260.78Zm6.61-4.19.15-.08q1.45-.67,2.86-1.4a6.4,6.4,0,0,1-1,1.88C199,256.83,198.35,256.7,197.69,256.58ZM223,237.65l-.82.31A70.67,70.67,0,0,0,229,228.4a70.62,70.62,0,0,0,9.22-6.55c-.16.4-.31.81-.48,1.21a69.62,69.62,0,0,1-5,9.69A69.63,69.63,0,0,1,223,237.65Zm19.06-21c-.31.31-.63.6-.94.9a70.62,70.62,0,0,0,2.59-11,70.66,70.66,0,0,0,6.28-10c0,.29,0,.59,0,.88a69.6,69.6,0,0,1-.87,10.88A69.57,69.57,0,0,1,242.06,216.68Zm9.12-22.43c.46-1,.91-2,1.33-3a71.07,71.07,0,0,0,2.85-8.15,68.85,68.85,0,0,1,1.21,10.73c0,.5.08,1,.12,1.49-.23.44-.48.87-.68,1.33a68.78,68.78,0,0,1-5.28,9.41,71.06,71.06,0,0,0,.53-8.6C251.25,196.41,251.22,195.33,251.17,194.25Zm6.62-.86a70,70,0,0,0-1.72-13A70,70,0,0,0,258,167.09c0-.06,0-.11,0-.17a31.76,31.76,0,0,0,13.57,12c.78.36,1.54.74,2.3,1.13-.76.38-1.52.76-2.3,1.12A31.76,31.76,0,0,0,257.79,193.4Zm14.3-15.66a30.52,30.52,0,0,1-13.91-12.92,30.52,30.52,0,0,1,8-17.22c.8-.85,1.57-1.73,2.32-2.62a69.11,69.11,0,0,1,22.2,6.17,67.44,67.44,0,0,1,9.53,5.46,70.09,70.09,0,0,1-8.69,10.57,69.08,69.08,0,0,1-16.32,12.1Q273.68,178.48,272.09,177.74Zm-6.81-31a31.76,31.76,0,0,0-8.06,16.19l-.08-.15a70,70,0,0,0-6.81-11.68A70,70,0,0,0,247,138.49a31.76,31.76,0,0,0,17.38,6.17c.86,0,1.71.11,2.56.18C266.42,145.48,265.86,146.12,265.27,146.75Zm-19.55-30.26a31.76,31.76,0,0,0-1.06,18.42A70,70,0,0,0,234.3,127a70,70,0,0,0-8.1-10.79l-.11-.13a31.75,31.75,0,0,0,18.05-1.15c.8-.3,1.61-.56,2.42-.83C246.29,114.88,246,115.69,245.72,116.49Zm-2-2.76a30.52,30.52,0,0,1-19,.7,30.53,30.53,0,0,1-6.51-17.83h0A26.89,26.89,0,0,0,242,80.49a67.43,67.43,0,0,1,6.65-1.6A69.23,69.23,0,0,1,247,112.6Q245.35,113.12,243.7,113.73ZM218.14,95.34c0-.75-.07-1.5-.13-2.25a69.13,69.13,0,0,1,20.05-11.33c.77-.28,1.53-.53,2.3-.78A25.62,25.62,0,0,1,218.14,95.34Zm19.5-14.75a70.42,70.42,0,0,0-19.78,11q-.34-3.31-1-6.57a11.11,11.11,0,0,0-7.72-20.76q-1.49-2.64-3.2-5.1a69.21,69.21,0,0,1,27.21-9.59,25.52,25.52,0,0,1,7.93,29.85Q239.35,80,237.64,80.59ZM211.93,69.76c-.67-1.48-1.41-2.92-2.17-4.33a9.86,9.86,0,0,1,6.84,18.37A71,71,0,0,0,211.93,69.76Zm3.49,14.54a9.86,9.86,0,0,1-6.88-18.49c.79,1.46,1.56,2.94,2.25,4.47A69.68,69.68,0,0,1,215.43,84.3ZM205.24,58.17a69.2,69.2,0,0,0-5.61-6.86,25.53,25.53,0,0,1,32.12-2.76A70.36,70.36,0,0,0,205.24,58.17Zm-1.05.68a68.65,68.65,0,0,0-9.61,7.41c-1,.89-1.88,1.8-2.79,2.73a25.5,25.5,0,0,1,7-16.78A68,68,0,0,1,204.19,58.84Zm-8.77,8.33a67.43,67.43,0,0,1,9.47-7.3c1.07,1.56,2.09,3.17,3,4.83a11.12,11.12,0,0,0,7.75,20.83,68.64,68.64,0,0,1,1,7q-1.35,1.12-2.65,2.3l-.3.25A25.63,25.63,0,0,1,191.8,70.8C193,69.55,194.16,68.33,195.42,67.17Zm17,29a30.51,30.51,0,0,1-12,5.84c-2.38-2.83-6.95-5-12.67-6a30.47,30.47,0,0,1-4.89-7.45q-.74-1.6-1.55-3.15a68.73,68.73,0,0,1,9.28-13.32A26.9,26.9,0,0,0,212.47,96.15Zm-30.72-7.09a31.71,31.71,0,0,0,4.15,6.65,41.83,41.83,0,0,0-10.55,0,31.7,31.7,0,0,0,4.15-6.65c.36-.78.74-1.53,1.12-2.29C181,87.53,181.39,88.29,181.75,89.06Zm-3.39-.52A30.46,30.46,0,0,1,173.47,96c-5.46,1-9.85,3-12.31,5.62a30.51,30.51,0,0,1-11.22-5.69,26.91,26.91,0,0,0,20.69-23.84,68.72,68.72,0,0,1,9.28,13.32Q179.1,86.94,178.36,88.54ZM148.76,94.9c-.17-.16-.36-.3-.53-.46q-1.28-1.2-2.62-2.33c.22-2.11.53-4.21.95-6.29a11.11,11.11,0,0,0,7.7-20.67q1.38-2.43,3-4.72a67.43,67.43,0,0,1,8.62,6.75c1.26,1.17,2.46,2.39,3.62,3.63A25.64,25.64,0,0,1,148.76,94.9Zm3-25c.59-1.26,1.22-2.48,1.88-3.68a9.86,9.86,0,0,1-6.83,18.36A69.59,69.59,0,0,1,151.78,69.92Zm-6.15,14.3a9.86,9.86,0,0,1,6.88-18.49c-.65,1.2-1.28,2.41-1.86,3.66A70.86,70.86,0,0,0,145.62,84.22Zm21.05-18a68.65,68.65,0,0,0-8.75-6.86,67.92,67.92,0,0,1,5.23-6.47A25.48,25.48,0,0,1,169.46,69C168.56,68.05,167.63,67.14,166.68,66.25Zm-9.8-7.52A70.3,70.3,0,0,0,129.5,48.55,25.54,25.54,0,0,1,162.31,52,69.14,69.14,0,0,0,156.88,58.72ZM124.37,81.08a69.12,69.12,0,0,1,19.92,11.57c-.09.9-.14,1.81-.19,2.72h-.22A25.66,25.66,0,0,1,120.26,79.7C121.64,80.12,123,80.57,124.37,81.08Zm19.51,15.55H144a30.5,30.5,0,0,1-7,17.66,30.51,30.51,0,0,1-19.44-.55q-1.65-.61-3.32-1.13a69.32,69.32,0,0,1-1.43-34.71q3,.55,6,1.38A26.9,26.9,0,0,0,143.88,96.62ZM117.12,114.9A31.75,31.75,0,0,0,135.53,116a70,70,0,0,0-7.94,10.36,70,70,0,0,0-10.79,8.1l-.13.11a31.75,31.75,0,0,0-1.15-18.05c-.3-.8-.57-1.61-.83-2.42C115.5,114.34,116.31,114.6,117.12,114.9Zm-2.76,2a30.52,30.52,0,0,1,.7,19,30.53,30.53,0,0,1-17.83,6.51q-1.76.06-3.5.2a69.06,69.06,0,0,1-10.34-17.49A70.09,70.09,0,0,1,79.47,112a67.44,67.44,0,0,1,10.91-1.33,69.12,69.12,0,0,1,22.85,2.93C113.58,114.72,113.95,115.83,114.35,116.92Zm-17.1,26.73a31.76,31.76,0,0,0,17.15-5.75l-.05.16a70,70,0,0,0-3.42,13,70,70,0,0,0-6.62,11.28,31.76,31.76,0,0,0-7.93-16.66c-.58-.63-1.13-1.28-1.68-1.93C95.55,143.75,96.4,143.69,97.26,143.66Zm-1.8,2.92a30.52,30.52,0,0,1,7.84,17.8,30.51,30.51,0,0,1-14.13,13.36q-1.6.73-3.15,1.55a69,69,0,0,1-16.32-12.1,70,70,0,0,1-9.24-11.43,67.42,67.42,0,0,1,10.44-5.92,69.12,69.12,0,0,1,22.27-5.91C93.91,144.83,94.67,145.71,95.46,146.57Zm-5.77,32.3a31.76,31.76,0,0,0,13.77-12.27,70,70,0,0,0,1.72,12.92,70,70,0,0,0-1.91,13.38c0,.06,0,.11,0,.17a31.76,31.76,0,0,0-13.57-12c-.78-.36-1.54-.74-2.3-1.12C88.15,179.62,88.91,179.23,89.69,178.88Zm-.52,3.39a30.52,30.52,0,0,1,13.91,12.92,30.52,30.52,0,0,1-8,17.22q-1.2,1.28-2.33,2.62A69,69,0,0,1,73.06,210a70.09,70.09,0,0,1-12-6.51,67.44,67.44,0,0,1,6.77-8.66A69.13,69.13,0,0,1,86,180.71C87.05,181.25,88.1,181.77,89.16,182.26Zm6.81,31A31.76,31.76,0,0,0,104,197.06l.08.15a70,70,0,0,0,6.81,11.65,70,70,0,0,0,3.28,12.64,31.76,31.76,0,0,0-17.38-6.17c-.85,0-1.7-.1-2.55-.17C94.83,214.52,95.39,213.88,96,213.25Zm.79,3.33a30.51,30.51,0,0,1,18.13,7,30.51,30.51,0,0,1-.55,19.44c-.41,1.1-.78,2.2-1.12,3.31a69.07,69.07,0,0,1-20.1,3,70,70,0,0,1-14.61-1.55,67.42,67.42,0,0,1,3.19-11.57,69.13,69.13,0,0,1,11.57-19.92C94.44,216.44,95.6,216.53,96.77,216.59Zm18.76,26.92a31.76,31.76,0,0,0,1.06-18.42A70,70,0,0,0,127,233a70,70,0,0,0,8.09,10.8l.11.13a31.32,31.32,0,0,0-18.05,1.15c-.8.3-1.61.57-2.43.84C115,245.12,115.23,244.31,115.53,243.51Zm2,2.76a30.52,30.52,0,0,1,19-.7A30.53,30.53,0,0,1,143,263.41h0a26.89,26.89,0,0,0-23.79,16.12q-3.29,1-6.63,1.62a69.25,69.25,0,0,1,1.63-33.77C115.35,247,116.45,246.68,117.55,246.27Zm25.55,18.39c0,.75.08,1.5.14,2.24a69.06,69.06,0,0,1-17.49,10.35c-1.61.65-3.23,1.23-4.86,1.75A25.62,25.62,0,0,1,143.1,264.66Zm-16.88,13.74a70.31,70.31,0,0,0,17.17-10q.34,3.31,1,6.56a11.11,11.11,0,0,0,7.72,20.76q1.49,2.65,3.18,5.15a68.59,68.59,0,0,1-26.95,9.72,25.51,25.51,0,0,1-8.17-30C122.2,279.93,124.22,279.22,126.22,278.41Zm22,9.27a71.82,71.82,0,0,0,3.26,6.91,9.86,9.86,0,0,1-6.83-18.37A70.75,70.75,0,0,0,148.21,287.67Zm-2.4-12a9.86,9.86,0,0,1,6.88,18.49,70.52,70.52,0,0,1-3.32-7A69.52,69.52,0,0,1,145.81,275.71ZM156,301.89a69.85,69.85,0,0,0,5.54,6.88,25.51,25.51,0,0,1-31.75,2.86A69.81,69.81,0,0,0,156,301.89Zm1.06-.67a71.22,71.22,0,0,0,11.64-9.4c.26-.26.51-.54.77-.8a25.5,25.5,0,0,1-7,16.88A68.61,68.61,0,0,1,157.06,301.22Zm10.75-10.29a70,70,0,0,1-11.47,9.26q-1.61-2.37-3-4.89a11.12,11.12,0,0,0-7.74-20.83,68.72,68.72,0,0,1-1-7c.9-.74,1.78-1.5,2.65-2.29l.3-.25a25.63,25.63,0,0,1,21.94,24.3C168.91,289.79,168.37,290.37,167.81,290.93Zm-19-27.08a30.51,30.51,0,0,1,12-5.84c2.38,2.83,6.95,5,12.67,6a30.46,30.46,0,0,1,4.89,7.45c.49,1.06,1,2.11,1.55,3.14a68.83,68.83,0,0,1-9.28,13.31A26.91,26.91,0,0,0,148.78,263.85Zm30.72,7.09a31.71,31.71,0,0,0-4.15-6.65,41.83,41.83,0,0,0,10.55,0,31.71,31.71,0,0,0-4.15,6.65c-.36.78-.74,1.54-1.12,2.31C180.24,272.48,179.86,271.72,179.5,270.94Zm3.39.52a30.47,30.47,0,0,1,4.89-7.45c5.46-1,9.85-3,12.31-5.62a30.5,30.5,0,0,1,11.22,5.69,26.91,26.91,0,0,0-20.69,23.82,68.87,68.87,0,0,1-9.28-13.31C181.88,273.57,182.4,272.52,182.89,271.46Zm29.61-6.36c.17.16.36.3.53.46.85.8,1.73,1.57,2.62,2.32q-.33,3.17-1,6.3a11.11,11.11,0,0,0-7.7,20.67c-.92,1.64-1.89,3.24-2.94,4.78a70.08,70.08,0,0,1-10.61-8.72c-.56-.56-1.1-1.14-1.64-1.71A25.64,25.64,0,0,1,212.49,265.1Zm-1.9,22.46q-1.35,3.19-3,6.2a9.86,9.86,0,0,1,6.83-18.36A69.44,69.44,0,0,1,210.59,287.57Zm5-11.79a9.86,9.86,0,0,1-6.88,18.49q1.63-3,3-6.22A70.75,70.75,0,0,0,215.64,275.78Zm-23.08,16a71.35,71.35,0,0,0,10.77,8.85,68.68,68.68,0,0,1-5.16,6.49A25.48,25.48,0,0,1,191.79,291C192,291.27,192.29,291.55,192.56,291.81Zm11.82,9.52a69.8,69.8,0,0,0,27.08,10.3A25.52,25.52,0,0,1,199,308.08,69.93,69.93,0,0,0,204.38,301.33Zm29.95-23.43A69.08,69.08,0,0,1,217,267.35c.09-.9.15-1.81.2-2.71h.22A25.66,25.66,0,0,1,241,280.32,70.59,70.59,0,0,1,234.33,277.9Zm-17-14.53h-.12a30.5,30.5,0,0,1,7-17.66,30.51,30.51,0,0,1,19.44.55c1.1.41,2.2.78,3.31,1.12a69.3,69.3,0,0,1,1.42,34.76q-3-.57-6-1.41A26.9,26.9,0,0,0,217.37,263.38Zm26.76-18.28A31.4,31.4,0,0,0,225.72,244a70,70,0,0,0,7.93-10.37,70,70,0,0,0,10.8-8.09l.13-.11a31.75,31.75,0,0,0,1.15,18.05c.3.8.57,1.61.84,2.43C245.75,245.67,244.94,245.4,244.13,245.1Zm2.76-2a30.52,30.52,0,0,1-.7-19A30.53,30.53,0,0,1,264,217.59c1.17,0,2.33-.11,3.5-.21a69.13,69.13,0,0,1,11.33,20.06A67.44,67.44,0,0,1,281.74,248a70.09,70.09,0,0,1-13.62,1.33,69.05,69.05,0,0,1-20.1-3C247.67,245.28,247.3,244.17,246.9,243.08ZM264,216.34a31.76,31.76,0,0,0-17.15,5.75l.05-.16a70,70,0,0,0,3.42-13.05,70,70,0,0,0,6.62-11.26,31.76,31.76,0,0,0,7.93,16.66c.58.63,1.13,1.28,1.68,1.93C265.7,216.26,264.85,216.31,264,216.34Zm1.8-2.92a30.51,30.51,0,0,1-7.84-17.8,30.51,30.51,0,0,1,14.13-13.36c1.06-.49,2.11-1,3.14-1.55a69.13,69.13,0,0,1,18.23,14.09,67.42,67.42,0,0,1,7.32,9.51,70,70,0,0,1-12.95,6.95,69.07,69.07,0,0,1-19.74,4.82Q267,214.72,265.79,213.43Zm28.58-19.48A70.39,70.39,0,0,0,276.53,180a70.34,70.34,0,0,0,15.91-11.93,71.35,71.35,0,0,0,8.83-10.73,69.24,69.24,0,0,1,20.82,23.74,68.63,68.63,0,0,1-20.28,22.52A68.64,68.64,0,0,0,294.38,193.95Zm7.56-37.67A69.84,69.84,0,0,0,312.55,127,71,71,0,0,1,331,150.93a69.44,69.44,0,0,1-5.36,23c-.84,2-1.78,3.95-2.79,5.84A70.46,70.46,0,0,0,301.94,156.28Zm-1-.72a68.65,68.65,0,0,0-9.68-5.54,70.39,70.39,0,0,0-21.79-6.19,70.36,70.36,0,0,0,10.23-17.05A71.24,71.24,0,0,0,284,112.49a69.31,69.31,0,0,1,27.41,13.58A68.63,68.63,0,0,1,300.91,155.56ZM283,111a68.64,68.64,0,0,0-12.07-1.57,70.39,70.39,0,0,0-22.48,2.76,70.63,70.63,0,0,0,1.44-33.53,68.06,68.06,0,0,1,11.29-.95,70,70,0,0,1,20.23,3A68.63,68.63,0,0,1,283,111ZM249.62,77.45a70.22,70.22,0,0,0-4-12.51,11.1,11.1,0,0,0,8.32-15,70.33,70.33,0,0,1,12.42,3.22,69.43,69.43,0,0,1,12.45,20c.82,2,1.53,4.05,2.16,6.1A70.45,70.45,0,0,0,249.62,77.45ZM253.5,54a9.85,9.85,0,0,1-8.81,9.82l-.85.09.34.78a69.06,69.06,0,0,1,4.21,13c-2,.37-3.89.83-5.83,1.37a26.67,26.67,0,0,0-7.68-29.63,70,70,0,0,1,17.62.3A9.8,9.8,0,0,1,253.5,54Zm-17.74-5.93a9.83,9.83,0,0,1,16,.29A72.54,72.54,0,0,0,235.76,48.07Zm-2.26.23a26.72,26.72,0,0,0-34.72,2.09,71.13,71.13,0,0,0-16-12.43,71,71,0,0,1,28.41-7.73,69.42,69.42,0,0,1,22.81,18Zm-35.6,3a26.75,26.75,0,0,0-7.4,18.47c0,.2,0,.38,0,.58a70,70,0,0,0-9.9,13.77,70,70,0,0,0-9.9-13.77c0-.19,0-.38,0-.58A26.73,26.73,0,0,0,164,52a69.81,69.81,0,0,1,17.46-13.35A69.89,69.89,0,0,1,197.9,51.28Zm-34.73-.19a26.73,26.73,0,0,0-35.42-2.79l-.52-.07A69.41,69.41,0,0,1,150.88,29.8,71,71,0,0,1,180.16,38,71,71,0,0,0,163.17,51.09ZM118.81,49a71.18,71.18,0,0,1,7.55.42,26.8,26.8,0,0,0-8.13,28.4c-1.71-.45-3.43-.82-5.15-1.14a69.11,69.11,0,0,1,4-12l.34-.78-.85-.09a9.85,9.85,0,0,1-7.81-14.12A71.26,71.26,0,0,1,118.81,49Zm-9.28-.63a9.83,9.83,0,0,1,16-.29A72.53,72.53,0,0,0,109.54,48.35Zm6.06,16.59a70.27,70.27,0,0,0-3.74,11.5,70.52,70.52,0,0,0-30.4,1.66c.65-2,1.39-4.08,2.23-6.08A69.46,69.46,0,0,1,95.8,52.82a70.39,70.39,0,0,1,11.48-2.87,11.1,11.1,0,0,0,8.32,15Zm-4,12.72a70.44,70.44,0,0,0,1.23,34.53,70.31,70.31,0,0,0-22.48-2.76,68.66,68.66,0,0,0-11.07,1.35A68.63,68.63,0,0,1,81,79.53,69.32,69.32,0,0,1,111.58,77.66ZM78.25,112.28a71.35,71.35,0,0,0,4,13.32,70.32,70.32,0,0,0,10,17.17,70.4,70.4,0,0,0-21.86,5.92,68.63,68.63,0,0,0-10.59,6,68.63,68.63,0,0,1-9.95-28.62A69.24,69.24,0,0,1,78.25,112.28ZM58.76,155.41a70.52,70.52,0,0,0-20.3,22.66c-1-1.91-1.9-3.86-2.72-5.88a69.46,69.46,0,0,1-5-22.11A71,71,0,0,1,48.7,127,69.84,69.84,0,0,0,58.76,155.41Zm.67,1.06a71.23,71.23,0,0,0,9.38,11.61A70.31,70.31,0,0,0,84.72,180a70.39,70.39,0,0,0-17.84,13.95A68.66,68.66,0,0,0,60,202.73a68.63,68.63,0,0,1-20.84-23.35A69.31,69.31,0,0,1,59.43,156.46Zm-.1,47.32a70.46,70.46,0,0,0-10.47,29.63c-1.65-1.37-3.25-2.82-4.79-4.36a69.43,69.43,0,0,1-13.64-19.28,71,71,0,0,1,8-29.09A69.84,69.84,0,0,0,59.33,203.78Zm1,.72a71.35,71.35,0,0,0,12.22,6.61,70.35,70.35,0,0,0,19.23,5.05,70.38,70.38,0,0,0-11.27,19.65,68.64,68.64,0,0,0-3.24,11.74A68.63,68.63,0,0,1,50,234.35,69.25,69.25,0,0,1,60.35,204.5Zm17.94,44.55a71.24,71.24,0,0,0,14.84,1.57,70.34,70.34,0,0,0,19.68-2.81,70.64,70.64,0,0,0-1.44,33.55,68.63,68.63,0,0,1-31.21-1.78A69.31,69.31,0,0,1,78.28,249.05Zm21.3,34.61a69.85,69.85,0,0,0,12.06-1.07,70.22,70.22,0,0,0,4,12.47,11.12,11.12,0,0,0-8.23,15.24,68.83,68.83,0,0,1-11.9-3A71,71,0,0,1,80.58,281,70,70,0,0,0,99.58,283.66ZM107.75,306a9.85,9.85,0,0,1,8.81-9.82l.85-.09-.34-.78a69.05,69.05,0,0,1-4.2-12.93c1.95-.38,3.89-.85,5.81-1.4a26.69,26.69,0,0,0,7.91,29.81l-.15,0-.09-.11-.09.13a70.55,70.55,0,0,1-7.5.41h0a70.37,70.37,0,0,1-9.88-.7A9.81,9.81,0,0,1,107.75,306Zm11,6.5h0c2.2,0,4.38-.11,6.54-.31a9.83,9.83,0,0,1-15.56-.28A71.68,71.68,0,0,0,118.75,312.5Zm9.25-.62a26.71,26.71,0,0,0,34.4-2.2,70,70,0,0,0,16.07,12.6c-1.84.94-3.72,1.82-5.65,2.61a69.46,69.46,0,0,1-22.45,5,69.4,69.4,0,0,1-23-18Zm35.28-3.09a26.76,26.76,0,0,0,7.47-18.55c0-.19,0-.37,0-.56a70.14,70.14,0,0,0,9.9-13.78,70.16,70.16,0,0,0,9.9,13.78c0,.19,0,.37,0,.56a26.73,26.73,0,0,0,6.81,17.82,68.78,68.78,0,0,1-17.54,13.52A68.8,68.8,0,0,1,163.28,308.8Zm34.88.2a26.74,26.74,0,0,0,35.1,2.88l.6.07A69.39,69.39,0,0,1,210,330.35,69.43,69.43,0,0,1,186.69,325c-1.93-.81-3.8-1.71-5.62-2.68A70,70,0,0,0,198.16,309Zm44.35,2.25h0a70.56,70.56,0,0,1-7.51-.41l-.09-.13-.09.11-.15,0a26.82,26.82,0,0,0,8.35-28.6q2.55.69,5.14,1.18a69.11,69.11,0,0,1-4,11.94l-.34.78.85.09a9.86,9.86,0,0,1,7.69,14.36A70.37,70.37,0,0,1,242.5,311.25Zm9,.66a9.83,9.83,0,0,1-15.56.28c2.16.2,4.34.31,6.54.31h0A71.68,71.68,0,0,0,251.52,311.91Zm-5.87-16.85a70.28,70.28,0,0,0,3.73-11.47,68.94,68.94,0,0,0,30.06-1.39,71,71,0,0,1-14.57,25.35,68.83,68.83,0,0,1-11,2.75,11.12,11.12,0,0,0-8.23-15.24Zm4-12.69a70.43,70.43,0,0,0-1.22-34.56,70.33,70.33,0,0,0,19.68,2.81A71.35,71.35,0,0,0,282,249.28a69.24,69.24,0,0,1-2.07,31.51A68.63,68.63,0,0,1,249.66,282.38Zm33.3-34.6A68.65,68.65,0,0,0,280,237a70.42,70.42,0,0,0-11-19.78,70.3,70.3,0,0,0,19.29-4.82,71.24,71.24,0,0,0,13.15-7.05,69.31,69.31,0,0,1,9.78,29A68.63,68.63,0,0,1,283,247.77Zm19.52-43.13a69.84,69.84,0,0,0,20.29-22.25,71,71,0,0,1,7.63,28.23,69.47,69.47,0,0,1-13.21,18.43c-1.54,1.54-3.14,3-4.79,4.36A70.52,70.52,0,0,0,302.48,204.65Zm23.43-83.82A69.22,69.22,0,0,1,331,148.32a72.31,72.31,0,0,0-18.32-22.76,71.86,71.86,0,0,0,.39-7.43,70.87,70.87,0,0,0-3-20.63A68,68,0,0,1,325.91,120.83ZM291.55,69.07A69.17,69.17,0,0,1,307.3,93.32a72.35,72.35,0,0,0-24.86-13.57,71.85,71.85,0,0,0-2.44-7,70.79,70.79,0,0,0-11.2-18.66A68,68,0,0,1,291.55,69.07Zm-76.46-39a68,68,0,0,1,26.43,5.32,69.21,69.21,0,0,1,23.07,15.8,71.78,71.78,0,0,0-11.26-2.66,11.11,11.11,0,0,0-18.51-1.36,70.74,70.74,0,0,0-21-17.08Zm-34.46-7h0a69.26,69.26,0,0,1,28.24,6,72.36,72.36,0,0,0-27.38,8.11,72.32,72.32,0,0,0-28.19-8.51A69.27,69.27,0,0,1,180.62,23.13ZM121.47,34.7a68,68,0,0,1,26.8-5,70.69,70.69,0,0,0-21.84,17.49,11.11,11.11,0,0,0-18.51,1.36,71.82,71.82,0,0,0-10.39,2.37A69.18,69.18,0,0,1,121.47,34.7ZM69.7,69.07A68,68,0,0,1,93.35,53.73a70.87,70.87,0,0,0-10.8,17.81,71.87,71.87,0,0,0-2.52,7A72.32,72.32,0,0,0,54.3,92.4,69.21,69.21,0,0,1,69.7,69.07Zm-33.65,50a68,68,0,0,1,15.4-22.45,70.79,70.79,0,0,0-3.33,21.48,71.87,71.87,0,0,0,.39,7.43A72.35,72.35,0,0,0,30.61,147.5,69.16,69.16,0,0,1,36.06,119.09ZM23.75,180a68,68,0,0,1,5.87-27.56,70.87,70.87,0,0,0,5,20.23,71.85,71.85,0,0,0,3.16,6.73,72.31,72.31,0,0,0-8.38,28A69.22,69.22,0,0,1,23.75,180Zm11.58,59.16a68,68,0,0,1-5-26.76,70.79,70.79,0,0,0,12.84,17.55,71.87,71.87,0,0,0,5.53,5,72.35,72.35,0,0,0,2.86,28.18A69.18,69.18,0,0,1,35.33,239.15Zm34.36,51.77a68,68,0,0,1-15.33-23.64,70.87,70.87,0,0,0,17.81,10.8,71.85,71.85,0,0,0,7,2.53A72.31,72.31,0,0,0,93,306.32,69.22,69.22,0,0,1,69.69,290.92Zm50,33.65a68,68,0,0,1-22.45-15.4,70.16,70.16,0,0,0,10.82,2.53,11.1,11.1,0,0,0,18.35,1.09A70.72,70.72,0,0,0,147.76,330,69.17,69.17,0,0,1,119.71,324.57Zm60.92,12.31h0A69.27,69.27,0,0,1,152.74,331a70.84,70.84,0,0,0,20.54-5q3.34-1.36,6.48-3,3.12,1.7,6.44,3.1a70.77,70.77,0,0,0,21.38,5.3A69.29,69.29,0,0,1,180.63,336.88Zm59.17-11.59a69.23,69.23,0,0,1-27.13,5.15,70.68,70.68,0,0,0,22.15-17.65,11.1,11.1,0,0,0,18.35-1.09,70.23,70.23,0,0,0,9.94-2.24A68,68,0,0,1,239.79,325.29Zm51.76-34.37a69.17,69.17,0,0,1-24.26,15.76,72.35,72.35,0,0,0,13.57-24.86,71.84,71.84,0,0,0,7-2.44,70.79,70.79,0,0,0,18.64-11.19A68,68,0,0,1,291.56,290.92Zm33.64-50A69.21,69.21,0,0,1,309.39,264a72.31,72.31,0,0,0,3.14-29,71.87,71.87,0,0,0,5.53-5,70.87,70.87,0,0,0,12.42-16.72A68,68,0,0,1,325.2,240.9Z"/><rect class="cls-1" y="135" width="360" height="90"/><path class="cls-3" d="M115.59,179.63v2.52c0,10.59-3.8,14.73-9.83,14.73s-10.31-4.42-10.31-14.73V178.2c0-10.54,4.23-15,10.31-15,5.56,0,9,3.71,9.79,10.59h-5.23c-.48-3.8-1.85-5.79-4.56-5.79-3.23,0-4.8,2.85-4.8,9.93v4.18c0,7.08,1.57,9.93,4.8,9.93,3,0,4.37-2.37,4.56-7.65h-4.46v-4.8Z"/><path class="cls-3" d="M124.19,182.15V178c0-10.31,4.23-14.73,10.31-14.73S144.8,167.66,144.8,178v4.18c0,10.31-4.23,14.73-10.31,14.73S124.19,192.45,124.19,182.15ZM129.7,178v4.18c0,7.08,1.57,10,4.8,10s4.8-2.9,4.8-10V178c0-7.08-1.57-10-4.8-10S129.7,170.89,129.7,178Z"/><path class="cls-3" d="M186.84,163.67v4.8h-7.36v28H174v-28h-7.36v-4.8Z"/><path class="cls-3" d="M200.81,196.44H195.3V163.67h5.51Z"/><path class="cls-3" d="M224.79,182.19l7.32-18.53h5.42v32.78H232V177.21l-5.37,12.92H223l-5.42-12.78v19.1h-5.51V163.67h5.37Z"/><path class="cls-3" d="M265.07,163.67v4.8H253.91v8.64h10v4.75h-10v9.83h11.16v4.75H248.4V163.67Z"/><path class="cls-3" d="M323.31,37.48a3.25,3.25,0,1,0-2.61,5.22,3.34,3.34,0,0,0,2.65-1.44L325,42.79a5.5,5.5,0,1,1-4.26-8.88,5.4,5.4,0,0,1,4.22,2Z"/><path class="cls-4" d="M320.61,56.25h-.33a16.75,16.75,0,0,1-12.07-5.41,16.93,16.93,0,0,1,0-22.92,16.88,16.88,0,0,1,24.32-.47.46.46,0,0,1-.64.64,16,16,0,0,0-23,.45,16,16,0,0,0,0,21.68,16,16,0,0,0,23,.45.46.46,0,0,1,.64.64A16.73,16.73,0,0,1,320.61,56.25Z"/><path class="cls-5" d="M320.6,50.78h-.39a11.4,11.4,0,0,1,0-22.79,11.45,11.45,0,0,1,8.46,3.33A.46.46,0,1,1,328,32a10.54,10.54,0,0,0-7.78-3.07,10.49,10.49,0,0,0,0,21A10.54,10.54,0,0,0,328,46.79a.46.46,0,0,1,.64.64A11.45,11.45,0,0,1,320.6,50.78Z"/></g></g></svg>