<?xml version="1.0" encoding="utf-8"?>
<!-- Generator: Adobe Illustrator 21.1.0, SVG Export Plug-In . SVG Version: 6.00 Build 0)  -->
<svg version="1.1" id="Layer_1" xmlns="http://www.w3.org/2000/svg" xmlns:xlink="http://www.w3.org/1999/xlink" x="0px" y="0px"
	 viewBox="0 0 360 360" style="enable-background:new 0 0 360 360;" xml:space="preserve">
<style type="text/css">
	.st0{fill:url(#SVGID_1_);}
	.st1{fill:url(#SVGID_2_);}
	.st2{fill:url(#SVGID_3_);}
	.st3{fill:url(#SVGID_4_);}
	.st4{fill:#121921;}
	.st5{fill:#FFFFFF;}
</style>
<title>jsparty-cover-art</title>
<linearGradient id="SVGID_1_" gradientUnits="userSpaceOnUse" x1="3113.2385" y1="258.1449" x2="3294.7866" y2="105.8113" gradientTransform="matrix(1 0 0 -1 -3024 362)">
	<stop  offset="0" style="stop-color:#FFE390"/>
	<stop  offset="0.61" style="stop-color:#FECE0D"/>
</linearGradient>
<path class="st0" d="M195.2,298.2c-2.1,0-3.8-1.7-3.8-3.7c0-1.9,1.4-3.5,3.3-3.7l1.2-0.2c2-0.5,4,0.7,4.5,2.8s-0.7,4-2.8,4.5
	c-0.2,0.1-0.5,0.1-0.8,0.1l-1.3,0.2C195.5,298.2,195.4,298.2,195.2,298.2z M163.6,298.1c-0.2,0-0.4,0-0.5,0l-1.3-0.2
	c-2.1-0.2-3.5-2.1-3.3-4.2c0.2-2.1,2.1-3.5,4.2-3.3c0.1,0,0.2,0,0.3,0l1.2,0.2c2,0.4,3.3,2.4,2.9,4.4
	C166.8,296.8,165.3,298,163.6,298.1z M226.9,289.3c-2.1,0-3.8-1.7-3.8-3.7c0-1.5,0.9-2.8,2.2-3.4l1.1-0.5c1.9-0.9,4.1,0,5,1.8
	c0.9,1.9,0,4.1-1.8,5l0,0l-1.2,0.5C227.9,289.2,227.4,289.3,226.9,289.3z M132.1,288.9c-0.5,0-1.1-0.1-1.6-0.3l-1.2-0.5
	c-1.9-0.8-2.8-3-1.9-4.9c0.8-1.9,3-2.8,4.9-1.9c0.1,0,0.1,0.1,0.2,0.1l1.1,0.5c1.9,0.9,2.7,3.1,1.8,5
	C134.9,288,133.5,288.9,132.1,288.9L132.1,288.9z M254.7,271.9c-2.1,0-3.8-1.7-3.8-3.7c0-1.1,0.5-2.2,1.3-2.9l0.9-0.8
	c1.5-1.4,3.9-1.2,5.3,0.3c1.4,1.5,1.2,3.9-0.3,5.3c0,0,0,0-0.1,0.1l-1,0.9C256.4,271.5,255.6,271.9,254.7,271.9L254.7,271.9z
	 M104.4,271.1c-0.9,0-1.8-0.3-2.4-0.9l-1-0.9c-1.5-1.4-1.7-3.8-0.3-5.3c1.4-1.5,3.8-1.7,5.3-0.3l0.9,0.8c1.6,1.4,1.7,3.7,0.3,5.3
	C106.5,270.6,105.5,271.1,104.4,271.1L104.4,271.1z M276.5,247.3c-2.1,0-3.7-1.7-3.7-3.8c0-0.7,0.2-1.5,0.6-2.1l0.7-1
	c1.1-1.7,3.4-2.2,5.2-1.1s2.2,3.4,1.1,5.2l0,0l-0.7,1.1C278.9,246.6,277.7,247.3,276.5,247.3L276.5,247.3z M82.9,246.3
	c-1.3,0-2.5-0.6-3.2-1.7l-0.7-1.1c-1.1-1.8-0.6-4.1,1.2-5.2s4.1-0.6,5.2,1.2l0,0l0.7,1c1.1,1.7,0.7,4.1-1,5.2
	C84.4,246.1,83.6,246.3,82.9,246.3L82.9,246.3z M290.5,217.5c-2.1,0-3.8-1.7-3.8-3.7c0-0.4,0.1-0.7,0.2-1.1l0.4-1.2
	c0.6-2,2.7-3.1,4.7-2.5c2,0.6,3.1,2.7,2.5,4.6c-0.1,0.4-0.2,0.8-0.4,1.3C293.6,216.4,292.1,217.5,290.5,217.5L290.5,217.5z
	 M69.2,216.4c-1.7,0-3.1-1.1-3.6-2.7c-0.1-0.4-0.2-0.8-0.4-1.3c-0.5-2,0.8-4,2.8-4.5c1.9-0.4,3.8,0.6,4.4,2.5l0.3,1.2
	c0.6,2-0.6,4.1-2.6,4.6C69.9,216.4,69.5,216.4,69.2,216.4L69.2,216.4z M295.5,185L295.5,185c-2.1,0-3.7-1.7-3.7-3.8c0,0,0,0,0,0
	c0-0.4,0-0.8,0-1.2v-0.2c0-2.1,1.7-3.8,3.8-3.8s3.8,1.7,3.8,3.8v0.3c0,0.4,0,0.9,0,1.3C299.2,183.4,297.6,185,295.5,185z
	 M64.5,183.9c-2.1,0-3.8-1.7-3.8-3.8l0,0h3.8h-3.8v-1.3c0-2.1,1.7-3.7,3.8-3.7l0,0c2.1,0,3.7,1.7,3.7,3.8c0,0,0,0,0,0v1.2
	C68.2,182.2,66.5,183.9,64.5,183.9L64.5,183.9z M291.1,152.2c-1.7,0-3.1-1.1-3.6-2.7l-0.3-1.2c-0.5-2,0.7-4.1,2.7-4.6
	c1.9-0.5,3.9,0.6,4.5,2.5l0.4,1.2c0.6,2-0.6,4.1-2.6,4.7C291.8,152.1,291.5,152.2,291.1,152.2L291.1,152.2z M69.1,151.3
	c-2.1,0-3.8-1.7-3.8-3.7c0-0.4,0.1-0.7,0.1-1.1c0.1-0.4,0.2-0.8,0.4-1.2c0.6-2,2.7-3.1,4.7-2.5c2,0.6,3.1,2.7,2.5,4.7l-0.4,1.2
	C72.3,150.2,70.8,151.3,69.1,151.3L69.1,151.3z M277.8,122.2c-1.3,0-2.5-0.7-3.2-1.8l-0.6-1c-1.1-1.8-0.5-4.1,1.2-5.2
	c1.7-1,3.9-0.6,5,1.1l0.7,1.1c1.1,1.8,0.6,4.1-1.2,5.2C279.1,122,278.5,122.2,277.8,122.2L277.8,122.2z M82.8,121.4
	c-2.1,0-3.7-1.7-3.7-3.8c0-0.7,0.2-1.4,0.6-2l0.7-1.1c1.1-1.7,3.4-2.2,5.2-1.1s2.2,3.4,1.1,5.2c0,0,0,0,0,0.1l-0.7,1
	C85.2,120.8,84,121.4,82.8,121.4L82.8,121.4z M256.4,97.1c-0.9,0-1.8-0.3-2.5-0.9l-1-0.8c-1.6-1.4-1.7-3.7-0.4-5.3
	c1.4-1.6,3.7-1.7,5.3-0.4l0,0l1,0.9c1.6,1.4,1.7,3.7,0.3,5.3C258.5,96.7,257.5,97.1,256.4,97.1L256.4,97.1z M104.3,96.5
	c-2.1,0-3.7-1.7-3.7-3.8c0-1.1,0.5-2.1,1.3-2.8l1-0.9c1.6-1.4,3.9-1.2,5.3,0.4s1.2,3.9-0.4,5.3c0,0,0,0-0.1,0.1l-0.9,0.8
	C106,96.2,105.2,96.6,104.3,96.5L104.3,96.5z M229,79.1c-0.5,0-1.1-0.1-1.6-0.3l-1.1-0.5c-1.9-0.8-2.8-3-2-4.9c0.8-1.9,3-2.8,4.9-2
	c0.1,0,0.2,0.1,0.2,0.1l1.2,0.6c1.9,0.9,2.7,3.1,1.8,5C231.8,78.3,230.4,79.1,229,79.1z M131.9,78.7c-2.1,0-3.8-1.7-3.8-3.7
	c0-1.5,0.9-2.8,2.2-3.4l1.2-0.5c1.9-0.8,4.1,0,5,1.9c0.8,1.9,0,4.1-1.9,5l-1.1,0.5C133,78.6,132.4,78.7,131.9,78.7L131.9,78.7z
	 M197.5,69.6c-0.2,0-0.4,0-0.6,0l-1.2-0.2c-2.1-0.2-3.6-2.1-3.3-4.1c0.2-2.1,2.1-3.6,4.1-3.3c0.1,0,0.1,0,0.2,0l1.3,0.2
	c2,0.4,3.3,2.4,2.9,4.4C200.7,68.3,199.2,69.5,197.5,69.6L197.5,69.6z M163.4,69.4c-2.1,0-3.7-1.7-3.7-3.8c0-1.9,1.4-3.4,3.2-3.7
	l1.3-0.2c2.1-0.3,3.9,1.2,4.2,3.2c0.3,2.1-1.2,3.9-3.2,4.2l-1.2,0.2C163.8,69.4,163.6,69.4,163.4,69.4L163.4,69.4z"/>
<linearGradient id="SVGID_2_" gradientUnits="userSpaceOnUse" x1="3097.7102" y1="271.1742" x2="3310.2573" y2="92.8135" gradientTransform="matrix(1 0 0 -1 -3024 362)">
	<stop  offset="0" style="stop-color:#FFE390"/>
	<stop  offset="0.61" style="stop-color:#FECE0D"/>
</linearGradient>
<path class="st1" d="M193.1,318.4c-1.4,0.1-2.6-1-2.6-2.4c-0.1-1.4,1-2.6,2.4-2.6l0,0l1.2-0.1c1.4-0.1,2.6,0.9,2.8,2.2
	s-0.9,2.6-2.2,2.8l-1.2,0.1L193.1,318.4L193.1,318.4z M165.8,318.3h-0.3l-1.3-0.1c-1.4-0.2-2.4-1.4-2.2-2.8c0.2-1.4,1.4-2.4,2.8-2.2
	l1.2,0.1c1.4,0.1,2.5,1.2,2.4,2.6C168.4,317.3,167.2,318.3,165.8,318.3L165.8,318.3z M221.1,312.7c-1.4,0-2.5-1.1-2.5-2.5
	c0-1.1,0.7-2,1.7-2.4l1.2-0.4c1.3-0.4,2.7,0.3,3.2,1.6s-0.3,2.7-1.6,3.2l0,0l-1.2,0.4C221.6,312.7,221.3,312.7,221.1,312.7
	L221.1,312.7z M137.9,312.4c-0.3,0-0.5,0-0.8-0.1l-1.2-0.4c-1.3-0.4-2-1.8-1.6-3.2c0.4-1.3,1.8-2,3.2-1.6l1.2,0.4
	c1.3,0.4,2,1.8,1.6,3.1C140,311.7,139,312.4,137.9,312.4L137.9,312.4z M247.2,301.3c-1.4,0-2.5-1.1-2.5-2.5c0-0.9,0.5-1.7,1.3-2.2
	l1.1-0.6c1.2-0.6,2.7-0.2,3.4,1c0.6,1.2,0.2,2.6-0.9,3.3l-1.1,0.6C248.1,301.2,247.7,301.3,247.2,301.3L247.2,301.3z M111.8,300.8
	c-0.4,0-0.9-0.1-1.2-0.3l-1.1-0.6c-1.2-0.7-1.6-2.2-0.9-3.4c0.7-1.2,2.2-1.6,3.4-0.9c0,0,0,0,0.1,0l1,0.6c1.2,0.7,1.6,2.2,0.9,3.4
	C113.5,300.3,112.7,300.8,111.8,300.8L111.8,300.8z M270.4,284.8c-1.4,0-2.5-1.1-2.5-2.5c0-0.7,0.3-1.4,0.8-1.9l0.9-0.8
	c1-0.9,2.6-0.8,3.5,0.2c0.9,1,0.8,2.6-0.2,3.5l-0.9,0.8C271.6,284.6,271,284.8,270.4,284.8L270.4,284.8z M88.7,284
	c-0.6,0-1.2-0.2-1.7-0.6l-0.9-0.9c-1-1-1-2.5,0-3.5c0.9-0.9,2.4-1,3.4-0.2l0.9,0.8c1,0.9,1.1,2.5,0.1,3.5
	C90.1,283.7,89.4,284,88.7,284L88.7,284z M289.7,263.8c-1.4,0-2.5-1.1-2.5-2.5c0-0.5,0.2-1.1,0.5-1.5l0.7-1c0.7-1.2,2.2-1.6,3.4-0.9
	c1.2,0.7,1.6,2.2,0.9,3.4c-0.1,0.2-0.2,0.3-0.4,0.5l-0.8,1C291.2,263.3,290.5,263.7,289.7,263.8L289.7,263.8z M69.7,262.9
	c-0.8,0-1.5-0.4-2-1l-0.7-1c-0.8-1.2-0.4-2.7,0.7-3.5c1.1-0.7,2.5-0.5,3.3,0.5l0.7,1c0.8,1.2,0.4,2.7-0.7,3.5
	C70.6,262.7,70.1,262.8,69.7,262.9L69.7,262.9z M304.3,239.2c-1.4,0-2.5-1.1-2.5-2.5c0-0.4,0.1-0.7,0.2-1l0.5-1.1
	c0.6-1.2,2.1-1.7,3.4-1.1c1.1,0.6,1.6,1.9,1.2,3.1l-0.5,1.1C306.1,238.6,305.2,239.2,304.3,239.2L304.3,239.2z M55.3,238.2
	c-1,0-1.9-0.6-2.3-1.5l-0.5-1.1c-0.6-1.2-0.1-2.7,1.2-3.3c1.2-0.6,2.7-0.1,3.3,1.2c0,0,0,0.1,0.1,0.1l0.5,1.1c0.5,1.3,0,2.7-1.3,3.3
	C56,238.1,55.7,238.2,55.3,238.2L55.3,238.2z M313.3,212.1c-1.4,0-2.5-1.1-2.5-2.5c0-0.2,0-0.3,0.1-0.5l0.3-1.2
	c0.4-1.3,1.7-2.1,3.1-1.8c1.2,0.3,2,1.5,1.8,2.8l-0.3,1.2C315.5,211.3,314.5,212.1,313.3,212.1L313.3,212.1z M46.5,211
	c-1.2,0-2.2-0.8-2.4-2l-0.3-1.2c-0.3-1.4,0.6-2.7,1.9-2.9s2.7,0.6,2.9,1.9l0.2,1.2c0.3,1.3-0.6,2.7-1.9,3
	C46.8,211,46.7,211,46.5,211z M316.5,183.7L316.5,183.7c-1.4,0-2.5-1.1-2.5-2.5c0,0,0,0,0,0v-1.5c0-1.4,1.1-2.5,2.5-2.5
	s2.5,1.1,2.5,2.5v1.6C319,182.6,317.9,183.7,316.5,183.7C316.5,183.7,316.5,183.7,316.5,183.7L316.5,183.7z M43.5,182.6
	c-1.4,0-2.5-1.1-2.5-2.5v-1.3c0-1.4,1.1-2.5,2.5-2.5l0,0c1.4,0,2.5,1.1,2.5,2.5c0,0,0,0,0,0v1.2C46,181.5,44.9,182.6,43.5,182.6
	L43.5,182.6z M313.7,155c-1.2,0-2.2-0.8-2.4-2l-0.2-1.2c-0.2-1.4,0.8-2.6,2.1-2.8c1.3-0.2,2.4,0.6,2.8,1.8l0.3,1.2
	c0.3,1.4-0.6,2.7-2,2.9C314.1,155,313.9,155,313.7,155z M46.4,154.2c-1.4,0-2.5-1.1-2.5-2.5c0-0.2,0-0.3,0.1-0.5l0.3-1.2
	c0.3-1.4,1.6-2.2,2.9-2c1.4,0.3,2.2,1.6,2,2.9c0,0,0,0.1,0,0.1l-0.3,1.2C48.6,153.4,47.6,154.3,46.4,154.2L46.4,154.2z M305.1,127.8
	c-1,0-1.9-0.6-2.3-1.5l-0.5-1.1c-0.7-1.2-0.2-2.7,1-3.4c1.2-0.7,2.7-0.2,3.4,1c0.1,0.1,0.1,0.3,0.2,0.4l0.5,1.2
	c0.6,1.3,0,2.7-1.3,3.3C305.8,127.8,305.5,127.9,305.1,127.8L305.1,127.8z M55.2,127.1c-1.4,0-2.5-1.1-2.5-2.5c0-0.4,0.1-0.7,0.2-1
	l0.5-1.2c0.6-1.2,2.1-1.8,3.3-1.2c1.2,0.6,1.7,2,1.2,3.2l-0.5,1.1C57.1,126.5,56.2,127.1,55.2,127.1L55.2,127.1z M291,103.1
	c-0.8,0-1.5-0.4-2-1l-0.7-1c-0.9-1-0.9-2.6,0.1-3.5c1-0.9,2.6-0.9,3.5,0.1c0.1,0.1,0.2,0.3,0.3,0.4l0.7,1c0.8,1.1,0.5,2.7-0.6,3.5
	C292,102.9,291.5,103.1,291,103.1z M69.4,102.4c-1.4,0-2.5-1.1-2.5-2.5c0-0.5,0.2-1.1,0.5-1.5l0.8-1c0.8-1.1,2.4-1.3,3.5-0.5
	s1.3,2.4,0.5,3.5l-0.7,1C71,102,70.2,102.4,69.4,102.4L69.4,102.4z M272.1,81.7c-0.6,0-1.2-0.2-1.7-0.7l-0.9-0.8
	c-1-0.9-1.1-2.5-0.1-3.5c0.9-1,2.5-1.1,3.5-0.2l0.9,0.8c1,0.9,1.1,2.5,0.1,3.5C273.4,81.4,272.8,81.7,272.1,81.7L272.1,81.7z
	 M88.5,81.2c-1.4,0-2.5-1.1-2.5-2.5c0-0.7,0.3-1.4,0.8-1.9l0.9-0.8c1-0.9,2.6-0.8,3.5,0.2c0.9,1,0.8,2.6-0.2,3.5l0,0l-0.9,0.8
	C89.7,80.9,89.1,81.2,88.5,81.2L88.5,81.2z M249.1,64.8c-0.4,0-0.9-0.1-1.3-0.3l-1.1-0.6c-1.2-0.7-1.6-2.2-0.9-3.4
	c0.7-1.2,2.2-1.6,3.4-0.9l1.1,0.6c1.2,0.7,1.6,2.2,0.9,3.4C250.8,64.3,250,64.8,249.1,64.8L249.1,64.8z M111.6,64.4
	c-1.4,0-2.5-1.1-2.5-2.5c0-0.9,0.5-1.7,1.2-2.2l1.1-0.6c1.2-0.7,2.7-0.3,3.4,0.8c0.7,1.2,0.3,2.7-0.8,3.4c0,0-0.1,0.1-0.1,0.1
	l-1,0.6C112.5,64.3,112,64.4,111.6,64.4L111.6,64.4z M223.1,53c-0.3,0-0.5,0-0.8-0.1l-1.2-0.4c-1.3-0.4-2.1-1.8-1.6-3.1
	s1.8-2.1,3.1-1.6c0,0,0,0,0,0l1.2,0.4c1.3,0.4,2,1.9,1.6,3.2C225.2,52.3,224.2,53,223.1,53z M137.6,52.8c-1.4,0-2.5-1.1-2.5-2.5
	c0-1.1,0.7-2.1,1.7-2.4l1.2-0.4c1.3-0.4,2.7,0.3,3.1,1.6c0.4,1.3-0.3,2.7-1.6,3.1l-1.1,0.4C138.1,52.7,137.9,52.7,137.6,52.8
	L137.6,52.8z M195.3,46.9H195l-1.2-0.1c-1.4-0.1-2.4-1.4-2.2-2.8c0.1-1.4,1.4-2.4,2.8-2.2l0,0l1.3,0.1c1.4,0.2,2.3,1.5,2,2.9
	C197.4,45.9,196.4,46.8,195.3,46.9L195.3,46.9z M165.5,46.8c-1.4,0.1-2.6-1-2.6-2.4c-0.1-1.4,1-2.6,2.4-2.6l1.3-0.1
	c1.4-0.1,2.6,0.9,2.7,2.3c0.1,1.4-0.9,2.6-2.3,2.7l-1.2,0.1L165.5,46.8L165.5,46.8z"/>
<linearGradient id="SVGID_3_" gradientUnits="userSpaceOnUse" x1="3081.9995" y1="284.402" x2="3326.072" y2="79.5984" gradientTransform="matrix(1 0 0 -1 -3024 362)">
	<stop  offset="0" style="stop-color:#FFE390"/>
	<stop  offset="0.61" style="stop-color:#FECE0D"/>
</linearGradient>
<path class="st2" d="M191.9,338.9c-1,0-1.9-0.9-1.8-1.9c0-0.9,0.7-1.7,1.7-1.8l1.2-0.1c1,0,1.9,0.8,1.9,1.8c0,0.9-0.7,1.8-1.6,1.9
	l-1.2,0.1L191.9,338.9L191.9,338.9z M167.1,338.9H167l-1.2-0.1c-1,0-1.9-0.9-1.9-1.9s0.9-1.9,1.9-1.9c0.1,0,0.2,0,0.2,0l1.2,0.1
	c1,0,1.8,0.9,1.8,1.9S168.1,338.9,167.1,338.9L167.1,338.9L167.1,338.9z M217.6,334.9c-1,0-1.9-0.9-1.8-1.9c0-0.8,0.6-1.6,1.4-1.8
	l1.2-0.3c1-0.3,2,0.4,2.3,1.4c0.3,1-0.4,2-1.4,2.3l-1.2,0.3C217.9,334.8,217.7,334.9,217.6,334.9L217.6,334.9z M141.4,334.6
	c-0.2,0-0.3,0-0.5-0.1l-1.2-0.3c-1-0.3-1.5-1.4-1.2-2.4c0.3-0.9,1.2-1.4,2.1-1.2l1.2,0.3c1,0.1,1.8,1.1,1.6,2.1
	C143.4,334,142.5,334.7,141.4,334.6L141.4,334.6z M242.2,326.6c-1,0-1.9-0.8-1.9-1.8c0-0.8,0.4-1.5,1.2-1.8l1.1-0.5
	c1-0.3,2.1,0.2,2.4,1.2c0.3,0.9-0.1,1.8-0.9,2.3l-1.1,0.5C242.7,326.5,242.5,326.6,242.2,326.6L242.2,326.6z M116.8,326.2
	c-0.3,0-0.5-0.1-0.8-0.2l-1.1-0.5c-0.9-0.5-1.2-1.6-0.7-2.6c0.4-0.8,1.4-1.2,2.3-0.9l1.1,0.5c1,0.4,1.4,1.5,1.1,2.4
	C118.3,325.7,117.6,326.2,116.8,326.2L116.8,326.2z M265.2,314.4c-1,0-1.9-0.8-1.9-1.9c0-0.6,0.3-1.2,0.9-1.6l1-0.7
	c0.8-0.6,2-0.5,2.6,0.4c0.6,0.8,0.5,2-0.4,2.6c-0.1,0.1-0.1,0.1-0.2,0.1l-1,0.7C265.9,314.3,265.5,314.4,265.2,314.4L265.2,314.4z
	 M93.9,313.8c-0.4,0-0.7-0.1-1-0.3l-1-0.7c-0.9-0.5-1.2-1.7-0.7-2.6s1.7-1.2,2.6-0.7c0.1,0,0.1,0.1,0.2,0.1l1,0.7
	c0.9,0.6,1.1,1.7,0.6,2.6C95.2,313.5,94.6,313.8,93.9,313.8L93.9,313.8z M285.8,298.5c-1,0-1.9-0.9-1.9-1.9c0-0.5,0.2-1,0.6-1.4
	l0.9-0.8c0.7-0.8,1.9-0.8,2.7-0.1c0.8,0.7,0.8,1.9,0.1,2.7c-0.1,0.1-0.1,0.1-0.2,0.2l-0.9,0.8C286.7,298.4,286.2,298.6,285.8,298.5
	L285.8,298.5z M73.4,297.8c-0.5,0-0.9-0.2-1.3-0.5l-0.9-0.9c-0.8-0.7-0.8-1.9-0.1-2.7c0.7-0.8,1.9-0.8,2.7-0.1l0,0l0.9,0.8
	c0.8,0.7,0.8,1.9,0.1,2.7C74.4,297.6,73.9,297.8,73.4,297.8L73.4,297.8z M303.5,279.5c-1,0-1.9-0.9-1.8-1.9c0-0.4,0.1-0.8,0.4-1.1
	l0.8-1c0.6-0.8,1.8-1,2.6-0.4c0.8,0.6,1,1.8,0.4,2.6l-0.8,1C304.7,279.3,304.1,279.6,303.5,279.5L303.5,279.5z M55.8,278.7
	c-0.6,0-1.1-0.3-1.5-0.7l-0.8-1c-0.6-0.8-0.5-2,0.4-2.6c0.8-0.6,2-0.5,2.6,0.4l0.8,1c0.6,0.8,0.5,2-0.3,2.6
	C56.6,278.6,56.2,278.7,55.8,278.7L55.8,278.7z M318,257.9c-1,0-1.9-0.8-1.9-1.9c0-0.3,0.1-0.6,0.2-0.9l0.6-1.1
	c0.5-0.9,1.6-1.2,2.5-0.8c0.9,0.5,1.2,1.6,0.8,2.5l0,0l-0.6,1.1C319.3,257.5,318.7,257.9,318,257.9z M41.6,256.9
	c-0.7,0-1.3-0.4-1.6-1l-0.6-1.1c-0.5-0.9-0.1-2.1,0.8-2.5c0.9-0.5,2.1-0.1,2.5,0.8l0.6,1.1c0.5,0.9,0.3,2-0.6,2.6
	C42.3,256.9,41.9,257,41.6,256.9L41.6,256.9z M328.7,234.1c-1,0-1.9-0.8-1.9-1.9c0-0.2,0-0.4,0.1-0.6l0.4-1.2c0.4-1,1.5-1.4,2.5-1
	c0.9,0.4,1.3,1.3,1.1,2.2l-0.4,1.2C330.2,233.7,329.4,234.2,328.7,234.1L328.7,234.1z M31.1,233.1c-0.8,0-1.5-0.5-1.8-1.3l-0.4-1.2
	c-0.3-1,0.4-2,1.4-2.3c0.9-0.2,1.8,0.2,2.2,1.1l0.4,1.2c0.3,1-0.2,2-1.2,2.4C31.5,233.1,31.2,233.2,31.1,233.1L31.1,233.1z
	 M335.2,209c-0.1,0-0.2,0-0.3,0c-1-0.2-1.7-1.1-1.5-2.2c0,0,0,0,0,0l0.2-1.2c0.2-1,1.3-1.6,2.3-1.4c0.9,0.2,1.5,1.1,1.4,2l-0.2,1.2
	C336.8,208.4,336.1,209,335.2,209z M24.6,208c-0.9,0-1.7-0.7-1.9-1.6l-0.2-1.2c-0.2-1,0.4-2,1.4-2.3s2,0.4,2.3,1.4
	c0,0.1,0,0.2,0,0.3l0.2,1.2c0.2,1-0.5,2-1.5,2.2c0,0,0,0,0,0L24.6,208z M337.5,183.2L337.5,183.2c-1,0-1.9-0.9-1.9-1.9v-1.6
	c0.1-1,1-1.8,2-1.7c0.9,0.1,1.7,0.8,1.7,1.7v1.6C339.4,182.3,338.5,183.1,337.5,183.2L337.5,183.2z M22.5,182.1
	c-1,0-1.9-0.8-1.9-1.9V179c0-1,0.8-1.9,1.9-1.9l0,0c1,0,1.9,0.8,1.9,1.9c0,0,0,0,0,0v1.2C24.3,181.2,23.5,182,22.5,182.1L22.5,182.1
	z M335.5,156.9c-0.9,0-1.7-0.7-1.9-1.6l-0.2-1.2c-0.1-1,0.7-2,1.7-2.1c0.9-0.1,1.8,0.5,2,1.4l0.2,1.2c0.2,1-0.5,2-1.5,2.1
	c0,0,0,0,0,0L335.5,156.9z M24.6,156.2h-0.3c-1-0.2-1.7-1.1-1.6-2.2l0.2-1.2c0.2-1,1.1-1.7,2.2-1.5c1,0.2,1.7,1.1,1.5,2.2l-0.2,1.2
	C26.2,155.5,25.5,156.1,24.6,156.2L24.6,156.2z M329.3,131.6c-0.8,0-1.5-0.5-1.8-1.3l-0.4-1.2c-0.3-1,0.2-2,1.2-2.4
	c1-0.3,2,0.2,2.4,1.2l0,0l0.4,1.2c0.3,1-0.2,2-1.2,2.4c0,0,0,0,0,0C329.7,131.6,329.5,131.6,329.3,131.6L329.3,131.6z M30.9,131
	c-1,0-1.9-0.8-1.9-1.9c0-0.2,0-0.4,0.1-0.6l0.4-1.2c0.3-1,1.3-1.6,2.3-1.3c1,0.3,1.6,1.3,1.3,2.3c0,0.1,0,0.1-0.1,0.2l-0.4,1.2
	C32.4,130.4,31.7,130.9,30.9,131L30.9,131z M319,107.7c-0.7,0-1.3-0.4-1.6-1l-0.6-1.1c-0.5-0.9-0.2-2,0.8-2.5c0.9-0.5,2-0.2,2.5,0.8
	l0.6,1.1c0.5,0.9,0.1,2.1-0.8,2.5C319.6,107.6,319.3,107.7,319,107.7z M41.4,107.1c-1,0-1.9-0.9-1.9-1.9c0-0.3,0.1-0.6,0.2-0.9
	l0.6-1.1c0.6-0.9,1.7-1.1,2.6-0.6c0.8,0.5,1.1,1.5,0.7,2.4l-0.6,1.1C42.7,106.7,42.1,107.1,41.4,107.1L41.4,107.1z M304.9,85.9
	c-0.6,0-1.1-0.3-1.5-0.7l-0.8-1c-0.6-0.8-0.5-2,0.3-2.7s2-0.5,2.7,0.3l0,0l0.8,1c0.6,0.8,0.5,2-0.3,2.6
	C305.8,85.8,305.3,85.9,304.9,85.9L304.9,85.9z M55.6,85.3c-1,0-1.9-0.9-1.8-1.9c0-0.4,0.1-0.8,0.4-1.1l0.8-1
	c0.7-0.8,1.9-0.8,2.7-0.1c0.7,0.6,0.8,1.7,0.3,2.5l-0.8,1C56.7,85.1,56.2,85.3,55.6,85.3L55.6,85.3z M287.4,66.7
	c-0.5,0-0.9-0.2-1.3-0.5l-0.9-0.8c-0.8-0.6-0.9-1.8-0.3-2.6c0.6-0.8,1.8-0.9,2.6-0.3c0.1,0.1,0.1,0.1,0.2,0.2l0.9,0.8
	c0.8,0.7,0.8,1.9,0.1,2.6C288.4,66.4,287.9,66.7,287.4,66.7L287.4,66.7z M73.2,66.1c-1,0-1.9-0.8-1.9-1.9c0-0.5,0.2-1,0.6-1.4
	l0.9-0.8c0.8-0.6,2-0.5,2.6,0.3c0.6,0.7,0.5,1.8-0.1,2.5l-0.9,0.8C74.1,66,73.7,66.1,73.2,66.1L73.2,66.1z M267,50.5
	c-0.4,0-0.7-0.1-1-0.3l-1-0.7c-0.8-0.6-1-1.8-0.4-2.6c0.6-0.7,1.6-1,2.4-0.5l1,0.7c0.9,0.6,1.1,1.7,0.5,2.6
	C268.2,50.2,267.6,50.5,267,50.5z M93.7,50.1c-1,0-1.9-0.9-1.8-1.9c0-0.6,0.3-1.2,0.8-1.5l1.1-0.7c0.9-0.5,2-0.2,2.5,0.8
	c0.4,0.8,0.2,1.8-0.5,2.4l-1,0.7C94.4,50,94.1,50.1,93.7,50.1L93.7,50.1z M244.2,38c-0.3,0-0.5-0.1-0.8-0.2l-1.1-0.5
	c-0.9-0.4-1.4-1.5-1-2.5c0.4-0.9,1.5-1.4,2.5-1l0,0l1.1,0.5c0.9,0.4,1.4,1.5,0.9,2.5C245.6,37.6,244.9,38,244.2,38z M116.5,37.7
	c-1,0-1.9-0.9-1.9-1.9c0-0.7,0.4-1.4,1.1-1.7l1.1-0.5c0.9-0.5,2.1-0.2,2.5,0.8c0.5,0.9,0.2,2.1-0.8,2.5c-0.1,0.1-0.2,0.1-0.3,0.1
	l-1.1,0.5C117,37.6,116.8,37.7,116.5,37.7z M219.6,29.4c-0.2,0-0.3,0-0.5-0.1L218,29c-1-0.3-1.5-1.4-1.2-2.4
	c0.3-0.9,1.2-1.4,2.1-1.3l1.2,0.3c1,0.3,1.6,1.3,1.3,2.3C221.2,28.8,220.4,29.4,219.6,29.4z M141.1,29.2c-1,0-1.9-0.9-1.8-1.9
	c0-0.8,0.6-1.5,1.4-1.8l1.2-0.3c1-0.2,2,0.4,2.3,1.4c0.2,1-0.4,2-1.4,2.3l-1.2,0.3C141.4,29.2,141.2,29.2,141.1,29.2z M194,25h-0.2
	l-1.2-0.1c-1-0.1-1.8-1-1.7-2c0.1-1,1-1.8,2-1.7l1.2,0.1c1,0,1.8,0.9,1.8,2C195.9,24.2,195,25,194,25L194,25z M166.8,24.9
	c-1,0-1.9-0.8-1.9-1.8c0-1,0.8-1.9,1.8-1.9l1.2-0.1c1-0.1,1.9,0.7,2,1.7c0.1,1-0.7,1.9-1.7,2l0,0l-1.2,0.1H166.8L166.8,24.9z"/>
<radialGradient id="SVGID_4_" cx="3204.085" cy="181.95" r="105.5219" gradientTransform="matrix(1 0 0 -1 -3024 362)" gradientUnits="userSpaceOnUse">
	<stop  offset="0.25" style="stop-color:#FECE0D;stop-opacity:0"/>
	<stop  offset="1" style="stop-color:#FECE0D"/>
</radialGradient>
<path class="st3" d="M257.2,252l1.3-1.4l0.4-0.5l1.2-1.4l0.4-0.5l1.2-1.4l0.4-0.5l1.1-1.4l0.4-0.6c0.4-0.5,0.7-1,1.1-1.4l0.4-0.6
	c0.3-0.5,0.7-0.9,1-1.4l0.5-0.7c0.3-0.5,0.6-0.9,1-1.4l0.5-0.7c0.3-0.5,0.6-0.9,0.9-1.4l0.4-0.7c0.3-0.5,0.6-0.9,0.9-1.4l0.4-0.8
	c0.3-0.5,0.6-0.9,0.8-1.4l0.5-0.8c0.3-0.5,0.5-0.9,0.8-1.4l0.4-0.9c0.2-0.5,0.5-0.9,0.7-1.4l0.4-0.9c0.2-0.5,0.5-0.9,0.7-1.4
	l0.4-0.9c0.2-0.5,0.4-0.9,0.6-1.4l0.4-1c0.2-0.5,0.4-0.9,0.6-1.4l0.4-1c0.2-0.5,0.4-0.9,0.6-1.4s0.3-0.7,0.4-1s0.4-0.9,0.5-1.4
	s0.2-0.7,0.4-1.1s0.3-0.9,0.5-1.4s0.2-0.7,0.4-1.1s0.3-0.9,0.4-1.3s0.2-0.8,0.3-1.1s0.3-0.9,0.4-1.3s0.2-0.8,0.3-1.2
	s0.2-0.9,0.4-1.3s0.2-0.8,0.3-1.2s0.2-0.9,0.3-1.3s0.2-0.8,0.3-1.2s0.2-0.9,0.3-1.3s0.2-0.9,0.2-1.3s0.2-0.9,0.2-1.3
	s0.1-0.9,0.2-1.3s0.1-0.9,0.2-1.3s0.1-0.9,0.2-1.4s0.1-0.8,0.2-1.2s0.1-0.9,0.2-1.4s0.1-0.8,0.1-1.2s0.1-1,0.1-1.5s0.1-0.8,0.1-1.2
	s0.1-1.1,0.1-1.6c0-0.4,0.1-0.7,0.1-1.1c0-0.6,0-1.1,0.1-1.7c0-0.3,0-0.7,0-1c0-0.9,0-1.8,0-2.7c0-0.1,0-0.2,0-0.4s0-0.1,0-0.2
	c0-0.4,0-0.7,0-1.1c-0.1-8.8-1.4-17.5-3.7-26l0,0c-0.2-0.8-0.5-1.6-0.7-2.5l0,0c-0.2-0.8-0.5-1.6-0.8-2.4v-0.1
	c-0.3-0.8-0.5-1.6-0.8-2.4V145c-0.3-0.8-0.6-1.5-0.8-2.3v-0.1c-0.3-0.7-0.6-1.5-0.9-2.2l-0.1-0.1c-0.3-0.7-0.6-1.4-0.9-2.2l-0.1-0.2
	c-0.3-0.7-0.6-1.4-1-2.1l-0.1-0.2c-0.3-0.7-0.7-1.3-1-2l-0.1-0.3c-0.3-0.7-0.7-1.3-1-2l-0.2-0.3c-0.3-0.6-0.7-1.3-1-1.9l-0.2-0.4
	c-0.3-0.6-0.7-1.2-1-1.8l-0.2-0.4c-0.3-0.6-0.7-1.1-1-1.7l-0.3-0.5c-0.3-0.5-0.7-1.1-1-1.6l-0.3-0.5c-0.3-0.5-0.7-1-1-1.6L267,120
	l-1-1.5l-0.4-0.6l-1-1.4l-0.5-0.7l-1-1.3l-0.6-0.7l-1-1.2l-0.6-0.7l-1-1.1L259,110l-0.9-1.1l-0.8-0.8l-0.9-1l-0.8-0.9l-0.9-0.9
	l-0.9-0.9l-0.9-0.8l-1-0.9l-0.8-0.8l-1.1-1l-0.8-0.7l-1.1-1l-0.7-0.6l-1.2-1l-0.7-0.5l-1.3-1l-0.6-0.5l-1.4-1l-0.6-0.4l-1.5-1.1
	l-0.5-0.4l-1.6-1.1l-0.5-0.3l-1.6-1.1l-0.4-0.3l-1.7-1.1l-0.4-0.2l-1.8-1l-0.3-0.2l-1.9-1l-0.3-0.2l-2-1l-0.3-0.1l-2-1l-0.2-0.1
	l-2.1-1l-0.2-0.1l-2.2-0.9l-0.1-0.1c-0.7-0.3-1.5-0.6-2.2-0.9h-0.1c-0.8-0.3-1.5-0.6-2.3-0.8H215c-0.8-0.3-1.6-0.5-2.4-0.8l0,0
	c-0.8-0.3-1.6-0.5-2.4-0.8l0,0c-9.3-2.8-18.8-4.2-28.5-4.4h-1.1H180c-0.9,0-1.8,0-2.7,0h-1l-1.7,0.1l-1.1,0.1l-1.6,0.1l-1.2,0.1
	l-1.5,0.1l-1.2,0.1l-1.4,0.2l-1.2,0.2l-1.4,0.2l-1.3,0.2l-1.3,0.2l-1.3,0.2l-1.3,0.2l-1.3,0.3l-1.2,0.3l-1.3,0.3l-1.2,0.3l-1.3,0.3
	l-1.2,0.3l-1.3,0.4l-1.2,0.3l-1.3,0.4l-1.1,0.4l-1.4,0.5l-1.1,0.4l-1.4,0.5l-1,0.4l-1.4,0.6l-1,0.4l-1.4,0.6l-1,0.4l-1.4,0.6
	l-0.9,0.4l-1.4,0.7l-0.9,0.4l-1.4,0.7L130,87l-1.4,0.8l-0.8,0.5l-1.4,0.8l-0.8,0.5l-1.4,0.9l-0.7,0.5l-1.4,0.9l-0.7,0.5l-1.4,1
	l-0.7,0.5l-1.4,1l-0.6,0.5l-1.4,1.1l-0.6,0.4l-1.4,1.1l-0.6,0.4l-1.4,1.2l-0.5,0.4l-1.4,1.2l-0.5,0.4l-1.4,1.3l-0.4,0.4l-1.4,1.3
	l-0.4,0.4l-1.4,1.4l-0.4,0.4l-1.4,1.4l-0.4,0.4c-0.5,0.5-0.9,1-1.4,1.5l-0.3,0.4c-0.5,0.5-0.9,1-1.3,1.6l-0.3,0.3
	c-0.4,0.5-0.9,1.1-1.3,1.6l-0.3,0.3c-0.4,0.6-0.9,1.1-1.3,1.7l-0.2,0.3c-0.4,0.6-0.9,1.1-1.3,1.7l-0.2,0.3c-0.4,0.6-0.8,1.2-1.2,1.8
	l-0.2,0.3c-0.4,0.6-0.8,1.2-1.2,1.8l-0.2,0.3c-0.4,0.6-0.8,1.2-1.2,1.9l-0.1,0.2c-0.4,0.7-0.8,1.3-1.2,1.9l-0.1,0.2
	c-0.4,0.7-0.8,1.3-1.1,2l-0.1,0.2c-0.4,0.7-0.7,1.3-1.1,2l-0.1,0.2c-0.4,0.7-0.7,1.4-1.1,2.1l-0.1,0.2c-0.3,0.7-0.7,1.4-1,2.1
	l-0.1,0.1c-0.3,0.7-0.7,1.4-1,2.2l-0.1,0.1c-0.3,0.7-0.6,1.5-0.9,2.2v0.1c-0.3,0.8-0.6,1.5-0.9,2.3v0.1c-0.3,0.8-0.6,1.5-0.9,2.3
	v0.1c-0.3,0.8-0.5,1.6-0.8,2.4v0.1c-0.3,0.8-0.5,1.6-0.7,2.4v0.1c-0.2,0.8-0.5,1.6-0.7,2.4v0.1c-0.2,0.8-0.4,1.6-0.6,2.4l0,0
	c-0.2,0.8-0.4,1.7-0.6,2.5l0,0c-0.2,0.8-0.4,1.7-0.5,2.5l0,0c-0.2,0.8-0.3,1.7-0.5,2.6l0,0c-0.1,0.9-0.3,1.7-0.4,2.6l0,0
	c-0.1,0.9-0.2,1.7-0.3,2.6l0,0c-0.1,0.9-0.2,1.8-0.3,2.6l0,0c-0.1,0.9-0.1,1.8-0.2,2.6l0,0c-0.1,0.9-0.1,1.8-0.1,2.7l0,0
	c0,0.9-0.1,1.8-0.1,2.7l0,0c0,0.4,0,0.7,0,1.1c0,0.1,0,0.1,0,0.2s0,0.2,0,0.4c0,58.3,47.1,105.6,105.4,105.8h0.6h1.1
	c4.4-0.1,8.9-0.4,13.2-1l0,0c0.9-0.1,1.7-0.3,2.6-0.4l0,0c0.9-0.1,1.7-0.3,2.6-0.5l0,0c0.8-0.2,1.7-0.3,2.5-0.5l0,0
	c0.8-0.2,1.7-0.4,2.5-0.6l0,0c0.8-0.2,1.7-0.4,2.5-0.6l0,0c0.8-0.2,1.6-0.4,2.4-0.7h0.1c0.8-0.2,1.6-0.5,2.4-0.8h0.1
	c0.8-0.3,1.6-0.5,2.4-0.8h0.1c0.8-0.3,1.6-0.6,2.3-0.9h0.1c0.8-0.3,1.5-0.6,2.3-0.9h0.1c0.7-0.3,1.5-0.6,2.2-0.9l0.1,0
	c0.7-0.3,1.5-0.7,2.2-1l0.1-0.1l2.1-1l0.2-0.1l2.1-1.1l0.2-0.1l2-1.1l0.2-0.1l2-1.1l0.2-0.1l1.9-1.2l0.2-0.1l1.9-1.2l0.2-0.2
	l1.8-1.2l0.3-0.2l1.8-1.3l0.3-0.2l1.7-1.3l0.3-0.2l1.7-1.3l0.3-0.3l1.6-1.3l0.3-0.3l1.6-1.4l0.4-0.3l1.5-1.4l0.4-0.4l1.4-1.4
	l0.4-0.4l1.4-1.4l0.4-0.4l1.3-1.4L257.2,252z M277.6,217c-0.2,0.6-0.5,1.2-0.8,1.9s-0.5,1.3-0.8,1.9s-0.5,1.2-0.8,1.8
	s-0.6,1.2-0.8,1.9s-0.6,1.2-0.9,1.8s-0.6,1.2-0.9,1.8s-0.6,1.2-1,1.8s-0.6,1.2-1,1.8s-0.7,1.1-1,1.7s-0.7,1.2-1,1.7
	s-0.7,1.1-1.1,1.7s-0.7,1.1-1.1,1.7s-0.8,1.1-1.1,1.6s-0.8,1.1-1.2,1.6s-0.8,1.1-1.2,1.6s-0.8,1.1-1.2,1.6s-0.8,1-1.3,1.5
	s-0.8,1-1.3,1.5s-0.9,1-1.3,1.5s-0.9,1-1.3,1.5s-0.9,1-1.4,1.4s-0.9,1-1.4,1.4s-1,0.9-1.4,1.4s-1,0.9-1.4,1.4s-1,0.9-1.5,1.3
	s-1,0.9-1.5,1.3s-1,0.9-1.6,1.3s-1,0.9-1.5,1.3s-1.1,0.8-1.6,1.2s-1,0.8-1.6,1.2s-1.1,0.8-1.6,1.2s-1.1,0.8-1.6,1.1
	s-1.1,0.7-1.7,1.1s-1.1,0.7-1.7,1.1s-1.2,0.7-1.7,1s-1.1,0.7-1.7,1s-1.2,0.6-1.8,1s-1.2,0.6-1.8,1s-1.2,0.6-1.8,0.9
	s-1.2,0.6-1.8,0.9s-1.2,0.6-1.9,0.8s-1.2,0.5-1.8,0.8s-1.3,0.5-1.9,0.8s-1.2,0.5-1.9,0.7s-1.3,0.5-1.9,0.7l-1.5,0.5
	c14.5-6.2,27.2-15.9,37.1-28.2c12.3-9.9,22-22.6,28.2-37.1c-0.2,0.5-0.4,1-0.5,1.5S277.9,216.3,277.6,217L277.6,217z M143,277.6
	c-0.6-0.2-1.2-0.5-1.9-0.7s-1.3-0.5-1.9-0.8s-1.2-0.5-1.8-0.8s-1.2-0.5-1.9-0.8s-1.2-0.6-1.8-0.9s-1.2-0.6-1.8-0.9s-1.2-0.6-1.8-1
	s-1.2-0.6-1.8-1s-1.1-0.7-1.7-1s-1.2-0.7-1.7-1s-1.1-0.7-1.7-1.1s-1.1-0.7-1.7-1.1s-1.1-0.8-1.6-1.1s-1.1-0.8-1.6-1.2
	s-1.1-0.8-1.6-1.2s-1.1-0.8-1.6-1.2s-1-0.8-1.5-1.3s-1-0.9-1.6-1.3s-1-0.9-1.5-1.3s-1-0.9-1.5-1.3s-1-0.9-1.4-1.4s-1-0.9-1.4-1.4
	s-0.9-1-1.4-1.4s-0.9-1-1.4-1.4s-0.9-1-1.3-1.5s-0.9-1-1.3-1.5s-0.9-1-1.3-1.5s-0.9-1-1.3-1.5s-0.8-1.1-1.2-1.6s-0.8-1.1-1.2-1.6
	s-0.8-1.1-1.2-1.6s-0.8-1.1-1.1-1.6s-0.7-1.1-1.1-1.7s-0.7-1.1-1.1-1.7s-0.7-1.1-1-1.7s-0.7-1.1-1-1.7s-0.6-1.2-1-1.8
	s-0.6-1.2-1-1.8s-0.6-1.2-0.9-1.8s-0.6-1.2-0.9-1.8s-0.6-1.2-0.8-1.9s-0.6-1.2-0.8-1.8s-0.5-1.3-0.8-1.9s-0.5-1.2-0.8-1.9
	s-0.5-1.3-0.7-1.9s-0.4-1-0.5-1.5c6.2,14.5,15.9,27.2,28.2,37.1c9.9,12.3,22.6,22,37.1,28.2l-1.5-0.5
	C144.3,278.1,143.7,277.9,143,277.6z M81.7,145c0.2-0.6,0.4-1.3,0.7-1.9s0.5-1.2,0.8-1.9s0.5-1.3,0.8-1.9s0.5-1.2,0.8-1.8
	s0.6-1.2,0.8-1.9s0.6-1.2,0.9-1.8s0.6-1.2,0.9-1.8s0.6-1.2,1-1.8s0.6-1.2,1-1.8s0.7-1.2,1-1.7s0.7-1.2,1-1.7s0.7-1.1,1.1-1.7
	s0.7-1.1,1.1-1.7s0.8-1.1,1.1-1.6s0.8-1.1,1.2-1.6s0.8-1.1,1.2-1.6s0.8-1.1,1.2-1.6s0.8-1,1.3-1.5s0.8-1,1.3-1.5s0.9-1,1.3-1.5
	s0.9-1,1.3-1.5s0.9-1,1.4-1.4s0.9-1,1.4-1.4s1-0.9,1.4-1.4s1-0.9,1.4-1.4s1-0.9,1.5-1.3s1-0.9,1.5-1.3s1-0.9,1.6-1.3s1-0.8,1.5-1.3
	s1.1-0.8,1.6-1.2s1-0.8,1.6-1.2s1.1-0.8,1.6-1.2s1.1-0.8,1.6-1.1s1.1-0.7,1.7-1.1s1.1-0.7,1.7-1.1s1.2-0.7,1.7-1s1.1-0.7,1.7-1
	s1.2-0.7,1.8-1s1.2-0.6,1.8-1s1.2-0.6,1.8-0.9s1.2-0.6,1.8-0.9s1.2-0.6,1.9-0.8s1.2-0.6,1.8-0.8s1.3-0.5,1.9-0.8s1.2-0.5,1.9-0.7
	s1.3-0.5,1.9-0.7l1.5-0.5c-14.5,6.2-27.2,15.9-37.1,28.2c-12.3,9.9-22,22.6-28.2,37.1C81.3,145.9,81.5,145.4,81.7,145z M215,81.7
	c0.6,0.2,1.3,0.5,1.9,0.7s1.2,0.5,1.9,0.7s1.3,0.5,1.9,0.8s1.2,0.5,1.8,0.8s1.2,0.6,1.9,0.8s1.2,0.6,1.8,0.9s1.2,0.6,1.8,0.9
	s1.2,0.6,1.8,1s1.2,0.6,1.8,1s1.1,0.7,1.7,1s1.2,0.7,1.7,1s1.1,0.7,1.7,1.1s1.1,0.7,1.7,1.1s1.1,0.8,1.6,1.1s1.1,0.8,1.6,1.2
	s1.1,0.8,1.6,1.2s1.1,0.8,1.6,1.2s1,0.8,1.5,1.3s1,0.8,1.6,1.3s1,0.9,1.5,1.3s1,0.9,1.5,1.3s1,0.9,1.4,1.4s1,0.9,1.4,1.4
	s0.9,1,1.4,1.4s0.9,1,1.4,1.4s0.9,1,1.3,1.5s0.9,1,1.3,1.5s0.9,1,1.3,1.5s0.9,1,1.3,1.5s0.8,1.1,1.2,1.6s0.8,1.1,1.2,1.6
	s0.8,1.1,1.2,1.6s0.8,1.1,1.1,1.6s0.7,1.1,1.1,1.7s0.7,1.1,1.1,1.7s0.7,1.2,1,1.7s0.7,1.1,1,1.7s0.6,1.2,1,1.8s0.6,1.2,1,1.8
	s0.6,1.2,0.9,1.8s0.6,1.2,0.9,1.8s0.6,1.2,0.8,1.9s0.6,1.2,0.8,1.8s0.5,1.3,0.8,1.9s0.5,1.2,0.8,1.9s0.5,1.3,0.7,1.9s0.4,1,0.5,1.5
	c-6.2-14.5-15.9-27.2-28.2-37.1c-9.9-12.3-22.6-22-37.1-28.2L215,81.7z M86.1,180c0-1.4,0-2.8,0.1-4.1c2.6-0.5,5.8-1,9.3-1.5
	c-0.1,1.9-0.1,3.7-0.1,5.6s0.1,3.8,0.1,5.6c-3.6-0.5-6.7-1-9.3-1.5C86.1,182.8,86.1,181.4,86.1,180z M219.8,266.8
	c3.4-3.7,6.5-7.6,9.2-11.9c5-2.1,9.8-4.5,14.4-7.3c-3.3,4.9-7.1,9.4-11.2,13.6C228.2,263.3,224.1,265.2,219.8,266.8L219.8,266.8z
	 M207.3,270.6c2.8-3.3,5.3-6.9,7.4-10.7c4.2-1.2,8.3-2.6,12.4-4.2c-2.9,4.3-6.2,8.3-9.9,12C213.9,268.8,210.6,269.8,207.3,270.6
	L207.3,270.6z M144.6,268.3c-3.7-3.6-7.1-7.6-10-11.9c3.5,1.3,7.1,2.5,10.8,3.5c2.2,3.8,4.7,7.3,7.4,10.7
	C150,269.9,147.2,269.2,144.6,268.3L144.6,268.3z M127.7,261.2c-4.1-4.2-7.9-8.8-11.2-13.6c5.1,3.1,10.5,5.8,16,8
	c2.8,4.2,6,8.2,9.4,11.8C137.1,265.7,132.3,263.6,127.7,261.2L127.7,261.2z M92.6,218c3.7,3.5,7.6,6.7,11.8,9.4
	c2.2,5.5,4.9,10.9,8,16c-4.9-3.3-9.4-7-13.6-11.2C96.4,227.7,94.3,222.9,92.6,218z M96.6,180c0-1.9,0.1-3.9,0.1-5.8
	c4.4-0.6,9.5-1.1,15.1-1.6c-0.1,2.4-0.2,4.9-0.2,7.4s0.1,4.9,0.2,7.4c-5.6-0.5-10.7-1-15.1-1.6C96.7,183.9,96.6,181.9,96.6,180
	L96.6,180z M98.7,127.7c4.2-4.1,8.8-7.9,13.6-11.2c-2.8,4.6-5.2,9.4-7.3,14.4c-4.2,2.7-8.2,5.8-11.9,9.2
	C94.8,135.9,96.7,131.7,98.7,127.7L98.7,127.7z M142,92.6c-3.5,3.7-6.7,7.6-9.4,11.8c-5.5,2.2-10.9,4.9-16,8
	c3.3-4.9,7-9.4,11.2-13.6C132.3,96.4,137.1,94.3,142,92.6z M152.8,89.4c-2.8,3.3-5.3,6.9-7.4,10.7c-3.7,1-7.3,2.2-10.8,3.6
	c2.9-4.3,6.3-8.3,10-11.9C147.2,90.8,150,90.1,152.8,89.4L152.8,89.4z M217.2,92.3c3.7,3.7,7,7.7,9.9,12c-4-1.6-8.2-3-12.4-4.2
	c-2.2-3.8-4.6-7.3-7.4-10.7C210.6,90.2,213.9,91.2,217.2,92.3L217.2,92.3z M232.3,98.8c4.1,4.2,7.9,8.8,11.2,13.6
	c-4.6-2.8-9.4-5.2-14.4-7.3c-2.7-4.2-5.8-8.2-9.2-11.8C224.1,94.8,228.3,96.7,232.3,98.8L232.3,98.8z M266.8,140.2
	c-3.7-3.4-7.6-6.5-11.9-9.2c-2.1-5-4.5-9.8-7.3-14.4c4.9,3.3,9.4,7.1,13.6,11.2C263.3,131.8,265.2,135.9,266.8,140.2L266.8,140.2z
	 M273.9,180c0,1.4,0,2.8-0.1,4.1c-2.6,0.5-5.8,1-9.3,1.5c0.1-1.9,0.1-3.7,0.1-5.6s-0.1-3.8-0.1-5.6c3.6,0.5,6.7,1,9.3,1.5
	C273.9,177.2,273.9,178.6,273.9,180L273.9,180z M268.3,215.4c-3.6,3.7-7.6,7.1-11.9,10c1.3-3.5,2.5-7.1,3.6-10.8
	c3.8-2.2,7.3-4.7,10.7-7.4C269.9,210,269.2,212.8,268.3,215.4L268.3,215.4z M272.2,205.9c3.9-3.4,7.2-7.5,9.8-12
	c-2.5,7.2-6.5,13.8-11.7,19.4C271,210.9,271.6,208.4,272.2,205.9L272.2,205.9z M119.1,223.4c4.3,1.5,8.8,2.9,13.5,4.1
	c1.2,4.7,2.6,9.2,4.1,13.5c-4.4-1.3-8.7-2.8-12.9-4.6C121.9,232.1,120.4,227.8,119.1,223.4L119.1,223.4z M122.1,235.6
	c-5.8-2.5-11.3-5.5-16.6-8.9c-1.4-3.6-2.7-7.3-3.9-11.1c5.1,2.8,10.5,5.3,16,7.3C118.9,227.2,120.4,231.4,122.1,235.6L122.1,235.6z
	 M113,180c0-2.5,0.1-5,0.2-7.5c4.3-0.4,9-0.7,13.9-1c-0.1,2.8-0.2,5.6-0.2,8.4c0,2.8,0.1,5.7,0.2,8.4c-4.9-0.3-9.6-0.6-13.9-1
	C113,185,113,182.5,113,180z M124.3,122.3c4.2-1.7,8.5-3.2,12.8-4.5c-1.8,4.8-3.3,9.8-4.6,14.8c-4.7,1.2-9.2,2.6-13.5,4.1
	C120.6,131.8,122.3,127,124.3,122.3L124.3,122.3z M117.7,137.2c-5.5,2-10.9,4.4-16,7.3c1.3-4.3,2.7-8.6,4.5-12.7
	c5.3-3.4,10.8-6.3,16.6-8.8C120.8,127.6,119.1,132.3,117.7,137.2L117.7,137.2z M263.4,180c0,1.9-0.1,3.9-0.1,5.8
	c-4.1,0.5-8.8,1-14,1.5c0.1-2.4,0.2-4.8,0.2-7.3s-0.1-4.9-0.2-7.3c5.2,0.4,9.8,1,14,1.5C263.3,176.1,263.4,178.1,263.4,180z
	 M128.1,180c0-2.9,0.1-5.7,0.2-8.5c6.1-0.4,12.7-0.6,19.7-0.9c-0.1,3.1-0.1,6.2-0.1,9.4c0,3.2,0,6.3,0.1,9.4
	c-7-0.2-13.6-0.5-19.7-0.9C128.2,185.7,128.1,182.9,128.1,180z M248.2,180c0,2.5-0.1,4.9-0.2,7.4c-4.6,0.4-9.7,0.8-15.1,1.1
	c0.1-2.8,0.2-5.6,0.2-8.4s-0.1-5.6-0.2-8.4c5.4,0.3,10.4,0.7,15.1,1.1C248.1,175.1,248.2,177.5,248.2,180z M149.1,180
	c0-3.2,0-6.3,0.1-9.4c6.3-0.2,12.8-0.3,19.7-0.4c0,3.3,0,6.5,0,9.8s0,6.5,0,9.8c-6.8-0.1-13.4-0.2-19.7-0.4
	C149.2,186.3,149.1,183.2,149.1,180L149.1,180z M231.9,180c0,2.9-0.1,5.7-0.2,8.5c-6.1,0.4-12.7,0.6-19.7,0.9
	c0.1-3.1,0.1-6.2,0.1-9.4c0-3.2,0-6.3-0.1-9.4c7,0.2,13.6,0.5,19.7,0.9C231.8,174.3,231.9,177.1,231.9,180z M180,189.9
	c-3.3,0-6.6,0-9.8,0c0-3.2,0-6.5,0-9.8c0-3.3,0-6.6,0-9.8c3.2,0,6.5,0,9.8,0s6.6,0,9.8,0c0,3.2,0,6.5,0,9.8c0,3.3,0,6.6,0,9.8
	C186.6,189.9,183.3,189.9,180,189.9z M189.8,191.1c-0.1,6.8-0.2,13.4-0.4,19.7c-3.1,0.1-6.2,0.1-9.4,0.1c-3.2,0-6.3,0-9.4-0.1
	c-0.2-6.3-0.3-12.8-0.4-19.7c3.3,0,6.5,0,9.8,0C183.3,191.1,186.5,191.1,189.8,191.1z M170.2,168.9c0.1-6.8,0.2-13.4,0.4-19.7
	c3.1-0.1,6.2-0.1,9.4-0.1s6.3,0,9.4,0.1c0.2,6.3,0.3,12.8,0.4,19.7c-3.3,0-6.5,0-9.8,0S173.5,168.9,170.2,168.9L170.2,168.9z
	 M191.1,170.2c6.8,0.1,13.4,0.2,19.7,0.4c0.1,3.1,0.1,6.2,0.1,9.4c0,3.2,0,6.3-0.1,9.4c-6.3,0.2-12.8,0.3-19.7,0.4
	c0-3.3,0-6.5,0-9.8C191.1,176.7,191.1,173.5,191.1,170.2z M212,169.4c-0.2-6.5-0.6-12.8-1.1-18.9c6.7,0.6,13.2,1.4,19.2,2.4
	c0.8,5.6,1.3,11.4,1.6,17.3C225.3,169.9,218.7,169.6,212,169.4L212,169.4z M210.7,169.4c-6.4-0.2-13-0.3-19.6-0.4
	c-0.1-6.6-0.2-13.2-0.4-19.6c6.5,0.2,12.9,0.6,18.9,1.1C210.1,156.5,210.5,162.8,210.7,169.4L210.7,169.4z M190.6,148
	c-0.2-6.8-0.5-13.4-0.9-19.7c5.9,0.3,11.7,0.8,17.3,1.6c1,6.1,1.8,12.5,2.4,19.2C203.4,148.6,197.1,148.2,190.6,148z M189.4,148
	c-3.1-0.1-6.2-0.1-9.4-0.1c-3.2,0-6.3,0-9.4,0.1c0.2-7,0.5-13.6,0.9-19.7c2.8-0.1,5.6-0.2,8.5-0.2s5.7,0.1,8.5,0.2
	C188.9,134.4,189.2,141,189.4,148L189.4,148z M169.4,148c-6.5,0.2-12.8,0.6-18.9,1.1c0.6-6.7,1.4-13.2,2.4-19.2
	c5.6-0.8,11.4-1.3,17.3-1.6C169.9,134.7,169.6,141.3,169.4,148L169.4,148z M169.4,149.2c-0.2,6.4-0.3,13-0.4,19.6
	c-6.6,0.1-13.2,0.2-19.6,0.4c0.2-6.5,0.6-12.9,1.1-18.9C156.5,149.9,162.8,149.5,169.4,149.2L169.4,149.2z M169,191
	c0.1,6.6,0.2,13.2,0.4,19.6c-6.5-0.2-12.9-0.6-18.9-1.1c-0.5-6.1-0.9-12.4-1.1-18.9C155.7,190.9,162.3,191,169,191L169,191z
	 M169.4,211.9c0.2,6.8,0.5,13.4,0.9,19.7c-5.9-0.3-11.7-0.8-17.3-1.6c-1-6.1-1.8-12.5-2.4-19.2C156.6,211.4,162.9,211.8,169.4,211.9
	L169.4,211.9z M170.7,211.9c3.1,0.1,6.2,0.1,9.4,0.1c3.2,0,6.3,0,9.4-0.1c-0.2,7-0.5,13.6-0.9,19.7c-2.8,0.1-5.6,0.2-8.5,0.2
	s-5.7-0.1-8.5-0.2C171.1,225.6,170.8,219,170.7,211.9L170.7,211.9z M190.7,211.9c6.5-0.2,12.8-0.6,18.9-1.1
	c-0.6,6.7-1.4,13.2-2.4,19.2c-5.6,0.8-11.4,1.3-17.3,1.6C190.1,225.3,190.4,218.7,190.7,211.9L190.7,211.9z M190.7,210.7
	c0.2-6.4,0.3-13,0.4-19.6c6.6-0.1,13.2-0.2,19.6-0.4c-0.2,6.5-0.6,12.9-1.1,18.9C203.5,210.1,197.2,210.5,190.7,210.7L190.7,210.7z
	 M212,190.6c6.8-0.2,13.4-0.5,19.7-0.9c-0.3,5.9-0.8,11.7-1.6,17.3c-6.1,1-12.5,1.8-19.2,2.4C211.4,203.4,211.8,197.1,212,190.6
	L212,190.6z M232.9,189.7c5.3-0.3,10.3-0.7,15.1-1.1c-0.3,5.2-0.8,10.2-1.5,15.2c-4.7,1.1-9.7,2.2-15,3.1
	C232.1,201.3,232.6,195.6,232.9,189.7L232.9,189.7z M232.9,170.3c-0.3-5.9-0.8-11.6-1.5-17.2c5.3,0.9,10.4,1.9,15,3.1
	c0.8,4.9,1.3,10,1.5,15.2C243.2,171,238.2,170.6,232.9,170.3L232.9,170.3z M231.2,151.9c-0.8-6.1-2-12.1-3.4-18
	c5,1.3,10,2.8,14.9,4.6c1.5,5.4,2.7,10.9,3.6,16.5C241.5,153.9,236.5,152.8,231.2,151.9L231.2,151.9z M229.9,151.7
	c-6.1-1-12.5-1.8-19.2-2.4c-0.6-6.7-1.4-13.1-2.4-19.2c6.1,0.8,12.2,2,18.1,3.5C227.9,139.5,229.1,145.6,229.9,151.7L229.9,151.7z
	 M208.1,128.8c-0.9-5.3-1.9-10.3-3.1-15c5.6,0.9,11.1,2.1,16.5,3.6c1.8,4.9,3.4,9.8,4.6,14.8C220.1,130.8,214.1,129.6,208.1,128.8
	L208.1,128.8z M206.9,128.6c-5.6-0.7-11.3-1.2-17.2-1.5c-0.3-5.3-0.7-10.3-1.1-15.1c5.2,0.3,10.2,0.8,15.2,1.5
	C204.9,118.3,206,123.3,206.9,128.6L206.9,128.6z M188.4,127c-2.8-0.1-5.6-0.2-8.4-0.2s-5.6,0.1-8.4,0.2c0.3-5.4,0.7-10.4,1.1-15.1
	c2.4-0.1,4.9-0.2,7.4-0.2s4.9,0.1,7.4,0.2C187.8,116.6,188.1,121.7,188.4,127L188.4,127z M170.3,127.1c-5.9,0.3-11.6,0.8-17.2,1.5
	c0.9-5.3,1.9-10.4,3.1-15c4.9-0.8,10-1.3,15.2-1.5C171,116.8,170.6,121.8,170.3,127.1L170.3,127.1z M151.9,128.8
	c-6.1,0.8-12.1,2-18,3.4c1.3-5,2.8-10,4.6-14.8c5.4-1.5,10.9-2.7,16.5-3.6C153.9,118.5,152.8,123.5,151.9,128.8L151.9,128.8z
	 M151.7,130c-1,6.1-1.8,12.5-2.4,19.2c-6.7,0.6-13.1,1.4-19.2,2.4c0.8-6.1,2-12.2,3.5-18.1C139.5,132.1,145.6,130.9,151.7,130
	L151.7,130z M149.1,150.5c-0.5,6.1-0.9,12.4-1.1,18.9c-6.8,0.2-13.4,0.5-19.7,0.9c0.3-5.9,0.8-11.7,1.6-17.3
	C136,151.9,142.4,151.1,149.1,150.5L149.1,150.5z M148,190.6c0.2,6.5,0.6,12.8,1.1,18.9c-6.7-0.6-13.2-1.4-19.2-2.4
	c-0.8-5.6-1.3-11.4-1.6-17.3C134.7,190.1,141.3,190.4,148,190.6z M149.2,210.7c0.6,6.7,1.4,13.1,2.4,19.2c-6.1-0.8-12.2-2-18.1-3.5
	c-1.5-6-2.6-12-3.5-18.1C136.1,209.3,142.6,210.1,149.2,210.7L149.2,210.7z M151.9,231.2c0.8,4.9,1.8,9.5,2.8,13.8
	c-5.6-0.9-11.2-2.1-16.6-3.7c-1.6-4.3-2.9-8.8-4.2-13.5C139.8,229.2,145.8,230.4,151.9,231.2L151.9,231.2z M153.1,231.4
	c5.6,0.7,11.3,1.2,17.2,1.5c0.3,4.9,0.6,9.5,1,13.9c-5.2-0.3-10.4-0.8-15.4-1.6C154.9,240.9,154,236.2,153.1,231.4L153.1,231.4z
	 M171.5,232.9c2.8,0.1,5.6,0.2,8.4,0.2s5.7-0.1,8.4-0.2c-0.3,4.9-0.6,9.6-1,13.9c-2.5,0.1-5,0.2-7.5,0.2s-5-0.1-7.5-0.2
	C172.2,242.5,171.9,237.9,171.5,232.9L171.5,232.9z M189.7,232.9c5.9-0.3,11.6-0.8,17.2-1.5c-0.8,4.9-1.8,9.5-2.8,13.8
	c-5,0.8-10.1,1.3-15.4,1.6C189.1,242.4,189.4,237.7,189.7,232.9L189.7,232.9z M208,231.2c6.1-0.8,12.1-2,18-3.4
	c-1.2,4.7-2.6,9.3-4.2,13.5c-5.5,1.6-11,2.8-16.6,3.7C206.3,240.7,207.3,236.1,208,231.2L208,231.2z M208.3,229.9
	c1-6.1,1.8-12.5,2.4-19.2c6.7-0.6,13.1-1.4,19.2-2.4c-0.8,6.1-2,12.2-3.5,18.1C220.4,227.9,214.4,229.1,208.3,229.9L208.3,229.9z
	 M231.2,208.1c5.3-0.9,10.3-1.9,15-3.1c-0.9,5.6-2.1,11.1-3.6,16.5c-4.9,1.8-9.8,3.4-14.9,4.6C229.2,220.2,230.4,214.1,231.2,208.1
	L231.2,208.1z M247.5,204.7c4.8-1.2,9.6-2.7,14.2-4.4c-0.7,4.6-1.7,9.2-2.9,13.6c-4.7,2.7-9.7,5-14.8,7
	C245.5,215.6,246.7,210.2,247.5,204.7L247.5,204.7z M247.7,203.5c0.7-4.9,1.2-9.9,1.5-14.9c5-0.4,9.7-0.9,13.9-1.5
	c-0.2,4.1-0.6,8.1-1.2,12.1C257.3,200.8,252.5,202.3,247.7,203.5L247.7,203.5z M249.2,171.5c-0.3-5.1-0.8-10.1-1.5-14.9
	c4.8,1.2,9.6,2.7,14.2,4.4c0.6,3.9,1,8,1.2,12.1C259,172.4,254.3,171.9,249.2,171.5L249.2,171.5z M247.5,155.3
	c-0.9-5.5-2-10.9-3.5-16.2c5.1,2,10,4.3,14.8,7c1.2,4.5,2.2,9,2.9,13.6C257.1,158,252.4,156.5,247.5,155.3L247.5,155.3z
	 M243.6,137.6c-1.4-4.8-3-9.5-4.9-14.1c5.2,2.3,10.3,5,15.1,8.1c1.7,4.2,3.2,8.4,4.5,12.7C253.6,141.8,248.7,139.6,243.6,137.6
	L243.6,137.6z M242.2,137.1c-4.8-1.8-9.8-3.3-14.8-4.6c-1.3-5-2.8-9.9-4.6-14.8c4.8,1.4,9.6,3.1,14.2,5.1
	C239.1,127.5,240.8,132.3,242.2,137.1L242.2,137.1z M222.3,116.3c-1.9-5.1-4.2-10-6.8-14.7c4.3,1.3,8.6,2.8,12.7,4.5
	c3.1,4.8,5.8,9.9,8.1,15.1C231.8,119.3,227.1,117.7,222.3,116.3L222.3,116.3z M220.9,115.9c-5.3-1.5-10.8-2.6-16.2-3.5
	c-1.2-4.8-2.7-9.6-4.4-14.2c4.6,0.7,9.2,1.7,13.6,2.9C216.6,105.9,219,110.8,220.9,115.9L220.9,115.9z M203.4,112.3
	c-4.9-0.7-9.9-1.2-14.9-1.5c-0.4-5-0.9-9.7-1.5-13.9c4.1,0.2,8.1,0.6,12.1,1.2C200.8,102.7,202.3,107.4,203.4,112.3L203.4,112.3z
	 M187.2,110.7c-2.4-0.1-4.8-0.2-7.3-0.2s-4.9,0.1-7.3,0.2c0.4-5.2,1-9.8,1.5-14c1.9-0.1,3.8-0.1,5.8-0.1s3.9,0.1,5.8,0.1
	C186.3,100.9,186.8,105.6,187.2,110.7L187.2,110.7z M171.4,110.8c-5.1,0.3-10.1,0.8-14.9,1.5c1.2-4.8,2.7-9.6,4.4-14.3
	c3.9-0.6,8-1,12.1-1.2C172.4,101,171.9,105.7,171.4,110.8L171.4,110.8z M155.3,112.4c-5.5,0.9-10.9,2-16.2,3.5c2-5.1,4.3-10,7-14.8
	c4.5-1.2,9-2.2,13.6-2.9C158,102.9,156.5,107.6,155.3,112.4L155.3,112.4z M137.6,116.3c-4.3,1.2-8.5,2.7-12.7,4.3
	c2.4-5.3,5.2-10.4,8.3-15.2c3.6-1.4,7.3-2.7,11.1-3.8C141.8,106.3,139.6,111.3,137.6,116.3L137.6,116.3z M132.2,133.9
	c-1.4,5.9-2.6,11.9-3.4,18c-4.9,0.8-9.5,1.8-13.8,2.8c0.9-5.6,2.1-11.2,3.7-16.6C123,136.5,127.5,135.1,132.2,133.9L132.2,133.9z
	 M128.6,153.1c-0.7,5.6-1.2,11.3-1.5,17.2c-4.9,0.3-9.5,0.6-13.9,1c0.3-5.2,0.8-10.4,1.6-15.4C119.1,154.9,123.8,154,128.6,153.1
	L128.6,153.1z M127.1,189.7c0.3,5.9,0.8,11.6,1.5,17.2c-4.9-0.8-9.5-1.8-13.8-2.8c-0.8-5-1.3-10.1-1.6-15.4
	C117.6,189.1,122.3,189.4,127.1,189.7L127.1,189.7z M128.8,208.1c0.8,6.1,2,12.1,3.4,18c-4.7-1.2-9.3-2.6-13.5-4.2
	c-1.6-5.5-2.8-11-3.7-16.6C119.3,206.3,123.9,207.3,128.8,208.1L128.8,208.1z M137.1,242.3c2,5.5,4.5,10.9,7.3,16
	c-3.8-1.1-7.5-2.4-11.1-3.9c-3.5-5.3-6.4-10.8-8.9-16.6C128.5,239.6,132.8,241.1,137.1,242.3L137.1,242.3z M138.5,242.7
	c5.4,1.5,10.9,2.7,16.4,3.6c1.3,5.2,2.8,10.4,4.7,15.4c-4.6-0.7-9.2-1.7-13.7-3C143.1,253.7,140.6,248.3,138.5,242.7L138.5,242.7z
	 M156.2,246.5c4.9,0.7,10,1.3,15.1,1.5c0.5,5.5,1,10.6,1.6,15.1c-4.1-0.2-8.1-0.6-12-1.2C159.1,256.9,157.5,251.8,156.2,246.5
	L156.2,246.5z M172.6,248.1c2.4,0.1,4.9,0.2,7.4,0.2s4.9-0.1,7.4-0.2c-0.5,5.6-1,10.7-1.6,15.1c-1.9,0.1-3.8,0.1-5.8,0.1
	s-3.9-0.1-5.8-0.1C173.7,258.8,173.1,253.7,172.6,248.1L172.6,248.1z M188.6,248c5.2-0.3,10.2-0.8,15.1-1.5
	c-1.3,5.2-2.8,10.4-4.7,15.4c-3.9,0.6-7.9,1-12,1.2C187.6,258.6,188.2,253.6,188.6,248L188.6,248z M205,246.3
	c5.5-0.9,11-2.1,16.4-3.6c-2.1,5.5-4.5,10.9-7.5,16.1c-4.5,1.2-9.1,2.2-13.7,3C202.1,256.7,203.7,251.6,205,246.3L205,246.3z
	 M222.8,242.3c4.8-1.4,9.6-3.1,14.2-5c-2.4,5.8-5.4,11.3-8.8,16.6c-4.2,1.7-8.4,3.2-12.7,4.5C218.4,253.2,220.8,247.9,222.8,242.3
	L222.8,242.3z M223.3,240.9c1.5-4.3,2.9-8.8,4.1-13.5c5-1.3,9.9-2.8,14.8-4.6c-1.3,4.3-2.8,8.6-4.5,12.8
	C233,237.7,228.2,239.5,223.3,240.9L223.3,240.9z M243.6,222.3c5.1-1.9,10-4.2,14.7-6.8c-1.1,3.8-2.4,7.5-3.8,11.1
	c-4.8,3.2-9.9,6-15.2,8.3C241,230.8,242.4,226.6,243.6,222.3L243.6,222.3z M260.4,213c1.1-4.4,2.1-8.8,2.7-13.2
	c3.3-1.3,6.6-2.8,9.7-4.5c-0.4,3.4-1,6.7-1.8,10C267.8,208.1,264.2,210.7,260.4,213L260.4,213z M263.3,198.5
	c0.5-3.8,0.9-7.7,1.1-11.7c3.5-0.5,6.6-1,9.3-1.5c-0.1,2.9-0.4,5.8-0.7,8.6C269.9,195.7,266.6,197.3,263.3,198.5L263.3,198.5z
	 M264.4,173.1c-0.2-4-0.6-7.9-1.1-11.7c3.4,1.3,6.6,2.8,9.7,4.6c0.3,2.8,0.6,5.7,0.7,8.6C271,174.1,267.9,173.6,264.4,173.1
	L264.4,173.1z M263.1,160.2c-0.7-4.5-1.6-8.9-2.7-13.2c3.8,2.3,7.4,4.8,10.7,7.8c0.7,3.3,1.3,6.6,1.8,10
	C269.7,163,266.5,161.5,263.1,160.2L263.1,160.2z M259.9,145.3c-1.2-4.2-2.6-8.3-4.2-12.4c4.3,2.9,8.3,6.2,12,9.9
	c1.1,3.2,2.1,6.5,2.9,9.9C267.3,149.9,263.7,147.5,259.9,145.3L259.9,145.3z M253,129.7c-4.8-3-9.8-5.6-15-7.8
	c-2.2-5.2-4.8-10.2-7.8-15c5.1,2.3,10.1,4.9,14.8,7.9C248.1,119.6,250.7,124.6,253,129.7z M213,99.6c-4.4-1.1-8.8-2.1-13.2-2.7
	c-1.3-3.3-2.8-6.6-4.5-9.7c3.4,0.4,6.7,1,10,1.8C208.2,92.2,210.8,95.8,213,99.6z M198.6,96.7c-3.8-0.5-7.7-0.9-11.7-1.1
	c-0.5-3.5-1-6.6-1.5-9.3c2.9,0.1,5.8,0.4,8.6,0.7C195.7,90.1,197.3,93.4,198.6,96.7L198.6,96.7z M185.6,95.5
	c-1.9-0.1-3.7-0.1-5.6-0.1s-3.8,0.1-5.6,0.1c0.5-3.6,1-6.7,1.5-9.3c1.4,0,2.7-0.1,4.1-0.1s2.8,0,4.1,0.1
	C184.6,88.8,185.1,92,185.6,95.5L185.6,95.5z M173.1,95.6c-4,0.2-7.9,0.6-11.7,1.1c1.3-3.3,2.9-6.6,4.6-9.7c2.8-0.3,5.7-0.6,8.6-0.7
	C174.1,89,173.6,92.1,173.1,95.6L173.1,95.6z M160.2,96.9c-4.4,0.7-8.8,1.6-13.2,2.7c2.3-3.8,4.8-7.4,7.8-10.7
	c3.3-0.7,6.6-1.3,10-1.8C163,90.3,161.5,93.5,160.2,96.9L160.2,96.9z M131.3,106.3c-3,4.8-5.7,9.8-8,15c-5.6,2.4-11.1,5.2-16.3,8.4
	c2.3-5.1,4.9-10.1,7.9-14.8C120.1,111.6,125.6,108.7,131.3,106.3L131.3,106.3z M92.3,142.8c3.7-3.7,7.7-7,12-9.9
	c-1.6,4-3,8.2-4.2,12.4c-3.8,2.2-7.3,4.6-10.7,7.4C90.2,149.4,91.2,146.1,92.3,142.8L92.3,142.8z M99.6,147
	c-1.1,4.4-2.1,8.8-2.7,13.2c-3.3,1.3-6.6,2.8-9.7,4.5c0.4-3.4,1-6.7,1.8-10C92.2,151.8,95.8,149.2,99.6,147L99.6,147z M101.2,146
	c5.1-2.9,10.5-5.4,16.1-7.5c-1.5,5.4-2.7,10.9-3.6,16.4c-5.2,1.3-10.4,2.8-15.4,4.7C98.9,155.1,99.9,150.5,101.2,146L101.2,146z
	 M113.5,156.2c-0.7,4.9-1.3,10-1.5,15.1c-5.5,0.5-10.6,1-15.1,1.6c0.2-4.1,0.6-8.1,1.2-12C103.1,159.1,108.2,157.5,113.5,156.2
	L113.5,156.2z M111.9,188.6c0.3,5.2,0.8,10.2,1.5,15.1c-5.2-1.3-10.4-2.8-15.4-4.7c-0.6-3.9-1-7.9-1.2-12
	C101.4,187.6,106.4,188.2,111.9,188.6L111.9,188.6z M113.7,205c0.9,5.5,2.1,11,3.6,16.4c-5.5-2.1-10.9-4.5-16.1-7.5
	c-1.2-4.5-2.2-9.1-2.9-13.7C103.3,202.2,108.4,203.7,113.7,205L113.7,205z M99.6,213c-3.8-2.3-7.4-4.8-10.7-7.8
	c-0.7-3.3-1.3-6.6-1.8-10c3.1,1.7,6.4,3.2,9.7,4.5C97.6,204.2,98.5,208.6,99.6,213z M100.1,214.7c1,3.7,2.2,7.3,3.6,10.8
	c-4.3-2.9-8.3-6.3-11.9-10c-0.9-2.7-1.6-5.4-2.3-8.2C92.7,210,96.3,212.5,100.1,214.7L100.1,214.7z M89.7,213.3
	c-5.2-5.6-9.2-12.2-11.7-19.4c2.5,4.5,5.8,8.6,9.8,12C88.4,208.4,89,210.9,89.7,213.3L89.7,213.3z M106.3,228.6
	c5.2,3.3,10.8,6.2,16.5,8.6c2.4,5.7,5.3,11.2,8.6,16.5c-5.7-2.4-11.2-5.3-16.4-8.6C111.6,239.9,108.7,234.4,106.3,228.6L106.3,228.6
	z M147,260.4c4.4,1.1,8.8,2.1,13.2,2.7c1.3,3.3,2.8,6.6,4.5,9.7c-3.4-0.5-6.7-1-10-1.8C151.8,267.7,149.2,264.2,147,260.4L147,260.4
	z M161.4,263.3c3.8,0.5,7.7,0.9,11.7,1.1c0.5,3.5,1,6.6,1.5,9.3c-2.9-0.1-5.8-0.4-8.6-0.7C164.2,269.9,162.7,266.6,161.4,263.3
	L161.4,263.3z M174.4,264.5c1.9,0.1,3.7,0.1,5.6,0.1s3.8,0,5.6-0.1c-0.5,3.5-1,6.7-1.5,9.3c-1.4,0-2.7,0.1-4.1,0.1s-2.8,0-4.1-0.1
	C175.4,271.1,174.9,268,174.4,264.5L174.4,264.5z M186.9,264.4c4-0.2,7.9-0.6,11.7-1.1c-1.3,3.4-2.8,6.6-4.6,9.7
	c-2.8,0.3-5.7,0.6-8.6,0.7C185.9,271,186.4,267.9,186.9,264.4L186.9,264.4z M199.8,263.1c4.5-0.7,8.9-1.6,13.2-2.7
	c-2.3,3.8-4.8,7.4-7.8,10.7c-3.3,0.7-6.6,1.3-10,1.8C197,269.7,198.5,266.5,199.8,263.1L199.8,263.1z M230.3,253
	c3.2-5.2,6-10.7,8.4-16.4c5.2-2.3,10.2-5,15-8c-2.4,5.7-5.3,11.2-8.6,16.4C240.4,248.1,235.4,250.7,230.3,253L230.3,253z
	 M255.6,227.4c4.2-2.8,8.2-6,11.8-9.4c-1.7,4.9-3.8,9.7-6.2,14.3c-4.2,4.1-8.8,7.9-13.6,11.2C250.7,238.3,253.3,233,255.6,227.4
	L255.6,227.4z M269.4,216c5.5-5.6,9.9-12.1,12.9-19.4c-3.3,12.3-9.5,23.5-18.2,32.7C266.1,225,267.9,220.6,269.4,216z M272.7,203.8
	c0.7-3.1,1.2-6.2,1.5-9.3c4.3-2.6,7.5-5.3,9.4-8.3C282.1,192.5,278.3,198.4,272.7,203.8L272.7,203.8z M274.4,193.2
	c0.3-2.7,0.5-5.4,0.6-8.1c4.3-0.9,7.4-2,9.1-3.1C283.3,186,279.9,189.8,274.4,193.2L274.4,193.2z M275.1,183.9
	c0-1.3,0.1-2.6,0.1-3.9s0-2.6-0.1-3.9c5.9,1.2,9.2,2.5,9.3,3.8c0,0.1,0,0.1,0,0.2C284.2,181.4,280.9,182.6,275.1,183.9L275.1,183.9z
	 M275,174.9c-0.1-2.7-0.3-5.4-0.6-8.1c5.5,3.4,8.9,7.2,9.8,11.2C282.4,176.9,279.3,175.9,275,174.9L275,174.9z M274.2,165.4
	c-0.4-3.2-0.9-6.3-1.5-9.3c5.6,5.4,9.4,11.3,10.9,17.6C281.7,170.9,278.5,168.1,274.2,165.4L274.2,165.4z M272.2,154.1
	c-0.7-3.1-1.6-6.2-2.5-9.2c6.2,6.5,10.7,14.4,13.1,23C280.3,162.6,276.6,158,272.2,154.1L272.2,154.1z M268.8,142.1
	c-1.4-3.9-2.9-7.7-4.7-11.5c7.8,8.3,13.7,18.3,17.2,29.2C278.2,153.2,274,147.3,268.8,142.1L268.8,142.1z M262.2,127
	c-2.3-4.5-5-8.7-7.9-12.8c11.3,10.2,20,23,25.2,37.3C275.3,142.4,269.4,134,262.2,127z M259.2,124.2c-4.1-3.7-8.5-7.1-13.2-10.2
	c-3-4.7-6.4-9.1-10.1-13.2c4.9,2.8,9.5,6,13.9,9.5C253.3,114.6,256.5,119.2,259.2,124.2L259.2,124.2z M233,97.8
	c-7-7.2-15.4-13-24.5-17.2c14.3,5.2,27.1,13.8,37.3,25.2C241.7,102.8,237.5,100.1,233,97.8z M229.2,95.9c-3.7-1.8-7.6-3.4-11.5-4.7
	c-5.1-5.2-11.1-9.4-17.7-12.5C210.9,82.2,220.9,88.1,229.2,95.9L229.2,95.9z M215,90.3c-3-1-6.1-1.8-9.2-2.5
	c-3.8-4.4-8.5-8-13.7-10.6C200.7,79.6,208.6,84.1,215,90.3L215,90.3z M203.8,87.3c-3.1-0.7-6.2-1.2-9.3-1.5
	c-2.6-4.3-5.3-7.5-8.3-9.4C192.5,77.9,198.4,81.7,203.8,87.3L203.8,87.3z M193.1,85.6c-2.7-0.3-5.4-0.5-8.1-0.6
	c-0.9-4.3-2-7.4-3.1-9.2C186,76.7,189.8,80.1,193.1,85.6L193.1,85.6z M183.8,84.9c-1.3,0-2.6-0.1-3.9-0.1s-2.6,0-3.9,0.1
	c1.2-5.9,2.5-9.2,3.8-9.3h0.2C181.3,75.8,182.6,79,183.8,84.9L183.8,84.9z M174.8,84.9c-2.7,0.1-5.4,0.3-8.1,0.6
	c3.4-5.5,7.2-8.9,11.2-9.8C176.9,77.6,175.9,80.7,174.8,84.9L174.8,84.9z M165.4,85.7c-3.2,0.4-6.3,0.9-9.3,1.5
	c5.4-5.6,11.3-9.4,17.6-10.9C170.9,78.3,168.1,81.5,165.4,85.7L165.4,85.7z M154,87.7c-2.5,0.6-5,1.2-7.4,2
	c5.6-5.2,12.3-9.2,19.6-11.7c-4.5,2.5-8.6,5.9-12,9.8L154,87.7z M144,90.6c-4.6,1.5-9,3.3-13.3,5.3c9.2-8.7,20.5-15,32.7-18.2
	C156.1,80.7,149.6,85.1,144,90.6z M127,97.8c-4.5,2.3-8.7,5-12.8,7.9c10.2-11.3,23-20,37.3-25.2C142.4,84.7,134,90.6,127,97.8z
	 M124.2,100.8c-3.8,4.1-7.2,8.5-10.2,13.2c-4.7,3-9.1,6.4-13.2,10.1c2.8-4.9,6-9.5,9.5-13.9C114.6,106.7,119.2,103.5,124.2,100.8
	L124.2,100.8z M97.8,127c-7.2,7-13,15.4-17.2,24.5c5.2-14.3,13.8-27.1,25.2-37.3C102.8,118.3,100.1,122.5,97.8,127z M95.9,130.8
	c-1.8,3.7-3.4,7.6-4.7,11.5c-5.2,5.1-9.4,11.1-12.5,17.7C82.2,149.1,88.1,139.1,95.9,130.8L95.9,130.8z M90.3,145
	c-1,3-1.8,6.1-2.5,9.2c-4.4,3.8-8,8.5-10.6,13.7C79.6,159.3,84.1,151.4,90.3,145L90.3,145z M87.3,156.2c-0.7,3.1-1.2,6.2-1.5,9.3
	c-4.3,2.6-7.5,5.3-9.4,8.3C77.9,167.5,81.7,161.6,87.3,156.2L87.3,156.2z M85.6,166.9c-0.3,2.7-0.5,5.4-0.6,8.1
	c-4.3,0.9-7.4,2-9.1,3.1C76.7,174,80.1,170.2,85.6,166.9L85.6,166.9z M87,166c3.1-1.8,6.4-3.3,9.7-4.6c-0.5,3.8-0.9,7.7-1.1,11.7
	c-3.5,0.5-6.6,1-9.3,1.5C86.4,171.7,86.6,168.9,87,166z M95.6,186.9c0.2,4,0.6,7.9,1.1,11.7c-3.4-1.3-6.6-2.8-9.7-4.6
	c-0.3-2.8-0.6-5.7-0.7-8.6C89,185.9,92.1,186.4,95.6,186.9L95.6,186.9z M85.6,193.2c-5.5-3.4-8.9-7.2-9.8-11.2
	c1.7,1.1,4.9,2.2,9.1,3.1C85.1,187.8,85.3,190.5,85.6,193.2L85.6,193.2z M85.8,194.5c0.4,3.2,0.9,6.3,1.5,9.3
	c-5.6-5.4-9.4-11.3-10.9-17.6C78.3,189.1,81.5,191.9,85.8,194.5L85.8,194.5z M90.6,216c1.5,4.6,3.3,9,5.4,13.3
	c-8.7-9.2-15-20.5-18.2-32.7C80.7,203.9,85.1,210.4,90.6,216L90.6,216z M97.8,233c2.3,4.5,5,8.7,7.9,12.8
	c-11.3-10.2-20-23-25.2-37.3C84.8,217.6,90.6,226,97.8,233L97.8,233z M100.8,235.8c4.1,3.7,8.5,7.1,13.2,10.2
	c3,4.7,6.4,9.1,10.1,13.2c-4.9-2.8-9.5-6-13.9-9.5C106.7,245.4,103.5,240.8,100.8,235.8L100.8,235.8z M127,262.2
	c7,7.2,15.4,13,24.5,17.2c-14.3-5.2-27.1-13.8-37.3-25.2C118.3,257.2,122.5,259.9,127,262.2z M130.7,264.1c4.3,2.1,8.8,3.9,13.3,5.4
	c5.6,5.5,12.1,9.9,19.4,12.9C151.2,279,139.9,272.8,130.7,264.1L130.7,264.1z M146.7,270.3c2.4,0.7,4.9,1.4,7.4,2
	c3.4,3.9,7.5,7.2,12,9.8C158.9,279.5,152.3,275.5,146.7,270.3L146.7,270.3z M156.2,272.7c3.1,0.7,6.2,1.2,9.3,1.5
	c2.6,4.3,5.3,7.5,8.3,9.4C167.5,282.1,161.6,278.3,156.2,272.7L156.2,272.7z M166.8,274.4c2.7,0.3,5.4,0.5,8.1,0.6
	c0.9,4.3,2,7.4,3.1,9.1C174,283.3,170.2,279.9,166.8,274.4L166.8,274.4z M176.1,275.1c1.3,0,2.6,0.1,3.9,0.1s2.6,0,3.9-0.1
	c-1.2,5.9-2.5,9.2-3.8,9.3h-0.2C178.6,284.2,177.4,280.9,176.1,275.1L176.1,275.1z M185.1,275c2.7-0.1,5.4-0.3,8.1-0.6
	c-3.4,5.5-7.2,8.9-11.2,9.8C183.1,282.4,184.1,279.3,185.1,275L185.1,275z M194.6,274.2c3.2-0.4,6.3-0.9,9.3-1.5
	c-5.4,5.6-11.3,9.4-17.6,11C189.1,281.7,191.9,278.5,194.6,274.2L194.6,274.2z M205.9,272.2c3.1-0.7,6.2-1.6,9.2-2.5
	c-6.5,6.2-14.4,10.7-23,13.1C197.4,280.3,202,276.7,205.9,272.2L205.9,272.2z M217.9,268.8c3.9-1.4,7.7-2.9,11.5-4.7
	c-8.3,7.8-18.3,13.7-29.2,17.2C206.8,278.2,212.7,274,217.9,268.8L217.9,268.8z M233.1,262.2c4.5-2.3,8.7-5,12.8-7.9
	c-10.2,11.3-23,20-37.3,25.2c9.1-4.2,17.4-10,24.4-17.2L233.1,262.2z M236,259.2c3.7-4.1,7.1-8.5,10-13.2c4.7-3,9.1-6.4,13.2-10.1
	c-2.8,4.9-6,9.5-9.5,13.9c-4.4,3.5-9,6.7-13.9,9.5L236,259.2z M262.2,233c7.2-7,13-15.4,17.2-24.5c-5.2,14.3-13.8,27.1-25.2,37.3
	C257.2,241.7,259.9,237.5,262.2,233z M84.9,176.1c0,1.3-0.1,2.6-0.1,3.9s0,2.6,0.1,3.9c-5.9-1.2-9.1-2.5-9.3-3.8c0-0.1,0-0.1,0-0.2
	C75.8,178.7,79,177.4,84.9,176.1L84.9,176.1z"/>
<path class="st4" d="M0,135h360v90H0V135z"/>
<path class="st5" d="M84.3,189.8c0.7,1.4,2.1,2.3,3.6,2.3c2.7,0,3.9-2.1,3.9-8.6v-19.8h5.5v19.8c0,9.7-3.5,13.4-9.1,13.4
	c-3.8,0-6.6-1.5-8.4-4.6L84.3,189.8z"/>
<path class="st5" d="M122,171.6c-1.2-2.2-2.6-3.5-5.2-3.5s-3.9,1.5-3.9,4.3c0,3.1,1.7,4.4,5.3,5.4c5.6,1.6,8.2,4.1,8.2,9.8
	c0,4.9-2.9,9.4-9.3,9.4c-4.6,0-8-1.7-10.3-5.4l4.2-2.9c1.6,2.3,2.9,3.5,5.8,3.5c3.2,0,4.1-2,4.1-4.4c0-2.6-1-4.2-5.4-5.5
	c-5.2-1.5-8-4.4-8-9.9c0-4.9,2.9-9.1,9.3-9.1c4.3,0,7.4,1.7,9.4,5.4L122,171.6z"/>
<path class="st5" d="M156.2,184.5v12h-5.5v-32.8h9.6c6.2,0,10,3.6,10,10.4s-3.8,10.4-10,10.4L156.2,184.5L156.2,184.5z M159.5,179.7
	c3.8,0,5.3-1.9,5.3-5.7c0-3.6-1.5-5.6-5.3-5.6h-3.3v11.3H159.5z"/>
<path class="st5" d="M174.2,196.4l9.2-32.8h5.4l9.2,32.8h-5.8l-1.7-6.8h-8.8l-1.7,6.8H174.2L174.2,196.4z M182.8,184.9h6.4
	l-3.1-12.9L182.8,184.9z"/>
<path class="st5" d="M220.3,196.4l-4.8-13.3h-4.1v13.3h-5.5v-32.8h9.6c6.2,0,10,3.3,10,9.8c0,4.5-1.7,7.4-4.6,8.7l5.6,14.2H220.3
	L220.3,196.4z M214.9,178.4c3.3,0,5-1.2,5-4.9s-1.7-5-5-5h-3.5v10L214.9,178.4L214.9,178.4z"/>
<path class="st5" d="M252.1,163.7v4.8h-7.4v28h-5.5v-28h-7.4v-4.8H252.1L252.1,163.7z"/>
<path class="st5" d="M257.5,163.7h6.1l4.9,12.9l4.9-12.9h6.1l-8.3,19.1v13.7h-5.5v-13.7L257.5,163.7z"/>
</svg>
