<?xml version="1.0" encoding="utf-8"?>
<!-- Generator: Adobe Illustrator 21.1.0, SVG Export Plug-In . SVG Version: 6.00 Build 0)  -->
<svg version="1.1" id="Layer_1" xmlns="http://www.w3.org/2000/svg" xmlns:xlink="http://www.w3.org/1999/xlink" x="0px" y="0px"
	 viewBox="0 0 360 360" style="enable-background:new 0 0 360 360;" xml:space="preserve">
<style type="text/css">
	.st0{fill:url(#SVGID_1_);}
	.st1{fill:url(#SVGID_2_);}
	.st2{fill:url(#SVGID_3_);}
	.st3{fill:url(#SVGID_4_);}
	.st4{fill:url(#SVGID_5_);}
	.st5{fill:url(#SVGID_6_);}
	.st6{fill:#121921;}
	.st7{fill:#FFFFFF;}
</style>
<title>master-cover-art</title>
<g id="Layer_2">
	<g id="Layer_1-2">
		
			<linearGradient id="SVGID_1_" gradientUnits="userSpaceOnUse" x1="67.7994" y1="69.7994" x2="292.2006" y2="294.2006" gradientTransform="matrix(1 0 0 -1 0 362)">
			<stop  offset="0" style="stop-color:#8FCFAC"/>
			<stop  offset="1" style="stop-color:#61C192"/>
		</linearGradient>
		<path class="st0" d="M180,338.8c-87.5,0-158.8-71.2-158.8-158.8S92.5,21.2,180,21.2S338.8,92.5,338.8,180S267.5,338.8,180,338.8z
			 M180,22.5C93.2,22.5,22.5,93.2,22.5,180S93.2,337.5,180,337.5S337.5,266.9,337.5,180S266.9,22.5,180,22.5z"/>
		
			<linearGradient id="SVGID_2_" gradientUnits="userSpaceOnUse" x1="142.2812" y1="144.2988" x2="217.7012" y2="219.7188" gradientTransform="matrix(1 0 0 -1 0 362)">
			<stop  offset="0" style="stop-color:#8FCFAC"/>
			<stop  offset="1" style="stop-color:#61C192"/>
		</linearGradient>
		<path class="st1" d="M180,233.3c-29.5,0-53.3-23.9-53.3-53.3s23.9-53.3,53.3-53.3s53.3,23.9,53.3,53.3l0,0
			C233.3,209.4,209.4,233.3,180,233.3z M180,127.9c-28.8,0-52.1,23.3-52.1,52.1s23.3,52.1,52.1,52.1c28.8,0,52.1-23.3,52.1-52.1
			C232,151.3,208.7,128,180,127.9L180,127.9z"/>
		
			<linearGradient id="SVGID_3_" gradientUnits="userSpaceOnUse" x1="127.3654" y1="129.3888" x2="232.6112" y2="234.6346" gradientTransform="matrix(1 0 0 -1 0 362)">
			<stop  offset="0" style="stop-color:#8FCFAC"/>
			<stop  offset="1" style="stop-color:#61C192"/>
		</linearGradient>
		<path class="st2" d="M180,254.4c-41.1,0-74.4-33.3-74.4-74.4s33.3-74.4,74.4-74.4s74.4,33.3,74.4,74.4
			C254.4,221.1,221.1,254.4,180,254.4z M180,106.8c-40.4,0-73.2,32.8-73.2,73.2s32.8,73.2,73.2,73.2s73.2-32.8,73.2-73.2
			c0,0,0,0,0,0C253.1,139.6,220.4,106.9,180,106.8L180,106.8z"/>
		
			<linearGradient id="SVGID_4_" gradientUnits="userSpaceOnUse" x1="112.4552" y1="114.4874" x2="247.5126" y2="249.5448" gradientTransform="matrix(1 0 0 -1 0 362)">
			<stop  offset="0" style="stop-color:#8FCFAC"/>
			<stop  offset="1" style="stop-color:#61C192"/>
		</linearGradient>
		<path class="st3" d="M180,275.5c-52.7,0-95.5-42.8-95.5-95.5s42.8-95.5,95.5-95.5s95.5,42.8,95.5,95.5
			C275.4,232.7,232.7,275.4,180,275.5z M180,85.8c-52.1,0-94.2,42.2-94.2,94.2s42.2,94.2,94.2,94.2s94.2-42.2,94.2-94.2
			C274.2,128,232,85.8,180,85.8z"/>
		
			<linearGradient id="SVGID_5_" gradientUnits="userSpaceOnUse" x1="97.545" y1="99.586" x2="262.414" y2="264.455" gradientTransform="matrix(1 0 0 -1 0 362)">
			<stop  offset="0" style="stop-color:#8FCFAC"/>
			<stop  offset="1" style="stop-color:#61C192"/>
		</linearGradient>
		<path class="st4" d="M180,296.6c-64.4,0-116.6-52.2-116.6-116.6S115.6,63.4,180,63.4S296.6,115.6,296.6,180c0,0,0,0,0,0
			C296.5,244.4,244.4,296.5,180,296.6z M180,64.7c-63.7,0-115.3,51.6-115.3,115.3S116.3,295.3,180,295.3
			c63.7,0,115.3-51.6,115.3-115.3C295.3,116.3,243.7,64.7,180,64.7L180,64.7z"/>
		
			<linearGradient id="SVGID_6_" gradientUnits="userSpaceOnUse" x1="82.6987" y1="84.6987" x2="277.3013" y2="279.3012" gradientTransform="matrix(1 0 0 -1 0 362)">
			<stop  offset="0" style="stop-color:#8FCFAC"/>
			<stop  offset="1" style="stop-color:#61C192"/>
		</linearGradient>
		<path class="st5" d="M180,317.7c-75.9,0-137.7-61.8-137.7-137.7S104.1,42.3,180,42.3S317.7,104.1,317.7,180S255.9,317.7,180,317.7
			z M180,43.6c-75.2,0-136.4,61.2-136.4,136.4S104.8,316.4,180,316.4S316.4,255.2,316.4,180S255.2,43.6,180,43.6L180,43.6z"/>
		<rect y="135" class="st6" width="360" height="90"/>
		<path class="st7" d="M109.4,180.6l7.3-18.5h5.4v32.8h-5.5v-19.2l-5.4,12.9h-3.7l-5.4-12.8v19.1h-5.5v-32.8h5.4L109.4,180.6z"/>
		<path class="st7" d="M130,194.8l9.2-32.8h5.4l9.2,32.8H148l-1.7-6.8h-8.8l-1.7,6.8L130,194.8z M138.7,183.3h6.3l-3.1-12.9
			L138.7,183.3z"/>
		<path class="st7" d="M175.4,169.9c-1.2-2.2-2.6-3.5-5.2-3.5s-3.9,1.5-3.9,4.3c0,3.1,1.7,4.4,5.3,5.4c5.6,1.6,8.2,4.1,8.2,9.8
			c0,4.9-2.9,9.4-9.3,9.4c-4.6,0-8-1.7-10.3-5.4l4.2-2.9c1.6,2.3,2.9,3.5,5.8,3.5c3.2,0,4.1-2,4.1-4.4c0-2.6-1-4.2-5.4-5.5
			c-5.2-1.5-8-4.4-8-9.9c0-4.9,2.9-9.1,9.3-9.1c4.3,0,7.4,1.7,9.4,5.4L175.4,169.9z"/>
		<path class="st7" d="M206.3,162.1v4.8h-7.4v28h-5.5v-28H186v-4.8H206.3z"/>
		<path class="st7" d="M231,162.1v4.8h-11.1v8.6h10v4.8h-10v9.8H231v4.8h-16.7v-32.8H231z"/>
		<path class="st7" d="M254.7,194.8l-4.8-13.3h-4.1v13.3h-5.5v-32.8h9.6c6.2,0,10,3.3,10,9.8c0,4.5-1.7,7.4-4.6,8.7l5.6,14.2
			L254.7,194.8z M249.2,176.8c3.3,0,5-1.2,5-4.9s-1.7-5-5-5h-3.5v10L249.2,176.8z"/>
	</g>
</g>
</svg>
