<?xml version="1.0" encoding="utf-8"?>
<!-- Generator: Adobe Illustrator 21.1.0, SVG Export Plug-In . SVG Version: 6.00 Build 0)  -->
<svg version="1.1" id="Layer_1" xmlns="http://www.w3.org/2000/svg" xmlns:xlink="http://www.w3.org/1999/xlink" x="0px" y="0px"
	 width="360px" height="360px" viewBox="0 0 360 360" style="enable-background:new 0 0 360 360;" xml:space="preserve">
<style type="text/css">
	.st0{fill:#9F968C;}
	.st1{fill:#FFFFFF;}
</style>
<title>the-changelog-cover-art</title>
<g id="Layer_1-2">
	<g>
		<path class="st0" d="M38.5,135l3-9.2l1.3,9.2H44l-1.5-11l1.4,0.6L69,135h3.3l-28-11.6l-1.4-0.6l44.3-33.5L83.8,135h1.3l3.4-45.6
			l20.6,20.6l14.6,14.6L96.6,135h3.4l16.2-6.2l8-3.1l0.2,9.3h1.3l-0.2-8.6l8.6,8.6h1.7l-10.3-10.3l4.3-11.1l10.7-27.9l10.7,25.8
			l9.7,23.5h1.4l-16.9-40.7l-4.2-10.1l3.7-3.2l34.9-30v50.7l-13,33.3h1.4l11.6-29.9v27.6L176,135h2.4l2-1.2l2,1.2h2.5l-3.8-2.2
			v-29.4l21.3,22.5l-2.2,5.2l-1.6,3.9h1.4l1.4-3.4l2.2-5.3l14.2-0.4l16.8-0.4l-9.5,9.5h1.8l9.4-9.4l11.1,4.3l13.5,5.2h3.5
			l-27.1-10.4l14.5-14.6l20.6-20.6l3.5,45.6h1.2l-3.5-45.7l44.9,33.9l-1.6,11.8h1.3l1.3-9.2l3,9.2h1.3l-3.9-12.2v-0.1l-27.6-53.8
			c-0.1-0.1-0.2-0.2-0.3-0.3l-53.8-27.5h-0.1l-57.5-18.6c-0.1,0-0.3,0-0.4,0l-57.5,18.5h-0.1L68.9,68.7c-0.1,0.1-0.2,0.2-0.3,0.3
			l-27.5,53.8v0.1l-4,12.2H38.5z M124.6,123.7L110,109.1L89.4,88.5l50.2-3.8L124.6,123.7z M203.4,125.1L181.5,102l38.6-17.2l12,31.4
			l3.1,8L203.4,125.1z M181.1,100.8V51l35.5,30.5l2.7,2.3l-36.7,16.4L181.1,100.8z M250.9,109.1l-14.6,14.6l-15-39l50.2,3.8
			L250.9,109.1z M291.3,69.7l26.2,51.2L294,103.1l-20.6-15.6l-33.3-44.1L291.3,69.7z M238.1,42.9l33.5,44.3l-50.3-3.8l16.2-39.1
			L238.1,42.9z M236.4,43.8L220.2,83l-38.2-32.9l14.7-2l40.3-5.6L236.4,43.8z M180.5,23.8l54.7,17.6l-43.5,6L180.5,49l-6-0.8
			l-48.7-6.8L180.5,23.8z M123.2,42.3l51.6,7.2l4.1,0.6l-38,32.6l-0.8,0.7l-50.9,3.9L123.2,42.3z M69.7,69.7l51.2-26.2l-17.7,23.5
			L87.5,87.5l-44.1,33.3L69.7,69.7z"/>
		<path class="st0" d="M322.8,225l-3.3,10.2l-1.4-10.2h-1.3l1.6,12l-1.4-0.6L289.6,225h-3.2l30.3,12.5l1.4,0.6l-44.3,33.5l3.6-46.6
			h-1.3l-3.5,46.5l-20.6-20.6l-14.6-14.6l29.4-11.3h-3.3l-18.6,7.1l-8,3.1l-0.3-10.2h-1.2l0.3,9.5l-9.6-9.5h-1.8l11.3,11.3
			l-4.3,11.2l-10.7,27.8l-10.8-26.1l-10-24.2h-1.4l17.2,41.6l4.2,10.2l-5,4.3l-33.6,28.8v-50.6l13.3-34.3H193l-12,30.8v-27.6
			l5.4-3.2h-2.4l-3.6,2.1l-3.6-2.1h-2.5l5.4,3.2v29.4l-21.3-22.5l2.2-5.3l2-4.8h-1.3l-1.8,4.4l-2.2,5.3l-14.2,0.4l-16.8,0.4
			l10.5-10.5h-1.8l-10.4,10.4l-11.2-4.3L97.7,225h-3.5l29.6,11.3l-14.6,14.6l-20.6,20.6L84.9,225h-1.2l3.5,46.6l-44.9-33.9l1.8-12.6
			h-1.3l-1.4,10.2L38.2,225h-1.3l4.2,13.1v0L68.7,292c0.1,0.1,0.2,0.2,0.3,0.3l53.4,27.4c0,0.2,0.2,0.5,0.4,0.5l57.5,18.5
			c0.1,0,0.3,0,0.4,0l57.5-18.5c0.2-0.1,0.4-0.3,0.4-0.5l53.5-27.4c0.1-0.1,0.2-0.2,0.3-0.3l27.5-53.8l4.3-13.2H322.8z M236.4,237.2
			l14.6,14.6l20.6,20.6l-50.2,3.8L236.4,237.2z M157.5,235.9l21.9,23.1l-38.6,17.2l-12-31.4l-3.1-8L157.5,235.9z M179.8,260.1v49.8
			l-37.3-32l-0.8-0.8l37.5-16.7L179.8,260.1z M110,251.8l14.6-14.6l15,39l-50.2-3.8L110,251.8z M69.7,291.3l-26.2-51.2l23.5,17.7
			l20.6,15.6l33.3,44.1L69.7,291.3z M122.8,318l-33.5-44.3l50.3,3.8l-16.2,39.1L122.8,318z M124.5,317.1l16.2-39.1l38.2,32.8
			l-55,7.7L124.5,317.1z M180.5,337.5l-54.7-17.6l54.7-7.6l54.7,7.6L180.5,337.5z M237.7,318.6l-55.8-7.8l38.8-33.3l50.9-3.9
			L237.7,318.6z M291.3,291.3l-51.2,26.2l17.7-23.5l15.6-20.6l44.1-33.3L291.3,291.3z"/>
	</g>
	<path class="st1" d="M38.3,163.7v4.8h-7.4v28h-5.5v-28H18v-4.8H38.3z"/>
	<path class="st1" d="M49.9,177.1H59v-13.4h5.5v32.8H59v-14.6h-9.1v14.6h-5.5v-32.8h5.5V177.1z"/>
	<path class="st1" d="M90.2,163.7v4.8H79v8.6h10v4.8H79v9.8h11.2v4.8H73.5v-32.8H90.2z"/>
	<path class="st1" d="M124.2,173.8c-0.5-4-1.9-5.8-4.6-5.8c-3.2,0-4.8,2.9-4.8,9.9v4.2c0,7,1.6,9.9,4.8,9.9c2.7,0,4-1.8,4.6-5.8h5.2
		c-0.9,7.4-4.3,10.6-9.8,10.6c-6.1,0-10.3-4.4-10.3-14.7V178c0-10.3,4.2-14.7,10.3-14.7c5.3,0,8.9,3.5,9.8,10.6L124.2,173.8z"/>
	<path class="st1" d="M142,177.1h9v-13.4h5.5v32.8H151v-14.6h-9v14.6h-5.5v-32.8h5.5V177.1z"/>
	<path class="st1" d="M162.5,196.4l9.2-32.8h5.4l9.2,32.8h-5.8l-1.7-6.8H170l-1.7,6.8H162.5z M171.2,184.9h6.4l-3.1-12.9
		L171.2,184.9z"/>
	<path class="st1" d="M212.4,163.7v32.8h-5l-9.6-19.4v19.4h-5.5v-32.8h4.9l9.7,19.7v-19.7H212.4z"/>
	<path class="st1" d="M240.3,179.6v2.5c0,10.6-3.8,14.7-9.8,14.7s-10.3-4.4-10.3-14.7v-4c0-10.5,4.2-15,10.3-15
		c5.6,0,9,3.7,9.8,10.6H235c-0.5-3.8-1.9-5.8-4.6-5.8c-3.2,0-4.8,2.9-4.8,9.9v4.2c0,7.1,1.6,9.9,4.8,9.9c3,0,4.4-2.4,4.6-7.6h-4.5
		v-4.8L240.3,179.6z"/>
	<path class="st1" d="M264.8,163.7v4.8h-11.2v8.6h10v4.8h-10v9.8h11.2v4.8h-16.7v-32.8H264.8z"/>
	<path class="st1" d="M277.6,191.7h11.2v4.8h-16.7v-32.8h5.5V191.7z"/>
	<path class="st1" d="M292.8,182.1V178c0-10.3,4.2-14.7,10.3-14.7s10.3,4.4,10.3,14.7v4.2c0,10.3-4.2,14.7-10.3,14.7
		S292.8,192.4,292.8,182.1z M298.3,178v4.2c0,7.1,1.6,10,4.8,10s4.8-2.9,4.8-10V178c0-7.1-1.6-10-4.8-10S298.3,170.9,298.3,178
		L298.3,178z"/>
	<path class="st1" d="M340.3,179.6v2.5c0,10.6-3.8,14.7-9.8,14.7s-10.3-4.4-10.3-14.7v-4c0-10.5,4.2-15,10.3-15
		c5.6,0,9,3.7,9.8,10.6H335c-0.5-3.8-1.9-5.8-4.6-5.8c-3.2,0-4.8,2.9-4.8,9.9v4.2c0,7.1,1.6,9.9,4.8,9.9c3,0,4.4-2.4,4.6-7.6h-4.5
		v-4.8L340.3,179.6z"/>
</g>
</svg>
