<svg xmlns="http://www.w3.org/2000/svg" xmlns:xlink="http://www.w3.org/1999/xlink" viewBox="0 0 360 360"><defs><style>.cls-1{fill:#121921;}.cls-2{fill:#9f968c;}.cls-3{fill:#fff;}.cls-4{fill:url(#New_Gradient_Swatch_22);}.cls-5{fill:url(#linear-gradient);}</style><linearGradient id="New_Gradient_Swatch_22" x1="303.75" y1="39.38" x2="332.67" y2="39.38" gradientUnits="userSpaceOnUse"><stop offset="0" stop-color="#9f968c" stop-opacity="0"/><stop offset="1" stop-color="#9f968c"/></linearGradient><linearGradient id="linear-gradient" x1="309.21" y1="39.38" x2="328.8" y2="39.38" gradientUnits="userSpaceOnUse"><stop offset="0" stop-color="#9f968c"/><stop offset="1" stop-color="#9f968c" stop-opacity="0"/></linearGradient></defs><title>the-changelog-cover-art</title><g id="Layer_2" data-name="Layer 2"><g id="Layer_1-2" data-name="Layer 1"><rect class="cls-1" width="360" height="360"/><path class="cls-2" d="M319.85,122.78v-.09L292.28,68.93a.62.62,0,0,0-.27-.27L238.23,41.12h-.09L180.65,22.53a.61.61,0,0,0-.38,0L122.79,41.08l0,0h-.06L68.92,68.65a.62.62,0,0,0-.27.27L41.12,122.7v.07h0L22.53,180.27a.62.62,0,0,0,0,.38l18.55,57.48v0l0,.05v0L68.65,292a.62.62,0,0,0,.27.27l53.44,27.37a.62.62,0,0,0,.42.53l57.48,18.55a.62.62,0,0,0,.38,0l57.49-18.55a.62.62,0,0,0,.42-.52L292,292.28a.62.62,0,0,0,.27-.27l27.54-53.77v0s0,0,0,0v0l18.55-57.48a.62.62,0,0,0,0-.38Zm-42,95.64-.73.85L261,183.17l-.93-2.08h49.8ZM81.52,144.32l2.28-2.66,17,38.14,0,0H51Zm7.86,128.12L110,251.82l14.6-14.6,15,39ZM140.52,85.66l10.69,25.81L163.84,142l-16.67,4.32-10.12-10.12-11.49-11.49,4.27-11.13Zm131,2.84-20.62,20.61-14.6,14.6-15-39ZM214.64,213.76,219,197.09l10.4,4.31,5.26,2.18.37,14.21.44,16.76L218.5,217.62Zm4.8-17.83,8.73-14.84h29.4L235.1,202.42l-5.26-2.18Zm.55-30,35.82,13.91H228.18Zm-2.06-1.08a.62.62,0,0,0,.06.11s0,0,0,.05l9.09,15.45L218,195.92a.61.61,0,0,0,0,.08.6.6,0,0,0,0,.08l-4.5,17.36-17.36,4.5L196,218h-.05l-15.45,9.09L165,218l-.08,0-.08,0-17.36-4.5L143,196.08a.62.62,0,0,0-.06-.11s0,0,0-.05l-9.09-15.45L142.93,165a.61.61,0,0,0,0-.08.6.6,0,0,0,0-.08l4.5-17.36,17.36-4.5.1-.05.06,0,15.45-9.09,15.45,9.09.06,0,.1.05,17.36,4.5Zm-70.77,49.79L163.84,219l-4.31,10.4-2.18,5.26-14.21.37-16.76.44,16.93-16.93Zm17.83,4.8,14.84,8.73v29.4L158.51,235.1l2.18-5.26Zm30,.55-13.91,35.81V228.18ZM125.73,236.7l31.79-.83,21.88,23.07-38.56,17.19-12-31.43Zm-9.49-107.9,8-3.06.83,31.79L102,179.4,84.81,140.85Zm30,18.37L142,163.84l-10.4-4.31-5.26-2.18-.37-14.21-.44-16.76,16.93,16.93ZM141.49,165l-8.73,14.84h-29.4l22.48-21.33,5.26,2.18Zm-.55,30-35.82-13.91h27.63Zm59.3-63.91-4.31,10.4-14.84-8.73v-29.4l21.33,22.48Zm-34.31,9.85,13.91-35.82v27.63Zm47.83,5.35L197.09,142l4.31-10.4,2.18-5.26,14.21-.37,16.76-.44-16.93,16.93ZM251.82,110l20.62-20.61,3.83,50.17-39-15ZM235.2,124.23l-31.79.83L181.53,102l38.56-17.19,12,31.43Zm-111.49.36-39,15L88.5,89.38,109.11,110ZM142,197.09l4.32,16.67-10.12,10.12-11.49,11.49-11.22-4.3-27.8-10.66,26.1-10.81Zm-18.26,39.25-14.6,14.6L88.5,271.55l-3.83-50.17ZM197.09,219l16.67-4.32,10.12,10.12,11.49,11.49-4.3,11.22-10.66,27.8-10.81-26.1ZM236.7,235.2l-.83-31.79,23.07-21.88,17.19,38.56-31.43,12ZM219,163.84l-4.32-16.67,10.12-10.12,11.49-11.49,11.13,4.27,27.88,10.69-25.81,10.69ZM179.84,51v50.65l-15.16,39L145.44,94.28l-4.2-10.13L144.93,81ZM124.6,123.71,110,109.11,89.38,88.5l50.17-3.83ZM51,181.09h50.65l39,15.16L94.35,215.46l-10.2,4.23-3.83-4.46Zm90.63,96,37.46-16.7.72-.32v49.8l-37.33-32Zm39.44,32.78V259.26l15.16-39,19.21,46.36,4.23,10.2-5,4.28Zm40.28-33.64,15-39,14.6,14.6,20.61,20.62Zm15.85-39.92,39-15-3.83,50.18-20.61-20.62Zm72.69-56.5H259.26l-39-15.16,46.43-19.23,10.13-4.2,3.75,4.36ZM238.11,42.92l33.51,44.33-50.28-3.84,16.2-39.12ZM219.28,83.8l-36.68,16.35-1.5.67V51l35.52,30.49Zm-176.36,39L87.25,89.31l-3.84,50.28-39.12-16.2Zm7.18,59.1,33.18,38.66.09.1,3.88,50.93-44.9-33.94ZM122.82,318,89.31,273.68l50.28,3.84-16.2,39.12Zm1.72-.9L140.75,278,179,310.84l-55,7.65Zm96.14-39.55,50.93-3.88-33.94,44.9-55.75-7.75ZM318,238.11l-44.33,33.51,3.84-50.28,39.12,16.2Zm-40.26-97.65-.18-.22-3.88-50.93,44.9,33.94L310.84,179Zm-40.8-98-.57,1.37-16.2,39.12L181.92,50.1l14.73-2ZM179,50.1l-38,32.57-.81.7L89.31,87.25l33.94-44.9,51.64,7.18ZM42.45,124l1.37.57,39.12,16.2L50.09,179l-.88-6.34Zm276,113-1.37-.57L278,220.19l32.84-38.26,4.53,32.6ZM291.26,69.67l26.2,51.16L294,103.1,273.4,87.53,240.09,43.47ZM180.46,23.78l54.7,17.65-43.47,6L180.46,49l-6-.83-48.69-6.77ZM69.67,69.67l51.16-26.2L103.1,66.94,87.53,87.53,43.47,120.84Zm-28.24,56.1,7.31,52.54.3,2.16-7.61,54.69L23.78,180.47ZM69.67,291.26,43.48,240.1l23.46,17.73L87.53,273.4l33.31,44.06Zm110.79,46.21-54.69-17.65,54.69-7.61,54.7,7.6Zm110.8-46.21-51.16,26.2L257.84,294,273.4,273.4l44.06-33.31Zm28.24-56.1-3.17-22.8-4.43-31.89,4.48-32.25,3.12-22.46,17.65,54.7Z"/><rect class="cls-1" y="135" width="360" height="90"/><path class="cls-3" d="M38.28,163.67v4.8H30.92v28H25.41v-28H18v-4.8Z"/><path class="cls-3" d="M49.92,177.11H59V163.67H64.5v32.78H59V181.86H49.92v14.58H44.41V163.67h5.51Z"/><path class="cls-3" d="M90.15,163.67v4.8H79v8.65H89v4.75H79v9.83H90.15v4.75H73.48V163.67Z"/><path class="cls-3" d="M124.16,173.83c-.52-4-1.95-5.79-4.56-5.79-3.23,0-4.8,2.85-4.8,9.93v4.18c0,7,1.57,9.93,4.8,9.93,2.71,0,4-1.8,4.56-5.79h5.22c-.95,7.36-4.32,10.59-9.78,10.59-6.08,0-10.31-4.42-10.31-14.73V178c0-10.31,4.23-14.73,10.31-14.73,5.27,0,8.88,3.47,9.78,10.59Z"/><path class="cls-3" d="M142,177.11H151V163.67h5.51v32.78H151V181.86H142v14.58h-5.51V163.67H142Z"/><path class="cls-3" d="M162.49,196.44l9.17-32.78h5.42l9.22,32.78h-5.84l-1.71-6.79H170l-1.66,6.79Zm8.69-11.54h6.36L174.42,172Z"/><path class="cls-3" d="M212.37,163.67v32.78h-5L197.79,177v19.43h-5.51V163.67h4.89l9.69,19.71V163.67Z"/><path class="cls-3" d="M240.3,179.63v2.52c0,10.59-3.8,14.73-9.83,14.73s-10.31-4.42-10.31-14.73V178.2c0-10.54,4.23-15,10.31-15,5.56,0,9,3.71,9.79,10.59H235c-.47-3.8-1.85-5.79-4.56-5.79-3.23,0-4.8,2.85-4.8,9.93v4.18c0,7.08,1.57,9.93,4.8,9.93,3,0,4.37-2.37,4.56-7.65h-4.46v-4.8Z"/><path class="cls-3" d="M264.81,163.67v4.8H253.65v8.65h10v4.75h-10v9.83h11.16v4.75H248.14V163.67Z"/><path class="cls-3" d="M277.63,191.69H288.8v4.75H272.12V163.67h5.51Z"/><path class="cls-3" d="M292.83,182.15V178c0-10.31,4.23-14.73,10.31-14.73s10.31,4.42,10.31,14.73v4.18c0,10.31-4.23,14.73-10.31,14.73S292.83,192.45,292.83,182.15Zm5.51-4.18v4.18c0,7.08,1.57,10,4.8,10s4.8-2.9,4.8-10V178c0-7.08-1.57-10-4.8-10S298.34,170.89,298.34,178Z"/><path class="cls-3" d="M340.29,179.63v2.52c0,10.59-3.8,14.73-9.83,14.73s-10.31-4.42-10.31-14.73V178.2c0-10.54,4.23-15,10.31-15,5.56,0,9,3.71,9.79,10.59H335c-.47-3.8-1.85-5.79-4.56-5.79-3.23,0-4.8,2.85-4.8,9.93v4.18c0,7.08,1.57,9.93,4.8,9.93,3,0,4.37-2.37,4.56-7.65h-4.46v-4.8Z"/><path class="cls-3" d="M323.31,37.48a3.25,3.25,0,1,0-2.61,5.22,3.34,3.34,0,0,0,2.65-1.44L325,42.79a5.5,5.5,0,1,1-4.26-8.88,5.4,5.4,0,0,1,4.22,2Z"/><path class="cls-4" d="M320.61,56.25h-.33a16.75,16.75,0,0,1-12.07-5.41,16.93,16.93,0,0,1,0-22.92,16.88,16.88,0,0,1,24.32-.47.46.46,0,1,1-.64.64,16,16,0,0,0-23,.45,16,16,0,0,0,0,21.68,16,16,0,0,0,23,.45.46.46,0,1,1,.64.64A16.73,16.73,0,0,1,320.61,56.25Z"/><path class="cls-5" d="M320.6,50.78h-.39a11.4,11.4,0,0,1,0-22.79,11.44,11.44,0,0,1,8.46,3.33A.46.46,0,0,1,328,32a10.54,10.54,0,0,0-7.78-3.07,10.49,10.49,0,0,0,0,21A10.54,10.54,0,0,0,328,46.79a.46.46,0,0,1,.64.64A11.45,11.45,0,0,1,320.6,50.78Z"/></g></g></svg>