<?xml version="1.0" encoding="utf-8"?>
<!-- Generator: Adobe Illustrator 21.1.0, SVG Export Plug-In . SVG Version: 6.00 Build 0)  -->
<svg version="1.1" id="Layer_1" xmlns="http://www.w3.org/2000/svg" xmlns:xlink="http://www.w3.org/1999/xlink" x="0px" y="0px"
	 viewBox="0 0 171 171" style="enable-background:new 0 0 171 171;" xml:space="preserve">
<style type="text/css">
	.st0{clip-path:url(#SVGID_2_);fill:url(#SVGID_3_);}
	.st1{clip-path:url(#SVGID_5_);fill:url(#SVGID_6_);}
	.st2{fill:#FFFFFF;}
</style>
<title>backstage-cover-art</title>
<g>
	<defs>
		<rect id="SVGID_1_" width="171" height="64.1"/>
	</defs>
	<clipPath id="SVGID_2_">
		<use xlink:href="#SVGID_1_"  style="overflow:visible;"/>
	</clipPath>
	<linearGradient id="SVGID_3_" gradientUnits="userSpaceOnUse" x1="32.4672" y1="31.3384" x2="140.7054" y2="139.5766">
		<stop  offset="0" style="stop-color:#A8A8D3"/>
		<stop  offset="1" style="stop-color:#4C5FAA"/>
	</linearGradient>
	<path class="st0" d="M116.8,75.2l-10.2,10.2v20.6l10.2,10.2v23.2c-0.4,0.1-0.8,0.5-0.8,1s0.3,0.9,0.8,1v0h0.6v0
		c0.4-0.1,0.8-0.5,0.8-1s-0.3-0.9-0.8-1v-23.4l-10.2-10.2V85.6l10.2-10.2V45.1h30.9c0.1,0.4,0.5,0.8,1,0.8c0.5,0,0.9-0.3,1-0.8h0
		v-0.6h0c-0.1-0.4-0.5-0.8-1-0.8c-0.5,0-0.9,0.3-1,0.8h-31.5V75.2z M162.7,80.1c-0.1-0.4-0.5-0.8-1-0.8s-0.9,0.3-1,0.8h-28.5
		l-10.3,10.3v10.4l10.3,10.3h24c0.1,0.4,0.5,0.8,1,0.8c0.5,0,0.9-0.3,1-0.8h0v-0.6h0c-0.1-0.4-0.5-0.8-1-0.8c-0.5,0-0.9,0.3-1,0.8
		h-23.8l-10-10v-9.9l10-10h28.3c0.1,0.4,0.5,0.8,1,0.8s0.9-0.3,1-0.8h0L162.7,80.1L162.7,80.1z M142.7,62.1c0.4-0.1,0.8-0.5,0.8-1
		s-0.3-0.9-0.8-1v0h-0.6v0c-0.4,0.1-0.8,0.5-0.8,1c0,0.5,0.3,0.9,0.8,1v3.3h15.7c0.1,0.4,0.5,0.8,1,0.8c0.5,0,0.9-0.3,1-0.8h0v-0.6
		h0c-0.1-0.4-0.5-0.8-1-0.8c-0.5,0-0.9,0.3-1,0.8h-15.1V62.1z M106.6,44.7V50l5.1,5.1v7.1l-3.5,3.5c-0.4-0.2-0.9-0.2-1.3,0.2
		c-0.3,0.3-0.4,0.9-0.2,1.3l0,0l0.2,0.2c0,0,0,0,0,0c0,0,0,0,0,0l0.2,0.2l0,0c0.4,0.2,0.9,0.2,1.3-0.2c0.3-0.3,0.4-0.9,0.2-1.3
		l3.1-3.1v7.1l-3.5,3.5c-0.4-0.2-0.9-0.2-1.3,0.2c-0.3,0.3-0.4,0.9-0.2,1.3l0,0l0.2,0.2c0,0,0,0,0,0c0,0,0,0,0,0l0.2,0.2l0,0
		c0.4,0.2,0.9,0.2,1.3-0.2c0.3-0.3,0.4-0.9,0.2-1.3l3.7-3.7V54.9l-5.1-5.1v-4.8l4.9-4.9h33.4c0.1,0.4,0.5,0.8,1,0.8s0.9-0.3,1-0.8h0
		v-0.6h0c-0.1-0.4-0.5-0.8-1-0.8s-0.9,0.3-1,0.8h-33.6L106.6,44.7z M122.1,151.1c-0.3-0.3-0.9-0.4-1.3-0.2l-18.8-18.8V39.9l4.9-4.9
		h33.4c0.1,0.4,0.5,0.8,1,0.8c0.5,0,0.9-0.3,1-0.8h0v-0.6h0c-0.1-0.4-0.5-0.8-1-0.8c-0.5,0-0.9,0.3-1,0.8h-33.6l-5.2,5.2v92.8
		l18.9,18.9c-0.2,0.4-0.2,0.9,0.2,1.3c0.3,0.3,0.9,0.4,1.3,0.2l0,0l0.4-0.4l0,0C122.5,152,122.5,151.5,122.1,151.1z M112,155.1
		c-0.3-0.3-0.9-0.4-1.3-0.2l-18.8-18.8V34.8l8.6-8.6c0.4,0.2,0.9,0.2,1.3-0.2c0.3-0.3,0.4-0.9,0.2-1.3l0,0l-0.4-0.4l0,0
		c-0.4-0.2-0.9-0.2-1.3,0.2c-0.3,0.3-0.4,0.9-0.2,1.3l-8.8,8.8v101.8l18.9,18.9c-0.2,0.4-0.2,0.9,0.2,1.3c0.3,0.3,0.9,0.4,1.3,0.2
		l0,0l0.4-0.4l0,0C112.4,155.9,112.3,155.4,112,155.1z M117.1,153.4c-0.3-0.3-0.9-0.4-1.3-0.2L97,134.4V37.6l7.7-7.7h31.7
		c0.1,0.4,0.5,0.8,1,0.8c0.5,0,0.9-0.3,1-0.8h0v-0.6h0c-0.1-0.4-0.5-0.8-1-0.8c-0.5,0-0.9,0.3-1,0.8h-31.9l-8.1,8.1v97.3l18.9,18.9
		c-0.2,0.4-0.2,0.9,0.2,1.3c0.3,0.3,0.9,0.4,1.3,0.2l0,0l0.4-0.4l0,0C117.5,154.2,117.4,153.7,117.1,153.4z M122.4,144.3v-30.2
		L112.3,104V87.8l10.2-10.2V50.2h29.8c0.1,0.4,0.5,0.8,1,0.8s0.9-0.3,1-0.8h0v-0.6h0c-0.1-0.4-0.5-0.8-1-0.8s-0.9,0.3-1,0.8h-30.4
		v27.8l-10.2,10.2v16.6l10.2,10.2v30c-0.4,0.1-0.8,0.5-0.8,1s0.3,0.9,0.8,1v0h0.6v0c0.4-0.1,0.8-0.5,0.8-1S122.9,144.5,122.4,144.3z
		 M127.5,149.4v-37.5l-10.2-10.2V90.1l10.2-10.2V55.3h27c0.1,0.4,0.5,0.8,1,0.8c0.5,0,0.9-0.3,1-0.8h0v-0.6h0
		c-0.1-0.4-0.5-0.8-1-0.8c-0.5,0-0.9,0.3-1,0.8h-27.6v25l-10.2,10.2v12.1l10.2,10.2v37.3c-0.4,0.1-0.8,0.5-0.8,1
		c0,0.5,0.3,0.9,0.8,1v0h0.6v0c0.4-0.1,0.8-0.5,0.8-1S128,149.5,127.5,149.4z M161.7,84.4c-0.5,0-0.9,0.3-1,0.8h-26.8l-6.9,6.9v6.4
		l6.9,7.5h24c0.1,0.4,0.5,0.8,1,0.8c0.5,0,0.9-0.3,1-0.8h0v-0.6h0c-0.1-0.4-0.5-0.8-1-0.8c-0.5,0-0.9,0.3-1,0.8h-23.8l-6.6-7.2v-6
		l6.6-6.6h26.6c0.1,0.4,0.5,0.8,1,0.8s0.9-0.3,1-0.8h0v-0.6h0C162.6,84.7,162.2,84.4,161.7,84.4z M155.5,114.9c-0.5,0-0.9,0.3-1,0.8
		h-17.2l-5.2,5.2v23.4c-0.4,0.1-0.8,0.5-0.8,1s0.3,0.9,0.8,1v0h0.6v0c0.4-0.1,0.8-0.5,0.8-1s-0.3-0.9-0.8-1v-23.2l4.9-4.9h17
		c0.1,0.4,0.5,0.8,1,0.8c0.5,0,0.9-0.3,1-0.8h0v-0.6h0C156.4,115.2,156,114.9,155.5,114.9z M152.7,120c-0.5,0-0.9,0.3-1,0.8h-11.6
		l-3,3v16.7c-0.4,0.1-0.8,0.5-0.8,1c0,0.5,0.3,0.9,0.8,1v0h0.6v0c0.4-0.1,0.8-0.5,0.8-1c0-0.5-0.3-0.9-0.8-1V124l2.7-2.7h11.3
		c0.1,0.4,0.5,0.8,1,0.8c0.5,0,0.9-0.3,1-0.8h0v-0.6h0C153.6,120.3,153.2,120,152.7,120z M149.9,125c-0.5,0-0.9,0.3-1,0.8h-6.7v9.5
		c-0.4,0.1-0.8,0.5-0.8,1c0,0.5,0.3,0.9,0.8,1v0h0.6v0c0.4-0.1,0.8-0.5,0.8-1c0-0.5-0.3-0.9-0.8-1v-8.9h6.1c0.1,0.4,0.5,0.8,1,0.8
		s0.9-0.3,1-0.8h0v-0.6h0C150.8,125.4,150.4,125,149.9,125z M161.7,89.5c-0.5,0-0.9,0.3-1,0.8h-24.6l-4.8,5.3l4.2,5.4H159
		c0.1,0.4,0.5,0.8,1,0.8s0.9-0.3,1-0.8h0v-0.6h0c-0.1-0.4-0.5-0.8-1-0.8s-0.9,0.3-1,0.8h-23.2l-3.7-4.8l4.3-4.8h24.3
		c0.1,0.4,0.5,0.8,1,0.8s0.9-0.3,1-0.8h0v-0.6h0C162.6,89.8,162.2,89.5,161.7,89.5z M160.1,75h-22.6l-4.9-4.9v-8
		c0.4-0.1,0.8-0.5,0.8-1s-0.3-0.9-0.8-1v0H132v0c-0.4,0.1-0.8,0.5-0.8,1c0,0.5,0.3,0.9,0.8,1v8.2l5.2,5.2h22.9
		c0.1,0.4,0.5,0.8,1,0.8c0.5,0,0.9-0.3,1-0.8h0V75h0c-0.1-0.4-0.5-0.8-1-0.8C160.7,74.2,160.3,74.6,160.1,75z M159,69.9h-18.1
		l-3.2-3.2v-4.6c0.4-0.1,0.8-0.5,0.8-1s-0.3-0.9-0.8-1v0h-0.6v0c-0.4,0.1-0.8,0.5-0.8,1c0,0.5,0.3,0.9,0.8,1v4.8l3.6,3.6H159
		c0.1,0.4,0.5,0.8,1,0.8s0.9-0.3,1-0.8h0v-0.6h0c-0.1-0.4-0.5-0.8-1-0.8S159.1,69.5,159,69.9z M106.6,14.2v5.4l5.2,5.2h18.4
		c0.1,0.4,0.5,0.8,1,0.8c0.5,0,0.9-0.3,1-0.8h0v-0.6h0c-0.1-0.4-0.5-0.8-1-0.8c-0.5,0-0.9,0.3-1,0.8h-18.1l-4.9-4.9v-5.1
		c0.4-0.1,0.8-0.5,0.8-1s-0.3-0.9-0.8-1v0h-0.6v0c-0.4,0.1-0.8,0.5-0.8,1C105.8,13.6,106.2,14,106.6,14.2z M111.7,15.9v3.8h10.6
		c0.1,0.4,0.5,0.8,1,0.8c0.5,0,0.9-0.3,1-0.8h0v-0.6h0c-0.1-0.4-0.5-0.8-1-0.8c-0.5,0-0.9,0.3-1,0.8h-10.1v-3.3
		c0.4-0.1,0.8-0.5,0.8-1s-0.3-0.9-0.8-1v0h-0.6v0c-0.4,0.1-0.8,0.5-0.8,1C110.9,15.3,111.3,15.7,111.7,15.9z M106.9,157.3
		c-0.3-0.3-0.9-0.4-1.3-0.2l-12.3-12.3c0.2-0.4,0.2-0.9-0.2-1.3c-0.3-0.3-0.9-0.4-1.3-0.2l0,0l-0.2,0.2c0,0,0,0,0,0s0,0,0,0
		l-0.2,0.2l0,0c-0.2,0.4-0.2,0.9,0.2,1.3c0.3,0.3,0.9,0.4,1.3,0.2l12.3,12.3c-0.2,0.4-0.2,0.9,0.2,1.3c0.3,0.3,0.9,0.4,1.3,0.2l0,0
		l0.4-0.4l0,0C107.3,158.2,107.2,157.7,106.9,157.3z M101,158.8c-0.4-0.3-0.9-0.4-1.3-0.1l-12.9-12.3V24.6l8.6-8.6
		c0.4,0.2,0.9,0.2,1.3-0.2c0.3-0.3,0.4-0.9,0.2-1.3l0,0l-0.4-0.4l0,0c-0.4-0.2-0.9-0.2-1.3,0.2c-0.3,0.3-0.4,0.9-0.2,1.3l-8.5,8.5
		l-8.5-8.5c0.2-0.4,0.2-0.9-0.2-1.3c-0.3-0.3-0.9-0.4-1.3-0.2l0,0l-0.2,0.2c0,0,0,0,0,0c0,0,0,0,0,0l-0.2,0.2l0,0
		c-0.2,0.4-0.2,0.9,0.2,1.3c0.3,0.3,0.9,0.4,1.3,0.2l8.6,8.6v121.7l-12.9,12.3c-0.4-0.2-0.9-0.2-1.3,0.1c-0.4,0.3-0.4,0.9-0.2,1.3
		l0,0l0.2,0.2c0,0,0,0,0,0c0,0,0,0,0,0l0.2,0.2l0,0c0.4,0.2,0.9,0.2,1.3-0.1c0.4-0.3,0.4-0.9,0.2-1.3l12.7-12.2L99.3,159
		c-0.2,0.4-0.2,0.9,0.2,1.3c0.4,0.3,0.9,0.4,1.3,0.1l0,0l0.2-0.2c0,0,0,0,0,0c0,0,0,0,0,0l0.2-0.2l0,0
		C101.4,159.6,101.3,159.1,101,158.8z M112,119.5c-0.3-0.3-0.9-0.4-1.3-0.2l-3.5-3.5v-1.8c0.4-0.1,0.8-0.5,0.8-1
		c0-0.5-0.3-0.9-0.8-1v0h-0.6v0c-0.4,0.1-0.8,0.5-0.8,1c0,0.5,0.3,0.9,0.8,1v15.5l3.7,3.7c-0.2,0.4-0.2,0.9,0.2,1.3
		c0.3,0.3,0.9,0.4,1.3,0.2l0,0l0.4-0.4l0,0c0.2-0.4,0.2-0.9-0.2-1.3c-0.3-0.3-0.9-0.4-1.3-0.2l-3.5-3.5v-6l3.1,3.1
		c-0.2,0.4-0.2,0.9,0.2,1.3c0.3,0.3,0.9,0.4,1.3,0.2l0,0l0.4-0.4l0,0c0.2-0.4,0.2-0.9-0.2-1.3c-0.3-0.3-0.9-0.4-1.3-0.2l-3.5-3.5v-6
		l3.1,3.1c-0.2,0.4-0.2,0.9,0.2,1.3c0.3,0.3,0.9,0.4,1.3,0.2l0,0l0.4-0.4l0,0C112.4,120.4,112.3,119.9,112,119.5z M101.5,12.5v4
		l-8.6,8.6c-0.4-0.2-0.9-0.2-1.3,0.2c-0.3,0.3-0.4,0.9-0.2,1.3l0,0l0.2,0.2c0,0,0,0,0,0s0,0,0,0l0.2,0.2l0,0
		c0.4,0.2,0.9,0.2,1.3-0.2c0.3-0.3,0.4-0.9,0.2-1.3l8.8-8.8v-4.2c0.4-0.1,0.8-0.5,0.8-1s-0.3-0.9-0.8-1v0h-0.6v0
		c-0.4,0.1-0.8,0.5-0.8,1C100.8,11.9,101.1,12.3,101.5,12.5z M71.6,132.4V39.6l-5.2-5.2H32.8c-0.1-0.4-0.5-0.8-1-0.8
		c-0.5,0-0.9,0.3-1,0.8h0v0.3c0,0,0,0,0,0s0,0,0,0v0.3h0c0.1,0.4,0.5,0.8,1,0.8c0.5,0,0.9-0.3,1-0.8h33.4l4.9,4.9v92.3L52.3,151
		c-0.4-0.2-0.9-0.2-1.3,0.2c-0.3,0.3-0.4,0.9-0.2,1.3l0,0l0.2,0.2c0,0,0,0,0,0c0,0,0,0,0,0l0.2,0.2l0,0c0.4,0.2,0.9,0.2,1.3-0.2
		c0.3-0.3,0.4-0.9,0.2-1.3L71.6,132.4z M81.8,136.4V34.5L73,25.8c0.2-0.4,0.2-0.9-0.2-1.3c-0.3-0.3-0.9-0.4-1.3-0.2l0,0l-0.2,0.2
		c0,0,0,0,0,0s0,0,0,0l-0.2,0.2l0,0c-0.2,0.4-0.2,0.9,0.2,1.3c0.3,0.3,0.9,0.4,1.3,0.2l8.6,8.6v101.4l-18.8,18.8
		c-0.4-0.2-0.9-0.2-1.3,0.2c-0.3,0.3-0.4,0.9-0.2,1.3l0,0l0.2,0.2c0,0,0,0,0,0c0,0,0,0,0,0l0.2,0.2l0,0c0.4,0.2,0.9,0.2,1.3-0.2
		c0.3-0.3,0.4-0.9,0.2-1.3L81.8,136.4z M76.7,134.7V37.4l-8.1-8.1H36.7c-0.1-0.4-0.5-0.8-1-0.8c-0.5,0-0.9,0.3-1,0.8h0v0.3
		c0,0,0,0,0,0c0,0,0,0,0,0v0.3h0c0.1,0.4,0.5,0.8,1,0.8c0.5,0,0.9-0.3,1-0.8h31.7l7.7,7.7v96.8l-18.8,18.8c-0.4-0.2-0.9-0.2-1.3,0.2
		c-0.3,0.3-0.4,0.9-0.2,1.3l0,0l0.2,0.2c0,0,0,0,0,0c0,0,0,0,0,0l0.2,0.2l0,0c0.4,0.2,0.9,0.2,1.3-0.2c0.3-0.3,0.4-0.9,0.2-1.3
		L76.7,134.7z M50.7,146.4h0.6v0c0.4-0.1,0.8-0.5,0.8-1s-0.3-0.9-0.8-1v-30l10.2-10.2V87.6L51.3,77.4V49.6H20.9
		c-0.1-0.4-0.5-0.8-1-0.8c-0.5,0-0.9,0.3-1,0.8h0v0.3c0,0,0,0,0,0s0,0,0,0v0.3h0c0.1,0.4,0.5,0.8,1,0.8c0.5,0,0.9-0.3,1-0.8h29.8
		v27.5l10.2,10.2V104l-10.2,10.2v30.2c-0.4,0.1-0.8,0.5-0.8,1S50.3,146.2,50.7,146.4L50.7,146.4z M66.5,114.1c0.4-0.1,0.8-0.5,0.8-1
		c0-0.5-0.3-0.9-0.8-1v0H66v0c-0.4,0.1-0.8,0.5-0.8,1c0,0.5,0.3,0.9,0.8,1v1.8l-3.5,3.5c-0.4-0.2-0.9-0.2-1.3,0.2
		c-0.3,0.3-0.4,0.9-0.2,1.3l0,0l0.2,0.2c0,0,0,0,0,0c0,0,0,0,0,0l0.2,0.2l0,0c0.4,0.2,0.9,0.2,1.3-0.2c0.3-0.3,0.4-0.9,0.2-1.3
		l3.1-3.1v6l-3.5,3.5c-0.4-0.2-0.9-0.2-1.3,0.2c-0.3,0.3-0.4,0.9-0.2,1.3l0,0l0.2,0.2c0,0,0,0,0,0c0,0,0,0,0,0l0.2,0.2l0,0
		c0.4,0.2,0.9,0.2,1.3-0.2c0.3-0.3,0.4-0.9,0.2-1.3l3.1-3.1v6l-3.5,3.5c-0.4-0.2-0.9-0.2-1.3,0.2c-0.3,0.3-0.4,0.9-0.2,1.3l0,0
		l0.2,0.2c0,0,0,0,0,0c0,0,0,0,0,0l0.2,0.2l0,0c0.4,0.2,0.9,0.2,1.3-0.2c0.3-0.3,0.4-0.9,0.2-1.3l3.7-3.7V114.1z M80.2,145.3
		c0.4,0.2,0.9,0.2,1.3-0.2c0.3-0.3,0.4-0.9,0.2-1.3l0,0l-0.4-0.4l0,0c-0.4-0.2-0.9-0.2-1.3,0.2c-0.3,0.3-0.4,0.9-0.2,1.3l-12.3,12.3
		c-0.4-0.2-0.9-0.2-1.3,0.2c-0.3,0.3-0.4,0.9-0.2,1.3l0,0l0.2,0.2c0,0,0,0,0,0c0,0,0,0,0,0l0.2,0.2l0,0c0.4,0.2,0.9,0.2,1.3-0.2
		c0.3-0.3,0.4-0.9,0.2-1.3L80.2,145.3z M22.8,45.1L22.8,45.1c0.2,0.4,0.6,0.8,1.1,0.8c0.5,0,0.9-0.3,1-0.8h30.9v30.3L66,85.6v20.1
		l-10.2,10.2v23.4c-0.4,0.1-0.8,0.5-0.8,1s0.3,0.9,0.8,1v0h0.6v0c0.4-0.1,0.8-0.5,0.8-1s-0.3-0.9-0.8-1v-23.2l10.2-10.2V85.3
		L56.4,75.2V44.5H24.9c-0.1-0.4-0.5-0.8-1-0.8c-0.5,0-0.9,0.3-1,0.8h0v0.3c0,0,0,0,0,0s0,0,0,0V45.1z M46.2,149.4v-37.3l10.2-10.2
		V89.9L46.2,79.7v-25H18.7c-0.1-0.4-0.5-0.8-1-0.8c-0.5,0-0.9,0.3-1,0.8h0V55c0,0,0,0,0,0c0,0,0,0,0,0v0.3h0c0.1,0.4,0.5,0.8,1,0.8
		c0.5,0,0.9-0.3,1-0.8h27v24.7l10.2,10.2v11.6l-10.2,10.2v37.5c-0.4,0.1-0.8,0.5-0.8,1c0,0.5,0.3,0.9,0.8,1v0h0.6v0
		c0.4-0.1,0.8-0.5,0.8-1S46.7,149.5,46.2,149.4z M17,111.1h24l10.3-10.3V90.4L41,80.1H12.5c-0.1-0.4-0.5-0.8-1-0.8
		c-0.5,0-0.9,0.3-1,0.8h0v0.3c0,0,0,0,0,0c0,0,0,0,0,0v0.3h0c0.1,0.4,0.5,0.8,1,0.8c0.5,0,0.9-0.3,1-0.8h28.3l10,10v9.9l-10,10H17
		c-0.1-0.4-0.5-0.8-1-0.8c-0.5,0-0.9,0.3-1,0.8h0v0.3c0,0,0,0,0,0c0,0,0,0,0,0v0.3h0c0.1,0.4,0.5,0.8,1,0.8
		C16.5,111.9,16.9,111.6,17,111.1z M15.3,106.1h24l6.9-7.5v-6.4l-6.9-6.9H12.5c-0.1-0.4-0.5-0.8-1-0.8c-0.5,0-0.9,0.3-1,0.8h0v0.3
		c0,0,0,0,0,0c0,0,0,0,0,0v0.3h0c0.1,0.4,0.5,0.8,1,0.8c0.5,0,0.9-0.3,1-0.8h26.6l6.6,6.6v6l-6.6,7.2H15.3c-0.1-0.4-0.5-0.8-1-0.8
		c-0.5,0-0.9,0.3-1,0.8h0v0.3c0,0,0,0,0,0s0,0,0,0v0.3h0c0.1,0.4,0.5,0.8,1,0.8C14.8,106.8,15.2,106.5,15.3,106.1z M41.2,144.3
		v-23.4l-5.2-5.2H18.7c-0.1-0.4-0.5-0.8-1-0.8c-0.5,0-0.9,0.3-1,0.8h0v0.3c0,0,0,0,0,0c0,0,0,0,0,0v0.3h0c0.1,0.4,0.5,0.8,1,0.8
		c0.5,0,0.9-0.3,1-0.8h17l4.9,4.9v23.2c-0.4,0.1-0.8,0.5-0.8,1s0.3,0.9,0.8,1v0h0.6v0c0.4-0.1,0.8-0.5,0.8-1S41.6,144.5,41.2,144.3z
		 M36.1,140.4v-16.7l-3-3H21.5c-0.1-0.4-0.5-0.8-1-0.8c-0.5,0-0.9,0.3-1,0.8h0v0.3c0,0,0,0,0,0c0,0,0,0,0,0v0.3h0
		c0.1,0.4,0.5,0.8,1,0.8c0.5,0,0.9-0.3,1-0.8h11.4l2.7,2.7v16.4c-0.4,0.1-0.8,0.5-0.8,1c0,0.5,0.3,0.9,0.8,1v0h0.6v0
		c0.4-0.1,0.8-0.5,0.8-1C36.9,140.9,36.5,140.5,36.1,140.4z M31,135.3v-9.5h-6.7c-0.1-0.4-0.5-0.8-1-0.8c-0.5,0-0.9,0.3-1,0.8h0v0.3
		c0,0,0,0,0,0c0,0,0,0,0,0v0.3h0c0.1,0.4,0.5,0.8,1,0.8c0.5,0,0.9-0.3,1-0.8h6.1v8.9c-0.4,0.1-0.8,0.5-0.8,1c0,0.5,0.3,0.9,0.8,1v0
		H31v0c0.4-0.1,0.8-0.5,0.8-1C31.8,135.8,31.4,135.4,31,135.3z M14.2,101h23.5l4.2-5.4L37,90.3H12.5c-0.1-0.4-0.5-0.8-1-0.8
		c-0.5,0-0.9,0.3-1,0.8h0v0.3c0,0,0,0,0,0c0,0,0,0,0,0v0.3h0c0.1,0.4,0.5,0.8,1,0.8c0.5,0,0.9-0.3,1-0.8h24.3l4.3,4.8l-3.7,4.8H14.2
		c-0.1-0.4-0.5-0.8-1-0.8c-0.5,0-0.9,0.3-1,0.8h0v0.3c0,0,0,0,0,0c0,0,0,0,0,0v0.3h0c0.1,0.4,0.5,0.8,1,0.8
		C13.6,101.8,14,101.4,14.2,101z M11,75.6L11,75.6c0.2,0.4,0.6,0.8,1.1,0.8c0.5,0,0.9-0.3,1-0.8h22.9l5.2-5.2v-8.2
		c0.4-0.1,0.8-0.5,0.8-1s-0.3-0.9-0.8-1v0h-0.6v0c-0.4,0.1-0.8,0.5-0.8,1c0,0.5,0.3,0.9,0.8,1v8L35.7,75H13c-0.1-0.4-0.5-0.8-1-0.8
		c-0.5,0-0.9,0.3-1,0.8h0v0.3c0,0,0,0,0,0s0,0,0,0V75.6z M12.1,70.5L12.1,70.5c0.2,0.4,0.6,0.8,1.1,0.8c0.5,0,0.9-0.3,1-0.8h18.4
		l3.6-3.6v-4.8c0.4-0.1,0.8-0.5,0.8-1s-0.3-0.9-0.8-1v0h-0.6v0c-0.4,0.1-0.8,0.5-0.8,1c0,0.5,0.3,0.9,0.8,1v4.6l-3.2,3.2H14.2
		c-0.1-0.4-0.5-0.8-1-0.8c-0.5,0-0.9,0.3-1,0.8h0v0.3c0,0,0,0,0,0c0,0,0,0,0,0V70.5z M13.2,65.4L13.2,65.4c0.2,0.4,0.6,0.8,1.1,0.8
		c0.5,0,0.9-0.3,1-0.8H31v-3.3c0.4-0.1,0.8-0.5,0.8-1s-0.3-0.9-0.8-1v0h-0.6v0c-0.4,0.1-0.8,0.5-0.8,1c0,0.5,0.3,0.9,0.8,1v2.7H15.3
		c-0.1-0.4-0.5-0.8-1-0.8c-0.5,0-0.9,0.3-1,0.8h0v0.3c0,0,0,0,0,0c0,0,0,0,0,0V65.4z M25.6,40L25.6,40c0.2,0.4,0.6,0.8,1.1,0.8
		c0.5,0,0.9-0.3,1-0.8h33.4l4.9,4.9v4.8l-5.1,5.1v15.5l3.7,3.7c-0.2,0.4-0.2,0.9,0.2,1.3c0.3,0.3,0.9,0.4,1.3,0.2l0,0l0.4-0.4l0,0
		c0.2-0.4,0.2-0.9-0.2-1.3c-0.3-0.3-0.9-0.4-1.3-0.2l-3.5-3.5V63l3.1,3.1c-0.2,0.4-0.2,0.9,0.2,1.3c0.3,0.3,0.9,0.4,1.3,0.2l0,0
		l0.4-0.4l0,0c0.2-0.4,0.2-0.9-0.2-1.3c-0.3-0.3-0.9-0.4-1.3-0.2l-3.5-3.5v-7.1l5.1-5.1v-5.3l-5.2-5.2H27.7c-0.1-0.4-0.5-0.8-1-0.8
		c-0.5,0-0.9,0.3-1,0.8h0v0.3c0,0,0,0,0,0c0,0,0,0,0,0V40z M40.9,24.8L40.9,24.8c0.2,0.4,0.6,0.8,1.1,0.8c0.5,0,0.9-0.3,1-0.8h18.4
		l5.2-5.2v-5.4c0.4-0.1,0.8-0.5,0.8-1s-0.3-0.9-0.8-1v0H66v0c-0.4,0.1-0.8,0.5-0.8,1c0,0.5,0.3,0.9,0.8,1v5.1l-4.9,4.9H42.9
		c-0.1-0.4-0.5-0.8-1-0.8c-0.5,0-0.9,0.3-1,0.8h0v0.3c0,0,0,0,0,0c0,0,0,0,0,0V24.8z M48.8,19.7L48.8,19.7c0.2,0.4,0.6,0.8,1.1,0.8
		c0.5,0,0.9-0.3,1-0.8h10.6v-3.8c0.4-0.1,0.8-0.5,0.8-1s-0.3-0.9-0.8-1v0h-0.6v0c-0.4,0.1-0.8,0.5-0.8,1c0,0.5,0.3,0.9,0.8,1v3.3
		H50.8c-0.1-0.4-0.5-0.8-1-0.8c-0.5,0-0.9,0.3-1,0.8h0v0.3c0,0,0,0,0,0s0,0,0,0V19.7z M71.1,12.5v4.2l8.8,8.8
		c-0.2,0.4-0.2,0.9,0.2,1.3c0.3,0.3,0.9,0.4,1.3,0.2l0,0l0.4-0.4l0,0c0.2-0.4,0.2-0.9-0.2-1.3c-0.3-0.3-0.9-0.4-1.3-0.2l-8.6-8.6v-4
		c0.4-0.1,0.8-0.5,0.8-1s-0.3-0.9-0.8-1v0h-0.6v0c-0.4,0.1-0.8,0.5-0.8,1C70.3,11.9,70.6,12.3,71.1,12.5z"/>
</g>
<g>
	<defs>
		<rect id="SVGID_4_" y="106.9" width="171" height="64.1"/>
	</defs>
	<clipPath id="SVGID_5_">
		<use xlink:href="#SVGID_4_"  style="overflow:visible;"/>
	</clipPath>
	<linearGradient id="SVGID_6_" gradientUnits="userSpaceOnUse" x1="32.4672" y1="31.3384" x2="140.7054" y2="139.5766">
		<stop  offset="0" style="stop-color:#A8A8D3"/>
		<stop  offset="1" style="stop-color:#4C5FAA"/>
	</linearGradient>
	<path class="st1" d="M116.8,75.2l-10.2,10.2v20.6l10.2,10.2v23.2c-0.4,0.1-0.8,0.5-0.8,1s0.3,0.9,0.8,1v0h0.6v0
		c0.4-0.1,0.8-0.5,0.8-1s-0.3-0.9-0.8-1v-23.4l-10.2-10.2V85.6l10.2-10.2V45.1h30.9c0.1,0.4,0.5,0.8,1,0.8c0.5,0,0.9-0.3,1-0.8h0
		v-0.6h0c-0.1-0.4-0.5-0.8-1-0.8c-0.5,0-0.9,0.3-1,0.8h-31.5V75.2z M162.7,80.1c-0.1-0.4-0.5-0.8-1-0.8s-0.9,0.3-1,0.8h-28.5
		l-10.3,10.3v10.4l10.3,10.3h24c0.1,0.4,0.5,0.8,1,0.8c0.5,0,0.9-0.3,1-0.8h0v-0.6h0c-0.1-0.4-0.5-0.8-1-0.8c-0.5,0-0.9,0.3-1,0.8
		h-23.8l-10-10v-9.9l10-10h28.3c0.1,0.4,0.5,0.8,1,0.8s0.9-0.3,1-0.8h0L162.7,80.1L162.7,80.1z M142.7,62.1c0.4-0.1,0.8-0.5,0.8-1
		s-0.3-0.9-0.8-1v0h-0.6v0c-0.4,0.1-0.8,0.5-0.8,1c0,0.5,0.3,0.9,0.8,1v3.3h15.7c0.1,0.4,0.5,0.8,1,0.8c0.5,0,0.9-0.3,1-0.8h0v-0.6
		h0c-0.1-0.4-0.5-0.8-1-0.8c-0.5,0-0.9,0.3-1,0.8h-15.1V62.1z M106.6,44.7V50l5.1,5.1v7.1l-3.5,3.5c-0.4-0.2-0.9-0.2-1.3,0.2
		c-0.3,0.3-0.4,0.9-0.2,1.3l0,0l0.2,0.2c0,0,0,0,0,0c0,0,0,0,0,0l0.2,0.2l0,0c0.4,0.2,0.9,0.2,1.3-0.2c0.3-0.3,0.4-0.9,0.2-1.3
		l3.1-3.1v7.1l-3.5,3.5c-0.4-0.2-0.9-0.2-1.3,0.2c-0.3,0.3-0.4,0.9-0.2,1.3l0,0l0.2,0.2c0,0,0,0,0,0c0,0,0,0,0,0l0.2,0.2l0,0
		c0.4,0.2,0.9,0.2,1.3-0.2c0.3-0.3,0.4-0.9,0.2-1.3l3.7-3.7V54.9l-5.1-5.1v-4.8l4.9-4.9h33.4c0.1,0.4,0.5,0.8,1,0.8s0.9-0.3,1-0.8h0
		v-0.6h0c-0.1-0.4-0.5-0.8-1-0.8s-0.9,0.3-1,0.8h-33.6L106.6,44.7z M122.1,151.1c-0.3-0.3-0.9-0.4-1.3-0.2l-18.8-18.8V39.9l4.9-4.9
		h33.4c0.1,0.4,0.5,0.8,1,0.8c0.5,0,0.9-0.3,1-0.8h0v-0.6h0c-0.1-0.4-0.5-0.8-1-0.8c-0.5,0-0.9,0.3-1,0.8h-33.6l-5.2,5.2v92.8
		l18.9,18.9c-0.2,0.4-0.2,0.9,0.2,1.3c0.3,0.3,0.9,0.4,1.3,0.2l0,0l0.4-0.4l0,0C122.5,152,122.5,151.5,122.1,151.1z M112,155.1
		c-0.3-0.3-0.9-0.4-1.3-0.2l-18.8-18.8V34.8l8.6-8.6c0.4,0.2,0.9,0.2,1.3-0.2c0.3-0.3,0.4-0.9,0.2-1.3l0,0l-0.4-0.4l0,0
		c-0.4-0.2-0.9-0.2-1.3,0.2c-0.3,0.3-0.4,0.9-0.2,1.3l-8.8,8.8v101.8l18.9,18.9c-0.2,0.4-0.2,0.9,0.2,1.3c0.3,0.3,0.9,0.4,1.3,0.2
		l0,0l0.4-0.4l0,0C112.4,155.9,112.3,155.4,112,155.1z M117.1,153.4c-0.3-0.3-0.9-0.4-1.3-0.2L97,134.4V37.6l7.7-7.7h31.7
		c0.1,0.4,0.5,0.8,1,0.8c0.5,0,0.9-0.3,1-0.8h0v-0.6h0c-0.1-0.4-0.5-0.8-1-0.8c-0.5,0-0.9,0.3-1,0.8h-31.9l-8.1,8.1v97.3l18.9,18.9
		c-0.2,0.4-0.2,0.9,0.2,1.3c0.3,0.3,0.9,0.4,1.3,0.2l0,0l0.4-0.4l0,0C117.5,154.2,117.4,153.7,117.1,153.4z M122.4,144.3v-30.2
		L112.3,104V87.8l10.2-10.2V50.2h29.8c0.1,0.4,0.5,0.8,1,0.8s0.9-0.3,1-0.8h0v-0.6h0c-0.1-0.4-0.5-0.8-1-0.8s-0.9,0.3-1,0.8h-30.4
		v27.8l-10.2,10.2v16.6l10.2,10.2v30c-0.4,0.1-0.8,0.5-0.8,1s0.3,0.9,0.8,1v0h0.6v0c0.4-0.1,0.8-0.5,0.8-1S122.9,144.5,122.4,144.3z
		 M127.5,149.4v-37.5l-10.2-10.2V90.1l10.2-10.2V55.3h27c0.1,0.4,0.5,0.8,1,0.8c0.5,0,0.9-0.3,1-0.8h0v-0.6h0
		c-0.1-0.4-0.5-0.8-1-0.8c-0.5,0-0.9,0.3-1,0.8h-27.6v25l-10.2,10.2v12.1l10.2,10.2v37.3c-0.4,0.1-0.8,0.5-0.8,1
		c0,0.5,0.3,0.9,0.8,1v0h0.6v0c0.4-0.1,0.8-0.5,0.8-1S128,149.5,127.5,149.4z M161.7,84.4c-0.5,0-0.9,0.3-1,0.8h-26.8l-6.9,6.9v6.4
		l6.9,7.5h24c0.1,0.4,0.5,0.8,1,0.8c0.5,0,0.9-0.3,1-0.8h0v-0.6h0c-0.1-0.4-0.5-0.8-1-0.8c-0.5,0-0.9,0.3-1,0.8h-23.8l-6.6-7.2v-6
		l6.6-6.6h26.6c0.1,0.4,0.5,0.8,1,0.8s0.9-0.3,1-0.8h0v-0.6h0C162.6,84.7,162.2,84.4,161.7,84.4z M155.5,114.9c-0.5,0-0.9,0.3-1,0.8
		h-17.2l-5.2,5.2v23.4c-0.4,0.1-0.8,0.5-0.8,1s0.3,0.9,0.8,1v0h0.6v0c0.4-0.1,0.8-0.5,0.8-1s-0.3-0.9-0.8-1v-23.2l4.9-4.9h17
		c0.1,0.4,0.5,0.8,1,0.8c0.5,0,0.9-0.3,1-0.8h0v-0.6h0C156.4,115.2,156,114.9,155.5,114.9z M152.7,120c-0.5,0-0.9,0.3-1,0.8h-11.6
		l-3,3v16.7c-0.4,0.1-0.8,0.5-0.8,1c0,0.5,0.3,0.9,0.8,1v0h0.6v0c0.4-0.1,0.8-0.5,0.8-1c0-0.5-0.3-0.9-0.8-1V124l2.7-2.7h11.3
		c0.1,0.4,0.5,0.8,1,0.8c0.5,0,0.9-0.3,1-0.8h0v-0.6h0C153.6,120.3,153.2,120,152.7,120z M149.9,125c-0.5,0-0.9,0.3-1,0.8h-6.7v9.5
		c-0.4,0.1-0.8,0.5-0.8,1c0,0.5,0.3,0.9,0.8,1v0h0.6v0c0.4-0.1,0.8-0.5,0.8-1c0-0.5-0.3-0.9-0.8-1v-8.9h6.1c0.1,0.4,0.5,0.8,1,0.8
		s0.9-0.3,1-0.8h0v-0.6h0C150.8,125.4,150.4,125,149.9,125z M161.7,89.5c-0.5,0-0.9,0.3-1,0.8h-24.6l-4.8,5.3l4.2,5.4H159
		c0.1,0.4,0.5,0.8,1,0.8s0.9-0.3,1-0.8h0v-0.6h0c-0.1-0.4-0.5-0.8-1-0.8s-0.9,0.3-1,0.8h-23.2l-3.7-4.8l4.3-4.8h24.3
		c0.1,0.4,0.5,0.8,1,0.8s0.9-0.3,1-0.8h0v-0.6h0C162.6,89.8,162.2,89.5,161.7,89.5z M160.1,75h-22.6l-4.9-4.9v-8
		c0.4-0.1,0.8-0.5,0.8-1s-0.3-0.9-0.8-1v0H132v0c-0.4,0.1-0.8,0.5-0.8,1c0,0.5,0.3,0.9,0.8,1v8.2l5.2,5.2h22.9
		c0.1,0.4,0.5,0.8,1,0.8c0.5,0,0.9-0.3,1-0.8h0V75h0c-0.1-0.4-0.5-0.8-1-0.8C160.7,74.2,160.3,74.6,160.1,75z M159,69.9h-18.1
		l-3.2-3.2v-4.6c0.4-0.1,0.8-0.5,0.8-1s-0.3-0.9-0.8-1v0h-0.6v0c-0.4,0.1-0.8,0.5-0.8,1c0,0.5,0.3,0.9,0.8,1v4.8l3.6,3.6H159
		c0.1,0.4,0.5,0.8,1,0.8s0.9-0.3,1-0.8h0v-0.6h0c-0.1-0.4-0.5-0.8-1-0.8S159.1,69.5,159,69.9z M106.6,14.2v5.4l5.2,5.2h18.4
		c0.1,0.4,0.5,0.8,1,0.8c0.5,0,0.9-0.3,1-0.8h0v-0.6h0c-0.1-0.4-0.5-0.8-1-0.8c-0.5,0-0.9,0.3-1,0.8h-18.1l-4.9-4.9v-5.1
		c0.4-0.1,0.8-0.5,0.8-1s-0.3-0.9-0.8-1v0h-0.6v0c-0.4,0.1-0.8,0.5-0.8,1C105.8,13.6,106.2,14,106.6,14.2z M111.7,15.9v3.8h10.6
		c0.1,0.4,0.5,0.8,1,0.8c0.5,0,0.9-0.3,1-0.8h0v-0.6h0c-0.1-0.4-0.5-0.8-1-0.8c-0.5,0-0.9,0.3-1,0.8h-10.1v-3.3
		c0.4-0.1,0.8-0.5,0.8-1s-0.3-0.9-0.8-1v0h-0.6v0c-0.4,0.1-0.8,0.5-0.8,1C110.9,15.3,111.3,15.7,111.7,15.9z M106.9,157.3
		c-0.3-0.3-0.9-0.4-1.3-0.2l-12.3-12.3c0.2-0.4,0.2-0.9-0.2-1.3c-0.3-0.3-0.9-0.4-1.3-0.2l0,0l-0.2,0.2c0,0,0,0,0,0s0,0,0,0
		l-0.2,0.2l0,0c-0.2,0.4-0.2,0.9,0.2,1.3c0.3,0.3,0.9,0.4,1.3,0.2l12.3,12.3c-0.2,0.4-0.2,0.9,0.2,1.3c0.3,0.3,0.9,0.4,1.3,0.2l0,0
		l0.4-0.4l0,0C107.3,158.2,107.2,157.7,106.9,157.3z M101,158.8c-0.4-0.3-0.9-0.4-1.3-0.1l-12.9-12.3V24.6l8.6-8.6
		c0.4,0.2,0.9,0.2,1.3-0.2c0.3-0.3,0.4-0.9,0.2-1.3l0,0l-0.4-0.4l0,0c-0.4-0.2-0.9-0.2-1.3,0.2c-0.3,0.3-0.4,0.9-0.2,1.3l-8.5,8.5
		l-8.5-8.5c0.2-0.4,0.2-0.9-0.2-1.3c-0.3-0.3-0.9-0.4-1.3-0.2l0,0l-0.2,0.2c0,0,0,0,0,0c0,0,0,0,0,0l-0.2,0.2l0,0
		c-0.2,0.4-0.2,0.9,0.2,1.3c0.3,0.3,0.9,0.4,1.3,0.2l8.6,8.6v121.7l-12.9,12.3c-0.4-0.2-0.9-0.2-1.3,0.1c-0.4,0.3-0.4,0.9-0.2,1.3
		l0,0l0.2,0.2c0,0,0,0,0,0c0,0,0,0,0,0l0.2,0.2l0,0c0.4,0.2,0.9,0.2,1.3-0.1c0.4-0.3,0.4-0.9,0.2-1.3l12.7-12.2L99.3,159
		c-0.2,0.4-0.2,0.9,0.2,1.3c0.4,0.3,0.9,0.4,1.3,0.1l0,0l0.2-0.2c0,0,0,0,0,0c0,0,0,0,0,0l0.2-0.2l0,0
		C101.4,159.6,101.3,159.1,101,158.8z M112,119.5c-0.3-0.3-0.9-0.4-1.3-0.2l-3.5-3.5v-1.8c0.4-0.1,0.8-0.5,0.8-1
		c0-0.5-0.3-0.9-0.8-1v0h-0.6v0c-0.4,0.1-0.8,0.5-0.8,1c0,0.5,0.3,0.9,0.8,1v15.5l3.7,3.7c-0.2,0.4-0.2,0.9,0.2,1.3
		c0.3,0.3,0.9,0.4,1.3,0.2l0,0l0.4-0.4l0,0c0.2-0.4,0.2-0.9-0.2-1.3c-0.3-0.3-0.9-0.4-1.3-0.2l-3.5-3.5v-6l3.1,3.1
		c-0.2,0.4-0.2,0.9,0.2,1.3c0.3,0.3,0.9,0.4,1.3,0.2l0,0l0.4-0.4l0,0c0.2-0.4,0.2-0.9-0.2-1.3c-0.3-0.3-0.9-0.4-1.3-0.2l-3.5-3.5v-6
		l3.1,3.1c-0.2,0.4-0.2,0.9,0.2,1.3c0.3,0.3,0.9,0.4,1.3,0.2l0,0l0.4-0.4l0,0C112.4,120.4,112.3,119.9,112,119.5z M101.5,12.5v4
		l-8.6,8.6c-0.4-0.2-0.9-0.2-1.3,0.2c-0.3,0.3-0.4,0.9-0.2,1.3l0,0l0.2,0.2c0,0,0,0,0,0s0,0,0,0l0.2,0.2l0,0
		c0.4,0.2,0.9,0.2,1.3-0.2c0.3-0.3,0.4-0.9,0.2-1.3l8.8-8.8v-4.2c0.4-0.1,0.8-0.5,0.8-1s-0.3-0.9-0.8-1v0h-0.6v0
		c-0.4,0.1-0.8,0.5-0.8,1C100.8,11.9,101.1,12.3,101.5,12.5z M71.6,132.4V39.6l-5.2-5.2H32.8c-0.1-0.4-0.5-0.8-1-0.8
		c-0.5,0-0.9,0.3-1,0.8h0v0.3c0,0,0,0,0,0s0,0,0,0v0.3h0c0.1,0.4,0.5,0.8,1,0.8c0.5,0,0.9-0.3,1-0.8h33.4l4.9,4.9v92.3L52.3,151
		c-0.4-0.2-0.9-0.2-1.3,0.2c-0.3,0.3-0.4,0.9-0.2,1.3l0,0l0.2,0.2c0,0,0,0,0,0c0,0,0,0,0,0l0.2,0.2l0,0c0.4,0.2,0.9,0.2,1.3-0.2
		c0.3-0.3,0.4-0.9,0.2-1.3L71.6,132.4z M81.8,136.4V34.5L73,25.8c0.2-0.4,0.2-0.9-0.2-1.3c-0.3-0.3-0.9-0.4-1.3-0.2l0,0l-0.2,0.2
		c0,0,0,0,0,0s0,0,0,0l-0.2,0.2l0,0c-0.2,0.4-0.2,0.9,0.2,1.3c0.3,0.3,0.9,0.4,1.3,0.2l8.6,8.6v101.4l-18.8,18.8
		c-0.4-0.2-0.9-0.2-1.3,0.2c-0.3,0.3-0.4,0.9-0.2,1.3l0,0l0.2,0.2c0,0,0,0,0,0c0,0,0,0,0,0l0.2,0.2l0,0c0.4,0.2,0.9,0.2,1.3-0.2
		c0.3-0.3,0.4-0.9,0.2-1.3L81.8,136.4z M76.7,134.7V37.4l-8.1-8.1H36.7c-0.1-0.4-0.5-0.8-1-0.8c-0.5,0-0.9,0.3-1,0.8h0v0.3
		c0,0,0,0,0,0c0,0,0,0,0,0v0.3h0c0.1,0.4,0.5,0.8,1,0.8c0.5,0,0.9-0.3,1-0.8h31.7l7.7,7.7v96.8l-18.8,18.8c-0.4-0.2-0.9-0.2-1.3,0.2
		c-0.3,0.3-0.4,0.9-0.2,1.3l0,0l0.2,0.2c0,0,0,0,0,0c0,0,0,0,0,0l0.2,0.2l0,0c0.4,0.2,0.9,0.2,1.3-0.2c0.3-0.3,0.4-0.9,0.2-1.3
		L76.7,134.7z M50.7,146.4h0.6v0c0.4-0.1,0.8-0.5,0.8-1s-0.3-0.9-0.8-1v-30l10.2-10.2V87.6L51.3,77.4V49.6H20.9
		c-0.1-0.4-0.5-0.8-1-0.8c-0.5,0-0.9,0.3-1,0.8h0v0.3c0,0,0,0,0,0s0,0,0,0v0.3h0c0.1,0.4,0.5,0.8,1,0.8c0.5,0,0.9-0.3,1-0.8h29.8
		v27.5l10.2,10.2V104l-10.2,10.2v30.2c-0.4,0.1-0.8,0.5-0.8,1S50.3,146.2,50.7,146.4L50.7,146.4z M66.5,114.1c0.4-0.1,0.8-0.5,0.8-1
		c0-0.5-0.3-0.9-0.8-1v0H66v0c-0.4,0.1-0.8,0.5-0.8,1c0,0.5,0.3,0.9,0.8,1v1.8l-3.5,3.5c-0.4-0.2-0.9-0.2-1.3,0.2
		c-0.3,0.3-0.4,0.9-0.2,1.3l0,0l0.2,0.2c0,0,0,0,0,0c0,0,0,0,0,0l0.2,0.2l0,0c0.4,0.2,0.9,0.2,1.3-0.2c0.3-0.3,0.4-0.9,0.2-1.3
		l3.1-3.1v6l-3.5,3.5c-0.4-0.2-0.9-0.2-1.3,0.2c-0.3,0.3-0.4,0.9-0.2,1.3l0,0l0.2,0.2c0,0,0,0,0,0c0,0,0,0,0,0l0.2,0.2l0,0
		c0.4,0.2,0.9,0.2,1.3-0.2c0.3-0.3,0.4-0.9,0.2-1.3l3.1-3.1v6l-3.5,3.5c-0.4-0.2-0.9-0.2-1.3,0.2c-0.3,0.3-0.4,0.9-0.2,1.3l0,0
		l0.2,0.2c0,0,0,0,0,0c0,0,0,0,0,0l0.2,0.2l0,0c0.4,0.2,0.9,0.2,1.3-0.2c0.3-0.3,0.4-0.9,0.2-1.3l3.7-3.7V114.1z M80.2,145.3
		c0.4,0.2,0.9,0.2,1.3-0.2c0.3-0.3,0.4-0.9,0.2-1.3l0,0l-0.4-0.4l0,0c-0.4-0.2-0.9-0.2-1.3,0.2c-0.3,0.3-0.4,0.9-0.2,1.3l-12.3,12.3
		c-0.4-0.2-0.9-0.2-1.3,0.2c-0.3,0.3-0.4,0.9-0.2,1.3l0,0l0.2,0.2c0,0,0,0,0,0c0,0,0,0,0,0l0.2,0.2l0,0c0.4,0.2,0.9,0.2,1.3-0.2
		c0.3-0.3,0.4-0.9,0.2-1.3L80.2,145.3z M22.8,45.1L22.8,45.1c0.2,0.4,0.6,0.8,1.1,0.8c0.5,0,0.9-0.3,1-0.8h30.9v30.3L66,85.6v20.1
		l-10.2,10.2v23.4c-0.4,0.1-0.8,0.5-0.8,1s0.3,0.9,0.8,1v0h0.6v0c0.4-0.1,0.8-0.5,0.8-1s-0.3-0.9-0.8-1v-23.2l10.2-10.2V85.3
		L56.4,75.2V44.5H24.9c-0.1-0.4-0.5-0.8-1-0.8c-0.5,0-0.9,0.3-1,0.8h0v0.3c0,0,0,0,0,0s0,0,0,0V45.1z M46.2,149.4v-37.3l10.2-10.2
		V89.9L46.2,79.7v-25H18.7c-0.1-0.4-0.5-0.8-1-0.8c-0.5,0-0.9,0.3-1,0.8h0V55c0,0,0,0,0,0c0,0,0,0,0,0v0.3h0c0.1,0.4,0.5,0.8,1,0.8
		c0.5,0,0.9-0.3,1-0.8h27v24.7l10.2,10.2v11.6l-10.2,10.2v37.5c-0.4,0.1-0.8,0.5-0.8,1c0,0.5,0.3,0.9,0.8,1v0h0.6v0
		c0.4-0.1,0.8-0.5,0.8-1S46.7,149.5,46.2,149.4z M17,111.1h24l10.3-10.3V90.4L41,80.1H12.5c-0.1-0.4-0.5-0.8-1-0.8
		c-0.5,0-0.9,0.3-1,0.8h0v0.3c0,0,0,0,0,0c0,0,0,0,0,0v0.3h0c0.1,0.4,0.5,0.8,1,0.8c0.5,0,0.9-0.3,1-0.8h28.3l10,10v9.9l-10,10H17
		c-0.1-0.4-0.5-0.8-1-0.8c-0.5,0-0.9,0.3-1,0.8h0v0.3c0,0,0,0,0,0c0,0,0,0,0,0v0.3h0c0.1,0.4,0.5,0.8,1,0.8
		C16.5,111.9,16.9,111.6,17,111.1z M15.3,106.1h24l6.9-7.5v-6.4l-6.9-6.9H12.5c-0.1-0.4-0.5-0.8-1-0.8c-0.5,0-0.9,0.3-1,0.8h0v0.3
		c0,0,0,0,0,0c0,0,0,0,0,0v0.3h0c0.1,0.4,0.5,0.8,1,0.8c0.5,0,0.9-0.3,1-0.8h26.6l6.6,6.6v6l-6.6,7.2H15.3c-0.1-0.4-0.5-0.8-1-0.8
		c-0.5,0-0.9,0.3-1,0.8h0v0.3c0,0,0,0,0,0s0,0,0,0v0.3h0c0.1,0.4,0.5,0.8,1,0.8C14.8,106.8,15.2,106.5,15.3,106.1z M41.2,144.3
		v-23.4l-5.2-5.2H18.7c-0.1-0.4-0.5-0.8-1-0.8c-0.5,0-0.9,0.3-1,0.8h0v0.3c0,0,0,0,0,0c0,0,0,0,0,0v0.3h0c0.1,0.4,0.5,0.8,1,0.8
		c0.5,0,0.9-0.3,1-0.8h17l4.9,4.9v23.2c-0.4,0.1-0.8,0.5-0.8,1s0.3,0.9,0.8,1v0h0.6v0c0.4-0.1,0.8-0.5,0.8-1S41.6,144.5,41.2,144.3z
		 M36.1,140.4v-16.7l-3-3H21.5c-0.1-0.4-0.5-0.8-1-0.8c-0.5,0-0.9,0.3-1,0.8h0v0.3c0,0,0,0,0,0c0,0,0,0,0,0v0.3h0
		c0.1,0.4,0.5,0.8,1,0.8c0.5,0,0.9-0.3,1-0.8h11.4l2.7,2.7v16.4c-0.4,0.1-0.8,0.5-0.8,1c0,0.5,0.3,0.9,0.8,1v0h0.6v0
		c0.4-0.1,0.8-0.5,0.8-1C36.9,140.9,36.5,140.5,36.1,140.4z M31,135.3v-9.5h-6.7c-0.1-0.4-0.5-0.8-1-0.8c-0.5,0-0.9,0.3-1,0.8h0v0.3
		c0,0,0,0,0,0c0,0,0,0,0,0v0.3h0c0.1,0.4,0.5,0.8,1,0.8c0.5,0,0.9-0.3,1-0.8h6.1v8.9c-0.4,0.1-0.8,0.5-0.8,1c0,0.5,0.3,0.9,0.8,1v0
		H31v0c0.4-0.1,0.8-0.5,0.8-1C31.8,135.8,31.4,135.4,31,135.3z M14.2,101h23.5l4.2-5.4L37,90.3H12.5c-0.1-0.4-0.5-0.8-1-0.8
		c-0.5,0-0.9,0.3-1,0.8h0v0.3c0,0,0,0,0,0c0,0,0,0,0,0v0.3h0c0.1,0.4,0.5,0.8,1,0.8c0.5,0,0.9-0.3,1-0.8h24.3l4.3,4.8l-3.7,4.8H14.2
		c-0.1-0.4-0.5-0.8-1-0.8c-0.5,0-0.9,0.3-1,0.8h0v0.3c0,0,0,0,0,0c0,0,0,0,0,0v0.3h0c0.1,0.4,0.5,0.8,1,0.8
		C13.6,101.8,14,101.4,14.2,101z M11,75.6L11,75.6c0.2,0.4,0.6,0.8,1.1,0.8c0.5,0,0.9-0.3,1-0.8h22.9l5.2-5.2v-8.2
		c0.4-0.1,0.8-0.5,0.8-1s-0.3-0.9-0.8-1v0h-0.6v0c-0.4,0.1-0.8,0.5-0.8,1c0,0.5,0.3,0.9,0.8,1v8L35.7,75H13c-0.1-0.4-0.5-0.8-1-0.8
		c-0.5,0-0.9,0.3-1,0.8h0v0.3c0,0,0,0,0,0s0,0,0,0V75.6z M12.1,70.5L12.1,70.5c0.2,0.4,0.6,0.8,1.1,0.8c0.5,0,0.9-0.3,1-0.8h18.4
		l3.6-3.6v-4.8c0.4-0.1,0.8-0.5,0.8-1s-0.3-0.9-0.8-1v0h-0.6v0c-0.4,0.1-0.8,0.5-0.8,1c0,0.5,0.3,0.9,0.8,1v4.6l-3.2,3.2H14.2
		c-0.1-0.4-0.5-0.8-1-0.8c-0.5,0-0.9,0.3-1,0.8h0v0.3c0,0,0,0,0,0c0,0,0,0,0,0V70.5z M13.2,65.4L13.2,65.4c0.2,0.4,0.6,0.8,1.1,0.8
		c0.5,0,0.9-0.3,1-0.8H31v-3.3c0.4-0.1,0.8-0.5,0.8-1s-0.3-0.9-0.8-1v0h-0.6v0c-0.4,0.1-0.8,0.5-0.8,1c0,0.5,0.3,0.9,0.8,1v2.7H15.3
		c-0.1-0.4-0.5-0.8-1-0.8c-0.5,0-0.9,0.3-1,0.8h0v0.3c0,0,0,0,0,0c0,0,0,0,0,0V65.4z M25.6,40L25.6,40c0.2,0.4,0.6,0.8,1.1,0.8
		c0.5,0,0.9-0.3,1-0.8h33.4l4.9,4.9v4.8l-5.1,5.1v15.5l3.7,3.7c-0.2,0.4-0.2,0.9,0.2,1.3c0.3,0.3,0.9,0.4,1.3,0.2l0,0l0.4-0.4l0,0
		c0.2-0.4,0.2-0.9-0.2-1.3c-0.3-0.3-0.9-0.4-1.3-0.2l-3.5-3.5V63l3.1,3.1c-0.2,0.4-0.2,0.9,0.2,1.3c0.3,0.3,0.9,0.4,1.3,0.2l0,0
		l0.4-0.4l0,0c0.2-0.4,0.2-0.9-0.2-1.3c-0.3-0.3-0.9-0.4-1.3-0.2l-3.5-3.5v-7.1l5.1-5.1v-5.3l-5.2-5.2H27.7c-0.1-0.4-0.5-0.8-1-0.8
		c-0.5,0-0.9,0.3-1,0.8h0v0.3c0,0,0,0,0,0c0,0,0,0,0,0V40z M40.9,24.8L40.9,24.8c0.2,0.4,0.6,0.8,1.1,0.8c0.5,0,0.9-0.3,1-0.8h18.4
		l5.2-5.2v-5.4c0.4-0.1,0.8-0.5,0.8-1s-0.3-0.9-0.8-1v0H66v0c-0.4,0.1-0.8,0.5-0.8,1c0,0.5,0.3,0.9,0.8,1v5.1l-4.9,4.9H42.9
		c-0.1-0.4-0.5-0.8-1-0.8c-0.5,0-0.9,0.3-1,0.8h0v0.3c0,0,0,0,0,0c0,0,0,0,0,0V24.8z M48.8,19.7L48.8,19.7c0.2,0.4,0.6,0.8,1.1,0.8
		c0.5,0,0.9-0.3,1-0.8h10.6v-3.8c0.4-0.1,0.8-0.5,0.8-1s-0.3-0.9-0.8-1v0h-0.6v0c-0.4,0.1-0.8,0.5-0.8,1c0,0.5,0.3,0.9,0.8,1v3.3
		H50.8c-0.1-0.4-0.5-0.8-1-0.8c-0.5,0-0.9,0.3-1,0.8h0v0.3c0,0,0,0,0,0s0,0,0,0V19.7z M71.1,12.5v4.2l8.8,8.8
		c-0.2,0.4-0.2,0.9,0.2,1.3c0.3,0.3,0.9,0.4,1.3,0.2l0,0l0.4-0.4l0,0c0.2-0.4,0.2-0.9-0.2-1.3c-0.3-0.3-0.9-0.4-1.3-0.2l-8.6-8.6v-4
		c0.4-0.1,0.8-0.5,0.8-1s-0.3-0.9-0.8-1v0h-0.6v0c-0.4,0.1-0.8,0.5-0.8,1C70.3,11.9,70.6,12.3,71.1,12.5z"/>
</g>
<g>
	<path class="st2" d="M19.9,87.6v5.7h-2.6V77.7h4.5c2.9,0,4.8,1.7,4.8,4.9c0,3.2-1.8,5-4.8,5H19.9z M21.4,85.4
		c1.8,0,2.5-0.9,2.5-2.7c0-1.7-0.7-2.7-2.5-2.7h-1.6v5.4H21.4z"/>
	<path class="st2" d="M37.6,93.3L35.3,87h-2v6.3h-2.6V77.7h4.5c2.9,0,4.8,1.6,4.8,4.6c0,2.1-0.8,3.5-2.2,4.2l2.6,6.8H37.6z M35,84.7
		c1.6,0,2.4-0.6,2.4-2.3c0-1.8-0.8-2.4-2.4-2.4h-1.7v4.7H35z"/>
	<path class="st2" d="M43.2,93.3l4.4-15.6h2.6l4.4,15.6h-2.8L51,90.1h-4.2L46,93.3H43.2z M47.4,87.8h3l-1.5-6.1L47.4,87.8z"/>
	<path class="st2" d="M64.6,82.6c-0.2-1.9-0.9-2.8-2.2-2.8c-1.5,0-2.3,1.4-2.3,4.7v2c0,3.3,0.7,4.7,2.3,4.7c1.3,0,1.9-0.9,2.2-2.8
		h2.5c-0.5,3.5-2.1,5-4.6,5c-2.9,0-4.9-2.1-4.9-7v-2c0-4.9,2-7,4.9-7c2.5,0,4.2,1.6,4.6,5H64.6z"/>
	<path class="st2" d="M79.5,77.7V80H76v13.3h-2.6V80h-3.5v-2.3H79.5z"/>
	<path class="st2" d="M86.1,93.3h-2.6V77.7h2.6V93.3z"/>
	<path class="st2" d="M98,82.6c-0.2-1.9-0.9-2.8-2.2-2.8c-1.5,0-2.3,1.4-2.3,4.7v2c0,3.3,0.7,4.7,2.3,4.7c1.3,0,1.9-0.9,2.2-2.8h2.5
		c-0.5,3.5-2.1,5-4.6,5c-2.9,0-4.9-2.1-4.9-7v-2c0-4.9,2-7,4.9-7c2.5,0,4.2,1.6,4.6,5H98z"/>
	<path class="st2" d="M103.3,93.3l4.4-15.6h2.6l4.4,15.6h-2.8l-0.8-3.2h-4.2l-0.8,3.2H103.3z M107.4,87.8h3l-1.5-6.1L107.4,87.8z"/>
	<path class="st2" d="M121,91.1h5.3v2.3h-7.9V77.7h2.6V91.1z"/>
	<path class="st2" d="M135.7,93.3l4.4-15.6h2.6l4.4,15.6h-2.8l-0.8-3.2h-4.2l-0.8,3.2H135.7z M139.8,87.8h3l-1.5-6.1L139.8,87.8z"/>
	<path class="st2" d="M153.6,93.3H151V77.7h2.6V93.3z"/>
</g>
</svg>
