<svg xmlns="http://www.w3.org/2000/svg" xmlns:xlink="http://www.w3.org/1999/xlink" viewBox="0 0 360 360"><defs><style>.cls-1{fill:#121921;}.cls-2{fill:url(#linear-gradient);}.cls-3{fill:url(#linear-gradient-2);}.cls-4{fill:url(#linear-gradient-3);}.cls-5{fill:url(#linear-gradient-4);}.cls-6{fill:url(#linear-gradient-5);}.cls-7{fill:url(#linear-gradient-6);}.cls-8{fill:url(#linear-gradient-7);}.cls-9{fill:url(#linear-gradient-8);}.cls-10{fill:url(#linear-gradient-9);}.cls-11{fill:#fff;}.cls-12{fill:url(#New_Gradient_Swatch_15);}.cls-13{fill:url(#linear-gradient-10);}</style><linearGradient id="linear-gradient" x1="68.87" y1="68.87" x2="291.13" y2="291.13" gradientUnits="userSpaceOnUse"><stop offset="0" stop-color="#f49cc3"/><stop offset="1" stop-color="#e21c8e"/></linearGradient><linearGradient id="linear-gradient-2" x1="68.87" y1="68.87" x2="291.13" y2="291.13" xlink:href="#linear-gradient"/><linearGradient id="linear-gradient-3" x1="112.47" y1="112.47" x2="247.53" y2="247.53" xlink:href="#linear-gradient"/><linearGradient id="linear-gradient-4" x1="90.11" y1="90.11" x2="269.89" y2="269.89" xlink:href="#linear-gradient"/><linearGradient id="linear-gradient-5" x1="102.51" y1="102.51" x2="257.49" y2="257.49" xlink:href="#linear-gradient"/><linearGradient id="linear-gradient-6" x1="92.81" y1="92.81" x2="267.19" y2="267.19" xlink:href="#linear-gradient"/><linearGradient id="linear-gradient-7" x1="102.49" y1="102.49" x2="257.51" y2="257.51" xlink:href="#linear-gradient"/><linearGradient id="linear-gradient-8" x1="92.8" y1="92.8" x2="267.2" y2="267.2" xlink:href="#linear-gradient"/><linearGradient id="linear-gradient-9" x1="68.87" y1="68.87" x2="291.13" y2="291.13" xlink:href="#linear-gradient"/><linearGradient id="New_Gradient_Swatch_15" x1="303.75" y1="39.38" x2="332.67" y2="39.38" gradientUnits="userSpaceOnUse"><stop offset="0" stop-color="#e21c8e" stop-opacity="0"/><stop offset="1" stop-color="#e21c8e"/></linearGradient><linearGradient id="linear-gradient-10" x1="309.21" y1="39.38" x2="328.8" y2="39.38" gradientUnits="userSpaceOnUse"><stop offset="0" stop-color="#e21c8e"/><stop offset="1" stop-color="#e21c8e" stop-opacity="0"/></linearGradient></defs><title>request-for-commits-cover-art</title><g id="Layer_2" data-name="Layer 2"><g id="Layer_1-2" data-name="Layer 1"><rect class="cls-1" width="360" height="360"/><path class="cls-2" d="M274.87,307.13H85.13a.62.62,0,0,1-.5-1L179.22,180,84.63,53.87a.62.62,0,0,1,.5-1H274.87a.62.62,0,0,1,.5,1L180.78,180l94.59,126.13a.62.62,0,0,1-.5,1Zm-188.5-1.25H273.62L180,181Zm0-251.75L180,179,273.62,54.12Z"/><path class="cls-3" d="M306.5,275.5a.63.63,0,0,1-.37-.12L180,180.78,53.87,275.38a.63.63,0,0,1-1-.5V85.12a.63.63,0,0,1,1-.5L180,179.22,306.13,84.62a.64.64,0,0,1,.65-.06.63.63,0,0,1,.35.56V274.88a.62.62,0,0,1-.62.63ZM181,180l124.83,93.63V86.37ZM54.12,86.37V273.63L179,180Z"/><path class="cls-4" d="M157.64,337.16a.62.62,0,0,1-.44-.18L23,202.8a.63.63,0,0,1,.35-1.06l156.07-22.3,22.3-156.07A.62.62,0,0,1,202.8,23L337,157.2a.63.63,0,0,1-.35,1.06l-156.07,22.3-22.3,156.07a.63.63,0,0,1-.42.51A.65.65,0,0,1,157.64,337.16ZM24.79,202.8,157.2,335.21l22.07-154.47Zm178-178L180.74,179.26,335.21,157.2Z"/><path class="cls-5" d="M202.36,337.16a.65.65,0,0,1-.2,0,.63.63,0,0,1-.42-.51l-22.3-156.07L23.38,158.26A.63.63,0,0,1,23,157.2L157.2,23a.62.62,0,0,1,1.06.35l22.3,156.07,156.07,22.3a.63.63,0,0,1,.35,1.06L202.8,337A.62.62,0,0,1,202.36,337.16ZM180.74,180.74,202.8,335.21,335.21,202.8ZM24.79,157.2l154.47,22.07L157.2,24.79Z"/><path class="cls-6" d="M211.41,303.31a.63.63,0,0,1-.24,0L70.77,245.08a.63.63,0,0,1-.08-1.12L179.28,179.7,148,57.47a.63.63,0,0,1,.2-.63.63.63,0,0,1,.65-.1l140.39,58.19a.63.63,0,0,1,.08,1.12L180.72,180.3,212,302.53a.62.62,0,0,1-.61.78Zm-139-58.91,138.08,57.23L179.6,181Zm77.1-186L180.4,179l107.2-63.44Z"/><path class="cls-7" d="M244.5,289.61a.63.63,0,0,1-.54-.31L179.7,180.72,57.47,212a.63.63,0,0,1-.73-.84L114.92,70.77a.62.62,0,0,1,1.12-.08L180.3,179.28,302.53,148a.63.63,0,0,1,.73.84L245.08,289.23a.63.63,0,0,1-.53.38ZM181,180.4,244.4,287.59l57.23-138.08Zm-65.37-108L58.37,210.49,179,179.6Z"/><path class="cls-8" d="M115.45,289.59h0a.63.63,0,0,1-.53-.38L56.75,148.78a.62.62,0,0,1,.73-.84L179.7,179.28,244,70.72a.6.6,0,0,1,.58-.31.63.63,0,0,1,.53.38l58.13,140.42a.62.62,0,0,1-.73.84L180.3,180.72,116,289.28A.63.63,0,0,1,115.45,289.59ZM58.38,149.46l57.17,138.11L179,180.4ZM181,179.6l120.66,30.94L244.45,72.43Z"/><path class="cls-9" d="M148.54,303.3a.62.62,0,0,1-.61-.78L179.28,180.3,70.72,116a.63.63,0,0,1,.08-1.12L211.22,56.75a.62.62,0,0,1,.84.73L180.72,179.7,289.28,244a.63.63,0,0,1-.08,1.12L148.78,303.25A.63.63,0,0,1,148.54,303.3ZM180.4,181,149.46,301.62l138.11-57.17Zm-108-65.41L179.6,179,210.54,58.38Z"/><path class="cls-10" d="M158.92,338.75a.64.64,0,0,1-.25-.05L84.88,307.08a.63.63,0,0,1-.31-.3l-10.45-20.9-20.9-10.45a.62.62,0,0,1-.3-.32l-30-72.51a.63.63,0,0,1,0-.47L31.73,180,21.32,159.2a.63.63,0,0,1,0-.63l21-31.54L52.89,85a.63.63,0,0,1,.33-.41l20.9-10.45,10.45-20.9a.62.62,0,0,1,.32-.3l72.51-30a.63.63,0,0,1,.47,0L180,31.73,200.8,21.32a.63.63,0,0,1,.53,0l73.79,31.62a.63.63,0,0,1,.31.3l10.45,20.9,20.9,10.45a.62.62,0,0,1,.3.32l30,72.51a.63.63,0,0,1,0,.47L328.27,180l10.42,20.83a.62.62,0,0,1,0,.53l-31.62,73.79a.62.62,0,0,1-.29.31l-20.9,10.45-10.45,20.9a.62.62,0,0,1-.32.3l-72.51,30a.61.61,0,0,1-.47,0L180,328.27,159.2,338.68A.62.62,0,0,1,158.92,338.75ZM85.58,306l73.31,31.42L179.72,327a.62.62,0,0,1,.51,0l22.13,8.86L274.42,306l10.44-20.88a.63.63,0,0,1,.28-.28L306,274.42l31.42-73.32L327,180.28a.63.63,0,0,1,0-.51l8.86-22.13L306,85.58,285.14,75.14a.63.63,0,0,1-.28-.28L274.42,54,201.1,22.56,180.28,33a.61.61,0,0,1-.51,0l-22.13-8.86L85.58,54,75.14,74.86a.63.63,0,0,1-.28.28L54,85.56,43.56,127.44a.62.62,0,0,1-.09.2L22.6,159,33,179.72a.63.63,0,0,1,0,.51l-8.86,22.13L54,274.42l20.87,10.44a.63.63,0,0,1,.28.28Z"/><rect class="cls-1" y="112.5" width="360" height="135"/><path class="cls-11" d="M62.65,175l-4.84-13.3H53.67V175H48.16V142.23h9.55c6.17,0,10,3.28,10,9.78,0,4.51-1.71,7.41-4.65,8.74L68.63,175Zm-5.46-18c3.32,0,5-1.24,5-4.94s-1.71-5-5-5H53.67v10Z"/><path class="cls-11" d="M92.19,142.23V147H81v8.64H91v4.75H81v9.83H92.19V175H75.52V142.23Z"/><path class="cls-11" d="M98.37,160.7v-4.18c0-10.31,4.23-14.72,10.31-14.72S119,146.22,119,156.53v4.18a23.26,23.26,0,0,1-1.33,8.41l3.85,3.94-3.42,3.33-3.13-3.18a9.06,9.06,0,0,1-6.27,2.23C102.6,175.43,98.37,171,98.37,160.7Zm12.82,1.71,2,2.14a29.82,29.82,0,0,0,.24-3.85v-4.18c0-7.08-1.57-10-4.8-10s-4.8,2.9-4.8,10v4.18c0,7.08,1.57,10,4.8,10a3.62,3.62,0,0,0,2.75-1.09l-3.66-3.85Z"/><path class="cls-11" d="M147.67,142.23V161.7c0,9.69-4.32,13.73-10.26,13.73s-10.26-4-10.26-13.68V142.23h5.51v19.52c0,6.27,1.38,8.88,4.75,8.88s4.75-2.61,4.75-8.88V142.23Z"/><path class="cls-11" d="M173.37,142.23V147H162.21v8.64h10v4.75h-10v9.83h11.16V175H156.7V142.23Z"/><path class="cls-11" d="M194.41,150.11c-1.19-2.23-2.56-3.51-5.18-3.51s-3.89,1.52-3.89,4.27c0,3.13,1.71,4.37,5.27,5.37,5.6,1.57,8.17,4.13,8.17,9.78,0,4.89-2.94,9.4-9.31,9.4-4.65,0-8-1.71-10.31-5.37l4.23-2.94c1.57,2.33,2.94,3.51,5.75,3.51,3.18,0,4.13-2,4.13-4.37,0-2.61-1-4.23-5.41-5.46-5.18-1.47-8-4.37-8-9.93,0-4.94,2.85-9.07,9.26-9.07,4.27,0,7.41,1.71,9.4,5.37Z"/><path class="cls-11" d="M223.34,142.23V147H216v28h-5.51V147h-7.36v-4.8Z"/><path class="cls-11" d="M259.15,142.23V147H248v9.4h10v4.75H248V175h-5.51V142.23Z"/><path class="cls-11" d="M265,160.7v-4.18c0-10.31,4.23-14.72,10.31-14.72s10.31,4.42,10.31,14.72v4.18c0,10.31-4.23,14.72-10.31,14.72S265,171,265,160.7Zm5.51-4.18v4.18c0,7.08,1.57,10,4.8,10s4.8-2.9,4.8-10v-4.18c0-7.08-1.57-10-4.8-10S270.51,149.45,270.51,156.53Z"/><path class="cls-11" d="M307.94,175l-4.84-13.3H299V175h-5.51V142.23H303c6.17,0,10,3.28,10,9.78,0,4.51-1.71,7.41-4.65,8.74L313.92,175Zm-5.46-18c3.33,0,5-1.24,5-4.94s-1.71-5-5-5H299v10Z"/><path class="cls-11" d="M104.92,197.39c-.52-4-1.95-5.79-4.56-5.79-3.23,0-4.8,2.85-4.8,9.93v4.18c0,7,1.57,9.93,4.8,9.93,2.71,0,4-1.81,4.56-5.79h5.22c-.95,7.36-4.32,10.59-9.78,10.59-6.08,0-10.31-4.42-10.31-14.72v-4.18c0-10.31,4.23-14.72,10.31-14.72,5.27,0,8.88,3.47,9.78,10.59Z"/><path class="cls-11" d="M116,205.7v-4.18c0-10.31,4.23-14.72,10.31-14.72s10.31,4.42,10.31,14.72v4.18c0,10.31-4.23,14.72-10.31,14.72S116,216,116,205.7Zm5.51-4.18v4.18c0,7.08,1.57,10,4.8,10s4.8-2.9,4.8-10v-4.18c0-7.08-1.57-10-4.8-10S121.5,194.45,121.5,201.53Z"/><path class="cls-11" d="M157.17,205.75l7.31-18.52h5.41V220h-5.51V200.77L159,213.68h-3.66L150,200.91V220h-5.51V187.23h5.37Z"/><path class="cls-11" d="M191.56,205.75l7.31-18.52h5.42V220h-5.51V200.77l-5.37,12.92h-3.66l-5.41-12.78V220h-5.51V187.23h5.37Z"/><path class="cls-11" d="M219.16,220h-5.51V187.23h5.51Z"/><path class="cls-11" d="M246,187.23V192h-7.36v28h-5.51V192h-7.36v-4.8Z"/><path class="cls-11" d="M265.85,195.11c-1.19-2.23-2.56-3.51-5.18-3.51s-3.89,1.52-3.89,4.27c0,3.13,1.71,4.37,5.27,5.37,5.6,1.57,8.17,4.13,8.17,9.78,0,4.89-2.94,9.4-9.31,9.4-4.65,0-8-1.71-10.31-5.37l4.23-2.94c1.57,2.33,2.94,3.51,5.75,3.51,3.18,0,4.13-2,4.13-4.37,0-2.61-1-4.23-5.41-5.46-5.18-1.47-8-4.37-8-9.93,0-4.94,2.85-9.07,9.26-9.07,4.27,0,7.41,1.71,9.4,5.37Z"/><path class="cls-11" d="M323.3,37.48a3.25,3.25,0,1,0-2.61,5.22,3.34,3.34,0,0,0,2.65-1.44L325,42.79a5.5,5.5,0,1,1-4.26-8.88,5.4,5.4,0,0,1,4.22,2Z"/><path class="cls-12" d="M320.61,56.25h-.33a16.75,16.75,0,0,1-12.07-5.41,16.93,16.93,0,0,1,0-22.92,16.88,16.88,0,0,1,24.32-.47.46.46,0,1,1-.64.64,16,16,0,0,0-23,.45,16,16,0,0,0,0,21.68,16,16,0,0,0,23,.45.46.46,0,0,1,.64.64A16.73,16.73,0,0,1,320.61,56.25Z"/><path class="cls-13" d="M320.6,50.78h-.39a11.4,11.4,0,0,1,0-22.79,11.44,11.44,0,0,1,8.46,3.33A.46.46,0,0,1,328,32a10.54,10.54,0,0,0-7.78-3.07,10.49,10.49,0,0,0,0,21A10.54,10.54,0,0,0,328,46.79a.46.46,0,1,1,.64.64A11.45,11.45,0,0,1,320.6,50.78Z"/></g></g></svg>