<svg xmlns="http://www.w3.org/2000/svg" xmlns:xlink="http://www.w3.org/1999/xlink" viewBox="0 0 317.5 317.5"><defs><style>.cls-1{fill:url(#linear-gradient);}.cls-2{fill:url(#linear-gradient-2);}.cls-3{fill:url(#linear-gradient-3);}.cls-4{fill:url(#linear-gradient-4);}.cls-5{fill:url(#linear-gradient-5);}.cls-6{fill:url(#linear-gradient-6);}.cls-7{fill:url(#linear-gradient-7);}.cls-8{fill:url(#linear-gradient-8);}.cls-9{fill:url(#linear-gradient-9);}</style><linearGradient id="linear-gradient" x1="47.62" y1="47.62" x2="269.88" y2="269.88" gradientUnits="userSpaceOnUse"><stop offset="0" stop-color="#f49cc3"/><stop offset="1" stop-color="#e21c8e"/></linearGradient><linearGradient id="linear-gradient-2" x1="47.62" y1="47.62" x2="269.88" y2="269.88" xlink:href="#linear-gradient"/><linearGradient id="linear-gradient-3" x1="91.22" y1="91.22" x2="226.28" y2="226.28" xlink:href="#linear-gradient"/><linearGradient id="linear-gradient-4" x1="68.86" y1="68.86" x2="248.64" y2="248.64" xlink:href="#linear-gradient"/><linearGradient id="linear-gradient-5" x1="81.26" y1="81.26" x2="236.24" y2="236.24" xlink:href="#linear-gradient"/><linearGradient id="linear-gradient-6" x1="71.56" y1="71.56" x2="245.94" y2="245.94" xlink:href="#linear-gradient"/><linearGradient id="linear-gradient-7" x1="81.24" y1="81.24" x2="236.26" y2="236.26" xlink:href="#linear-gradient"/><linearGradient id="linear-gradient-8" x1="71.55" y1="71.55" x2="245.95" y2="245.95" xlink:href="#linear-gradient"/><linearGradient id="linear-gradient-9" x1="47.62" y1="47.62" x2="269.88" y2="269.88" xlink:href="#linear-gradient"/></defs><title>request-for-commits-abstract</title><g id="Layer_2" data-name="Layer 2"><g id="Layer_1-2" data-name="Layer 1"><path class="cls-1" d="M253.62,285.88H63.88a.62.62,0,0,1-.5-1L158,158.75,63.38,32.62a.62.62,0,0,1,.5-1H253.62a.62.62,0,0,1,.5,1L159.53,158.75l94.59,126.13a.62.62,0,0,1-.5,1Zm-188.5-1.25H252.37L158.75,159.79Zm0-251.75,93.62,124.83L252.37,32.87Z"/><path class="cls-2" d="M285.25,254.25a.63.63,0,0,1-.37-.12L158.75,159.53,32.62,254.13a.63.63,0,0,1-1-.5V63.87a.63.63,0,0,1,1-.5L158.75,158,284.88,63.37a.64.64,0,0,1,.65-.06.63.63,0,0,1,.35.56V253.63a.62.62,0,0,1-.62.63Zm-125.46-95.5,124.83,93.63V65.12ZM32.87,65.12V252.38l124.83-93.63Z"/><path class="cls-3" d="M136.39,315.91a.62.62,0,0,1-.44-.18L1.77,181.55a.63.63,0,0,1,.35-1.06L158.2,158.2,180.49,2.13a.62.62,0,0,1,1.06-.35L315.73,135.95a.63.63,0,0,1-.35,1.06L159.3,159.3,137,315.37a.63.63,0,0,1-.42.51A.65.65,0,0,1,136.39,315.91ZM3.54,181.55,135.95,314,158,159.49Zm178-178L159.49,158,314,135.95Z"/><path class="cls-4" d="M181.11,315.91a.65.65,0,0,1-.2,0,.63.63,0,0,1-.42-.51L158.2,159.3,2.13,137a.63.63,0,0,1-.35-1.06L135.95,1.77a.62.62,0,0,1,1.06.35L159.3,158.2l156.07,22.3a.63.63,0,0,1,.35,1.06L181.55,315.73A.62.62,0,0,1,181.11,315.91ZM159.49,159.49,181.55,314,314,181.55ZM3.54,135.95,158,158,135.95,3.54Z"/><path class="cls-5" d="M190.16,282.06a.63.63,0,0,1-.24,0L49.52,223.83a.63.63,0,0,1-.08-1.12L158,158.45,126.74,36.22a.63.63,0,0,1,.2-.63.63.63,0,0,1,.65-.1L268,93.67a.63.63,0,0,1,.08,1.12L159.47,159l31.29,122.24a.62.62,0,0,1-.61.78Zm-139-58.91,138.08,57.23L158.35,159.71Zm77.1-186,30.89,120.67,107.2-63.44Z"/><path class="cls-6" d="M223.25,268.36a.63.63,0,0,1-.54-.31L158.45,159.47,36.22,190.76a.63.63,0,0,1-.73-.84L93.67,49.52a.62.62,0,0,1,1.12-.08L159,158l122.24-31.29a.63.63,0,0,1,.73.84L223.83,268a.63.63,0,0,1-.53.38ZM159.71,159.15l63.44,107.19,57.23-138.08Zm-65.37-108L37.12,189.24l120.67-30.89Z"/><path class="cls-7" d="M94.2,268.34h0a.63.63,0,0,1-.53-.38L35.5,127.53a.62.62,0,0,1,.73-.84L158.45,158,222.76,49.47a.6.6,0,0,1,.58-.31.63.63,0,0,1,.53.38L282,190a.62.62,0,0,1-.73.84L159,159.47,94.74,268A.63.63,0,0,1,94.2,268.34ZM37.13,128.21,94.3,266.32l63.49-107.17Zm122.58,30.14,120.66,30.94L223.2,51.18Z"/><path class="cls-8" d="M127.29,282.05a.62.62,0,0,1-.61-.78L158,159,49.47,94.74a.63.63,0,0,1,.08-1.12L190,35.5a.62.62,0,0,1,.84.73L159.47,158.45,268,222.76a.63.63,0,0,1-.08,1.12L127.53,282A.63.63,0,0,1,127.29,282.05Zm31.85-122.34L128.21,280.37,266.32,223.2ZM51.18,94.3l107.17,63.49L189.29,37.13Z"/><path class="cls-9" d="M137.67,317.5a.64.64,0,0,1-.25-.05L63.63,285.83a.63.63,0,0,1-.31-.3l-10.45-20.9L32,254.18a.62.62,0,0,1-.3-.32l-30-72.51a.63.63,0,0,1,0-.47l8.85-22.1L.07,137.95a.63.63,0,0,1,0-.63l21-31.54L31.64,63.72a.63.63,0,0,1,.33-.41l20.9-10.45L63.32,32a.62.62,0,0,1,.32-.3l72.51-30a.63.63,0,0,1,.47,0l22.1,8.85L179.55.07a.63.63,0,0,1,.53,0l73.79,31.62a.63.63,0,0,1,.31.3l10.45,20.9,20.9,10.45a.62.62,0,0,1,.3.32l30,72.51a.63.63,0,0,1,0,.47L307,158.72l10.42,20.83a.62.62,0,0,1,0,.53l-31.62,73.79a.62.62,0,0,1-.29.31l-20.9,10.45-10.45,20.9a.62.62,0,0,1-.32.3l-72.51,30a.61.61,0,0,1-.47,0L158.78,307l-20.83,10.42A.62.62,0,0,1,137.67,317.5ZM64.33,284.77l73.31,31.42,20.82-10.41a.62.62,0,0,1,.51,0l22.13,8.86,72.06-29.85,10.44-20.88a.63.63,0,0,1,.28-.28l20.88-10.44,31.42-73.32L305.77,159a.63.63,0,0,1,0-.51l8.86-22.13L284.76,64.33,263.89,53.89a.63.63,0,0,1-.28-.28L253.17,32.73,179.85,1.31,159,11.73a.61.61,0,0,1-.51,0L136.39,2.89,64.33,32.74,53.89,53.61a.63.63,0,0,1-.28.28L32.79,64.31,22.31,106.19a.62.62,0,0,1-.09.2L1.35,137.71l10.38,20.76a.63.63,0,0,1,0,.51L2.89,181.11l29.85,72.06,20.87,10.44a.63.63,0,0,1,.28.28Z"/></g></g></svg>