<svg id="Layer_1" xmlns="http://www.w3.org/2000/svg" width="360" height="360"><style>.st2{fill:#fff}</style><g id="Layer_1-2"><linearGradient id="SVGID_1_" gradientUnits="userSpaceOnUse" x1="108.9" y1="175.4" x2="253.3" y2="31.1"><stop offset="0" stop-color="#f49cc3"/><stop offset="1" stop-color="#e21c8e"/></linearGradient><path d="M47.3 112.5l5.6-22.4v22.4h1.2V86.4l22.7 17-9.1 9.1h1.8l8.3-8.3 6.7 5-8 3.3h3.3l5.9-2.4 3.2 2.4H91l-4-3 14.2-5.9-3.7 8.9H99l4-9.6 14.1-5.8 11.5 15.4h1.5l-11.9-15.9 9.4-3.9 11.7 19.8h1.4l-12-20.3 25.4-10.5 7.9 30.8h1.3l-8-31.3 9.3-3.9 5 35.1h1.3l-5.1-35.6L180 71l14.1 5.8-5.1 35.7h1.3l5-35.2 9.4 3.9-8 31.3h1.3l7.9-30.8 25.4 10.5-12 20.3h1.5l11.7-19.8 9.3 3.9-11.9 15.9h1.5L243 97.1l14.1 5.8 4 9.6h1.3l-3.7-8.9 14.3 5.9-4 3h2l3.3-2.5 5.9 2.5h3.2l-8-3.3 6.7-5.1 8.4 8.4h1.8l-9.1-9.1 22.7-17v26.1h1.3V88.3l10 24.2h1.3l-11.4-27.6c-.1-.1-.1-.3-.3-.3h-.1l-20.8-10.4-10.4-20.8c-.1-.2-.2-.4-.4-.4l-73.7-31.6h-.5L180 31.7 158.1 23v-.1c-.2-.2-.6-.2-.9 0L85 52.9l-.3.1-.2.3-10.4 20.8-20.8 10.4c-.2.1-.4.2-.4.4L46 112.5h1.3zM102 102l-16.1 6.7-7.2-5.4 24.5-24.5 5.4 7.2-6.6 16zm1.7-.7l5.9-14.2 6.7 9-12.6 5.2zm13.7-5.7l-7.4-9.8 5.5-13.4L127 91.6l-9.6 4zm10.7-4.5L116 70.7l-.3-.3c-.3-.1-.7 0-.8.4l-5.7 13.8-5-6.7 23.7-23.7h33.5l1.2 8.3-13.7-5.7c-.2-.1-.5-.1-.6.1-.2.2-.3.4-.2.6l5.9 23-25.9 10.6zM155 80l-5.5-21.6 13.3 5.5 1.7 12.2L155 80zm10.7-4.4l-1.6-11.1 14.2 5.9-12.6 5.2zM163.9 63l-1.3-8.9h34.7L196 63l-16 6.6-16.1-6.6zm30.4 12.6l-12.6-5.2 14.2-5.9-1.6 11.1zM205 80l-9.5-3.9 1.7-12.2 13.3-5.5L205 80zm26.9 11.2l-25.7-10.7 5.9-23v-.4c-.1-.3-.5-.5-.8-.3l-13.8 5.7 1.2-8.3h33.5l23.7 23.7-5 6.7-5.7-13.8c-.1-.2-.3-.4-.5-.4s-.5.1-.6.3l-12.2 20.5zm10.6 4.4l-9.5-3.9 11.4-19.2 5.5 13.3-7.4 9.8zm1.2.5l6.8-9 5.9 14.3-12.7-5.3zm30.4 12.6L258 102l-6.7-16.1 5.4-7.2 24.5 24.5-7.1 5.5zm10.8-33.8l.3.3 20.2 10.1-23 17.3-24.8-24.8 17.3-23 10 20.1zm-28.3 1.9l-22.7-22.7h39.7l-17 22.7zm15.2-23.9h-39.1l-29.4-29.4 68.5 29.4zm-40.9 0h-32.1l4-28.1 28.1 28.1zM179.8 33h.5l20.8-10.4.9.4-.2.4-4.2 29.5h-35l-4.1-28.4 21.3 8.5zm-22.6-8.2l4 28.1h-32.1l28.1-28.1zm-2.3.5l-27.6 27.6h-39l66.6-27.6zm-28.8 28.8l-22.7 22.7-17-22.7h39.7zm-51.2 21l.3-.3 10.1-20.2 17.3 23-24.8 24.8-23-17.3 20.1-10z" fill="url(#SVGID_1_)"/><linearGradient id="SVGID_2_" gradientUnits="userSpaceOnUse" x1="106.7" y1="329" x2="253.5" y2="182.1"><stop offset="0" stop-color="#f49cc3"/><stop offset="1" stop-color="#e21c8e"/></linearGradient><path d="M317.5 247.5l-10.4 24.3v-24.3h-1.3v26.1l-22.7-17 9.1-9.1h-1.8l-8.4 8.4-6.7-5 8-3.3h-3.2l-5.9 2.5-3.3-2.5h-2l4 3-14.3 5.9 3.7-8.9H261l-4 9.6-14.1 5.8-11.6-15.4h-1.5l11.9 15.9-9.4 3.9-11.7-19.8h-1.5l12 20.3-25.4 10.5-7.9-30.8h-1.3l8 31.3-9.3 3.9-5-35.1H189l5.1 35.6L180 289l-14.1-5.8 5.1-35.7h-1.3l-5 35.2-9.4-3.9 8-31.3H162l-7.9 30.8-25.4-10.5 12-20.3h-1.5l-11.7 19.8-9.3-3.9 11.9-15.9h-1.5L117 262.9l-14.1-5.9-4-9.5h-1.3l3.7 8.9-14.2-5.9 4-3H89l-3.2 2.4-5.8-2.4h-3.3l8 3.3-6.7 5-8.3-8.3h-1.8l9.1 9.1-22.7 17v-26.1h-1.2v24.2l-10-24.2h-1.3l11.4 27.6.1.1.1.1.1.1 20.9 10.5 10.4 20.9.3.4 73.8 31.6c.1 0 .2.1.2 0l.3-.1 20.8-10.4 22 8.8.1.1h.2l.3-.1 72.5-30 .3-.3 10.5-20.9 20.9-10.5.3-.3 11.8-27.6h-1.6zM258 258l16.1-6.7 7.2 5.4-24.5 24.5-5.4-7.2 6.6-16zm-1.6.7l-5.9 14.2-6.7-9 12.6-5.2zm-13.9 5.7l7.4 9.8-5.5 13.3-11.4-19.1 9.5-4zm-10.6 4.5l12.1 20.4c.1.2.3.3.5.3s.4-.2.5-.4l5.7-13.8 5 6.7-23.7 23.7h-33.5l-1.2-8.3 13.7 5.7h.4c.3-.1.5-.4.4-.8l-5.9-23 26-10.5zM205 280l5.5 21.6-13.3-5.5-1.7-12.2 9.5-3.9zm-10.7 4.4l1.6 11.2-14.3-5.9 12.7-5.3zm1.8 12.7l1.3 8.8h-34.7l1.3-8.9 16-6.6 16.1 6.7zm-30.4-12.6l12.6 5.2-14.2 5.9 1.6-11.1zM155 280l9.5 3.9-1.7 12.1-13.3 5.5L155 280zm-26.9-11.1l25.7 10.7-5.9 23v.2c0 .3.3.6.6.6h.2l13.8-5.7-1.2 8.3h-33.5l-23.7-23.7 5.1-6.7 5.7 13.8c.1.2.3.4.5.4s.4-.1.5-.3l12.2-20.6zm-10.7-4.5l9.5 3.9-11.4 19.2-5.5-13.3 7.4-9.8zm-1.1-.5l-6.8 9-5.9-14.3 12.7 5.3zm-30.4-12.5L102 258l6.7 16.1-5.4 7.2-24.5-24.5 7.1-5.4zm-10.7 33.7l-.3-.3-20.2-10.1 23-17.3 24.8 24.8-17.3 23-10-20.1zm28.2-1.9l22.7 22.7H86.4l17-22.7zm-15.2 23.9h39.1l29.4 29.4-68.5-29.4zm40.9 0h32.1l-4 28.1-28.1-28.1zm51.1 19.9h-.5l-20.8 10.4-.9-.4c.1-.1.3-.2.3-.4l4.2-29.5h35l4.1 28.4-21.4-8.5zm18.6-19.9h32.1l-28.1 28.1-4-28.1zm6.3 27.6l27.6-27.6h39l-66.6 27.6zm28.8-28.8l22.7-22.7 17 22.7h-39.7zm51.2-21.1l-.3.3-10.1 20.2-17.3-23 24.8-24.8 23 17.3-20.1 10z" fill="url(#SVGID_2_)"/><path class="st2" d="M62.7 175l-4.8-13.3h-4.1V175h-5.5v-32.8h9.5c6.2 0 10 3.3 10 9.8 0 4.5-1.7 7.4-4.7 8.7l5.6 14.2h-6zm-5.5-18c3.3 0 5-1.2 5-4.9s-1.7-5-5-5h-3.5v10l3.5-.1zM92.2 142.2v4.8H81v8.6h10v4.8H81v9.8h11.2v4.8H75.5v-32.8h16.7zM98.4 160.7v-4.2c0-10.3 4.2-14.7 10.3-14.7s10.3 4.4 10.3 14.7v4.2c.1 2.9-.4 5.7-1.3 8.4l3.8 3.9-3.4 3.3-3.1-3.2a9 9 0 0 1-6.3 2.2c-6.1.1-10.3-4.3-10.3-14.6zm12.8 1.7l2 2.1c.2-1.3.2-2.6.2-3.9v-4.2c0-7.1-1.6-10-4.8-10s-4.8 2.9-4.8 10v4.2c0 7.1 1.6 10 4.8 10 1 0 2-.4 2.8-1.1l-3.7-3.9 3.5-3.2zM147.7 142.2v19.5c0 9.7-4.3 13.7-10.3 13.7s-10.3-4-10.3-13.7v-19.5h5.5v19.5c0 6.3 1.4 8.9 4.8 8.9s4.8-2.6 4.8-8.9v-19.5h5.5zM173.4 142.2v4.8h-11.2v8.6h10v4.8h-10v9.8h11.2v4.8h-16.7v-32.8h16.7zM194.4 150.1c-1.2-2.2-2.6-3.5-5.2-3.5s-3.9 1.5-3.9 4.3c0 3.1 1.7 4.4 5.3 5.4 5.6 1.6 8.2 4.1 8.2 9.8 0 4.9-2.9 9.4-9.3 9.4-4.6 0-8-1.7-10.3-5.4l4.2-2.9c1.6 2.3 2.9 3.5 5.8 3.5 3.2 0 4.1-2 4.1-4.4 0-2.6-1-4.2-5.4-5.5-5.2-1.5-8-4.4-8-9.9 0-4.9 2.9-9.1 9.3-9.1 4.3 0 7.4 1.7 9.4 5.4l-4.2 2.9zM223.3 142.2v4.8H216v28h-5.5v-28h-7.4v-4.8h20.2zM259.1 142.2v4.8H248v9.4h10v4.8h-10V175h-5.5v-32.8h16.6zM265 160.7v-4.2c0-10.3 4.2-14.7 10.3-14.7s10.3 4.4 10.3 14.7v4.2c0 10.3-4.2 14.7-10.3 14.7S265 171 265 160.7zm5.5-4.2v4.2c0 7.1 1.6 10 4.8 10s4.8-2.9 4.8-10v-4.2c0-7.1-1.6-10-4.8-10s-4.8 2.9-4.8 10zM307.9 175l-4.8-13.3H299V175h-5.5v-32.8h9.5c6.2 0 10 3.3 10 9.8 0 4.5-1.7 7.4-4.6 8.7l5.6 14.2h-6.1zm-5.4-18c3.3 0 5-1.2 5-4.9s-1.7-5-5-5H299v10l3.5-.1zM104.9 197.4c-.5-4-1.9-5.8-4.6-5.8-3.2 0-4.8 2.9-4.8 9.9v4.2c0 7 1.6 9.9 4.8 9.9 2.7 0 4-1.8 4.6-5.8h5.2c-.9 7.4-4.3 10.6-9.8 10.6-6.1 0-10.3-4.4-10.3-14.7v-4.2c0-10.3 4.2-14.7 10.3-14.7 5.3 0 8.9 3.5 9.8 10.6h-5.2zM116 205.7v-4.2c0-10.3 4.2-14.7 10.3-14.7 6.1 0 10.3 4.4 10.3 14.7v4.2c0 10.3-4.2 14.7-10.3 14.7S116 216 116 205.7zm5.5-4.2v4.2c0 7.1 1.6 10 4.8 10s4.8-2.9 4.8-10v-4.2c0-7.1-1.6-10-4.8-10s-4.8 2.9-4.8 10zM157.2 205.8l7.3-18.5h5.4V220h-5.5v-19.2l-5.4 12.9h-3.7l-5.3-12.8V220h-5.5v-32.8h5.4l7.3 18.6zM191.6 205.8l7.3-18.5h5.4V220h-5.5v-19.2l-5.4 12.9h-3.7l-5.4-12.8V220h-5.5v-32.8h5.4l7.4 18.6zM219.2 220h-5.5v-32.8h5.5V220zM246 187.2v4.8h-7.4v28h-5.5v-28h-7.4v-4.8H246zM265.9 195.1c-1.2-2.2-2.6-3.5-5.2-3.5s-3.9 1.5-3.9 4.3c0 3.1 1.7 4.4 5.3 5.4 5.6 1.6 8.2 4.1 8.2 9.8 0 4.9-2.9 9.4-9.3 9.4-4.6 0-8-1.7-10.3-5.4l4.2-2.9c1.6 2.3 2.9 3.5 5.8 3.5 3.2 0 4.1-2 4.1-4.4 0-2.6-1-4.2-5.4-5.5-5.2-1.5-8-4.4-8-9.9 0-4.9 2.9-9.1 9.3-9.1 4.3 0 7.4 1.7 9.4 5.4l-4.2 2.9z"/></g></svg>
