<?xml version="1.0" encoding="utf-8"?>
<!-- Generator: Adobe Illustrator 21.1.0, SVG Export Plug-In . SVG Version: 6.00 Build 0)  -->
<svg version="1.1" id="Layer_1" xmlns="http://www.w3.org/2000/svg" xmlns:xlink="http://www.w3.org/1999/xlink" x="0px" y="0px"
	 width="360px" height="360px" viewBox="0 0 360 360" style="enable-background:new 0 0 360 360;" xml:space="preserve">
<style type="text/css">
	.st0{fill:url(#SVGID_1_);}
	.st1{fill:url(#SVGID_2_);}
	.st2{fill:#FFFFFF;}
</style>
<title>request-for-commits-cover-art</title>
<g id="Layer_1-2">
	<g>
		<linearGradient id="SVGID_1_" gradientUnits="userSpaceOnUse" x1="108.9194" y1="175.4452" x2="253.311" y2="31.0536">
			<stop  offset="0" style="stop-color:#F49CC3"/>
			<stop  offset="1" style="stop-color:#E21C8E"/>
		</linearGradient>
		<path class="st0" d="M47.3,112.5l5.6-22.4v22.4h1.2V86.4l22.7,17l-9.1,9.1h1.8l8.3-8.3l6.7,5l-8,3.3h3.3l5.9-2.4l3.2,2.4H91l-4-3
			l14.2-5.9l-3.7,8.9H99l4-9.6l14.1-5.8l11.5,15.4h1.5l-11.9-15.9l9.4-3.9l11.7,19.8h1.4l-12-20.3l25.4-10.5l7.9,30.8h1.3l-8-31.3
			l9.3-3.9l5,35.1h1.3l-5.1-35.6L180,71l14.1,5.8l-5.1,35.7h1.3l5-35.2l9.4,3.9l-8,31.3h1.3l7.9-30.8l25.4,10.5l-12,20.3h1.5
			l11.7-19.8l9.3,3.9l-11.9,15.9h1.5L243,97.1l14.1,5.8l4,9.6h1.3l-3.7-8.9l14.3,5.9l-4,3h2l3.3-2.5l5.9,2.5h3.2l-8-3.3l6.7-5.1
			l8.4,8.4h1.8l-9.1-9.1l22.7-17v26.1h1.3V88.3l10,24.2h1.3l-11.4-27.6c0,0,0,0,0,0c-0.1-0.1-0.1-0.3-0.3-0.3c0,0-0.1,0-0.1,0
			l-20.8-10.4l-10.4-20.8c-0.1-0.2-0.2-0.4-0.4-0.4l-73.7-31.6c-0.2-0.1-0.4-0.1-0.5,0L180,31.7L158.1,23c0,0,0,0,0-0.1
			c-0.2-0.2-0.6-0.2-0.9,0l0,0L85,52.9c-0.1,0-0.2,0-0.3,0.1c-0.1,0.1-0.2,0.2-0.2,0.3L74.1,74.1L53.3,84.5
			c-0.2,0.1-0.4,0.2-0.4,0.4c0,0,0,0,0,0L46,112.5H47.3z M102,102l-16.1,6.7l-7.2-5.4l24.5-24.5l5.4,7.2L102,102z M103.7,101.3
			l5.9-14.2l6.7,9L103.7,101.3z M117.4,95.6l-7.4-9.8l5.5-13.4L127,91.6L117.4,95.6z M128.1,91.1L116,70.7c-0.1-0.1-0.2-0.2-0.3-0.3
			c-0.3-0.1-0.7,0-0.8,0.4l-5.7,13.8l-5-6.7l23.7-23.7l33.5,0l1.2,8.3l-13.7-5.7c-0.2-0.1-0.5-0.1-0.6,0.1c-0.2,0.2-0.3,0.4-0.2,0.6
			l5.9,23L128.1,91.1z M155,80l-5.5-21.6l13.3,5.5l1.7,12.2L155,80z M165.7,75.6l-1.6-11.1l14.2,5.9L165.7,75.6z M163.9,63l-1.3-8.9
			l34.7,0l-1.3,8.9l-16,6.6L163.9,63z M194.3,75.6l-12.6-5.2l14.2-5.9L194.3,75.6z M205,80l-9.5-3.9l1.7-12.2l13.3-5.5L205,80z
			 M231.9,91.2l-25.7-10.7l5.9-23c0-0.1,0-0.3,0-0.4c-0.1-0.3-0.5-0.5-0.8-0.3l-13.8,5.7l1.2-8.3l33.5,0l23.7,23.7l-5,6.7l-5.7-13.8
			c-0.1-0.2-0.3-0.4-0.5-0.4c-0.2,0-0.5,0.1-0.6,0.3L231.9,91.2z M242.5,95.6l-9.5-3.9l11.4-19.2l5.5,13.3L242.5,95.6z M243.7,96.1
			l6.8-9l5.9,14.3L243.7,96.1z M274.1,108.7L258,102l-6.7-16.1l5.4-7.2l24.5,24.5L274.1,108.7z M284.9,74.9c0.1,0.1,0.2,0.2,0.3,0.3
			l20.2,10.1l-23,17.3l-24.8-24.8l17.3-23L284.9,74.9z M256.6,76.8l-22.7-22.7l39.7,0L256.6,76.8z M271.8,52.9h-39.1l-29.4-29.4
			L271.8,52.9z M230.9,52.9h-32.1l4-28.1L230.9,52.9z M179.8,33c0.2,0.1,0.3,0.1,0.5,0l20.8-10.4l0.9,0.4c-0.1,0.1-0.2,0.3-0.2,0.4
			l-4.2,29.5h-35l-4.1-28.4L179.8,33z M157.2,24.8l4,28.1h-32.1L157.2,24.8z M154.9,25.3l-27.6,27.6h-39L154.9,25.3z M126.1,54.1
			l-22.7,22.7l-17-22.7L126.1,54.1z M74.9,75.1c0.1-0.1,0.2-0.2,0.3-0.3l10.1-20.2l17.3,23l-24.8,24.8l-23-17.3L74.9,75.1z"/>
		<linearGradient id="SVGID_2_" gradientUnits="userSpaceOnUse" x1="106.6896" y1="328.9523" x2="253.5302" y2="182.1118">
			<stop  offset="0" style="stop-color:#F49CC3"/>
			<stop  offset="1" style="stop-color:#E21C8E"/>
		</linearGradient>
		<path class="st1" d="M317.5,247.5l-10.4,24.3v-24.3h-1.3v26.1l-22.7-17l9.1-9.1h-1.8l-8.4,8.4l-6.7-5l8-3.3h-3.2l-5.9,2.5
			l-3.3-2.5h-2l4,3l-14.3,5.9l3.7-8.9H261l-4,9.6l-14.1,5.8l-11.6-15.4h-1.5l11.9,15.9l-9.4,3.9l-11.7-19.8h-1.5l12,20.3l-25.4,10.5
			l-7.9-30.8h-1.3l8,31.3l-9.3,3.9l-5-35.1H189l5.1,35.6L180,289l-14.1-5.8l5.1-35.7h-1.3l-5,35.2l-9.4-3.9l8-31.3H162l-7.9,30.8
			l-25.4-10.5l12-20.3h-1.5l-11.7,19.8l-9.3-3.9l11.9-15.9h-1.5L117,262.9l-14.1-5.9l-4-9.5h-1.3l3.7,8.9l-14.2-5.9l4-3H89l-3.2,2.4
			l-5.8-2.4h-3.3l8,3.3l-6.7,5l-8.3-8.3h-1.8l9.1,9.1l-22.7,17v-26.1h-1.2v24.2l-10-24.2h-1.3l11.4,27.6c0,0,0,0,0,0l0,0
			c0,0,0,0,0,0c0,0,0,0.1,0.1,0.1c0,0,0,0,0,0c0,0,0,0,0.1,0.1c0,0,0.1,0.1,0.1,0.1c0,0,0,0,0,0l20.9,10.5l10.4,20.9
			c0.1,0.2,0.2,0.3,0.3,0.4l73.8,31.6c0.1,0,0.2,0.1,0.2,0c0.1,0,0.2,0,0.3-0.1l20.8-10.4l22,8.8c0,0,0.1,0.1,0.1,0.1
			c0.1,0,0.1,0,0.2,0c0.1,0,0.2,0,0.3-0.1l72.5-30c0.1-0.1,0.3-0.2,0.3-0.3l10.5-20.9l20.9-10.5c0.1-0.1,0.2-0.2,0.3-0.3l0,0
			c0,0,0,0,0,0l11.8-27.6H317.5z M258,258l16.1-6.7l7.2,5.4l-24.5,24.5l-5.4-7.2L258,258z M256.4,258.7l-5.9,14.2l-6.7-9
			L256.4,258.7z M242.5,264.4l7.4,9.8l-5.5,13.3L233,268.4L242.5,264.4z M231.9,268.9l12.1,20.4c0.1,0.2,0.3,0.3,0.5,0.3h0
			c0.2,0,0.4-0.2,0.5-0.4l5.7-13.8l5,6.7l-23.7,23.7h-33.5l-1.2-8.3l13.7,5.7c0.1,0,0.1,0,0.2,0c0.1,0,0.1,0,0.2,0
			c0.3-0.1,0.5-0.4,0.4-0.8l-5.9-23L231.9,268.9z M205,280l5.5,21.6l-13.3-5.5l-1.7-12.2L205,280z M194.3,284.4l1.6,11.2l-14.3-5.9
			L194.3,284.4z M196.1,297.1l1.3,8.8h-34.7l1.3-8.9l16-6.6L196.1,297.1z M165.7,284.5l12.6,5.2l-14.2,5.9L165.7,284.5z M155,280
			l9.5,3.9l-1.7,12.1l-13.3,5.5L155,280z M128.1,268.9l25.7,10.7l-5.9,23c0,0.1,0,0.1,0,0.2c0,0.3,0.3,0.6,0.6,0.6
			c0.1,0,0.2,0,0.2,0l13.8-5.7l-1.2,8.3h-33.5l-23.7-23.7l5.1-6.7l5.7,13.8c0.1,0.2,0.3,0.4,0.5,0.4c0.2,0,0.4-0.1,0.5-0.3
			L128.1,268.9z M117.4,264.4l9.5,3.9l-11.4,19.2l-5.5-13.3L117.4,264.4z M116.3,263.9l-6.8,9l-5.9-14.3L116.3,263.9z M85.9,251.4
			L102,258l6.7,16.1l-5.4,7.2l-24.5-24.5L85.9,251.4z M75.2,285.1c-0.1-0.1-0.2-0.2-0.3-0.3l-20.2-10.1l23-17.3l24.8,24.8l-17.3,23
			L75.2,285.1z M103.4,283.2l22.7,22.7H86.4L103.4,283.2z M88.2,307.1h39.1l29.4,29.4L88.2,307.1z M129.1,307.1h32.1l-4,28.1
			L129.1,307.1z M180.2,327c-0.2-0.1-0.3-0.1-0.5,0l-20.8,10.4L158,337c0.1-0.1,0.3-0.2,0.3-0.4l4.2-29.5h35l4.1,28.4L180.2,327z
			 M198.8,307.1h32.1l-28.1,28.1L198.8,307.1z M205.1,334.7l27.6-27.6h39L205.1,334.7z M233.9,305.9l22.7-22.7l17,22.7H233.9z
			 M285.1,284.8c-0.1,0.1-0.2,0.2-0.3,0.3l-10.1,20.2l-17.3-23l24.8-24.8l23,17.3L285.1,284.8z"/>
	</g>
	<path class="st2" d="M62.7,175l-4.8-13.3h-4.1V175h-5.5v-32.8h9.5c6.2,0,10,3.3,10,9.8c0,4.5-1.7,7.4-4.7,8.7l5.6,14.2H62.7z
		 M57.2,157c3.3,0,5-1.2,5-4.9s-1.7-5-5-5h-3.5v10L57.2,157z"/>
	<path class="st2" d="M92.2,142.2v4.8H81v8.6h10v4.8H81v9.8h11.2v4.8H75.5v-32.8H92.2z"/>
	<path class="st2" d="M98.4,160.7v-4.2c0-10.3,4.2-14.7,10.3-14.7s10.3,4.4,10.3,14.7v4.2c0.1,2.9-0.4,5.7-1.3,8.4l3.8,3.9l-3.4,3.3
		l-3.1-3.2c-1.7,1.5-4,2.3-6.3,2.2C102.6,175.4,98.4,171,98.4,160.7z M111.2,162.4l2,2.1c0.2-1.3,0.2-2.6,0.2-3.9v-4.2
		c0-7.1-1.6-10-4.8-10s-4.8,2.9-4.8,10v4.2c0,7.1,1.6,10,4.8,10c1,0,2-0.4,2.8-1.1l-3.7-3.9L111.2,162.4z"/>
	<path class="st2" d="M147.7,142.2v19.5c0,9.7-4.3,13.7-10.3,13.7s-10.3-4-10.3-13.7v-19.5h5.5v19.5c0,6.3,1.4,8.9,4.8,8.9
		s4.8-2.6,4.8-8.9v-19.5H147.7z"/>
	<path class="st2" d="M173.4,142.2v4.8h-11.2v8.6h10v4.8h-10v9.8h11.2v4.8h-16.7v-32.8H173.4z"/>
	<path class="st2" d="M194.4,150.1c-1.2-2.2-2.6-3.5-5.2-3.5s-3.9,1.5-3.9,4.3c0,3.1,1.7,4.4,5.3,5.4c5.6,1.6,8.2,4.1,8.2,9.8
		c0,4.9-2.9,9.4-9.3,9.4c-4.6,0-8-1.7-10.3-5.4l4.2-2.9c1.6,2.3,2.9,3.5,5.8,3.5c3.2,0,4.1-2,4.1-4.4c0-2.6-1-4.2-5.4-5.5
		c-5.2-1.5-8-4.4-8-9.9c0-4.9,2.9-9.1,9.3-9.1c4.3,0,7.4,1.7,9.4,5.4L194.4,150.1z"/>
	<path class="st2" d="M223.3,142.2v4.8H216v28h-5.5v-28h-7.4v-4.8L223.3,142.2z"/>
	<path class="st2" d="M259.1,142.2v4.8H248v9.4h10v4.8h-10V175h-5.5v-32.8H259.1z"/>
	<path class="st2" d="M265,160.7v-4.2c0-10.3,4.2-14.7,10.3-14.7s10.3,4.4,10.3,14.7v4.2c0,10.3-4.2,14.7-10.3,14.7
		S265,171,265,160.7z M270.5,156.5v4.2c0,7.1,1.6,10,4.8,10s4.8-2.9,4.8-10v-4.2c0-7.1-1.6-10-4.8-10S270.5,149.4,270.5,156.5
		L270.5,156.5z"/>
	<path class="st2" d="M307.9,175l-4.8-13.3H299V175h-5.5v-32.8h9.5c6.2,0,10,3.3,10,9.8c0,4.5-1.7,7.4-4.6,8.7l5.6,14.2H307.9z
		 M302.5,157c3.3,0,5-1.2,5-4.9s-1.7-5-5-5H299v10L302.5,157z"/>
	<path class="st2" d="M104.9,197.4c-0.5-4-1.9-5.8-4.6-5.8c-3.2,0-4.8,2.9-4.8,9.9v4.2c0,7,1.6,9.9,4.8,9.9c2.7,0,4-1.8,4.6-5.8h5.2
		c-0.9,7.4-4.3,10.6-9.8,10.6c-6.1,0-10.3-4.4-10.3-14.7v-4.2c0-10.3,4.2-14.7,10.3-14.7c5.3,0,8.9,3.5,9.8,10.6L104.9,197.4z"/>
	<path class="st2" d="M116,205.7v-4.2c0-10.3,4.2-14.7,10.3-14.7c6.1,0,10.3,4.4,10.3,14.7v4.2c0,10.3-4.2,14.7-10.3,14.7
		S116,216,116,205.7z M121.5,201.5v4.2c0,7.1,1.6,10,4.8,10s4.8-2.9,4.8-10v-4.2c0-7.1-1.6-10-4.8-10S121.5,194.4,121.5,201.5
		L121.5,201.5z"/>
	<path class="st2" d="M157.2,205.8l7.3-18.5h5.4V220h-5.5v-19.2l-5.4,12.9h-3.7l-5.3-12.8V220h-5.5v-32.8h5.4L157.2,205.8z"/>
	<path class="st2" d="M191.6,205.8l7.3-18.5h5.4V220h-5.5v-19.2l-5.4,12.9h-3.7l-5.4-12.8V220h-5.5v-32.8h5.4L191.6,205.8z"/>
	<path class="st2" d="M219.2,220h-5.5v-32.8h5.5V220z"/>
	<path class="st2" d="M246,187.2v4.8h-7.4v28h-5.5v-28h-7.4v-4.8L246,187.2z"/>
	<path class="st2" d="M265.9,195.1c-1.2-2.2-2.6-3.5-5.2-3.5s-3.9,1.5-3.9,4.3c0,3.1,1.7,4.4,5.3,5.4c5.6,1.6,8.2,4.1,8.2,9.8
		c0,4.9-2.9,9.4-9.3,9.4c-4.6,0-8-1.7-10.3-5.4l4.2-2.9c1.6,2.3,2.9,3.5,5.8,3.5c3.2,0,4.1-2,4.1-4.4c0-2.6-1-4.2-5.4-5.5
		c-5.2-1.5-8-4.4-8-9.9c0-4.9,2.9-9.1,9.3-9.1c4.3,0,7.4,1.7,9.4,5.4L265.9,195.1z"/>
</g>
</svg>
