<?xml version="1.0" encoding="utf-8"?>
<!-- Generator: Adobe Illustrator 21.1.0, SVG Export Plug-In . SVG Version: 6.00 Build 0)  -->
<svg version="1.1" id="Layer_1" xmlns="http://www.w3.org/2000/svg" xmlns:xlink="http://www.w3.org/1999/xlink" x="0px" y="0px"
	 viewBox="0 0 360 360" style="enable-background:new 0 0 360 360;" xml:space="preserve">
<style type="text/css">
	.st0{fill:url(#SVGID_1_);}
	.st1{fill:#121921;}
	.st2{fill:#FFFFFF;}
</style>
<linearGradient id="SVGID_1_" gradientUnits="userSpaceOnUse" x1="68.225" y1="293.825" x2="291.675" y2="70.375" gradientTransform="matrix(1 0 0 -1 0 362)">
	<stop  offset="0" style="stop-color:#FCC39B"/>
	<stop  offset="0.529" style="stop-color:#F9A05D"/>
</linearGradient>
<path class="st0" d="M338.1,180c0-0.2-0.1-0.4-0.3-0.5L317.6,166l17.1-17.3c0.1-0.1,0.2-0.4,0.2-0.6s-0.2-0.4-0.4-0.5l-20.6-8.4
	l12.5-18.4c0.1-0.2,0.1-0.4,0.1-0.6s-0.2-0.3-0.5-0.4l-25.1-5.1l9.5-23.7c0.1-0.2,0.1-0.4-0.1-0.6c-0.1-0.2-0.3-0.3-0.5-0.3
	l-22.3,0.3l4.4-21.8c0-0.2,0-0.4-0.2-0.6s-0.4-0.2-0.6-0.2l-23.8,4.8l-0.1-24.3c0-0.2-0.1-0.4-0.3-0.5s-0.4-0.1-0.6-0.1l-20.5,8.7
	l-4.2-21.9c0-0.2-0.2-0.4-0.4-0.5s-0.4-0.1-0.6,0.1l-21.3,14.1l-10.1-23.5c-0.1-0.2-0.3-0.3-0.5-0.4c-0.2,0-0.4,0-0.6,0.2
	l-15.5,15.9l-12.3-18.5c-0.2-0.3-0.8-0.3-1,0L166,42.4l-17.3-17.1c-0.1-0.1-0.4-0.2-0.6-0.2c-0.2,0-0.4,0.2-0.5,0.4l-8.4,20.6
	L121,33.6c-0.2-0.1-0.4-0.1-0.6-0.1c-0.2,0.1-0.3,0.2-0.4,0.5l-5.1,25.1l-23.7-9.5c-0.2-0.1-0.4-0.1-0.6,0.1
	c-0.2,0.1-0.3,0.3-0.3,0.5l0.3,22.3L68.8,68c-0.2,0-0.4,0-0.6,0.2S68,68.5,68,68.8l4.8,23.8l-24.3,0.1c-0.2,0-0.4,0.1-0.5,0.3
	c-0.1,0.2-0.1,0.4-0.1,0.6l8.7,20.5l-21.9,4.2c-0.2,0-0.4,0.2-0.5,0.4c-0.1,0.2-0.1,0.4,0.1,0.6l14.1,21.3l-23.5,10.1
	c-0.2,0.1-0.3,0.3-0.4,0.5c0,0.2,0,0.4,0.2,0.6l15.9,15.5l-18.5,12.3c-0.2,0.1-0.3,0.3-0.3,0.5s0.1,0.4,0.3,0.5L42.4,194l-17.1,17.3
	c-0.1,0.1-0.2,0.4-0.2,0.6s0.2,0.4,0.4,0.5l20.6,8.4L33.6,239c-0.1,0.2-0.1,0.4-0.1,0.6s0.2,0.3,0.5,0.4l25.1,5.1l-9.5,23.7
	c-0.1,0.2-0.1,0.4,0.1,0.6c0.1,0.2,0.3,0.3,0.5,0.3l22.3-0.3L68,291.2c0,0.2,0,0.4,0.2,0.6c0.1,0.1,0.3,0.2,0.4,0.2h0.1l23.8-4.8
	l0.1,24.3c0,0.2,0.1,0.4,0.3,0.5c0.1,0.1,0.2,0.1,0.3,0.1h0.2l20.5-8.7l4.2,21.9c0,0.2,0.2,0.4,0.4,0.5h0.2c0.1,0,0.2,0,0.3-0.1
	l21.3-14.1l10.1,23.5c0.1,0.2,0.3,0.3,0.5,0.4h0.1c0.2,0,0.3-0.1,0.4-0.2l15.5-15.9l12.3,18.5c0.1,0.2,0.3,0.3,0.5,0.3
	s0.4-0.1,0.5-0.3l13.5-20.2l17.3,17.1c0.1,0.1,0.3,0.2,0.4,0.2h0.1c0.2,0,0.4-0.2,0.5-0.4l8.4-20.6l18.4,12.5
	c0.1,0.1,0.2,0.1,0.4,0.1h0.2c0.2-0.1,0.3-0.2,0.4-0.5l5.1-25.1l23.7,9.5h0.2c0.1,0,0.2,0,0.4-0.1s0.3-0.3,0.3-0.5l-0.3-22.3
	L291,292h0.1c0.2,0,0.3-0.1,0.4-0.2s0.2-0.4,0.2-0.6l-4.8-23.8l24.3-0.1c0.2,0,0.4-0.1,0.5-0.3c0.1-0.2,0.1-0.4,0.1-0.6l-8.7-20.5
	l21.9-4.2c0.2,0,0.4-0.2,0.5-0.4s0.1-0.4-0.1-0.6l-14.1-21.3l23.5-10.1c0.2-0.1,0.3-0.3,0.4-0.5c0-0.2,0-0.4-0.2-0.6l-15.9-15.5
	l18.5-12.3C338,180.4,338.1,180.2,338.1,180L338.1,180z M333.2,148.5l-16.6,16.8l-14-9.3l10.6-15.6L333.2,148.5z M266.6,171.2l0.1,8
	v9.2l-1.8,8.8l-1.6,7.8l-3,7.4l-3.4,8.4l-5.1,7.6l-4.5,6.6l-5.5,5.7l-6.5,6.6l-7.5,5l-6.7,4.4l-7.4,3.2l-8.3,3.5l-9,1.8l-7.9,1.5
	l-8,0.1h-9.2l-8.8-1.8l-7.8-1.6l-7.4-3l-8.4-3.4l-7.6-5.1l-6.6-4.5l-5.7-5.5l-6.6-6.5l-5-7.5l-4.4-6.7l-3.2-7.4l-3.5-8.3l-1.8-9
	l-1.5-7.9l-0.1-8v-9.2l1.8-8.8l1.6-7.8l3-7.4l3.4-8.4l5.1-7.6l4.5-6.6l5.5-5.7l6.5-6.6l7.5-5l6.7-4.4l7.4-3.2l8.3-3.5l9-1.8l7.9-1.5
	l8-0.1h9.2l8.8,1.8l7.8,1.6l7.4,3l8.4,3.4l7.6,5.1l6.6,4.5l5.7,5.5l6.6,6.5l5,7.5l4.4,6.7l3.2,7.4l3.5,8.3l1.8,9L266.6,171.2
	L266.6,171.2z M262.1,148.2l-1.1-2.7l-0.4-1l1.2,1.8L262.1,148.2z M253.9,132.3l-0.6-1l-1.6-2.4l1.3,1.3L253.9,132.3L253.9,132.3z
	 M243.8,119.3l-2.1-2.1l-0.7-0.6l1.8,1.2L243.8,119.3z M229.9,107.5l-0.8-0.5l-2.4-1.6l1.7,0.7L229.9,107.5z M215.6,99.5l-2.6-1
	l-1.1-0.5l2.1,0.4L215.6,99.5z M198.5,94l-1.1-0.2l-2.8-0.6h1.9L198.5,94L198.5,94z M182.2,92h-3.9l2.1-0.4L182.2,92L182.2,92z
	 M164,93.5l-0.9,0.2l-2.9,0.6l1.7-0.7L164,93.5L164,93.5z M148.2,97.9l-2.7,1.1l-1,0.4l1.8-1.2L148.2,97.9z M132.3,106.1l-1,0.6
	l-2.4,1.6l1.3-1.3L132.3,106.1L132.3,106.1z M119.3,116.2l-2.1,2.1l-0.6,0.7l1.2-1.8C117.8,117.2,119.3,116.2,119.3,116.2z
	 M107.5,130.1l-0.5,0.8l-1.6,2.4l0.7-1.7L107.5,130.1z M99.5,144.4l-1,2.6l-0.5,1.1l0.4-2.1L99.5,144.4z M94,161.5l-0.2,1.1
	l-0.6,2.8v-1.9L94,161.5L94,161.5z M92,177.8v3.9l-0.4-2.1L92,177.8L92,177.8z M93.5,196l0.2,0.9l0.6,2.9l-0.7-1.7L93.5,196
	L93.5,196z M97.9,211.8l1.1,2.7l0.4,1l-1.2-1.8L97.9,211.8z M106.1,227.7l0.6,1l1.6,2.4l-1.3-1.3L106.1,227.7L106.1,227.7z
	 M116.2,240.7l2.1,2.1l0.7,0.6l-1.8-1.2L116.2,240.7L116.2,240.7z M130.1,252.5l0.8,0.5l2.4,1.6l-1.7-0.7L130.1,252.5L130.1,252.5z
	 M144.4,260.5l2.6,1l1.1,0.5l-2.1-0.4L144.4,260.5z M161.5,266l1.1,0.2l2.8,0.6h-1.9L161.5,266L161.5,266z M177.8,268h3.9l-2.1,0.4
	L177.8,268L177.8,268z M196,266.5l0.9-0.2l2.9-0.6l-1.7,0.7L196,266.5L196,266.5z M211.8,262.1l2.7-1.1l1-0.4l-1.8,1.2L211.8,262.1z
	 M227.7,253.9l1-0.6l2.4-1.6l-1.3,1.3L227.7,253.9L227.7,253.9z M240.7,243.8l2.1-2.1l0.6-0.7l-1.2,1.8L240.7,243.8L240.7,243.8z
	 M252.5,229.9l0.5-0.8l1.6-2.4l-0.7,1.7L252.5,229.9L252.5,229.9z M260.5,215.6l1-2.6l0.5-1.1l-0.4,2.1L260.5,215.6z M266,198.5
	l0.2-1.1l0.6-2.8v1.9L266,198.5L266,198.5z M268,182.2v-3.9l0.4,2.1L268,182.2L268,182.2z M266.5,164l-0.2-0.9l-0.6-2.9l0.7,1.7
	L266.5,164L266.5,164z M266.5,158.4l-1.8-4.3l-0.9-4.8l2.7,4L266.5,158.4L266.5,158.4z M261,142.9l-3.2-4.8l-2.3-5.4l4.3,4.3
	L261,142.9z M251.7,127l-3.5-3.4l-2.6-3.9l4.1,2.8L251.7,127z M240.7,114.7l-4.9-3.3l-4.2-4.1l5.7,2.3L240.7,114.7z M225.9,103.6
	l-4.3-1.7l-4-2.7l4.8,1C222.4,100.2,225.9,103.6,225.9,103.6z M211.1,96.5l-5.7-1.1l-5.4-2.2h6.1L211.1,96.5L211.1,96.5z
	 M193.2,91.8l-4.9,0.1l-4.6-0.9l4.9-0.9C188.6,90.1,193.2,91.8,193.2,91.8z M176.8,90.9l-5.7,1.1h-5.9l5.6-2.4L176.8,90.9
	L176.8,90.9z M158.4,93.5l-4.3,1.8l-4.8,0.9l4-2.7C153.3,93.5,158.4,93.5,158.4,93.5z M142.9,99l-4.8,3.2l-5.4,2.3l4.3-4.3L142.9,99
	z M127,108.3l-3.4,3.5l-3.9,2.6l2.8-4.1L127,108.3z M114.7,119.3l-3.3,4.9l-4.1,4.2l2.3-5.7C109.6,122.7,114.7,119.3,114.7,119.3z
	 M103.6,134.1l-1.7,4.3l-2.7,4l1-4.8C100.2,137.6,103.6,134.1,103.6,134.1z M96.5,148.9l-1.1,5.7l-2.2,5.4v-6.1L96.5,148.9
	L96.5,148.9z M91.8,166.8l0.1,4.9l-0.9,4.6l-0.9-4.9C90.1,171.4,91.8,166.8,91.8,166.8z M90.9,183.2l1.1,5.7v5.9l-2.4-5.6
	L90.9,183.2L90.9,183.2z M93.5,201.6l1.8,4.3l0.9,4.8l-2.7-4C93.5,206.7,93.5,201.6,93.5,201.6z M99,217.1l3.2,4.8l2.3,5.4l-4.3-4.3
	L99,217.1z M108.3,233l3.5,3.4l2.6,3.9l-4.1-2.8L108.3,233L108.3,233z M119.3,245.3l4.9,3.3l4.2,4.1l-5.7-2.3L119.3,245.3z
	 M134.1,256.4l4.3,1.7l4,2.7l-4.8-1L134.1,256.4L134.1,256.4z M148.9,263.5l5.7,1.1l5.4,2.2h-6.1L148.9,263.5L148.9,263.5z
	 M166.8,268.2l4.9-0.1l4.6,0.9l-4.9,0.9L166.8,268.2L166.8,268.2z M183.2,269.1l5.7-1.1h5.9l-5.6,2.4L183.2,269.1L183.2,269.1z
	 M201.6,266.5l4.3-1.8l4.8-0.9l-4,2.7L201.6,266.5L201.6,266.5z M217.1,261l4.8-3.2l5.4-2.3l-4.3,4.3L217.1,261z M233,251.7l3.4-3.5
	l3.9-2.6l-2.8,4.1L233,251.7L233,251.7z M245.3,240.7l3.3-4.9l4.1-4.2l-2.3,5.7L245.3,240.7z M256.4,225.9l1.7-4.3l2.7-4l-1,4.8
	L256.4,225.9L256.4,225.9z M263.5,211.1l1.1-5.7l2.2-5.4v6.1L263.5,211.1L263.5,211.1z M268.2,193.2l-0.1-4.9l0.9-4.6l0.9,4.9
	L268.2,193.2L268.2,193.2z M269.1,176.8l-1.1-5.7v-5.9l2.4,5.6L269.1,176.8L269.1,176.8z M266.4,150.9l-3.3-4.9l-1.4-7.2l4.6,4.5
	L266.4,150.9L266.4,150.9z M259.3,134.5l-5.2-5.1l-2.3-5.5l6.3,4.3L259.3,134.5z M248.7,120.1l-5.1-3.4l-4-6.1l6.1,2.5L248.7,120.1z
	 M236,107.7l-6.8-2.7l-4.4-4.3l7.5,1.5L236,107.7z M220.5,98.4l-5.8-1.2l-6-4.1h6.4L220.5,98.4L220.5,98.4z M203.9,91.7l-7.3,0.1
	l-5.5-2.2l7.4-1.4L203.9,91.7L203.9,91.7z M186.2,89l-6,1.2l-7.1-1.5l6.1-2.6L186.2,89z M168.5,89.2l-6.7,2.9h-6.1l6.3-4.2
	C162,87.9,168.5,89.2,168.5,89.2z M150.9,93.6l-4.9,3.3l-7.2,1.4l4.5-4.6L150.9,93.6L150.9,93.6z M134.5,100.7l-5.1,5.2l-5.5,2.3
	l4.3-6.3L134.5,100.7z M120.1,111.3l-3.4,5.1l-6.1,4l2.5-6.1L120.1,111.3z M107.7,124l-2.7,6.8l-4.3,4.4l1.5-7.5L107.7,124z
	 M98.4,139.5l-1.2,5.8l-4.1,6v-6.4L98.4,139.5L98.4,139.5z M91.7,156.1l0.1,7.3l-2.2,5.5l-1.4-7.4L91.7,156.1L91.7,156.1z M89,173.8
	l1.2,6l-1.5,7.1l-2.6-6.1L89,173.8z M89.2,191.5l2.9,6.7v6.1l-4.2-6.3C87.9,198,89.2,191.5,89.2,191.5z M93.6,209.1l3.3,4.9l1.4,7.2
	l-4.6-4.5L93.6,209.1L93.6,209.1z M100.7,225.5l5.2,5.1l2.3,5.5l-6.3-4.3L100.7,225.5z M111.3,239.9l5.1,3.4l4,6.1l-6.1-2.5
	L111.3,239.9z M124,252.3l6.8,2.7l4.4,4.3l-7.5-1.5C127.7,257.8,124,252.3,124,252.3z M139.5,261.6l5.8,1.2l6,4.1h-6.4L139.5,261.6
	L139.5,261.6z M156.1,268.3l7.3-0.1l5.5,2.2l-7.4,1.4L156.1,268.3L156.1,268.3z M173.8,271l6-1.2l7.1,1.5l-6.1,2.6L173.8,271z
	 M191.5,270.8l6.7-2.9h6.1l-6.3,4.2L191.5,270.8L191.5,270.8z M209.1,266.4l4.9-3.3l7.2-1.4l-4.5,4.6L209.1,266.4L209.1,266.4z
	 M225.5,259.3l5.1-5.2l5.5-2.3l-4.3,6.3L225.5,259.3z M239.9,248.7l3.4-5.1l6.1-4l-2.5,6.1L239.9,248.7z M252.3,236l2.7-6.8l4.3-4.4
	l-1.5,7.5L252.3,236z M261.6,220.5l1.2-5.8l4.1-6v6.4L261.6,220.5L261.6,220.5z M268.3,203.9l-0.1-7.3l2.2-5.5l1.4,7.4L268.3,203.9
	L268.3,203.9z M271,186.2l-1.2-6l1.5-7.1l2.6,6.1L271,186.2z M270.8,168.5l-2.9-6.7v-6.1l4.2,6.3L270.8,168.5L270.8,168.5z
	 M272.4,160l-4.6-6.9v-8.3l6.4,6.3L272.4,160z M266.2,141.2l-5-4.9l-1.3-6.9l6.2,4.2L266.2,141.2L266.2,141.2z M257.7,126l-6.9-4.6
	l-3.2-7.6l8.4,3.4C256,117.2,257.7,126,257.7,126z M244.9,111.2l-6.7-2.7l-4-6l7.6,1.6L244.9,111.2L244.9,111.2z M231.3,100.5
	l-8.1-1.6l-5.9-5.8h9L231.3,100.5z M213.5,91.6l-7,0.1l-5.8-3.9l7.4-1.4L213.5,91.6L213.5,91.6z M196.7,86.9l-8.1,1.6l-7.7-3.1
	l8.3-3.5L196.7,86.9z M177.3,85.5l-6.6,2.8l-7.1-1.4l6.5-4.3L177.3,85.5L177.3,85.5z M160,87.6l-6.9,4.6h-8.3l6.3-6.4L160,87.6z
	 M141.2,93.8l-4.9,5l-6.9,1.3l4.2-6.2L141.2,93.8L141.2,93.8z M126,102.3l-4.6,6.9l-7.6,3.2l3.4-8.4C117.2,104,126,102.3,126,102.3z
	 M111.2,115.1l-2.7,6.7l-6,4l1.6-7.6L111.2,115.1z M100.5,128.7l-1.6,8.1l-5.8,5.9v-9L100.5,128.7z M91.6,146.5l0.1,7l-3.9,5.8
	l-1.4-7.4L91.6,146.5L91.6,146.5z M86.9,163.3l1.6,8.1l-3.1,7.7l-3.5-8.3L86.9,163.3z M85.5,182.7l2.8,6.6l-1.4,7.1l-4.3-6.5
	L85.5,182.7L85.5,182.7z M87.6,200l4.6,6.9v8.3l-6.4-6.3L87.6,200z M93.8,218.8l5,4.9l1.3,6.9l-6.2-4.2L93.8,218.8L93.8,218.8z
	 M102.3,234l6.9,4.6l3.2,7.6l-8.4-3.4L102.3,234L102.3,234z M115.1,248.8l6.7,2.7l4,6l-7.6-1.6L115.1,248.8L115.1,248.8z
	 M128.7,259.5l8.1,1.6l5.9,5.8h-9L128.7,259.5z M146.5,268.4l7-0.1l5.8,3.9l-7.4,1.4L146.5,268.4L146.5,268.4z M163.3,273.1l8.1-1.6
	l7.7,3.1l-8.3,3.5L163.3,273.1z M182.7,274.5l6.6-2.8l7.1,1.4l-6.5,4.3L182.7,274.5L182.7,274.5z M200,272.4l6.9-4.6h8.3l-6.3,6.4
	L200,272.4z M218.8,266.2l4.9-5l6.9-1.3l-4.2,6.2L218.8,266.2L218.8,266.2z M234,257.7l4.6-6.9l7.6-3.2l-3.4,8.4L234,257.7
	L234,257.7z M248.8,244.9l2.7-6.7l6-4l-1.6,7.6L248.8,244.9L248.8,244.9z M259.5,231.3l1.6-8.1l5.8-5.9v9L259.5,231.3z M268.4,213.5
	l-0.1-7l3.9-5.8l1.4,7.4L268.4,213.5L268.4,213.5z M273.1,196.7l-1.6-8.1l3.1-7.7l3.5,8.3L273.1,196.7z M274.5,177.3l-2.8-6.6
	l1.4-7.1l4.3,6.5L274.5,177.3L274.5,177.3z M274.6,149.3l-6.8-6.6v-8l8.6,5.8L274.6,149.3L274.6,149.3z M259.5,127.2l-1.8-9.3
	l8.3,3.4l0.1,10.4C266.1,131.7,259.5,127.2,259.5,127.2z M246.8,112l-3.2-7.5l10.2,2.1l1.8,9L246.8,112z M241.2,102.5l-8-1.6L228,93
	h9.2L241.2,102.5z M225.2,91.4l-9.5,0.1l-5.7-5.6l10.2-2L225.2,91.4z M198.9,86.5l-7.9-5.3l8.2-3.5l7.4,7.2
	C206.6,84.9,198.9,86.5,198.9,86.5z M179.1,84.7l-7.6-3.1l8.7-5.7l7.6,5.1L179.1,84.7z M168.5,81.9l-6.8,4.5l-9.3-1.9l6.4-6.5
	L168.5,81.9L168.5,81.9z M149.3,85.4l-6.6,6.8h-8l5.8-8.6C140.5,83.6,149.3,85.4,149.3,85.4z M127.2,100.5l-9.3,1.8l3.4-8.3
	l10.4-0.1C131.7,93.9,127.2,100.5,127.2,100.5z M112,113.2l-7.5,3.2l2.1-10.2l9-1.8L112,113.2z M102.5,118.8l-1.6,8L93,132v-9.2
	C93,122.8,102.5,118.8,102.5,118.8z M91.4,134.8l0.1,9.5l-5.6,5.7l-2-10.2L91.4,134.8z M86.5,161.1l-5.3,7.9l-3.5-8.2l7.2-7.4
	C84.9,153.4,86.5,161.1,86.5,161.1z M84.7,180.9l-3.1,7.6l-5.7-8.7l5.1-7.6L84.7,180.9z M81.9,191.5l4.5,6.8l-1.9,9.3l-6.5-6.4
	L81.9,191.5L81.9,191.5z M85.4,210.7l6.8,6.6v8l-8.6-5.8C83.6,219.5,85.4,210.7,85.4,210.7z M100.5,232.8l1.8,9.3l-8.3-3.4
	l-0.1-10.4L100.5,232.8L100.5,232.8z M113.2,248l3.2,7.5l-10.2-2.1l-1.8-9L113.2,248z M118.8,257.5l8,1.6l5.2,7.9h-9.2L118.8,257.5z
	 M134.8,268.6l9.5-0.1l5.7,5.6l-10.2,2L134.8,268.6z M161.1,273.5l7.9,5.3l-8.2,3.5l-7.4-7.2L161.1,273.5L161.1,273.5z M180.9,275.3
	l7.6,3.1l-8.7,5.7l-7.6-5.1L180.9,275.3z M191.5,278.1l6.8-4.5l9.3,1.9l-6.4,6.5L191.5,278.1L191.5,278.1z M210.7,274.6l6.6-6.8h8
	l-5.8,8.6L210.7,274.6L210.7,274.6z M232.8,259.5l9.3-1.8l-3.4,8.3l-10.4,0.1L232.8,259.5L232.8,259.5z M248,246.8l7.5-3.2
	l-2.1,10.2l-9,1.8L248,246.8z M257.5,241.2l1.6-8l7.9-5.2v9.2L257.5,241.2z M268.6,225.2l-0.1-9.5l5.6-5.7l2,10.2L268.6,225.2z
	 M273.5,198.9l5.3-7.9l3.5,8.2l-7.2,7.4L273.5,198.9L273.5,198.9z M275.3,179.1l3.1-7.6l5.7,8.7l-5.1,7.6L275.3,179.1z M278.1,168.5
	l-4.5-6.8l1.9-9.3l6.5,6.4L278.1,168.5L278.1,168.5z M275.8,150.5l2-9.6l9,6l-4.1,10.2L275.8,150.5L275.8,150.5z M267.7,132.7
	l-0.1-10.8l11.4,4.6l-2.4,12.1L267.7,132.7z M266.4,119.9l-9.1-3.6l-1.8-9.3l10.8,2.2C266.3,109.2,266.4,119.9,266.4,119.9z
	 M242.9,102.9l-4.4-10.4l13-0.2l2.4,12.8C253.9,105.1,242.9,102.9,242.9,102.9z M226.9,91.4l-5.4-8.1l10.6-2.1l4.3,10.1L226.9,91.4
	L226.9,91.4z M208.6,84.5L201,77l11.4-4.8l6.9,10.3L208.6,84.5L208.6,84.5z M189.6,80.2l-7.9-5.3l9.2-6.1l7.7,7.6L189.6,80.2z
	 M169.9,81l-10.4-4.2l9.1-9.3l10.7,7.3L169.9,81L169.9,81z M150.5,84.2l-9.6-2l6-9l10.2,4.1L150.5,84.2L150.5,84.2z M132.7,92.3H122
	l4.6-11.4l12.1,2.4L132.7,92.3z M116.2,102.6l-9.3,1.8l2.2-10.8l10.8-0.1L116.2,102.6z M102.9,117.1l-10.4,4.4l-0.2-13l12.8-2.4
	C105.1,106.1,102.9,117.1,102.9,117.1z M91.4,133.1l-8.1,5.4l-2.1-10.6l10.1-4.3L91.4,133.1z M84.5,151.4L77,159l-4.8-11.4l10.3-6.9
	L84.5,151.4L84.5,151.4z M76.4,161.4l3.8,9l-5.3,7.9l-6.1-9.2L76.4,161.4z M74.7,180.7l6.2,9.4l-4.2,10.4l-9.3-9.1L74.7,180.7
	L74.7,180.7z M84.2,209.5l-2,9.6l-9-6l4.1-10.2L84.2,209.5L84.2,209.5z M92.3,227.3l0.1,10.8L81,233.5l2.4-12.1L92.3,227.3
	L92.3,227.3z M93.6,240.1l9.1,3.6l1.8,9.3l-10.8-2.2L93.6,240.1L93.6,240.1z M117.1,257.1l4.4,10.4l-13,0.2l-2.4-12.8L117.1,257.1z
	 M133.1,268.6l5.4,8.1l-10.6,2.1l-4.3-10.1L133.1,268.6z M151.4,275.5l7.7,7.6l-11.4,4.8l-6.9-10.3L151.4,275.5L151.4,275.5z
	 M170.4,279.8l7.9,5.3l-9.2,6.1l-7.7-7.6L170.4,279.8z M190.1,279l10.4,4.2l-9.1,9.3l-10.7-7.3L190.1,279L190.1,279z M209.5,275.8
	l9.6,2l-6,9l-10.2-4.1L209.5,275.8L209.5,275.8z M227.3,267.7l10.8-0.1l-4.6,11.4l-12.1-2.4L227.3,267.7L227.3,267.7z M243.8,257.4
	l9.3-1.8l-2.2,10.8l-10.8,0.1L243.8,257.4z M257.1,242.9l10.4-4.4l0.2,13l-12.8,2.4L257.1,242.9z M268.6,226.9l8.1-5.4l2.1,10.6
	l-10.1,4.3L268.6,226.9L268.6,226.9z M275.5,208.6l7.6-7.7l4.8,11.4l-10.3,6.9L275.5,208.6L275.5,208.6z M283.6,198.6l-3.8-9
	l5.3-7.9l6.1,9.2L283.6,198.6z M285.3,179.3l-6.2-9.4l4.2-10.4l9.3,9.1L285.3,179.3L285.3,179.3z M283.6,158.1l4.2-10.5l13.1,8.7
	l-7.6,11.2L283.6,158.1z M288.3,146.4l5.6-13.9l18.2,7.4l-10.4,15.4L288.3,146.4L288.3,146.4z M287.2,145.7l-9.4-6.2l2.5-12.4
	l12.4,5L287.2,145.7L287.2,145.7z M280.6,125.8l2.7-13.3l16,3.3l-6.1,15.1L280.6,125.8z M279.4,125.4l-11.7-4.7l-0.1-11.3l14.4,2.9
	L279.4,125.4L279.4,125.4z M267.6,108.1l-0.1-16l18.6-0.2l-3.8,19.2L267.6,108.1z M266.4,107.8l-11-2.3l-2.5-13.3l13.5-0.2V107.8z
	 M252.5,91L250,77.5l16.2-3.2l0.1,16.6L252.5,91L252.5,91z M251.3,91.1l-13.5,0.2l-4.4-10.4l15.4-3.1L251.3,91.1z M232.8,79.7
	L227,66l18.1-7.6l3.5,18.2C248.6,76.6,232.8,79.7,232.8,79.7z M231.6,80l-11,2.2l-7-10.5l12.3-5.2L231.6,80z M212.8,70.6l-7.5-11.3
	l13.6-9l6.4,15C225.3,65.3,212.8,70.6,212.8,70.6z M211.6,71.1L200,76l-8-7.9l12.2-8.1L211.6,71.1L211.6,71.1z M191.1,67.2L179.7,56
	l12.9-13.3l11,16.3L191.1,67.2L191.1,67.2z M190,67.9l-9.4,6.2l-11.2-7.6l9.4-9.7C178.8,56.8,190,67.9,190,67.9z M168.4,65.8
	L157,58.1l9.2-13.8L178,56C178,56,168.4,65.8,168.4,65.8z M167.5,66.7l-9.4,9.7l-10.5-4.2l8.7-13.1L167.5,66.7z M146.4,71.7
	l-13.9-5.6l7.4-18.2l15.4,10.4L146.4,71.7z M145.7,72.8l-6.2,9.4l-12.4-2.5l5-12.4L145.7,72.8L145.7,72.8z M125.8,79.4l-13.3-2.7
	l3.3-16l15.1,6.1L125.8,79.4z M125.4,80.6l-4.7,11.7l-11.3,0.1l2.9-14.4C112.3,78,125.4,80.6,125.4,80.6z M108.1,92.4l-16,0.1
	l-0.2-18.6l19.2,3.8L108.1,92.4z M107.8,93.6l-2.3,11l-13.3,2.5L92,93.6H107.8z M91,107.5L77.5,110l-3.2-16.2l16.6-0.1
	C90.9,93.7,91,107.5,91,107.5z M91.1,108.7l0.2,13.5l-10.4,4.4l-3.1-15.4L91.1,108.7z M79.7,127.2L66,133l-7.7-18l18.2-3.5
	L79.7,127.2z M80,128.4l2.2,11l-10.5,7l-5.2-12.3L80,128.4z M70.6,147.2l-11.3,7.5l-9-13.6l15-6.4C65.3,134.7,70.6,147.2,70.6,147.2
	z M71.1,148.4L76,160l-7.9,8L60,155.8L71.1,148.4L71.1,148.4z M67.2,168.9L56,180.3l-13.3-12.9l16.3-11L67.2,168.9L67.2,168.9z
	 M67.9,170l6.2,9.4l-7.6,11.2l-9.7-9.4C56.8,181.2,67.9,170,67.9,170z M65.8,191.6L58.1,203l-13.8-9.2L56,182
	C56,182,65.8,191.6,65.8,191.6z M66.7,192.5l9.7,9.4l-4.2,10.5l-13.1-8.7L66.7,192.5z M71.7,213.6l-5.6,13.9L48,220.1l10.4-15.4
	C58.4,204.7,71.7,213.6,71.7,213.6z M72.8,214.3l9.4,6.2l-2.5,12.4l-12.4-5L72.8,214.3L72.8,214.3z M79.4,234.2l-2.7,13.3l-16-3.3
	l6.1-15.1L79.4,234.2z M80.6,234.6l11.7,4.7l0.1,11.3L78,247.7C78,247.7,80.6,234.6,80.6,234.6z M92.4,251.9l0.1,16l-18.6,0.2
	l3.8-19.2L92.4,251.9L92.4,251.9z M93.6,252.2l11,2.3l2.5,13.3L93.6,268V252.2z M107.5,269l2.6,13.5l-16.2,3.2l-0.1-16.6L107.5,269z
	 M108.7,268.9l13.5-0.2l4.4,10.4l-15.4,3.1L108.7,268.9z M127.2,280.3L133,294l-18.1,7.6l-3.5-18.2L127.2,280.3L127.2,280.3z
	 M128.4,280l11-2.2l7,10.5l-12.3,5.2L128.4,280z M147.2,289.4l7.5,11.3l-13.6,9l-6.4-15L147.2,289.4z M148.4,288.9L160,284l8,7.9
	l-12.2,8.1L148.4,288.9L148.4,288.9z M168.9,292.8l11.4,11.2l-12.9,13.3l-11-16.3L168.9,292.8z M170,292.1l9.4-6.2l11.2,7.6
	l-9.4,9.7L170,292.1z M191.6,294.2l11.4,7.7l-9.2,13.8L182,304L191.6,294.2L191.6,294.2z M192.5,293.3l9.4-9.7l10.5,4.2l-8.7,13.1
	L192.5,293.3z M213.6,288.3l13.9,5.6l-7.4,18.2l-15.4-10.4L213.6,288.3L213.6,288.3z M214.3,287.2l6.2-9.4l12.4,2.5l-5,12.4
	L214.3,287.2L214.3,287.2z M234.2,280.6l13.3,2.7l-3.3,16l-15.1-6.1L234.2,280.6z M234.6,279.4l4.7-11.7l11.3-0.1l-2.9,14.4
	L234.6,279.4L234.6,279.4z M251.9,267.6l16-0.1l0.2,18.6l-19.2-3.8L251.9,267.6L251.9,267.6z M252.2,266.4l2.3-11l13.3-2.5l0.2,13.5
	H252.2z M269,252.5l13.5-2.6l3.2,16.2l-16.6,0.1L269,252.5L269,252.5z M268.9,251.3l-0.2-13.5l10.4-4.4l3.1,15.4L268.9,251.3z
	 M280.3,232.8L294,227l7.6,18.1l-18.2,3.5L280.3,232.8L280.3,232.8z M280,231.6l-2.2-11l10.5-7l5.2,12.3L280,231.6z M289.4,212.8
	l11.3-7.5l9,13.6l-15,6.4L289.4,212.8z M288.9,211.6L284,200l7.9-8l8.1,12.2L288.9,211.6L288.9,211.6z M292.8,191.1l11.2-11.4
	l13.3,12.9l-16.3,11L292.8,191.1z M292.1,190l-6.2-9.4l7.6-11.2l9.7,9.4L292.1,190z M294.2,168.4l7.7-11.4l13.8,9.2L304,178
	L294.2,168.4L294.2,168.4z M324.8,121l-12.1,17.9l-18.4-7.5l6.2-15.4L324.8,121z M308.9,91.5l-9.3,23.1l-16.2-3.3l3.9-19.5
	C287.3,91.8,308.9,91.5,308.9,91.5z M290.6,69.4l-4.2,21.2l-18.8,0.2L267.5,74C267.5,74,290.6,69.4,290.6,69.4z M266.1,49.4
	l0.1,23.6l-16.5,3.3l-3.5-18.5L266.1,49.4z M240.7,35.9l4.1,21.2l-18.3,7.7L220,49.6L240.7,35.9z M208.6,26.3l9.8,22.9l-13.8,9.1
	l-11-16.5C193.6,41.8,208.6,26.3,208.6,26.3z M180,23.6l12,18l-13.1,13.5L167,43.3C167,43.3,180,23.6,180,23.6z M148.5,26.8
	l16.8,16.6l-9.3,14l-15.6-10.6C140.4,46.8,148.5,26.8,148.5,26.8z M121,35.2l17.9,12.1l-7.5,18.4L116,59.5
	C116,59.5,121,35.2,121,35.2z M91.5,51.1l23.1,9.3l-3.3,16.2l-19.5-3.9C91.8,72.7,91.5,51.1,91.5,51.1z M69.4,69.4l21.2,4.2
	l0.2,18.8L74,92.5C74,92.5,69.4,69.4,69.4,69.4z M49.4,93.9L73,93.8l3.3,16.5l-18.5,3.5L49.4,93.9z M35.9,119.3l21.2-4.1l7.7,18.3
	L49.6,140L35.9,119.3z M26.3,151.4l22.9-9.8l9.1,13.8l-16.5,11C41.8,166.4,26.3,151.4,26.3,151.4z M23.6,180l18-12l13.5,13.1
	L43.3,193C43.3,193,23.6,180,23.6,180z M26.8,211.5l16.6-16.8l14,9.3l-10.6,15.6C46.8,219.6,26.8,211.5,26.8,211.5z M35.2,239
	l12.1-17.9l18.4,7.5L59.5,244C59.5,244,35.2,239,35.2,239z M51.1,268.5l9.3-23.1l16.2,3.3l-3.9,19.5L51.1,268.5z M69.4,290.6
	l4.2-21.2l18.8-0.2l0.1,16.8L69.4,290.6L69.4,290.6z M93.9,310.6L93.8,287l16.5-3.3l3.5,18.5L93.9,310.6z M119.3,324.1l-4.1-21.2
	l18.3-7.7l6.5,15.2C140,310.4,119.3,324.1,119.3,324.1z M151.4,333.7l-9.8-22.9l13.8-9.1l11,16.5L151.4,333.7z M180,336.4l-12-18
	l13.1-13.5l11.9,11.8L180,336.4z M211.5,333.2l-16.8-16.6l9.3-14l15.6,10.6L211.5,333.2z M239,324.8l-17.9-12.1l7.5-18.4l15.4,6.2
	L239,324.8z M268.5,308.9l-23.1-9.3l3.3-16.2l19.5,3.9L268.5,308.9z M290.6,290.6l-21.2-4.2l-0.2-18.8l16.8-0.1L290.6,290.6
	L290.6,290.6z M310.6,266.1l-23.6,0.1l-3.3-16.5l18.5-3.5L310.6,266.1z M324.1,240.7l-21.2,4.1l-7.7-18.3l15.2-6.5L324.1,240.7z
	 M333.7,208.6l-22.9,9.8l-9.1-13.8l16.5-11L333.7,208.6z M318.4,192l-13.5-13.1l11.8-11.9l19.6,13.1L318.4,192z"/>
<path class="st1" d="M0,135h360v90H0V135z"/>
<path class="st2" d="M80.4,171.6c-1.2-2.2-2.6-3.5-5.2-3.5c-2.7,0-3.9,1.5-3.9,4.3c0,3.1,1.7,4.4,5.3,5.4c5.6,1.6,8.2,4.1,8.2,9.8
	c0,4.9-2.9,9.4-9.3,9.4c-4.7,0-8-1.7-10.3-5.4l4.2-2.9c1.6,2.3,2.9,3.5,5.7,3.5c3.2,0,4.1-2,4.1-4.4c0-2.6-1-4.2-5.4-5.5
	c-5.2-1.5-8-4.4-8-9.9c0-4.9,2.9-9.1,9.3-9.1c4.3,0,7.4,1.7,9.4,5.4C84.5,168.7,80.4,171.6,80.4,171.6z M99.8,184.5v12h-5.5v-32.8
	h9.5c6.2,0,10,3.6,10,10.4s-3.8,10.5-10,10.5L99.8,184.5L99.8,184.5z M103.1,179.7c3.8,0,5.3-1.9,5.3-5.7c0-3.6-1.5-5.6-5.3-5.6
	h-3.3v11.3H103.1z M121.5,182.1V178c0-10.3,4.2-14.7,10.3-14.7c6.1,0,10.3,4.4,10.3,14.7v4.2c0,10.3-4.2,14.7-10.3,14.7
	S121.5,192.5,121.5,182.1z M127.1,178v4.2c0,7.1,1.6,10,4.8,10s4.8-2.9,4.8-10V178c0-7.1-1.6-10-4.8-10
	C128.6,168,127.1,170.9,127.1,178L127.1,178z M169.2,163.7v4.8h-7.4v28h-5.5v-28H149v-4.8H169.2L169.2,163.7z M182.8,191.7H194v4.8
	h-16.7v-32.8h5.5L182.8,191.7L182.8,191.7z M207.9,196.4h-5.5v-32.8h5.5V196.4z M238.1,179.6v2.5c0,10.6-3.8,14.7-9.8,14.7
	c-6.1,0-10.3-4.4-10.3-14.7v-3.9c0-10.5,4.2-15,10.3-15c5.6,0,9,3.7,9.8,10.6h-5.2c-0.5-3.8-1.9-5.8-4.6-5.8c-3.2,0-4.8,2.9-4.8,9.9
	v4.2c0,7.1,1.6,9.9,4.8,9.9c3,0,4.4-2.4,4.6-7.6h-4.5v-4.8L238.1,179.6L238.1,179.6z M253.3,177.1h9.1v-13.4h5.5v32.8h-5.5v-14.6
	h-9.1v14.6h-5.5v-32.8h5.5V177.1z M296.2,163.7v4.8h-7.4v28h-5.5v-28h-7.4v-4.8H296.2z"/>
</svg>
