<svg xmlns="http://www.w3.org/2000/svg" viewBox="0 0 290 50">
  <g fill="none" fill-rule="nonzero">
    <path fill="#F96216" d="M14.7339625 6.78679245L25.5509436 45.5245283c.7396227 2.5886792 3.5132076 4.1603774 6.1018868 3.4207547 2.6811321-.7396226 4.2528302-3.4207547 3.5132076-6.0094339L24.3490568 4.19811321C23.6094342 1.60943396 20.8358493.03773585 18.2471701.77735849c-2.6811321.73962264-4.2528302 3.42075472-3.5132076 6.00943396z"/>
    <path fill="#B200F8" d="M34.7962267 6.50943396L7.61509458 36.4641509c-1.8490566 2.0339623-1.66415094 5.0849057.46226416 6.9339623 2.03396226 1.7566038 5.17735846 1.5716981 7.02641506-.4622641l27.0886793-29.954717c1.8490566-2.0339623 1.6641509-5.08490568-.4622642-6.93396229-1.9415094-1.75660377-5.1773585-1.57169811-6.9339622.46226415z"/>
    <path fill="#00B4F2" d="M4.00943421 23.2433962L42.6547172 35.7245283c2.5886793.8320755 5.454717-.554717 6.2867925-3.1433962.8320755-2.5886793-.554717-5.3622642-3.1433962-6.1943396L7.15283043 13.9056604c-2.58867924-.8320755-5.45471698.554717-6.28679245 3.1433962-.83207547 2.5886792.55471698 5.3622642 3.14339623 6.1943396z"/>
    <path fill="#FFF" d="M76.5849059 30.5471698c0-.9245283-.3698113-1.6641509-1.0169811-2.2188679-.6471698-.554717-1.4792453-1.0169811-2.4962264-1.4792453-1.0169812-.4622641-2.0339623-.9245283-3.2358491-1.3867924-1.109434-.4622642-2.2188679-1.109434-3.2358491-1.7566038-1.0169811-.7396227-1.7566037-1.664151-2.4962264-2.6811321-.6471698-1.0169811-.9245283-2.4037736-.9245283-4.0679245 0-1.3867925.2773585-2.6811321.7396227-3.6981132.4622641-1.0169812 1.1094339-1.9415095 2.0339622-2.6811321.9245283-.73962265 1.9415095-1.2018868 3.1433963-1.57169812 1.2018868-.36981132 2.4962264-.46226415 3.9754717-.46226415 1.6641509 0 3.3283018.18490566 4.8075471.46226415 1.4792453.27735849 2.7735849.73962264 3.6981132 1.29433962l-1.7566037 4.8075472c-.6471698-.3698114-1.5716982-.7396227-2.7735849-1.0169812-1.2018868-.3698113-2.5886793-.4622641-3.9754717-.4622641-1.2943397 0-2.4037736.2773585-3.1433963.8320755-.7396226.5547169-1.0169811 1.2018868-1.0169811 2.1264151 0 .8320754.2773585 1.5716981.9245283 2.126415.6471698.554717 1.4792453 1.109434 2.4962264 1.5716982 1.0169811.4622641 2.1264151.9245283 3.2358491 1.4792452 1.2018868.4622642 2.2188679 1.109434 3.235849 1.8490566 1.0169812.7396227 1.8490566 1.5716982 2.4962264 2.6811321.6471699 1.0169812 1.0169812 2.3113208 1.0169812 3.8830189 0 1.5716981-.2773585 2.9584906-.8320755 4.0679245-.4622641 1.109434-1.2018868 2.0339623-2.2188679 2.7735849-.9245283.7396227-2.0339623 1.2943396-3.4207547 1.664151-1.2943397.3698113-2.7735849.5547169-4.3452831.5547169-2.126415 0-3.9754717-.1849056-5.5471698-.5547169-1.5716981-.3698114-2.7735849-.7396227-3.5132075-1.2018868l1.8490566-4.9c.2773585.1849056.7396226.3698113 1.2018868.554717.4622641.1849056 1.0169811.3698113 1.6641509.5547169.6471698.1849057 1.2943396.2773585 1.9415095.4622642.7396226.0924528 1.3867924.1849056 2.1264151.1849056 1.6641509 0 2.9584905-.2773584 3.8830188-.8320754 1.0169812-.8320755 1.4792453-1.7566038 1.4792453-2.9584906zM104.598113 23.4283019c-.369811-1.3867925-1.016981-2.4962264-1.756603-3.5132076-.832076-1.0169811-1.849057-1.7566037-3.0509437-2.2188679-1.2018868-.554717-2.6811321-.8320755-4.345283-.8320755-3.1433963 0-5.5471698.9245283-7.3037736 2.8660378-1.7566038 1.9415094-2.5886793 4.6226415-2.5886793 8.135849 0 1.664151.1849057 3.1433963.554717 4.5301887.4622642 1.3867925 1.0169811 2.4962264 1.8490566 3.5132076.8320755.9245283 1.8490566 1.6641509 3.1433962 2.2188679 1.2018868.554717 2.6811321.8320755 4.3452831.8320755 3.1433962 0 5.5471697-.9245283 7.2113207-2.8660378 1.756604-1.9415094 2.588679-4.6226415 2.588679-8.2283019 0-1.5716981-.184905-3.0509434-.64717-4.4377358zm-6.0094335 9.4301887c-.7396227 1.0169811-1.7566038 1.5716981-3.1433962 1.5716981-.7396227 0-1.3867925-.1849057-1.9415095-.4622642-.554717-.3698113-.9245283-.8320754-1.2943396-1.3867924-.3698113-.554717-.554717-1.2943396-.7396226-2.0339623-.1849057-.7396226-.2773585-1.6641509-.2773585-2.5886792 0-2.3113208.3698113-3.9754717 1.1094339-4.9.7396227-.9245283 1.7566038-1.4792453 3.1433963-1.4792453 1.5716981 0 2.5886792.554717 3.235849 1.7566038.6471698 1.2018867.9245283 2.681132.9245283 4.6226415 0 2.2188679-.2773585 3.8830188-1.0169811 4.9zM114.860378 17.5113208v11.926415c0 1.664151.184905 2.9584906.554717 3.6981133.462264.7396226 1.201886 1.1094339 2.403773 1.1094339 1.016981 0 1.849057-.2773585 2.588679-.9245283.739623-.6471698 1.201887-1.3867924 1.571699-2.2188679v-13.590566h5.454717v14.6075471c0 1.109434.092452 2.3113208.184905 3.4207547.092453 1.109434.277359 2.1264151.462264 2.9584906h-4.067924l-.924529-3.1433962h-.184905c-.64717 1.0169811-1.571698 1.9415094-2.681132 2.6811321-1.109434.7396226-2.496227 1.0169811-4.067925 1.0169811-1.016981 0-2.033962-.1849057-2.866038-.4622642-.832075-.2773585-1.571698-.7396226-2.126415-1.3867924-.554717-.6471698-1.016981-1.4792453-1.294339-2.5886793-.277359-1.1094339-.462264-2.4962264-.462264-4.0679245v-13.035849h5.454717zM144.815095 22.5962264c-.832076-.2773585-1.664151-.4622641-2.311321-.4622641-1.016981 0-1.756604.2773585-2.496227.8320754-.647169.4622642-1.109434 1.2018868-1.294339 1.9415095v13.4981132h-5.454717V17.5113208h4.25283l.64717 2.7735849h.184905c.462265-1.0169812 1.109434-1.8490566 1.94151-2.4037736.832075-.554717 1.756604-.8320755 2.866038-.8320755.739622 0 1.571698.1849057 2.496226.4622642l-.832075 5.0849056zM163.305661 37.1113208c-.832076.6471698-1.849057 1.1094339-3.050944 1.3867924-1.201887.3698113-2.403773.4622642-3.60566.4622642-1.664151 0-3.143396-.2773585-4.25283-.8320755-1.109434-.554717-2.126415-1.2943396-2.773585-2.2188679-.739623-1.0169812-1.29434-2.1264151-1.571698-3.5132076-.277359-1.3867924-.462265-2.8660377-.462265-4.5301887 0-3.5132075.832076-6.2867924 2.403774-8.135849 1.571698-1.9415095 3.883019-2.8660378 6.933962-2.8660378 1.571698 0 2.773585.0924529 3.698114.3698114.924528.2773585 1.756603.5547169 2.588679.9245283l-1.29434 4.4377358c-.64717-.2773585-1.294339-.554717-1.941509-.7396226-.64717-.1849057-1.29434-.2773585-2.126415-.2773585-1.479246 0-2.681132.4622641-3.420755 1.4792453-.739623 1.0169811-1.201887 2.5886792-1.201887 4.7150943 0 .9245283.092453 1.7566038.277359 2.4962264.184905.7396227.462264 1.3867925.924528 1.9415095.369811.5547169.924528 1.0169811 1.479245 1.2943396.64717.2773585 1.386793.4622641 2.218868.4622641.924528 0 1.664151-.0924528 2.311321-.3698113s1.201887-.554717 1.756604-.9245283l1.109434 4.4377359zM183.183019 21.3018868c-.462264-1.109434-1.109434-1.9415094-1.849056-2.5886793-.739623-.6471698-1.664151-1.1094339-2.681133-1.3867924-1.016981-.2773585-2.033962-.4622642-3.143396-.4622642-3.143396 0-5.639622.9245283-7.396226 2.7735849-1.756604 1.8490567-2.681132 4.6226416-2.681132 8.3207548 0 3.4207547.739622 6.1018868 2.31132 8.135849 1.571699 1.9415095 4.067925 2.9584906 7.396227 2.9584906 1.664151 0 3.143396-.1849057 4.530189-.6471698 1.479245-.4622642 2.588679-1.0169812 3.420754-1.7566038l-1.756603-3.6056604c-.462265.3698113-1.201887.7396227-2.126416 1.109434-.924528.3698113-1.941509.4622641-3.050943.4622641-1.849057 0-3.143396-.4622641-3.975472-1.2943396-.832075-.9245283-1.294339-2.2188679-1.294339-3.9754717h12.573585c.184905-.7396226.277358-1.3867924.277358-2.1264151.092453-.6471698.092453-1.2943396.092453-1.8490566.092453-1.5716981-.184906-2.9584905-.64717-4.0679245zm-4.345283 4.7150943h-7.766038c.184906-1.3867924.554717-2.5886792 1.201887-3.4207547.739623-.8320755 1.756604-1.2943396 3.143396-1.2943396 1.201887 0 2.126415.3698113 2.681132 1.2018868.64717.8320755.832076 1.9415094.739623 3.5132075zM202.875472 17.4188679c-1.386793-.2773585-2.958491-.3698113-4.807547-.3698113-3.420755 0-6.009434.9245283-7.766038 2.8660377-1.756604 1.9415095-2.681132 4.7150944-2.681132 8.5056604 0 3.6056604.64717 6.1943396 1.941509 7.8584906 1.29434 1.6641509 3.328302 2.4962264 6.101887 2.4962264 2.496227 0 4.25283-.6471698 5.177359-1.9415094h.184905v1.2943396c0 1.4792453-.369811 2.5886792-1.016981 3.4207547-.64717.8320755-1.941509 1.2943396-3.883019 1.2943396-1.294339 0-2.31132-.0924528-3.143396-.3698113-.832075-.2773585-1.571698-.4622641-2.218868-.7396226l-1.109434 4.345283c.554717.2773585 1.479246.554717 2.588679.9245283 1.201887.2773585 2.773585.4622641 4.807548.4622641 2.95849 0 5.269811-.7396226 6.933962-2.2188679 1.664151-1.3867924 2.496226-3.6981132 2.496226-6.6566038V18.2509434c-1.016981-.2773585-2.126415-.6471698-3.60566-.8320755zm-1.941509 14.145283c-.277359.9245283-.739623 1.664151-1.29434 2.1264151-.554717.4622642-1.386793.7396227-2.403774.7396227-1.294339 0-2.218868-.554717-2.866037-1.5716981-.64717-1.0169812-1.016982-2.5886793-1.016982-4.6226415 0-2.3113208.369812-3.9754717 1.201887-4.9924529.739623-1.0169811 1.849057-1.5716981 3.235849-1.5716981 1.29434 0 2.403774.1849057 3.235849.554717v9.3377358h-.092452zM222.660378 22.5962264c-.832076-.2773585-1.664151-.4622641-2.311321-.4622641-1.016981 0-1.756604.2773585-2.496227.8320754-.647169.4622642-1.109434 1.2018868-1.294339 1.9415095v13.4981132h-5.454717V17.5113208h4.25283l.64717 2.7735849h.184905c.462265-1.0169812 1.109434-1.8490566 1.94151-2.4037736.832075-.554717 1.756604-.8320755 2.866038-.8320755.739622 0 1.571698.1849057 2.496226.4622642l-.832075 5.0849056zM243 35.354717c-.092453-1.109434-.092453-2.3113208-.092453-3.5132076s.092453-2.4037736.184906-3.6056603c.092453-1.2943397.092453-2.4962265.092453-3.6981133 0-1.1094339-.092453-2.126415-.369811-3.0509433-.184906-.9245283-.64717-1.664151-1.201887-2.3113208-.554717-.6471698-1.29434-1.109434-2.311321-1.4792453-1.016981-.3698113-2.218868-.554717-3.60566-.554717-1.664151 0-3.235849.1849057-4.807548.4622642-1.571698.2773585-2.866037.6471698-3.975471 1.2018868l1.294339 4.0679245c.739623-.3698113 1.756604-.6471698 2.958491-.9245283 1.201887-.1849057 2.403774-.3698113 3.513208-.3698113 1.479245 0 2.403773.3698113 2.773584 1.0169811.462265.6471698.554717 1.7566038.369812 3.3283019-1.849057-.0924528-3.513208 0-4.992453.1849057-1.479245.1849056-2.773585.5547169-3.883019 1.1094339-1.016981.554717-1.849057 1.2018868-2.496226 2.1264151-.554717.8320755-.832076 1.9415095-.832076 3.2358491 0 .9245283.184906 1.7566037.462264 2.4962264.277359.7396226.739623 1.3867924 1.29434 1.9415094.554717.554717 1.201887.9245283 2.033962 1.2943396.739623.2773585 1.664151.4622642 2.681132.4622642 1.571698 0 2.866038-.2773585 3.790566-.9245283 1.016981-.6471698 1.756604-1.3867925 2.311321-2.2188679h.184906l.924528 2.8660377h4.437736c-.462264-1.0169811-.64717-2.0339623-.739623-3.1433962zm-5.824528-3.3283019c-.277359.554717-.739623 1.109434-1.386793 1.5716981-.647169.4622642-1.479245.7396226-2.588679.7396226-.832075 0-1.479245-.1849056-1.941509-.6471698-.462264-.4622641-.64717-1.0169811-.64717-1.8490566 0-.5547169.184906-1.0169811.554717-1.3867924.369811-.3698113.832075-.6471698 1.479245-.8320755.64717-.1849057 1.29434-.2773585 2.126415-.3698113.832076-.0924528 1.664151 0 2.496227 0v2.7735849h-.092453zM264.54151 19.4528302c-1.29434-1.664151-3.235849-2.4962264-5.916981-2.4962264-1.386793 0-2.681133.2773585-3.605661.7396226-1.016981.4622642-1.849056 1.2943396-2.588679 2.3113208h-.184906l-.64717-2.4962264h-3.975471v29.3075471h5.454717v-8.5981132c.554717.2773585 1.109434.4622642 1.664151.554717.554717.1849057 1.294339.1849057 2.126415.1849057 1.571698 0 2.866038-.2773585 4.067924-.8320755 1.201887-.554717 2.218868-1.2943396 3.050944-2.3113208.832075-1.0169811 1.479245-2.2188679 1.849056-3.6056603.462264-1.4792453.64717-3.0509434.64717-4.9.092453-3.6056604-.554717-6.1943397-1.941509-7.8584906zm-4.807547 13.3132075c-.739623 1.109434-1.94151 1.664151-3.513208 1.664151-.739623 0-1.386792-.0924529-1.849057-.2773585-.462264-.1849057-.832075-.4622642-1.294339-.7396227v-8.690566c.369811-1.0169811.832075-1.8490566 1.386792-2.4037736.64717-.554717 1.479245-.8320754 2.496227-.8320754 1.386792 0 2.403773.4622641 2.95849 1.4792452.554717 1.0169812.924528 2.4037736.924528 4.2528302.092453 2.5886793-.277358 4.4377359-1.109433 5.5471698zM283.679246 38.4981132V26.5716981c0-1.6641509-.277359-2.9584906-.739623-3.6981132-.462264-.7396226-1.29434-1.109434-2.588679-1.109434-.924529 0-1.756604.2773585-2.58868.9245283-.739622.6471699-1.294339 1.3867925-1.479245 2.4037736v13.4056604h-5.454717V9.09811321h5.454717V19.8226415h.184906c.64717-.9245283 1.479245-1.5716981 2.496226-2.1264151 1.016981-.554717 2.218868-.8320755 3.698113-.8320755 1.016982 0 2.033963.1849057 2.773585.4622642.739623.2773585 1.479246.7396226 2.033963 1.3867924.554717.6471699.924528 1.4792453 1.201886 2.6811321.277359 1.109434.462265 2.4037736.462265 4.0679246v13.035849h-5.454717z"/>
  </g>
</svg>