<?xml version="1.0" encoding="utf-8"?>
<!-- Generator: Adobe Illustrator 21.1.0, SVG Export Plug-In . SVG Version: 6.00 Build 0)  -->
<svg version="1.1" id="Layer_1" xmlns="http://www.w3.org/2000/svg" xmlns:xlink="http://www.w3.org/1999/xlink" x="0px" y="0px"
	 width="50px" height="50px" viewBox="0 0 50 50" style="enable-background:new 0 0 50 50;" xml:space="preserve">
<style type="text/css">
	.st0{fill:url(#SVGID_1_);}
	.st1{fill:url(#SVGID_2_);}
</style>
<g>
	<path d="M29,22.2c-1.4-1.6-2.4-2.1-3.9-2.1c-2.6,0-4.7,2.2-4.7,4.9c0,2.7,2.1,4.9,4.8,4.9c1.5,0,2.6-0.6,3.9-2.1l2.4,2.3
		c-2,2.2-3.9,3-6.3,3c-4.6,0-8.3-3.6-8.3-8.1c0-4.5,3.7-8.1,8.3-8.1c2.4,0,4.2,0.9,6.2,3L29,22.2z"/>
	
		<linearGradient id="SVGID_1_" gradientUnits="userSpaceOnUse" x1="0" y1="27" x2="42.8686" y2="27" gradientTransform="matrix(1 0 0 -1 0 52)">
		<stop  offset="0" style="stop-color:#61C192;stop-opacity:0"/>
		<stop  offset="1" style="stop-color:#61C192"/>
	</linearGradient>
	<path class="st0" d="M25,50c-0.2,0-0.3,0-0.5,0c-6.8-0.1-13.2-3-17.9-8c-8.8-9.5-8.8-24.4,0-34c4.7-5,11-7.9,17.9-8
		c6.9-0.1,13.3,2.5,18.2,7.3c0.3,0.3,0.3,0.7,0,1c-0.3,0.3-0.7,0.3-1,0C37.1,3.7,31,1.2,24.5,1.3S12,4.2,7.6,8.9
		c-8.4,9-8.4,23.1,0,32.1c4.4,4.8,10.4,7.5,16.9,7.6c6.5,0.1,12.6-2.3,17.2-6.9c0.3-0.3,0.7-0.3,1,0s0.3,0.7,0,1
		C38,47.4,31.7,50,25,50z"/>
	
		<linearGradient id="SVGID_2_" gradientUnits="userSpaceOnUse" x1="8.1032" y1="26.9817" x2="37.1191" y2="26.9817" gradientTransform="matrix(1 0 0 -1 0 52)">
		<stop  offset="0" style="stop-color:#61C192"/>
		<stop  offset="1" style="stop-color:#61C192;stop-opacity:0"/>
	</linearGradient>
	<path class="st1" d="M25,41.9c-0.2,0-0.4,0-0.6,0c-4.7-0.2-9.1-2.2-12.2-5.8c-5.5-6.3-5.5-15.8,0-22.1c3.1-3.6,7.5-5.6,12.2-5.8
		C29.1,8,33.7,9.8,37,13.1c0.3,0.3,0.3,0.7,0,1c-0.3,0.3-0.7,0.3-1,0c-3-3-7.2-4.7-11.5-4.5c-4.3,0.1-8.3,2-11.2,5.3
		c-5.1,5.8-5.1,14.6,0,20.4c2.9,3.3,6.8,5.2,11.2,5.3C28.8,40.6,33,39,36,36c0.3-0.3,0.7-0.3,1,0s0.3,0.7,0,1
		C33.7,40.1,29.5,41.9,25,41.9z"/>
</g>
</svg>
