<svg xmlns="http://www.w3.org/2000/svg" xmlns:xlink="http://www.w3.org/1999/xlink" viewBox="0 0 75 75"><defs><style>.cls-1,.cls-2,.cls-3,.cls-4,.cls-5{fill:none;stroke-linecap:round;stroke-linejoin:round;stroke-width:3px}.cls-1{stroke:url(#New_Gradient_Swatch_8)}.cls-2{stroke:url(#New_Gradient_Swatch_6)}.cls-3{stroke:url(#New_Gradient_Swatch_6-2)}.cls-4{stroke:url(#New_Gradient_Swatch_6-3)}.cls-5{stroke:url(#New_Gradient_Swatch_6-4)}</style><linearGradient id="New_Gradient_Swatch_8" x1="-1700.98" y1="-2857.89" x2="-1636.56" y2="-2857.89" gradientTransform="rotate(-135 -213.354 -1762.489)" gradientUnits="userSpaceOnUse"><stop offset="0" stop-color="#61c192"/><stop offset="1" stop-color="#61c192" stop-opacity="0"/></linearGradient><linearGradient id="New_Gradient_Swatch_6" y1="19.5" x2="39" y2="19.5" gradientUnits="userSpaceOnUse"><stop offset="0" stop-color="#8fcfac"/><stop offset="1" stop-color="#61c192"/></linearGradient><linearGradient id="New_Gradient_Swatch_6-2" x1="12" y1="25.5" y2="25.5" xlink:href="#New_Gradient_Swatch_6"/><linearGradient id="New_Gradient_Swatch_6-3" x1="36" y1="49.5" x2="63" y2="49.5" xlink:href="#New_Gradient_Swatch_6"/><linearGradient id="New_Gradient_Swatch_6-4" x1="30" y1="37.5" x2="51" y2="37.5" xlink:href="#New_Gradient_Swatch_6"/></defs><title>films</title><g id="Layer_2" data-name="Layer 2"><g id="Layer_1-2" data-name="Layer 1"><path class="cls-1" d="M37.5 1.5a36 36 0 1 1-36 36"/><path class="cls-2" d="M37.5 1.5a36 36 0 0 0-36 36"/><path class="cls-3" d="M13.5 37.5a24 24 0 0 1 24-24"/><path class="cls-4" d="M61.5 37.5a24 24 0 0 1-24 24"/><path class="cls-5" d="M31.5 25.5v24l18-12-18-12z"/></g></g></svg>