<?xml version="1.0" encoding="utf-8"?>
<!-- Generator: Adobe Illustrator 18.1.1, SVG Export Plug-In . SVG Version: 6.00 Build 0)  -->
<svg version="1.1" id="Layer_1" xmlns="http://www.w3.org/2000/svg" xmlns:xlink="http://www.w3.org/1999/xlink" x="0px" y="0px"
	 width="20px" height="20px" viewBox="0 0 20 20" enable-background="new 0 0 20 20" xml:space="preserve">
<g>
	<g>
		<path fill="#F05225" d="M19,20C19,20,19,20,19,20H1c-0.3,0-0.7-0.2-0.9-0.5s-0.2-0.7,0-1l9-18c0.3-0.7,1.4-0.7,1.8,0l8.9,17.8
			c0.1,0.2,0.2,0.4,0.2,0.6C20,19.5,19.6,20,19,20z M2.6,18h14.8L10,3.2L2.6,18z"/>
	</g>
	<g>
		<g>
			<path fill="#F05225" d="M10,14c-0.6,0-1-0.4-1-1V9c0-0.6,0.4-1,1-1c0.6,0,1,0.4,1,1v4C11,13.5,10.6,14,10,14z"/>
		</g>
		<g>
			<path fill="#F05225" d="M10,17c-0.3,0-0.5-0.1-0.7-0.3C9.1,16.5,9,16.2,9,16s0.1-0.5,0.3-0.7c0.4-0.4,1-0.4,1.4,0
				c0.2,0.2,0.3,0.5,0.3,0.7s-0.1,0.5-0.3,0.7C10.5,16.8,10.3,17,10,17z"/>
		</g>
	</g>
</g>
</svg>
