<?xml version="1.0" encoding="utf-8"?>
<!-- Generator: Adobe Illustrator 18.1.1, SVG Export Plug-In . SVG Version: 6.00 Build 0)  -->
<svg version="1.1" id="Layer_1" xmlns="http://www.w3.org/2000/svg" xmlns:xlink="http://www.w3.org/1999/xlink" x="0px" y="0px"
	 width="20px" height="20px" viewBox="0 0 20 20" enable-background="new 0 0 20 20" xml:space="preserve">
<g>
	<path fill="#61C192" d="M9.3,9.2C9.1,9.4,9,9.7,9,9.9c0,0.3,0.1,0.5,0.3,0.7C9.5,10.9,9.7,11,10,11c0.3,0,0.5-0.1,0.7-0.3
		c0.2-0.2,0.3-0.4,0.3-0.7c0-0.3-0.1-0.5-0.3-0.7C10.3,8.9,9.6,8.9,9.3,9.2z"/>
	<path fill="#61C192" d="M9.3,4.8C9.1,5,9,5.2,9,5.5C9,5.8,9.1,6,9.3,6.2C9.5,6.4,9.7,6.5,10,6.5c0.3,0,0.5-0.1,0.7-0.3
		C10.9,6,11,5.8,11,5.5c0-0.3-0.1-0.5-0.3-0.7C10.3,4.4,9.6,4.4,9.3,4.8z"/>
	<path fill="#61C192" d="M14.6,12.9c0.2-0.2,0.3-0.4,0.3-0.7c0-0.3-0.1-0.5-0.3-0.7c-0.4-0.4-1-0.4-1.4,0c-0.2,0.2-0.3,0.5-0.3,0.7
		c0,0.3,0.1,0.5,0.3,0.7c0.2,0.2,0.4,0.3,0.7,0.3C14.1,13.2,14.4,13.1,14.6,12.9z"/>
	<path fill="#61C192" d="M13.9,8.7c0.3,0,0.5-0.1,0.7-0.3c0.2-0.2,0.3-0.4,0.3-0.7c0-0.3-0.1-0.5-0.3-0.7c-0.4-0.4-1-0.4-1.4,0
		c-0.2,0.2-0.3,0.5-0.3,0.7c0,0.3,0.1,0.5,0.3,0.7C13.4,8.6,13.6,8.7,13.9,8.7z"/>
	<path fill="#61C192" d="M5.4,11.5c-0.2,0.2-0.3,0.5-0.3,0.7c0,0.3,0.1,0.5,0.3,0.7c0.2,0.2,0.4,0.3,0.7,0.3c0.3,0,0.5-0.1,0.7-0.3
		c0.2-0.2,0.3-0.4,0.3-0.7c0-0.3-0.1-0.5-0.3-0.7C6.4,11.1,5.7,11.1,5.4,11.5z"/>
	<path fill="#61C192" d="M5.4,7C5.2,7.2,5.1,7.4,5.1,7.7c0,0.3,0.1,0.5,0.3,0.7c0.2,0.2,0.4,0.3,0.7,0.3c0.3,0,0.5-0.1,0.7-0.3
		C7,8.2,7.1,8,7.1,7.7C7.1,7.4,7,7.2,6.8,7C6.4,6.6,5.7,6.6,5.4,7z"/>
	<path fill="#61C192" d="M9.3,0.3C9.1,0.5,9,0.7,9,1c0,0.3,0.1,0.5,0.3,0.7C9.5,1.9,9.7,2,10,2c0.3,0,0.5-0.1,0.7-0.3
		C10.9,1.5,11,1.3,11,1c0-0.3-0.1-0.5-0.3-0.7C10.3-0.1,9.6-0.1,9.3,0.3z"/>
	<path fill="#61C192" d="M5.5,3.4c0.3,0,0.5-0.1,0.7-0.3c0.2-0.2,0.3-0.4,0.3-0.7c0-0.3-0.1-0.5-0.3-0.7c-0.4-0.4-1-0.4-1.4,0
		C4.5,1.9,4.4,2.1,4.4,2.4c0,0.3,0.1,0.5,0.3,0.7C4.9,3.3,5.2,3.4,5.5,3.4z"/>
	<path fill="#61C192" d="M1.4,4.7C1.2,4.9,1.1,5.2,1.1,5.4c0,0.3,0.1,0.5,0.3,0.7c0.2,0.2,0.4,0.3,0.7,0.3c0.3,0,0.5-0.1,0.7-0.3
		C3,6,3.2,5.7,3.2,5.4c0-0.3-0.1-0.5-0.3-0.7C2.5,4.3,1.8,4.4,1.4,4.7z"/>
	<path fill="#61C192" d="M1.7,10.6C1.9,10.5,2,10.2,2,9.9c0-0.3-0.1-0.5-0.3-0.7c-0.4-0.4-1-0.4-1.4,0C0.1,9.4,0,9.7,0,9.9
		c0,0.3,0.1,0.5,0.3,0.7c0.2,0.2,0.4,0.3,0.7,0.3C1.3,10.9,1.5,10.8,1.7,10.6z"/>
	<path fill="#61C192" d="M1.4,13.7c-0.2,0.2-0.3,0.5-0.3,0.7c0,0.3,0.1,0.5,0.3,0.7c0.2,0.2,0.4,0.3,0.7,0.3c0.3,0,0.5-0.1,0.7-0.3
		C3,15,3.2,14.7,3.2,14.4c0-0.3-0.1-0.5-0.3-0.7C2.5,13.3,1.8,13.4,1.4,13.7z"/>
	<path fill="#61C192" d="M4.7,16.7c-0.2,0.2-0.3,0.5-0.3,0.7c0,0.3,0.1,0.5,0.3,0.7c0.2,0.2,0.4,0.3,0.7,0.3c0.3,0,0.5-0.1,0.7-0.3
		c0.2-0.2,0.3-0.4,0.3-0.7c0-0.3-0.1-0.5-0.3-0.7C5.8,16.3,5.1,16.3,4.7,16.7z"/>
	<path fill="#61C192" d="M13.7,16.8c-0.2,0.2-0.3,0.5-0.3,0.7c0,0.3,0.1,0.5,0.3,0.7c0.2,0.2,0.4,0.3,0.7,0.3c0.3,0,0.5-0.1,0.7-0.3
		c0.2-0.2,0.3-0.4,0.3-0.7c0-0.3-0.1-0.5-0.3-0.7C14.8,16.4,14.1,16.4,13.7,16.8z"/>
	<path fill="#61C192" d="M17.1,13.7c-0.2,0.2-0.3,0.5-0.3,0.7c0,0.3,0.1,0.5,0.3,0.7c0.2,0.2,0.4,0.3,0.7,0.3c0.3,0,0.5-0.1,0.7-0.3
		c0.2-0.2,0.3-0.4,0.3-0.7c0-0.3-0.1-0.5-0.3-0.7C18.2,13.3,17.5,13.4,17.1,13.7z"/>
	<path fill="#61C192" d="M19.7,9.2c-0.4-0.4-1-0.4-1.4,0C18.1,9.4,18,9.7,18,9.9c0,0.3,0.1,0.5,0.3,0.7c0.2,0.2,0.4,0.3,0.7,0.3
		c0.3,0,0.5-0.1,0.7-0.3c0.2-0.2,0.3-0.4,0.3-0.7C20,9.7,19.9,9.4,19.7,9.2z"/>
	<path fill="#61C192" d="M17.8,6.4c0.3,0,0.5-0.1,0.7-0.3c0.2-0.2,0.3-0.4,0.3-0.7c0-0.3-0.1-0.5-0.3-0.7c-0.4-0.4-1-0.4-1.4,0
		c-0.2,0.2-0.3,0.5-0.3,0.7c0,0.3,0.1,0.5,0.3,0.7C17.3,6.3,17.5,6.4,17.8,6.4z"/>
	<path fill="#61C192" d="M13.7,1.7c-0.2,0.2-0.3,0.5-0.3,0.7c0,0.3,0.1,0.5,0.3,0.7c0.2,0.2,0.4,0.3,0.7,0.3c0.3,0,0.5-0.1,0.7-0.3
		c0.2-0.2,0.3-0.4,0.3-0.7c0-0.3-0.1-0.5-0.3-0.7C14.8,1.3,14.1,1.3,13.7,1.7z"/>
	<path fill="#61C192" d="M9.3,13.8C9.1,14,9,14.2,9,14.5c0,0.3,0.1,0.5,0.3,0.7c0.2,0.2,0.4,0.3,0.7,0.3c0.3,0,0.5-0.1,0.7-0.3
		c0.2-0.2,0.3-0.4,0.3-0.7c0-0.3-0.1-0.5-0.3-0.7C10.3,13.4,9.6,13.4,9.3,13.8z"/>
	<path fill="#61C192" d="M9.3,18.3C9.1,18.5,9,18.7,9,19c0,0.3,0.1,0.5,0.3,0.7C9.5,19.9,9.7,20,10,20c0.3,0,0.5-0.1,0.7-0.3
		c0.2-0.2,0.3-0.4,0.3-0.7c0-0.3-0.1-0.5-0.3-0.7C10.3,17.9,9.6,17.9,9.3,18.3z"/>
</g>
</svg>
