<?xml version="1.0" encoding="utf-8"?>
<!-- Generated by IcoMoon.io -->
<!DOCTYPE svg PUBLIC "-//W3C//DTD SVG 1.1//EN" "http://www.w3.org/Graphics/SVG/1.1/DTD/svg11.dtd">
<svg version="1.1" xmlns="http://www.w3.org/2000/svg" xmlns:xlink="http://www.w3.org/1999/xlink" width="60" height="60" viewBox="0 0 60 60">
<path fill="#61c192" d="M30 0c-16.579 0-30 13.421-30 30s13.421 30 30 30 30-13.421 30-30-13.421-30-30-30zM6.316 17.368h31.737c0.632 2.211 2.368 3.947 4.579 4.579v16.263c-2.211 0.632-3.947 2.368-4.579 4.579h-31.737c-2.053-3.789-3.158-8.053-3.158-12.632s1.105-9 3.158-12.789zM30 56.842c-8.842 0-16.737-4.421-21.632-11.053h31.105c0.947 0 1.579-0.632 1.579-1.579 0-1.737 1.421-3.158 3.158-3.158 0.947 0 1.579-0.632 1.579-1.579v-18.947c0-0.947-0.632-1.579-1.579-1.579-1.737 0-3.158-1.421-3.158-3.158 0-0.947-0.632-1.579-1.579-1.579h-31.105c4.895-6.632 12.789-11.053 21.632-11.053 14.842 0 26.842 12 26.842 26.842s-12 26.842-26.842 26.842z"></path>
<path fill="#61c192" d="M13.895 28.737l3.158 3-0.789 4.263c-0.158 0.632 0.158 1.263 0.632 1.579s1.105 0.474 1.737 0.158l3.947-2.053 3.947 2.053c0.158 0.158 0.316 0.158 0.632 0.158s0.632-0.158 0.947-0.316c0.474-0.316 0.789-0.947 0.632-1.579l-0.789-4.263 3.158-3c0.474-0.474 0.632-1.105 0.474-1.579-0.158-0.632-0.632-0.947-1.263-1.105l-4.421-0.789-1.895-3.947c-0.316-0.474-0.947-0.789-1.421-0.789-0.632 0-1.105 0.316-1.421 0.947l-2.053 3.789-4.263 0.632c-0.632 0.158-1.105 0.474-1.263 1.105s0 1.263 0.316 1.737zM20.368 28.421c0.474 0 0.947-0.474 1.263-0.789l0.947-1.737 0.947 1.737c0.158 0.474 0.632 0.789 1.263 0.789l2.053 0.316-1.737 1.263c-0.316 0.316-0.474 0.947-0.474 1.421l0.316 2.053-1.737-0.947c-0.158-0.158-0.474-0.158-0.789-0.158s-0.474 0-0.789 0.158l-1.737 0.947 0.316-2.053c0.158-0.474-0.158-1.105-0.474-1.421l-1.421-1.421 2.053-0.158z"></path>
</svg>
