<?xml version="1.0" encoding="utf-8"?>
<!-- Generator: Adobe Illustrator 18.1.1, SVG Export Plug-In . SVG Version: 6.00 Build 0)  -->
<svg version="1.1" id="Layer_1" xmlns="http://www.w3.org/2000/svg" xmlns:xlink="http://www.w3.org/1999/xlink" x="0px" y="0px"
	 width="20px" height="20px" viewBox="0 0 20 20" enable-background="new 0 0 20 20" xml:space="preserve">
<g>
	<path fill-rule="evenodd" clip-rule="evenodd" fill="#878B8F" d="M10,1c-5.1,0-9.2,4.1-9.2,9.2c0,4.1,2.6,7.5,6.3,8.8
		c0.5,0.1,0.6-0.2,0.6-0.4c0-0.2,0-0.9,0-1.7c-2.6,0.6-3.1-1.1-3.1-1.1c-0.4-1.1-1-1.3-1-1.3c-0.8-0.6,0.1-0.6,0.1-0.6
		C4.5,13.9,5,14.8,5,14.8c0.8,1.4,2.2,1,2.7,0.8c0.1-0.6,0.3-1,0.6-1.2c-2-0.2-4.2-1-4.2-4.6c0-1,0.4-1.8,0.9-2.5
		C5,7,4.6,6.1,5.1,4.8c0,0,0.8-0.2,2.5,0.9C8.4,5.6,9.2,5.4,10,5.4c0.8,0,1.6,0.1,2.3,0.3c1.8-1.2,2.5-0.9,2.5-0.9
		C15.3,6.1,15,7,14.9,7.2c0.6,0.6,0.9,1.5,0.9,2.5c0,3.5-2.2,4.3-4.2,4.6c0.3,0.3,0.6,0.8,0.6,1.7c0,1.2,0,2.2,0,2.5
		c0,0.2,0.2,0.5,0.6,0.4c3.7-1.2,6.3-4.7,6.3-8.8C19.2,5.1,15.1,1,10,1z"/>
</g>
</svg>
