<?xml version="1.0" encoding="utf-8"?>
<!-- Generator: Adobe Illustrator 18.1.1, SVG Export Plug-In . SVG Version: 6.00 Build 0)  -->
<svg version="1.1" id="Layer_1" xmlns="http://www.w3.org/2000/svg" xmlns:xlink="http://www.w3.org/1999/xlink" x="0px" y="0px"
	 width="20px" height="20px" viewBox="0 0 20 20" enable-background="new 0 0 20 20" xml:space="preserve">
<path fill="#121921" d="M19,2H1C0.4,2,0,2.4,0,3v14c0,0.6,0.4,1,1,1h18c0.6,0,1-0.4,1-1V3C20,2.4,19.6,2,19,2z M18,4v1.4L9.8,10
	L2,5.4V4H18z M2,16V7.6L9.4,12c0.1,0.1,0.3,0.1,0.4,0.1s0.3,0,0.4-0.1L18,7.6V16H2z"/>
</svg>
