<?xml version="1.0" encoding="utf-8"?>
<!-- Generator: Adobe Illustrator 18.1.1, SVG Export Plug-In . SVG Version: 6.00 Build 0)  -->
<svg version="1.1" id="Layer_1" xmlns="http://www.w3.org/2000/svg" xmlns:xlink="http://www.w3.org/1999/xlink" x="0px" y="0px"
	 width="20px" height="20px" viewBox="0 0 20 20" enable-background="new 0 0 20 20" xml:space="preserve">
<g>
	<path fill="#878B8F" d="M16.8,3.2c-2.7-2.7-5.4,0-5.4,0L8.7,5.9L8.5,6.1c1.7-0.5,2.5,0.2,2.5,0.2l1.7-1.7c0,0,1.4-1.4,2.7,0
		c1.4,1.4,0,2.7,0,2.7l-3.6,3.6c-1.4,1.4-2.7,0-2.7,0c-0.7-0.7-0.7-1.3-0.7-1.3L7,11.1c0,0,0.3,0.7,0.8,1.2c2.7,2.7,5.4,0,5.4,0
		l3.6-3.6C16.8,8.6,19.5,5.9,16.8,3.2z"/>
	<path fill="#878B8F" d="M8.9,13.7l-1.7,1.7c0,0-1.4,1.4-2.7,0c-1.4-1.4,0-2.7,0-2.7s2.3-2.3,3.6-3.6c1.4-1.4,2.7,0,2.7,0
		c0.7,0.7,0.7,1.3,0.7,1.3L13,8.9c0,0-0.3-0.7-0.8-1.2c-2.7-2.7-5.4,0-5.4,0l-3.6,3.6c0,0-2.7,2.7,0,5.4c2.7,2.7,5.4,0,5.4,0
		l2.7-2.7l0.2-0.2C9.8,14.4,8.9,13.7,8.9,13.7z"/>
</g>
</svg>
