<?xml version="1.0" encoding="utf-8"?>
<!-- Generator: Adobe Illustrator 18.1.1, SVG Export Plug-In . SVG Version: 6.00 Build 0)  -->
<svg version="1.1" id="Layer_1" xmlns="http://www.w3.org/2000/svg" xmlns:xlink="http://www.w3.org/1999/xlink" x="0px" y="0px"
	 width="72px" height="108px" viewBox="0 0 72 108" enable-background="new 0 0 72 108" xml:space="preserve">
<g>
	
		<linearGradient id="SVGID_1_" gradientUnits="userSpaceOnUse" x1="6.629685e-03" y1="35.9992" x2="61.8152" y2="35.9992" gradientTransform="matrix(0.7071 -0.7071 0.7071 0.7071 -14.9103 35.9966)">
		<stop  offset="0" style="stop-color:#61C192"/>
		<stop  offset="1" style="stop-color:#61C192;stop-opacity:0"/>
	</linearGradient>
	<path fill="url(#SVGID_1_)" d="M36,72c-0.9,0-1.7,0-2.6-0.1C15.6,70.7,1.3,56.4,0.1,38.6c-0.7-10.1,2.7-19.7,9.6-27.1
		C16.5,4.2,26,0.1,36,0.1c0.8,0,1.4,0.6,1.4,1.4S36.8,2.9,36,2.9c-9.1,0-18,3.8-24.2,10.5C5.4,20.2,2.3,29.1,3,38.4
		C4.1,54.7,17.3,67.9,33.6,69c9.3,0.6,18.1-2.5,24.9-8.8C65.2,54,69.1,45.2,69.1,36c0-0.8,0.6-1.4,1.4-1.4c0.8,0,1.4,0.6,1.4,1.4
		c0,9.9-4.2,19.5-11.4,26.3C53.8,68.6,45.2,72,36,72z"/>
	<g>
		<linearGradient id="SVGID_2_" gradientUnits="userSpaceOnUse" x1="34.591" y1="30.215" x2="48.9791" y2="30.215">
			<stop  offset="0" style="stop-color:#8FCFAC"/>
			<stop  offset="1" style="stop-color:#61C192"/>
		</linearGradient>
		<path fill="url(#SVGID_2_)" d="M47.5,37.4H36c-0.8,0-1.4-0.6-1.4-1.4V24.5c0-0.8,0.6-1.4,1.4-1.4C43.2,23,49,28.8,49,36
			C49,36.8,48.3,37.4,47.5,37.4z M37.5,34.5H46c-0.6-4.4-4.1-7.9-8.5-8.5V34.5z"/>
		<linearGradient id="SVGID_3_" gradientUnits="userSpaceOnUse" x1="34.591" y1="24.4597" x2="60.4895" y2="24.4597">
			<stop  offset="0" style="stop-color:#8FCFAC"/>
			<stop  offset="1" style="stop-color:#61C192"/>
		</linearGradient>
		<path fill="url(#SVGID_3_)" d="M59.1,37.4c-0.8,0-1.4-0.6-1.4-1.4c0-11.9-9.7-21.6-21.6-21.6c-0.8,0-1.4-0.6-1.4-1.4
			s0.6-1.4,1.4-1.4c13.5,0,24.5,11,24.5,24.5C60.5,36.8,59.8,37.4,59.1,37.4z"/>
		<linearGradient id="SVGID_4_" gradientUnits="userSpaceOnUse" x1="34.591" y1="18.7045" x2="72" y2="18.7045">
			<stop  offset="0" style="stop-color:#8FCFAC"/>
			<stop  offset="1" style="stop-color:#61C192"/>
		</linearGradient>
		<path fill="url(#SVGID_4_)" d="M70.6,37.4c-0.8,0-1.4-0.6-1.4-1.4C69.1,17.7,54.3,2.9,36,2.9c-0.8,0-1.4-0.6-1.4-1.4S35.2,0,36,0
			c19.8,0,36,16.1,36,36C72,36.8,71.4,37.4,70.6,37.4z"/>
	</g>
</g>
<g>
	<path fill="#121921" d="M0,90.2h3.2l8,10.5V90.2h3.8v17.3h-3.2L3.8,97v10.5H0V90.2z"/>
	<path fill="#121921" d="M30.6,93.7h-6.4V97h5.7v3.5h-5.7v3.5h6.6v3.6H20.5V90.2h10.2V93.7z"/>
	<path fill="#121921" d="M41.5,100.5l3-10.2h3.1l3,10.3l3-10.3h4l-5.2,17.3h-3.4l-3-10.3L43,107.6h-3.4l-5.2-17.3h4L41.5,100.5z"/>
	<path fill="#121921" d="M68.7,95.3c-1-1.6-1.5-2-2.5-2c-1,0-1.8,0.8-1.8,1.7c0,0.6,0.6,1.1,1.7,1.5l1.6,0.6c3,1.1,4.4,2.7,4.4,5.1
		c0,3.2-2.7,5.7-6.2,5.7c-1.9,0-3.7-0.8-4.7-2.1c-0.7-0.9-1.1-1.7-1.4-3.3l3.8-1l0.1,0.2l0.1,0.4c0.4,1.5,1.1,2.2,2.3,2.2
		c1.2,0,2.2-0.9,2.2-2.1c0-0.8-0.5-1.2-2.2-1.9l-1.5-0.6c-2.7-1-4-2.6-4-4.8c0-3,2.5-5.3,5.8-5.3c2.4,0,4.1,1,5.6,3.5L68.7,95.3z"/>
</g>
</svg>
