<?xml version="1.0" encoding="utf-8"?>
<!-- Generator: Adobe Illustrator 18.1.1, SVG Export Plug-In . SVG Version: 6.00 Build 0)  -->
<svg version="1.1" id="Layer_1" xmlns="http://www.w3.org/2000/svg" xmlns:xlink="http://www.w3.org/1999/xlink" x="0px" y="0px"
	 width="123.8px" height="36px" viewBox="0 0 123.8 36" enable-background="new 0 0 123.8 36" xml:space="preserve">
<g>
	
		<linearGradient id="SVGID_1_" gradientUnits="userSpaceOnUse" x1="-417.0372" y1="-419.2308" x2="-386.1081" y2="-419.2308" gradientTransform="matrix(-0.7071 -0.7071 0.7071 -0.7071 32.2721 -560.6099)">
		<stop  offset="0" style="stop-color:#61C192"/>
		<stop  offset="1" style="stop-color:#61C192;stop-opacity:0"/>
	</linearGradient>
	<path fill="url(#SVGID_1_)" d="M18,36c-4.6,0-8.9-1.7-12.3-4.8C2.1,27.8,0,23,0,18c0-0.4,0.3-0.7,0.7-0.7s0.7,0.3,0.7,0.7
		c0,4.6,1.9,9,5.3,12.1c3.4,3.2,7.8,4.7,12.5,4.4C27.4,34,34,27.4,34.5,19.2c0.3-4.7-1.2-9.1-4.4-12.5C27,3.4,22.6,1.4,18,1.4
		c-0.4,0-0.7-0.3-0.7-0.7S17.6,0,18,0c5,0,9.8,2.1,13.2,5.7c3.4,3.7,5.1,8.5,4.8,13.6c-0.6,8.9-7.8,16.1-16.7,16.7
		C18.8,36,18.4,36,18,36z"/>
	<linearGradient id="SVGID_2_" gradientUnits="userSpaceOnUse" x1="-2.514094e-06" y1="9.3598" x2="18.7197" y2="9.3598">
		<stop  offset="0" style="stop-color:#8FCFAC"/>
		<stop  offset="1" style="stop-color:#61C192"/>
	</linearGradient>
	<path fill="url(#SVGID_2_)" d="M0.7,18.7C0.3,18.7,0,18.4,0,18C0,8.1,8.1,0,18,0c0.4,0,0.7,0.3,0.7,0.7S18.4,1.4,18,1.4
		C8.9,1.4,1.4,8.9,1.4,18C1.4,18.4,1.1,18.7,0.7,18.7z"/>
	<linearGradient id="SVGID_3_" gradientUnits="userSpaceOnUse" x1="5.7599" y1="12.2398" x2="18.7197" y2="12.2398">
		<stop  offset="0" style="stop-color:#8FCFAC"/>
		<stop  offset="1" style="stop-color:#61C192"/>
	</linearGradient>
	<path fill="url(#SVGID_3_)" d="M6.5,18.7c-0.4,0-0.7-0.3-0.7-0.7c0-6.7,5.5-12.2,12.2-12.2c0.4,0,0.7,0.3,0.7,0.7
		c0,0.4-0.3,0.7-0.7,0.7C12,7.2,7.2,12,7.2,18C7.2,18.4,6.9,18.7,6.5,18.7z"/>
	<linearGradient id="SVGID_4_" gradientUnits="userSpaceOnUse" x1="17.2797" y1="23.7596" x2="30.2395" y2="23.7596">
		<stop  offset="0" style="stop-color:#8FCFAC"/>
		<stop  offset="1" style="stop-color:#61C192"/>
	</linearGradient>
	<path fill="url(#SVGID_4_)" d="M18,30.2c-0.4,0-0.7-0.3-0.7-0.7s0.3-0.7,0.7-0.7c6,0,10.8-4.8,10.8-10.8c0-0.4,0.3-0.7,0.7-0.7
		s0.7,0.3,0.7,0.7C30.2,24.7,24.7,30.2,18,30.2z"/>
	<linearGradient id="SVGID_5_" gradientUnits="userSpaceOnUse" x1="14.3998" y1="17.9997" x2="24.4796" y2="17.9997">
		<stop  offset="0" style="stop-color:#8FCFAC"/>
		<stop  offset="1" style="stop-color:#61C192"/>
	</linearGradient>
	<path fill="url(#SVGID_5_)" d="M15.1,24.5c-0.1,0-0.2,0-0.3-0.1c-0.2-0.1-0.4-0.4-0.4-0.6V12.2c0-0.3,0.1-0.5,0.4-0.6
		c0.2-0.1,0.5-0.1,0.7,0l8.6,5.8c0.2,0.1,0.3,0.4,0.3,0.6c0,0.2-0.1,0.5-0.3,0.6l-8.6,5.8C15.4,24.4,15.3,24.5,15.1,24.5z
		 M15.8,13.6v8.8l6.6-4.4L15.8,13.6z"/>
</g>
<g>
	<path fill="#121921" d="M61.5,13h-5.8v3.2H61v3.6h-5.3v7h-3.8V9.4h9.6V13z"/>
	<path fill="#121921" d="M70.2,26.8h-3.8V9.4h3.8V26.8z"/>
	<path fill="#121921" d="M79.7,9.4v13.8h6.1v3.6h-10V9.4H79.7z"/>
	<path fill="#121921" d="M90.2,9.4h3.5l5.2,9l5.2-9h3.5v17.3h-3.8v-9.6l-3.5,6.2h-2.8L94,17.2v9.6h-3.8V9.4z"/>
	<path fill="#121921" d="M120.5,14.5c-1-1.6-1.5-2-2.5-2c-1,0-1.8,0.8-1.8,1.7c0,0.6,0.6,1.1,1.7,1.5l1.6,0.6c3,1.1,4.4,2.7,4.4,5.1
		c0,3.2-2.7,5.7-6.2,5.7c-1.9,0-3.7-0.8-4.7-2.1c-0.7-0.9-1.1-1.7-1.4-3.3l3.8-1l0.1,0.2l0.1,0.4c0.4,1.5,1.1,2.2,2.3,2.2
		c1.2,0,2.2-0.9,2.2-2.1c0-0.8-0.5-1.2-2.2-1.9l-1.5-0.6c-2.7-1-4-2.6-4-4.8c0-3,2.5-5.3,5.8-5.3c2.4,0,4.1,1,5.6,3.5L120.5,14.5z"
		/>
</g>
</svg>
