<?xml version="1.0" encoding="utf-8"?>
<!-- Generator: Adobe Illustrator 18.1.1, SVG Export Plug-In . SVG Version: 6.00 Build 0)  -->
<svg version="1.1" id="Layer_1" xmlns="http://www.w3.org/2000/svg" xmlns:xlink="http://www.w3.org/1999/xlink" x="0px" y="0px"
	 width="126px" height="108.4px" viewBox="0 0 126 108.4" enable-background="new 0 0 126 108.4" xml:space="preserve">
<path fill="#121921" d="M3.8,108H0V90.7h4.3c1.7,0,2.8,0.2,3.8,0.8c1.7,0.9,2.7,2.8,2.7,4.9c0,2.1-1,3.9-2.7,4.9
	c-1,0.5-2.1,0.8-3.8,0.8H3.8V108z M4.5,98.5c1.8,0,2.5-0.6,2.5-2.2c0-1.5-0.8-2.1-2.5-2.1H3.8v4.3H4.5z"/>
<path fill="#121921" d="M31.3,99.3c0,5-4.2,9.1-9.3,9.1c-5.1,0-9.2-4.2-9.2-9.3c0-4.8,4.3-9,9.2-9C27.2,90.2,31.3,94.3,31.3,99.3z
	 M16.7,99.4c0,2.9,2.5,5.4,5.4,5.4c3,0,5.4-2.5,5.4-5.5c0-3.1-2.4-5.5-5.4-5.5C19.1,93.8,16.7,96.3,16.7,99.4z"/>
<path fill="#121921" d="M38.4,90.7c5.8,0,9.5,3.4,9.5,8.7c0,5.3-3.7,8.7-9.5,8.7h-4.3V90.7H38.4z M37.9,104.4h0.5
	c3.5,0,5.6-1.9,5.6-5.1c0-3.2-2.1-5.1-5.6-5.1h-0.5V104.4z"/>
<path fill="#121921" d="M63.9,96.2c-1.5-1.7-2.7-2.4-4.4-2.4c-3,0-5.3,2.4-5.3,5.5c0,3,2.4,5.5,5.4,5.5c1.7,0,2.9-0.6,4.4-2.4
	l2.7,2.5c-2.3,2.4-4.4,3.4-7.1,3.4c-5.1,0-9.3-4.1-9.3-9.1c0-5,4.1-9.1,9.3-9.1c2.7,0,4.8,1,7,3.4L63.9,96.2z"/>
<path fill="#121921" d="M73.2,104.2l-1.3,3.8h-4.1l6.5-17.3h4.4l6.5,17.3h-4.1l-1.3-3.8H73.2z M76.5,94.8l-2,5.8h4.1L76.5,94.8z"/>
<path fill="#121921" d="M95.2,95.7c-1-1.6-1.5-2-2.5-2c-1,0-1.8,0.8-1.8,1.7c0,0.6,0.6,1.1,1.7,1.5l1.6,0.6c3,1.1,4.4,2.7,4.4,5.1
	c0,3.2-2.7,5.7-6.2,5.7c-1.9,0-3.7-0.8-4.7-2.1c-0.7-0.9-1.1-1.7-1.4-3.3l3.8-1l0.1,0.2l0.1,0.4c0.4,1.5,1.1,2.2,2.3,2.2
	c1.2,0,2.2-0.9,2.2-2.1c0-0.8-0.5-1.2-2.2-1.9l-1.5-0.6c-2.7-1-4-2.6-4-4.8c0-3,2.5-5.3,5.8-5.3c2.4,0,4.1,1,5.6,3.5L95.2,95.7z"/>
<path fill="#121921" d="M112.5,94.2h-4.1V108h-3.8V94.2h-4.1v-3.6h12V94.2z"/>
<path fill="#121921" d="M122.7,95.7c-1-1.6-1.5-2-2.5-2c-1,0-1.8,0.8-1.8,1.7c0,0.6,0.6,1.1,1.7,1.5l1.6,0.6c3,1.1,4.4,2.7,4.4,5.1
	c0,3.2-2.7,5.7-6.2,5.7c-1.9,0-3.7-0.8-4.7-2.1c-0.7-0.9-1.1-1.7-1.4-3.3l3.8-1l0.1,0.2l0.1,0.4c0.4,1.5,1.1,2.2,2.3,2.2
	c1.2,0,2.2-0.9,2.2-2.1c0-0.8-0.5-1.2-2.2-1.9l-1.5-0.6c-2.7-1-4-2.6-4-4.8c0-3,2.5-5.3,5.8-5.3c2.4,0,4.1,1,5.6,3.5L122.7,95.7z"/>
<g>
	
		<linearGradient id="SVGID_1_" gradientUnits="userSpaceOnUse" x1="-46.8781" y1="214.1617" x2="14.9821" y2="214.1617" gradientTransform="matrix(4.489700e-11 1 -1 4.489700e-11 277.1617 46.8781)">
		<stop  offset="0" style="stop-color:#61C192"/>
		<stop  offset="1" style="stop-color:#61C192;stop-opacity:0"/>
	</linearGradient>
	<path fill="url(#SVGID_1_)" d="M87.4,61.9c-0.4,0-0.7-0.1-1-0.4c-0.6-0.6-0.6-1.5,0-2c6.5-6.5,10-15.4,9.7-24.6
		c-0.3-9.3-4.4-17.8-11.4-23.9c-12.4-10.8-31-10.8-43.4,0c-7,6.1-11.1,14.6-11.4,23.9c-0.3,9.1,3.2,18.1,9.7,24.6
		c0.6,0.6,0.6,1.5,0,2c-0.6,0.6-1.5,0.6-2,0c-7-7-10.9-16.8-10.5-26.7c0.3-10.1,4.7-19.3,12.4-26c13.4-11.7,33.7-11.7,47.2,0
		c7.6,6.7,12,15.9,12.4,26c0.3,9.9-3.5,19.7-10.5,26.7C88.2,61.7,87.8,61.9,87.4,61.9z"/>
	<linearGradient id="SVGID_2_" gradientUnits="userSpaceOnUse" x1="75.4126" y1="55.2906" x2="98.3363" y2="55.2906">
		<stop  offset="0" style="stop-color:#8FCFAC"/>
		<stop  offset="1" style="stop-color:#61C192"/>
	</linearGradient>
	<path fill="url(#SVGID_2_)" d="M76.9,69.1c-0.3,0-0.6-0.1-0.8-0.2c-0.4-0.3-0.7-0.7-0.7-1.2V42.9c0-0.8,0.6-1.4,1.4-1.4h20
		c0.4,0,0.8,0.2,1.1,0.5c0.3,0.3,0.4,0.8,0.3,1.2C96,54.7,88.2,64.3,77.4,69C77.2,69.1,77,69.1,76.9,69.1z M78.3,44.3v21
		c8.3-4.3,14.4-12,16.8-21H78.3z"/>
	<linearGradient id="SVGID_3_" gradientUnits="userSpaceOnUse" x1="27.7209" y1="55.2906" x2="50.6445" y2="55.2906">
		<stop  offset="0" style="stop-color:#8FCFAC"/>
		<stop  offset="1" style="stop-color:#61C192"/>
	</linearGradient>
	<path fill="url(#SVGID_3_)" d="M49.2,69.1c-0.2,0-0.4,0-0.6-0.1c-10.7-4.7-18.6-14.3-20.9-25.8c-0.1-0.4,0-0.9,0.3-1.2
		c0.3-0.3,0.7-0.5,1.1-0.5h20c0.8,0,1.4,0.6,1.4,1.4v24.8c0,0.5-0.2,0.9-0.7,1.2C49.8,69,49.5,69.1,49.2,69.1z M31,44.3
		c2.4,9.1,8.5,16.7,16.8,21v-21H31z"/>
</g>
<linearGradient id="SVGID_4_" gradientUnits="userSpaceOnUse" x1="38.5197" y1="24.4967" x2="87.4803" y2="24.4967">
	<stop  offset="0" style="stop-color:#8FCFAC"/>
	<stop  offset="1" style="stop-color:#61C192"/>
</linearGradient>
<path fill="url(#SVGID_4_)" d="M86,37.5c-0.8,0-1.4-0.6-1.4-1.4c0-11.9-9.7-21.6-21.6-21.6S41.4,24.1,41.4,36c0,0.8-0.6,1.4-1.4,1.4
	c-0.8,0-1.4-0.6-1.4-1.4c0-13.5,11-24.5,24.5-24.5s24.5,11,24.5,24.5C87.5,36.8,86.8,37.5,86,37.5z"/>
</svg>
