<?xml version="1.0" encoding="utf-8"?>
<!-- Generator: Adobe Illustrator 18.1.1, SVG Export Plug-In . SVG Version: 6.00 Build 0)  -->
<svg version="1.1" id="Layer_1" xmlns="http://www.w3.org/2000/svg" xmlns:xlink="http://www.w3.org/1999/xlink" x="0px" y="0px"
	 width="123.8px" height="36px" viewBox="0 0 123.8 36" enable-background="new 0 0 123.8 36" xml:space="preserve">
<g>
	
		<linearGradient id="SVGID_1_" gradientUnits="userSpaceOnUse" x1="-254.1033" y1="-124.5327" x2="-223.199" y2="-124.5327" gradientTransform="matrix(0.7071 -0.7071 0.7071 0.7071 273.0109 -60.8967)">
		<stop  offset="0" style="stop-color:#61C192"/>
		<stop  offset="1" style="stop-color:#61C192;stop-opacity:0"/>
	</linearGradient>
	<path fill="url(#SVGID_1_)" d="M18,36c-0.4,0-0.9,0-1.3,0C7.8,35.3,0.7,28.2,0,19.3c-0.3-5.1,1.4-9.9,4.8-13.5C8.2,2.1,13,0,18,0
		c0.4,0,0.7,0.3,0.7,0.7S18.4,1.5,18,1.5c-4.6,0-9,1.9-12.1,5.3c-3.2,3.4-4.7,7.8-4.4,12.5C2,27.4,8.6,34,16.8,34.5
		c4.7,0.3,9.1-1.2,12.5-4.4c3.3-3.1,5.3-7.5,5.3-12.1c0-0.4,0.3-0.7,0.7-0.7c0.4,0,0.7,0.3,0.7,0.7c0,5-2.1,9.8-5.7,13.2
		C26.9,34.3,22.6,36,18,36z"/>
	<g>
		<linearGradient id="SVGID_2_" gradientUnits="userSpaceOnUse" x1="17.2955" y1="15.1075" x2="24.4896" y2="15.1075">
			<stop  offset="0" style="stop-color:#8FCFAC"/>
			<stop  offset="1" style="stop-color:#61C192"/>
		</linearGradient>
		<path fill="url(#SVGID_2_)" d="M23.8,18.7H18c-0.4,0-0.7-0.3-0.7-0.7v-5.8c0-0.4,0.3-0.7,0.7-0.7c3.6,0,6.5,2.9,6.5,6.5
			C24.5,18.4,24.2,18.7,23.8,18.7z M18.7,17.3H23c-0.3-2.2-2.1-3.9-4.3-4.3V17.3z"/>
		<linearGradient id="SVGID_3_" gradientUnits="userSpaceOnUse" x1="17.2955" y1="12.2299" x2="30.2448" y2="12.2299">
			<stop  offset="0" style="stop-color:#8FCFAC"/>
			<stop  offset="1" style="stop-color:#61C192"/>
		</linearGradient>
		<path fill="url(#SVGID_3_)" d="M29.5,18.7c-0.4,0-0.7-0.3-0.7-0.7C28.8,12,24,7.2,18,7.2c-0.4,0-0.7-0.3-0.7-0.7
			c0-0.4,0.3-0.7,0.7-0.7c6.7,0,12.2,5.5,12.2,12.2C30.2,18.4,29.9,18.7,29.5,18.7z"/>
		<linearGradient id="SVGID_4_" gradientUnits="userSpaceOnUse" x1="17.2955" y1="9.3522" x2="36" y2="9.3522">
			<stop  offset="0" style="stop-color:#8FCFAC"/>
			<stop  offset="1" style="stop-color:#61C192"/>
		</linearGradient>
		<path fill="url(#SVGID_4_)" d="M35.3,18.7c-0.4,0-0.7-0.3-0.7-0.7c0-9.1-7.4-16.5-16.5-16.5c-0.4,0-0.7-0.3-0.7-0.7S17.6,0,18,0
			c9.9,0,18,8.1,18,18C36,18.4,35.7,18.7,35.3,18.7z"/>
	</g>
</g>
<g>
	<path fill="#FFFFFF" d="M51.8,9.4h3.2l8,10.5V9.4h3.8v17.3h-3.2l-8-10.5v10.5h-3.8V9.4z"/>
	<path fill="#FFFFFF" d="M82.5,13h-6.4v3.3h5.7v3.5h-5.7v3.5h6.6v3.6H72.3V9.4h10.2V13z"/>
	<path fill="#FFFFFF" d="M93.3,19.7l3-10.2h3.1l3,10.3l3-10.3h4l-5.2,17.3H101l-3-10.3l-3.1,10.3h-3.4L86.3,9.4h4L93.3,19.7z"/>
	<path fill="#FFFFFF" d="M120.5,14.5c-1-1.6-1.5-2-2.5-2c-1,0-1.8,0.8-1.8,1.7c0,0.6,0.6,1.1,1.7,1.5l1.6,0.6c3,1.1,4.4,2.7,4.4,5.1
		c0,3.2-2.7,5.7-6.2,5.7c-1.9,0-3.7-0.8-4.7-2.1c-0.7-0.9-1.1-1.7-1.4-3.3l3.8-1l0.1,0.2l0.1,0.4c0.4,1.5,1.1,2.2,2.3,2.2
		c1.2,0,2.2-0.9,2.2-2.1c0-0.8-0.5-1.2-2.2-1.9l-1.5-0.6c-2.7-1-4-2.6-4-4.8c0-3,2.5-5.3,5.8-5.3c2.4,0,4.1,1,5.6,3.5L120.5,14.5z"
		/>
</g>
</svg>
