<svg width="199" height="61" viewBox="0 0 199 61" fill="none" xmlns="http://www.w3.org/2000/svg">
<g clip-path="url(#clip0)">
<path d="M138.603 24.6803H131.32V28.3898H137.799V32.4234H131.32V36.3692H138.872V40.4359H126.949V20.6521H138.603V24.6803Z" fill="white"/>
<path d="M35.5107 26.9335C33.7547 24.9441 32.4171 24.2352 30.5179 24.2352C28.875 24.2836 27.3155 24.9693 26.1705 26.1466C25.0255 27.3239 24.3851 28.9003 24.3851 30.5413C24.3851 32.1823 25.0255 33.7586 26.1705 34.936C27.3155 36.1133 28.875 36.7989 30.5179 36.8474C32.4171 36.8474 33.7877 36.1055 35.5713 34.0996L38.6924 37.0067C36.1052 39.7545 33.6997 40.925 30.5785 40.925C29.1903 40.9569 27.8097 40.7114 26.5179 40.2031C25.226 39.6947 24.049 38.9338 23.0559 37.9649C22.0628 36.996 21.2737 35.8387 20.7349 34.561C20.1962 33.2833 19.9186 31.9111 19.9186 30.5248C19.9186 29.1385 20.1962 27.7663 20.7349 26.4886C21.2737 25.2109 22.0628 24.0536 23.0559 23.0847C24.049 22.1158 25.226 21.3549 26.5179 20.8465C27.8097 20.3382 29.1903 20.0927 30.5785 20.1246C33.6666 20.1246 36.0447 21.2512 38.6043 23.9714L35.5107 26.9335Z" fill="white"/>
<path d="M45.9698 28.3898H53.3296V20.6411H57.7333V40.4249H53.3296V32.4564H45.9698V40.4359H41.566V20.6521H45.9698V28.3898Z" fill="white"/>
<path d="M66.5958 36.0725L65.0765 40.4359H60.4416L67.8399 20.6521H72.8987L80.297 40.4359H75.629L74.1152 36.0725H66.5958ZM70.339 25.3343L68.0215 32.0113H72.6895L70.339 25.3343Z" fill="white"/>
<path d="M82.9887 20.6411H86.7043L95.8586 32.6598V20.6411H100.262V40.4249H96.5797L87.3869 28.4172V40.4359H82.9832L82.9887 20.6411Z" fill="white"/>
<path d="M123.536 29.1591V31.209C123.583 33.0788 123.143 34.9289 122.259 36.578C120.652 39.3258 117.712 40.9415 114.173 40.9415C108.228 40.9415 103.472 36.3417 103.472 30.555C103.483 29.1702 103.769 27.8014 104.312 26.5273C104.856 25.2532 105.646 24.099 106.638 23.1311C107.63 22.1632 108.804 21.4007 110.093 20.8876C111.381 20.3744 112.758 20.1207 114.145 20.141C117.206 20.141 119.463 21.1797 122.287 23.8175L119.182 26.7246C117.31 24.8891 116.033 24.2352 114.129 24.2352C112.486 24.2877 110.928 24.9773 109.786 26.1577C108.644 27.338 108.007 28.9162 108.012 30.5573C108.016 32.1983 108.661 33.7732 109.809 34.9475C110.957 36.1219 112.518 36.8034 114.162 36.8473C116.655 36.8473 118.351 35.5394 118.973 33.1653H113.677V29.1591H123.536Z" fill="white"/>
<path d="M146.959 20.6411V36.3692H154.495V40.4359H142.56V20.6521L146.959 20.6411Z" fill="white"/>
<path d="M176.59 30.5549C176.567 33.3533 175.431 36.0278 173.433 37.9901C171.434 39.9524 168.736 41.0417 165.933 41.0183C163.13 40.995 160.451 39.861 158.486 37.8658C156.52 35.8705 155.429 33.1775 155.452 30.3791C155.452 24.8561 160.33 20.141 166.005 20.141C168.789 20.1292 171.465 21.2177 173.449 23.1689C175.432 25.12 176.561 27.7753 176.59 30.5549ZM159.884 30.6429C159.889 31.4475 160.054 32.2432 160.368 32.9844C160.682 33.7256 161.138 34.3979 161.712 34.9628C162.287 35.5277 162.966 35.9742 163.713 36.2768C164.46 36.5794 165.259 36.7321 166.065 36.7264C166.871 36.7206 167.668 36.5564 168.411 36.2431C169.153 35.9298 169.827 35.4737 170.393 34.9006C170.958 34.3275 171.406 33.6488 171.709 32.9032C172.012 32.1575 172.165 31.3596 172.159 30.5549C172.175 29.7326 172.027 28.9153 171.724 28.1507C171.42 27.386 170.967 26.6893 170.392 26.1011C169.816 25.5129 169.128 25.045 168.37 24.7246C167.611 24.4043 166.796 24.2379 165.972 24.2351C162.559 24.2351 159.884 27.0543 159.884 30.6429Z" fill="white"/>
<path d="M199 29.1591V31.209C199.047 33.0788 198.607 34.9289 197.723 36.578C196.115 39.3258 193.176 40.9415 189.636 40.9415C183.691 40.9415 178.935 36.3417 178.935 30.555C178.947 29.1702 179.233 27.8014 179.776 26.5273C180.319 25.2532 181.11 24.099 182.102 23.1311C183.094 22.1632 184.268 21.4007 185.556 20.8876C186.845 20.3744 188.222 20.1207 189.609 20.141C192.67 20.141 194.926 21.1797 197.75 23.8175L194.629 26.7246C192.758 24.8891 191.481 24.2352 189.576 24.2352C187.933 24.2877 186.375 24.9773 185.233 26.1577C184.091 27.338 183.455 28.9162 183.459 30.5573C183.463 32.1983 184.108 33.7732 185.256 34.9475C186.404 36.1219 187.966 36.8034 189.609 36.8473C192.103 36.8473 193.798 35.5394 194.42 33.1653H189.13V29.1591H199Z" fill="white"/>
<path d="M30.5563 61.0005H29.9287C25.8135 60.9354 21.7546 60.0345 17.9994 58.3528C14.2442 56.6711 10.8713 54.2437 8.08612 51.2185C2.88507 45.5704 -0.00134277 38.1781 -0.00134277 30.506C-0.00134277 22.8339 2.88507 15.4416 8.08612 9.79346C10.8788 6.77896 14.2525 4.35845 18.0048 2.67704C21.7572 0.995633 25.811 0.0879506 29.9232 0.00840907C34.0355 -0.0711324 38.1215 0.679104 41.9362 2.21414C45.751 3.74918 49.2161 6.03741 52.1236 8.94166C52.2695 9.09793 52.3489 9.30461 52.3451 9.51817C52.3413 9.73172 52.2547 9.93548 52.1034 10.0865C51.9521 10.2375 51.748 10.3241 51.5341 10.3278C51.3202 10.3316 51.1132 10.2523 50.9566 10.1067C48.2058 7.36076 44.928 5.19741 41.3197 3.74625C37.7114 2.29509 33.8468 1.58598 29.9575 1.66141C26.0681 1.73684 22.234 2.59526 18.6849 4.18523C15.1358 5.7752 11.9446 8.06401 9.30266 10.9145C4.38244 16.2566 1.6518 23.2489 1.6518 30.506C1.6518 37.7631 4.38244 44.7554 9.30266 50.0974C11.9446 52.948 15.1358 55.2368 18.6849 56.8267C22.234 58.4167 26.0681 59.2751 29.9575 59.3506C33.8468 59.426 37.7114 58.7169 41.3197 57.2657C44.928 55.8146 48.2058 53.6512 50.9566 50.9053C51.1132 50.7597 51.3202 50.6804 51.5341 50.6842C51.748 50.6879 51.9521 50.7744 52.1034 50.9255C52.2547 51.0765 52.3413 51.2803 52.3451 51.4938C52.3489 51.7074 52.2695 51.914 52.1236 52.0703C49.2998 54.9099 45.9392 57.1616 42.2369 58.6945C38.5347 60.2275 34.5643 61.0113 30.5563 61.0005Z" fill="url(#paint0_linear)"/>
<path d="M30.5015 51.1081H29.7969C24.3222 51.1081 19.0717 48.9369 15.2004 45.0721C11.3292 41.2074 9.15436 35.9656 9.15436 30.5C9.15436 25.0344 11.3292 19.7926 15.2004 15.9279C19.0717 12.0631 24.3222 9.89188 29.7969 9.89188C32.6278 9.80167 35.4471 10.2915 38.081 11.3312C40.7149 12.3709 43.1074 13.9384 45.111 15.9369C45.2643 16.0922 45.3502 16.3014 45.3502 16.5195C45.3502 16.7375 45.2643 16.9467 45.111 17.102C45.0347 17.1791 44.9438 17.2403 44.8437 17.2821C44.7435 17.3238 44.636 17.3453 44.5275 17.3453C44.4189 17.3453 44.3115 17.3238 44.2113 17.2821C44.1111 17.2403 44.0203 17.1791 43.944 17.102C42.1002 15.2654 39.8991 13.8254 37.4763 12.8708C35.0536 11.9162 32.4607 11.4672 29.8575 11.5515C24.8207 11.5515 19.9902 13.549 16.4287 17.1046C12.8672 20.6602 10.8663 25.4826 10.8663 30.511C10.8663 35.5393 12.8672 40.3618 16.4287 43.9173C19.9902 47.4729 24.8207 49.4704 29.8575 49.4704C32.4615 49.5533 35.0549 49.1026 37.4777 48.1461C39.9004 47.1896 42.1011 45.7476 43.944 43.909C44.0203 43.8319 44.1111 43.7707 44.2113 43.7289C44.3115 43.6871 44.4189 43.6656 44.5275 43.6656C44.636 43.6656 44.7435 43.6871 44.8437 43.7289C44.9438 43.7707 45.0347 43.8319 45.111 43.909C45.2643 44.0643 45.3502 44.2735 45.3502 44.4915C45.3502 44.7095 45.2643 44.9188 45.111 45.074C41.2315 48.9341 35.9788 51.1036 30.5015 51.1081Z" fill="url(#paint1_linear)"/>
</g>
<defs>
<linearGradient id="paint0_linear" x1="-0.000268662" y1="30.5005" x2="52.3603" y2="30.5005" gradientUnits="userSpaceOnUse">
<stop stop-color="#61C192" stop-opacity="0"/>
<stop offset="1" stop-color="#61C192"/>
</linearGradient>
<linearGradient id="paint1_linear" x1="9.88098" y1="30.5" x2="45.3532" y2="30.5" gradientUnits="userSpaceOnUse">
<stop stop-color="#61C192"/>
<stop offset="1" stop-color="#61C192" stop-opacity="0"/>
</linearGradient>
<clipPath id="clip0">
<rect width="199" height="61" fill="white"/>
</clipPath>
</defs>
</svg>
