<svg xmlns="http://www.w3.org/2000/svg" xmlns:xlink="http://www.w3.org/1999/xlink" viewBox="0 0 36 34.56"><defs><style>.cls-1{fill:url(#New_Gradient_Swatch_8)}.cls-2{fill:url(#New_Gradient_Swatch_6)}.cls-3{fill:url(#New_Gradient_Swatch_6-2)}.cls-4{fill:url(#New_Gradient_Swatch_6-3)}</style><linearGradient id="New_Gradient_Swatch_8" x1="-1243.04" y1="-829" x2="-1212.11" y2="-829" gradientTransform="rotate(90 -1027.02 216.02)" gradientUnits="userSpaceOnUse"><stop offset="0" stop-color="#61c192"/><stop offset="1" stop-color="#61c192" stop-opacity="0"/></linearGradient><linearGradient id="New_Gradient_Swatch_6" x1="24.21" y1="27.65" x2="35.67" y2="27.65" gradientUnits="userSpaceOnUse"><stop offset="0" stop-color="#8fcfac"/><stop offset="1" stop-color="#61c192"/></linearGradient><linearGradient id="New_Gradient_Swatch_6-2" x1=".36" y1="27.65" x2="11.82" y2="27.65" xlink:href="#New_Gradient_Swatch_6"/><linearGradient id="New_Gradient_Swatch_6-3" x1="5.76" y1="12.25" x2="30.24" y2="12.25" xlink:href="#New_Gradient_Swatch_6"/></defs><title>podcasts</title><g id="Layer_2" data-name="Layer 2"><g id="Layer_1-2" data-name="Layer 1"><path class="cls-1" d="M30.22 30.93a.72.72 0 0 1-.51-1.23 16.62 16.62 0 0 0 4.84-12.28A16.56 16.56 0 0 0 7.15 5.48a16.43 16.43 0 0 0-5.7 11.94A16.62 16.62 0 0 0 6.29 29.7a.72.72 0 0 1-1 1A18.06 18.06 0 0 1 0 17.37a18 18 0 0 1 29.78-13 17.86 17.86 0 0 1 6.19 13 18.06 18.06 0 0 1-5.26 13.35.72.72 0 0 1-.49.21z"/><path class="cls-2" d="M24.93 34.56a.72.72 0 0 1-.72-.72V21.45a.72.72 0 0 1 .72-.72h10a.72.72 0 0 1 .71.86A18 18 0 0 1 25.21 34.5a.71.71 0 0 1-.28.06zm.72-12.38v10.51A16.57 16.57 0 0 0 34 22.17z"/><path class="cls-3" d="M11.1 34.56a.71.71 0 0 1-.29-.06A18 18 0 0 1 .37 21.6a.72.72 0 0 1 .71-.86h10a.72.72 0 0 1 .72.72v12.38a.72.72 0 0 1-.72.72zM2 22.17a16.57 16.57 0 0 0 8.4 10.52V22.17z"/><path class="cls-4" d="M29.52 18.73a.72.72 0 0 1-.72-.73 10.8 10.8 0 0 0-21.6 0 .72.72 0 1 1-1.44 0 12.24 12.24 0 0 1 24.48 0 .72.72 0 0 1-.72.73z"/></g></g></svg>