<svg xmlns="http://www.w3.org/2000/svg" xml:space="preserve" viewBox="0 0 50 50"><path d="M29 22.2c-1.4-1.6-2.4-2.1-3.9-2.1-2.6 0-4.7 2.2-4.7 4.9s2.1 4.9 4.8 4.9c1.5 0 2.6-.6 3.9-2.1l2.4 2.3c-2 2.2-3.9 3-6.3 3-4.6 0-8.3-3.6-8.3-8.1s3.7-8.1 8.3-8.1c2.4 0 4.2.9 6.2 3L29 22.2z" fill="#fff"/><linearGradient id="a" gradientUnits="userSpaceOnUse" x1="2.4e-7" y1="32.9986" x2="42.8686" y2="32.9986" gradientTransform="translate(0 -8)"><stop offset="0" stop-color="#61c192" stop-opacity="0"/><stop offset="1" stop-color="#61c192"/></linearGradient><path d="M25 50h-.5c-6.8-.1-13.2-3-17.9-8-8.8-9.5-8.8-24.4 0-34 4.7-5 11-7.9 17.9-8s13.3 2.5 18.2 7.3c.3.3.3.7 0 1s-.7.3-1 0c-4.6-4.6-10.7-7.1-17.2-7S12 4.2 7.6 8.9C-.8 17.9-.8 32 7.6 41c4.4 4.8 10.4 7.5 16.9 7.6s12.6-2.3 17.2-6.9c.3-.3.7-.3 1 0s.3.7 0 1C38 47.4 31.7 50 25 50z" fill="url(#a)"/><linearGradient id="b" gradientUnits="userSpaceOnUse" x1="8.075" y1="33.0425" x2="37.0909" y2="33.0425" gradientTransform="translate(0 -8)"><stop offset="0" stop-color="#61c192"/><stop offset="1" stop-color="#61c192" stop-opacity="0"/></linearGradient><path d="M25 41.9h-.6c-4.7-.2-9.1-2.2-12.2-5.8-5.5-6.3-5.5-15.8 0-22.1 3.1-3.6 7.5-5.6 12.2-5.8 4.7-.2 9.3 1.6 12.6 4.9.3.3.3.7 0 1s-.7.3-1 0c-3-3-7.2-4.7-11.5-4.5-4.3.1-8.3 2-11.2 5.3-5.1 5.8-5.1 14.6 0 20.4 2.9 3.3 6.8 5.2 11.2 5.3C28.8 40.6 33 39 36 36c.3-.3.7-.3 1 0s.3.7 0 1c-3.3 3.1-7.5 4.9-12 4.9z" fill="url(#b)"/></svg>
