<svg width="175" height="100" xmlns="http://www.w3.org/2000/svg">
  <defs>
    <marker id="arrowhead" markerWidth="6" markerHeight="6" refX="0" refY="2.15" orient="auto">
      <polygon points="0 0, 5 1.75, 0 4.5" fill="#59B287" />
    </marker>
  </defs>

  <path d="M 102 38 C 94 70, 92 75, 84 85" stroke="#59B287" stroke-width="4" stroke-linecap="round" fill="none" marker-end="url(#arrowhead)"/>

  <g transform="translate(50, 2) rotate(9)" stroke-linecap="round" fill-rule="evenodd" font-size="9pt" stroke="#579e7c" stroke-width="0.25mm" fill="#59b287" style="stroke:#579e7c;stroke-width:0.25mm;fill:#59b287"><path d="M 14.91 3.201 Q 14.91 2.965 14.964 2.61 Q 15.018 2.256 15.157 1.934 A 2.002 2.002 0 0 1 15.35 1.585 A 1.677 1.677 0 0 1 15.512 1.386 Q 15.727 1.16 16.07 1.16 A 0.095 0.095 0 0 1 16.082 1.161 Q 16.109 1.165 16.178 1.182 A 2.407 2.407 0 0 0 16.208 1.189 Q 16.252 1.199 16.273 1.202 A 0.097 0.097 0 0 0 16.285 1.203 A 12.248 12.248 0 0 1 16.715 3.846 A 19.794 19.794 0 0 1 16.739 4.818 A 18.159 18.159 0 0 1 16.672 6.392 A 24.69 24.69 0 0 1 16.376 8.632 A 22.648 22.648 0 0 1 16.35 8.776 A 59.674 59.674 0 0 0 16.154 9.88 A 45.581 45.581 0 0 0 15.995 10.893 Q 15.855 11.859 15.823 12.633 A 4.059 4.059 0 0 0 15.82 12.802 Q 15.82 13.466 16.049 13.943 A 6.011 6.011 0 0 1 16.021 13.666 Q 16.009 13.511 16.002 13.335 A 11.943 11.943 0 0 1 15.995 13.116 Q 15.986 12.701 16.056 12.262 A 5.412 5.412 0 0 1 16.081 12.117 A 4.693 4.693 0 0 1 16.349 11.215 A 5.273 5.273 0 0 1 16.403 11.086 Q 16.629 10.57 17.059 10.162 A 2.688 2.688 0 0 1 17.638 9.748 A 3.627 3.627 0 0 1 18.165 9.518 Q 18.842 9.281 19.852 9.281 Q 20.877 9.281 21.627 9.627 A 3.161 3.161 0 0 1 21.667 9.646 A 3.462 3.462 0 0 1 22.924 10.646 A 4.237 4.237 0 0 1 23.554 11.792 A 5.021 5.021 0 0 1 23.665 12.128 A 6.286 6.286 0 0 1 23.902 13.555 A 7.297 7.297 0 0 1 23.912 13.943 A 45.278 45.278 0 0 1 23.91 14.392 Q 23.907 14.628 23.903 14.889 A 74.184 74.184 0 0 1 23.901 14.964 A 4.362 4.362 0 0 1 23.838 15.638 A 3.631 3.631 0 0 1 23.751 16.017 A 1.773 1.773 0 0 1 23.257 16.833 A 1.128 1.128 0 0 1 22.827 17.08 Q 22.564 17.166 22.215 17.166 A 7.553 7.553 0 0 1 22.219 16.927 Q 22.228 16.638 22.258 16.231 A 20.903 20.903 0 0 0 22.299 15.464 A 24.903 24.903 0 0 0 22.312 14.975 A 13.803 13.803 0 0 0 22.313 14.752 A 14.517 14.517 0 0 0 22.269 13.621 A 4.267 4.267 0 0 0 22.152 12.897 A 3.433 3.433 0 0 0 21.979 12.386 A 2.525 2.525 0 0 0 21.59 11.75 A 2.265 2.265 0 0 0 21.323 11.483 A 1.41 1.41 0 0 0 20.79 11.207 Q 20.516 11.129 20.174 11.129 A 5.279 5.279 0 0 0 19.964 11.133 Q 19.869 11.137 19.763 11.144 A 11.088 11.088 0 0 0 19.54 11.161 A 2.259 2.259 0 0 0 18.994 11.28 A 2.726 2.726 0 0 0 18.777 11.365 A 2.318 2.318 0 0 0 18.349 11.616 A 3.083 3.083 0 0 0 18.025 11.892 A 2.058 2.058 0 0 0 17.689 12.326 Q 17.567 12.532 17.472 12.785 A 3.606 3.606 0 0 0 17.445 12.858 Q 17.281 13.328 17.223 13.987 A 8.013 8.013 0 0 0 17.198 14.405 A 6.178 6.178 0 0 0 17.195 14.618 Q 17.195 15.49 17.424 16.693 Q 17.296 17.022 17.114 17.118 A 0.345 0.345 0 0 1 17.048 17.145 Q 16.822 17.209 16.479 17.209 A 1.597 1.597 0 0 1 15.906 17.11 A 1.437 1.437 0 0 1 15.351 16.726 Q 14.952 16.288 14.72 15.577 A 4.791 4.791 0 0 1 14.674 15.426 Q 14.453 14.662 14.373 13.673 A 12.694 12.694 0 0 1 14.362 13.535 A 24.477 24.477 0 0 1 14.305 12.028 Q 14.304 11.917 14.304 11.806 A 28.107 28.107 0 0 1 14.309 11.29 A 39.066 39.066 0 0 1 14.427 8.905 A 267.388 267.388 0 0 1 14.523 7.724 A 226.242 226.242 0 0 1 14.62 6.606 A 120.67 120.67 0 0 1 14.717 5.57 A 90.201 90.201 0 0 1 14.813 4.63 Q 14.906 3.779 14.91 3.251 A 6.239 6.239 0 0 0 14.91 3.201 Z M 0.516 5.672 L 4.834 5.672 A 2.613 2.613 0 0 0 4.83 5.536 Q 4.818 5.307 4.77 4.92 A 26.105 26.105 0 0 1 4.708 4.377 A 34.449 34.449 0 0 1 4.651 3.781 A 10.655 10.655 0 0 1 4.613 2.893 Q 4.613 2.69 4.619 2.481 A 5.524 5.524 0 0 1 4.681 1.799 A 4.272 4.272 0 0 1 4.802 1.257 A 2.31 2.31 0 0 1 5.023 0.736 A 1.893 1.893 0 0 1 5.317 0.354 A 1.157 1.157 0 0 1 5.849 0.056 Q 6.033 0.007 6.252 0.001 A 2.266 2.266 0 0 1 6.316 0 A 25.846 25.846 0 0 0 6.346 1.272 Q 6.408 2.537 6.604 3.422 A 7.593 7.593 0 0 0 6.617 3.48 A 8.855 8.855 0 0 0 6.837 4.276 Q 6.964 4.661 7.116 4.975 A 3.643 3.643 0 0 0 7.423 5.5 Q 7.859 6.112 8.399 6.356 A 1.821 1.821 0 0 0 8.572 6.424 A 3.599 3.599 0 0 0 9.718 6.611 A 3.7 3.7 0 0 0 9.894 6.606 A 6.271 6.271 0 0 0 11.215 6.402 Q 11.769 6.255 12.22 6.186 A 6.206 6.206 0 0 1 12.364 6.166 Q 12.829 6.107 13.121 6.238 A 0.811 0.811 0 0 1 13.17 6.263 Q 13.471 6.424 13.471 7.025 A 1.573 1.573 0 0 1 13.455 7.253 Q 13.415 7.527 13.269 7.667 A 0.487 0.487 0 0 1 13.267 7.67 A 0.702 0.702 0 0 1 13.114 7.776 Q 12.891 7.895 12.482 7.971 A 23.553 23.553 0 0 0 12.382 7.983 Q 12.229 8.003 11.975 8.038 A 174.94 174.94 0 0 0 11.913 8.046 A 16.181 16.181 0 0 1 11.491 8.097 A 22.238 22.238 0 0 1 11.021 8.143 A 105.888 105.888 0 0 0 10.511 8.188 A 127.451 127.451 0 0 0 9.969 8.239 A 127.451 127.451 0 0 1 9.426 8.29 A 105.888 105.888 0 0 1 8.916 8.336 A 17.398 17.398 0 0 1 8.443 8.371 A 13.001 13.001 0 0 1 8.014 8.39 A 53.349 53.349 0 0 1 7.823 8.394 Q 7.564 8.4 7.419 8.4 A 7.029 7.029 0 0 1 7.412 8.4 A 1.734 1.734 0 0 1 7.411 8.464 Q 7.407 8.561 7.394 8.726 A 13.994 13.994 0 0 1 7.391 8.766 A 14.912 14.912 0 0 0 7.382 8.87 Q 7.371 9.012 7.37 9.083 A 1.008 1.008 0 0 0 7.369 9.109 A 5.709 5.709 0 0 0 7.67 10.946 Q 7.971 11.838 8.325 12.719 A 35.096 35.096 0 0 1 8.98 14.48 A 5.612 5.612 0 0 1 9.281 16.307 A 2.002 2.002 0 0 1 9.258 16.604 A 2.256 2.256 0 0 1 9.249 16.661 A 0.843 0.843 0 0 1 9.179 16.882 A 0.75 0.75 0 0 1 9.12 16.983 A 0.57 0.57 0 0 1 8.943 17.147 A 0.75 0.75 0 0 1 8.841 17.198 A 0.405 0.405 0 0 1 8.74 17.224 Q 8.612 17.242 8.436 17.196 A 1.559 1.559 0 0 1 8.336 17.166 A 2.002 2.002 0 0 1 7.624 16.828 A 1.88 1.88 0 0 1 7.122 16.242 A 4.935 4.935 0 0 1 6.757 15.413 A 6.734 6.734 0 0 1 6.531 14.556 A 14.776 14.776 0 0 1 6.314 13.023 A 17.11 17.11 0 0 1 6.273 12.482 A 25.744 25.744 0 0 0 6.164 11.167 A 21.247 21.247 0 0 0 6.069 10.431 Q 5.946 9.585 5.696 8.958 A 4.401 4.401 0 0 0 5.629 8.798 A 1.6 1.6 0 0 0 5.352 8.364 A 1.296 1.296 0 0 0 4.662 7.971 L 0.516 7.025 A 0.127 0.127 0 0 1 0.466 7.013 Q 0.395 6.983 0.289 6.875 A 1.802 1.802 0 0 1 0.258 6.843 A 3.611 3.611 0 0 1 0.184 6.762 Q 0.076 6.64 0.043 6.574 A 0.189 0.189 0 0 1 0.028 6.529 Q 0.023 6.508 0.022 6.484 A 0.362 0.362 0 0 1 0.021 6.467 A 0.16 0.16 0 0 1 0.01 6.436 Q 0 6.397 0 6.338 A 0.321 0.321 0 0 1 0.003 6.293 Q 0.006 6.268 0.014 6.248 A 0.171 0.171 0 0 1 0.021 6.23 A 0.222 0.222 0 0 1 0.024 6.198 Q 0.026 6.182 0.031 6.163 A 0.555 0.555 0 0 1 0.043 6.123 A 1.847 1.847 0 0 1 0.091 6.065 Q 0.172 5.973 0.301 5.844 Q 0.46 5.684 0.509 5.673 A 0.03 0.03 0 0 1 0.516 5.672 Z M 65.076 5.672 L 69.395 5.672 A 2.613 2.613 0 0 0 69.391 5.536 Q 69.378 5.307 69.33 4.92 A 26.105 26.105 0 0 1 69.268 4.377 A 34.449 34.449 0 0 1 69.212 3.781 A 10.655 10.655 0 0 1 69.174 2.893 Q 69.173 2.69 69.18 2.481 A 5.524 5.524 0 0 1 69.242 1.799 A 4.272 4.272 0 0 1 69.362 1.257 A 2.31 2.31 0 0 1 69.584 0.736 A 1.893 1.893 0 0 1 69.878 0.354 A 1.157 1.157 0 0 1 70.409 0.056 Q 70.594 0.007 70.813 0.001 A 2.266 2.266 0 0 1 70.877 0 A 25.846 25.846 0 0 0 70.906 1.272 Q 70.969 2.537 71.165 3.422 A 7.593 7.593 0 0 0 71.178 3.48 A 8.855 8.855 0 0 0 71.397 4.276 Q 71.525 4.661 71.676 4.975 A 3.643 3.643 0 0 0 71.983 5.5 Q 72.419 6.112 72.959 6.356 A 1.821 1.821 0 0 0 73.133 6.424 A 3.599 3.599 0 0 0 74.278 6.611 A 3.7 3.7 0 0 0 74.454 6.606 A 6.271 6.271 0 0 0 75.775 6.402 Q 76.329 6.255 76.78 6.186 A 6.206 6.206 0 0 1 76.925 6.166 Q 77.39 6.107 77.681 6.238 A 0.811 0.811 0 0 1 77.73 6.263 Q 78.031 6.424 78.031 7.025 A 1.573 1.573 0 0 1 78.016 7.253 Q 77.976 7.527 77.83 7.667 A 0.487 0.487 0 0 1 77.827 7.67 A 0.702 0.702 0 0 1 77.674 7.776 Q 77.452 7.895 77.043 7.971 A 23.553 23.553 0 0 0 76.943 7.983 Q 76.79 8.003 76.535 8.038 A 174.94 174.94 0 0 0 76.474 8.046 A 16.181 16.181 0 0 1 76.052 8.097 A 22.238 22.238 0 0 1 75.582 8.143 A 105.888 105.888 0 0 0 75.072 8.188 A 127.451 127.451 0 0 0 74.529 8.239 A 127.451 127.451 0 0 1 73.987 8.29 A 105.888 105.888 0 0 1 73.477 8.336 A 17.398 17.398 0 0 1 73.004 8.371 A 13.001 13.001 0 0 1 72.574 8.39 A 53.349 53.349 0 0 1 72.384 8.394 Q 72.124 8.4 71.98 8.4 A 7.029 7.029 0 0 1 71.973 8.4 A 1.734 1.734 0 0 1 71.971 8.464 Q 71.968 8.561 71.954 8.726 A 13.994 13.994 0 0 1 71.951 8.766 A 14.912 14.912 0 0 0 71.943 8.87 Q 71.932 9.012 71.93 9.083 A 1.008 1.008 0 0 0 71.93 9.109 A 5.709 5.709 0 0 0 72.23 10.946 Q 72.531 11.838 72.886 12.719 A 35.096 35.096 0 0 1 73.541 14.48 A 5.612 5.612 0 0 1 73.842 16.307 A 2.002 2.002 0 0 1 73.819 16.604 A 2.256 2.256 0 0 1 73.81 16.661 A 0.843 0.843 0 0 1 73.74 16.882 A 0.75 0.75 0 0 1 73.681 16.983 A 0.57 0.57 0 0 1 73.503 17.147 A 0.75 0.75 0 0 1 73.401 17.198 A 0.405 0.405 0 0 1 73.301 17.224 Q 73.173 17.242 72.997 17.196 A 1.559 1.559 0 0 1 72.896 17.166 A 2.002 2.002 0 0 1 72.185 16.828 A 1.88 1.88 0 0 1 71.683 16.242 A 4.935 4.935 0 0 1 71.318 15.413 A 6.734 6.734 0 0 1 71.092 14.556 A 14.776 14.776 0 0 1 70.874 13.023 A 17.11 17.11 0 0 1 70.834 12.482 A 25.744 25.744 0 0 0 70.724 11.167 A 21.247 21.247 0 0 0 70.63 10.431 Q 70.506 9.585 70.257 8.958 A 4.401 4.401 0 0 0 70.189 8.798 A 1.6 1.6 0 0 0 69.913 8.364 A 1.296 1.296 0 0 0 69.223 7.971 L 65.076 7.025 A 0.127 0.127 0 0 1 65.026 7.013 Q 64.956 6.983 64.85 6.875 A 1.802 1.802 0 0 1 64.818 6.843 A 3.611 3.611 0 0 1 64.745 6.762 Q 64.636 6.64 64.604 6.574 A 0.189 0.189 0 0 1 64.588 6.529 Q 64.584 6.508 64.582 6.484 A 0.362 0.362 0 0 1 64.582 6.467 A 0.16 0.16 0 0 1 64.571 6.436 Q 64.561 6.397 64.561 6.338 A 0.321 0.321 0 0 1 64.564 6.293 Q 64.567 6.268 64.574 6.248 A 0.171 0.171 0 0 1 64.582 6.23 A 0.222 0.222 0 0 1 64.585 6.198 Q 64.587 6.182 64.592 6.163 A 0.555 0.555 0 0 1 64.604 6.123 A 1.847 1.847 0 0 1 64.652 6.065 Q 64.732 5.973 64.861 5.844 Q 65.021 5.684 65.069 5.673 A 0.03 0.03 0 0 1 65.076 5.672 Z M 101.471 5.672 L 105.789 5.672 A 2.613 2.613 0 0 0 105.785 5.536 Q 105.773 5.307 105.725 4.92 A 26.105 26.105 0 0 1 105.663 4.377 A 34.449 34.449 0 0 1 105.606 3.781 A 10.655 10.655 0 0 1 105.568 2.893 Q 105.568 2.69 105.574 2.481 A 5.524 5.524 0 0 1 105.636 1.799 A 4.272 4.272 0 0 1 105.757 1.257 A 2.31 2.31 0 0 1 105.979 0.736 A 1.893 1.893 0 0 1 106.272 0.354 A 1.157 1.157 0 0 1 106.804 0.056 Q 106.988 0.007 107.208 0.001 A 2.266 2.266 0 0 1 107.271 0 A 25.846 25.846 0 0 0 107.301 1.272 Q 107.363 2.537 107.559 3.422 A 7.593 7.593 0 0 0 107.572 3.48 A 8.855 8.855 0 0 0 107.792 4.276 Q 107.919 4.661 108.071 4.975 A 3.643 3.643 0 0 0 108.378 5.5 Q 108.814 6.112 109.354 6.356 A 1.821 1.821 0 0 0 109.527 6.424 A 3.599 3.599 0 0 0 110.673 6.611 A 3.7 3.7 0 0 0 110.849 6.606 A 6.271 6.271 0 0 0 112.17 6.402 Q 112.724 6.255 113.175 6.186 A 6.206 6.206 0 0 1 113.319 6.166 Q 113.784 6.107 114.076 6.238 A 0.811 0.811 0 0 1 114.125 6.263 Q 114.426 6.424 114.426 7.025 A 1.573 1.573 0 0 1 114.411 7.253 Q 114.37 7.527 114.224 7.667 A 0.487 0.487 0 0 1 114.222 7.67 A 0.702 0.702 0 0 1 114.069 7.776 Q 113.847 7.895 113.438 7.971 A 23.553 23.553 0 0 0 113.337 7.983 Q 113.184 8.003 112.93 8.038 A 174.94 174.94 0 0 0 112.868 8.046 A 16.181 16.181 0 0 1 112.447 8.097 A 22.238 22.238 0 0 1 111.977 8.143 A 105.888 105.888 0 0 0 111.466 8.188 A 127.451 127.451 0 0 0 110.924 8.239 A 127.451 127.451 0 0 1 110.381 8.29 A 105.888 105.888 0 0 1 109.871 8.336 A 17.398 17.398 0 0 1 109.398 8.371 A 13.001 13.001 0 0 1 108.969 8.39 A 53.349 53.349 0 0 1 108.778 8.394 Q 108.519 8.4 108.374 8.4 A 7.029 7.029 0 0 1 108.367 8.4 A 1.734 1.734 0 0 1 108.366 8.464 Q 108.362 8.561 108.349 8.726 A 13.994 13.994 0 0 1 108.346 8.766 A 14.912 14.912 0 0 0 108.337 8.87 Q 108.327 9.012 108.325 9.083 A 1.008 1.008 0 0 0 108.324 9.109 A 5.709 5.709 0 0 0 108.625 10.946 Q 108.926 11.838 109.28 12.719 A 35.096 35.096 0 0 1 109.936 14.48 A 5.612 5.612 0 0 1 110.236 16.307 A 2.002 2.002 0 0 1 110.213 16.604 A 2.256 2.256 0 0 1 110.204 16.661 A 0.843 0.843 0 0 1 110.134 16.882 A 0.75 0.75 0 0 1 110.075 16.983 A 0.57 0.57 0 0 1 109.898 17.147 A 0.75 0.75 0 0 1 109.796 17.198 A 0.405 0.405 0 0 1 109.695 17.224 Q 109.567 17.242 109.391 17.196 A 1.559 1.559 0 0 1 109.291 17.166 A 2.002 2.002 0 0 1 108.579 16.828 A 1.88 1.88 0 0 1 108.077 16.242 A 4.935 4.935 0 0 1 107.712 15.413 A 6.734 6.734 0 0 1 107.486 14.556 A 14.776 14.776 0 0 1 107.269 13.023 A 17.11 17.11 0 0 1 107.229 12.482 A 25.744 25.744 0 0 0 107.119 11.167 A 21.247 21.247 0 0 0 107.024 10.431 Q 106.901 9.585 106.652 8.958 A 4.401 4.401 0 0 0 106.584 8.798 A 1.6 1.6 0 0 0 106.307 8.364 A 1.296 1.296 0 0 0 105.617 7.971 L 101.471 7.025 A 0.127 0.127 0 0 1 101.421 7.013 Q 101.351 6.983 101.244 6.875 A 1.802 1.802 0 0 1 101.213 6.843 A 3.611 3.611 0 0 1 101.139 6.762 Q 101.031 6.64 100.998 6.574 A 0.189 0.189 0 0 1 100.983 6.529 Q 100.978 6.508 100.977 6.484 A 0.362 0.362 0 0 1 100.977 6.467 A 0.16 0.16 0 0 1 100.965 6.436 Q 100.955 6.397 100.955 6.338 A 0.321 0.321 0 0 1 100.958 6.293 Q 100.962 6.268 100.969 6.248 A 0.171 0.171 0 0 1 100.977 6.23 A 0.222 0.222 0 0 1 100.979 6.198 Q 100.982 6.182 100.986 6.163 A 0.555 0.555 0 0 1 100.998 6.123 A 1.847 1.847 0 0 1 101.046 6.065 Q 101.127 5.973 101.256 5.844 Q 101.415 5.684 101.464 5.673 A 0.03 0.03 0 0 1 101.471 5.672 Z M 94.961 16.199 Q 95.305 15.963 95.788 15.587 A 22.887 22.887 0 0 0 96.642 14.888 A 25.304 25.304 0 0 0 96.766 14.781 A 11.013 11.013 0 0 0 97.689 13.879 A 6.177 6.177 0 0 0 98.03 13.472 Q 98.2 13.25 98.326 13.036 A 3.656 3.656 0 0 0 98.366 12.966 A 2.226 2.226 0 0 0 98.522 12.63 Q 98.59 12.438 98.608 12.258 A 1.254 1.254 0 0 0 98.613 12.139 A 0.697 0.697 0 0 0 98.391 11.627 A 1.112 1.112 0 0 0 98.227 11.494 A 20.195 20.195 0 0 0 97.507 11.508 A 26.211 26.211 0 0 0 96.723 11.548 Q 95.906 11.602 95.09 11.591 A 10.289 10.289 0 0 1 93.535 11.455 A 9.558 9.558 0 0 1 93.511 11.451 A 4.379 4.379 0 0 1 92.62 11.206 A 3.734 3.734 0 0 1 92.146 10.979 A 2.511 2.511 0 0 1 91.19 10.001 Q 90.889 9.463 90.844 8.668 A 5.082 5.082 0 0 1 90.836 8.379 A 5.278 5.278 0 0 1 90.975 7.145 A 4.444 4.444 0 0 1 91.276 6.284 A 5.737 5.737 0 0 1 92.447 4.63 A 8.729 8.729 0 0 1 94.091 3.362 Q 95.004 2.814 95.928 2.428 A 2.738 2.738 0 0 1 96.944 2.953 A 3.13 3.13 0 0 1 96.959 2.965 Q 97.432 3.352 97.775 3.824 Q 97.625 4.297 97.185 4.555 Q 96.744 4.812 96.175 5.006 A 261.799 261.799 0 0 0 95.291 5.308 A 299.873 299.873 0 0 0 94.982 5.414 A 4.576 4.576 0 0 0 94.015 5.876 A 4.208 4.208 0 0 0 93.854 5.983 A 2.964 2.964 0 0 0 93.094 6.768 A 3.456 3.456 0 0 0 93.006 6.907 A 2.188 2.188 0 0 0 92.765 7.496 Q 92.695 7.767 92.673 8.088 A 4.489 4.489 0 0 0 92.662 8.4 A 2.178 2.178 0 0 0 92.692 8.772 Q 92.763 9.182 93.006 9.41 Q 93.35 9.732 93.908 9.851 Q 94.347 9.943 94.879 9.943 A 6.542 6.542 0 0 0 95.176 9.937 A 35.192 35.192 0 0 0 96.626 9.84 A 20.291 20.291 0 0 1 98.076 9.765 Q 98.461 9.759 98.801 9.81 A 3.338 3.338 0 0 1 99.344 9.937 A 2.053 2.053 0 0 1 99.867 10.19 A 1.736 1.736 0 0 1 100.235 10.527 A 1.306 1.306 0 0 1 100.457 10.941 Q 100.52 11.126 100.547 11.353 A 3.152 3.152 0 0 1 100.568 11.73 A 1.394 1.394 0 0 1 100.543 11.983 Q 100.493 12.255 100.343 12.611 Q 100.117 13.148 99.741 13.761 A 9.88 9.88 0 0 1 99.075 14.711 A 11.32 11.32 0 0 1 98.86 14.975 A 10.284 10.284 0 0 1 97.978 15.906 A 9.26 9.26 0 0 1 97.808 16.06 A 7.274 7.274 0 0 1 97.191 16.549 A 5.825 5.825 0 0 1 96.712 16.854 Q 96.164 17.166 95.691 17.166 A 0.967 0.967 0 0 1 95.477 17.144 Q 95.345 17.114 95.254 17.044 A 0.493 0.493 0 0 1 95.101 16.844 A 1.683 1.683 0 0 1 94.976 16.411 A 1.501 1.501 0 0 1 94.961 16.199 Z M 25.051 8.873 A 9.883 9.883 0 0 0 24.771 11.193 Q 24.771 12.547 25.169 13.653 A 6.066 6.066 0 0 0 25.277 13.933 A 5.171 5.171 0 0 0 26.318 15.544 Q 27.07 16.328 28.166 16.769 A 5.851 5.851 0 0 0 29.255 17.085 A 7.37 7.37 0 0 0 30.637 17.209 A 6.202 6.202 0 0 0 30.641 17.209 Q 30.801 17.209 31.086 17.203 A 60.648 60.648 0 0 0 31.292 17.198 A 10.98 10.98 0 0 0 31.754 17.177 A 14.448 14.448 0 0 0 32.259 17.134 A 14.372 14.372 0 0 0 32.391 17.12 A 15.935 15.935 0 0 0 33.344 16.983 A 5.377 5.377 0 0 0 33.7 16.91 A 4.442 4.442 0 0 0 34.364 16.693 A 3.763 3.763 0 0 0 34.378 16.688 Q 34.59 16.598 34.768 16.492 A 2.313 2.313 0 0 0 35.127 16.231 A 0.895 0.895 0 0 0 35.345 15.944 A 0.904 0.904 0 0 0 35.428 15.555 A 0.871 0.871 0 0 0 35.411 15.382 A 0.623 0.623 0 0 0 35.32 15.157 A 0.637 0.637 0 0 0 35.041 14.921 A 1.25 1.25 0 0 0 34.676 14.824 A 3.499 3.499 0 0 0 34.289 14.803 A 5.458 5.458 0 0 0 34.045 14.808 A 4.701 4.701 0 0 0 33.354 14.889 A 17.05 17.05 0 0 0 32.484 15.082 Q 32.055 15.189 31.625 15.275 Q 31.195 15.361 30.701 15.361 A 8.808 8.808 0 0 1 30.566 15.36 Q 30.144 15.354 29.627 15.308 A 4.852 4.852 0 0 1 28.467 15.061 A 3.015 3.015 0 0 1 28.33 15.009 A 2.573 2.573 0 0 1 27.511 14.491 A 1.281 1.281 0 0 1 27.171 13.957 A 1.646 1.646 0 0 1 27.092 13.492 A 4.273 4.273 0 0 0 27.886 13.568 A 4.196 4.196 0 0 0 29.326 13.31 A 5.699 5.699 0 0 0 31.271 12.128 A 6.11 6.11 0 0 0 32.624 10.312 A 4.784 4.784 0 0 0 33.129 8.186 Q 33.129 7.498 32.925 6.864 A 3.591 3.591 0 0 0 32.897 6.781 A 3.124 3.124 0 0 0 32.313 5.758 A 2.929 2.929 0 0 0 32.121 5.556 A 3.153 3.153 0 0 0 31.303 4.995 A 2.821 2.821 0 0 0 30.609 4.769 A 3.705 3.705 0 0 0 29.906 4.705 A 5.626 5.626 0 0 0 28.822 4.805 A 4.025 4.025 0 0 0 27.532 5.285 A 4.845 4.845 0 0 0 25.942 6.789 A 6.064 6.064 0 0 0 25.674 7.235 A 6.654 6.654 0 0 0 25.051 8.873 Z M 79.127 8.873 A 9.883 9.883 0 0 0 78.848 11.193 Q 78.848 12.547 79.245 13.653 A 6.066 6.066 0 0 0 79.353 13.933 A 5.171 5.171 0 0 0 80.395 15.544 Q 81.146 16.328 82.242 16.769 A 5.851 5.851 0 0 0 83.331 17.085 A 7.37 7.37 0 0 0 84.713 17.209 A 6.202 6.202 0 0 0 84.717 17.209 Q 84.877 17.209 85.162 17.203 A 60.648 60.648 0 0 0 85.368 17.198 A 10.98 10.98 0 0 0 85.83 17.177 A 14.448 14.448 0 0 0 86.335 17.134 A 14.372 14.372 0 0 0 86.467 17.12 A 15.935 15.935 0 0 0 87.42 16.983 A 5.377 5.377 0 0 0 87.776 16.91 A 4.442 4.442 0 0 0 88.44 16.693 A 3.763 3.763 0 0 0 88.454 16.688 Q 88.666 16.598 88.844 16.492 A 2.313 2.313 0 0 0 89.203 16.231 A 0.895 0.895 0 0 0 89.421 15.944 A 0.904 0.904 0 0 0 89.504 15.555 A 0.871 0.871 0 0 0 89.488 15.382 A 0.623 0.623 0 0 0 89.396 15.157 A 0.637 0.637 0 0 0 89.117 14.921 A 1.25 1.25 0 0 0 88.752 14.824 A 3.499 3.499 0 0 0 88.365 14.803 A 5.458 5.458 0 0 0 88.122 14.808 A 4.701 4.701 0 0 0 87.431 14.889 A 17.05 17.05 0 0 0 86.561 15.082 Q 86.131 15.189 85.701 15.275 Q 85.271 15.361 84.777 15.361 A 8.808 8.808 0 0 1 84.642 15.36 Q 84.22 15.354 83.703 15.308 A 4.852 4.852 0 0 1 82.543 15.061 A 3.015 3.015 0 0 1 82.406 15.009 A 2.573 2.573 0 0 1 81.587 14.491 A 1.281 1.281 0 0 1 81.247 13.957 A 1.646 1.646 0 0 1 81.168 13.492 A 4.273 4.273 0 0 0 81.962 13.568 A 4.196 4.196 0 0 0 83.402 13.31 A 5.699 5.699 0 0 0 85.347 12.128 A 6.11 6.11 0 0 0 86.7 10.312 A 4.784 4.784 0 0 0 87.205 8.186 Q 87.205 7.498 87.001 6.864 A 3.591 3.591 0 0 0 86.973 6.781 A 3.124 3.124 0 0 0 86.389 5.758 A 2.929 2.929 0 0 0 86.197 5.556 A 3.153 3.153 0 0 0 85.379 4.995 A 2.821 2.821 0 0 0 84.685 4.769 A 3.705 3.705 0 0 0 83.982 4.705 A 5.626 5.626 0 0 0 82.898 4.805 A 4.025 4.025 0 0 0 81.608 5.285 A 4.845 4.845 0 0 0 80.019 6.789 A 6.064 6.064 0 0 0 79.75 7.235 A 6.654 6.654 0 0 0 79.127 8.873 Z M 60.93 14.395 A 56.522 56.522 0 0 0 60.349 14.797 Q 59.892 15.118 59.522 15.394 A 10.33 10.33 0 0 1 58.868 15.845 A 8.248 8.248 0 0 1 58.373 16.135 A 4.879 4.879 0 0 1 57.181 16.586 A 4.913 4.913 0 0 1 56.665 16.678 Q 56.2 16.736 55.623 16.736 A 5.98 5.98 0 0 1 54.528 16.643 Q 53.905 16.526 53.422 16.266 A 2.849 2.849 0 0 1 52.658 15.673 A 3.343 3.343 0 0 1 51.981 14.495 Q 51.691 13.655 51.691 12.504 A 6.861 6.861 0 0 1 51.807 11.27 A 8.093 8.093 0 0 1 51.906 10.807 Q 52.121 9.926 52.54 9.056 A 10.263 10.263 0 0 1 53.539 7.401 A 7.777 7.777 0 0 1 54.85 6.016 A 6.427 6.427 0 0 1 56.407 5.06 Q 57.234 4.705 58.158 4.705 A 7.503 7.503 0 0 1 59.138 4.862 Q 59.626 4.976 60.023 5.153 A 3.445 3.445 0 0 1 60.586 5.468 A 3.918 3.918 0 0 1 61.918 7.036 A 7.159 7.159 0 0 1 62.422 8.521 A 8.581 8.581 0 0 1 62.541 9.163 A 35.568 35.568 0 0 1 62.807 11.541 A 38.534 38.534 0 0 1 62.81 11.58 A 58.68 58.68 0 0 0 63.057 14.072 A 8.156 8.156 0 0 0 63.451 15.798 A 7.27 7.27 0 0 0 63.68 16.371 A 7.657 7.657 0 0 1 63.542 16.699 Q 63.391 17.036 63.25 17.243 A 1.511 1.511 0 0 1 63.153 17.37 A 0.651 0.651 0 0 1 63.064 17.458 Q 62.859 17.62 62.621 17.476 A 0.655 0.655 0 0 1 62.605 17.467 Q 62.305 17.273 61.907 16.521 Q 61.548 15.842 61.04 14.655 A 56.543 56.543 0 0 1 60.93 14.395 Z M 47.18 5.006 A 8.424 8.424 0 0 0 47.094 3.792 A 5.735 5.735 0 0 1 47.049 3.39 Q 47.026 3.072 47.046 2.798 A 3.141 3.141 0 0 1 47.051 2.739 A 1.345 1.345 0 0 1 47.131 2.382 A 1.043 1.043 0 0 1 47.384 1.998 Q 47.631 1.76 48.229 1.725 A 3.72 3.72 0 0 1 48.447 1.719 A 3.686 3.686 0 0 1 48.587 2.058 Q 48.751 2.513 48.909 3.223 Q 49.103 4.09 49.289 5.18 A 56.777 56.777 0 0 1 49.35 5.543 A 69.006 69.006 0 0 1 49.559 6.91 A 86.842 86.842 0 0 1 49.758 8.39 A 144.856 144.856 0 0 1 50.112 11.473 A 123.029 123.029 0 0 1 50.392 14.513 A 120.572 120.572 0 0 1 50.496 15.939 A 89.369 89.369 0 0 1 50.574 17.23 Q 49.87 17.7 49.442 17.301 A 0.845 0.845 0 0 1 49.436 17.295 Q 49.034 16.913 48.764 16.035 A 6.539 6.539 0 0 1 48.727 15.909 A 10.649 10.649 0 0 1 48.521 15.044 Q 48.386 14.36 48.297 13.524 A 196.921 196.921 0 0 1 48.077 11.353 A 219.277 219.277 0 0 1 48.007 10.603 Q 47.867 9.088 47.674 7.616 A 25.222 25.222 0 0 0 47.469 6.31 Q 47.339 5.611 47.18 5.006 Z M 53.518 12.547 A 5.158 5.158 0 0 0 53.554 13.184 Q 53.647 13.932 53.979 14.341 Q 54.439 14.908 55.613 14.91 A 4.914 4.914 0 0 0 55.623 14.91 Q 56.504 14.91 57.31 14.599 A 4.499 4.499 0 0 0 58.553 13.881 A 4.238 4.238 0 0 0 58.717 13.739 Q 59.318 13.191 59.684 12.418 A 3.846 3.846 0 0 0 60.034 11.076 A 4.64 4.64 0 0 0 60.049 10.699 A 18.527 18.527 0 0 1 60.05 10.486 Q 60.054 10.138 60.07 9.614 A 7.558 7.558 0 0 0 60.074 9.382 A 7.459 7.459 0 0 0 59.984 8.229 A 3.782 3.782 0 0 0 59.829 7.587 A 2.92 2.92 0 0 0 59.576 7.036 A 1.054 1.054 0 0 0 59.282 6.709 Q 59.072 6.56 58.788 6.536 A 1.335 1.335 0 0 0 58.674 6.531 A 3.924 3.924 0 0 0 56.611 7.101 Q 55.666 7.67 54.979 8.551 A 7.061 7.061 0 0 0 53.904 10.495 A 6.58 6.58 0 0 0 53.592 11.668 A 5.373 5.373 0 0 0 53.518 12.547 Z M 27.049 9.797 A 4.402 4.402 0 0 0 27.064 10.178 Q 27.096 10.543 27.194 10.775 A 0.967 0.967 0 0 0 27.253 10.893 Q 27.428 11.188 28.041 11.23 A 3.135 3.135 0 0 0 28.252 11.236 Q 28.811 11.236 29.348 11.032 Q 29.885 10.828 30.325 10.463 Q 30.766 10.098 31.023 9.604 A 2.287 2.287 0 0 0 31.281 8.529 A 4.221 4.221 0 0 0 31.246 7.991 A 4.752 4.752 0 0 0 31.228 7.863 A 1.766 1.766 0 0 0 31.002 7.229 A 1.467 1.467 0 0 0 30.562 6.757 Q 30.293 6.574 29.863 6.574 A 2.473 2.473 0 0 0 29.042 6.708 A 2.283 2.283 0 0 0 28.692 6.864 Q 28.166 7.154 27.801 7.616 Q 27.436 8.078 27.242 8.647 A 3.553 3.553 0 0 0 27.049 9.797 Z M 81.125 9.797 A 4.402 4.402 0 0 0 81.14 10.178 Q 81.172 10.543 81.27 10.775 A 0.967 0.967 0 0 0 81.329 10.893 Q 81.505 11.188 82.117 11.23 A 3.135 3.135 0 0 0 82.328 11.236 Q 82.887 11.236 83.424 11.032 Q 83.961 10.828 84.401 10.463 Q 84.842 10.098 85.1 9.604 A 2.287 2.287 0 0 0 85.357 8.529 A 4.221 4.221 0 0 0 85.322 7.991 A 4.752 4.752 0 0 0 85.304 7.863 A 1.766 1.766 0 0 0 85.078 7.229 A 1.467 1.467 0 0 0 84.638 6.757 Q 84.369 6.574 83.939 6.574 A 2.473 2.473 0 0 0 83.118 6.708 A 2.283 2.283 0 0 0 82.769 6.864 Q 82.242 7.154 81.877 7.616 Q 81.512 8.078 81.318 8.647 A 3.553 3.553 0 0 0 81.125 9.797 Z" vector-effect="non-scaling-stroke"/></g>
</svg>
