<svg xmlns="http://www.w3.org/2000/svg" viewBox="0 0 143.85 144"><defs><style>.cls-1{opacity:.1;fill:url(#New_Gradient_Swatch_9)}</style><linearGradient id="New_Gradient_Swatch_9" x1="21.07" y1="21.07" x2="122.79" y2="122.79" gradientUnits="userSpaceOnUse"><stop offset="0" stop-color="#bab2aa"/><stop offset="1" stop-color="#a0968c"/></linearGradient></defs><title>abstract-circle</title><g id="Layer_2" data-name="Layer 2"><path class="cls-1" d="M135.39 45.66l-12.55-24.52a.28.28 0 0 0-.12-.12L98.23 8.48 72 0a.28.28 0 0 0-.17 0L45.66 8.46 21.14 21a.28.28 0 0 0-.12.12L8.48 45.62 0 71.84A.28.28 0 0 0 0 72l8.46 26.19L21 122.72a.28.28 0 0 0 .12.12l24.35 12.46a.28.28 0 0 0 .19.24L71.84 144H72l26.18-8.45a.28.28 0 0 0 .19-.24l24.33-12.46a.28.28 0 0 0 .12-.12l12.54-24.49L143.84 72a.28.28 0 0 0 0-.17zm-19.12 43.55l-.33.39-7.33-16.44-.42-.95h22.68zm-89.4-33.74l1-1.21 7.74 17.37H13zm3.58 58.34l9.39-9.39 6.65-6.65 6.81 17.78zm23.28-85l4.87 11.75 5.76 13.84-7.59 2-4.61-4.61-5.23-5.23 1.94-5.07zm59.66 1.29L104 39.44l-6.65 6.65-6.8-17.78zm-25.91 57l2-7.59 4.73 2 2.39 1 .17 6.47.2 7.63-7.71-7.71zm2.2-8.1l4-6.76H107l-10.2 9.68-2.39-1zm.25-13.66l16.31 6.33H93.65zm-.93-.52l4.14 7L89 79l-2 7.9-8 2.1-7 4.14L65 89l-7.9-2-2-7.9-4.14-7 4.14-7 2-7.9 7.9-2 7-4.14 7 4.14 7.9 2zM56.77 87.49l7.59 2-2 4.73-1 2.39-6.47.17-7.59.22 7.7-7.75zm8.12 2.19l6.76 4V107l-9.72-10.2 1-2.39zm13.66.25l-6.33 16.31V93.65zM47 97.53l14.47-.38 10 10.5-17.56 7.83-5.51-14.31zM42.68 48.4l3.64-1.4.38 14.47-10.5 10-7.83-17.58zm13.68 8.37l-2 7.59-4.73-2-2.39-1-.17-6.47-.2-7.63L54.61 55zm-2.19 8.12l-4 6.76H36.82l10.23-9.71 2.39 1zm-.25 13.66l-16.3-6.34H50.2zm27-29.1l-2 4.73-6.76-4V36.82l9.71 10.24zm-15.61 4.48l6.33-16.31V50.2zm21.78 2.43l-7.59-2 2-4.73 1-2.39 6.47-.17 7.63-.2-7.71 7.71zm17.33-16.52l9.39-9.39 1.74 22.85-17.78-6.81zm-7.57 6.48l-14.47.38-10-10.5L90 28.37l5.49 14.31zm-50.76.16L28.31 53.3l1.74-22.85 9.39 9.39zm8.31 33l2 7.59-4.64 4.63-5.23 5.23-5.11-2-12.66-4.81 11.88-4.92zm-8.32 17.89L39.44 104l-9.39 9.39-1.74-22.84zm33.42-7.91l7.59-2 4.61 4.64 5.23 5.23-2 5.11-4.81 12.66-4.92-11.88zm18 7.39l-.38-14.47 10.5-10L115.48 90l-14.31 5.49zm-8.04-32.49l-2-7.59 4.61-4.61 5.23-5.23 5.07 1.94 12.7 4.87-11.75 4.87zM71.64 13v23.05l-6.9 17.78L56 32.68l-1.91-4.61 1.68-1.44zM46.49 46.08l-6.65-6.65-9.39-9.39 22.85-1.73zM13 72.21h23l17.78 6.9-21.06 8.75-4.64 1.92-1.74-2zm41.27 43.73l17.06-7.6.33-.15v22.68l-17-14.59zm18 14.92V107.8L79.12 90l8.75 21.11 1.92 4.64-2.27 1.95zm18.34-15.32l6.81-17.78 6.65 6.65 9.39 9.39zm7.22-18.18l17.78-6.81-1.81 22.85-9.38-9.4zm33.1-25.73H107.8L90 64.74 111.17 56l4.61-1.91 1.71 2zM98.17 9.3l15.26 20.19-22.89-1.75 7.37-17.82zM89.6 27.91l-16.7 7.45-.68.31V13l16.17 13.87zM9.3 45.68l20.18-15.26-1.74 22.9-17.82-7.38zm3.27 26.91l15.1 17.61 1.77 23.19L9 98zm33.12 62l-15.27-20.22 22.89 1.75-7.38 17.81zm.78-.41l7.38-17.81 17.42 15-25.06 3.49zm43.78-18l23.19-1.77L98 134.82l-25.39-3.53zm44.32-18l-20.19 15.26 1.75-22.89 17.81 7.38zm-18.34-44.47l-.08-.1-1.77-23.19 20.45 15.45-3.53 25.39zM97.65 9.08l-.26.62L90 27.52l-17.42-15 6.71-.93zm-26.39 3.49L54 27.4l-.37.32-23.21 1.76L45.88 9l23.51 3.3zM9.08 46.21l.62.26 17.81 7.38-15 17.42-.4-2.89zm125.69 51.44l-.63-.26-17.8-7.39 15-17.42 2.06 14.84zm-12.4-76.17l11.93 23.29-10.68-8.07-9.38-7.09L99.08 9.55zM71.93.58l24.9 8L77 11.37l-5.11.71-2.73-.38L47 8.62zm-50.45 20.9L44.77 9.55 36.7 20.24l-7.09 9.38L9.55 44.78zM8.62 47l3.33 23.92.14 1-3.47 24.91-8-24.9zm12.86 75.35L9.55 99.08l10.68 8.08 9.38 7.09 15.17 20.06zm50.45 21l-24.9-8 24.9-3.46 24.91 3.46zm50.45-21l-23.3 11.95 8.08-10.68 7.09-9.38 20.05-15.16zm12.86-25.54l-1.44-10.38-2-14.52 2-14.68L135.23 47l8 24.91z" id="Layer_1-2" data-name="Layer 1"/></g></svg>