<svg xmlns="http://www.w3.org/2000/svg" viewBox="0 0 171 171"><defs><style>.cls-1{fill:#121921}.cls-2{fill:#fff}.cls-3{fill:url(#New_Gradient_Swatch_12)}.cls-4{fill:url(#linear-gradient)}.cls-5{fill:url(#New_Gradient_Swatch_2)}</style><linearGradient id="New_Gradient_Swatch_12" x1="144.28" y1="18.7" x2="158.02" y2="18.7" gradientUnits="userSpaceOnUse"><stop offset="0" stop-color="#f05225" stop-opacity="0"/><stop offset="1" stop-color="#f05225"/></linearGradient><linearGradient id="linear-gradient" x1="146.87" y1="18.7" x2="156.18" y2="18.7" gradientUnits="userSpaceOnUse"><stop offset="0" stop-color="#f05225"/><stop offset="1" stop-color="#f05225" stop-opacity="0"/></linearGradient><linearGradient id="New_Gradient_Swatch_2" x1="32.3" y1="32.3" x2="138.7" y2="138.7" gradientUnits="userSpaceOnUse"><stop offset="0" stop-color="#f8a27b"/><stop offset="1" stop-color="#f05225"/></linearGradient></defs><title>backstage-cover-art</title><g id="Layer_2" data-name="Layer 2"><g id="Layer_1-2" data-name="Layer 1"><path class="cls-1" d="M0 0h171v171H0z"/><path class="cls-2" d="M153.57 17.8a1.54 1.54 0 1 0-1.24 2.48 1.59 1.59 0 0 0 1.26-.68l.78.73a2.61 2.61 0 1 1-2-4.22 2.57 2.57 0 0 1 2 1z"/><path class="cls-3" d="M152.29 26.72h-.16a8 8 0 0 1-5.73-2.57 8 8 0 0 1 0-10.89A8 8 0 0 1 158 13a.22.22 0 1 1-.31.31 7.58 7.58 0 0 0-10.93.21 7.61 7.61 0 0 0 0 10.3 7.58 7.58 0 0 0 10.93.21.22.22 0 1 1 .31.31 8 8 0 0 1-5.71 2.38z"/><path class="cls-4" d="M152.28 24.12h-.18a5.42 5.42 0 0 1 0-10.83 5.44 5.44 0 0 1 4 1.58.22.22 0 0 1-.31.31 5 5 0 0 0-3.7-1.46 5 5 0 0 0 0 10 5 5 0 0 0 3.7-1.46.22.22 0 1 1 .31.31 5.44 5.44 0 0 1-3.82 1.55z"/><path class="cls-5" d="M160.73 74.81l-14.48-14.48V39.86h-15.11V24.75h-20.47L96.19 10.27 85.5 21 74.81 10.27 60.33 24.75H39.86v15.11H24.75v20.47L10.27 74.81 21 85.5 10.27 96.19l14.48 14.48v20.47h15.11v15.11h20.47l14.48 14.48L85.5 150l10.69 10.69 14.48-14.48h20.47v-15.07h15.11v-20.47l14.48-14.48L150 85.5zm-136 35L11.11 96.19l10.27-10.27 3.37 3.37zm0-21.37l-3-3 3-3zm0-6.74l-3.37 3.37-10.25-10.26 13.64-13.64zm15.11 48.84h-14.5v-19.28l14.52 14.52zm0-5.61l-14.5-14.51V89.88l14.52 14.52zm0-28.5L36 92.63l3.82-3.82zm0-14.25L36 78.38l3.82-3.82zm0-8.47l-4.65 4.65L39.86 83v5l-4.65 4.65 4.65 4.65v6.29L25.34 89v-7l14.52-14.57zm0-7.12l-14.5 14.53V60.58l14.52-14.52zm0-21.37l-14.5 14.52V40.45h14.52zm85.08-5.36H104.4L89.88 25.34h20.54zm-9.51 11.87V55h-3l-9.48-9.48h6.29zM110 45.49h5.4v5.4zm-.84 80h-6.29l9.48-9.48h3v3.25zm6.23-5.4v5.4H110zm-59.86-.84V116h3l9.48 9.48H61.8zm5.4 6.23h-5.4v-5.4zm27.25 5l-2.3-2.3 2.15-2.15h13.41L97 130.55zm8.22.59L92.63 135l-3.82-3.82zm-22.4-.52l-4.44-4.44h13.37l2.15 2.15-2.3 2.3zm8.22.59L78.38 135l-3.82-3.82zm1.58-5h3.46l-1.73 1.73zm1.73 2.57l1.88 1.88h-3.79zm3.16-3.16l9.45-9.55h13.41l-9.48 9.48zm-.84 0h-4.67L73.7 116h23.6zm-5.48 0H68.93L59.45 116h13.41zm-23.52-10.12l-3.28-3.28V98.74l16.69 16.69zm-.84 0h-2.44V113zm10.67 10.67l4.44 4.44h-6.28l-4.44-4.44zm5 5l4.65 4.65 4.67-4.61h5l4.65 4.65 4.65-4.65h6.29L89 145.66h-7l-14.57-14.52zm24.15-.59l4.44-4.44h6.29l-4.44 4.44zM113 115.43l2.44-2.44v2.44zm-.84 0H98.74l16.69-16.69v13.41zm-14.25 0H73.1L55.57 97.9V73.1L73.1 55.57h24.8l17.53 17.53v24.8zM61.8 45.49h6.29L58.61 55h-3v-3.27zm-6.23 5.4v-5.4H61zm27.21-10.44l2.3 2.3-2.15 2.15H69.52L74 40.45zm-8.22-.59L78.38 36l3.82 3.82zm9.06.59h3.75l-1.87 1.88zm3.6 4.44h-3.45l1.73-1.73zm-4.89.59L72.86 55H59.45l9.48-9.48zm.84 0h4.64L97.3 55H73.7zm5.48 0h13.41l9.49 9.52H98.14zm-.59-.59l-2.15-2.15 2.3-2.3H97l4.44 4.44zm.74-5L92.63 36l3.82 3.82zm3.82-4.65L88 39.86h-5l-4.65-4.65-4.65 4.65h-6.27L82 25.34h7l14.52 14.52h-6.24zm-19.5 5.25l-4.44 4.41H62.4l4.44-4.44zM58 55.57L55.57 58v-2.43zm.84 0h13.42L55.57 72.26V58.85zm39.89 0h13.41l3.28 3.28v13.41zm14.25 0h2.44V58zM102.32 44.9l-4.44-4.44h6.29l4.44 4.44zm-6.13-33.79l13.64 13.64H89.29l-3.37-3.37zm-7.74 13.64h-5.9l3-3zM74.81 11.11l10.27 10.27-3.37 3.37H61.17zM60.58 25.34h20.54L66.6 39.86H46.06zm-20.13 0h19.29L45.22 39.86h-4.77zm0 15.11h4.17l-4.17 4.17zm0 5l5-5H66l-4.44 4.45H55v6.58L51.48 55H44.9v6.58L40.45 66zm11.27 70l-6.24-6.24v-6.29l9.52 9.47v3zM55 116v2.65L52.32 116zm-4.09-.59h-5.4V110zm-5.4-13.36V88.66L55 98.14v13.41zm0-14.25v-4.62L55 73.7v23.6zm0-5.48V68.93L55 59.45v13.41zm0-14.25V61.8l6.24-6.24H55v3zm0-7.12v-5.4h5.4zm6.83-6L55 52.32V55zM40.45 66.84l4.45-4.44v6.29l-4.44 4.44zm0 7.13l4.44-4.44v13.4l-2.15 2.15-2.3-2.3zm4.44 9.81v3.46l-1.72-1.74zm-4.44-.15l1.88 1.88-1.88 1.88zm0 4.59l2.3-2.3 2.15 2.15v13.41L40.45 97zm0 9.66l4.44 4.44v6.29l-4.44-4.44zm0 7.12l4.44 4.44V116h6.58l3.53 3.52v6.58h6.58l4.42 4.45H45.47l-5-5zm0 21.38l4.17 4.17h-4.17zm0 19.29v-14.53h4.77l14.52 14.52zm5.61-14.52H66.6l14.52 14.52H60.58zm28.75 28.75l-13.64-13.65h20.54l3.37 3.37zm7.74-13.64h5.9l-3 3zm13.64 13.64l-10.27-10.27 3.37-3.37h20.54zm14.23-14.23H89.88l14.52-14.52h20.54zm20.13 0h-19.29l14.52-14.52h4.77zm0-15.11h-4.17l4.17-4.17zm0-5l-5 5H105l4.44-4.44H116v-6.58l3.49-3.49h6.58v-6.58l4.44-4.44zm-11.27-70l6.24 6.24v6.29L116 58.61v-3zM116 55v-2.68l2.68 2.68zm4.09.59h5.4V61zm5.4 13.36v13.39L116 72.86V59.45zm0 14.25v4.64L116 97.3V73.7zm0 5.48v13.41l-9.49 9.46V98.14zm0 14.25v6.29l-6.24 6.24H116v-3zm0 7.13v5.4h-5.4zm-6.83 6l-2.66 2.62V116zm11.87-11.87l-4.44 4.44v-6.29l4.44-4.44zm0-7.12l-4.44 4.44V88.07l2.15-2.15 2.3 2.3zm-4.44-9.81v-3.49l1.73 1.73zm4.44.15l-1.88-1.88 1.88-1.88zm0-4.59l-2.3 2.3-2.15-2.15V69.52l4.47 4.48zm0-9.66l-4.44-4.44V62.4l4.44 4.44zm0-7.12l-4.44-4.44V55h-6.58L116 51.48V44.9h-6.58L105 40.45h20.54l5 5zm0-21.37l-4.17-4.17h4.17zm0-4.77h-4.77l-14.5-14.56h19.29zm.59 34.7l3.88 3.78-3.82 3.82zm0 14.25l3.88 3.78-3.82 3.82zm14.52 41.74h-14.5v-4.77l14.52-14.52zm0-20.13l-14.52 14.52V104.4l14.52-14.52zm0-21.37l-14.52 14.52v-6.33l4.65-4.65-4.63-4.63v-5l4.65-4.65-4.65-4.65v-6.27L145.66 82zm0-7.93l-14.5-14.56V46.06l14.52 14.52zm0-21.37l-14.5-14.57v-4.77h14.52zm.59 1.43l13.64 13.64-10.24 10.22-3.37-3.37zm0 21.38l3 3-3 3zm13.64 13.64l-13.64 13.64V89.29l3.37-3.37zM105.95 77v-6.91h-5v-5H94l-4.91-4.91-3.59 3.53-3.56-3.56-4.94 4.9h-6.91v5h-5V77l-4.91 4.91 3.56 3.56-3.56 3.56L65.05 94v6.94h5v5H77l4.91 4.91 3.56-3.56 3.56 3.56 4.97-4.9h6.94v-5h5V94l4.91-4.91-3.56-3.56 3.56-3.56zm-40.9 16.1L61 89.06l3.14-3.14.93.93zm0-7.12l-.51-.51.51-.51zm0-1.85l-.93.93L61 81.94l4.07-4.07zm5 16.16h-4.41v-5.73L70.09 99zm0-2.15l-4.44-4.44v-6.26l4.44 4.44zm0-7.12l-4.41-4.42v-2.2l4.45-4.4zm0-11.93l-4.44 4.44v-6.25l4.44-4.44zm0-7.12l-4.44 4.44v-5.73h4.44zm28.08-1.9h-6.25l-4.44-4.44h6.29zm-7.12 0H80l4.44-4.44h2.2zm-2-9.11l4.07 4.07h-6.23l-.93-.93zM86 65.05h-1l.51-.51zM81.94 61l3.14 3.14-.93.93h-6.28zm-4.66 4.66h6.29l-4.44 4.44h-6.3zm-6.59 0h5.75L72 70.09h-1.32zm0 5h.72l-.72.72zm0 1.56l1.56-1.56h6.29L70.7 78.5zm0 20.24l7.84 7.84h-6.29l-1.56-1.56zm0 7.13l.72.72h-.72zm0 5.75v-4.44H72l4.44 4.44zm2.15-4.44h6.29l4.44 4.44h-6.29zm7.13 0H91l-4.44 4.44H84.4zm2 9.11l-4.07-4.07h6.29l.93.93zm3.03-4.06h1l-.51.51zm4.06 4.05l-3.14-3.14.93-.93h6.29zm4.66-4.66h-6.28l4.44-4.44h6.29zm6.59 0h-5.75l4.44-4.43h1.31zm0-5h-.71l.72-.72zm0-1.56l-1.56 1.56h-6.27l7.84-7.84zm0-7.12l-8.68 8.68H79.36l-8.68-8.68v-12.3l8.68-8.68h12.28l8.68 8.68zm0-13.11l-7.84-7.84h6.29l1.56 1.56zm0-7.12l-.72-.72h.72zm0-1.31H99l-4.44-4.44h5.75zm5 30.23h-4.44V99l4.44-4.44zm0-6.59l-4.44 4.44v-6.32l4.44-4.44zm0-7.12l-4.4 4.36V80l4.44 4.44zm0-3l-4.44-4.44v-6.37l4.44 4.44zm0-7.12l-4.4-4.52v-1.32h4.44zm.59 8.56l.51.51-.51.51zm4.1 3.98l-4.07 4.07v-6.28l.93-.93zm-3.14-4l-.93-.93v-6.26l4.07 4.07z"/><path class="cls-1" d="M0 64.13h171v42.75H0z"/><path class="cls-2" d="M33.23 77.75c3 0 4.65 1.35 4.65 4a3.63 3.63 0 0 1-1.69 3.38c1.33.5 2.1 1.71 2.1 3.68 0 2.35-1.29 4.47-4.65 4.47H29V77.75zm-1.62 6.36h1.67c1.44 0 2-.88 2-2.17S34.88 80 33 80h-1.4zm0 6.95h1.83c1.56 0 2.23-.86 2.23-2.35 0-1.65-.74-2.35-2.48-2.35h-1.58zm9.68 2.25l4.35-15.57h2.57l4.38 15.57h-2.77L49 90.09h-4.17L44 93.31zm4.13-5.48h3L47 81.69zm17.26-5.26c-.25-1.89-.93-2.75-2.17-2.75-1.53 0-2.28 1.35-2.28 4.71v2c0 3.32.74 4.71 2.28 4.71 1.29 0 1.89-.86 2.17-2.75h2.48c-.45 3.5-2.05 5-4.65 5-2.89 0-4.9-2.1-4.9-7v-2c0-4.9 2-7 4.9-7 2.5 0 4.22 1.65 4.65 5zM77 93.31l-3.23-6.93-1.67 2.93v4h-2.65V77.75h2.62v7.33l4.08-7.33h2.93L75.49 84l4.38 9.34zm13-11.82a2.58 2.58 0 0 0-2.46-1.67c-1.26 0-1.85.72-1.85 2 0 1.49.81 2.08 2.5 2.55 2.66.74 3.88 2 3.88 4.65a4.18 4.18 0 0 1-4.42 4.47A5.33 5.33 0 0 1 82.78 91l2-1.4a3 3 0 0 0 2.73 1.67c1.51 0 2-.95 2-2.08s-.5-2-2.57-2.59c-2.46-.7-3.81-2.08-3.81-4.71a4 4 0 0 1 4.4-4.31A4.69 4.69 0 0 1 92 80.09zm14.67-3.74V80h-3.5v13.31h-2.62V80h-3.5v-2.25zm1.73 15.56l4.35-15.57h2.57l4.38 15.57h-2.78l-.81-3.23h-4.17l-.79 3.23zm4.13-5.48h3l-1.49-6.14zm19.74-2.5v1.2c0 5-1.8 7-4.67 7s-4.9-2.1-4.9-7v-1.88c0-5 2-7.11 4.9-7.11 2.64 0 4.26 1.76 4.65 5h-2.48c-.23-1.8-.88-2.75-2.17-2.75-1.53 0-2.28 1.35-2.28 4.71v2c0 3.36.74 4.71 2.28 4.71s2.08-1.13 2.17-3.63h-2.12v-2.25zm12.55-7.58V80h-5.3v4.11h4.74v2.26h-4.74v4.67h5.3v2.26h-7.92V77.75z"/></g></g></svg>