<svg xmlns="http://www.w3.org/2000/svg" viewBox="0 0 181.5 57"><defs><style>.cls-1{fill:#fff}.cls-2,.cls-3{fill:none;stroke-linecap:round;stroke-linejoin:round;stroke-width:3px}.cls-2{stroke:url(#linear-gradient)}.cls-3{stroke:url(#New_Gradient_Swatch_8)}</style><linearGradient id="linear-gradient" y1="28.5" x2="49.05" y2="28.5" gradientUnits="userSpaceOnUse"><stop offset="0" stop-color="#61c192" stop-opacity="0"/><stop offset="1" stop-color="#61c192"/></linearGradient><linearGradient id="New_Gradient_Swatch_8" x1="8.98" y1="28.5" x2="42.69" y2="28.5" gradientUnits="userSpaceOnUse"><stop offset="0" stop-color="#61c192"/><stop offset="1" stop-color="#61c192" stop-opacity="0"/></linearGradient></defs><title>changelog-logo</title><g id="Layer_2" data-name="Layer 2"><g id="headers"><path class="cls-1" d="M126.64 23.2H120v3.38h5.89v3.67H120v3.59h6.86v3.7h-10.8v-18h10.58zM33 25.26c-1.59-1.81-2.81-2.46-4.54-2.46a5.74 5.74 0 0 0 0 11.48c1.73 0 3-.67 4.59-2.48l2.83 2.65c-2.32 2.5-4.51 3.55-7.34 3.55a9.47 9.47 0 1 1 0-18.93c2.81 0 5 1 7.29 3.51zm9.52 1.32h6.68v-7h4v18h-4v-7.3h-6.68v7.26h-4v-18h4zm18.71 6.99l-1.38 4h-4.21l6.72-18H67l6.72 18h-4.28l-1.38-4zm3.4-9.77l-2.11 6.08h4.24zm11.5-4.27h3.35l8.32 10.94V19.53h4v18h-3.36l-8.32-10.92v10.93h-4zM113 27.28v1.86a9.83 9.83 0 0 1-1.21 4.86 8.2 8.2 0 0 1-7.34 4 9.47 9.47 0 1 1 0-18.93c2.78 0 4.83.94 7.4 3.35L109 25.07c-1.7-1.67-2.86-2.27-4.59-2.27a5.74 5.74 0 0 0 0 11.48 4.19 4.19 0 0 0 4.37-3.35H104v-3.65zm21.23-7.75v14.31h6.85v3.7h-10.85v-18zm26.91 9.02a9.6 9.6 0 1 1-9.61-9.48 9.58 9.58 0 0 1 9.61 9.48zm-15.14.08a5.58 5.58 0 1 0 5.54-5.83 5.63 5.63 0 0 0-5.54 5.83zm35.5-1.35v1.86a9.83 9.83 0 0 1-1.16 4.86 8.2 8.2 0 0 1-7.34 4 9.47 9.47 0 1 1 0-18.93c2.78 0 4.83.94 7.4 3.35l-2.84 2.65c-1.7-1.67-2.86-2.27-4.59-2.27a5.74 5.74 0 0 0 0 11.48 4.19 4.19 0 0 0 4.37-3.35h-4.81v-3.65z"/><path class="cls-2" d="M47.55 47.59a27 27 0 1 1 0-38.18"/><path class="cls-3" d="M41.19 41.23a18 18 0 1 1 0-25.46"/></g></g></svg>