<?xml version="1.0" encoding="utf-8"?>
<!-- Generator: Adobe Illustrator 18.1.1, SVG Export Plug-In . SVG Version: 6.00 Build 0)  -->
<svg version="1.1" id="Layer_1" xmlns="http://www.w3.org/2000/svg" xmlns:xlink="http://www.w3.org/1999/xlink" x="0px" y="0px"
	 width="40px" height="40px" viewBox="0 0 40 40" enable-background="new 0 0 40 40" xml:space="preserve">
<g>
	<path fill="#121921" d="M23.2,17.8c-1.1-1.2-1.9-1.7-3.1-1.7c-2.1,0-3.8,1.7-3.8,3.9c0,2.2,1.7,3.9,3.8,3.9c1.2,0,2-0.5,3.1-1.7
		l1.9,1.8c-1.6,1.7-3.1,2.4-5.1,2.4c-3.7,0-6.6-2.9-6.6-6.5c0-3.6,2.9-6.5,6.6-6.5c1.9,0,3.4,0.7,5,2.4L23.2,17.8z"/>
	<linearGradient id="SVGID_1_" gradientUnits="userSpaceOnUse" x1="7.618200e-08" y1="20" x2="34.276" y2="20">
		<stop  offset="0" style="stop-color:#61C192;stop-opacity:0"/>
		<stop  offset="1" style="stop-color:#61C192"/>
	</linearGradient>
	<path fill="url(#SVGID_1_)" d="M20,40c-0.1,0-0.3,0-0.4,0C14.1,39.9,9,37.6,5.3,33.6C-1.8,26-1.8,14,5.3,6.4C9,2.4,14.1,0.1,19.6,0
		c5.5-0.1,10.6,2,14.5,5.9c0.2,0.2,0.2,0.6,0,0.8c-0.2,0.2-0.6,0.2-0.8,0C29.7,3,24.8,1,19.6,1.1c-5.2,0.1-10,2.3-13.5,6.1
		c-6.7,7.2-6.7,18.5,0,25.7c3.5,3.8,8.3,6,13.5,6.1c5.2,0.1,10.1-1.9,13.7-5.5c0.2-0.2,0.6-0.2,0.8,0c0.2,0.2,0.2,0.6,0,0.8
		C30.3,37.9,25.3,40,20,40z"/>
	<linearGradient id="SVGID_2_" gradientUnits="userSpaceOnUse" x1="6.4692" y1="19.9999" x2="29.6894" y2="19.9999">
		<stop  offset="0" style="stop-color:#61C192"/>
		<stop  offset="1" style="stop-color:#61C192;stop-opacity:0"/>
	</linearGradient>
	<path fill="url(#SVGID_2_)" d="M20,33.5c-0.2,0-0.3,0-0.5,0c-3.8-0.1-7.2-1.8-9.7-4.7c-4.4-5-4.4-12.7,0-17.7
		c2.5-2.9,6-4.5,9.7-4.7c3.7-0.1,7.4,1.3,10,3.9c0.2,0.2,0.2,0.6,0,0.8c-0.2,0.2-0.6,0.2-0.8,0c-2.4-2.4-5.8-3.7-9.2-3.6
		c-3.5,0.1-6.7,1.6-9,4.3c-4,4.6-4,11.6,0,16.3c2.3,2.6,5.5,4.2,9,4.3c3.4,0.1,6.8-1.2,9.2-3.6c0.2-0.2,0.6-0.2,0.8,0
		c0.2,0.2,0.2,0.6,0,0.8C27,32.1,23.5,33.5,20,33.5z"/>
</g>
</svg>
