<?xml version="1.0" encoding="utf-8"?>
<!-- Generator: Adobe Illustrator 18.1.1, SVG Export Plug-In . SVG Version: 6.00 Build 0)  -->
<svg version="1.1" id="Layer_1" xmlns="http://www.w3.org/2000/svg" xmlns:xlink="http://www.w3.org/1999/xlink" x="0px" y="0px"
	 width="20px" height="20px" viewBox="0 0 20 20" enable-background="new 0 0 20 20" xml:space="preserve">
<g>
	<g>
		<path fill="#61C192" d="M10,20C4.5,20,0,15.5,0,10C0,4.5,4.5,0,10,0c0.6,0,1,0.4,1,1s-0.4,1-1,1c-4.4,0-8,3.6-8,8s3.6,8,8,8
			s8-3.6,8-8c0-0.6,0.4-1,1-1s1,0.4,1,1C20,15.5,15.5,20,10,20z"/>
	</g>
	<g>
		<path fill="#61C192" d="M10,15.5c-1.5,0-2.9-0.6-3.9-1.6c-0.4-0.4-0.4-1,0-1.4s1-0.4,1.4,0c1.3,1.3,3.6,1.3,4.9,0
			c0.7-0.7,1-1.5,1-2.5c0-0.9-0.4-1.8-1-2.5c-1.3-1.3-3.6-1.3-4.9,0c-0.4,0.4-1,0.4-1.4,0s-0.4-1,0-1.4c1-1,2.4-1.6,3.9-1.6
			c1.5,0,2.9,0.6,3.9,1.6c1,1,1.6,2.4,1.6,3.9c0,1.5-0.6,2.9-1.6,3.9C12.9,14.9,11.5,15.5,10,15.5z"/>
	</g>
</g>
</svg>
