<svg xmlns="http://www.w3.org/2000/svg" viewBox="0 0 171 171"><defs><style>.cls-1{fill:#121921}.cls-2{fill:#fff}.cls-3{fill:url(#New_Gradient_Swatch_11)}.cls-4{fill:url(#linear-gradient)}.cls-5{fill:url(#New_Gradient_Swatch_1)}</style><linearGradient id="New_Gradient_Swatch_11" x1="144.28" y1="18.7" x2="158.02" y2="18.7" gradientUnits="userSpaceOnUse"><stop offset="0" stop-color="#61c4b4" stop-opacity="0"/><stop offset="1" stop-color="#61c4b4"/></linearGradient><linearGradient id="linear-gradient" x1="146.87" y1="18.7" x2="156.18" y2="18.7" gradientUnits="userSpaceOnUse"><stop offset="0" stop-color="#61c4b4"/><stop offset="1" stop-color="#61c4b4" stop-opacity="0"/></linearGradient><linearGradient id="New_Gradient_Swatch_1" x1="32.45" y1="32.32" x2="138.68" y2="138.55" gradientUnits="userSpaceOnUse"><stop offset="0" stop-color="#b0ded5"/><stop offset="1" stop-color="#61c4b4"/></linearGradient></defs><title>founders-talk-cover-art</title><g id="Layer_2" data-name="Layer 2"><g id="Layer_1-2" data-name="Layer 1"><path class="cls-1" d="M0 0h171v171H0z"/><path class="cls-2" d="M153.57 17.8a1.54 1.54 0 1 0-1.24 2.48 1.59 1.59 0 0 0 1.26-.68l.78.73a2.61 2.61 0 1 1-2-4.22 2.57 2.57 0 0 1 2 1z"/><path class="cls-3" d="M152.29 26.72h-.16a8 8 0 0 1-5.73-2.57 8 8 0 0 1 0-10.89A8 8 0 0 1 158 13a.22.22 0 1 1-.31.31 7.58 7.58 0 0 0-10.93.21 7.61 7.61 0 0 0 0 10.3 7.58 7.58 0 0 0 10.93.21.22.22 0 1 1 .31.31 8 8 0 0 1-5.71 2.38z"/><path class="cls-4" d="M152.28 24.12h-.18a5.42 5.42 0 0 1 0-10.83 5.43 5.43 0 0 1 4 1.58.22.22 0 0 1-.31.31 5 5 0 0 0-3.7-1.46 5 5 0 0 0 0 10 5 5 0 0 0 3.7-1.46.22.22 0 0 1 .31.31 5.44 5.44 0 0 1-3.82 1.55z"/><path class="cls-5" d="M85.54 10.4l-53.15 22-21.94 53v.12l21.8 52.58v.12l53.25 22.4 53-22h.12l22-53v-.12l-21.95-53v-.12l-53-21.93zm74.4 75.1l-21.8 52.64-52.64 21.79-52.77-22.2-21.66-52.22 21.8-52.64 52.67-21.79 52.6 21.79zm-129.85-23v45.64L62.52 141h46L141 108.49v-46L108.49 30h-46zm78.14-31.82l32.13 32.13v45.44l-32.13 32.13H62.78l-32.06-32.52V62.73l32.06-32.08zM85.36 130.79h.12l32.1-13.29 13.17-31.91v-.12l-13.2-32.02-32.07-13.26-32 13.26-13.27 32 13.27 32zM53.93 53.94l31.55-13.06 31.58 13.06 13.06 31.58-13 31.55-31.64 13.08-31.54-13.09L40.86 85.5zm44.67 63.18l18.62-18.59V72.46L98.6 53.88H72.4L53.79 72.46v26.08l18.61 18.58zm-44.18-44.4l18.24-18.21h25.68l18.25 18.22v25.55l-18.25 18.21H72.66L54.42 98.28zm50.47 32.16l8-19.39-8-19.38-19.39-8-19.38 8-8 19.39 8 19.38 19.38 8zM58.77 85.5l7.83-18.9 18.9-7.83 18.9 7.83 7.83 18.9-7.83 18.9-18.9 7.83-18.9-7.83z"/><path class="cls-1" d="M0 64.13h171v42.75H0z"/><path class="cls-2" d="M17.85 77.75V80h-5.3v4.47h4.74v2.26h-4.75v6.56H9.93V77.75zm2.77 8.77v-2c0-4.9 2-7 4.9-7s4.9 2.1 4.9 7v2c0 4.9-2 7-4.9 7s-4.9-2.1-4.9-7zm2.62-2v2c0 3.36.74 4.74 2.28 4.74s2.28-1.38 2.28-4.74v-2c0-3.36-.74-4.74-2.28-4.74s-2.28 1.39-2.28 4.76zm20.66-6.77V87c0 4.6-2.05 6.52-4.87 6.52S34.16 91.6 34.16 87v-9.25h2.62V87c0 3 .65 4.22 2.26 4.22S41.29 90 41.29 87v-9.25zm13.81 0v15.56h-2.37l-4.56-9.23v9.23h-2.61V77.75h2.32l4.6 9.36v-9.36zM62 93.31V77.75h4.49c2.86 0 4.9 1.87 4.9 6.86v1.85c0 5-2 6.86-4.9 6.86zm6.77-6.86V84.6c0-3.2-.56-4.6-2.28-4.6H64.6v11.06h1.87c1.71 0 2.28-1.4 2.28-4.61zM83 77.75V80h-5.3v4.11h4.74v2.26h-4.71v4.67H83v2.26h-7.89V77.75zm10.36 15.56L91.06 87h-2v6.32h-2.58V77.75H91c2.93 0 4.76 1.56 4.76 4.65 0 2.14-.81 3.52-2.21 4.15l2.64 6.77zm-2.59-8.57c1.58 0 2.39-.59 2.39-2.35S92.35 80 90.77 80H89.1v4.74zM106 81.49a2.58 2.58 0 0 0-2.46-1.67c-1.26 0-1.85.72-1.85 2 0 1.49.81 2.08 2.5 2.55 2.66.74 3.88 2 3.88 4.65a4.18 4.18 0 0 1-4.42 4.47 5.33 5.33 0 0 1-4.9-2.49l2-1.4a3 3 0 0 0 2.73 1.67c1.51 0 2-.95 2-2.08s-.5-2-2.57-2.59c-2.46-.7-3.81-2.08-3.81-4.71a4 4 0 0 1 4.4-4.31 4.69 4.69 0 0 1 4.47 2.55zm20.1-3.74V80h-3.5v13.31H120V80h-3.5v-2.25zm.84 15.56l4.35-15.57h2.57l4.38 15.57h-2.78l-.81-3.23h-4.17l-.79 3.23zm4.13-5.48h3l-1.49-6.14zm12.65 3.23H149v2.26h-7.9V77.75h2.62zm15.73 2.25l-3.23-6.93-1.67 2.93v4h-2.62V77.75h2.62v7.33l4.08-7.33h2.93L158 84l4.38 9.34z"/></g></g></svg>