<?xml version="1.0" encoding="utf-8"?>
<!-- Generator: Adobe Illustrator 18.1.1, SVG Export Plug-In . SVG Version: 6.00 Build 0)  -->
<svg version="1.1" id="Layer_1" xmlns="http://www.w3.org/2000/svg" xmlns:xlink="http://www.w3.org/1999/xlink" x="0px" y="0px"
	 width="20px" height="20px" viewBox="0 0 20 20" enable-background="new 0 0 20 20" xml:space="preserve">
<g>
	<path fill="#ABA8AC" d="M9,8.9c-0.3,0.3-0.4,0.6-0.4,1c0,0.4,0.1,0.7,0.4,1c0.3,0.3,0.6,0.4,1,0.4c0.4,0,0.8-0.2,1-0.4
		c0.3-0.3,0.4-0.6,0.4-1c0-0.4-0.2-0.7-0.4-1C10.5,8.4,9.5,8.4,9,8.9z"/>
	<path fill="#ABA8AC" d="M9,4.7c-0.3,0.3-0.4,0.6-0.4,1c0,0.4,0.1,0.7,0.4,1C9.2,7,9.6,7.1,10,7.1c0.4,0,0.8-0.2,1-0.4
		c0.3-0.3,0.4-0.6,0.4-1c0-0.4-0.2-0.7-0.4-1C10.5,4.2,9.5,4.2,9,4.7z"/>
	<path fill="#ABA8AC" d="M14.7,13.1c0.3-0.3,0.4-0.6,0.4-1c0-0.4-0.2-0.7-0.4-1c-0.5-0.5-1.5-0.5-2,0c-0.3,0.3-0.4,0.6-0.4,1
		c0,0.4,0.1,0.7,0.4,1c0.3,0.3,0.6,0.4,1,0.4C14.1,13.5,14.5,13.4,14.7,13.1z"/>
	<path fill="#ABA8AC" d="M13.7,9.2c0.4,0,0.8-0.2,1-0.4c0.3-0.3,0.4-0.6,0.4-1c0-0.4-0.2-0.7-0.4-1c-0.5-0.5-1.5-0.5-2,0
		c-0.3,0.3-0.4,0.6-0.4,1c0,0.4,0.1,0.7,0.4,1C13,9.1,13.3,9.2,13.7,9.2z"/>
	<path fill="#ABA8AC" d="M5.2,11.1c-0.3,0.3-0.4,0.6-0.4,1c0,0.4,0.1,0.7,0.4,1c0.3,0.3,0.6,0.4,1,0.4c0.4,0,0.8-0.2,1-0.4
		c0.3-0.3,0.4-0.6,0.4-1c0-0.4-0.2-0.7-0.4-1C6.8,10.5,5.8,10.5,5.2,11.1z"/>
	<path fill="#ABA8AC" d="M5.2,6.8C5,7.1,4.8,7.4,4.8,7.8c0,0.4,0.1,0.7,0.4,1c0.3,0.3,0.6,0.4,1,0.4c0.4,0,0.8-0.2,1-0.4
		c0.3-0.3,0.4-0.6,0.4-1c0-0.4-0.2-0.7-0.4-1C6.8,6.3,5.8,6.3,5.2,6.8z"/>
	<path fill="#ABA8AC" d="M9,0.4C8.7,0.6,8.5,1,8.5,1.4c0,0.4,0.1,0.7,0.4,1c0.3,0.3,0.6,0.4,1,0.4c0.4,0,0.8-0.2,1-0.4
		c0.3-0.3,0.4-0.6,0.4-1c0-0.4-0.2-0.7-0.4-1C10.5-0.1,9.5-0.1,9,0.4z"/>
	<path fill="#ABA8AC" d="M5.7,4.2c0.4,0,0.8-0.2,1-0.4c0.3-0.3,0.4-0.6,0.4-1c0-0.4-0.2-0.7-0.4-1c-0.5-0.5-1.5-0.5-2,0
		C4.4,2,4.2,2.4,4.2,2.8c0,0.4,0.1,0.7,0.4,1C4.9,4,5.3,4.2,5.7,4.2z"/>
	<path fill="#ABA8AC" d="M1.5,4.6c-0.3,0.3-0.4,0.6-0.4,1c0,0.4,0.1,0.7,0.4,1c0.3,0.3,0.6,0.4,1,0.4c0.4,0,0.8-0.2,1-0.4
		c0.3-0.3,0.4-0.6,0.4-1c0-0.4-0.2-0.7-0.4-1C3,4.1,2,4.1,1.5,4.6z"/>
	<path fill="#ABA8AC" d="M2.4,11c0.3-0.3,0.4-0.6,0.4-1c0-0.4-0.2-0.7-0.4-1c-0.5-0.5-1.5-0.5-2,0C0.1,9.2,0,9.5,0,9.9
		c0,0.4,0.1,0.7,0.4,1c0.3,0.3,0.6,0.4,1,0.4C1.8,11.4,2.2,11.2,2.4,11z"/>
	<path fill="#ABA8AC" d="M1.5,13.2c-0.3,0.3-0.4,0.6-0.4,1c0,0.4,0.1,0.8,0.4,1c0.3,0.3,0.6,0.4,1,0.4c0.4,0,0.8-0.2,1-0.4
		c0.3-0.3,0.4-0.6,0.4-1c0-0.4-0.2-0.7-0.4-1C3,12.7,2,12.7,1.5,13.2z"/>
	<path fill="#ABA8AC" d="M4.6,16.1c-0.3,0.3-0.4,0.6-0.4,1c0,0.4,0.1,0.7,0.4,1c0.3,0.3,0.6,0.4,1,0.4c0.4,0,0.8-0.2,1-0.4
		c0.3-0.3,0.4-0.6,0.4-1c0-0.4-0.2-0.7-0.4-1C6.2,15.5,5.2,15.5,4.6,16.1z"/>
	<path fill="#ABA8AC" d="M13.2,16.1c-0.3,0.3-0.4,0.6-0.4,1c0,0.4,0.1,0.7,0.4,1c0.3,0.3,0.6,0.4,1,0.4c0.4,0,0.8-0.2,1-0.4
		c0.3-0.3,0.4-0.6,0.4-1c0-0.4-0.2-0.7-0.4-1C14.7,15.6,13.7,15.6,13.2,16.1z"/>
	<path fill="#ABA8AC" d="M16.4,13.2c-0.3,0.3-0.4,0.6-0.4,1c0,0.4,0.1,0.8,0.4,1c0.3,0.3,0.6,0.4,1,0.4c0.4,0,0.8-0.2,1-0.4
		c0.3-0.3,0.4-0.6,0.4-1c0-0.4-0.2-0.7-0.4-1C18,12.7,17,12.7,16.4,13.2z"/>
	<path fill="#ABA8AC" d="M19.6,8.9c-0.5-0.5-1.5-0.5-2,0c-0.3,0.3-0.4,0.6-0.4,1c0,0.4,0.1,0.7,0.4,1c0.3,0.3,0.6,0.4,1,0.4
		c0.4,0,0.8-0.2,1-0.4c0.3-0.3,0.4-0.6,0.4-1C20,9.6,19.9,9.2,19.6,8.9z"/>
	<path fill="#ABA8AC" d="M17.5,7.1c0.4,0,0.8-0.2,1-0.4c0.3-0.3,0.4-0.6,0.4-1c0-0.4-0.2-0.8-0.4-1c-0.5-0.5-1.5-0.5-2,0
		c-0.3,0.3-0.4,0.6-0.4,1c0,0.4,0.1,0.7,0.4,1C16.7,6.9,17.1,7.1,17.5,7.1z"/>
	<path fill="#ABA8AC" d="M13.2,1.7c-0.3,0.3-0.4,0.6-0.4,1c0,0.4,0.1,0.7,0.4,1c0.3,0.3,0.6,0.4,1,0.4c0.4,0,0.8-0.2,1-0.4
		c0.3-0.3,0.4-0.6,0.4-1c0-0.4-0.2-0.7-0.4-1C14.8,1.2,13.8,1.2,13.2,1.7z"/>
	<path fill="#ABA8AC" d="M9,13.3c-0.3,0.3-0.4,0.6-0.4,1c0,0.4,0.1,0.7,0.4,1c0.3,0.3,0.6,0.4,1,0.4c0.4,0,0.8-0.2,1-0.4
		c0.3-0.3,0.4-0.6,0.4-1c0-0.4-0.2-0.7-0.4-1C10.5,12.8,9.5,12.8,9,13.3z"/>
	<path fill="#ABA8AC" d="M9,17.6c-0.3,0.3-0.4,0.6-0.4,1c0,0.4,0.1,0.8,0.4,1c0.3,0.3,0.6,0.4,1,0.4c0.4,0,0.8-0.2,1-0.4
		c0.3-0.3,0.4-0.6,0.4-1c0-0.4-0.2-0.7-0.4-1C10.5,17.1,9.5,17,9,17.6z"/>
</g>
</svg>
