<?xml version="1.0" encoding="utf-8"?>
<!-- Generator: Adobe Illustrator 18.1.1, SVG Export Plug-In . SVG Version: 6.00 Build 0)  -->
<svg version="1.1" id="Layer_1" xmlns="http://www.w3.org/2000/svg" xmlns:xlink="http://www.w3.org/1999/xlink" x="0px" y="0px"
	 width="20px" height="20px" viewBox="0 0 20 20" enable-background="new 0 0 20 20" xml:space="preserve">
<path fill="#61C192" d="M-82.8,6.6c0,0.2,0,0.3,0,0.5c0,4.9-3.7,10.5-10.5,10.5c-2.1,0-4-0.6-5.7-1.7c0.3,0,0.6,0.1,0.9,0.1
	c1.7,0,3.3-0.6,4.6-1.6c-1.6,0-3-1.1-3.4-2.6c0.2,0,0.5,0.1,0.7,0.1c0.3,0,0.7,0,1-0.1c-1.7-0.3-3-1.8-3-3.6v0
	c0.5,0.3,1.1,0.4,1.7,0.5c-1-0.7-1.6-1.8-1.6-3.1c0-0.7,0.2-1.3,0.5-1.9c1.8,2.2,4.5,3.7,7.6,3.9c-0.1-0.3-0.1-0.6-0.1-0.8
	c0-2,1.7-3.7,3.7-3.7c1.1,0,2,0.4,2.7,1.2c0.8-0.2,1.6-0.5,2.3-0.9c-0.3,0.9-0.9,1.6-1.6,2c0.7-0.1,1.5-0.3,2.1-0.6
	C-81.5,5.5-82.1,6.1-82.8,6.6z"/>
<path id="f" fill="#61C192" d="M-62.1,19.1v-8.2h2.8l0.4-3.2h-3.2v-2c0-0.9,0.3-1.6,1.6-1.6l1.7,0V1.2c-0.3,0-1.3-0.1-2.5-0.1
	c-2.4,0-4.1,1.5-4.1,4.2v2.4h-2.8v3.2h2.8v8.2H-62.1z"/>
<g>
	<path fill-rule="evenodd" clip-rule="evenodd" fill="#61C192" d="M-38,1c-5.1,0-9.2,4.1-9.2,9.2c0,4.1,2.6,7.5,6.3,8.8
		c0.5,0.1,0.6-0.2,0.6-0.4c0-0.2,0-0.9,0-1.7c-2.6,0.6-3.1-1.1-3.1-1.1c-0.4-1.1-1-1.3-1-1.3c-0.8-0.6,0.1-0.6,0.1-0.6
		c0.9,0.1,1.4,0.9,1.4,0.9c0.8,1.4,2.2,1,2.7,0.8c0.1-0.6,0.3-1,0.6-1.2c-2-0.2-4.2-1-4.2-4.6c0-1,0.4-1.8,0.9-2.5
		c-0.1-0.2-0.4-1.2,0.1-2.4c0,0,0.8-0.2,2.5,0.9c0.7-0.2,1.5-0.3,2.3-0.3c0.8,0,1.6,0.1,2.3,0.3c1.8-1.2,2.5-0.9,2.5-0.9
		c0.5,1.3,0.2,2.2,0.1,2.4c0.6,0.6,0.9,1.5,0.9,2.5c0,3.5-2.2,4.3-4.2,4.6c0.3,0.3,0.6,0.8,0.6,1.7c0,1.2,0,2.2,0,2.5
		c0,0.2,0.2,0.5,0.6,0.4c3.7-1.2,6.3-4.7,6.3-8.8C-28.8,5.2-32.9,1-38,1z"/>
</g>
<g>
	<path fill="#61C192" d="M-7.9,3c-2.7-2.7-5.4,0-5.4,0l-2.7,2.7l-0.2,0.2c1.7-0.5,2.5,0.2,2.5,0.2l1.7-1.7c0,0,1.4-1.4,2.7,0
		c1.4,1.4,0,2.7,0,2.7l-3.6,3.6c-1.4,1.4-2.7,0-2.7,0c-0.7-0.7-0.7-1.3-0.7-1.3l-1.5,1.5c0,0,0.3,0.7,0.8,1.2c2.7,2.7,5.4,0,5.4,0
		l3.6-3.6C-7.9,8.5-5.2,5.8-7.9,3z"/>
	<path fill="#61C192" d="M-15.8,13.5l-1.7,1.7c0,0-1.4,1.4-2.7,0c-1.4-1.4,0-2.7,0-2.7s2.3-2.3,3.6-3.6c1.4-1.4,2.7,0,2.7,0
		c0.7,0.7,0.7,1.3,0.7,1.3l1.5-1.5c0,0-0.3-0.7-0.8-1.2c-2.7-2.7-5.4,0-5.4,0l-3.6,3.6c0,0-2.7,2.7,0,5.4c2.7,2.7,5.4,0,5.4,0
		l2.7-2.7l0.2-0.2C-15,14.2-15.8,13.5-15.8,13.5z"/>
</g>
<path fill="#FFFFFF" d="M19,13h-4V7h4c0.6,0,1-0.4,1-1s-0.4-1-1-1h-4V1c0-0.6-0.4-1-1-1s-1,0.4-1,1v4H7V1c0-0.6-0.4-1-1-1S5,0.4,5,1
	v4H1C0.4,5,0,5.4,0,6s0.4,1,1,1h4v6H1c-0.6,0-1,0.4-1,1s0.4,1,1,1h4v4c0,0.6,0.4,1,1,1s1-0.4,1-1v-4h6v4c0,0.6,0.4,1,1,1s1-0.4,1-1
	v-4h4c0.6,0,1-0.4,1-1S19.6,13,19,13z M7,13V7h6v6H7z"/>
<path fill="#61C192" d="M34.4,9.8l8.3-8.3c0.4-0.4,0.4-1,0-1.4s-1-0.4-1.4,0l-8.7,8.7H24c-0.6,0-1,0.4-1,1s0.4,1,1,1h8.6l8.7,8.7
	c0.2,0.2,0.5,0.3,0.7,0.3s0.5-0.1,0.7-0.3c0.4-0.4,0.4-1,0-1.4L34.4,9.8z"/>
<path fill="#61C192" d="M66.7,8.9l-18-9c-0.5-0.2-1.1,0-1.3,0.4s0,1.1,0.4,1.3L64,9.8l-14.8,7.4V9.8c0-0.6-0.4-1-1-1s-1,0.4-1,1v9
	c0,0.3,0.2,0.7,0.5,0.9c0.2,0.1,0.3,0.1,0.5,0.1c0.2,0,0.3,0,0.4-0.1l18-9c0.3-0.2,0.6-0.5,0.6-0.9S67,9.1,66.7,8.9z"/>
<rect x="-119.5" y="-9.2" fill="#61C192" width="11.5" height="11.5"/>
<rect x="-119.5" y="4.5" fill="#878B8F" width="11.5" height="11.5"/>
<rect x="-119.5" y="18.2" fill="#FFFFFF" width="11.5" height="11.5"/>
<g>
	<path fill="#61C192" d="M106.2,19.3c-0.6,0-1-0.4-1-1c0-9.4-7.6-17-17-17c-0.6,0-1-0.4-1-1s0.4-1,1-1c10.5,0,19,8.5,19,19
		C107.2,18.9,106.8,19.3,106.2,19.3z"/>
	<path fill="#61C192" d="M97.2,19.3h-9c-0.6,0-1-0.4-1-1v-9c0-0.6,0.4-1,1-1c5.5,0,10,4.5,10,10C98.2,18.9,97.8,19.3,97.2,19.3z
		 M89.2,17.3h6.9c-0.5-3.6-3.3-6.5-6.9-6.9V17.3z"/>
</g>
<g>
	<path fill="#61C192" d="M146.2,19.3c-0.6,0-1-0.4-1-1v-17h-17c-0.6,0-1-0.4-1-1s0.4-1,1-1h18c0.6,0,1,0.4,1,1v18
		C147.2,18.9,146.8,19.3,146.2,19.3z"/>
	<path fill="#61C192" d="M128.2,19.3c-0.3,0-0.5-0.1-0.7-0.3c-0.4-0.4-0.4-1,0-1.4l9-9c0.4-0.4,1-0.4,1.4,0s0.4,1,0,1.4l-9,9
		C128.8,19.2,128.5,19.3,128.2,19.3z"/>
</g>
<g>
	<path fill="#61C192" d="M177.2-0.7c-5.5,0-10,4.5-10,10c0,0.6,0.4,1,1,1s1-0.4,1-1c0-4.4,3.6-8,8-8s8,3.6,8,8c0,0.6,0.4,1,1,1
		s1-0.4,1-1C187.2,3.8,182.8-0.7,177.2-0.7z"/>
	<path fill="#61C192" d="M182.8,9.3c0-3-2.5-5.5-5.5-5.5s-5.5,2.5-5.5,5.5s2.5,5.5,5.5,5.5S182.8,12.3,182.8,9.3z M178.5,6.8
		c0.7,0,1.2,0.6,1.2,1.3s-0.6,1.2-1.2,1.2s-1.2-0.6-1.2-1.2S177.8,6.8,178.5,6.8z M173.8,9.3c0-1.5,0.9-2.7,2.2-3.2
		c-0.4,0.6-0.7,1.2-0.7,2c0,1.8,1.5,3.2,3.2,3.2c0.8,0,1.4-0.3,2-0.7c-0.5,1.3-1.8,2.2-3.2,2.2C175.3,12.8,173.8,11.2,173.8,9.3z"/>
	<path fill="#61C192" d="M182.9,15c-1.5,1.5-3.5,2.3-5.7,2.3s-4.1-0.8-5.7-2.3c-0.4-0.4-1-0.4-1.4,0c-0.4,0.4-0.4,1,0,1.4
		c1.9,1.9,4.4,2.9,7.1,2.9s5.2-1,7.1-2.9c0.4-0.4,0.4-1,0-1.4C183.9,14.6,183.3,14.6,182.9,15z"/>
</g>
<g>
	<path fill="#61C192" d="M216.5,10c0.2,0.2,0.5,0.3,0.7,0.3s0.5-0.1,0.7-0.3l9-9c0.4-0.4,0.4-1,0-1.4s-1-0.4-1.4,0l-8.3,8.3L209-0.4
		c-0.4-0.4-1-0.4-1.4,0s-0.4,1,0,1.4L216.5,10z"/>
	<path fill="#61C192" d="M226.2,17.3h-18c-0.6,0-1,0.4-1,1s0.4,1,1,1h18c0.6,0,1-0.4,1-1S226.8,17.3,226.2,17.3z"/>
</g>
</svg>
