<svg width="41" height="28" viewBox="0 0 41 28" xmlns="http://www.w3.org/2000/svg"><style>.a{fill:none;}.b{stroke-width:2;stroke:#FFF;}</style><title> Viewers</title><g class="a"><path d="M2 14C2 14 9.4 1 20.5 1 31.6 1 39 14 39 14 39 14 31.6 27 20.5 27 9.4 27 2 14 2 14Z" class="a"/><path d="M2 14C2 14 9.4 1 20.5 1 31.6 1 39 14 39 14 39 14 31.6 27 20.5 27 9.4 27 2 14 2 14Z" class="b"/><path d="M24.4 10.1C26.6 12.2 26.6 15.8 24.4 17.9 22.3 20.1 18.7 20.1 16.6 17.9 14.4 15.8 14.4 12.2 16.6 10.1 18.7 7.9 22.3 7.9 24.4 10.1" class="a"/><path d="M24.4 10.1C26.6 12.2 26.6 15.8 24.4 17.9 22.3 20.1 18.7 20.1 16.6 17.9 14.4 15.8 14.4 12.2 16.6 10.1 18.7 7.9 22.3 7.9 24.4 10.1" class="b"/></g></svg>
