<?xml version="1.0" encoding="utf-8"?>
<!-- Generator: Adobe Illustrator 18.1.1, SVG Export Plug-In . SVG Version: 6.00 Build 0)  -->
<svg version="1.1" id="Layer_1" xmlns="http://www.w3.org/2000/svg" xmlns:xlink="http://www.w3.org/1999/xlink" x="0px" y="0px"
	 width="20px" height="20px" viewBox="0 0 20 20" enable-background="new 0 0 20 20" xml:space="preserve">
<g>
	<path fill="#878B8F" d="M9.3,10.7C9.5,10.9,9.7,11,10,11s0.5-0.1,0.7-0.3l9-9c0.4-0.4,0.4-1,0-1.4s-1-0.4-1.4,0L10,8.6L1.7,0.3
		c-0.4-0.4-1-0.4-1.4,0s-0.4,1,0,1.4L9.3,10.7z"/>
	<path fill="#878B8F" d="M19,18H1c-0.6,0-1,0.4-1,1s0.4,1,1,1h18c0.6,0,1-0.4,1-1S19.6,18,19,18z"/>
</g>
</svg>
