<?xml version="1.0" encoding="utf-8"?>
<!-- Generator: Adobe Illustrator 18.1.1, SVG Export Plug-In . SVG Version: 6.00 Build 0)  -->
<svg version="1.1" id="Layer_1" xmlns="http://www.w3.org/2000/svg" xmlns:xlink="http://www.w3.org/1999/xlink" x="0px" y="0px"
	 width="20px" height="20px" viewBox="0 0 20 20" enable-background="new 0 0 20 20" xml:space="preserve">
<g>
	<path fill="#61C192" d="M19,20c-0.6,0-1-0.4-1-1C18,9.6,10.4,2,1,2C0.4,2,0,1.6,0,1s0.4-1,1-1c10.5,0,19,8.5,19,19
		C20,19.6,19.6,20,19,20z"/>
	<path fill="#61C192" d="M10,20H1c-0.6,0-1-0.4-1-1v-9c0-0.6,0.4-1,1-1c5.5,0,10,4.5,10,10C11,19.6,10.6,20,10,20z M2,18h6.9
		c-0.5-3.6-3.3-6.5-6.9-6.9V18z"/>
</g>
</svg>
