<?xml version="1.0" encoding="utf-8"?>
<!-- Generated by IcoMoon.io -->
<!DOCTYPE svg PUBLIC "-//W3C//DTD SVG 1.1//EN" "http://www.w3.org/Graphics/SVG/1.1/DTD/svg11.dtd">
<svg version="1.1" xmlns="http://www.w3.org/2000/svg" xmlns:xlink="http://www.w3.org/1999/xlink" width="60" height="60" viewBox="0 0 60 60">
<path fill="#61c192" d="M30 0c-16.579 0-30 13.421-30 30s13.421 30 30 30 30-13.421 30-30-13.421-30-30-30zM30 56.842c-14.842 0-26.842-12-26.842-26.842s12-26.842 26.842-26.842 26.842 12 26.842 26.842-12 26.842-26.842 26.842z"></path>
<path fill="#61c192" d="M20.526 26.842c3.474 0 6.316-2.842 6.316-6.316s-2.842-6.316-6.316-6.316-6.316 2.842-6.316 6.316 2.842 6.316 6.316 6.316zM20.526 17.368c1.737 0 3.158 1.421 3.158 3.158s-1.421 3.158-3.158 3.158-3.158-1.421-3.158-3.158 1.421-3.158 3.158-3.158z"></path>
<path fill="#61c192" d="M39.474 33.158c-3.474 0-6.316 2.842-6.316 6.316s2.842 6.316 6.316 6.316 6.316-2.842 6.316-6.316-2.842-6.316-6.316-6.316zM39.474 42.632c-1.737 0-3.158-1.421-3.158-3.158s1.421-3.158 3.158-3.158 3.158 1.421 3.158 3.158-1.421 3.158-3.158 3.158z"></path>
<path fill="#61c192" d="M43.105 14.684l-28.421 28.421c-0.632 0.632-0.632 1.579 0 2.211 0.316 0.316 0.632 0.474 1.105 0.474s0.789-0.158 1.105-0.474l28.421-28.421c0.632-0.632 0.632-1.579 0-2.211s-1.579-0.632-2.211 0z"></path>
</svg>
