<?xml version="1.0" encoding="utf-8"?>
<!-- Generator: Adobe Illustrator 18.1.1, SVG Export Plug-In . SVG Version: 6.00 Build 0)  -->
<svg version="1.1" id="Layer_1" xmlns="http://www.w3.org/2000/svg" xmlns:xlink="http://www.w3.org/1999/xlink" x="0px" y="0px"
	 width="20px" height="20px" viewBox="0 0 20 20" enable-background="new 0 0 20 20" xml:space="preserve">
<g>
	<path fill="#61C192" d="M10,0.5c-3.8,0-6.8,3-6.8,6.7C3.2,12,9,19.3,9.2,19.6C9.4,19.9,9.7,20,10,20c0,0,0,0,0,0
		c0.3,0,0.6-0.1,0.7-0.3c0.2-0.3,6.1-6.9,6.1-12.5C16.8,3.5,13.8,0.5,10,0.5z M10,17.4c-1.8-2.5-4.9-7.3-4.9-10.2
		c0-2.6,2.2-4.7,4.8-4.7s4.8,2.1,4.8,4.7C14.8,10.9,11.6,15.4,10,17.4z"/>
	<path fill="#61C192" d="M10,4.2c-1.8,0-3.2,1.5-3.2,3.2s1.5,3.2,3.2,3.2s3.2-1.5,3.2-3.2S11.8,4.2,10,4.2z M10,8.7
		c-0.7,0-1.2-0.6-1.2-1.2S9.3,6.2,10,6.2s1.2,0.6,1.2,1.2S10.7,8.7,10,8.7z"/>
</g>
</svg>
