<?xml version="1.0" encoding="utf-8"?>
<!-- Generator: Adobe Illustrator 18.1.1, SVG Export Plug-In . SVG Version: 6.00 Build 0)  -->
<svg version="1.1" id="Layer_1" xmlns="http://www.w3.org/2000/svg" xmlns:xlink="http://www.w3.org/1999/xlink" x="0px" y="0px"
	 width="20px" height="20px" viewBox="0 0 20 20" enable-background="new 0 0 20 20" xml:space="preserve">
<path fill="#61C192" d="M17.2,6.3c0,0.2,0,0.3,0,0.5c0,4.9-3.7,10.5-10.5,10.5c-2.1,0-4-0.6-5.7-1.7c0.3,0,0.6,0.1,0.9,0.1
	c1.7,0,3.3-0.6,4.6-1.6c-1.6,0-3-1.1-3.4-2.6c0.2,0,0.5,0.1,0.7,0.1c0.3,0,0.7,0,1-0.1c-1.7-0.3-3-1.8-3-3.6v0
	c0.5,0.3,1.1,0.4,1.7,0.5c-1-0.7-1.6-1.8-1.6-3.1c0-0.7,0.2-1.3,0.5-1.9c1.8,2.2,4.5,3.7,7.6,3.9C9.8,7,9.8,6.7,9.8,6.4
	c0-2,1.7-3.7,3.7-3.7c1.1,0,2,0.4,2.7,1.2C17,3.7,17.8,3.4,18.5,3c-0.3,0.9-0.9,1.6-1.6,2c0.7-0.1,1.5-0.3,2.1-0.6
	C18.5,5.2,17.9,5.8,17.2,6.3z"/>
</svg>
