<?xml version="1.0" encoding="utf-8"?>
<!-- Generator: Adobe Illustrator 18.1.1, SVG Export Plug-In . SVG Version: 6.00 Build 0)  -->
<svg version="1.1" id="Layer_1" xmlns="http://www.w3.org/2000/svg" xmlns:xlink="http://www.w3.org/1999/xlink" x="0px" y="0px"
	 width="20px" height="20px" viewBox="0 0 20 20" enable-background="new 0 0 20 20" xml:space="preserve">
<path fill="#61C192" d="M19.4,9.1l-18-9C1-0.1,0.4,0.1,0.1,0.6s0,1.1,0.4,1.3L16.8,10L2,17.4V10c0-0.6-0.4-1-1-1s-1,0.4-1,1v9
	c0,0.3,0.2,0.7,0.5,0.9C0.6,19.9,0.8,20,1,20c0.2,0,0.3,0,0.4-0.1l18-9c0.3-0.2,0.6-0.5,0.6-0.9S19.8,9.3,19.4,9.1z"/>
</svg>
