<?xml version="1.0" encoding="utf-8"?>
<!-- Generator: Adobe Illustrator 18.1.1, SVG Export Plug-In . SVG Version: 6.00 Build 0)  -->
<svg version="1.1" id="Layer_1" xmlns="http://www.w3.org/2000/svg" xmlns:xlink="http://www.w3.org/1999/xlink" x="0px" y="0px"
	 width="20px" height="20px" viewBox="0 0 20 20" enable-background="new 0 0 20 20" xml:space="preserve">
<path fill="#61C192" d="M8.9,12L3,1h2.7l3.5,7c0.1,0.1,0.1,0.3,0.2,0.4c0.1,0.1,0.1,0.3,0.2,0.4c0,0.1,0.1,0.1,0.1,0.1
	c0,0,0,0.1,0.1,0.1c0.1,0.2,0.2,0.3,0.2,0.5C10,9.7,10,9.9,10.1,10c0.1-0.3,0.3-0.6,0.5-1c0.2-0.3,0.3-0.7,0.5-1.1l3.5-7h2.5
	l-5.9,11.2v7.1H8.9L8.9,12L8.9,12z"/>
</svg>
