<?xml version="1.0" encoding="utf-8"?>
<!-- Generator: Adobe Illustrator 18.1.1, SVG Export Plug-In . SVG Version: 6.00 Build 0)  -->
<svg version="1.1" id="Layer_1" xmlns="http://www.w3.org/2000/svg" xmlns:xlink="http://www.w3.org/1999/xlink" x="0px" y="0px"
	 width="20px" height="20px" viewBox="0 0 20 20" enable-background="new 0 0 20 20" xml:space="preserve">
<path fill="#61C192" d="M-330.8,6.6c0,0.2,0,0.3,0,0.5c0,4.9-3.7,10.5-10.5,10.5c-2.1,0-4-0.6-5.7-1.7c0.3,0,0.6,0.1,0.9,0.1
	c1.7,0,3.3-0.6,4.6-1.6c-1.6,0-3-1.1-3.4-2.6c0.2,0,0.5,0.1,0.7,0.1c0.3,0,0.7,0,1-0.1c-1.7-0.3-3-1.8-3-3.6v0
	c0.5,0.3,1.1,0.4,1.7,0.5c-1-0.7-1.6-1.8-1.6-3.1c0-0.7,0.2-1.3,0.5-1.9c1.8,2.2,4.5,3.7,7.6,3.9c-0.1-0.3-0.1-0.6-0.1-0.8
	c0-2,1.7-3.7,3.7-3.7c1.1,0,2,0.4,2.7,1.2c0.8-0.2,1.6-0.5,2.3-0.9c-0.3,0.9-0.9,1.6-1.6,2c0.7-0.1,1.5-0.3,2.1-0.6
	C-329.5,5.5-330.1,6.1-330.8,6.6z"/>
<path id="f" fill="#61C192" d="M-310.1,19.1v-8.2h2.8l0.4-3.2h-3.2v-2c0-0.9,0.3-1.6,1.6-1.6l1.7,0V1.2c-0.3,0-1.3-0.1-2.5-0.1
	c-2.4,0-4.1,1.5-4.1,4.2v2.4h-2.8v3.2h2.8v8.2H-310.1z"/>
<g>
	<path fill-rule="evenodd" clip-rule="evenodd" fill="#61C192" d="M-286,1c-5.1,0-9.2,4.1-9.2,9.2c0,4.1,2.6,7.5,6.3,8.8
		c0.5,0.1,0.6-0.2,0.6-0.4c0-0.2,0-0.9,0-1.7c-2.6,0.6-3.1-1.1-3.1-1.1c-0.4-1.1-1-1.3-1-1.3c-0.8-0.6,0.1-0.6,0.1-0.6
		c0.9,0.1,1.4,0.9,1.4,0.9c0.8,1.4,2.2,1,2.7,0.8c0.1-0.6,0.3-1,0.6-1.2c-2-0.2-4.2-1-4.2-4.6c0-1,0.4-1.8,0.9-2.5
		c-0.1-0.2-0.4-1.2,0.1-2.4c0,0,0.8-0.2,2.5,0.9c0.7-0.2,1.5-0.3,2.3-0.3s1.6,0.1,2.3,0.3c1.8-1.2,2.5-0.9,2.5-0.9
		c0.5,1.3,0.2,2.2,0.1,2.4c0.6,0.6,0.9,1.5,0.9,2.5c0,3.5-2.2,4.3-4.2,4.6c0.3,0.3,0.6,0.8,0.6,1.7c0,1.2,0,2.2,0,2.5
		c0,0.2,0.2,0.5,0.6,0.4c3.7-1.2,6.3-4.7,6.3-8.8C-276.8,5.2-280.9,1-286,1z"/>
</g>
<g>
	<path fill="#61C192" d="M-255.9,3c-2.7-2.7-5.4,0-5.4,0l-2.7,2.7l-0.2,0.2c1.7-0.5,2.5,0.2,2.5,0.2l1.7-1.7c0,0,1.4-1.4,2.7,0
		c1.4,1.4,0,2.7,0,2.7l-3.6,3.6c-1.4,1.4-2.7,0-2.7,0c-0.7-0.7-0.7-1.3-0.7-1.3l-1.5,1.5c0,0,0.3,0.7,0.8,1.2c2.7,2.7,5.4,0,5.4,0
		l3.6-3.6C-255.9,8.5-253.2,5.8-255.9,3z"/>
	<path fill="#61C192" d="M-263.8,13.5l-1.7,1.7c0,0-1.4,1.4-2.7,0c-1.4-1.4,0-2.7,0-2.7s2.3-2.3,3.6-3.6c1.4-1.4,2.7,0,2.7,0
		c0.7,0.7,0.7,1.3,0.7,1.3l1.5-1.5c0,0-0.3-0.7-0.8-1.2c-2.7-2.7-5.4,0-5.4,0l-3.6,3.6c0,0-2.7,2.7,0,5.4c2.7,2.7,5.4,0,5.4,0
		l2.7-2.7l0.2-0.2C-263,14.2-263.8,13.5-263.8,13.5z"/>
</g>
<path fill="#61C192" d="M-229,13h-4V7h4c0.6,0,1-0.4,1-1s-0.4-1-1-1h-4V1c0-0.6-0.4-1-1-1s-1,0.4-1,1v4h-6V1c0-0.6-0.4-1-1-1
	s-1,0.4-1,1v4h-4c-0.6,0-1,0.4-1,1s0.4,1,1,1h4v6h-4c-0.6,0-1,0.4-1,1s0.4,1,1,1h4v4c0,0.6,0.4,1,1,1s1-0.4,1-1v-4h6v4
	c0,0.6,0.4,1,1,1s1-0.4,1-1v-4h4c0.6,0,1-0.4,1-1S-228.4,13-229,13z M-241,13V7h6v6H-241z"/>
<path fill="#61C192" d="M-213.6,9.8l8.3-8.3c0.4-0.4,0.4-1,0-1.4s-1-0.4-1.4,0l-8.7,8.7h-8.6c-0.6,0-1,0.4-1,1s0.4,1,1,1h8.6
	l8.7,8.7c0.2,0.2,0.5,0.3,0.7,0.3s0.5-0.1,0.7-0.3c0.4-0.4,0.4-1,0-1.4L-213.6,9.8z"/>
<path fill="#61C192" d="M-181.3,8.9l-18-9c-0.5-0.2-1.1,0-1.3,0.4s0,1.1,0.4,1.3l16.2,8.1l-14.8,7.4V9.8c0-0.6-0.4-1-1-1s-1,0.4-1,1
	v9c0,0.3,0.2,0.7,0.5,0.9c0.2,0.1,0.3,0.1,0.5,0.1c0.2,0,0.3,0,0.4-0.1l18-9c0.3-0.2,0.6-0.5,0.6-0.9S-181,9.1-181.3,8.9z"/>
<rect x="-367.5" y="-9.2" fill="#61C192" width="11.5" height="11.5"/>
<rect x="-367.5" y="4.5" fill="#878B8F" width="11.5" height="11.5"/>
<rect x="-367.5" y="18.2" fill="#FFFFFF" width="11.5" height="11.5"/>
<g>
	<path fill="#61C192" d="M-141.8,19.3c-0.6,0-1-0.4-1-1c0-9.4-7.6-17-17-17c-0.6,0-1-0.4-1-1s0.4-1,1-1c10.5,0,19,8.5,19,19
		C-140.8,18.9-141.2,19.3-141.8,19.3z"/>
	<path fill="#61C192" d="M-150.8,19.3h-9c-0.6,0-1-0.4-1-1v-9c0-0.6,0.4-1,1-1c5.5,0,10,4.5,10,10
		C-149.8,18.9-150.2,19.3-150.8,19.3z M-158.8,17.3h6.9c-0.5-3.6-3.3-6.5-6.9-6.9V17.3z"/>
</g>
<g>
	<path fill="#61C192" d="M-101.8,19.3c-0.6,0-1-0.4-1-1v-17h-17c-0.6,0-1-0.4-1-1s0.4-1,1-1h18c0.6,0,1,0.4,1,1v18
		C-100.8,18.9-101.2,19.3-101.8,19.3z"/>
	<path fill="#61C192" d="M-119.8,19.3c-0.3,0-0.5-0.1-0.7-0.3c-0.4-0.4-0.4-1,0-1.4l9-9c0.4-0.4,1-0.4,1.4,0s0.4,1,0,1.4l-9,9
		C-119.2,19.2-119.5,19.3-119.8,19.3z"/>
</g>
<g>
	<path fill="#61C192" d="M-70.8-0.7c-5.5,0-10,4.5-10,10c0,0.6,0.4,1,1,1s1-0.4,1-1c0-4.4,3.6-8,8-8s8,3.6,8,8c0,0.6,0.4,1,1,1
		s1-0.4,1-1C-60.8,3.8-65.2-0.7-70.8-0.7z"/>
	<path fill="#61C192" d="M-65.2,9.3c0-3-2.5-5.5-5.5-5.5s-5.5,2.5-5.5,5.5s2.5,5.5,5.5,5.5S-65.2,12.3-65.2,9.3z M-69.5,6.8
		c0.7,0,1.2,0.6,1.2,1.3s-0.6,1.2-1.2,1.2s-1.2-0.6-1.2-1.2S-70.2,6.8-69.5,6.8z M-74.2,9.3c0-1.5,0.9-2.7,2.2-3.2
		c-0.4,0.6-0.7,1.2-0.7,2c0,1.8,1.5,3.2,3.2,3.2c0.8,0,1.4-0.3,2-0.7c-0.5,1.3-1.8,2.2-3.2,2.2C-72.7,12.8-74.2,11.2-74.2,9.3z"/>
	<path fill="#61C192" d="M-65.1,15c-1.5,1.5-3.5,2.3-5.7,2.3s-4.1-0.8-5.7-2.3c-0.4-0.4-1-0.4-1.4,0c-0.4,0.4-0.4,1,0,1.4
		c1.9,1.9,4.4,2.9,7.1,2.9s5.2-1,7.1-2.9c0.4-0.4,0.4-1,0-1.4C-64.1,14.6-64.7,14.6-65.1,15z"/>
</g>
<g>
	<path fill="#61C192" d="M-31.5,10c0.2,0.2,0.5,0.3,0.7,0.3s0.5-0.1,0.7-0.3l9-9c0.4-0.4,0.4-1,0-1.4s-1-0.4-1.4,0l-8.3,8.3L-39-0.4
		c-0.4-0.4-1-0.4-1.4,0s-0.4,1,0,1.4L-31.5,10z"/>
	<path fill="#61C192" d="M-21.8,17.3h-18c-0.6,0-1,0.4-1,1s0.4,1,1,1h18c0.6,0,1-0.4,1-1S-21.2,17.3-21.8,17.3z"/>
</g>
<g>
	<path fill="#61C192" d="M10,15.5c-0.3,0-0.5-0.1-0.7-0.3l-9-9c-0.4-0.4-0.4-1,0-1.4s1-0.4,1.4,0l8.3,8.3l8.3-8.3
		c0.4-0.4,1-0.4,1.4,0s0.4,1,0,1.4l-9,9C10.5,15.4,10.3,15.5,10,15.5z"/>
</g>
</svg>
