<?xml version="1.0" encoding="utf-8"?>
<!-- Generator: Adobe Illustrator 18.1.1, SVG Export Plug-In . SVG Version: 6.00 Build 0)  -->
<svg version="1.1" id="Layer_1" xmlns="http://www.w3.org/2000/svg" xmlns:xlink="http://www.w3.org/1999/xlink" x="0px" y="0px"
	 width="40.5px" height="40.5px" viewBox="0 0 40.5 40.5" enable-background="new 0 0 40.5 40.5" xml:space="preserve">
<g>
	<linearGradient id="SVGID_1_" gradientUnits="userSpaceOnUse" x1="6.8747" y1="20.2503" x2="29.7467" y2="20.2503">
		<stop  offset="0" style="stop-color:#61C192"/>
		<stop  offset="1" style="stop-color:#61C192;stop-opacity:0"/>
	</linearGradient>
	<path fill="url(#SVGID_1_)" d="M20.2,33.6c-7.4,0-13.4-6-13.4-13.4s6-13.4,13.4-13.4c3.4,0,6.6,1.3,9.1,3.6c0.4,0.4,0.4,1,0.1,1.4
		c-0.4,0.4-1,0.4-1.4,0.1c-2.1-2-4.9-3-7.7-3C14,8.9,8.9,14,8.9,20.3S14,31.6,20.2,31.6c2.9,0,5.7-1.1,7.8-3.1c0.4-0.4,1-0.4,1.4,0
		c0.4,0.4,0.4,1,0,1.4C26.9,32.3,23.7,33.6,20.2,33.6z"/>
</g>
</svg>
