<?xml version="1.0" encoding="utf-8"?>
<!-- Generator: Adobe Illustrator 18.1.1, SVG Export Plug-In . SVG Version: 6.00 Build 0)  -->
<svg version="1.1" id="Layer_1" xmlns="http://www.w3.org/2000/svg" xmlns:xlink="http://www.w3.org/1999/xlink" x="0px" y="0px"
	 width="40.5px" height="40.5px" viewBox="-379 180.5 40.5 40.5" enable-background="new -379 180.5 40.5 40.5"
	 xml:space="preserve">
<g>
	
		<linearGradient id="SVGID_1_" gradientUnits="userSpaceOnUse" x1="-379" y1="202.25" x2="-342.5554" y2="202.25" gradientTransform="matrix(1 0 0 -1 0 403)">
		<stop  offset="0" style="stop-color:#61C192;stop-opacity:0"/>
		<stop  offset="1" style="stop-color:#61C192"/>
	</linearGradient>
	<path fill="url(#SVGID_1_)" d="M-358.8,221c-11.1,0-20.2-9.1-20.2-20.2c0-11.1,9.1-20.3,20.2-20.3c6.3,0,12.1,2.8,16,7.8
		c0.3,0.4,0.3,1.1-0.2,1.4c-0.4,0.4-1,0.3-1.3-0.2c-3.5-4.5-8.7-7-14.4-7c-10.1,0-18.3,8.2-18.3,18.3c0,10.1,8.2,18.2,18.2,18.2
		c5.5,0,10.7-2.5,14.2-6.8c0.3-0.4,1-0.5,1.4-0.1c0.4,0.3,0.5,1,0.1,1.4C-346.9,218.3-352.6,221-358.8,221z"/>
</g>
<g>
	
		<linearGradient id="SVGID_2_" gradientUnits="userSpaceOnUse" x1="-379" y1="202.25" x2="-342.5554" y2="202.25" gradientTransform="matrix(1 0 0 -1 0 403)">
		<stop  offset="0" style="stop-color:#61C192;stop-opacity:0"/>
		<stop  offset="1" style="stop-color:#61C192"/>
	</linearGradient>
	<path fill="url(#SVGID_2_)" d="M-358.8,221c-11.1,0-20.2-9.1-20.2-20.2c0-11.1,9.1-20.3,20.2-20.3c6.3,0,12.1,2.8,16,7.8
		c0.3,0.4,0.3,1.1-0.2,1.4c-0.4,0.4-1,0.3-1.3-0.2c-3.5-4.5-8.7-7-14.4-7c-10.1,0-18.3,8.2-18.3,18.3c0,10.1,8.2,18.2,18.2,18.2
		c5.5,0,10.7-2.5,14.2-6.8c0.3-0.4,1-0.5,1.4-0.1c0.4,0.3,0.5,1,0.1,1.4C-346.9,218.3-352.6,221-358.8,221z"/>
</g>
</svg>
