<?xml version="1.0" encoding="utf-8"?>
<!-- Generator: Adobe Illustrator 18.1.1, SVG Export Plug-In . SVG Version: 6.00 Build 0)  -->
<svg version="1.1" id="Layer_1" xmlns="http://www.w3.org/2000/svg" xmlns:xlink="http://www.w3.org/1999/xlink" x="0px" y="0px"
	 width="177.8px" height="34.6px" viewBox="0 0 177.8 34.6" enable-background="new 0 0 177.8 34.6" xml:space="preserve">
<g>
	<g>
		
			<linearGradient id="SVGID_1_" gradientUnits="userSpaceOnUse" x1="355.9616" y1="-129.9985" x2="386.8918" y2="-129.9985" gradientTransform="matrix(4.489700e-11 1 -1 4.489700e-11 -111.9985 -355.9616)">
			<stop  offset="0" style="stop-color:#61C192"/>
			<stop  offset="1" style="stop-color:#61C192;stop-opacity:0"/>
		</linearGradient>
		<path fill="url(#SVGID_1_)" d="M30.2,30.9c-0.2,0-0.4-0.1-0.5-0.2c-0.3-0.3-0.3-0.7,0-1c3.2-3.2,5-7.7,4.8-12.3
			c-0.2-4.6-2.2-8.9-5.7-11.9c-6.2-5.4-15.5-5.4-21.7,0c-3.5,3.1-5.5,7.3-5.7,11.9C1.3,22,3.1,26.5,6.3,29.7c0.3,0.3,0.3,0.7,0,1
			c-0.3,0.3-0.7,0.3-1,0C1.8,27.2-0.2,22.3,0,17.4c0.2-5,2.4-9.6,6.2-13c6.7-5.9,16.9-5.9,23.6,0c3.8,3.3,6,7.9,6.2,13
			c0.2,5-1.7,9.8-5.3,13.4C30.6,30.9,30.4,30.9,30.2,30.9z"/>
		<linearGradient id="SVGID_2_" gradientUnits="userSpaceOnUse" x1="24.2063" y1="27.6453" x2="35.6681" y2="27.6453">
			<stop  offset="0" style="stop-color:#8FCFAC"/>
			<stop  offset="1" style="stop-color:#61C192"/>
		</linearGradient>
		<path fill="url(#SVGID_2_)" d="M24.9,34.6c-0.1,0-0.3,0-0.4-0.1c-0.2-0.1-0.3-0.4-0.3-0.6V21.5c0-0.4,0.3-0.7,0.7-0.7h10
			c0.2,0,0.4,0.1,0.6,0.3c0.1,0.2,0.2,0.4,0.1,0.6c-1.2,5.7-5.1,10.6-10.4,12.9C25.1,34.5,25,34.6,24.9,34.6z M25.6,22.2v10.5
			c4.2-2.2,7.2-6,8.4-10.5H25.6z"/>
		<linearGradient id="SVGID_3_" gradientUnits="userSpaceOnUse" x1="0.3604" y1="27.6453" x2="11.8223" y2="27.6453">
			<stop  offset="0" style="stop-color:#8FCFAC"/>
			<stop  offset="1" style="stop-color:#61C192"/>
		</linearGradient>
		<path fill="url(#SVGID_3_)" d="M11.1,34.6c-0.1,0-0.2,0-0.3-0.1c-5.4-2.3-9.3-7.2-10.4-12.9c0-0.2,0-0.4,0.1-0.6
			c0.1-0.2,0.3-0.3,0.6-0.3h10c0.4,0,0.7,0.3,0.7,0.7v12.4c0,0.2-0.1,0.5-0.3,0.6C11.4,34.5,11.2,34.6,11.1,34.6z M2,22.2
			c1.2,4.5,4.2,8.4,8.4,10.5V22.2H2z"/>
	</g>
	<linearGradient id="SVGID_4_" gradientUnits="userSpaceOnUse" x1="5.7599" y1="12.2483" x2="30.2401" y2="12.2483">
		<stop  offset="0" style="stop-color:#8FCFAC"/>
		<stop  offset="1" style="stop-color:#61C192"/>
	</linearGradient>
	<path fill="url(#SVGID_4_)" d="M29.5,18.7c-0.4,0-0.7-0.3-0.7-0.7c0-6-4.8-10.8-10.8-10.8S7.2,12.1,7.2,18c0,0.4-0.3,0.7-0.7,0.7
		S5.8,18.4,5.8,18c0-6.7,5.5-12.2,12.2-12.2S30.2,11.3,30.2,18C30.2,18.4,29.9,18.7,29.5,18.7z"/>
</g>
<g>
	<path fill="#FFFFFF" d="M55.7,25.9h-3.8V8.6h4.3c1.7,0,2.8,0.2,3.8,0.8c1.7,0.9,2.7,2.8,2.7,4.9c0,2.1-1,3.9-2.7,4.9
		c-1,0.5-2.1,0.8-3.8,0.8h-0.4V25.9z M56.3,16.4c1.8,0,2.5-0.6,2.5-2.2c0-1.5-0.8-2.1-2.5-2.1h-0.7v4.3H56.3z"/>
	<path fill="#FFFFFF" d="M83.2,17.3c0,5-4.2,9.1-9.3,9.1c-5.1,0-9.2-4.2-9.2-9.3c0-4.8,4.3-9,9.2-9C79,8.2,83.2,12.3,83.2,17.3z
		 M68.6,17.4c0,2.9,2.5,5.4,5.4,5.4c3,0,5.4-2.5,5.4-5.5c0-3.1-2.4-5.5-5.4-5.5C70.9,11.8,68.6,14.2,68.6,17.4z"/>
	<path fill="#FFFFFF" d="M90.2,8.6c5.8,0,9.5,3.4,9.5,8.7c0,5.3-3.7,8.7-9.5,8.7h-4.3V8.6H90.2z M89.8,22.4h0.5
		c3.5,0,5.6-1.9,5.6-5.1c0-3.2-2.1-5.1-5.6-5.1h-0.5V22.4z"/>
	<path fill="#FFFFFF" d="M115.7,14.1c-1.5-1.7-2.7-2.4-4.4-2.4c-3,0-5.3,2.4-5.3,5.5c0,3,2.4,5.5,5.4,5.5c1.7,0,2.9-0.6,4.4-2.4
		l2.7,2.5c-2.3,2.4-4.4,3.4-7.1,3.4c-5.1,0-9.3-4.1-9.3-9.1c0-5,4.1-9.1,9.3-9.1c2.7,0,4.8,1,7,3.4L115.7,14.1z"/>
	<path fill="#FFFFFF" d="M125.1,22.1l-1.3,3.8h-4.1l6.5-17.3h4.4l6.5,17.3H133l-1.3-3.8H125.1z M128.4,12.7l-2,5.8h4.1L128.4,12.7z"
		/>
	<path fill="#FFFFFF" d="M147,13.7c-1-1.6-1.5-2-2.5-2c-1,0-1.8,0.8-1.8,1.7c0,0.6,0.6,1.1,1.7,1.5l1.6,0.6c3,1.1,4.4,2.7,4.4,5.1
		c0,3.2-2.7,5.7-6.2,5.7c-1.9,0-3.7-0.8-4.7-2.1c-0.7-0.9-1.1-1.7-1.4-3.3l3.8-1l0.1,0.2l0.1,0.4c0.4,1.5,1.1,2.2,2.3,2.2
		c1.2,0,2.2-0.9,2.2-2.1c0-0.8-0.5-1.2-2.2-1.9l-1.5-0.6c-2.7-1-4-2.6-4-4.8c0-3,2.5-5.3,5.8-5.3c2.4,0,4.1,1,5.6,3.5L147,13.7z"/>
	<path fill="#FFFFFF" d="M164.4,12.2h-4.1v13.8h-3.8V12.2h-4.1V8.6h12V12.2z"/>
	<path fill="#FFFFFF" d="M174.5,13.7c-1-1.6-1.5-2-2.5-2c-1,0-1.8,0.8-1.8,1.7c0,0.6,0.6,1.1,1.7,1.5l1.6,0.6c3,1.1,4.4,2.7,4.4,5.1
		c0,3.2-2.7,5.7-6.2,5.7c-1.9,0-3.7-0.8-4.7-2.1c-0.7-0.9-1.1-1.7-1.4-3.3l3.8-1l0.1,0.2l0.1,0.4c0.4,1.5,1.1,2.2,2.3,2.2
		c1.2,0,2.2-0.9,2.2-2.1c0-0.8-0.5-1.2-2.2-1.9l-1.5-0.6c-2.7-1-4-2.6-4-4.8c0-3,2.5-5.3,5.8-5.3c2.4,0,4.1,1,5.6,3.5L174.5,13.7z"
		/>
</g>
</svg>
