<svg xmlns="http://www.w3.org/2000/svg" xmlns:xlink="http://www.w3.org/1999/xlink" viewBox="0 0 608 272"><defs><style>.cls-1,.cls-2,.cls-3,.cls-4,.cls-5{fill:#010101}.cls-1,.cls-19,.cls-20,.cls-31,.cls-6,.cls-9{opacity:.25}.cls-13,.cls-2,.cls-24,.cls-32,.cls-7{opacity:0}.cls-10,.cls-12,.cls-25,.cls-3,.cls-30,.cls-33,.cls-36,.cls-8{opacity:.5}.cls-14,.cls-15,.cls-17,.cls-22,.cls-27,.cls-5{opacity:.75}.cls-6{fill:url(#linear-gradient)}.cls-7{fill:url(#linear-gradient-2)}.cls-8{fill:url(#linear-gradient-3)}.cls-9{fill:url(#linear-gradient-4)}.cls-10{fill:url(#linear-gradient-5)}.cls-11{fill:url(#linear-gradient-6)}.cls-12{fill:url(#linear-gradient-7)}.cls-13{fill:url(#linear-gradient-8)}.cls-14{fill:url(#linear-gradient-9)}.cls-15{fill:url(#linear-gradient-10)}.cls-16{fill:url(#linear-gradient-11)}.cls-17{fill:url(#linear-gradient-12)}.cls-18{fill:url(#linear-gradient-13)}.cls-19{fill:url(#linear-gradient-14)}.cls-20{fill:url(#linear-gradient-15)}.cls-21{fill:url(#linear-gradient-16)}.cls-22{fill:url(#linear-gradient-17)}.cls-23{fill:url(#linear-gradient-18)}.cls-24{fill:url(#linear-gradient-19)}.cls-25{fill:url(#linear-gradient-20)}.cls-26{fill:url(#linear-gradient-21)}.cls-27{fill:url(#linear-gradient-22)}.cls-28{fill:url(#linear-gradient-23)}.cls-29{fill:url(#linear-gradient-24)}.cls-30{fill:url(#linear-gradient-25)}.cls-31{fill:url(#linear-gradient-26)}.cls-32{fill:url(#linear-gradient-27)}.cls-33{fill:url(#linear-gradient-28)}.cls-34{opacity:.1}.cls-35{mask:url(#mask)}.cls-36,.cls-38{fill:#fff}.cls-37{mask:url(#mask-2)}.cls-39{filter:url(#luminosity-invert)}</style><linearGradient id="linear-gradient" x1="465.85" y1="116.34" x2="571.61" y2="116.34" gradientUnits="userSpaceOnUse"><stop offset="0" stop-color="#fff"/><stop offset="1" stop-color="#231f20"/></linearGradient><linearGradient id="linear-gradient-2" x1="63.66" y1="51.17" x2="545.52" y2="51.17" xlink:href="#linear-gradient"/><linearGradient id="linear-gradient-3" x1="509.36" y1="61.54" x2="571.61" y2="61.54" xlink:href="#linear-gradient"/><linearGradient id="linear-gradient-4" x1="86.68" y1="111.15" x2="152.02" y2="111.15" xlink:href="#linear-gradient"/><linearGradient id="linear-gradient-5" x1="86.68" y1="160.85" x2="152.02" y2="160.85" xlink:href="#linear-gradient"/><linearGradient id="linear-gradient-6" x1="44.62" y1="177.7" x2="152.02" y2="177.7" xlink:href="#linear-gradient"/><linearGradient id="linear-gradient-7" x1="44.62" y1="76.02" x2="152.02" y2="76.02" xlink:href="#linear-gradient"/><linearGradient id="linear-gradient-8" x1="564.56" y1="205.67" x2="608" y2="205.67" xlink:href="#linear-gradient"/><linearGradient id="linear-gradient-9" x1="548.15" y1="245.7" x2="608" y2="245.7" xlink:href="#linear-gradient"/><linearGradient id="linear-gradient-10" x1="143.33" y1="141.18" x2="513.23" y2="141.18" xlink:href="#linear-gradient"/><linearGradient id="linear-gradient-11" x1="63.66" y1="195.98" x2="501.12" y2="195.98" xlink:href="#linear-gradient"/><linearGradient id="linear-gradient-12" x1="152.02" y1="76.1" x2="513.23" y2="76.1" xlink:href="#linear-gradient"/><linearGradient id="linear-gradient-13" x1="143.33" y1="111.15" x2="513.23" y2="111.15" xlink:href="#linear-gradient"/><linearGradient id="linear-gradient-14" y1="221" x2="501.12" y2="221" xlink:href="#linear-gradient"/><linearGradient id="linear-gradient-15" y1="157.09" x2="86.68" y2="157.09" xlink:href="#linear-gradient"/><linearGradient id="linear-gradient-16" y1="93.5" x2="86.68" y2="93.5" xlink:href="#linear-gradient"/><linearGradient id="linear-gradient-17" y1="26.3" x2="63.66" y2="26.3" xlink:href="#linear-gradient"/><linearGradient id="linear-gradient-18" x1="499.17" y1="263.98" x2="608" y2="263.98" xlink:href="#linear-gradient"/><linearGradient id="linear-gradient-19" x1="1.18" y1="8.02" x2="63.66" y2="8.02" xlink:href="#linear-gradient"/><linearGradient id="linear-gradient-20" x1="436.62" y1="245.7" x2="564.56" y2="245.7" xlink:href="#linear-gradient"/><linearGradient id="linear-gradient-21" x1="545.52" y1="53.53" x2="608" y2="53.53" xlink:href="#linear-gradient"/><linearGradient id="linear-gradient-22" x1="465.85" y1="177.7" x2="608" y2="177.7" xlink:href="#linear-gradient"/><linearGradient id="linear-gradient-23" x1="465.85" y1="141.99" x2="608" y2="141.99" xlink:href="#linear-gradient"/><linearGradient id="linear-gradient-24" x1="436.62" y1="221" x2="564.56" y2="221" xlink:href="#linear-gradient"/><linearGradient id="linear-gradient-25" x1="571.61" y1="111.6" x2="608" y2="111.6" xlink:href="#linear-gradient"/><linearGradient id="linear-gradient-26" x1="63.66" y1="8.02" x2="608" y2="8.02" xlink:href="#linear-gradient"/><linearGradient id="linear-gradient-27" y1="245.46" x2="63.66" y2="245.46" xlink:href="#linear-gradient"/><linearGradient id="linear-gradient-28" x1="44.62" y1="220.83" x2="152.02" y2="220.83" xlink:href="#linear-gradient"/><filter id="luminosity-invert" filterUnits="userSpaceOnUse" color-interpolation-filters="sRGB"><feColorMatrix values="-1 0 0 0 1 0 -1 0 0 1 0 0 -1 0 1 0 0 0 1 0"/></filter><mask id="mask" x="0" y="0" width="608" height="272" maskUnits="userSpaceOnUse"><g class="cls-39"><path class="cls-1" d="M513.23 96.67L465.85 136l105.76-28.94-2.65-.48-55.73-9.91z"/><path class="cls-2" d="M509.36 55.53l36.16-39.5H63.66l88.36 70.28 357.34-30.78z"/><path class="cls-3" d="M513.23 96.67l55.73 9.91 2.65.48-26.09-91.03-36.16 39.5 3.87 41.14z"/><path class="cls-1" d="M152.02 86.31L86.68 136h56.65l8.69-49.69z"/><path class="cls-3" d="M143.33 136H86.68l65.34 49.69-8.69-49.69z"/><path class="cls-4" d="M86.68 136l-42.06 83.41 107.4-33.72L86.68 136z"/><path class="cls-3" d="M63.66 16.03L44.62 52.59 86.68 136l65.34-49.69-88.36-70.28z"/><path class="cls-2" d="M608 234.4v-57.47l-43.44 42.48L608 234.4z"/><path class="cls-5" d="M548.15 255.97L608 272v-37.6l-43.44-14.99-16.41 36.56zM143.33 136l8.69 49.69L465.85 136l47.38-39.33L143.33 136z"/><path class="cls-4" d="M63.66 255.97L501.13 170l-35.28-34-313.83 49.69-88.36 70.28z"/><path class="cls-5" d="M509.36 55.53L152.02 86.31l361.21 10.36-3.87-41.14z"/><path class="cls-4" d="M152.02 86.31L143.33 136l369.9-39.33-361.21-10.36z"/><path class="cls-1" d="M63.66 255.97L0 271.51v.49h436.62l64.51-102-437.47 85.97zm-19.04-36.56L86.68 136 0 94.64v124.91l44.62-.14z"/><path class="cls-4" d="M44.62 52.59L1.18 51 0 51.06v43.58L86.68 136 44.62 52.59z"/><path class="cls-5" d="M44.62 52.59l19.04-36.56L1.18 0H0v51.06L1.18 51l43.44 1.59z"/><path class="cls-4" d="M548.15 255.97L499.18 272H608l-59.85-16.03z"/><path class="cls-2" d="M63.66 0H1.18l62.48 16.03V0z"/><path class="cls-3" d="M564.56 219.41L436.62 272h62.56l48.97-16.03 16.41-36.56z"/><path class="cls-4" d="M571.61 107.06L608 74.1V0l-62.48 16.03 26.09 91.03z"/><path class="cls-5" d="M465.85 136l35.28 34 63.43 49.41L608 176.93l-35.57-10.24L465.85 136z"/><path class="cls-4" d="M465.85 136l106.58 30.69L608 176.93v-27.82l-36.39-42.05L465.85 136zm-29.23 136l127.94-52.59L501.13 170l-64.51 102z"/><path class="cls-3" d="M608 149.11V74.1l-36.39 32.96L608 149.11z"/><path class="cls-1" d="M545.52 16.03L608 0H63.66v16.03h481.86z"/><path class="cls-2" d="M0 219.55v51.96l63.66-15.54-19.04-36.56-44.62.14z"/><path class="cls-3" d="M44.62 219.41l19.04 36.56 88.36-70.28-107.4 33.72z"/></g></mask><mask id="mask-2" x="0" y="0" width="608" height="272" maskUnits="userSpaceOnUse"><g class="cls-39"><path class="cls-6" d="M513.23 96.67L465.85 136l105.76-28.94-2.65-.48-55.73-9.91z"/><path class="cls-7" d="M509.36 55.53l36.16-39.5H63.66l88.36 70.28 357.34-30.78z"/><path class="cls-8" d="M513.23 96.67l55.73 9.91 2.65.48-26.09-91.03-36.16 39.5 3.87 41.14z"/><path class="cls-9" d="M152.02 86.31L86.68 136h56.65l8.69-49.69z"/><path class="cls-10" d="M143.33 136H86.68l65.34 49.69-8.69-49.69z"/><path class="cls-11" d="M86.68 136l-42.06 83.41 107.4-33.72L86.68 136z"/><path class="cls-12" d="M63.66 16.03L44.62 52.59 86.68 136l65.34-49.69-88.36-70.28z"/><path class="cls-13" d="M608 234.4v-57.47l-43.44 42.48L608 234.4z"/><path class="cls-14" d="M548.15 255.97L608 272v-37.6l-43.44-14.99-16.41 36.56z"/><path class="cls-15" d="M143.33 136l8.69 49.69L465.85 136l47.38-39.33L143.33 136z"/><path class="cls-16" d="M63.66 255.97L501.13 170l-35.28-34-313.83 49.69-88.36 70.28z"/><path class="cls-17" d="M509.36 55.53L152.02 86.31l361.21 10.36-3.87-41.14z"/><path class="cls-18" d="M152.02 86.31L143.33 136l369.9-39.33-361.21-10.36z"/><path class="cls-19" d="M63.66 255.97L0 271.51v.49h436.62l64.51-102-437.47 85.97z"/><path class="cls-20" d="M44.62 219.41L86.68 136 0 94.64v124.91l44.62-.14z"/><path class="cls-21" d="M44.62 52.59L1.18 51 0 51.06v43.58L86.68 136 44.62 52.59z"/><path class="cls-22" d="M44.62 52.59l19.04-36.56L1.18 0H0v51.06L1.18 51l43.44 1.59z"/><path class="cls-23" d="M548.15 255.97L499.18 272H608l-59.85-16.03z"/><path class="cls-24" d="M63.66 0H1.18l62.48 16.03V0z"/><path class="cls-25" d="M564.56 219.41L436.62 272h62.56l48.97-16.03 16.41-36.56z"/><path class="cls-26" d="M571.61 107.06L608 74.1V0l-62.48 16.03 26.09 91.03z"/><path class="cls-27" d="M465.85 136l35.28 34 63.43 49.41L608 176.93l-35.57-10.24L465.85 136z"/><path class="cls-28" d="M465.85 136l106.58 30.69L608 176.93v-27.82l-36.39-42.05L465.85 136z"/><path class="cls-29" d="M436.62 272l127.94-52.59L501.13 170l-64.51 102z"/><path class="cls-30" d="M608 149.11V74.1l-36.39 32.96L608 149.11z"/><path class="cls-31" d="M545.52 16.03L608 0H63.66v16.03h481.86z"/><path class="cls-32" d="M0 219.55v51.96l63.66-15.54-19.04-36.56-44.62.14z"/><path class="cls-33" d="M44.62 219.41l19.04 36.56 88.36-70.28-107.4 33.72z"/></g></mask></defs><title>mosiac</title><g id="Layer_2" data-name="Layer 2"><g class="cls-34" id="Layer_1-2" data-name="Layer 1"><path class="cls-35 cls-36" d="M0 0h608v272H0z"/><path class="cls-37 cls-38" d="M0 0h608v272H0z"/></g></g></svg>