<?xml version="1.0" encoding="utf-8"?>
<!-- Generator: Adobe Illustrator 18.1.1, SVG Export Plug-In . SVG Version: 6.00 Build 0)  -->
<svg version="1.1" id="Layer_1" xmlns="http://www.w3.org/2000/svg" xmlns:xlink="http://www.w3.org/1999/xlink" x="0px" y="0px"
	 width="20px" height="20px" viewBox="0 0 20 20" enable-background="new 0 0 20 20" xml:space="preserve">
<g>
	<polygon fill="#61C192" points="8.5,13 8.5,6.1 7.7,6.1 6.9,6.9 6.9,7.8 7.7,7.1 7.7,13 	"/>
	<path fill="#61C192" d="M12.3,8.3c-0.4,0-0.7,0.2-0.8,0.4V7h2V6.1h-2.8v3.6h0.8c0.1-0.3,0.3-0.5,0.7-0.5c0.6,0,0.8,0.6,0.8,1.7
		c0,1.1-0.3,1.4-0.7,1.4c-0.4,0-0.7-0.3-0.8-0.9h-0.8c0.1,1,0.7,1.7,1.6,1.7c1.1,0,1.6-0.8,1.6-2.2C13.7,9.2,13.2,8.3,12.3,8.3z"/>
	<path fill="#61C192" d="M10.1,18L10,18c-4.4,0-8-3.6-8-8s3.6-8,8-8c0.6,0,1-0.4,1-1s-0.4-1-1-1C4.5,0,0,4.5,0,10
		c0,5.5,4.5,10,10,10l0.1,0c0.6,0,1-0.5,1-1S10.7,18,10.1,18z"/>
	<path fill="#61C192" d="M18.3,13.5c-0.5-0.3-1.1-0.1-1.4,0.4l-0.1,0.2c-0.3,0.5-0.1,1.1,0.4,1.4c0.2,0.1,0.3,0.1,0.5,0.1
		c0.3,0,0.7-0.2,0.9-0.5l0.1-0.2C19,14.4,18.8,13.8,18.3,13.5z"/>
	<path fill="#61C192" d="M14.1,16.9L13.9,17c-0.5,0.3-0.6,0.9-0.4,1.4c0.2,0.3,0.5,0.5,0.9,0.5c0.2,0,0.3,0,0.5-0.1l0.2-0.1
		c0.5-0.3,0.6-0.9,0.3-1.4C15.2,16.7,14.6,16.6,14.1,16.9z"/>
	<path fill="#61C192" d="M19,9c-0.6,0-1,0.4-1,1l0,0.1c0,0.6,0.4,1,1,1c0,0,0,0,0,0c0.5,0,1-0.4,1-1l0-0.1C20,9.4,19.6,9,19,9z"/>
</g>
</svg>
