<svg xmlns="http://www.w3.org/2000/svg" viewBox="0 0 36 36"><defs><style>.cls-1{fill:#121921;opacity:.5}.cls-2{fill:#61c192}.cls-3,.cls-4{fill:none;stroke:#61c192;stroke-linecap:round;stroke-linejoin:round;stroke-width:2px}.cls-4{stroke-dasharray:.22 4.48}</style></defs><title>podcast-next-fifteen</title><g id="Layer_2" data-name="Layer 2"><g id="Layer_1-2" data-name="Layer 1"><circle class="cls-1" cx="18" cy="18" r="18"/><path class="cls-2" d="M16.54 21h-.86v-5.9l-.79.71v-.94l.79-.76h.86zm2.9-3.3h-.79v-3.59h2.84V15h-2v1.77a1.06 1.06 0 0 1 .85-.41c.9 0 1.4.86 1.4 2.53 0 1.43-.57 2.23-1.64 2.23a1.67 1.67 0 0 1-1.56-1.7h.84c.11.58.32.92.77.92s.73-.37.73-1.45-.18-1.67-.76-1.67c-.37-.03-.54.21-.68.48z"/><path class="cls-3" d="M18 9a9 9 0 0 0 0 18m0 0h.13"/><path class="cls-4" d="M22.41 25.85a9 9 0 0 0 4.29-5.51"/><path class="cls-3" d="M27 18.13V18"/></g></g></svg>