<?xml version="1.0" encoding="utf-8"?>
<!-- Generator: Adobe Illustrator 18.1.1, SVG Export Plug-In . SVG Version: 6.00 Build 0)  -->
<svg version="1.1" id="Layer_1" xmlns="http://www.w3.org/2000/svg" xmlns:xlink="http://www.w3.org/1999/xlink" x="0px" y="0px"
	 width="20px" height="20px" viewBox="0 0 20 20" enable-background="new 0 0 20 20" xml:space="preserve">
<g>
	<path fill="#61C192" d="M7.5,13H6.7V7.1L5.9,7.8V6.9l0.8-0.8h0.9V13z"/>
	<path fill="#61C192" d="M10.4,9.7H9.6V6.1h2.8V7h-2v1.8c0.2-0.2,0.5-0.4,0.8-0.4c0.9,0,1.4,0.9,1.4,2.5c0,1.4-0.6,2.2-1.6,2.2
		c-0.9,0-1.5-0.7-1.6-1.7h0.8c0.1,0.6,0.3,0.9,0.8,0.9c0.5,0,0.7-0.4,0.7-1.4c0-1.1-0.2-1.7-0.8-1.7C10.7,9.2,10.6,9.4,10.4,9.7z"/>
</g>
<g>
	<g>
		<path fill="#61C192" d="M10,20c-0.6,0-1-0.4-1-1s0.4-1,1-1c4.4,0,8-3.6,8-8s-3.6-8-8-8C9.4,2,9,1.6,9,1s0.4-1,1-1
			c5.5,0,10,4.5,10,10C20,15.5,15.5,20,10,20z"/>
	</g>
	<g>
		<g>
			<path fill="#61C192" d="M10,20l-0.1,0c-0.6,0-1-0.5-1-1c0-0.6,0.5-1,1-1l0.1,0c0.6,0,1,0.4,1,1S10.6,20,10,20z"/>
		</g>
		<g>
			<path fill="#61C192" d="M5.6,18.8c-0.2,0-0.3,0-0.5-0.1l-0.2-0.1c-0.5-0.3-0.6-0.9-0.4-1.4c0.3-0.5,0.9-0.6,1.4-0.4L6.1,17
				c0.5,0.3,0.6,0.9,0.4,1.4C6.3,18.7,5.9,18.8,5.6,18.8z M2.3,15.6c-0.3,0-0.7-0.2-0.9-0.5l-0.1-0.2c-0.3-0.5-0.1-1.1,0.4-1.4
				c0.5-0.3,1.1-0.1,1.4,0.4l0.1,0.2c0.3,0.5,0.1,1.1-0.4,1.4C2.6,15.6,2.4,15.6,2.3,15.6z"/>
		</g>
		<g>
			<path fill="#61C192" d="M1,11.1c-0.5,0-1-0.4-1-1L0,10c0-0.6,0.4-1,1-1s1,0.4,1,1l0,0.1C2,10.7,1.6,11.1,1,11.1
				C1,11.1,1,11.1,1,11.1z"/>
		</g>
	</g>
</g>
</svg>
