<svg xmlns="http://www.w3.org/2000/svg" viewBox="0 0 171 171"><defs><style>.cls-1{fill:#121921}.cls-2{fill:url(#New_Gradient_Swatch_9)}.cls-3{fill:#fff}.cls-4{fill:url(#New_Gradient_Swatch_7)}.cls-5{fill:url(#linear-gradient)}</style><linearGradient id="New_Gradient_Swatch_9" x1="32.66" y1="32.66" x2="138.78" y2="138.78" gradientUnits="userSpaceOnUse"><stop offset="0" stop-color="#bab2aa"/><stop offset="1" stop-color="#a0968c"/></linearGradient><linearGradient id="New_Gradient_Swatch_7" x1="144.28" y1="18.7" x2="158.02" y2="18.7" gradientUnits="userSpaceOnUse"><stop offset="0" stop-color="#a0968c" stop-opacity="0"/><stop offset="1" stop-color="#a0968c"/></linearGradient><linearGradient id="linear-gradient" x1="146.87" y1="18.7" x2="156.18" y2="18.7" gradientUnits="userSpaceOnUse"><stop offset="0" stop-color="#a0968c"/><stop offset="1" stop-color="#a0968c" stop-opacity="0"/></linearGradient></defs><title>the-changelog-cover-art</title><g id="Layer_2" data-name="Layer 2"><g id="Layer_1-2" data-name="Layer 1"><path class="cls-1" d="M0 0h171v171H0z"/><path class="cls-2" d="M151.93 58.32l-13.1-25.58a.3.3 0 0 0-.13-.13l-25.54-13.08-27.35-8.83a.29.29 0 0 0-.18 0l-27.3 8.81-25.59 13.1a.3.3 0 0 0-.13.13L19.53 58.28 10.7 85.63a.3.3 0 0 0 0 .18l8.81 27.3 13.1 25.59a.3.3 0 0 0 .13.13l25.38 13a.29.29 0 0 0 .2.25l27.3 8.81h.18l27.31-8.81a.29.29 0 0 0 .2-.25l25.38-13a.3.3 0 0 0 .13-.13l13.08-25.54 8.81-27.3a.3.3 0 0 0 0-.18zM132 103.75l-.35.41L124 87l-.44-1h23.64zm-93.28-35.2l1.08-1.26 8.08 18.11H24.24zm3.73 60.85l9.79-9.79 6.93-6.93 7.11 18.54zm24.3-88.71l5.08 12.26 6 14.49-7.92 2.05-4.81-4.81-5.46-5.46 2-5.29zM129 42l-9.79 9.79-6.93 6.93-7.11-18.54zm-27 59.5l2-7.88 4.94 2 2.5 1 .18 6.75.21 8-8-8zm2.28-8.47l4.1-7.03h14l-10.71 10.15-2.5-1zm.26-14.25l17 6.61h-13.16zm-1-.51v.05l4.32 7.34-4.32 7.34-2.14 8.25-8.25 2.14h-.05l-7.34 4.32-7.34-4.32-8.25-2.14L68.03 93v-.05l-4.32-7.34 4.32-7.34 2.14-8.25 8.25-2.14 7.34-4.32 7.34 4.32 8.25 2.14zM69.91 102l7.92 2-2 4.94-1 2.5-6.75.18-8 .21 8-8zm8.47 2.28l7.05 4.15v14l-10.14-10.76 1-2.5zm14.25.26l-6.61 17v-13.15zm-32.9 7.94l15.1-.4 10.4 11-18.33 8.08-5.72-14.93zm-4.52-51.3L59 59.72l.4 15.1-11 10.39-8.11-18.31zm14.27 8.73l-2.05 7.92-4.94-2-2.5-1-.17-6.83-.21-8 8 8zm-2.28 8.47l-4.15 7h-14l10.72-10.09 2.5 1zm-.26 14.25L49.93 86h13.13zm28.17-30.36l-2 4.94-7-4.15v-14l10.04 10.71zm-16.3 4.68l6.61-17v13.11zm22.72 2.54l-7.92-2.05 2-4.94 1-2.5 6.75-.18 8-.21-8 8zm18.08-17.24l9.79-9.79 1.82 23.83-18.54-7.11zM111.72 59l-15.1.4-10.4-11 18.31-8.16 5.72 14.93zm-53 .17l-18.5 7.12L42 42.46l9.79 9.79zm8.67 34.43l2.05 7.92-4.81 4.81-5.46 5.46-5.33-2-13.15-5.09 12.4-5.14zm-8.67 18.64l-6.93 6.93L42 129l-1.82-23.83zm34.9-8.24l7.92-2.05 4.81 4.81 5.46 5.46-2 5.33-5.06 13.21-5.14-12.4zm18.81 7.71l-.4-15.1 11-10.4 8.16 18.32-14.93 5.72zM104 77.83l-2-7.92 4.81-4.81 5.46-5.46 5.29 2 13.25 5.08-12.31 5.1zM85.42 24.24v24.05l-7.2 18.54-9.13-22.05-2-4.81 1.75-1.5zM59.18 58.76l-6.93-6.93L42.46 42l23.83-1.82zM24.24 86h24.05l18.54 7.2-22 9.12-4.84 2-1.82-2.12zm43 45.62l17.79-7.93.34-.15v23.66L67.69 132zM86 147.2v-24.05l7.2-18.54 9.12 22 2 4.84-2.37 2zm19.13-16l7.11-18.54 6.93 6.93 9.79 9.79zm7.53-19l18.54-7.11-1.8 23.91-9.79-9.79zm34.54-26.78h-24.05l-18.54-7.2 22.06-9.14 4.81-2 1.78 2.07zm-34.1-65L129 41.44l-23.88-1.82L112.83 21zm-8.94 19.42l-17.43 7.73-.71.32V24.24l16.87 14.48zm-83.77 18.5l21.05-15.92-1.82 23.89L21 58.61zm3.41 28.07l15.76 18.36L41.44 129l-21.33-16.1zm34.55 64.64L42.42 130l23.88 1.82-7.69 18.58zm.82-.43L66.85 132 85 147.65l-26.14 3.64zm45.67-18.79L129 130l-16.1 21.33-26.48-3.68zm46.23-18.74L130 129l1.82-23.88 18.58 7.69zm-19.14-46.37l-.09-.1-1.84-24.2 21.33 16.12L147.65 85zm-19.38-46.56l-.27.65-7.69 18.58L86.41 23.8l7-1zM85 23.8L67 39.27l-.39.33-24.19 1.84 16.12-21.33 24.53 3.41zM20.16 58.89l.65.27 18.58 7.69L23.8 85l-.42-3zm131.12 53.66l-.65-.27-18.63-7.69 15.6-18.17 2.15 15.49zm-12.93-79.46l12.44 24.3L139.65 49l-9.78-7.39L114 20.65zM85.72 11.3l26 8.38-20.67 2.87-5.33.74-2.85-.4-23.13-3.21zM33.09 33.09l24.3-12.44L49 31.8l-7.39 9.78L20.65 57.4zM19.68 59.74l3.47 25 .14 1-3.61 26-8.38-26zm13.42 78.61L20.65 114l11.15 8.42 9.78 7.39 15.82 20.98zm52.62 21.95l-26-8.38 26-3.61 26 3.61zm52.63-21.95L114 150.79l8.42-11.15 7.39-9.78L150.79 114zm13.42-26.65l-1.51-10.83-2.11-15.15 2.13-15.32 1.48-10.67 8.38 26z"/><path class="cls-1" d="M3.46 64.13h163.23v42.75H3.46z"/><path class="cls-3" d="M15.48 77.75V80H12v13.31H9.36V80H5.87v-2.25zm5.98 6.38h4.31v-6.38h2.62v15.56h-2.63v-6.92h-4.3v6.93h-2.62V77.75h2.62zM41 77.75V80h-5.3v4.11h4.74v2.26h-4.72v4.67H41v2.26h-7.9V77.75zm17.07 4.82c-.25-1.89-.93-2.75-2.17-2.75-1.53 0-2.28 1.35-2.28 4.72v2c0 3.32.74 4.72 2.28 4.72 1.29 0 1.89-.86 2.17-2.75h2.48c-.45 3.5-2.05 5-4.65 5-2.89 0-4.9-2.1-4.9-7v-2c0-4.9 2-7 4.9-7 2.5 0 4.22 1.65 4.65 5zM67 84.13h4.3v-6.38h2.62v15.56H71.3v-6.92H67v6.93h-2.63V77.75H67zm10.19 9.18l4.35-15.57h2.57l4.38 15.57h-2.78l-.81-3.23h-4.17l-.79 3.23zm4.13-5.48h3l-1.49-6.14zm20.01-10.08v15.56H99l-4.6-9.23v9.23h-2.62V77.75h2.32l4.6 9.36v-9.36zM115 85.32v1.2c0 5-1.8 7-4.67 7s-4.9-2.1-4.9-7v-1.87c0-5 2-7.11 4.9-7.11 2.64 0 4.26 1.76 4.65 5h-2.48c-.23-1.81-.88-2.75-2.17-2.75-1.53 0-2.28 1.35-2.28 4.72v2c0 3.36.74 4.72 2.28 4.72s2.08-1.13 2.17-3.63h-2.12v-2.28zm12.14-7.57V80h-5.3v4.11h4.74v2.26h-4.74v4.67h5.3v2.26h-7.92V77.75zm6.54 13.31H139v2.26h-7.92V77.75h2.62zm7.67-4.54v-2c0-4.9 2-7 4.9-7s4.89 2.1 4.89 7v2c0 4.9-2 7-4.89 7s-4.9-2.1-4.9-7zm2.62-2v2c0 3.36.74 4.74 2.28 4.74s2.28-1.38 2.28-4.74v-2c0-3.36-.74-4.74-2.28-4.74S144 81.17 144 84.54zm20.37.8v1.2c0 5-1.8 7-4.67 7s-4.9-2.1-4.9-7v-1.87c0-5 2-7.11 4.9-7.11 2.64 0 4.26 1.76 4.65 5h-2.48c-.23-1.81-.88-2.75-2.17-2.75-1.53 0-2.28 1.35-2.28 4.72v2c0 3.36.74 4.72 2.28 4.72s2.08-1.13 2.17-3.63h-2.12v-2.28zM153.57 17.8a1.54 1.54 0 1 0-1.24 2.48 1.59 1.59 0 0 0 1.26-.68l.78.73a2.61 2.61 0 1 1-2-4.22 2.57 2.57 0 0 1 2 1z"/><path class="cls-4" d="M152.29 26.72h-.16a8 8 0 0 1-5.73-2.57 8 8 0 0 1 0-10.89A8 8 0 0 1 158 13a.22.22 0 1 1-.31.31 7.58 7.58 0 0 0-10.93.21 7.61 7.61 0 0 0 0 10.3 7.58 7.58 0 0 0 10.93.21.22.22 0 1 1 .31.31 8 8 0 0 1-5.71 2.38z"/><path class="cls-5" d="M152.28 24.12h-.18a5.42 5.42 0 0 1 0-10.83 5.43 5.43 0 0 1 4 1.58.22.22 0 0 1-.31.31 5 5 0 0 0-3.7-1.46 5 5 0 0 0 0 10 5 5 0 0 0 3.7-1.46.22.22 0 0 1 .31.31 5.44 5.44 0 0 1-3.82 1.55z"/></g></g></svg>