<svg xmlns="http://www.w3.org/2000/svg" viewBox="0 0 62.35 20"><defs><style>.cls-1{opacity:1}.cls-2{fill:#aaa8ac}</style></defs><title>toptal-logo</title><g id="Layer_2" data-name="Layer 2"><path class="cls-1 cls-2" d="M13.65 8.34L5.31 0 3.62 1.69l3.13 3.12L0 11.56l8.34 8.34L10 18.22l-3.1-3.13zm-9.91 3.52l5-5 1 1-5 5zM19.4 2.42V5h2.78v1.45H19.4v5.75c0 1.32.37 2.07 1.45 2.07a3.64 3.64 0 0 0 1.15-.13l.09 1.48a5.28 5.28 0 0 1-1.72.26 2.77 2.77 0 0 1-2.09-.82 4.17 4.17 0 0 1-.75-2.8V6.45h-1.68V5h1.65V3zm13.2 7.8c0 3.94-2.75 5.66-5.31 5.66-2.86 0-5.11-2.11-5.11-5.49 0-3.55 2.36-5.64 5.29-5.64S32.6 7 32.6 10.22zm-8.44.11c0 2.34 1.32 4.1 3.22 4.1s3.24-1.74 3.24-4.14c0-1.81-.9-4.07-3.19-4.07s-3.27 2.11-3.27 4.11zm9.4-1.87c0-1.37 0-2.47-.09-3.48h1.72l.11 1.83a4.15 4.15 0 0 1 3.79-2c2.6 0 4.54 2.18 4.54 5.4 0 3.83-2.36 5.73-4.87 5.73a3.74 3.74 0 0 1-3.28-1.67V20h-1.92zm1.92 2.84a3 3 0 0 0 3 3.06c2 0 3.24-1.67 3.24-4.12 0-2.11-1.12-3.94-3.17-3.94a3.05 3.05 0 0 0-2.93 2.38 3.15 3.15 0 0 0-.13.77zm11.89-8.88V5h2.77v1.45h-2.77v5.75c0 1.32.37 2.07 1.45 2.07a3.64 3.64 0 0 0 1.18-.13v1.48a5.29 5.29 0 0 1-1.72.26 2.77 2.77 0 0 1-2.09-.82 4.16 4.16 0 0 1-.75-2.8V6.45h-1.61V5h1.65V3zM59 13.08a17.93 17.93 0 0 0 .15 2.56h-1.76l-.15-1.34h-.07a4 4 0 0 1-3.26 1.59 3 3 0 0 1-3.26-3.06c0-2.58 2.29-4 6.41-4v-.2a2.18 2.18 0 0 0-2.42-2.44 5.14 5.14 0 0 0-2.8.79l-.44-1.3a6.9 6.9 0 0 1 3.52-.93C58.18 4.76 59 7 59 9.1zm-1.9-2.88c-2.11 0-4.52.33-4.52 2.4a1.7 1.7 0 0 0 1.81 1.85A2.69 2.69 0 0 0 57 12.67a2.19 2.19 0 0 0 .1-.67zM60.41 0h1.94v15.64h-1.94z" id="Layer_1-2" data-name="Layer 1"/></g></svg>