<?xml version="1.0" encoding="UTF-8"?>
<svg width="309px" height="66px" viewBox="0 0 309 66" version="1.1" xmlns="http://www.w3.org/2000/svg" xmlns:xlink="http://www.w3.org/1999/xlink">
    <!-- Generator: Sketch 51.2 (57519) - http://www.bohemiancoding.com/sketch -->
    <title>subbrand-icons</title>
    <desc>Created with Sketch.</desc>
    <defs>
        <linearGradient x1="85.3351749%" y1="85.336413%" x2="24.5903889%" y2="24.5842808%" id="linearGradient-1">
            <stop stop-color="#61C192" offset="0%"></stop>
            <stop stop-color="#61C192" stop-opacity="0" offset="100%"></stop>
        </linearGradient>
        <linearGradient x1="0%" y1="50%" x2="100%" y2="50%" id="linearGradient-2">
            <stop stop-color="#8FCFAC" offset="0%"></stop>
            <stop stop-color="#61C192" offset="100%"></stop>
        </linearGradient>
        <linearGradient x1="4.14260257e-07%" y1="49.9989268%" x2="100%" y2="49.9989268%" id="linearGradient-3">
            <stop stop-color="#8FCFAC" offset="0%"></stop>
            <stop stop-color="#61C192" offset="100%"></stop>
        </linearGradient>
        <linearGradient x1="7.75489558e-07%" y1="49.7680229%" x2="99.9801128%" y2="49.7680229%" id="linearGradient-4">
            <stop stop-color="#8FCFAC" offset="0%"></stop>
            <stop stop-color="#61C192" offset="100%"></stop>
        </linearGradient>
        <linearGradient x1="13.9078129%" y1="85.3380969%" x2="75.2067232%" y2="24.5843873%" id="linearGradient-5">
            <stop stop-color="#61C192" offset="0%"></stop>
            <stop stop-color="#61C192" stop-opacity="0" offset="100%"></stop>
        </linearGradient>
        <linearGradient x1="0.00101431546%" y1="50.1035862%" x2="99.8612089%" y2="50.1035862%" id="linearGradient-6">
            <stop stop-color="#8FCFAC" offset="0%"></stop>
            <stop stop-color="#61C192" offset="100%"></stop>
        </linearGradient>
        <linearGradient x1="0.115696105%" y1="49.9999999%" x2="100%" y2="49.9999999%" id="linearGradient-7">
            <stop stop-color="#8FCFAC" offset="0%"></stop>
            <stop stop-color="#61C192" offset="100%"></stop>
        </linearGradient>
        <linearGradient x1="0.0801279761%" y1="50.0133654%" x2="100%" y2="50.0133654%" id="linearGradient-8">
            <stop stop-color="#8FCFAC" offset="0%"></stop>
            <stop stop-color="#61C192" offset="100%"></stop>
        </linearGradient>
        <linearGradient x1="49.9974549%" y1="1.99619173%" x2="49.9974549%" y2="99.9996998%" id="linearGradient-9">
            <stop stop-color="#61C192" offset="0%"></stop>
            <stop stop-color="#61C192" stop-opacity="0" offset="100%"></stop>
        </linearGradient>
        <linearGradient x1="6.21116924e-14%" y1="49.9819168%" x2="100.220651%" y2="49.9819168%" id="linearGradient-10">
            <stop stop-color="#8FCFAC" offset="0%"></stop>
            <stop stop-color="#61C192" offset="100%"></stop>
        </linearGradient>
        <linearGradient x1="0.0415926309%" y1="49.9818694%" x2="100.218536%" y2="49.9818694%" id="linearGradient-11">
            <stop stop-color="#8FCFAC" offset="0%"></stop>
            <stop stop-color="#61C192" offset="100%"></stop>
        </linearGradient>
        <linearGradient x1="0.0816326529%" y1="50.0374766%" x2="99.9999998%" y2="50.0374766%" id="linearGradient-12">
            <stop stop-color="#8FCFAC" offset="0%"></stop>
            <stop stop-color="#61C192" offset="100%"></stop>
        </linearGradient>
    </defs>
    <g id="site" stroke="none" stroke-width="1" fill="none" fill-rule="evenodd">
        <g id="sponsor-stories" transform="translate(-565.000000, -2165.000000)" fill-rule="nonzero">
            <g id="how-it-works" transform="translate(180.000000, 2165.000000)">
                <g id="subbrand-icons" transform="translate(385.000000, 0.000000)">
                    <g id="films_icon" transform="translate(244.000000, 1.000000)">
                        <path d="M32.0547945,64.0151515 C23.9403153,64.0385335 16.1247872,60.9589221 10.2130137,55.40867 C3.71861329,49.351147 0.0221694231,40.8814793 7.10542736e-15,32.0075758 C1.34321777e-14,31.3004839 0.574056814,30.7272727 1.28219178,30.7272727 C1.99032675,30.7272727 2.56438356,31.3004839 2.56438356,32.0075758 C2.57836492,40.1702725 5.97176914,47.963927 11.940411,53.5415614 C23.5594176,64.3575829 41.670404,64.0407036 52.9027914,52.8248622 C64.1351788,41.6090208 64.4525256,23.5247131 53.6205479,11.922822 C48.0346852,5.96297235 40.2295332,2.57456682 32.0547945,2.56060606 C31.3466596,2.56060606 30.7726027,1.98739487 30.7726027,1.28030303 C30.7726027,0.573211192 31.3466596,0 32.0547945,0 C40.937766,0.0152274921 49.4193195,3.6963081 55.490411,10.1712963 C61.5938863,16.6558265 64.6917928,25.4004075 64.0294521,34.274779 C62.8735317,50.1531055 50.2270933,62.780915 34.3253425,63.9351326 C33.559589,64.0151515 32.7849315,64.0151515 32.0547945,64.0151515 Z" id="Shape" fill="url(#linearGradient-1)"></path>
                        <path d="M1.28219178,33.2878788 C0.574056814,33.2878788 0,32.7146676 0,32.0075758 C-6.32675039e-15,14.3302798 14.3514203,0 32.0547945,0 C32.7629295,0 33.3369863,0.573211192 33.3369863,1.28030303 C33.3369863,1.98739487 32.7629295,2.56060606 32.0547945,2.56060606 C15.7758262,2.58020221 2.58400862,15.7525874 2.56438356,32.0075758 C2.55953037,32.7126505 1.98830672,33.2830327 1.28219178,33.2878788 Z" id="Shape" fill="url(#linearGradient-2)"></path>
                        <path d="M11.5753425,33.2878788 C11.2291558,33.2974847 10.8937999,33.1668486 10.6455831,32.9256962 C10.3973664,32.6845438 10.2574006,32.3533859 10.2575342,32.0075758 C10.2722525,19.9931073 20.0226019,10.2571209 32.0547945,10.2424242 C32.7629295,10.2424242 33.3369863,10.8156354 33.3369863,11.5227273 C33.3369863,12.2298191 32.7629295,12.8030303 32.0547945,12.8030303 C21.4368393,12.8128337 12.8317356,21.4052615 12.8219178,32.0075758 C12.8175528,32.6991225 12.2675118,33.2640456 11.5753425,33.2878788 Z" id="Shape" fill="url(#linearGradient-3)"></path>
                        <path d="M32.0547945,53.7727273 C31.3466596,53.7727273 30.7726027,53.1995161 30.7726027,52.4924242 C30.7726027,51.7853324 31.3466596,51.2121212 32.0547945,51.2121212 C42.6727497,51.2023179 51.2778534,42.60989 51.2876712,32.0075758 C51.2876713,31.300484 51.8617281,30.7272729 52.569863,30.7272729 C53.2779979,30.7272729 53.8520547,31.300484 53.8520548,32.0075758 C53.8373365,44.0220442 44.0869872,53.7580307 32.0547945,53.7727273 Z" id="Shape" fill="url(#linearGradient-2)"></path>
                        <path d="M26.9260274,43.565867 C26.7150356,43.5642777 26.5074662,43.5124618 26.3205479,43.4147201 C25.9037049,43.1917399 25.6436158,42.7577575 25.6438356,42.285564 L25.6438356,21.8362795 C25.6436158,21.3640859 25.9037049,20.9301036 26.3205479,20.7071233 C26.7380765,20.4852887 27.2436599,20.5091662 27.6383562,20.7693603 L43.0246575,30.9406566 C43.3827889,31.1778641 43.5980911,31.5784512 43.5980911,32.0075758 C43.5980911,32.4367003 43.3827889,32.8372874 43.0246575,33.0744949 L27.6027397,43.3169192 C27.4056675,43.4628408 27.1708053,43.5492415 26.9260274,43.565867 Z M28.2082192,24.1923927 L28.2082192,39.8583228 L39.9972603,32.0075758 L28.2082192,24.1923927 Z" id="Shape" fill="url(#linearGradient-4)"></path>
                    </g>
                    <g id="news_icon" transform="translate(122.000000, 0.000000)">
                        <path d="M32.5,65 C31.7296296,65 30.9532407,64.9729167 30.1708333,64.91875 C12.9683406,63.3738189 -0.0209523541,48.6433683 0.598843834,31.3827651 C1.21864002,14.122162 15.2310034,0.361290616 32.5,0.0541666667 C33.2179702,0.0541666667 33.8,0.636196492 33.8,1.35416667 C33.8,2.07213684 33.2179702,2.65416667 32.5,2.65416667 C24.2184623,2.66667223 16.3109528,6.10415159 10.6527778,12.1513889 C-0.183692409,23.9367843 0.197578251,42.1698763 11.5172471,53.4919665 C22.836916,64.8140567 41.0699261,65.199227 52.8576389,54.3652778 C58.9061197,48.7012441 62.3406536,40.7864571 62.3458333,32.5 C62.3458333,31.7820298 62.9278632,31.2 63.6458333,31.2 C64.3638035,31.2 64.9458333,31.7820298 64.9458333,32.5 C64.9320408,41.4996069 61.1973839,50.092912 54.6270833,56.2430556 C48.6425506,61.8841435 40.7241221,65.0179157 32.5,65 Z" id="Shape" fill="url(#linearGradient-5)"></path>
                        <path d="M42.9180556,33.7729167 L32.5,33.7729167 C31.8030287,33.7585416 31.2414584,33.1969713 31.2270833,32.5 L31.2270833,22.0819444 C31.2170046,21.3674095 31.7855476,20.7787054 32.5,20.7638889 C38.9816752,20.7638889 44.2361111,26.0183248 44.2361111,32.5 C44.2212946,33.2144524 43.6325905,33.7829954 42.9180556,33.7729167 Z M33.8270833,31.1729167 L41.5277778,31.1729167 C40.9468347,27.1852337 37.8147663,24.0531653 33.8270833,23.4722222 L33.8270833,31.1729167 Z" id="Shape" fill="url(#linearGradient-6)"></path>
                        <path d="M53.3090278,33.7729167 C52.6015027,33.7730702 52.0237679,33.2073716 52.0090278,32.5 C52.0090278,21.7254615 43.2745385,12.9909722 32.5,12.9909722 C31.7820298,12.9909722 31.2,12.4089424 31.2,11.6909722 C31.2,10.973002 31.7820298,10.3909722 32.5,10.3909722 C44.7104789,10.3909722 54.6090278,20.2895211 54.6090278,32.5 C54.5942877,33.2073716 54.0165529,33.7730702 53.3090278,33.7729167 Z" id="Shape" fill="url(#linearGradient-7)"></path>
                        <path d="M63.7,33.7729167 C62.9924749,33.7730702 62.4147401,33.2073716 62.4,32.5 C62.395017,15.9887505 49.0112495,2.60498302 32.5,2.6 C31.7820299,2.59999996 31.2000001,2.01797014 31.2000001,1.3 C31.2000001,0.582029855 31.7820299,4.27943547e-08 32.5,0 C50.4492544,0 65,14.5507456 65,32.5 C64.9852599,33.2073716 64.4075251,33.7730702 63.7,33.7729167 Z" id="Shape" fill="url(#linearGradient-8)"></path>
                    </g>
                    <g id="podcasts_icon" transform="translate(0.000000, 1.000000)">
                        <path d="M53.9675676,55.9043771 C53.4582061,55.8986054 53.0020236,55.5888765 52.8101964,55.1185704 C52.6183691,54.6482642 52.7283353,54.1091685 53.0891892,53.7508418 C58.7820953,48.0589773 61.8595435,40.2740276 61.5918919,32.2417508 C61.0472799,16.6303874 48.1911368,4.25526837 32.5175676,4.25526837 C16.8439983,4.25526837 3.98785519,16.6303874 3.44324324,32.2417508 C3.17559163,40.2740276 6.25303981,48.0589773 11.9459459,53.7508418 C12.2864308,54.2512767 12.2224471,54.9221681 11.7934599,55.3497109 C11.3644727,55.7772537 10.6913148,55.841022 10.1891892,55.5016835 C3.98654915,49.3362842 0.616901455,40.8898377 0.878378378,32.162963 C0.878378378,14.7576254 15.0358606,0.647811448 32.5,0.647811448 C49.9641394,0.647811448 64.1216216,14.7576254 64.1216216,32.162963 C64.4113979,40.8915212 61.067026,49.3510339 54.8810811,55.5367003 C54.6389507,55.7772686 54.3094172,55.9099013 53.9675676,55.9043771 Z" id="Shape" fill="url(#linearGradient-9)"></path>
                        <path d="M44.6655405,62.2599327 C43.966975,62.2599327 43.4006757,61.6955401 43.4006757,60.9993266 L43.4006757,39.3151515 C43.4006757,38.618938 43.966975,38.0545455 44.6655405,38.0545455 L62.2331081,38.0545455 C62.6131682,38.054676 62.9730252,38.2251219 63.2131368,38.518735 C63.4532484,38.8123481 63.5481615,39.1980038 63.4716216,39.5690236 C61.4127945,49.6248071 54.5699028,58.0516354 45.1310811,62.1548822 C44.9840646,62.219233 44.8260315,62.2548936 44.6655405,62.2599327 Z M45.9304054,40.5845118 L45.9304054,58.9683502 C53.2311376,55.1915522 58.5884697,48.5134596 60.6783784,40.5845118 L45.9304054,40.5845118 Z" id="Shape" fill="url(#linearGradient-10)"></path>
                        <path d="M20.3783784,62.2599327 C20.2030374,62.2609942 20.029442,62.2251989 19.8689189,62.1548822 C10.4300972,58.0516354 3.58720551,49.6248071 1.52837838,39.5690236 C1.45183847,39.1980038 1.54675157,38.8123481 1.78686318,38.518735 C2.02697478,38.2251219 2.38683179,38.054676 2.76689189,38.0545455 L20.3344595,38.0545455 C21.033025,38.0545455 21.5993243,38.618938 21.5993243,39.3151515 L21.5993243,60.9905724 C21.5993243,61.6867859 21.033025,62.2511785 20.3344595,62.2511785 L20.3783784,62.2599327 Z M4.39189189,40.5757576 C6.48180053,48.5047054 11.8391327,55.182798 19.1398649,58.959596 L19.1398649,40.5757576 L4.39189189,40.5757576 Z" id="Shape" fill="url(#linearGradient-11)"></path>
                        <path d="M52.7027027,34.5441077 C52.0041371,34.5441077 51.4378378,33.9797152 51.4378378,33.2835017 C51.4378378,22.8402991 42.9433485,14.3744108 32.4648649,14.3744108 C21.9863812,14.3744108 13.4918919,22.8402991 13.4918919,33.2835017 C13.4918919,33.9797152 12.9255926,34.5441077 12.227027,34.5441077 C11.5284615,34.5441077 10.9621622,33.9797152 10.9621622,33.2835017 C10.9621623,21.4382026 20.5971155,11.8356906 32.4824324,11.8356906 C44.3677494,11.8356906 54.0027025,21.4382026 54.0027027,33.2835017 C54.0028345,33.6239916 53.8647602,33.9500548 53.6198977,34.1874972 C53.3750353,34.4249396 53.0442112,34.5535658 52.7027027,34.5441077 Z" id="Shape" fill="url(#linearGradient-12)"></path>
                    </g>
                </g>
            </g>
        </g>
    </g>
</svg>